<svg xmlns="http://www.w3.org/2000/svg" viewBox="0 0 506.59 506.59" width="100" height="100"><defs><style>.cls-1{fill:#69915b;}.cls-2{fill:#a3c097;}.cls-3{fill:#473b38;}.cls-4{fill:#2d2422;}.cls-5{fill:#3b312f;}.cls-6{fill:#4e4340;}.cls-7{fill:#605a56;}.cls-8{fill:#241e1c;}.cls-9{fill:#231e1c;}.cls-10{fill:#020101;}.cls-11{fill:#191313;}.cls-12{fill:#403a39;}.cls-13{fill:#413b39;}.cls-14{fill:#4e4845;}.cls-15{fill:#e5d8d8;}.cls-16{fill:#e5d7d7;}.cls-17{fill:#403a38;}.cls-18{fill:#fdfd4c;}.cls-19{fill:#fbfbfa;}.cls-20{fill:#f6f5f3;}.cls-21{fill:#d4d440;}.cls-22{fill:#fbfafa;}.cls-23{fill:#fbfbfb;}</style></defs><g id="Calque_2" data-name="Calque 2"><g id="Calque_8" data-name="Calque 8"><path class="cls-1" d="M506.59,0V50.42c-.87.31-1.82.51-2.71.75C485.17,56.32,466.61,62,448.25,68.23c-9.41,3.22-18.52,7.31-28.23,9.64h-.25a4,4,0,0,1-.79-.08A7.4,7.4,0,0,1,415,75.11c-2-2.19-4.32-4.08-6.21-6.35-4-4.78-9.11-6.82-15.16-7l-.23,0a10.39,10.39,0,0,0-3.86,1.13l0,0c-1.48.71-2.9,1.6-4.44,2.17a9.51,9.51,0,0,1-1.58.45l-.36.22c-7.35,4.34-13.36,10.33-19.63,16-3.93,3.56-7.44,7.55-11.77,10.7-12.27,9-25.75,11.86-40.5,8.15-12.2-3.07-24.07-7.39-36.53-9.57-23.53-4.13-46.54-2-69.18,5.27-7.73,2.5-15.51,5-23.65,5.61-15,1.13-27.59-4.54-38.16-14.89-6.93-6.78-13.71-13.72-22-19l-.2-.13-1-.64c-1.42-.9-2.82-1.86-4.26-2.72-2.89-1.74-5.94-3.11-9.65-2.9h-.13a17.94,17.94,0,0,0-1.94,0,12.2,12.2,0,0,0-1.64.26A11.84,11.84,0,0,0,98.54,64a13.52,13.52,0,0,0-1.11.92,13.59,13.59,0,0,1-3.08,2.53,9.67,9.67,0,0,0-1.33.78h0a9.4,9.4,0,0,0-2.39,2.4,9.88,9.88,0,0,0-.77,1.3A9.67,9.67,0,0,1,88.19,74l-.14.16a57,57,0,0,0-4.8,6.2s0,0,0,0c-.36.54-.7,1.09-1,1.65a31.54,31.54,0,0,0-2.46,5.18c-.21.56-.41,1.14-.58,1.72-2.29,6.42-4.68,12.81-6.46,19.41a38.28,38.28,0,0,0-1.63,9.5,4.92,4.92,0,0,1-.15,3.08,6.81,6.81,0,0,0-.58,5.37,29.73,29.73,0,0,1,0,6.6c-2.1,4.51-1.72,9,0,13.53a15.54,15.54,0,0,1-.23,4.86,8.57,8.57,0,0,0,.77,5.34,4.86,4.86,0,0,1,.41,2.32c0,.6,0,1.2.07,1.8a43.47,43.47,0,0,0,.48,4.43h0c.24,1.51.54,3,.89,4.5,0,0,0,.06,0,.08.8,3.35,1.81,6.65,2.8,9.95l.12.4a5.6,5.6,0,0,1,.34,2.26c0,.16,0,.32,0,.47a7.4,7.4,0,0,0,.81,2.47h0A12,12,0,0,1,77.94,188a4,4,0,0,1,.1.85c.23.81.47,1.6.73,2.39,0,0,0,0,0,0,2,6.11,4.93,11.92,5.71,18.44,1.35,11.44-1.72,22-5.85,32.42-5.69,14.4-10.19,29.2-10.91,44.75-1,20.82,5.15,39.56,17.92,56.14,2.24,2.91,5.77,5.26,5.52,9.67l-.07.22c-.14.46-.29.92-.44,1.38-4.54,14.15-10.19,27.93-13.56,42.47a381.77,381.77,0,0,0-9.67,62.83,353.24,353.24,0,0,0-.15,44.73,8.44,8.44,0,0,1-.1,2.26H0V0Z"/><path class="cls-2" d="M506.59,48.26V506.59H491.64c-11.89-3.48-22-10.58-31.67-18.66-24.35-20.43-37.61-47.59-46.39-77.39-4.46-15.16-6.92-30.71-9-46.34-.6-4.59.87-8.29,4.05-11.75,11.74-12.78,20.77-27,24.1-44.48,2.48-13,1.84-25.73-.85-38.51-2.4-11.41-6.26-22.36-10.49-33.19-1.27-3.24-2.65-6.46-2.92-10a2.31,2.31,0,0,0,0-.37,25.38,25.38,0,0,0-.3-5.77c-.05-.33-.1-.66-.14-1s-.09-.85-.13-1.27c-1-12.13,3.27-23.13,7.1-34.22a128.28,128.28,0,0,0,7.25-38.38c.47-16.66-.52-33.12-6.28-49-1.64-4.51-3.17-9.07-5.75-13.18-1-1.63-1.9-3.37-1.3-5.31a4.76,4.76,0,0,1,.31-.75c7.4-4.23,15.66-6.26,23.59-9.13,20.6-7.47,41.56-13.82,62.74-19.44C505.94,48.38,506.26,48.32,506.59,48.26Z"/><path class="cls-3" d="M419.29,77c18.37,31.3,18.64,64.55,10.72,98.72-1.68,7.21-4.6,14-6.71,21.06-2.94,9.86-4.61,19.58-2.89,29.77-4.81-.93-3.32-5.4-4.72-8.1-4.07,12.29-4,16.31,1.08,32.12,4.74,14.6,7.57,29.43,6.92,44.89-.76,18-7.81,32.91-20.95,45.11-2.36,2.18-5.65,2.79-7.91,5.07-3.79,2.2-8.18,2.64-12.23,4.08-7.69,2.73-12.67,8.22-16.32,15.21-1.62,3.09-3.06,6.27-4.8,9.29-.91,1.6-1.66,3.86-4.38,2.79-1.32-2.33-1.56-5-2.31-7.49-1-14-4.36-27.36-11.36-39.65-.74-1.29-1.65-2.5-1.78-4.05s.77-3.15.11-4.88c-2-5.24.61-9,4.44-12.07,3.55-2.9,7.9-4.13,12.14-5.57,19.88-6.78,27.47-24.88,18.35-43.76-2.17-4.47-4.29-9-7.41-12.92a6.64,6.64,0,0,1-1.7-4.55c.86-3.84,4.21-5.79,6.55-8.5,1.51-1.76,3.53-3.38,2.25-6s-3.77-3.61-6.6-3.44c-1.64.1-3.28.63-4.79-.46-6.38-13.88-18.95-18.55-32.47-21.77-1.76-.42-3.67-.33-4.93-2-.53-1.42.13-2.43,1.14-3.32,3.56-2.37,3.84-4.06,1-6.88-2.66-2.68-6-3.28-9.61-3-7.57.49-14.77,2.44-21,6.65-9.59,6.46-19.66,12.22-28.5,19.77-3.66,3.12-5.88,7.06-8.07,11.16-1.28,2.4.06,4.09,1.06,5.95a3.52,3.52,0,0,1,0,1.41c-2.52,4.41-2.4,4.69,2.77,6.35a3.28,3.28,0,0,1,1.2,2.62c-2.87,4.78-5.88,9.48-8.58,14.38a2.5,2.5,0,0,1-2.75-.62c-.91-1-.92-2.47-1.58-3.63-.82-1.44-1.83-2.59-3.54-1.67a2.88,2.88,0,0,0-1.33,3.87c1.35,3.22,2.51,6.79,5,9.13,6,5.65,10.55,13.21,18.2,16.73,11.9,5.49,22.21,13.85,34.45,18.64a2.71,2.71,0,0,1,1.31,1.47c8.28,24.68,7.15,49-2.62,73.07a9.31,9.31,0,0,1-2.55,4.16,2,2,0,0,1-2.28,0c-1.77-4-5.21-5.58-9.28-6.26-2.91-.49-5.75-1.35-8.6-2a24,24,0,0,0-13.69.36,2.93,2.93,0,0,1-1.29-.84c-1.29-2.15-.19-4.15.29-6.23,2.71-11.78,5.25-23.57,6.1-35.69,1-14.39-5.92-24.82-16.28-33.45-10-8.29-11.47-8.14-20.58,1.2-6.85,7-13.73,14.34-14.57,24.77-1.22,15.18,0,30.16,5.71,44.5.87,2.19,1.84,4.31.59,6.66a2.65,2.65,0,0,1-1.22.91c-8.53-2.71-15.6,2.41-23.25,4.41-1.74.46-1.5,2.45-2.34,3.63-1.24,1.32-2.62,2.14-4.48,1.25-5.81-7.19-7.88-16-9.92-24.64a99.1,99.1,0,0,1,.62-48.66A40.1,40.1,0,0,1,191.8,299c4.16-2.74,8.59-5.05,12.81-7.73,4.47-2.84,6.72-7.51,10.29-11.06,2.44-2.43.09-5.14-2-7.21a3.18,3.18,0,0,1-.18-2.85c4-2,6-5.67,8.1-9.32a3.76,3.76,0,0,1,2.86-.38c4.12,2.61,10.67-1.75,11.23-7.59a13,13,0,0,0-2-9c-9.39-13.58-18.29-27.51-29.28-39.92a26.88,26.88,0,0,0-12.06-7.53c-7.57-2.47-13.56,4.22-15.19,10-.6,2.12,1.09,3.3,2.25,4.66,1,1.81,2.1,3.61.65,5.69-3,1-4.88-1.27-7.1-2.51-7.89-4.39-16-6.93-24.92-3.17-5.25,2.22-8.73,5.82-9,11.85a5.15,5.15,0,0,1-1.47,3.57,1.7,1.7,0,0,1-2,.05c-1.73-1.19-1.75-4.83-5.18-3.57a5.91,5.91,0,0,1-2.85-.52c-3.38-1.78-6.82-.78-7.61,2.83s-1.47,7.28,2.46,10.3c5.08,3.9,5,6.76,1.84,12.43-3.57,6.51-7.27,12.94-8.43,20.57-2.83,18.61,6.4,32,21.31,37.67,5.13,1.95,5.76,4.47,1.95,8.45q-10.68,11.14-21.84,21.82c-3.47,3.31-6,3.2-9.53-.2-6.25-6-12.33-12.09-18.32-18.3-5.22-5.4-4.2-12.44-4-18.88A122.06,122.06,0,0,1,93,258.47c4.24-11.12,3.34-22.35,2.39-33.83-1.4-16.83-10.48-29.57-20.62-41.93l-.33-2c.8-2.12.23-4.12-.44-6.14-1.72-5.2-1.56-10.93-4.47-15.8,0-.62-6.2-38.57,8.12-70.83a54.59,54.59,0,0,0,9.55-15.11L88.38,71a10.1,10.1,0,0,0,5-5l3-2a52.06,52.06,0,0,0,8-3.85l2-.09c.6.57,1.14,1.5,1.9,1.55,9.66.67,12.85,8.47,16.68,15.32,5.93,10.59,10.2,22,15.74,32.78a95.83,95.83,0,0,0,6.86,11.52c4.56,6.46,10.6,7.8,17.94,6.1,7.69-1.77,14.71-5.18,21.71-8.58,16.57-8,34.06-12.93,52.17-15.8,26.75-4.24,52,1.17,76.47,11.84,8.41,3.67,15.65,9.33,23.59,13.8,8.76,4.94,11.88,4.32,18.58-2.91C363.23,120,365.79,113,368.4,106a147.93,147.93,0,0,0,4.67-14.71c3.29-12.67,8.73-24,20.51-31.14,5.79-.88,10.58,1,14.75,5A101.76,101.76,0,0,1,419.29,77Z"/><path class="cls-4" d="M497.22,506.59H144.31c-1.46-2-1.87-4.6-2.56-7-5.78-19.87-11.17-39.85-16.42-59.87-4.28-16.33-8.63-32.66-12-49.19-2.27-11.1-8.09-19.71-15.72-27.56-2.59-2.67-6-4.89-6.95-8.71a8.76,8.76,0,0,1-.27-2.11C76.93,337.32,67.86,320.42,66,300.11c-1.57-16.85,1.68-33,7-48.81a128,128,0,0,1,4.47-12.11c7.08-15.58,6.69-31.12.15-46.72a35.94,35.94,0,0,1-1.14-3.78,11.6,11.6,0,0,1,1.54-.66,1.19,1.19,0,0,1,1.14.14h0a9,9,0,0,1,1.44,1.63A77.1,77.1,0,0,1,89,203.29l.16.31,0,.06A68.56,68.56,0,0,1,95,221.86a.06.06,0,0,1,0,0,74.85,74.85,0,0,1,.9,7.44,97.68,97.68,0,0,1,.13,12.79h0a63.62,63.62,0,0,1-2.46,14.47l0,.1c-.39,1.3-.83,2.6-1.32,3.89-1.06,2.79-2,5.62-2.87,8.46l0,.08a110.2,110.2,0,0,0-4.83,30.77v.83a73.23,73.23,0,0,0,1,12.42,54.5,54.5,0,0,0,17.53,32.22c2.5,2.27,5.78,3.19,8.27,5.39a2.42,2.42,0,0,1,.25.58.49.49,0,0,1,0,.27.17.17,0,0,1,0,.07c-2.25,5.38-2.21,5.88,3.7,5.33,15.76-1.49,25.75,9.35,28.79,22.46,1.76,7.55,3,15.23,5.12,22.7a7.52,7.52,0,0,1,.25,4.41,6,6,0,0,1-.82,1.16,3.45,3.45,0,0,1-.36.32c-1.7,1.35-3.48-.22-4.85-1.53-6.74-6.39-13.34-12.92-17.44-16.94,14.22,15.44,28.76,35.22,44.56,54,9.59,11.39,22.18,19,35.38,25.33,16.6,8,34,13.24,52.79,12,18.33-1.21,36.45-3.09,52.33-13.52,10-6.54,17.86-15.41,25.6-24.24,16.1-18.34,31-37.67,45.26-57.47a19.8,19.8,0,0,1,1.82-2.16c-2,1.78-4,3.41-6,5.1-8,6.75-15.25,14.32-22.7,21.66-1.75,1.73-3.4,3.73-6.25,3.62a2.36,2.36,0,0,1-.47-.16h0l-.15-.06a2.63,2.63,0,0,1-.49-.33.69.69,0,0,1-.13-.11.14.14,0,0,1,0-.06c-.61-1.58.07-2.91,1-4.08,9-11.36,14.48-24.57,19.53-37.87,5.42-14.27,14.92-22.34,31.29-23.21-1.68-1.14-3.38-1.47-4.52-2.27a3,3,0,0,1-1.16-1.43C409.7,334.71,418.27,320,421,302c2-13.53.52-27.1-3.24-40.32-1.55-5.42-2.77-11-4.83-16.19-4.41-11.24-1.33-21.84,2.07-32.48.17-.55.74-1,1.47-1.9a33.9,33.9,0,0,1,1.67,8c0,.33.09.66.14,1a15.74,15.74,0,0,0,2.18,6.47c5.22,15.55,11.89,30.63,14.6,47,4.82,29-1.51,54.87-21.67,76.53-5.38,5.77-7.2,11-6,18.86,3.7,24.89,9.07,49.23,20,72,14.17,29.44,34.79,52.34,66.07,64.21C494.68,505.68,496,506.14,497.22,506.59Z"/><path class="cls-2" d="M146.12,506.59H65.17a332.36,332.36,0,0,1,.33-53.17c2.78-33.94,10.07-66.87,22.83-98.52a4.74,4.74,0,0,1,2-2.71l.71.73a202.07,202.07,0,0,1,19.85,22.89,13.39,13.39,0,0,1,2.14,4.95C123,423,133.67,465,146.12,506.59Z"/><path class="cls-5" d="M122.06,66.21c9.15,4.75,16,12.25,23.31,19.27,12.16,11.72,26.42,17,43.26,13.27,7.28-1.63,14.4-4,21.55-6.08,29.44-8.71,58.65-7.48,87.74,1.76,7.1,2.26,14.19,4.8,21.69,5.4,14.55,1.16,26.67-4.37,36.92-14.25,7.05-6.8,14-13.67,22.14-19.22a13.47,13.47,0,0,1,4.83-2.45c3,1.06,1.34,2.92.38,4-6.54,7.75-8.82,17.31-11.67,26.66a176.16,176.16,0,0,1-7.89,21.49,41.41,41.41,0,0,1-8.64,12.07c-4.19,4.19-8.35,4.46-14.57,1.34s-11.42-7.35-17.39-10.62c-18.16-10-37.63-16.09-58.19-17.21-27.67-1.52-53.81,5.47-78.75,17.29-7,3.33-14,6.83-21.76,8.43-6.88,1.42-12.72.21-17.18-5.86-5.46-7.42-9.15-15.75-13-24-4.2-9-8-18.22-13.44-26.64C120.43,69.39,119.13,67.38,122.06,66.21Z"/><path class="cls-3" d="M111.4,351.35c-3.4.38-6.15-1.09-8.59-3.22C91,337.82,84.62,325,83.27,309.19c-1.48-17.26,1.47-33.79,7.42-49.7,6.52-17.42,3.89-34.52-1-51.27-2.15-7.33-7.84-13.68-13.27-19.53a8.82,8.82,0,0,1-1.68-6,7.2,7.2,0,0,1,6.31,4.1c3,5.18,6.4,10.06,9.67,15.05,5.06,7.71,4.79,17,6.77,25.73,3.87,16.94-3.59,31.9-7.5,47.48a109.06,109.06,0,0,0-3.59,31c.18,4.65,1.42,8.59,5,11.93,6.08,5.65,11.88,11.59,17.62,17.59,2.11,2.21,3.45,2.24,5.6,0q11.26-11.62,22.88-22.9c2.64-2.56,1.9-3.44-1.18-4.52-14.95-5.23-22.8-16.15-23.8-31.68-.69-10.81,3.81-20.39,9.18-29.47,3.17-5.36,3.16-6.38-1.74-10.67-5.14-4.5-3.81-14.17,2.24-16.7,2.42-1,4.19-.81,5.09,1.94-.07,1.49-1.18,2.23-2.17,3.11-4,3.52-3.94,4.87-.35,8.91,2.38,2.66,5.67,4.64,6.57,8.46.16,2.17-1.15,3.68-2.25,5.35-4.2,6.38-8.19,12.92-9.71,20.53-3.28,16.38,3.82,29.69,19.73,34.71,12.57,4,18,12,17.88,24.61,0,.82.42,1.6.42,2.44,0,2.45-1.39,4.37-2.57,6.32-4.7,7.79-6.66,16.36-7.46,25.28-.17,1.81-.18,3.65-1.74,5-2.44.86-3.78-.85-4.91-2.4-5.48-7.5-13.27-10-22-10.5C116.14,353.21,113.27,354,111.4,351.35Z"/><path class="cls-3" d="M122.06,66.21c-1,1.69.27,2.86,1.07,4,6.46,9.38,10.43,20,15.09,30.26a142.65,142.65,0,0,0,10.25,18.77c4,6.09,9.55,7.7,16.43,6.2,10-2.19,18.68-7.67,28-11.49,24.26-9.91,49.29-16,75.68-14,15.14,1.15,29.61,5.48,43.71,11.1,10,4,18.64,10.12,27.71,15.61,7.5,4.55,10.62,4.35,16.42-2.22,7.71-8.73,10.53-19.85,13.93-30.58,3.21-10.14,5.87-20.47,13.24-28.67.21-.22-.07-.89-.12-1.35,3-2.19,6.1-4.18,10.08-3.76a5.32,5.32,0,0,1-2.74,5c-10.08,6.07-12.9,16.48-15.9,26.66A234.87,234.87,0,0,1,366,117.16a41.34,41.34,0,0,1-8.92,12.5c-3.81,3.9-8.72,5.46-14.12,2.73a72.94,72.94,0,0,1-8.79-4.66c-20.26-14.06-42.81-21.68-67.22-24-18.43-1.75-36.16,2.06-53.77,6.93-12.74,3.52-24.35,9.65-36.37,14.86-5.5,2.38-11.11,4.26-17.25,4.39-5.53.12-9.4-2.35-12.66-6.53-6.43-8.22-10.15-17.86-14.68-27.08-4.81-9.82-8.71-20.13-15.75-28.75-1.67-2-3.39-3.6-6.19-3.54s-4-1.32-3.93-4C112.61,59.47,117.44,62.56,122.06,66.21Z"/><path class="cls-3" d="M69.49,158.79c5.23,4.22,4.15,10.86,6.23,16.29.81,2.13,1.11,4.23-1.32,5.65A83.85,83.85,0,0,1,69.49,158.79Z"/><path class="cls-3" d="M87.16,72.85c3,3.21-1.1,4.77-2.08,6.46-1.87,3.22-2.63,7.88-7.48,8.65C80,82.4,82.85,77.18,87.16,72.85Z"/><path class="cls-3" d="M104.34,60.12a7.74,7.74,0,0,1-8,3.85A10.82,10.82,0,0,1,104.34,60.12Z"/><path class="cls-3" d="M93.37,66c0,3.28-1.7,4.95-5,5C90.05,69.34,91.71,67.67,93.37,66Z"/><path class="cls-6" d="M258.55,108.87c21.84-.29,41.84,5.74,60.29,17.34,6.81,4.28,14.8,6.51,20.21,13.23,4.59,5.71,4.75,11.16-.15,16.76-10.1,11.53-23.16,19.21-35.3,28.13-12.29,9-24.56,18.07-37.65,25.93-11.38,6.84-23.21,7.43-35.23,2.17-12.18-5.34-23.37-12.62-35.28-18.47-12.48-6.14-25.07-12.14-38.75-15.4-5.51-1.31-8.48-8.12-6.54-14.06,3.61-11,11.16-19,20.21-25.72,9.35-6.92,19.46-12.69,29.63-18.31,12.33-6.82,26.18-8.11,39.7-10.56A96,96,0,0,1,258.55,108.87Z"/><path d="M111.4,351.35c4.31,0,8.61-.28,12.92.37,9.43,1.41,16,6.7,20.81,14.64,2.69.68,3.38,3,3.93,5.2,1.47,5.7,3.1,11.37,4.21,17.17.82,18.62,10.53,30.42,28.38,34.64,2.28.54,4.58.82,6.86,1.16,11.57,1.74,23.19,2.47,34.15-2.69,4.83-2.27,10.17-4.27,11.68-10.58,1.74-7.29.4-9.44-7.11-10-10.19-.81-19.8-3.77-29.22-7.57a8.93,8.93,0,0,1-4.4-9.57c.46-2.9,1.89-5.26,5.49-4.91l3-2.13c7.86-5.42,16.45-8.41,26.11-7.73a1.44,1.44,0,0,0,.82-.12c4.1-4.51,9.88-3.12,14.9-3.84,6.66-1,13.49-.39,20.25-.25a5.86,5.86,0,0,1,4.75,2.19,1.27,1.27,0,0,0,.77,0c8.29-1.59,16.09,1,23.95,2.94,3.2.78,6.33,1.92,8.15,5.05l1.07.82c5.62,1.57,6.4,5.84,2.16,11.81-12.78,8.51-27.29,11.58-42.22,13.29-2.43.27-5.34,0-6.29,2.95s.06,5.89,2.41,8.15c4.43,4.25,10.13,5.58,15.87,6.47a101.36,101.36,0,0,0,41.44-2C334,412.07,346.6,401.06,353,383.49a16.42,16.42,0,0,1,2.27-4.69,4,4,0,0,1,2.47-1.53l7.11-14.2c4.54-9,11.84-14.47,21.6-16.79,2.41-.57,4.77-1.32,7.16-2,2.78.43,5.58.79,8.34,1.32.94.18,2,.63,2,1.85s-1.07,1.55-2.07,1.75c-3.24.65-6.49,1.31-9.75,1.89-9,1.59-15.47,6.48-19.31,14.77-5.71,12.34-10.26,25.21-17.35,36.91A82.8,82.8,0,0,1,347.62,413c.08,2.36-1.72,3.3-3.24,4.58-6.93,5.84-14.58,10.15-23.59,11.76a6.29,6.29,0,0,0-1.35.62c-5.91,2-12,2.3-18.19,2.31-16.52,1.63-33,2.25-49.07-3a14.3,14.3,0,0,0-11.4.78c-8.06,3.83-16.38,7.12-25.24,8.69-5.67,1-11.58-1-17.17,1.25a49.69,49.69,0,0,1-7.52-.19c-6.35.16-12.22-1.72-17.9-4.33-11.21-3.84-18.06-12.37-23.77-22.13-1.16-2-.88-4.12-.9-6.24-2.53-8.6-4.3-17.37-6.12-26.14-2-9.46-6.67-17-16-20.74-5.27-2.11-10.86-.57-16.29-1-1.87-.13-3.9-.08-4.31-2.43s1-3.71,3.12-4.41c.47-.15,1-.18,1.45-.36A9.66,9.66,0,0,0,111.4,351.35Z"/><path class="cls-7" d="M303.7,386.87c2.57-3.81,2.92-7.44-.84-10.75.34-4.89,3-9,4.39-13.61,5.75-19.43,6.91-38.88.62-58.42-.62-1.9-1.35-3.78,0-5.67a2.67,2.67,0,0,1,1.88-1.18c10.41,3.06,18.64,9.53,26.25,16.93,3.18,3.08,6.7,6,6.8,11,9.21,13.23,13.07,28.16,13.93,44a25.83,25.83,0,0,1,.07,10.14c-.6,1.31-1.21,2.61-1.82,3.91-5.48,9.92-12,18.88-21.82,25.07-15,9.47-31.09,10.14-47.77,6-3.53-.87-7.11-1.73-10.21-3.77-4.67-3.08-4.5-7.38.49-10A45.29,45.29,0,0,1,286,397.08C292.87,395.41,299.15,392.62,303.7,386.87Z"/><path class="cls-7" d="M151.36,389.16c-2.45-7.5-3.34-15.42-6.23-22.8-.32-13.55,3.62-25.84,11.06-37.08-.35-3.15,1.72-5.23,3.47-7.34,7.64-9.24,17.08-16.42,26.87-23.19a7.23,7.23,0,0,1,4.63-1.5,2.59,2.59,0,0,1,1.86,1.19c-.56,6.95-3.24,13.45-4.14,20.38-2.42,18.76.52,36.61,8,53.85.92,2.12,2.35,4.05,2.25,6.51-5.08,4.79-5.08,8.07,0,13,4.49,3.73,9.86,5.9,15,8.42,2.71,1.31,5.77,2.3,6,5.87s-2.19,5.42-4.82,7c-19.36,11.32-43.11,10-58.22-11.7C154.42,397.93,153.41,393.29,151.36,389.16Z"/><path class="cls-6" d="M268.92,367.3a228.46,228.46,0,0,0-39.9,1.9c-2-7.32-5.12-14.3-6.54-21.84-2-10.4-1.79-20.83-1.06-31.24.62-8.82,6.6-15,11.89-21.37a47.64,47.64,0,0,1,10.23-9.43c3.13-2.05,6.15-2.45,9.29-.42,9.38,6.05,17.2,13.74,21.88,23.91,3.26,7.09,3,15.1,1.91,22.59C274.84,343.5,273.35,355.73,268.92,367.3Z"/><path class="cls-8" d="M366.69,152.76c.21-6.6,3.09-12.51,4.95-18.67,5.07-16.83,9.13-33.9,13-51,.91-4,1.72-8.56,6.48-9.81,5.06-1.32,9.11.73,12.88,4.47,10,10,14.12,22.59,16.93,35.85,4.2,19.83,5.82,39.64-1.26,59.25-3.2,8.86-7.59,16.91-15.09,22.93-4.29,1.83-6.2-1.26-7.69-4.16-4.07-7.91-2.91-15.71,1.39-23.16,2.4-4.18,3.64-8.3,2-13.18-3.87-11.52-16.7-14.86-25.84-6.69C372.23,150.51,370.64,153.9,366.69,152.76Z"/><path class="cls-6" d="M258.8,254.82c-.2-6.43,3.22-10.81,8.17-14.3,1.6-1.08,3.21-.51,4.76.06,5.15,1.89,9-.11,12.22-4,2.63-3.19,5.19-6.44,7.64-9.78,7.35-10,16.88-17.7,27.05-24.6,2.6-1.76,5.37-4.17,9.08-2.54,13,.27,24,5.37,33.48,14.05a13.31,13.31,0,0,1,4.55,10.12c.66,2.82-1.35,4.23-3.12,5.7a214.8,214.8,0,0,1-32.38,22,336.72,336.72,0,0,1-37,18.19,16.28,16.28,0,0,1-13.44,0,132.26,132.26,0,0,1-18.21-10.14C260,258.54,258.37,257.23,258.8,254.82Z"/><path d="M258.8,254.82c7.69,6.19,16.42,10.54,25.46,14.32a6.64,6.64,0,0,0,5.31-.19c26.42-11.05,51.5-24.43,73.77-42.65a28.38,28.38,0,0,0,2.41-2.49c3.44-2.69,7-2.59,10.39-.07,3.66,2.7,4.12,6.29,1.06,9.67-2.64,2.91-5.61,5.5-8.44,8.23-1.11,2-2,4.09-4,5.37-3.4,3.86-8.15,5.89-12.11,9-.48.44-1.06.76-1.57,1.16-1.11.84-3,1.39-2.53,3.12.41,1.45,2.21.94,3.44,1.14a3.88,3.88,0,0,1,2.57,1.26,6.74,6.74,0,0,1,.13,7.1c-7,12.89-21.61,15.38-29.78,7-2-2.06-3.88-2.09-6.17-.85-2.76,1.5-5.66,2.7-8.51,4-6.43,4.08-13.16,7.13-21.07,6.12-11-3.23-20.5-8.77-28-17.51-3.29-3.84-7.8-6.68-9.56-11.77-.77-2.21-3.2-4.81-.24-6.54s4.24,1.28,5.55,3.35Z"/><path class="cls-6" d="M136.26,226.61c0-13.62,9-21,22.44-19.24,8,1,14.43,4.45,20.49,9.23,2.71-.65,3.82,1.54,5.2,3.05,11.21,12.19,21.8,24.95,33.7,36.51,1.45,1.41,3.61,2.61,3,5.28-.28,7.06-1.51,8.44-8.12,9.08-2.13,1.4-4.16.48-6.14-.35-23.28-9.76-45.48-21.47-65.63-36.8C138.94,231.68,135.79,230.38,136.26,226.61Z"/><path d="M136.26,226.61c20.15,17,43.2,29.15,67.12,39.81,3.17,1.41,6.37,2.74,9.56,4.1l1.27,2c2.57,6.45,2.49,6.7-4.46,13.11-8,2.3-14.22-1.93-20.69-5.37-4-2.31-8.4-3.77-12.22-6.37-2.35-1.14-4.74-2.23-7.63-3.67.52,2.73,3.58,3.49,3.46,5.94-.77,3.27-3.42,4.35-6.2,5-11.29,2.69-24-6.69-23-18.18.68-8.11-3.95-11.51-9-15.46a16.82,16.82,0,0,1-4.31-5.88c-1.92-1.8-3.89-3.55-5.76-5.4-7.1-7-6.34-10.86,2.88-14.66l3,.17c3.19-.6,3.6,2.29,5,4Z"/><path class="cls-8" d="M221.06,261.44c-9.46-7.83-17.3-17.23-25.5-26.28-5.54-6.11-10.92-12.37-16.37-18.56l-2-5a11,11,0,0,1,3.88-12.73c4.63-3.56,9.72-3.81,14.92-1.27s8.89,7,12.25,11.44c8.54,11.18,16.75,22.61,24.43,34.41,4.15,6.37,2.86,12.93-3.19,17.5-1.72,1.29-3.45,2-5.43.57Z"/><path class="cls-8" d="M327.72,199.64c-17.33,8.32-30,21.83-41.22,37-6,8.07-10.43,8.78-19.53,3.93l-1.15-2c-2.83-1.55-5.24-3.28-2.95-7v-1c-2.86-7,2.1-11.4,5.92-15.57,6.39-7,14.24-12.34,22.37-17.2,6.81-4.08,13.57-8.28,21.47-10a32.44,32.44,0,0,1,11.3-.94c6.34.85,8.86,5.73,5.77,10.81Z"/><path class="cls-9" d="M363.71,245.62l5.05-4c3.45,5.78,7.33,11.26,10.22,17.42,9.25,19.73.76,39.63-20,46.4-3.44,1.12-6.94,2.05-10.08,4.06-4.49,2.86-7.13,6.33-5.43,11.94a3.6,3.6,0,0,1-.67,3.73c-8.45-12.07-20.13-20.16-33-26.78-6.77-2-12.57-5.8-18.39-9.58-1.5-1-3.23-1.94-2.61-4.28,8,1.25,14.12-3.82,21.07-6.08,5.35,1.16,7.74,6,11.45,9.2,7.45,7.65,22.18,10.93,31.71,7.05,11.91-4.85,18.78-14.42,18.44-26.2a34.66,34.66,0,0,0-5.68-17.67C364.35,249.41,364.18,247.46,363.71,245.62Z"/><path class="cls-5" d="M366.69,152.76c4.45-2.82,6.95-7.93,12.35-9.78,7-2.41,16-.64,20.28,5.28s6.09,13.27,1.34,20.41c-4.19,6.27-5.55,13.11-2.76,20.34,1.2,3.11,2.83,6.09,6.66,6.73-5.59,5-10.64,6-16.94.68a61.56,61.56,0,0,1-21.92-38.93A5.46,5.46,0,0,1,366.69,152.76Z"/><path class="cls-3" d="M139.18,157.81c1.36,10.29-4.58,18.4-9.53,26.79-3.19,5.41-6.53,10.79-11.92,14.43-10,6.78-19.54,5.51-27.22-3.82C81,183.6,76,170.11,74.38,155.25c-.65-6.07.66-12.19.55-17.87-.17-8.91,1.1-17.38,2.6-25.88A79,79,0,0,1,89.3,81.62a33.28,33.28,0,0,1,10.11-10c9.77-6.07,19-2,21.6,9.12,2.07,8.71,4.1,17.42,6,26.15,2.44,11,6,21.75,9.3,32.51C138.18,145.33,139.68,151.23,139.18,157.81Z"/><path class="cls-3" d="M224,261.56c9.14-3.24,11.54-10.22,6.2-18.18-9.11-13.58-18.65-26.85-28.75-39.72-3.87-4.93-8.58-7.34-14.71-5.61-6.7,1.89-9,7.23-9.6,13.59-3.91-4.18-1.79-11.08,4.12-15.09,6.81-4.62,13.22-2.12,22.27,5.19,6.65,5.37,11.15,12.69,16.16,19.49,4.81,6.54,9.27,13.36,13.77,20.13,5.85,8.81,4.57,15.92-3.82,21.88C227.14,265.05,225,265.06,224,261.56Z"/><path class="cls-3" d="M288.8,284.55c5.05,4.31,11.14,7,16.62,10.65,1.5,1,2.92,2.13,4.38,3.21h-1.93c-4.18.67-7.4-1.63-10.45-3.79-9.21-6.5-20.44-9.69-29.06-16.82-7.35-6.07-15.09-12.29-19-21.59a11.37,11.37,0,0,1-1.22-3.72c-.11-2.6.46-5.23,3.51-5.73,2.75-.45,4.23,1.42,4.84,3.94.23.95.29,1.95.43,2.93l-4.72-2.79C252,260.64,269.23,276.39,288.8,284.55Z"/><path class="cls-3" d="M329.7,197.65c.05-7.13-1.61-8.9-8.54-9-12-.1-21.88,5.7-31.79,11.34a70.16,70.16,0,0,0-22.08,19.6,23.15,23.15,0,0,0-4.42,10.92c-3.05-1.75-3.21-4-1.91-7.16,2.81-6.71,7.73-11.5,13.53-15.44,9.42-6.4,18.88-12.78,28.62-18.68,6.05-3.67,13.15-4.34,20.11-4.44,3.61-.06,6.64,2,8.83,4.88C334.77,193.32,334.05,195.56,329.7,197.65Z"/><path class="cls-10" d="M357,347.46c-3.29-6.4-2.8-14.75.56-18.63s7.48-4.56,13.3-2.35c-2.94,3.21-7.46,4.42-9.55,8.4C359.35,338.56,358.37,342.57,357,347.46Z"/><path class="cls-3" d="M209.16,284.62c4.67-2.79,5.44-7.21,5.05-12.1,4.62,4.43,4.12,6.33.13,11s-7.66,8.77-12.67,12.09c-2.77,1.84-5.38,3.05-8.65,2.86l-1.92-.07c-.73-2,.66-3.17,2-4.09C198.21,290.69,203.19,286.82,209.16,284.62Z"/><path class="cls-3" d="M301.79,375.3c-9-4.13-18.61-5.7-28.29-7.1-1.28-.19-2.54-.59-3.81-.89,3.64-3.7,8.07-2.51,12.3-1.78s8.68,1.8,12.94,3C298.36,369.48,301.42,371.1,301.79,375.3Z"/><path class="cls-3" d="M228.2,369.32l-26.11,7.73c0-1.79.5-3.54,2.18-4.17,5.89-2.21,11.7-4.71,18-5.64C224.59,366.89,226.41,368.1,228.2,369.32Z"/><path class="cls-3" d="M262.87,231.58a19.22,19.22,0,0,0,2.95,7c-2.45.85-4.5.79-5.41-2.19C259.67,234,260.07,232.17,262.87,231.58Z"/><path class="cls-3" d="M135.22,225.73l-5-4c.45-1.84,1.43-2.09,2.74-.81A7.43,7.43,0,0,1,135.22,225.73Z"/><path class="cls-6" d="M356.8,379.36c0-3.38-.05-6.76-.07-10.14,1.71,2.52.62,5.37,1,8C357.41,378,357.11,378.67,356.8,379.36Z"/><path class="cls-11" d="M148.28,407.1c3.24,5.88,6.16,11.89,11.07,16.76,4.15,4.11,8.5,7.71,13.86,10,3.91,3.77,8.95,5.95,13.16,9.32,2.78,2.23,5.36,4.84,8.8,6.17,2.88,1.5,4.34,5.27,8.26,5.07,5.82.8,11.16,3.19,16.67,5a103.91,103.91,0,0,0,33.32,5,98.11,98.11,0,0,0,43.74-10.16,13,13,0,0,1,4.7-1.55,6.82,6.82,0,0,1,3.74.35c2.1.77,3.28-.3,4.58-1.86,2-2.41,3.07-5.53,5.61-7.54a131.13,131.13,0,0,0,19.67-18.07,114.5,114.5,0,0,1,13.32-12.55c5.93-5.79,11.7-11.77,17.84-17.33,8.33-7.54,16.94-14.76,25.44-22.13,1.29,1.13.3,1.94-.2,2.58-15.86,20.82-31.07,42.16-48.14,62-10.23,11.91-20.33,24.15-34.06,32.45-11.16,6.75-23.53,9.89-36.31,11.07-6.23.57-12.51,1.11-18.82,1.3-19.4.57-36.87-5.78-53.69-14.36-11.7-6-22.79-13.07-31.47-23.15C162,437,155.22,428,148.07,419.32c-9.68-11.76-19.47-23.43-29.21-35.13a2.18,2.18,0,0,1-.65-2.61c6.1,3.19,10.46,8.4,15.52,12.65,3.92,3.3,7.29,7.26,11,10.81C145.7,406,146.28,407.85,148.28,407.1Z"/><path class="cls-12" d="M348.78,413.09c-9.77,11.55-19.1,23.53-32,31.9a2.51,2.51,0,0,1-.94-1.87c.85-5.19,3.05-10,3.92-15.24A70.68,70.68,0,0,0,347.62,413Z"/><path class="cls-8" d="M209.16,284.62c-3.9,5.23-10,7.48-15,11.27-1,.79-2.35,1.24-3,2.48a130.39,130.39,0,0,0-34.91,30.91c-1.51-2.66-1.34-5.73-1.94-8.6-1.41-6.73-4.16-12.07-11.46-14.14a46.88,46.88,0,0,1-11-4.55c-14.48-8.53-19.43-26.22-12.32-42,2.93-6.51,7.07-12.24,10.67-18.32l5.05,4c-.47,1.84-.67,3.78-2.1,5.24-9.06,13.54-7.43,29.92,4.63,39.24,13.16,10.17,27.12,7.64,39.86-2.45,3.72-3.17,6.1-8,11.44-9.18,3.63.75,6.62,2.95,9.93,4.42S205.69,284.52,209.16,284.62Z"/><path class="cls-13" d="M303,453.89a101.19,101.19,0,0,1-49.52,12.8A120.38,120.38,0,0,1,207,457.38c-1.67-.69-3.46-1.06-5.19-1.58a2,2,0,0,1,0-1.38c1.58-2,2.19-4.45,2.79-6.83,1.22-4.8.44-6.06-4.36-7.85a3.08,3.08,0,0,1-2.16-1.87c5.78-2,11.83,0,17.75-1.44a115.35,115.35,0,0,0,25.67-9.31,11.49,11.49,0,0,1,9.9-.53c16.21,5.79,32.92,5.34,49.71,3.64a5.14,5.14,0,0,1,1.77,3.39c.29,6,0,12.1,1.11,18.09A2.67,2.67,0,0,1,303,453.89Z"/><path class="cls-14" d="M151.36,389.16c4.87,5.6,7.68,12.59,13.11,18,12.1,11.94,26,13.43,41.28,8.49a28.81,28.81,0,0,0,9.76-4.81c1.51-1.24,3.59-2.27,3.16-4.63-.39-2.12-2.48-2.55-4.2-3-5.6-1.59-9.82-5.4-14.3-8.77-.58-.43-.74-1.42-1.09-2.16,10.86,4.43,22.29,6.37,33.85,7.52,3.57.35,4,1.95,4.28,5.09.82,10.53-5.32,15.7-13.9,19.32-11.64,4.92-23.65,4.14-35.74,2.5-1.31-.18-2.62-.43-3.93-.62-15.93-2.24-26.57-10.45-30.11-26.68C152.79,395.94,152.08,392.55,151.36,389.16Z"/><path class="cls-14" d="M303.7,386.87a17.47,17.47,0,0,1-11.16,10.5c-5.34,1.73-10.73,3.33-16.07,5.1-1.54.51-3.29,1.16-3.26,3.24,0,1.8,1.61,2.4,3,3,20.55,9.24,45.79,8.51,63.87-8.3,5.6-5.22,9.94-11.45,15-17.14-7,19.19-20,31.7-40.26,36.08a112,112,0,0,1-44.93.68,24.64,24.64,0,0,1-12.41-5.92c-3.61-3.33-3.8-7.58-3.45-11.95.24-2.89,2.94-2.4,4.68-2.6a163.43,163.43,0,0,0,23-4C289.33,393.52,296.8,391,303.7,386.87Z"/><path class="cls-15" d="M303,453.89c-3.24-7.68-2.51-15.68-1.93-23.66,6.26-.38,12.54-.71,18.65-2.35,1.84-.15,2.35.7,1.75,2.36-1.56,4.31-2.06,9-4.51,13-3.58.53-5.92,2.21-6.63,6.07-.48,2.6-1.79,4.93-4.62,5.87C304.45,455.51,303.91,454.32,303,453.89Z"/><path class="cls-16" d="M198,437.87a7.89,7.89,0,0,1,1.47.21c2.5.91,6.37-2.16,7.61,1.82,1.69,5.48-1.19,13.16-5,15.17a5.92,5.92,0,0,1-4.29-5c-.78-4.53-3.4-6.47-7.79-6.51-2-1.94-3.45-3.86.11-5.69Z"/><path class="cls-17" d="M190.17,437.86c-2.26,2.16.16,3.65.78,5.39,3.48,1.45,4.86,3.87,3.48,7.56-7.35-3.74-13.59-9.08-20-14.13-.8-.62-2.09-1.31-1.2-2.79C178.59,436.4,184.34,437.3,190.17,437.86Z"/><path class="cls-18" d="M319.57,288.55c-3.9-2.72-6.81-6.39-9.7-10.08,3.91-2.11,7.87-4.11,11.69-6.36,2.35-1.38,2.81.59,3.77,1.75,4.92,5.95,11,7.53,18.14,4.71,6.94-2.74,10.67-8.69,10.23-16.3-1.59-2.55-1.36-5.4-1.33-8.22l11.34-8.43a6.37,6.37,0,0,1,3.09,3.67c1.56,3.28.8,6.45-.5,9.57-7.47,17.95-21.8,27.08-40.07,31.11C323.82,290.5,321.69,289.47,319.57,288.55Z"/><path class="cls-19" d="M352.37,254.05c3.57,2.24,2.84,5.17,1.33,8.22a7.12,7.12,0,0,1-5,1.46,4.21,4.21,0,0,1-4-3.09c-.62-2,1.06-2.48,2.26-3.24C348.75,256.27,350.57,255.17,352.37,254.05Z"/><path class="cls-18" d="M132.13,249.29a6.37,6.37,0,0,1,3.09-3.67,27.8,27.8,0,0,0,2.72,2.14c5.29,3.22,9.26,6.21,7.27,14.12-1.83,7.27,3.16,13.7,9.83,16.54,6.24,2.65,12.26,1.64,16.83-2.82.69-2.77,2.82-3.23,5.22-3.27a68.2,68.2,0,0,1,12,6.14c-2.88,3.69-5.8,7.36-9.69,10.08a11.93,11.93,0,0,1-9.08.93c-16.83-4.41-30.12-13.19-37.25-29.72C131.56,256.37,130.4,253,132.13,249.29Z"/><path class="cls-20" d="M177.09,272.33a6.33,6.33,0,0,1-5.22,3.27,6.53,6.53,0,0,1-4.45-2.75c-1-1.55-1.49-3.56-.25-5s2.56.28,3.68.84C173,269.73,175,271.09,177.09,272.33Z"/><path class="cls-21" d="M319.57,288.55c24.23-2.16,42.78-16.51,47.23-39.26,9,12.2,9,28.47.12,38.66-9.8,11.17-25.41,13.87-39,6.67A28.37,28.37,0,0,1,319.57,288.55Z"/><path class="cls-8" d="M95.36,193.72c-8.89-7.83-13.15-18.25-15.5-29.38-5.51-26-1.32-51,9.42-75,2.54-5.7,6.84-10.19,11.56-14.14,5.86-4.88,13.55-2.57,15.56,4.93,3.86,14.4,6.59,29.08,10.82,43.39,2.39,8.1,4.73,16.22,7.09,24.32.91,1.86,0,2.46-1.7,2.27-1.56-.17-2.65-1.26-3.83-2.19-10.64-8.39-25.1-3.36-27.65,9.81-1.09,5.63,1.42,10.67,4.11,15.51,3.18,5.71,3.11,11.48-.37,17C102.26,194.31,99.48,195.18,95.36,193.72Z"/><path class="cls-5" d="M95.36,193.72c9-1.82,13-11.1,8.26-19.11-3.86-6.54-6.64-13.14-3.76-21.05,4.34-11.95,20.88-16.11,30.3-7.5,1,.91,1.61,4,4.15,1.74,2.9,5.68,2.61,11.62.56,17.32-4,11.11-9.56,21.43-18.25,29.68C109.27,201.78,100.85,201.22,95.36,193.72Z"/><path class="cls-22" d="M305.71,455.18a34.33,34.33,0,0,0,3.14-8.35c1.33-5.37,2.69-5.93,8.11-3.59l-.22,1.75c-1.83,2.71-3.53,5.53-5.54,8.11C309.9,454.78,308.15,456.11,305.71,455.18Z"/><path class="cls-23" d="M194.43,450.81,191,443.25c5.37-2.37,6.78-1.8,8.09,3.51a33.69,33.69,0,0,0,3.1,8.31,2,2,0,0,0-.33.73C198.4,455.54,196.58,452.94,194.43,450.81Z"/><path class="cls-21" d="M132.13,249.29c4.45,22.78,23,37.11,47.23,39.26-11.77,10.92-26.12,13.19-38.8,6.14C124.15,285.58,120.38,265.26,132.13,249.29Z"/></g></g></svg>
