<svg xmlns="http://www.w3.org/2000/svg" viewBox="0 0 507.23 507.24" width="100" height="100"><defs><style>.cls-1{fill:#1ccb31;}.cls-2{fill:#3f5609;}.cls-3{fill:#0fb61d;}.cls-4{fill:#668d09;}.cls-5{fill:#b2fe00;}.cls-6{fill:#798f47;}.cls-7{fill:#597c09;}.cls-8{fill:#2b390a;}.cls-9{fill:#96ac62;}.cls-10{fill:#96ac61;}.cls-11{fill:#c6b349;}.cls-12{fill:#c7b44a;}.cls-13{fill:#fbf5c8;}.cls-14{fill:#b1992f;}.cls-15{fill:#96ab61;}.cls-16{fill:#fcf6c9;}.cls-17{fill:#97ac62;}.cls-18{fill:#fbf5c7;}.cls-19{fill:#b19a30;}.cls-20{fill:#f8f2c3;}.cls-21{fill:#af982f;}.cls-22{fill:#b09b30;}.cls-23{fill:#b29d33;}.cls-24{fill:#e0d587;}.cls-25{fill:#baa843;}.cls-26{fill:#b4a136;}.cls-27{fill:#fbf5c9;}.cls-28{fill:#f3edb6;}.cls-29{fill:#b7a339;}.cls-30{fill:#af9a30;}.cls-31{fill:#f2f4c2;}.cls-32{fill:#f5f5c4;}.cls-33{fill:#f8f5c6;}.cls-34{fill:#c2b047;}.cls-35{fill:#ded383;}.cls-36{fill:#f8f5c5;}.cls-37{fill:#bfac43;}.cls-38{fill:#f9f5c6;}.cls-39{fill:#435c0d;}.cls-40{fill:#e1d588;}.cls-41{fill:#8ecd01;}.cls-42{fill:#211300;}.cls-43{fill:#395103;}.cls-44{fill:#b1fc00;}.cls-45{fill:#b0fb00;}.cls-46{fill:#241901;}.cls-47{fill:#acf501;}.cls-48{fill:#648c09;}.cls-49{fill:#be2128;}.cls-50{fill:#668f09;}.cls-51{fill:#a5181d;}.cls-52{fill:#bf2128;}.cls-53{fill:#96d503;}.cls-54{fill:#231401;}.cls-55{fill:#be2228;}.cls-56{fill:#93d103;}.cls-57{fill:#7a2128;}.cls-58{fill:#7a2228;}.cls-59{fill:#b49b33;}.cls-60{fill:#c5b248;}.cls-61{fill:#e1d688;}.cls-62{fill:#7f2d29;}.cls-63{fill:#fcf6c8;}.cls-64{fill:#b19930;}.cls-65{fill:#c3b047;}.cls-66{fill:#c3af46;}.cls-67{fill:#b19931;}.cls-68{fill:#c6b450;}.cls-69{fill:#b29a32;}.cls-70{fill:#c4b148;}.cls-71{fill:#b29931;}.cls-72{fill:#b69f39;}.cls-73{fill:#221401;}.cls-74{fill:#bc2428;}.cls-75{fill:#241501;}.cls-76{fill:#c6b248;}.cls-77{fill:#c5b147;}.cls-78{fill:#be2429;}.cls-79{fill:#bfab43;}.cls-80{fill:#beab48;}.cls-81{fill:#b9a43c;}.cls-82{fill:#bda844;}.cls-83{fill:#c2af46;}.cls-84{fill:#241301;}.cls-85{fill:#ed1300;}.cls-86{fill:#e81601;}.cls-87{fill:#e0d387;}.cls-88{fill:#fdf7cb;}.cls-89{fill:#fcf4c8;}.cls-90{fill:#fdf6ca;}.cls-91{fill:#faf3c6;}.cls-92{fill:#d7c975;}.cls-93{fill:#fcf5c8;}.cls-94{fill:#f7efbc;}.cls-95{fill:#e1d689;}.cls-96{fill:#fcf4c7;}.cls-97{fill:#ddd181;}.cls-98{fill:#f4edbd;}.cls-99{fill:#f9f3c6;}.cls-100{fill:#dcd186;}.cls-101{fill:#e0d586;}</style></defs><g id="Calque_2" data-name="Calque 2"><g id="Calque_8" data-name="Calque 8"><path class="cls-1" d="M507.23,0V324.88a13.85,13.85,0,0,1-2.36,1.12,155.85,155.85,0,0,1-35.52,9,159.41,159.41,0,0,1-33.19.5,6.24,6.24,0,0,1-2.73-1.94,4.22,4.22,0,0,1-.45-.76,6.16,6.16,0,0,1,.38-5.05,138.76,138.76,0,0,0,10.27-38.84c.55-4.42,4.08-6.72,7.13-9.21a91.85,91.85,0,0,0,24.35-30.54c17.31-34.72,12.9-67.42-9.68-98.26a78.9,78.9,0,0,0-12.93-13.77,16.12,16.12,0,0,1-4.95-6.05,9.2,9.2,0,0,1-.6-2.28h0a10.42,10.42,0,0,1,0-2.38h0c0-.07,0-.13,0-.2a8.39,8.39,0,0,0-.72-3.33h0a7.53,7.53,0,0,1-.24-1,71.25,71.25,0,0,0-10.25-34.29,24.87,24.87,0,0,0-1.48-2.2s0,0,0-.06q-.4-.6-.87-1.17l0,0c-4.17-5.45-9.56-9.79-14.75-14.29a30.77,30.77,0,0,0-3-2.72,34.3,34.3,0,0,0-5.77-3.67l0,0a54.72,54.72,0,0,0-9.66-3.68c-2.87-.83-5.79-1.45-8.31-3.17l-.1-.1c-.4-.4-.8-.8-1.21-1.19-18.3-17.81-40-29.14-65.47-32.42-40.14-5.18-74.29,7.28-102.23,36.58C218,64.35,214.27,70,210.48,75.7c-3.63,5.45-5,6.07-11.11,3.31a120.91,120.91,0,0,0-45.68-11.15,111.56,111.56,0,0,0-47.63,8.69c-30.09,12.55-51.8,34-66.72,62.77a147.83,147.83,0,0,0-16.77,67.9c0,.35,0,.69,0,1l0,.22c-.38,2.69-2.14,4.64-3.73,6.66A79.63,79.63,0,0,0,3.43,247.7c-.43,2-.7,4.12-2.39,5.59l-.2.17a3.08,3.08,0,0,1-.55.16,1.43,1.43,0,0,1-.29,0V0Z"/><path class="cls-2" d="M507.23,322.86V507.24H0V252.87l.34-.07a3.2,3.2,0,0,1,.7.49c1.24,1.13.89,2.75.84,4.3C1.26,278,8.09,296.07,18.63,312.91h0c.61,1,1.23,1.94,1.87,2.9a1.74,1.74,0,0,0,.11.18,17.84,17.84,0,0,1,3.24,6.65c.05.19.09.39.13.59s0,.25,0,.38c.09,1.78.43,3.58-.58,5.25a6.62,6.62,0,0,0-.94,1.07s0,0,0,0a9.76,9.76,0,0,0-1.4,5.51v.25c0,.82-.06,1.65-.14,2.46-1.46,14.11-1.14,28.14,2.22,42,8.94,36.67,33,57.5,69.13,65.44a149.89,149.89,0,0,0,39.52,3.72c19.21-1,38.43-2,57.63-2.22,18.08-.19,36.05,1.94,53.17,8.84,23,9.26,46.44,17,71,21.07,24.69,4.06,49.46,6,74.07-.46,8.11-2.14,15.81-5.18,22.52-10l.08-.06a48.49,48.49,0,0,0,8.51-7.7,26.59,26.59,0,0,0,5.54-8.63,15,15,0,0,0,.78-3.48c.71-3.44,2.43-6.52,3.58-9.82,4.4-12.6.68-23.56-7.05-33.52a41.58,41.58,0,0,0-7.87-8l-.54-.4c-.19-.12-.38-.23-.56-.36a24.13,24.13,0,0,1-3.89-3.39l-.86-.9-.16-.17c-2.21-5.14-2.8-10.85-5.46-15.86a50.89,50.89,0,0,0-4.51-7.43l-.05-.07a23.81,23.81,0,0,0-1.69-1.93c-.78-.8-1.42-2.39-3-1.42l-.12.07c-.57,1.32.45,2.52.22,3.8,0,.35,0,.69-.05,1-.07,2.11.11,4.23.17,6.34,0,0,0,0,0,0a21.58,21.58,0,0,1-.63,6.68,5.09,5.09,0,0,1-.85.83l-.08.05c-1.5,1.06-3.29.75-5,.11-6-2.3-12.27-4.13-17.8-7.58l-.35-.22c-.07-.12-.13-.25-.19-.37-2.22-4.35-1.59-9.36-3.08-13.91-.87-2.67-1.59-5.41-2.64-8-.54-1.32-1.08-2.83-2.51-3.33a2.42,2.42,0,0,0-.56-.14,3.14,3.14,0,0,0-.45,0H359c-.07.16-.13.32-.19.48a25.62,25.62,0,0,0-1.66,9.13c-.06,2.92.12,6.08-2.92,8l-.14,0a4,4,0,0,1-.57.1c-2.23.22-4-1.05-5.65-2.29A42.7,42.7,0,0,1,332,340.82s0,0,0,0c-.39-1.4-.73-2.83-1-4.3,0-.15-.05-.29-.08-.44,0-2.68,0-5.38-.13-8.05v-.33a81.58,81.58,0,0,0-1.06-10.81c-.07-.4-.15-.78-.22-1.17-.13-.66-.27-1.33-.42-2s-.25-1-.39-1.57q-.09-.39-.21-.78c-.07-.26-.15-.52-.23-.78a5.09,5.09,0,0,1-.14-.56v0a9.12,9.12,0,0,0-.51-1.93s0-.07,0-.11a2.09,2.09,0,0,0-1.71-1.16,2.5,2.5,0,0,0-.46.46,6.16,6.16,0,0,0-.56,1,20.45,20.45,0,0,0-.7,3.71v0a6.18,6.18,0,0,1-1.24,3.18h0a4.68,4.68,0,0,1-1.48,1.17,2.57,2.57,0,0,1-.4,0,2.81,2.81,0,0,1-.59-.12c-2.2-.61-3.25-2.74-4.74-4.23-2.5-2.49-5.09-4.84-7.78-7.1-.33-.29-.66-.56-1-.83l-.48-.41c-1.11-4.18-4.44-7.89-2.82-12.67a.74.74,0,0,1,0-.14l.09-.05c2.51-1.48,4.78-.16,7,.84,17.82,8.1,35.77,15.91,54.17,22.63,20.6,7.52,41.52,13.91,63.37,16.6a13.48,13.48,0,0,1,4.76,2,9.26,9.26,0,0,0,2.47,1A159.13,159.13,0,0,0,507.23,322.86Z"/><path class="cls-3" d="M435.45,333.75c-29.67-2.74-57.65-11.86-85.05-22.92-15.66-6.32-31.06-13.29-46.58-20-2.67.93-4.13-2.41-6.68-1.89a269.08,269.08,0,0,1-28.22-13.59c-1.49-1-2.71-2.5-4.74-2.45-3.08-1.16-5.84-2.95-8.82-4.31-5-5.7-6-12.88-6.81-19.9-1.21-10.53-1.53-21.13,2.26-31.37,1.95-3.22,4.91-4.51,8.56-4.5,3.74.74,5,4,6.83,6.73,3.45,5.3,4.25,11.87,8.12,16.92,1.85-.25,1.73-2.13,2.62-3.16,3-7.16,4.51-14.49,3-22.24a20.75,20.75,0,0,1,1-5.74,10.26,10.26,0,0,1,9.36-4.07c4.92,2.43,5.58,7.71,7.8,11.93.58,1.11.56,2.54,1.74,3.35a2.12,2.12,0,0,0,2.16-.28c3.67-4,4.32-9,4.38-14.11a12.64,12.64,0,0,1,.13-1.51,11.5,11.5,0,0,1,1.74-3.57c3.93-2.82,8.45-1.91,12.8-2,6.28,3.93,8.22,10.84,11.37,16.89,1.81,3.48,2.08,7.63,4.54,10.83a1.45,1.45,0,0,0,1.59-.21c2.72-7.59,3.93-15.32,2.56-23.35a20.26,20.26,0,0,1,.28-2.44,4.12,4.12,0,0,1,1.16-2.3c4.19-3,8.82-2.48,13.49-1.69a15.5,15.5,0,0,1,6.62,7.17,84.44,84.44,0,0,1,8.5,26.39c.18,1.26-.27,2.84,1.8,2.84,4-5.76,5.13-12.39,5.63-19.14.28-3.8-.15-7.63.25-11.43-.15-1.62-.84-3.22-.09-4.85a3.49,3.49,0,0,1,1.06-1.32c3.16-1.75,6.49-1.33,9.82-.73,6.33,3.52,7.84,10,10.06,16.13.42,1.14-.48,3.75,2.42,3,3.27-6.64,1.94-13.49,1.1-20.33a5.37,5.37,0,0,1,.28-1.54c1.83-3,4.43-4.55,8-4.16,3.35,2.29,3.52,6.08,4.56,9.51.77,2.54,0,5.71,2.91,7.39,2.75-2.79,2.86-6.56,3.33-10a71.59,71.59,0,0,0,.49-10.88,13.49,13.49,0,0,1,0-3.7c1.8-3.15,3.63-6.26,8-6.08,4.68,4.95,4.84,11.53,6.18,17.66.4,1.81,0,3.85,2.22,4.68A31.33,31.33,0,0,0,443,177.82c-.07-6.69.86-13.45-1.11-20,.18-2-.73-3.76-.94-5.66.16-5.49,3.56-10.05,4.33-15.46a49.49,49.49,0,0,0,.4-11.65c.21-1.55.57-3,2.3-3.56-1.24,8.68,4.84,13.07,10.16,18.26,16.45,16,26.62,35.62,29,58.46,2.5,23.67-3.95,45.31-17.94,64.65-5.56,7.69-11.67,15-19.53,20.3-4.21,2.85-4.37,6.77-4.81,10.68a121.23,121.23,0,0,1-10,35.24C434.09,330.84,433.39,332.4,435.45,333.75Z"/><path class="cls-3" d="M21.55,208.29C19,201.22,21,194.13,22,187.21,25.85,159.89,36,135,53.55,113.61,73.65,89,99,72.92,130.72,67.54c25.07-4.24,48.74,0,71.52,10.65,2.25,1,3.67,1.35,5.26-1.24,20-32.51,48.84-51.77,86.88-56.27,37.33-4.41,69.74,6.45,96.69,32.92a18.3,18.3,0,0,1,1.55,1.94c-1.33,1.8-3.21,1.35-5,1.19-31.51-2.74-55.73,10.74-76,33.66-12.44,14.07-23.73,29-35,44-4.17,5.57-9.35,9.37-16.34,10.33-2.62.36-5.35.79-7.32-1.74-3.31-8.66-3.61-18.09-7.16-26.76-3.45-8.4-8.08-15.51-16.21-19.95a27.17,27.17,0,0,0-3.37-1.57c-9.44-2.69-15.92,1.82-21.28,8.85-2.63,3.45-4.22,7.48-6,11.42-3.28,7.42-8.1,12.27-17.17,11.06-4.39-.59-8.92.06-13.38-.23-3.34-.91-5.59-3.49-8.27-5.4-10.35-7.37-21.37-12.52-34.54-12-9.3.37-17.55,3.63-25.11,8.55-16.52,10.75-26.9,25.87-29.84,45.46C69.3,172,65,178.39,56.3,182.85c-11.11,5.73-20.44,14.06-29.44,22.69C25.36,207,24.24,209.16,21.55,208.29Z"/><path class="cls-4" d="M447.93,121.45c-.14,1.3-.27,2.61-.41,3.91-1.49,9.32-3.37,18.46-8.37,26.75-11.28,18.71-28.3,28.38-49.28,32.09a61.19,61.19,0,0,1-19.33.69C354.47,181,338.44,177.12,323,171c-9.81-3.9-18.87-1-26.85,5.54a25,25,0,0,1-3.53,2.73c-2,1.1-4.06,1.86-6.06.34s-2.43-3.82-1.19-6.2c1.93-2,3.68-4.18,5.42-6.39,7.31-9.29,17-12.26,28.32-9.67,9.25,2.11,17.61,6.43,25.13,10.89a31.51,31.51,0,0,1-3.18-2c-1.84-3.65-5.18-6-7.84-8.91a69.8,69.8,0,0,1-17.84-36.51c-.23-1.38.23-3.43-1.44-3.89s-2.49,1.36-3.56,2.34c-5.76,5.27-10.53,11.46-15.87,17.12-7.68,8.15-16.39,14.61-28.44,13.89-2.13-.13-4.93.38-5.34-3,.85-1.61,2.41-2.19,4-2.75a34.61,34.61,0,0,0,17.57-14C292,116,302.47,102,315.18,90c11.6-11,24-20.92,38.87-27.39,22.19-9.67,43.33-6.56,63.85,4.92a10.6,10.6,0,0,0,2.2,1.12C437.76,81.81,446.71,99.6,447.93,121.45Z"/><path class="cls-5" d="M420.1,68.61c-6.64-2-12.79-5.17-19.51-7.07-29.75-8.42-53.42,3.34-75.22,21.88-16.3,13.88-29.68,30.27-41.38,48.1-5.52,8.41-12.82,14.24-23,15.81-2.5,2.45-5.34,1.15-8,.56-7-1.56-13.48-4.54-20-7.43a143.64,143.64,0,0,0-44.6-11.32c-4.49-2-9.08-.68-14.33-.49,5.22,8.67,9.73,17.24,9.37,27.38-3.21,2.75-3.72,2.54-6-2.47-6-21-27.16-36.66-49-37.21C113.4,116,101,121.35,90,131a30.6,30.6,0,0,0-4.36,4.38c-1.13,1.38-2.18,2.83-3.31,4.23-2.62,3.29-5.24,6.57-5.52,11A41.48,41.48,0,0,0,76,175.85a7.81,7.81,0,0,1,.11,5.33c-.68,1.27-2,1.64-3.14,2.32A69.39,69.39,0,0,0,44.85,195c8.11-3.13,16.81-1.59,25,3a48.15,48.15,0,0,1,15.2,13.35c1.24,1.67,3.06,3.63,1.39,5.76-1.54,2-3.61.67-5.42-.16a7.68,7.68,0,0,0-1.44-.41c-25-10.76-44.32.91-56.76,21.93-9.19,15.53-10.92,32.37-7.72,49.91.29,7.55,3.64,14.4,5,21.72.43,2.39,1.7,4.8-.46,7C6.85,299.37-.87,280,.08,257.74c.07-1.65.17-3.29.26-4.93,2.63-17,10.43-31.45,21.21-44.53a156.64,156.64,0,0,1,39.5-30.69c4.16-2.26,5.9-5.92,6.74-10.42,3-16.43,8.56-31.69,21.15-43.52,12.22-11.48,26.13-18.86,43.46-17,14.09,1.48,25.61,8.52,35.9,17.84,7.68.77,15.39,1.13,23-.23,2.56-.46,4.85,1.11,7.28.2a15.15,15.15,0,0,1,5.15.4c5.59,1.39,11.35,2,16.87,3.78a67.42,67.42,0,0,1,9.59,4,20.72,20.72,0,0,0,2.19.57c5.29,1.9,10.25,4.59,15.48,6.63,2.29.3,4.51.74,6,2.7,7.69,1.61,14.16-.67,19-6.74,8.44-10.63,16.55-21.54,24.93-32.23a247,247,0,0,1,20.63-22.88c20.63-20.49,45.17-29.35,74.16-25.09C402.48,58.43,412.22,61.58,420.1,68.61Z"/><path class="cls-6" d="M22.43,328.9l.19-6a2.64,2.64,0,0,1,2.87.35A83,83,0,0,0,38,333.85c12.51,8.48,24.78,8.2,36.93-.7a67.45,67.45,0,0,0,6.86-5.76c1.68-1.6,3.37-3.26,5.92-3.38,18.59-.5,32.81,9.09,46.31,20.22,11.65,9.61,21.62,21.06,33.57,30.38,17.34,13.52,37.4,20.33,58.45,25.22,25.26,5.87,50.93,8.91,76.63,11.88,13.07,1.52,25.74,4.83,38.27,8.74,11.47,3.58,23.35,5.08,35.24,6a46.53,46.53,0,0,0,24.11-4.92c7.71-3.72,11.26-9.8,11.32-18.3,0-3.31-1.25-7.08,2.15-9.72,13.17,8.53,24.67,27.9,15.39,47.8-.83,1.79-1.62,3.6-2.42,5.4-5.23,13.09-15.54,20.7-28.09,25.76a74.53,74.53,0,0,1-24.78,5,233.83,233.83,0,0,1-117.43-25.24c-17.94-9.05-36-17.86-55.6-22.94-18.54-4.81-37.27-4.85-56.3-4-22,1-44.13,2.19-65.7-4.71C50.51,411.55,33.67,392,25.8,364c-2.7-9.57-4.9-19.3-4.7-29.38C21.14,332.6,21.21,330.62,22.43,328.9Z"/><path class="cls-7" d="M24.57,323.9l-1.95-1q-1.49-2.93-3-5.83c-1.81-7.55-3.55-15.13-5.48-22.65a32.42,32.42,0,0,1-.6-6.41c3.42-.56,4,2.39,5.17,4.39,4.74,8.25,11.16,14.25,20.61,16.8,14.51,3.91,28.86-.89,37.06-13.48,13-20,16.68-41.89,12.32-65.27-.54-2.86-2.27-4.11-4.48-5.45-4.91-3-5.83-5.72-3.76-10l5.7,2C77.93,199,60,192.37,38.34,198.92c4.31-7.25,22.44-16.23,33.79-16.73,2.72-1.1,3.9,1.1,5.34,2.58,4.86,5,9.59,10.13,16.62,12.19a36.29,36.29,0,0,0,4.35.95c2.2.35,3.78,1.32,3,4-2.08,2.41-4.75.12-6.79.89,7.61.54,15.24-1.05,22.91-2.39,2.07-.37,4.25-1,6.32.18,1.85,3.39-1.28,4.71-2.94,6.32-6.79,6.57-9.87,14.64-10,23.89a20.37,20.37,0,0,0,3,11.26c3,8.72,11.71,14.36,22.41,15.13,11.22.8,20.86-3.36,29.9-9.15a116.48,116.48,0,0,0,26.11-22.88c8.28-9.77,18.7-15.17,31.75-14.86,1,0,2-.1,3,0,6.43.78,11.42-1.12,15.44-6.59,5.28-7.18,13.09-10.82,21.4-13.34-1-2.1-3.19-2.15-5-2.85-13.34-5.91-27.27-7.33-41.75-6.5-13,.74-25,4.64-37.11,8.77-11.77,4-24.1,4.31-36.24,5.83a4.54,4.54,0,0,1-3.3-.85,1.8,1.8,0,0,1-.14-2.28c.62-1.2,1.79-1.94,2.65-2.93,6.78-7.81,15-11,25.48-9.44,9.71,1.41,19-2.06,28.33-4.44,13.48-3.43,27.05-4.62,40.76-1.23-13-3.57-26.11-6.64-39.68-5.95-7.28.38-14.52,1.73-21.79,0-9.58-2.26-18.31-5.91-23.74-14.85a3.53,3.53,0,0,0-2.06-1.31c-5.81-1.61-12-1.5-17.73-3.27a37.61,37.61,0,0,1-6-2.06c-3-1.22-6.2-2.1-8.79-4.22a78.5,78.5,0,0,1-9.73-6.2c-5.8-2.83-7.28-2.67-11.47,2.15-8.46,9.73-11,20.75-5.66,32.72s15,18.58,28.17,19.81c2.13.19,4.31-.11,6.43.39,1.13.27,2.38.6,2.72,1.86s-.68,2.27-1.68,2.75c-5.35,2.53-10.6,5.53-16.89,4.67a2.76,2.76,0,0,1-1.3-1.82,5,5,0,0,1-.09-1.5c.27-3.4-2.64-3.89-4.74-4.93C96,189,89.28,184,85.78,176.14s-6.58-16.26-3.36-25.25c.71-2,.73-4.12-.84-5.6-2.55-2.43-1.68-4.69-.22-7.1.72-1.49,1.38-3,3-3.79,6-.17,11-2.61,15.78-6,3.6-2.57,6.71-.52,9.39,1.83a66.64,66.64,0,0,0,30.82,15.1,22.61,22.61,0,0,0,12.24-.31c3.14-1.07,5-.06,6.29,2.92,2,4.61,4.66,8.82,9.2,11.4,3.41,1.93,7.18,2.55,10.24-.1,1.9-1.65,5.52-.44,6-3.62a42,42,0,0,0,0-13.88c-.59-3.25-.54-6.57-1.51-9.78-.51-1.66-.49-3.7,1.5-4.85,1.35-.1,2.7-.4,4,.28,16.9.83,32.83,5.43,48.12,12.42,7.86,3.59,15.9,6.46,24.51,7.54,8,2.83,15.24.59,22.11-3.66,6.3-3.9,11.05-9.4,15.68-15a107.73,107.73,0,0,1,14-14.07c2.13-1.78,3.79-2.64,4.14,1.66,1.24,15.21,7.22,28.35,17.63,39.64,2.64,2.86,6.19,5.3,7.19,9.51-4.5.85-7.58-2.53-11.18-4.08-4.72-2-9.46-3.87-14.33-5.46-9.06-3-16.11.39-22.19,6.94-2.94,3.16-4.74,7.11-7.3,10.54a3.49,3.49,0,0,0,.8,5.25c2.26,1.48,4.07-.52,5.52-2a29.65,29.65,0,0,1,22.69-9.25,29.28,29.28,0,0,1,10.57,2.41A200.9,200.9,0,0,0,369,182.44a6.43,6.43,0,0,1,1.75.85c-1.61,2.26-4.07,2-6.34,2-8.69.12-17.17-1.56-25.6-3.4-3.89-.86-7.72-2-11.61-2.84-7.87-1.78-15.1-.58-21.69,4.32-5.34,4-10.45,8.2-15.64,12.33-5.51,4.39-11.71,7-18.85,6.54-6.56-.44-12,1.79-16.82,6.07a40,40,0,0,1-18.88,9.51c-14.54,3-26.31,11.6-38.2,19.78-9.43,6.48-18.06,14.12-28.12,19.7-9.68,5.38-19.78,9.27-31,9.85-13.18.69-23.45-4.73-32.07-14.36,3.36,12.4,1.36,23.9-5.14,34.84-7.88,13.26-17.1,25.3-29.47,34.7-11.76,8.94-24.3,12.68-38.64,6.44C29.65,327.48,27.52,325.06,24.57,323.9Z"/><path class="cls-8" d="M22.43,328.9c.7,15,3.08,29.67,8.42,43.76,10.78,28.47,32.07,43.84,61.4,49,19,3.37,38,2.54,57.08,1.1,30.58-2.32,59.28,4.26,86.82,17.31,16.93,8,33.34,17.23,51.24,23.08,28,9.15,56.64,14.1,86.17,12.25,15.29-1,29.81-4.64,42-14.83,4.65-3.91,7.73-9,11.21-13.88,1.18,1.86-.35,3.18-1.07,4.52-8.06,14.85-21.21,23-37,27.23-17.67,4.77-35.65,4.64-53.79,3.22-33-2.56-64-12.29-94.51-24.41-12.46-4.95-25.56-6.71-38.84-7.73-13.08-1-26.15,0-39.19.3-8.55.2-17.22,1.26-25.75,1.39-29.84.46-59.24-2.34-84.35-20.89-17.32-12.79-26.88-30.78-31.51-51.48-3.44-15.34-3.36-30.83-1-46.34C20.2,329.43,20.61,328.88,22.43,328.9Z"/><path class="cls-9" d="M413.76,393.54c-.06,4.15,0,8.31-.22,12.45a19,19,0,0,1-10,16.2c-12.48,7.21-25.85,7.1-39.56,5.12-12-1.73-23.63-4.88-35.25-8.31-14.64-4.33-29.82-5.75-45-7.41a483.79,483.79,0,0,1-52.36-8.49c-12-2.66-23.88-5.61-35.39-9.93-17.58-6.6-32.14-17.78-45.44-30.63-11.83-11.42-23.41-23-38.27-30.63a50.71,50.71,0,0,0-21.85-6,4.27,4.27,0,0,1-3.2-1.11c-.18-.46-.43-1-.2-1.42,3.52-6.23,7-12.47,13.27-16.54,6.16.06,11.49,2.82,16.79,5.46A86.93,86.93,0,0,1,139,327.65c4.24,4,7.85,8.56,12.23,12.38,5.15,5.73,9.37,12.24,14.84,17.7a62.36,62.36,0,0,0,6.31,5.85c5.31,3,9.7,7.4,15.35,9.87,1.08.47,2.17.93,3.28,1.32,7.62,4.66,16,7.59,24.32,10.64,2.67.41,4.87,2.28,7.64,2.38,4.27.59,8.2,2.45,12.39,3.36.78.1,1.56.14,2.34.18,8.78,2.14,17.75,3.43,26.53,5.61,2.24-.41,4.22.93,6.41.94,6.28-.7,12.2,1.71,18.35,2.14a70.29,70.29,0,0,1,17.75,2c6.15,0,11.77,2.89,17.86,3.29,7.16,1.79,14.37,3.41,21.47,5.46,2.1-.05,3.92,1.08,5.94,1.34a56.42,56.42,0,0,1,7.88,1c1.77.46,3.32-.38,4.93-.86,2.9.8,5.64,2.36,8.82,1.88,4.46.16,8.91,0,13.35-.05,6-1.78,12.2-3.24,16.93-7.81,2.76-2.67,2.6-6.15,2.72-9.58.09-2.52-.59-5.33,2.15-7.07Q411.26,391.6,413.76,393.54Z"/><path class="cls-10" d="M332.62,335.82q3.57,19.89,21.08,30c2.58,3.44.4,6.44-.85,9.54a3.59,3.59,0,0,1-1.09,1c-1.87.23-3.46,1.27-5.18,1.94a2.9,2.9,0,0,1-1.41-.3c-7.82-6.19-14.77-13-17.62-23,.3-5.43,2.39-10.56,2.52-16C330.11,337.52,330.7,336,332.62,335.82Z"/><path class="cls-11" d="M323.68,306.8l.29-2c3.34.3,3.55,3.2,4.19,5.43,4,14.08,3.15,28.06-1.07,42-.89,2.95-2.23,6,.15,9a4.21,4.21,0,0,1-2.09,5.09c-6.51-.86-9.33-5.63-11.59-11,.29-3.85,2-7.29,3.24-10.85C321.1,332.28,322.56,319.57,323.68,306.8Z"/><path class="cls-12" d="M391.45,365.89a6.44,6.44,0,0,1-.71-4.28c3.9.18,5.86,3.22,7.4,5.95,6.76,12,10.41,24.69,7.09,38.6-2.23,2.09-3.26-.25-4.67-1.24-1.32-3-5.23-3.75-6.26-7-1.52-9.07,0-18.33-1.64-27.4C392.37,368.92,392.66,367.21,391.45,365.89Z"/><path class="cls-13" d="M326.44,361.94c-4.24-2.51-2.79-6.1-1.69-9.5,3.93-12.11,5.62-24.39,3-37-.75-3.7-1.62-7.39-3.81-10.59,1.82-2.63,2.45-2.69,3.91.1,2.32,4.42,3,9.35,3.76,14.19a80.31,80.31,0,0,1,1,16.69c-.86,6.78-1.58,13.6-3.71,20.15C329.62,358.59,329.57,360.9,326.44,361.94Z"/><path class="cls-14" d="M323.68,306.8c2.07,17.21-2.47,33.23-8.82,48.93-4.4-.18-5.82-3.3-6.77-6.89,2.58-7,6.52-13.39,8.41-20.65,1.23-2.52.9-5.4,1.87-8,.61-1.63.74-3.55,2.65-4.39C323,313.14,322.19,309.62,323.68,306.8Z"/><path class="cls-15" d="M368.94,373.66l22.73,8.53c2.64,2.85,2.38,5.57-.37,8.18-8.56-.17-17-.88-23.81-7C367.56,380.09,365.82,376.51,368.94,373.66Z"/><path class="cls-16" d="M404.57,406.78c.66-12.47-1.08-24.52-6.6-35.84-1.75-3.58-3.77-7-7.23-9.33.26-3.57,2-1.4,3-.67a31.1,31.1,0,0,1,10,12.18,51.29,51.29,0,0,1,5,16.53c-.22,6.23,1.36,12.85-4,17.93-.29-.12-.42-.27-.38-.47S404.49,406.78,404.57,406.78Z"/><path class="cls-17" d="M321,315.82a42,42,0,0,1-3,13,1.86,1.86,0,0,1-1.39-.27c-2.95-2.73-5.72-5.7-9.88-6.63-.09-5.25,0-10.49-.36-15.73a3.18,3.18,0,0,1,1.32-3C313.52,305.94,317.62,310.51,321,315.82Z"/><path class="cls-18" d="M307.7,303.18A107.89,107.89,0,0,1,308,323c2.55,4.62,1.24,11.72-3,16.1-4.52-1.1-4-4.71-3.55-7.87a141.4,141.4,0,0,0,1.38-17.2c.09-8.43-1.48-16.34-5.66-23.69a2.4,2.4,0,0,1,.73-2.37c3.17-1.54,4.27,1.18,5.88,2.86Q305.76,297,307.7,303.18Z"/><path class="cls-19" d="M351.47,376q1.11-5.08,2.23-10.17c2.42-5.23,1.88-10.95,2.8-16.43.25-1.53-.51-3.39,1.31-4.47a4.82,4.82,0,0,1,2.3,3.6c.32,8.22,1.57,16.46-.38,24.65-.64,2.69-.56,5.64-2.8,7.75C352.81,381.83,352.08,379,351.47,376Z"/><path class="cls-20" d="M358.86,347.65l-1.05-2.73c3.61.76,4.62,4,6,6.67,3.51,6.91,4.43,14.48,5.14,22.07l-.33,10.13c.55,2.17,1.41,4.39-.84,6.18a2.38,2.38,0,0,1-2.28-.86,8.35,8.35,0,0,1-1.8-6.48C364.51,370.63,361.34,359.19,358.86,347.65Z"/><path class="cls-21" d="M390.69,389.78c1.7-2.35.61-5.07,1-7.59q-.1-8.15-.22-16.3c3.86,4.81,3.46,10.76,4,16.32.57,5.37.15,10.83.16,16.25-3.42.89-5.49-.77-6.94-3.64A4.77,4.77,0,0,1,390.69,389.78Z"/><path class="cls-2" d="M100.43,307.88,87.31,324.8c-3.47,2.8-6.32,6.24-9.92,8.93-15,11.24-29.9,11.07-44.19-1-3.13-2.64-5.77-5.88-8.63-8.85,3.18-1.26,5.25,1.49,7.51,2.56,13.68,6.47,25.88,3.45,37.26-5.12,13.34-10,23.24-23,31.21-37.58,5.66-10.35,6.35-21.09,2.85-32.23-.33-1-1.23-2.06-.49-3.41,2.16.33,3.2,2.2,4.43,3.57,14.12,15.68,30.24,16.25,48.58,9.56,15.25-5.56,27.2-16.29,40.17-25.44,13.16-9.29,26.56-18.27,42.93-21.06,6.08-1,10.25-5.19,14.74-8.8,4.25-3.41,8.74-6.3,14.42-5.64,10.17,1.18,17.85-3.51,25.07-9.82,3.86-3.37,8.06-6.34,12.12-9.47,6.72-5.17,14.34-5.84,22.22-3.91,14.18,3.48,28.32,7,43.11,6.18C386.76,184,402,181,416,172.74c15.77-9.34,24.51-23.71,29.47-40.83.64-2.2.69-4.59,2.09-6.55.75,9.55-2.13,18.4-5.2,27.21-1.68,7.73-5.08,14.33-12,18.66l-6.74,6.16c-2.5,5-6.25,8.11-12.06,8.21l-7,3.55c-4,3.42-8.41,5.73-13.94,4.1l-10.89.45c-4.89,2.26-10.21.19-15.16,1.49-2.71.71-5.18.95-7.52-.86a58,58,0,0,0-14.59,1c-4.57,2.44-9.57,2.57-14.57,2.74-2.31.69-4.05-.8-6-1.55-4.43.84-9.07.06-13.39,1.78-5.59,2-11,4.91-17.25,4-3.36.45-6.35,2-9.44,3.23a5.6,5.6,0,0,1-1.85,2.1c-4.43,1.42-8.51,3.76-13,5-2.14,1-4.28,2-6.72,1.06l-8.25,3.6c-1.79,2.69-4.68,3.81-7.39,5.18-2.28.58-4,2.29-6.26,3-4.94,1.94-9.26,5-13.73,7.76-2.66,1.39-5.24,2.93-8,4.22a119.91,119.91,0,0,0-18.85,12.74c-6.14,3.74-12.1,7.75-18,11.89a4.79,4.79,0,0,1-1.35.5c-6.4,3.38-12.17,7.95-19.11,10.34-5.74,3-12,3.47-18.29,3.8a32.3,32.3,0,0,1-12.75-1.65c-3.81-1.24-6-.17-7.43,3.36a25,25,0,0,0-2.44,4.26c-3.87,6.54-7.82,13-12.1,19.33C104.7,304.35,103,306.54,100.43,307.88Z"/><path class="cls-10" d="M243.81,221.3c2.33-2.11,5.22-3.05,8.12-4-1.91,12.84-3.19,25.67,0,38.49,1.09,4.35,2.32,8.64,5,12.32a25.62,25.62,0,0,1,8.19,9.58c-.08,3.7-.06,7.45-4.4,9.09-3.93-.32-6-3.33-8.12-6-6.49-7.94-9.11-17.43-10.69-27.35-1.33-8.36.13-16.8-.94-25.16C240.71,225.55,241.31,223,243.81,221.3Z"/><path class="cls-2" d="M297.94,288v1.82a6.73,6.73,0,0,1,.91,3c-.32,1.79-.28,3.68-1.48,5.22a3.45,3.45,0,0,1-3.77.21c-7.51-3.73-15.76-6.22-21.71-12.65-1.32-3.72-4.29-7.09-2.58-11.5C279.08,278.25,288.52,283.1,297.94,288Z"/><path class="cls-16" d="M380.46,198.42c1.15,9.64.33,19-3.63,28-1,2.21-1.74,4.66-4.25,5.78-2.42-4.76-1.47-10.23-3.27-15.2-1.19-3.3-2.58-6.76-2.33-10.47.69-1.71.59-4.44,3.77-3,1.12,1.47,1.36,3.29,1.9,5a5.07,5.07,0,0,0,.21,1.73c-.23-1.37-.23-3-1.06-4.36-.11-.7-.13-1.41-.24-2.11-.23-1.7-.34-3.19,2-3.76.57-.14.87,3.41,1.51,0C375.6,197.07,377.8,196.21,380.46,198.42Z"/><path class="cls-22" d="M371.66,209.26c-.4-1.58-1.66-3-1.09-4.77-.73-2-3.05-3-2.92-4.88,1.52,1.69-.37,4.51,1.12,6.65,2,8.55,5,17,3.81,26-2.35-1.4-2.33-1.4-2.88-4.54-2.11-11.93-5.65-23.3-12.71-33.34a103.65,103.65,0,0,1,22.68-.63,1.77,1.77,0,0,1-.09.65c-2.71,1-3,5.22-6.86,5-.37,0-1.1,3.21,0,4.93l.08,1.76C373,207.3,374.19,208.94,371.66,209.26Z"/><path class="cls-23" d="M430.3,171.23a143.24,143.24,0,0,0,12-18.66l1,4.56c-1.6,2.15.57,5-1.21,7.06-1.06.83-1,1.73-.66,3,.51,2.05,1.51,4.66-2.22,5-.41,0-.45.27-.25,1,1.78,6.83.94,13.75.72,20.66a17.5,17.5,0,0,0-.58,3.51c-3.44,1.39-2.4-1.63-2.65-2.91C435,186.62,433.4,178.73,430.3,171.23Z"/><path class="cls-24" d="M279.93,206.28l1.83-.73.24,5.6c-1.54,2.51-1.66,5.33-1.54,8.1.25,5.54-2.38,10.55-2.68,16-.75,2-1.29,4.09-3.77,4.65-1.61-5.49-3.83-10.81-4.89-16.47-.5-3.33,3.31-5,3.14-8.28,0-.39.53-.88,1.07-.9,1.07,0,1.29.83,1.55,1.6.91,2.75.42,5.6.57,8.09-.05-3.35.21-7-1.32-10.56-.72-1.66.16-3.28,1.65-4.33S278.57,207.23,279.93,206.28Z"/><path class="cls-25" d="M390.56,193.25l13.95-4.1c0,.5-.05,1-.07,1.51-1.89,2.74.25,7.11-3.66,9.09-.25.13.3.81.54,1.21,2.37,3.86,1.83,8.17,1.95,12.39-3.08,3.35-3.84.33-4.42-1.81C397.1,205,394.71,198.72,390.56,193.25Z"/><path class="cls-26" d="M291.2,202.32c5.52-2.34,11-4.84,17.26-4-.19.94-.38,1.88-.56,2.82-.41.52.13-.09-.35.36-4.27,4-7.8,8.26-6.32,14.76a2.82,2.82,0,0,1-1.31,2.56c-3.3-1.31-3-4.81-4.31-7.27C294,208.57,292.65,205.4,291.2,202.32Z"/><path class="cls-27" d="M269.31,274.09q1.83,5.48,3.67,10.93a15.77,15.77,0,0,1,1.72,14c-.2,2.59,0,5.3-2.05,7.36-2.19,1.7-3.65.65-4.72-1.36a9.1,9.1,0,0,1-.75-5.78c1.3-8.64-.25-16.93-3-25.07,0-.9.23-1.73,1.22-2.07C267.57,271,268.32,272.77,269.31,274.09Z"/><path class="cls-22" d="M321.84,196.54l6-.23c2.63,1.15,3.88,3.39,4.69,6,2.27,5.44,5,10.72,5.43,16.78.16,2.25,1,4.61-1.34,6.3-2.29-1.55-2.37-4.26-3.21-6.49C330.39,211,326.24,203.7,321.84,196.54Z"/><path class="cls-28" d="M424.17,180.28a38.82,38.82,0,0,1-1.52,19.07c-.84,2.33-1.62,4.72-4.27,5.7-1.43-4.34-1.83-8.89-2.72-13.34-.26-1.34-.09-3,1-3.63C419.92,186.13,418.27,179.56,424.17,180.28Z"/><path class="cls-29" d="M424.17,180.28c-2.05,1.87-3.2,4.36-4.7,6.57-4.19,6.15.49,12.27-1.09,18.2-2.84-.08-2.1-2.6-2.43-4a128.74,128.74,0,0,0-4.45-15.42l12.06-8.21C423.77,178.36,424,179.32,424.17,180.28Z"/><path class="cls-30" d="M270.8,223.21c1.25,5.52,3.23,10.9,3.21,16.66-2.94-2.83-3.39-6.9-5-10.37-2.57-5.49-5-11-8.82-15.79l5.83-2.3C271,214,269.86,219,270.8,223.21Z"/><path class="cls-31" d="M403.27,213.35c-2-5.48-2.26-11.46-5.18-16.74,2.18-.68,1.66,2,3.45,1.71,0-2.82-.82-6.19,2.9-7.66C407.46,198.4,406.59,205.94,403.27,213.35Z"/><path class="cls-32" d="M342.64,199.38c1.57,9.08,1.45,17.89-4,25.9-2.79-2.12-1.28-5.3-1.64-7.91-.29-2.16-.24-4.51-.36-6.77.19-2,.74-3.87.77-5.86C338.65,202.44,338.81,199.14,342.64,199.38Z"/><path class="cls-33" d="M441.38,164.21c.46-2.41-1.13-5.39,2-7.07,2.46,13.83,2.8,27.45-4.2,40.31-.81-.95-.56-2-.41-3.11C439.72,184.31,440.88,174.29,441.38,164.21Z"/><path class="cls-34" d="M339,204.33l-.39,5.6c-3.17.1-1.21-3.55-2.14-3.62-1.84-.13-1.86.34-3.95-3a3.19,3.19,0,0,0-1.65-1l-3-6c4.84-.64,9.67-1.43,14.58-1,0,.64.07,1.28.1,1.92C339.82,198.87,339,201.4,339,204.33Z"/><path class="cls-24" d="M330.82,202.29c3.82-1.56,2.7,2.66,4.44,3.68,1.34-1.49-.75-3.15.12-5.12,2.35,2.84,1.61,6.39,3.18,9.08.76,3.49-.77,6.79-.8,10.21,0,1.75-.52,3.63.91,5.14-.65,1.16-1.35.86-2.07.08C337.21,217,333.63,209.76,330.82,202.29Z"/><path class="cls-35" d="M299.92,218.82a32.62,32.62,0,0,0-1.1-11.21c-.38-1.61-1.11-3.91,2.05-2,.4.24.87.76.93,0,.33-3.89,4-3.09,6.1-4.47l-.09,1.16c-1.72,5.47-3.24,11-5.78,16.2C301.43,219.28,300.69,219.16,299.92,218.82Z"/><path class="cls-36" d="M277.78,235.22c-1.52-1.68-.3-3.36-.08-5.08.57-4.53.83-9.09,1.5-13.6.3-2,.42-4.35,2.8-5.39A43.32,43.32,0,0,1,277.78,235.22Z"/><path class="cls-37" d="M372.72,204.27c-1.87-3-1.11-6.42-2.55-9.67,3.16,0,2.21,2.91,4.28,3.51-.27-3.94,2.32-4,5.13-3.76.5,1.32,1.16,2.59.88,4.07-3.84-.59-4.8,1.76-4.72,4.87-1.69.19-1.08-1.65-2.52-1.83C372.26,202.05,373.21,203.39,372.72,204.27Z"/><path class="cls-38" d="M302,218.5a29,29,0,0,1,5.78-16.2C307.56,208.29,307.17,214.25,302,218.5Z"/><path class="cls-39" d="M265.37,272.09l-.21,1.85a3.86,3.86,0,0,1,.27,2,1.61,1.61,0,0,1-1.5,1.12,21.34,21.34,0,0,1-6.9-8.9A27.36,27.36,0,0,1,265.37,272.09Z"/><path class="cls-40" d="M339,204.33c-1.63-3.77-1.9-6.85,3.55-7.06.05.7.1,1.41.14,2.11C340.62,200.43,340.3,202.77,339,204.33Z"/><path class="cls-2" d="M230.27,134.15c-8.47-3.48-17.41-5.33-26.24-7.56-.21-.46-.58-.94-.52-1.39,1.59-10.72,3.47-21.37,13-28.41,4.06-3,8.62-4,13.56-2.26,9.36,3.77,13.27,12.16,16.86,20.56a102.35,102.35,0,0,1,7,27.39,12.57,12.57,0,0,1-6.77-1.24,9.26,9.26,0,0,1-.72-5.79c1-8.21-1.37-15.78-4.9-23-.84-1.73-1.7-3.68-4-4.12-1.72.13-2.57,1.47-3.62,2.53-4.16,6.06-6.82,12.35-3.24,19.7A3,3,0,0,1,230.27,134.15Z"/><path class="cls-41" d="M199.23,126.35c-9.38-1.13-18.81-1-28.23-.88a3.41,3.41,0,0,1-2.7-1c6.13,0,12.25,0,18.37.17a6.39,6.39,0,0,0,5.24-2.26,32.08,32.08,0,0,0,6.17-10.1c2.15-5.43,4.81-10.55,9.3-14.48,5.79-5.06,12.29-6.82,19.72-4.23-9.43,2-16.45,6.74-20.49,15.92-2.22,5.06-4.08,10.49-8.36,14.48C197.26,124.9,199.88,125.12,199.23,126.35Z"/><path class="cls-7" d="M199.23,126.35l-3.63-1.5c4.74-4.71,6.67-10.89,9.52-16.56,4.57-9.09,12-13.82,22-14.72a3.26,3.26,0,0,1,3,1c-11.29.32-17.69,5.15-21.09,16-1.68,5.35-3.3,10.73-4.95,16.1Z"/><path class="cls-42" d="M384.8,116.34c1.94,4.3,5.13,8,5.68,12.95-2.56,1-4-.95-5.57-2.27-6.23-5.22-13.12-8.12-21.43-6.68a5.25,5.25,0,0,1-4.68-.94,24.05,24.05,0,0,1-4.22-15c.55-5.61,2.62-7.5,7.78-7a21.61,21.61,0,0,1,12.07,5.4C378.76,106.58,383,110.55,384.8,116.34Z"/><path class="cls-43" d="M358.8,119.4c12.91-4.24,22.8,1.22,31.68,9.89.53,9.91-4.13,12.85-13.25,8.45C369,133.74,363.43,127,358.8,119.4Z"/><path class="cls-44" d="M286.73,173.32a25.87,25.87,0,0,1,6.86-13c6.58-6.68,14.26-9,23.55-6.4,8.88,2.48,16.29,7.87,24.59,11.47l7.86,5.43c-2.44.22-3.8-.91-5.24-1.59-8.07-3.84-16.13-7.7-24.84-9.92-11.75-3-21.51.56-28.84,10.3C289.59,171,289.14,173.25,286.73,173.32Z"/><path class="cls-45" d="M384.8,116.34c-5-7.16-10.95-13.28-19.27-16.5-5.69-2.21-8.72-.8-10.95,4.54-1.38-6.95,1.63-11,8-10.85C370.65,93.78,384.44,107.91,384.8,116.34Z"/><path class="cls-43" d="M437.73,96.38c2.07,8.61,2,17.36,1.68,26.11a7.86,7.86,0,0,1-.86,2.83c-.46,1-1,2.39-2.37,2.15s-1.41-1.64-1.6-2.77c-.57-3.4.78-7-.94-10.27-1.56-3.26-1.69-6.8-2.07-10.3C432.49,100.65,433.47,97.22,437.73,96.38Z"/><path class="cls-46" d="M437.73,96.38l-5.21,7.14c-3.25-4.83-3.41-10.27-2.52-15.66.34-2.08,2.49-3,4.49-.94C437,89.57,437.14,93.06,437.73,96.38Z"/><path class="cls-47" d="M434.49,86.92c-3.55-1.19-4,1.22-3.83,3.64.33,4.35.52,8.75,1.86,13q.56,5.46,1.12,10.91l-.33,2.43c-2.43-9.45-4.8-18.91-4.81-28.77,0-2,.67-3.78,2.64-4.24C433.34,83.32,434.48,84.68,434.49,86.92Z"/><path class="cls-4" d="M80.47,215c-.25,4.82,1.85,8,6.61,9.1,2.18.5,2.89,2,3.28,3.85,3.3,16,2.86,31.84-2.18,47.51-3.12,9.71-7,18.9-14.14,26.48-16.33,17.36-47.42,13.24-58-10.39-.61-1.36-.89-2.88-2.45-3.55-4.76-20.76-.67-39.71,11.7-56.95,7.75-10.8,17.63-18.33,31.19-20.24A39.93,39.93,0,0,1,80.47,215Z"/><path class="cls-4" d="M88.38,130.33c16-16.71,42.86-22.18,66.55-8,11.78,7.06,20.77,16.35,24.11,30.15a2.8,2.8,0,0,0-.31,1.93c.52,2.47,1.28,5.05-1.51,6.67s-5.55.82-8.12-.4c-5.24-2.5-8.4-7-10.46-12.18a28.1,28.1,0,0,0-3.11-5.92c-5.46,6.84-12.5,3.81-18.73,2.3a60.39,60.39,0,0,1-27.44-14.43c-3-2.8-6-3.74-9.76-1.15a62.68,62.68,0,0,1-6.88,4C89.52,135,88,134,88.38,130.33Z"/><path class="cls-48" d="M75.44,181.3c-3.22-10-4.58-20-1.09-30.16a17.9,17.9,0,0,1,.83-1.78c2-1.58,2.45-6,6.19-4.32s1.54,4.72,1.17,7.38c-2.13,15.13,3.6,31,19,38.49,2.09,1,4.17,2,6.22,3.1,1.83,1,3.07,2.09,1.58,4.26h0c-1.1,1.26-2.24,2.55-4.13,2.2-12-2.19-22.59-6.91-29.43-17.74A3.44,3.44,0,0,1,75.44,181.3Z"/><path class="cls-7" d="M88.38,130.33c.87,2.06,1.78,3.54,4.33,1.6,7.63-5.85,14.31-6.12,22.13,1.09,7.29,6.7,16.88,10.22,27,11.61,9.81,1.34,9.78,1.57,13.73-8.35,1.35,3.92,2.47,7.12,3.54,10.33,1.9,5.69,4.9,10.51,10.47,13.31s8,1.38,8.61-4.64a15.9,15.9,0,0,1,.81-2.8,6.82,6.82,0,0,0,1.18,3.7c1.52,1.88,1.69.31,2.05-.78,1.77-3.76.27-7.43-.41-11.07-.82-4.37-1.44-8.77-1.89-13.18-.28-2.74.44-5.18,4.21-3.63.34,8.58,2.76,17,2,25.68-.24,2.92,0,5.56-4.4,5.56-2.42,0-3.38,3.62-6.6,3.71-6.94.2-13-3.51-16.69-11.81-1.66-3.75-2.71-5-7.45-3.74-7.67,2-15.47-.3-22.68-3.53s-14.26-6.31-19.79-12.1c-3.5-3.68-7.09-2.67-10.53.07-4.1,3.26-8.4,5.36-13.71,3Z"/><path class="cls-49" d="M236.87,105.45c1-1.06,1.73-.49,2.35.41,7.43,10.72,11.09,22.29,7.93,35.38-5.51-1.15-10.17-4.29-15.25-6.47-1.83-5.09-2.8-10.22-.7-15.49a7.41,7.41,0,0,1,3.34-4.15c2.11-.84,3.56.24,4.57,1.87,2.35,3.77,4.46,7.68,5.15,10.21-1.08-4.57-2.58-11-6-16.72C237.38,108.94,236.2,107.45,236.87,105.45Z"/><path class="cls-50" d="M184.18,127.52c-2.58-.1-2.88,1.08-2.41,3.42,1.3,6.57,2.49,13.19,2.39,19.93,0,1.72.52,3.77-1.89,4.53-1.19-10.4-5.68-19.53-12.12-28.93,6.84.28,12.54-.79,18.18.9Z"/><path class="cls-7" d="M109.37,198.27c.25-2.84-2-3.48-3.91-4.44-4.41-2.26-8.9-4.3-12.7-7.64-10.57-9.29-12.09-21.44-11.13-34.41.14-1.89,1.81-4.13-.33-5.48-2.35-1.49-3.16,1.6-4.79,2.4l-1.33.66a26.66,26.66,0,0,1,6.18-11.17c-.56,2.33-.72,4.42,1.49,6.26s1.77,4.47,1.09,7c-4.22,15.26,5.19,32.92,18,38.71a59.91,59.91,0,0,1,7.07,3.67C111,195,112.19,196.57,109.37,198.27Z"/><path class="cls-51" d="M236.3,115.35c-3.43,2.28-3.93,5.92-4.2,9.54-.25,3.28-.14,6.58-.2,9.88l-1.64-.62a13.77,13.77,0,0,0-.91-2.83c-4.74-8.27-1.72-15.2,3.68-21.74C236.22,110.31,237.5,112.13,236.3,115.35Z"/><path class="cls-7" d="M75.44,181.3c4.42,3.91,7.42,9.29,12.79,12.21,6.6,3.58,13.4,6.25,21.14,4.76,0,.64,0,1.29,0,1.94-2.43,2.16-4.95,3.54-8,1-.75-.6-1.47-1.7-2.24-1.74-10.43-.49-16.76-7.57-23.3-14.33-1.11-1.15-1.82-2.82-3.73-3Z"/><path class="cls-4" d="M266.86,190.27c1.26.79,2.06,1.77-.17,2-12,1.39-20.14,8.5-27.08,17.67-1.86,2.46-5,2.31-7.84,2.28-8.62-.1-17.28-.63-25.28,3.76a41.85,41.85,0,0,0-12.37,9.87C184,238,172.24,248.06,157.87,254.77c-13.16,6.15-26.24,6.7-38.77-1.82-3.42-2.32-6.37-5.1-6.5-9.7-4.79-15.73-.18-28.6,13.21-37.58a56.65,56.65,0,0,1,25.09-9.07c12.95-1.58,25.38-5.12,37.62-9.3a115.68,115.68,0,0,1,45-6.39,87.85,87.85,0,0,1,25.57,5.76A25.68,25.68,0,0,1,266.86,190.27Z"/><path class="cls-43" d="M101.4,201.25c2.76.43,5.3-.81,8-1a59.36,59.36,0,0,0,17.69-6.45c-6.54-.25-13-.58-19.11-3.11-12-5-19.47-13.89-21.32-26.57-1.9-13,3.17-23.63,14-31.33,4.29-3.06,5.94,1.94,8.91,2.9a3.28,3.28,0,0,1-.44,2.77,39.54,39.54,0,0,0-7.33,16.42c-3.31,12.51,1,25.17,10.53,30.93,2.46,1.49,5,2.56,7.94,1.58,13.36-1,20.87-9.46,25.93-20.78a41.09,41.09,0,0,0,3.1-11.43c.24-1.77.24-3.68,2.14-4.71,4.52,4.79,8.65,9.74,15,12.77a44.72,44.72,0,0,0,25.17,3.91c17.4-2,33.94,1.11,50.16,7,1.15.41,3.14.52,2.54,2.31-.53,1.55-2.31.91-3.52.6-16.72-4.26-33.14-2.66-49.44,2.28a75.73,75.73,0,0,1-33.92,2.27,3.92,3.92,0,0,0-4,1.33c-3.62,4.64-8.52,7.8-13.06,11.37a18.86,18.86,0,0,1-16,7c-11.07,2.22-22.17,3.74-34,1.55C94.27,201.57,98.08,203.2,101.4,201.25Z"/><path class="cls-52" d="M151.41,150.43c-.35,14.81-5.84,26.94-18.53,35.22-3.78,2.47-7.93,4-12.6,3.64-9.45-3.43-16.88-14.52-16.47-24.58a4.92,4.92,0,0,1,1.61-4c3.61-1.38,7.08-.67,10.5.7,2.93,3.09.42,7.35,2.22,10.53,1.08-7,2.9-14.06,4.38-21.16.47-2.21,1-4.65,3.71-5.44C134.41,148.14,143,148.76,151.41,150.43Z"/><path class="cls-53" d="M124.28,201.23l16-7c13.64-2.46,27.74-2.21,41-7,8.06-2.94,16.08-5.95,24.68-7.07,18.86-2.47,37.33-1.59,55,6.22.12.91,0,1.55-1.16,1.06-11.72-2.84-23.44-5.81-35.66-5a127.83,127.83,0,0,0-32.94,6.37,275.57,275.57,0,0,1-43.78,10.72c-14.4,2.42-26.8,8.6-33.14,23.14-3,6.74-1.6,13.68-1.68,20.57-7.27-11.93-3-30.44,9.36-40.22C122.72,202.42,123.5,201.83,124.28,201.23Z"/><path class="cls-54" d="M126.23,145.36a110,110,0,0,0-4.18,16.29A145.25,145.25,0,0,1,118.33,178a22.45,22.45,0,0,1-2.48-15.24c2.07-2.66,1.94-5.12-.73-7.32-1.21-5.17-1.49-10.14,3.19-13.95Z"/><path class="cls-55" d="M118.31,141.46A48.58,48.58,0,0,0,116,155.2c-4.91,2.49-8.82,0-12.73-2.52.5-5.49,3-10.32,5.08-15.3l1.23-1.73Z"/><path class="cls-56" d="M259.79,187.43l1.16-1.06c2.07,1.15,4.61,1.59,5.91,3.9Z"/><path class="cls-57" d="M100.43,307.88l16.82-26c2.66-.5,3.27,1.81,4.27,3.32a70.81,70.81,0,0,1,7.5,15.43c.55,1.51.54,3.86,3.21,3.61a4.22,4.22,0,0,0,2.43-1.79c2.26-3.76,2.29-8.1,3.15-12.22,1.13-3.62,1.06-7.34,1-11.06a4.6,4.6,0,0,1,1.15-3.9c6.54-.89,13.11-1.62,19.33-4,3.82,1.07,3.72,5,5.44,7.58,1.31,2,2,4.71,5.32,3.69a5.13,5.13,0,0,0,1.68-.89c3.3-3.67,4-8.35,5-12.89,1.29-2.34.15-5.21,1.65-7.49.31-.06.61-.13.92-.21,7.74-1.4,14.13,2,20.42,5.75,3.36,4.2,8.54,5.64,12.93,8.17,4.6,2.65,9.06,5.53,13.62,8.22,1.68,1,4.75,2.05,3.63,4.57s-3.84,1.07-5.8.42c-4.58-1.52-9.26-2.62-13.91-3.85-5.74-1.52-11.53-1.4-17.32-1.13s-8,3-7.67,8.74c.33,5.47,3,10.16,5.74,14.69a120.33,120.33,0,0,0,28.47,32.36c2.07,1.62,4.38,3.08,5.44,5.69.68,2.46-.39,4.59-1.24,6.76a16.45,16.45,0,0,0-2.32,6.54c-3.84,7.44-3.09,15.69-4.13,23.61-.25,2-.17,4-2.1,5.29-8.91-2.59-17.77-5.29-25.28-11.08a6.75,6.75,0,0,1-1-2.07,60.79,60.79,0,0,0-2.82-31.2c-.65-1.78-.83-4-3.14-4.72a3.38,3.38,0,0,0-1.9,1.48c-3.32,5.74-5.56,12.12-10.39,16.91-1.51,1.49-2.7,3.53-5.36,2.77-6.08-5.08-10.32-11.67-14.92-18a6.56,6.56,0,0,1-.54-3.33c0-.68,0-1.37,0-2.05.61-5.07.67-10.08-1.45-14.89-.39-.88-.56-2-2-1.56-1.69,1.69-2.28,4-3.39,6s-2.17,3.73-4.69,3.84C127,319.59,115,311.45,100.43,307.88Z"/><path class="cls-57" d="M263.84,398.54c-9-1.79-18.17-2.49-26.81-5.79a9.21,9.21,0,0,1-2.35-3.28c-3.75-10.84-5.85-22.06-7.51-33.36-.33-2.23-1.09-4.58.12-6.83,2.2-2.39,4.32-.86,6.19.37,9.13,6,18.56,11.55,28.11,16.88,1.84,1,3.87,2,4.39,4.44a96,96,0,0,0-.14,19.32C266.11,393.19,266.7,396.33,263.84,398.54Z"/><path class="cls-57" d="M306.5,403.56l-17.31-2a7,7,0,0,1-2.45-1.81,137.75,137.75,0,0,1-7-15.71c-.78-2.16-1.72-4.3-.6-6.64,1.75-2.13,3.89-1.34,5.9-.67,6.57,2.16,13,4.81,19.6,6.84a7.16,7.16,0,0,1,4.51,3.63C309.93,392.93,311.63,398.81,306.5,403.56Z"/><path class="cls-57" d="M345.65,412.52c-7-2-14.37-2.49-21-5.71a5.53,5.53,0,0,1-1.17-2.22,49.54,49.54,0,0,0-1.25-10.07,5.38,5.38,0,0,1,1.36-4.19c.41-.27.81-.69,1.29-.67,7.94.27,16-.08,23.37,3.7C349.69,400.06,351.17,406.77,345.65,412.52Z"/><path class="cls-58" d="M404.57,406.78a2.19,2.19,0,0,0,.2.8c-4.36,5.57-10.85,6.62-17.15,8.09a10.15,10.15,0,0,1-2.29-3.06c-1.32-3.66-2.29-7.44-3.82-11-.71-1.66-1.31-3.38-.07-5.09,2.42-1.63,4.81-.53,7.08.28a48,48,0,0,1,13,6.94Z"/><path class="cls-59" d="M324.67,404.8l0,2-18.14-3.25a62.76,62.76,0,0,0,1.3-16.85c-3.46-6-1.83-12.89-3.6-19.19a5.06,5.06,0,0,1,1.76-5.79c3-.11,3,2.88,4.39,4.39,2.09,9.29,5.37,18.42,3.87,28.22.31-2-.52-4.26,1.67-5.69a1.53,1.53,0,0,1,1.39.22c1.5,1.59,1.53,3.84,1.51,5.6A10.9,10.9,0,0,0,324.67,404.8Z"/><path class="cls-60" d="M288.12,399.72c.36.62.72,1.24,1.07,1.86l-19.28-2c-5.67-6.44-4.34-14.39-4.76-22,.77-1.55,1.8-1.3,2.68-.22s1.09,2.58,1.67,3.56a27,27,0,0,1-2.31-7.8c-.14-1.26.07-2.37,1.47-2.74a2.3,2.3,0,0,1,2.51,1.21A26.14,26.14,0,0,1,274,378C277.13,386.26,281.19,393.92,288.12,399.72Z"/><path class="cls-61" d="M180,337.78c.16-.75.13-1.6,1.05-1.93,2.75,1.21,3.44,3.94,4.4,6.34a62.58,62.58,0,0,1,4.21,29.6,3.74,3.74,0,0,0,.29,1.93l-.18,2-2.48-.93c-2.36-2.32-6-4.07-3.69-8.47.08-.15,0,.11-.14.09-4.15-.88-6.09-4.14-4.65-8.17.5-1.39.69-.78-.54-.54-2.74.54-2.29-2-2.72-3.63C176.05,348.36,179,343.32,180,337.78Z"/><path class="cls-62" d="M372.77,415.74c-3.06.23-6.5,1.49-7.88-2.88-3.62-5.82-5.53-11.94-3.2-18.79,3.7-2.14,7.49-1.71,11.3-.34a3.29,3.29,0,0,1,1.92,2.66A110.47,110.47,0,0,1,375,412C374.89,413.64,373.75,414.65,372.77,415.74Z"/><path class="cls-63" d="M361.71,394.63c1.08,6.07,2.94,12,3.18,18.23-.17,3.21-1.77,3.2-4,1.76a8.52,8.52,0,0,1-3.9-8.48c.28-2.37-.88-4.5-.77-6.8-.52-6.1-3.6-11.31-5.88-16.8-.69-1.68-1.83-3.22-1.93-5.08-.09-1.58.41-2.7,2.3-1.61a2.11,2.11,0,0,0,.74.14l4.17,4.87c3.76,1.08,4.1,4.59,5.32,7.48C361.57,390.39,363.17,392.33,361.71,394.63Z"/><path class="cls-61" d="M236.07,389.79a3.43,3.43,0,0,1,1,3l-1.91-.07c-8.2-2.24-6.84-10.41-9.7-15.42a23.89,23.89,0,0,0,1,2.79c.47,1.12,2,2.52.62,3.52-1.68,1.23-3.21-.28-4.12-1.57-1.62-2.27-3.56-4.32-4.78-6.88-1.07-6.33,1.23-12.3,1.88-18.45l1.87-6c2.61,1.46,2.31,4.25,2.77,6.56C226.89,368.66,231.36,379.26,236.07,389.79Z"/><path class="cls-64" d="M180,337.78c.51,6-1.55,11.46-3,17.08-1.09,3.79-.56,8.54-5.84,9.84a20.66,20.66,0,0,1-6-5.8C172,353.14,175.9,345.37,180,337.78Z"/><path class="cls-65" d="M171.21,364.7l5.84-9.84c.36.73-.24,2.87,1.67,1.39.93-.72,0-2.71,2.12-3.55-1.31,4.73-1.59,9.17,1.39,13.27,1.53-.91,1.43-2.81,2.83-4.05a12.82,12.82,0,0,0,2.27,12.88C181.33,372.43,176.41,368.35,171.21,364.7Z"/><path class="cls-66" d="M357.76,398.72c1.29,5.25,1,10.81,3.15,15.9a21.68,21.68,0,0,1-9.22-1,4.77,4.77,0,0,1-1.84-3.35c.14-5.53-1.25-11-.22-16.56,1.91-2.38,3.19-.9,3.77.94s1.13,3.73,1.8,5.42c0-.09-.14-.27-.2-.49-.48-1.91-2.71-4.73-.08-5.51S356.55,397.23,357.76,398.72Z"/><path class="cls-67" d="M350.8,392.69c-.3,7,1.7,13.92.89,20.95l-6-1.12c1.4-6.16,2.52-12.35,1.63-18.72-3.12-2.8-2.29-6.71-2.91-10.23.15-2-.66-4.23,1.51-5.68.21,0,.42,0,.63,0C350.49,381.38,352.49,388.28,350.8,392.69Z"/><path class="cls-68" d="M372.77,415.74c1.11-7,2.14-14.05.12-21.09a2,2,0,0,1-.41-2.9c2.13-.61,2.75,1.08,3.64,2.36,2.1,4.63-1.15,9.38.54,13.45.4-1.06-.45-2.63-.46-4.24,0-.95-.37-2.29.78-2.61,1.34-.38,2,.84,2.54,1.91a4.12,4.12,0,0,1-.21,3.38,2.5,2.5,0,0,0-.12,1,1.76,1.76,0,0,1,.65-1.45c2.16-.37,2.78,1.29,3.35,2.73a9.59,9.59,0,0,0,3.56,4.38c1,.81.65,2,.87,3C382.67,415.18,377.73,417.1,372.77,415.74Z"/><path class="cls-69" d="M220,356.67c.94,6.33-2.1,12.71.17,19,.73,2.86,2.24,5.47,2.77,8.37.34,1.88.71,3.94-.92,5.57l-6.94-2.83C215.55,376.57,216,366.33,220,356.67Z"/><path class="cls-70" d="M222,389.64c-.93-4.6-2.45-9.13-1.85-13.94l5.68,7.37.64-.26-3.39-10.62c4.6,6.58,5.43,15.16,12,20.49Z"/><path class="cls-71" d="M266.15,376.57c-.92,8,2.76,15.32,3.76,23l-6.07-1.06c.4-9.55-.58-19.13.73-28.66-2-5.14-1.47-7.12,2.59-9.07a4.4,4.4,0,0,1,1.64,4.33C267.91,369,267.6,372.9,266.15,376.57Z"/><path class="cls-72" d="M138.29,328.93c3.07-3.45,5-7.59,6.82-11.74a2.48,2.48,0,0,1,1.44,1.53,5,5,0,0,1,.17,2.44c-1.74,6.47,1.49,11.58,4.46,16.78l-.87,3A114.44,114.44,0,0,1,138.29,328.93Z"/><path class="cls-73" d="M345.88,377.89c-.39,1.75.76,3.55-.17,5.28-2.29,1.27-4.12-.06-5.91-1.17-5.06-3.12-9.35-7.22-13.75-11.16-1.34-1.2-2.54-2.68-1.55-4.75.65-1.39,1.3-2.77,1.94-4.16.82-2,1.65-4,2.47-6,4.28,7.11,8.41,14.36,15.78,18.89C345.89,375.59,345.72,376.79,345.88,377.89Z"/><path class="cls-40" d="M350.8,392.69l-4.29-14.78c.73-2.07,1.42-4.24,4.22-2.06-2.69.75-.53,2-.13,2.75,3.27,6.4,6.4,12.83,7.16,20.12l-2.55-4.51c-1.13,3.67,1.92,6.28,1,9.78Z"/><path class="cls-52" d="M324.5,366.09c6,7,12.88,13,21.22,17.08,1.72,3.37,1.09,7.08,1.57,10.63l-23.39-3c-2.8-1.09-2.92-3.84-3.66-6.12-2.8-8.64-6.81-16.53-13.55-22.82-2.37,3.42.1,6.72.49,10a86.24,86.24,0,0,1,.62,14.89c-9.53-2.5-18.36-7.15-28.07-9.11-2.71.07-2.93-2.26-3.59-4a96.82,96.82,0,0,1-3.61-10.83c-.95-3.7-2.54-4.45-5.53-2-1.89,2.75-1.66,6.06-2.43,9.11a234,234,0,0,1-31.2-18.07c-1.62-1.1-3.38-2-5.08-3-2-.6-2-3.29-4.07-3.85-17.22-12.47-31.61-27.44-39.67-47.41-4.54-11.27.18-16.63,10.84-16.7,11.68-.09,22.51,3.13,34.39,7.12-2.52-2.84-5-3.92-7.24-5.28-2.42-1.45-4.73-3.09-7.18-4.46-4.78-2.68-9.63-5.21-14.42-7.86-.86-.48-2.58-.47-1.82-2.3,2.61-1.41,4.92,0,7,1.1,16.29,8.23,32,17.38,46.47,28.61,5.78,5,12.54,8.82,18.21,14,4.75,3.94,9.73,7.6,14,12.1,2.7,2.39,5.65,4.5,8.11,7.16,4.14,3.13,7.37,7.26,11.39,10.52,1.82,2.26,4.13,4.23,4.55,7.35l6,6.81C317.93,359.32,320.82,363.07,324.5,366.09Z"/><path class="cls-74" d="M401.53,403.7c-6.59-2.53-12.9-5.92-20-6.83-3.26-.52-5.51-1.84-4.49-5.73,5.08-1.54,9.25-.16,12.6,3.9l6.06,3.42C397.78,400,400.18,401.28,401.53,403.7Z"/><path class="cls-73" d="M308.87,348.92c-2.11-1.93-4.58-3.57-5.49-6.52a2.86,2.86,0,0,1,1.25-3.76A55,55,0,0,0,308,323c.38-1.22.77-2.45,1.23-3.89,3.86,2.48,6.33,6.07,8.75,9.71C316.12,336.06,313.53,343,308.87,348.92Z"/><path class="cls-75" d="M389.59,395c-4.34-.78-8.21-3.42-12.8-3.22-1.58,1.19-2.93-.84-4.47-.31-2,.33-3.81.12-4.69-2.11.73-1.8-.77-4,1-5.61l22.08,6Q390.14,392.41,389.59,395Z"/><path class="cls-76" d="M304.63,338.64c-.41,1.25-.83,2.5-1.24,3.76-4.62-2.63-7.74-6.91-11.55-10.43-1-2.5-.19-4.77.68-7.15A84.46,84.46,0,0,0,297.73,293l.21-3.15c4.74,5.1,6.25,11.49,6.9,18.1a77.21,77.21,0,0,1-1.27,23.14C303,333.75,303,336.3,304.63,338.64Z"/><path class="cls-77" d="M359.5,388.71l-3.86-7.85a68,68,0,0,0,3.09-22.8c-.06-3.47.08-6.94.13-10.41,4.7,7.68,6.09,16.26,6.82,25,.46,5.42-.6,10.91.86,16.28C364.1,391.48,361.81,389.81,359.5,388.71Z"/><path class="cls-78" d="M359.5,388.71c2.38-1,4.67.62,7,.24l1.09.45,5.15,1.44c.3.17.41.36.34.57s-.16.32-.26.32l0,2.92-11.18,0C361,392.66,360.23,390.68,359.5,388.71Z"/><path class="cls-42" d="M251.59,298.93c-16.73-11.57-33.71-22.72-52.47-30.85-6.11-3.73-13.12-4.94-19.79-7.1A59.94,59.94,0,0,1,197.19,249c2.42-.6,3.6,1.14,4.81,2.66a63.79,63.79,0,0,1,5,7.85c.77,1.33,1.15,3.34,3.5,2.41,3.63-2.62,4.27-6.57,4.51-10.56.16-2.64.31-5.28.5-7.91-.1-1.72-1.13-3.31-.72-5.1a4.27,4.27,0,0,1,1.08-2c2.44-2.06,4.89-4.1,8.28-4.37,2.53-.24,3.4,1.76,4.37,3.42a46,46,0,0,1,4,8.51c.51,1.53.38,3.79,3,3.77,3.4-6.18,2.53-12.69,1.65-19.21.11-1.47-.46-3.07.8-4.33a10.62,10.62,0,0,1,5.82-2.92c-1.4,7.54-.85,15.16-.52,22.7.69,16.14,4.34,31.21,17.44,42.3,2.21,1.9.87,3.84-.08,5.64-1.43,2.74-3.17,5.29-6,6.85A6,6,0,0,1,251.59,298.93Z"/><path class="cls-79" d="M140,275.23l.1,3.95c-2.24,2.17-5.48,2.11-8.12,2.82-2.31.63-1.34,1.05-1,2.07a10.42,10.42,0,0,1,.49,2.41c.08,1.32.21,2.85-1.21,3.46s-2.3-.78-3.11-1.76c-1.1-1.37-1.3-4.05-4.16-2.78-3.16-1.57-4.46-4.06-3.7-7.55,3.05-6.34,3-6.17,9.59-4.44C132.43,274.36,136.23,274.64,140,275.23Z"/><path class="cls-80" d="M238,224.22l.81,3.88c-2.32,2.53-1.89,5.82-2.48,8.83-.2,1-.53,2.11-1.62,2.28a1.43,1.43,0,0,1-1.57-1.07c2.27,3.11,4.54,7.17,3,12.22-2,3.29-2.5.9-3.15-.86-2.27-6.15-4.37-12.38-8.8-17.44C227.89,227.88,232.86,225.91,238,224.22Z"/><path class="cls-81" d="M210.86,264.16c-3,1.89-3.71-.83-4.58-2.51A44.17,44.17,0,0,0,197.19,249c5.29-5.6,11.83-9.35,18.71-12.61l.09,1.75c-2.22,2.6-4.41,5.15-2.64,9a2.74,2.74,0,0,1-1,3.07,1.34,1.34,0,0,1-1.7-.48,3.35,3.35,0,0,1-.54-1.36,4.46,4.46,0,0,0,.29,1.25c1,3.4.19,4.48-3.51,2.33,1.22,3.63,3.47,6.55,3.91,10.11A4.31,4.31,0,0,1,210.86,264.16Z"/><path class="cls-82" d="M171,284.24c-3.83,1.89-5.36-1.07-6.83-3.5-1.84-3.07-3.29-6.36-4.91-9.56l19.12-10c.8,2.58,1.41,5.16,0,7.73-1.39-1.24-2.57-1.95-3,.77s-.41,5.51-2.74,7.47a1.57,1.57,0,0,1-1.4,0c-.64-.31-.59-1.1-1.08-1.5,1.07,2-4.75.21-1.88,3.46C169.5,280.52,170.12,282.5,171,284.24Z"/><path class="cls-83" d="M270.8,223.21q-2.4-5.9-4.79-11.8c4.53-2,9-4.07,13.92-5.13-3.92,3.17-5.31,7-4,12.08.66,2.62.12,5.53-.2,8.32-1.45-3.66,0-7.79-2.44-11.39C274.24,218.57,269.84,220,270.8,223.21Z"/><path class="cls-67" d="M119.21,277.85a23.65,23.65,0,0,0,4.09,7.21c2.36.27,3.1,2.2,4,3.95,2.79,5.45,4.39,11.33,6.1,17.17-3.46,2-4.27-.65-5.1-3-2.74-7.61-5.93-15-11-21.35A7.19,7.19,0,0,1,119.21,277.85Z"/><path class="cls-19" d="M253.88,297.67c2.89-3.43,6.47-6.44,6.85-11.37,2.44-2.62,3.17-5.83,3.2-9.28l1-1c3.82,8.55,1.11,16.48-2.4,24.29-.69,1.54-2.28,3-4,2.25C256.51,301.59,253.62,301,253.88,297.67Z"/><path class="cls-9" d="M273.06,299.1c.87-4.7.1-9.39-.08-14.08a120.92,120.92,0,0,0,23.77,12.64c1.88,4.57,1.12,8.79-1.71,12.73a4,4,0,0,1-3.77.46C284.54,308,277.33,305.79,273.06,299.1Z"/><path class="cls-14" d="M293.86,310.07a28.57,28.57,0,0,0,2.89-12.41c.39-1.54,0-3.26,1-4.68,2.37,7.61,1.16,15.18-.29,22.74a75.82,75.82,0,0,1-5.6,16.25c-2.66-2.25-5.66-4.11-7.79-7C286.27,319.35,290.56,315,293.86,310.07Z"/><path class="cls-37" d="M368.77,206.26c-1.35-3-2.72-5.93-4-8.92-.42-1-1.34-2.23.48-2.79a2.15,2.15,0,0,1,2.74,1.5c1.06,2.75,2.37,5.43,2.6,8.44C368.11,203.19,369.33,205.64,368.77,206.26Z"/><path class="cls-37" d="M371.66,209.26c1-.86.9-2.1,1.14-3.23,1.46,2.2,1.23,4.57.75,7.5C372.13,212.14,371.42,210.93,371.66,209.26Z"/><path class="cls-24" d="M441.38,164.21c2.5,8.79-.17,17.32-1.33,25.92a24.16,24.16,0,0,1-1.33,4.21c.35-9.35-1.1-18.64-2.07-28l1.37-.14c.56,1.64,1.12,3.28,2,5.75,1.18-3.8-1.49-6.65-.14-9.78Z"/><path class="cls-42" d="M293.86,310.07c-1.14,6.38-4.68,11.19-9.81,14.95L269.66,312.7c-1.48-2.85.5-4.61,2.06-6.5q.66-3.54,1.34-7.1C279.94,302.86,286.25,307.7,293.86,310.07Z"/><path class="cls-11" d="M271.72,306.2c-.69,2.17-1.37,4.34-2.06,6.5l-18.07-13.77,2.29-1.26c4.88,5.49,5.83,5.3,8.14-1.2A49.51,49.51,0,0,0,264.9,276c.09-.68.18-1.36.26-2,4.12,7.84,5,16.17,4.25,24.91C269.19,301.32,266.92,305.06,271.72,306.2Z"/><path class="cls-84" d="M236.3,115.35,233,109.58a11,11,0,0,1,3.84-4.13c7,8.52,9,18.65,9.48,29.34C242.35,128.6,240.48,121.38,236.3,115.35Z"/><path class="cls-85" d="M105.56,161.07c0,12,4.74,21.46,14.72,28.22-7.2.59-12.56-2.75-16.33-8.44a29.08,29.08,0,0,1-3.55-26.44l.63.23C102.78,156.62,105.18,158.13,105.56,161.07Z"/><path class="cls-86" d="M108.32,137.38c-.67,4.05-1.4,8.09-2,12.15-.25,1.73-1.77,1.76-2.8,2.45-.24,1.73-1.1,2.74-3,2.54l-.15-.11A30.18,30.18,0,0,1,108.32,137.38Z"/><path class="cls-87" d="M100.55,154.52c1-.85,1.52-2.23,3-2.54L116,155.2c2.36.62,4.58,1.48,4.32,4.49-.23,2.64-2.46,2.74-4.44,3-3.53.07-6.9-.88-10.29-1.66C103.1,159.49,100.22,158.24,100.55,154.52Z"/><path class="cls-88" d="M224.22,345c5.86-3.48,2.72,2.56,4.07,3.85,1.48,13.87,4.46,27.45,7.78,41-4-3.38-5.43-8.31-7.43-12.84a76.3,76.3,0,0,1-6.76-26.25Z"/><path class="cls-61" d="M133.39,306.18c-2.38-.51-2.69-2.53-3.29-4.4-1.84-5.74-3.6-11.52-6.8-16.72.14-1.42-.44-3,1.28-4.34,2.65,2.17,2.75,6.07,5.56,8.89-.12-4.63-2.37-8-3.08-12.3,3,4.65,6.7,1.51,10,1.72l3,.15c.32,4,.78,8-.62,11.94-2.74-1.6-1.56-4.78-3.15-7-.63,6.66.9,13.43-.93,20C135.11,305.14,134.25,305.65,133.39,306.18Z"/><path class="cls-89" d="M190,373.72c-1.73-7.37-1.67-15-3.62-22.4-1.4-5.32-4.27-10.07-5.28-15.47,4-3.2,4.93.82,5.8,3A58.61,58.61,0,0,1,190,373.72Z"/><path class="cls-90" d="M135.35,304.06c-1.48-1.29-1.06-3-1-4.62a80.12,80.12,0,0,0-.92-13.75c-.41-2.66.54-5.33,3.64-5.38,3.45-.06,2.08,3,2.27,4.91s.09,3.93.12,5.9C139,295.71,138.39,300.27,135.35,304.06Z"/><path class="cls-91" d="M172.15,277c.35-2.73.68-5.46,1-8.19A4,4,0,0,1,177,265c2.52.09.55,2.69,1.34,3.94-.64,5.34-1.75,10.48-6.11,14.23C168.57,281.17,170.31,279.07,172.15,277Z"/><path class="cls-40" d="M172.15,277c.81,2-1.67,4.16.12,6.19L171,284.24c-4.71-1.25-4.79-5.83-6.5-9.19-.49-1,.46-2.09,1.47-2.17,2-.16,1.11,2.53,2.66,3.05,2-1.85-1.72-5.44,1.92-7.08C172.31,271.47,170.19,274.63,172.15,277Z"/><path class="cls-92" d="M151.18,337.94c-1.47-.12-2-1.43-2.92-2.21-5.86-4.84-3.36-11-2.92-16.8,3.68.53,3.75,3.65,4.38,6.27.84,3.5.93,7.13,1.48,10.69C151.19,336.58,151.19,337.26,151.18,337.94Z"/><path class="cls-93" d="M151.2,335.89c-2.55-5.45-2.56-11.78-5.86-17-.08-.58-.15-1.16-.23-1.74,2.58-3,3.51-.43,4.36,1.45A28.57,28.57,0,0,1,151.2,335.89Z"/><path class="cls-94" d="M267,360.77c1-2.12.61-5.76,3.56-5.74,2.66,0,2.36,3.56,3.1,5.57,2.09,5.65,3.45,11.55,6.07,17,1.93,7.7,5.89,14.63,8.39,22.11a18.64,18.64,0,0,1-10.55-9.61c-2.95-6.19-5.57-12.52-8.51-18.75-.79,5.22,1.77,9.53,3.68,15-3.4-3.17-4.89-6.53-6.59-9.75Q266.57,368.67,267,360.77Z"/><path class="cls-90" d="M306.69,361.83c4.3.91,6.38,4.41,8.66,7.57,4.6,6.4,6.57,13.9,8.55,21.37l.06,3.89a22.52,22.52,0,0,1-.12,9.21c-3.48-.68-4.78-2.91-5.27-5.94s-.71-6.18-1.77-9.14v0c-2.64-2.26-2.56-5.6-3.2-8.57A52.19,52.19,0,0,0,309,366.79C308.19,365.14,307.44,363.48,306.69,361.83Z"/><path class="cls-95" d="M316.8,388.79c1.69,1.81,1.73,4.14,2.05,6.4.43,3.09,1.61,5.81,5.11,8.86v-9.39c1.41,3.29.82,6.73.71,10.14-4.68-.46-7.53-2.34-7.05-7.75C317.86,394.34,317.1,391.55,316.8,388.79Z"/><path class="cls-96" d="M372.86,391.73a3.32,3.32,0,0,1-.08-.89c1.58-.64,2.68.63,4,1q2.35,2.52,4.69,5.05c2.37,5.05,5,10,5.27,15.77-2.76.7-4.63.17-4.94-3.15a15.55,15.55,0,0,0-1.25-3.62c-1.92-3.74-3.82-7.49-5.75-11.22Z"/><path class="cls-95" d="M309,366.79c5.13,6.44,7.27,13.95,7.86,22-2,2.87-.41,6.11-.93,9.13-.22,1.27.7,3.48-1.67,3.33-1.78-.11-1.39-2-1.34-3.23C313.36,387.39,311.67,377,309,366.79Z"/><path class="cls-97" d="M374.81,394.65a19.9,19.9,0,0,1,5.75,11.22c-1.57,1.54-.13,3.87-1.46,5.68-1.09-3.21.59-6.74-2-10.06-.31,3.6,1.34,7-1.23,10.16C375.67,405.75,376.22,400.13,374.81,394.65Z"/><path class="cls-98" d="M236.13,250.36c-1.13-5.94-3.39-11.53-6.46-17.77,3.26,1.58,2.79,4.73,5.52,6-.72-3.11-.13-5.83.27-8.6s1.55-2.47,3.34-1.85C240.18,235.79,241.16,243.43,236.13,250.36Z"/><path class="cls-99" d="M210.86,264.16l-.89-1a33.8,33.8,0,0,1,2.53-13.13c.26-1.62-.33-3.32,0-4.85.53-2.2,1.37-4.77,4.42-2.09C217.69,250.93,217.32,258.43,210.86,264.16Z"/><path class="cls-100" d="M217,243.11c-5.24.22-3.2,4.32-3.74,7-.28.43-.59.44-.92.06-.25-1.44-.17-3.05-.79-4.3-2.5-5,.2-6.78,4.49-7.73Z"/><path class="cls-101" d="M212.29,250.21a7,7,0,0,1,.92-.06,22.77,22.77,0,0,1-3.24,13c-1.31-2.83-2.55-5.69-3.94-8.48-1.09-2.18-3.3-4.94-.52-6.48,2.48-1.37,2.06,3,4.24,3.78.66-2.83-2.27-5.07-1.88-8.22C210.9,245.19,210.19,248.66,212.29,250.21Z"/></g></g></svg>
