<svg xmlns="http://www.w3.org/2000/svg" viewBox="0 0 506.33 506.33" width="100" height="100"><defs><style>.cls-1{fill:#027a50;}.cls-2{fill:#514139;}.cls-3{fill:#73594b;}.cls-4{fill:#b29e88;}.cls-5{fill:#382d27;}.cls-6{fill:#d8d8d8;}.cls-7{fill:#fefefe;}.cls-8{fill:#cca561;}.cls-9{fill:#b2b2b2;}.cls-10{fill:#d1d1d1;}.cls-11{fill:#d0d1d1;}.cls-12{fill:#826d57;}.cls-13{fill:#e1c781;}.cls-14{fill:#836c57;}.cls-15{fill:#836d58;}.cls-16{fill:#826d58;}.cls-17{fill:#80725c;}.cls-18{fill:#7d715a;}.cls-19{fill:#856b56;}.cls-20{fill:#73584b;}.cls-21{fill:#392e27;}.cls-22{fill:#73584a;}.cls-23{fill:#72584a;}.cls-24{fill:#6f5548;}.cls-25{fill:#392e28;}.cls-26{fill:#866c56;}.cls-27{fill:#856c56;}.cls-28{fill:#cfbea9;}.cls-29{fill:#939393;}.cls-30{fill:#010100;}.cls-31{fill:#949494;}.cls-32{fill:#856c57;}.cls-33{fill:#cebda8;}.cls-34{fill:#846d58;}.cls-35{fill:#846e59;}.cls-36{fill:#866f5a;}.cls-37{fill:#89725c;}.cls-38{fill:#b1b1b1;}.cls-39{fill:#715749;}.cls-40{fill:#010101;}.cls-41{fill:#030201;}.cls-42{fill:#936f30;}.cls-43{fill:#937031;}.cls-44{fill:#152134;}.cls-45{fill:#fafafa;}</style></defs><g id="Calque_2" data-name="Calque 2"><g id="Calque_8" data-name="Calque 8"><path class="cls-1" d="M278.76,406.84c-8.26,17.65-17.25,34.78-31.28,48.83a265.42,265.42,0,0,1-30.1,26.06c-8.69,6.42-16.64,13.77-24.95,20.66-1.52,1.27-3,2.75-4.56,3.94H0V0H257.58a22.87,22.87,0,0,1-2.93,1.36c-8.23,4.1-16.46,8.18-23.51,14.23a8.3,8.3,0,0,1-2.22,1.27h0c-2.43,1-5.09.82-7.75,1-5.8.33-11.54.88-17.21,1.72-16.24,2.38-31.86,7.11-46.32,15.81a64.64,64.64,0,0,0-7.49,5h0a23,23,0,0,0-3.56,3.56l-.24.31c-16.56,14.26-24.5,33.08-27.54,54.07-1.89,13.07-.85,26.09,5.43,38.15l.23.46c.28.21.56.42.82.64,3.94,3.27,5.59,7.51,6.19,12.8a25.18,25.18,0,0,0,8,15.64c1.22,1.13,2.58,2.38,4.38,1.3,1.57-.94,1.14-2.58,1-4.07-.35-3.78-1.38-7.51-1-11.36.1-1.21.41-2.56,1.66-2.79s1.9,1.08,2.32,2.18a74.91,74.91,0,0,0,7,14.79c3.58,5.51,7.79,10.32,13.93,13.1,1.69.77,3.49,1.71,4.12,3.44,2.12,5.82,6.57,9.24,11.67,12.09h0l.09.06c0,.08.06.15.08.22h0c1.24,3.39-.6,6.18-1.71,9.11-.15.4-.29.8-.4,1.2l-.06.2c-3.39,11.68-6.72,23.38-7.93,35.55a16.39,16.39,0,0,0-.73,3.47h0c0,.45-.08.88-.1,1.33h0c-.15,3.46.46,6.94.5,10.41,0,.43,0,.87,0,1.31,0,.12,0,.25,0,.38,1.61,14,5.28,27.29,12.26,39.61,4.76,8.4,10.77,15.91,16.39,23.7.24.35.5.7.76,1s.31.39.47.58a32.46,32.46,0,0,1,2.87,3.63c.13.2.25.41.37.63l.19.32c1.45,2.37,2.87,4.75,1.38,7.41a4.5,4.5,0,0,1-.49.74s0,0,0,0a2.77,2.77,0,0,1-.22.29c-13,9.39-27.71,14.59-43.38,17.25a107.37,107.37,0,0,1-34.55.11,15.45,15.45,0,0,1-4.64-1.24,6.84,6.84,0,0,1-1.18-.71,7.17,7.17,0,0,1-.94-.82c-2-4.87-2-10.06-1.49-15.08,1.82-16.35,3.15-32.75,5.62-49a28.81,28.81,0,0,0,.07-4.26v-.2a10.27,10.27,0,0,1,0-2.07,27.85,27.85,0,0,1,.57-3.95c.06-.34.13-.69.18-1,.12-.64.21-1.29.27-1.94q.09-25.31-.05-50.6V222a9.81,9.81,0,0,1-.07-1.09c0-.69,0-1.38,0-2.06a7.15,7.15,0,0,0-.25-1.78,4,4,0,0,0-.34-.87c-1.06-6.81-2-13.64-3.9-20.3A58.11,58.11,0,0,0,115,177.32l-.25-.34c-.14-.17-.28-.34-.41-.52-1.19-1.48-2.29-3-3.57-4.42a15.42,15.42,0,0,0-1.41-1.39,12.56,12.56,0,0,0-1.4-1.1c-8.73-8-18.27-14.26-30.79-13.93a8.75,8.75,0,0,1-4.12-.88,8,8,0,0,1-1.06-.6,3.92,3.92,0,0,0-.33-.27C64,147.5,57.41,151.57,52,157.12h0c-.65.66-1.27,1.34-1.88,2a8.86,8.86,0,0,0-1.23,2c-.16.33-.32.66-.5,1-6.85,12.42-8.45,25.64-5.8,39.43,1.13,5.87,4.07,10.56,9.76,13a3,3,0,0,0,.37.17l.88.46a15.4,15.4,0,0,0,11.12.82A37.83,37.83,0,0,1,76,214.81c7.33.19,11.58,3.4,13.94,10.53,2.71,8.18,2.48,16.68,2.63,25.13.41,22.14-3.31,44-5.16,65.91-.46,5.42.91,11-1.06,16.29a5.81,5.81,0,0,1-1.11.83,3.14,3.14,0,0,1-.5.23c-2.27.84-4-1.35-5.68-2.55C65.52,321.42,55,308.89,46.53,294.57A130.71,130.71,0,0,1,28,230.19a13,13,0,0,0-.27-2.34.33.33,0,0,0,0-.1A18.25,18.25,0,0,0,26.55,224v0c-.12-.3-.25-.59-.38-.88-3.6-.24-2.61,2.65-2.75,4.37a114.72,114.72,0,0,0,1.19,24.36c5,36.36,19.52,68.14,46.14,93.93,5,4.79,10.54,8.76,15.93,13h0l1.64,1.32.56.45c2.3,2.19,2.82,5.2,3.62,8.06,6.45,23,19.49,41.17,39.65,54.16a62.68,62.68,0,0,0,21.05,8.68c1.6.34,4,.08,3.93,2.63,0,.12,0,.25,0,.38s0,.09,0,.13c-6.38,2.89-13.15,1.87-19.58,1.05C91,429.7,57.36,404.89,35,364.28a143.59,143.59,0,0,1-17.11-54.69l-.24-2.49c-.33-3.66-.52-7.34-.59-11.06a11.59,11.59,0,0,0-.27-2.31,11.92,11.92,0,0,0-1.13-3.05c-.13-.24-.26-.48-.41-.72-3.63-.26-2.7,2.66-2.74,4.37-.22,10.12-.4,20.24,1.08,30.31,4.82,32.77,16.79,62.54,38.09,88C75.3,441,104.89,459.72,142,464.44c37.34,4.76,71.15-4.76,101-27.84a154.36,154.36,0,0,0,30.14-31c1.42-1.94,2.46-4.46,5.43-4.66l.24.22.09.08C280.61,403.06,279.56,405.1,278.76,406.84Z"/><path class="cls-2" d="M506.33,0V77.25c-.81,0-1.71-.13-2.48-.16-8.78-.31-17.52-.11-26.42,1.75a119.83,119.83,0,0,1,22.36,7.37,20,20,0,0,1,6.54,4.2v8.31l-.12,0h-.12a3.61,3.61,0,0,1-1.4-.21l0,0c-9.55-5.19-19.87-7.32-30.56-8l-1.56-.09c-.48-.18-1-.34-1.46-.47-3.13-.83-6.45-.72-9.34-1.58A37,37,0,0,1,475.8,98.56c1.29,1.49,2.92,3.12,1.79,5.27s-3.36,2-5.32,1.77c-7.74-1-15.33-2.91-23.07-3.94-4.78-.64-9.62-.63-14.72-1.72,1.08,1.58,2.63,1.93,3.77,2.79,1.81,1.37,4.58,2.27,4.19,5-.34,2.4-2.94,2.94-4.95,3.66-3.43,1.24-6.91,2.38-10.43,3.36-15.64,4.38-31.21,3.25-47.28-.89,2.46,3.61,5.27,6.33,7.28,9.62.78,1.27,1.72,2.7.76,4.16-1.17,1.78-3,1.15-4.51.55a66.57,66.57,0,0,0-15.81-4.29,17.59,17.59,0,0,0-4.22-.08h0a10.07,10.07,0,0,0-1.34.2c-.27,0-.55.11-.82.18-7.95-1.36-15.79-3.34-23.89-3.81-3.2-.19-6.4-.79-9.57-.36a15.28,15.28,0,0,0-2.07.44,1.34,1.34,0,0,0-.07.27c-.52,2.15,1.56,2.36,2.7,3.24s3.16,1.87,2.4,3.82c-.68,1.75-2.6,1.76-4.3,1.71-4.29-.12-8.46-1.18-12.72-1.48-3.54-.25-7-1.23-10.59-1.28h0a16.53,16.53,0,0,0-3.27.27l-.27,0c-6.44-.31-11.92-3.23-17.28-6.46-.13-.08-.23-.34-.34-.33-.69,0,0,.39-.08.59s0,.21.07.32a14,14,0,0,0,.49,1.85h0c1.66,4.92,5.53,8.39,8.76,12.27,1.84,2.21,5.58,4.42,3.6,7.39a.76.76,0,0,1-.08.11,1.09,1.09,0,0,1-.13.17c-2.1,2.66-5.36-.08-7.88-1A38.77,38.77,0,0,1,275.71,136c3.52,4.12,7.06,8.89,10.82,13.49,1.23,1.49,2.67,3.11,1.6,5.38l-.22.11-.11.06c-1.87.84-3.32-.39-4.61-1.42-10.27-8.23-19.4-17.64-27.94-26.83a81.32,81.32,0,0,0,8.19,14.47c1.15,1.64,2.84,3.22,1.84,5.55a1.59,1.59,0,0,1-.12.27h0c-4.14.36-5.52-.39-9.55-5.81,3.71,5.13,7.44,10.24,12.06,14.65,1.61,1.53,3.69,3.12,2.52,5.94l-.24.09a.09.09,0,0,1-.06,0c-2.38.86-3.73-1-5.23-2.31-2.53-2.13-4-5.12-6-7.42.46,1.4,3,2.5,1.46,4.7l-.09.13-.07.09c-2.48.76-4.27-.63-5.67-2.24-5.54-6.37-11.67-12.23-16.84-19.35,2,10.82,4,21.35,9.57,30.81,1.14,1.92,2.56,4,1.18,6.5l-.29.08h0c-2.9.7-4.26-1.63-5.66-3.41-5.11-6.57-10.09-13.25-12.49-22.52h0c0-.12-.07-.24-.1-.36a1.77,1.77,0,0,0,0,.22c0,.79.08,2.39.11,3.62h0c0,.48,0,.9,0,1.2s0,.44,0,.44a2.52,2.52,0,0,1-2.21-1.18c2.77,9.64,4.46,20.76,7.5,31.55a4.43,4.43,0,0,1-.74,4.23l-.38.15h-.06c-2,.61-3.06-1-3.83-2.4a148.45,148.45,0,0,1-12-27.67c-.59-1.85-1.12-3.72-1.61-5.61-.16-.62-.32-1.24-.47-1.87a14.36,14.36,0,0,1-.08-1.48c-.52.12-.28.75-.65,1l-.2.11,0,0c-.25.11-.52.16-.63,0-.64-.76-1-.94-1.41-.49a1.15,1.15,0,0,0-.15.2,3,3,0,0,0-.24.41,3.36,3.36,0,0,1-1.34-.91c-1.09-1.26-.64-3.09-.69-4.67a27.59,27.59,0,0,0-.44-5.84v-.07a7.76,7.76,0,0,0-1-2.26c-2.68-15.38.73-30.63,1-46.13A146,146,0,0,0,202,117.6a30.1,30.1,0,0,1-1.45,5.77c-.57,1.42-1.41,2.9-3.12,2.74-1.95-.17-2.6-1.79-2.8-3.57a120.6,120.6,0,0,1-.09-22.8c.67-9.11,2.64-18,3.43-27.13,0,0,0,0,0,0l0-.34c-.07-.27-.14-.53-.2-.78-1.37-5.18-1.65-5.13-7.73-4a3,3,0,0,1-2-.15l-.14-.08a1.33,1.33,0,0,1-.19-.14c-1.29-2.41-.09-4.55.86-6.63,2.21-4.83,4.62-9.57,7.28-14.52-10,6.64-19.27,13.58-24.63,24.51-.71,1.45-1.86,3.24-3.74,2.61s-1.6-2.79-1.19-4.34c4.92-18.75,12.4-35.81,30.35-46A38,38,0,0,1,204,19.55a52.92,52.92,0,0,1,18.63-2.2c3.38.14,6.21-.55,8.36-3.26,6.27-6.47,14.44-9.85,22.25-13.84l.49-.25h84.56a16,16,0,0,1-2.51.91,73.58,73.58,0,0,0-14.17,7,88.57,88.57,0,0,1,29.36-.43c1.77.26,3.68.18,4.86,1.92a.85.85,0,0,1-.14.86l0,0-.15.21.8.15h0a118.66,118.66,0,0,1,11.88,3.24c6.33,1.9,12.7,3.59,19.58,2.67,2.9-.38,5.85-.3,9-1.57-2.55-3.43-6.13-4.53-9.34-6.14l-.34-.18-.76-.52C381.72,5,377.14,1.93,371.82.06L371.66,0Z"/><path class="cls-3" d="M387.41,8.86c-.46,1.86-2.48,2.34-4.11,3a28.76,28.76,0,0,1-15.14,2,39.12,39.12,0,0,1-7.42-1.75,22.26,22.26,0,0,1-4.46-1.49h0a5,5,0,0,1-.56-.38h-.07a81.54,81.54,0,0,0-27.9-1.42c-3.25.37-6.48.91-10.24,1.45,1.41-3.79,4.7-4.76,7.28-6.44A41.08,41.08,0,0,1,333,0h43.08a37,37,0,0,1,11.35,7.33A3.8,3.8,0,0,1,387.41,8.86Z"/><path class="cls-4" d="M85.28,333.22c-.41-20,2.92-39.67,4.44-59.49,1.11-14.38,2.22-28.83-.49-43.16-1.07-5.65-1.92-12-9-13.49a23.81,23.81,0,0,0-13.26.61c-5.48,2-10.71,1.78-15.52-1.86,4.86-6.6,7.36-7.52,15.05-5.57,9.85,2.51,16-2.17,16-12.3,0-7-2.88-13.2-6.42-19.09-1.44-2.41-3.31-4.62-3.15-7.68a45.4,45.4,0,0,0-1.13-12.56c-.5-2-1.1-4.16.73-5.95a7.29,7.29,0,0,0,4.24,1c13.38-.38,23.67,6,32.7,15.07a13.57,13.57,0,0,1,1.63,5.14c.14,3.88,1.74,4,4.31,1.68,7.85,8.41,10.79,19,12.84,29.85.63,3.37,1.4,6.78,1,10.28-.11,2.07-.23,4.15-3.1,4.2-2.07-1.81-2.1-4.41-2.54-6.82A79.12,79.12,0,0,0,116.28,191c-.75-1.45-1.2-3.64-2.89-3.8-2.11-.2-2.42,2.36-3.54,3.69-1.38,1.65-1.95,3.42-.5,5.41,6.45,8.82,9,19.07,10.75,30,2-1.71,2.81-4.41,5.44-4.95,1.52.29,2.89-.9,4.42-.43.65,17.56,1,35.13,0,52.7-.73,1.46-1.29,3.28-3.46,1.59-1.52-2.39-1.16-5.1-1.17-7.71-.06-11.57,0-23.13,0-35.09-2,.5-3,2.49-4.79,2.6-4.41-2-5.93,2.54-8.49,3.73,2.6-.63,3.68-6.18,8.17-3.14,1.56,6.43,1.68,13,2,19.56s.12,12.86,0,19.29c0,2.24.39,3.6,3,2.74,2.95,0,1.85,3.67,3.95,4.47-1.08,17.36-2.77,34.66-5,51.9-.73,5.67,0,11.2.22,16.79,2.6,2.51,2.66,6.06,3.75,9.19.41,3.39,1.86,6.43,3.27,9.48a44.78,44.78,0,0,0,7.19,11.48c1.81,3.14,5.48,4.76,6.8,8.3,1,4.51.67,9.1.63,13.06.5-3.32.14-7.54,4.19-10.08a5.08,5.08,0,0,1,3.42.37c11.43,5.36,23,6,34.7,1a4.27,4.27,0,0,1,1.48-.19c3.16.43,5.87,1.47,6.64,5-.48,2.66-2.54,3.78-4.74,4.64-6.08,2.37-12.23,4.24-18.92,2.81-1.86-.4-3.93-.81-5.93.69,1,2.29,3.07,2.26,5,2.3,8.31.19,16-2.25,23.61-5.35,2.63-1.07,1.72-2.7,1.23-4.41,1.39-3.37.61-7,1.2-10.45a9.33,9.33,0,0,1,3.34-4.15c4.78-3.94,7.23-9.17,8.49-15.08,1.29-4,1-8.51,3.19-12.3a4.42,4.42,0,0,1,1-1c2-1.12,4.31-1.21,6.3-1.84-2.74-.15-5.34-.82-7.11-3.36a20,20,0,0,1-1.56-6.32c-.37-3.53-2.84-6.34-3.37-9.8,1.5-3-1.79-4.42-2.11-6.81a3.2,3.2,0,0,1,2.39-1.62c7.13-1.35,11.92-6,15.39-10.55-5.88,4.33-12.72,8.91-21.81,7.2-11.48-13.9-21.57-28.57-26.22-46.34a78.13,78.13,0,0,1-2.89-17.63c-.35-3.93,2.14-2,3.31-1.35,3.67,2.17,7.32,4.36,11.17,6.25,3,1.5,5.27,2.1,5-2.6,0-.65.59-1.13,1.16-1.5a4.89,4.89,0,0,1,2.93-.19c6.65,1.06,6.66,1.06,8.23-5.71,2.46-10.6,7.45-20.24,11.36-30.29,3.62-9.33,3.65-9.33-6.25-9.54-1,0-2,0-3-.13-7.8-.59-8-.58-10.18,7.21-2.74,10-4.46,20.06-2.94,30.5.4,2.7,1.21,5.58-.35,8.28a3.16,3.16,0,0,1-2.2,1c-8.12,0-18.78-11.54-18.24-19.69.85-12.46,4-24.4,8.24-36.09,1.58-1.25,3.15-.5,4.7,0,2,.7,4,1.73,6,2.27,1.81.46,4.38,2,5.29-.34.8-2-2.26-2.27-3.57-3.34-3.36-2.73-8.17-4.16-8.52-9.58a5.93,5.93,0,0,1,2.35-3.76,7.56,7.56,0,0,1,9.5.85c3.3,2.87,7.76,3.32,11.23,5.75.55,2-1,3-1.91,4.31-1.73,2.34-1,3.49,1.63,4.16,4.8,1.23,10,.68,14.56,2.89,1,.65,2,1.5,3.16,1.23,4.35-1,8.41.45,12.57,1.18,3.11.89,6.21,1.91,9.53,1.29,3.53,0,4.72-2.11,5.26-5.33.88-5.17,2-5.88,7.1-4.61a74.58,74.58,0,0,0,26.61,1.78c3.27-.37,5.71,1.05,8.09,3,6,4.95,12,9.85,19.1,13.3a28.87,28.87,0,0,0,24.93.71c2.26-1,4.37-2.44,7-2.29.83.82,1.1.54,1.67-.46,6.93-12.05,14-24,21.57-35.66q14.74-22.87,41.82-20c1.69.18,4,1.07,4.88-1.06.73-1.75-1.3-2.81-2.23-4.11s-3.12-2.28-1.73-4.54c2.68-1.56,5.21-.48,7.61.63,7.08,3.28,13.21,8,17.2,14.67,10.69,18,14.38,37.34,10,58a105.68,105.68,0,0,1-6.41,20.4c-5.46,12.44-7.72,25.72-9.76,39a154.08,154.08,0,0,1-6.84,28.56c-7.62,21.34-22.45,35-44.76,38.77-17.28,2.91-32-3.87-43.5-17a77.36,77.36,0,0,1-14.78-26.29c-1.32-3.05-2.07-6.3-3.2-9.09.86,7.42-.07,15.08-1.34,22.68a89.41,89.41,0,0,1-6.86,22.82,21.19,21.19,0,0,1-5.07,7.31c-2.83,2.5-6.05,3.59-9.65,2.1-8.33-3.47-17.28-4.63-25.85-7.17-.83-.25-1.26-.7-1.77.53-1.24,3-3.23,5.52-4,8.92-2.17,9.91-8.35,17.9-13.71,26.23-2.23,3.48-5,6.59-6.63,10.46-2.86,5.68-8,9.22-12.72,13a129.85,129.85,0,0,1-65.62,28.47c-2.55.35-5.31,1.13-7.34-1.44-13.88-2.35-25.78-8.6-36.37-17.79-15.12-13.12-24.86-29.45-30.06-48.64-.55-2.05-.78-4.22-2-6-2.52-3.28-2.87-7.24-3.5-11.11.47-3-1.76-5.59-1.07-8.57C83.66,338.91,82.51,335.72,85.28,333.22Z"/><path class="cls-5" d="M506.33,98.11V281.57c-1.68-.42-2.6-2.11-3.71-3.38-6.11-7-12.58-13.49-20.59-18.28a45.4,45.4,0,0,0-8.53-4.15,25.49,25.49,0,0,0-5.74-1.31h0l-.37,0a25.37,25.37,0,0,1-5-.45,15.86,15.86,0,0,1,2.6,3.1.41.41,0,0,1,.05.09c1.31,1.43,2.64,2.85,4,4.27,0,0,0,0,0,0,5.21,5.6,10.32,11.28,14.08,18.07,4.67,8.45,8.1,17.45,11.69,26.37.56,1.4.92,3-.23,4.25s-2.4.24-3.54-.38a3.92,3.92,0,0,0-2.43-.7.83.83,0,0,0-.36.15c-.72.47-.63,1.86-.38,3.33.76,4.39,2,8.68,2.7,13.08,3,17.86,4,35.91,5.47,53.92a7.42,7.42,0,0,1,0,1.49c-.19,1.64-.11,3.72-2,4.2-2.18.58-3.21-1.38-3.94-3a66.56,66.56,0,0,1-4.48-14.74,288.09,288.09,0,0,0-8.77-35.54,0,0,0,0,0,0,0,184.3,184.3,0,0,0-8-20.51L468,309.7l-.08-.18c-3.52-7.41-7.49-14.58-13.11-20.64h0c-.61-.67-1.24-1.32-1.9-2a1,1,0,0,1-.18-.22.79.79,0,0,1-.24,0c-.88,0-.19.64-.14,1a5.43,5.43,0,0,1,.29.67,3,3,0,0,1,.12.43l.06.27a81.54,81.54,0,0,1,3,11.28c0,.06,0,.12,0,.18a137.13,137.13,0,0,1,2.23,18.23c.79,12.26,1,24.49,1.05,36.74,0,2.43.54,6-2.1,6.61-3.19.75-3.8-3-4.88-5.29-5.45-11.59-5.92-24.47-9.55-36.67a178.7,178.7,0,0,1-30.91,55.59,43.89,43.89,0,0,1-24.42,15.28c-8.56,2.08-16.93,4.87-25.91,4.15-3.06-.24-4.41,1.62-5.45,4.12-2.78,6.77-5.92,13.36-9.23,19.88-2.33,4.61-4.69,9.3-8.19,13.05-5.26,5.63-7.76,12.35-8.75,19.66-2.58,18.94-11.4,35.24-21.06,51.22a13.13,13.13,0,0,1-2.54,3.19H185.71a376.92,376.92,0,0,1,36.1-30.09C246.49,458.12,265,435.19,276.9,407c.78-1.85,1.31-3.8,1.94-5.72,0-.12.07-.23.11-.35v0h0c-1-2.57.58-4.47,1.75-6.39a192.82,192.82,0,0,0,10-18.84,13.29,13.29,0,0,0,.69-1.14,21.72,21.72,0,0,0,1.08-2.29c.93-2.24,1.6-4.59,2.63-6.79a16,16,0,0,1,2.22-3.84,6,6,0,0,1,.66-.67,5.69,5.69,0,0,1,.72-.55c7.74-3.14,12.4-9,14.9-16.8a139.36,139.36,0,0,0,6.24-29c.16-1.63,0-3.38.89-4.78a3.93,3.93,0,0,1,1-1.1c3.37,7.34,6.77,14.63,11.49,21.26,12.56,17.63,33.54,25.46,52.33,19.14,17.44-5.86,29.49-17.45,35.87-34.78,4.91-13.33,6.67-27.34,9-41.23a132.32,132.32,0,0,1,8.84-30c10-23.39,10-46.79-1.46-69.74-5.44-10.91-13.81-18.49-26.33-20.53h0c-3.9,1.77-8.15,1-12.22,1.63-19.15,3.08-31.71,14.22-39.53,31.4a111.39,111.39,0,0,0-5.33,15.55,32.45,32.45,0,0,1-3.65,8.7c-.19.25-.39.49-.59.72s-.59.69-.89,1h0c-5.93,6.22-13.35,6.43-21.38,3.78a16.47,16.47,0,0,0-9.68-.62c-4.58,1.17-8.78-.24-12.71-2.85-8.75-5.81-14.23-14.29-18.94-23.29-2.24-4.29-4.9-7.6-9.39-9.72-.85-.4-1.68-.83-2.49-1.3a12.28,12.28,0,0,1,2.42,2.76c1.71,2.62,2.62,5.42,1.1,8.44a7.23,7.23,0,0,1-7.35,4.18c-4.51-.4-8.63-.56-12.6,2.4-2,1.53-4.83.24-7.09-.93a23.66,23.66,0,0,1-6.58-4.61c1.84,4.57,4.25,9.28,6.3,14.15,1,2.37,1.41,3.89,1.07,5.17h0c-.37,1.41-1.66,2.53-4.1,4.21a14.19,14.19,0,0,1-9.84-2,14.18,14.18,0,0,1-3.83-2.16h0a21.19,21.19,0,0,1-4.56-5.21,109.87,109.87,0,0,1-11.57-23.76v0q-1.29-3.65-2.37-7.37h0c-1.53-5.22-2.77-10.54-3.81-15.93a.06.06,0,0,1,0,0c-.06-.25-.1-.5-.15-.75a12.82,12.82,0,0,1-.35-4.59A4.79,4.79,0,0,1,213,149c0-.14,0-.29,0-.43.06-.84.14-1.7.23-2.79l1.79,3.15.06.08a10.5,10.5,0,0,1,1.4,2.25,26.32,26.32,0,0,1,1.61,5.61c.15.73.31,1.46.5,2.18,2.42,9.14,4.39,18.4,7.58,27.33a36,36,0,0,0,8.4,13.94c1.4,1.38,2.8,2.83,5.38,2.94,0-3.59-2.65-5.63-4-8.29s-4-4.7-2.11-8l0-.07c-2.15-9.66-4.39-19.31-6.42-29-.8-3.8-2.18-7.59-1.2-11.91,1.23,2.08,2.35,3.93,3.45,5.78l.15.25c2.33.92,2.65,3.29,3.54,5.16,3,6.3,6.13,12.51,10.73,17.85a20.69,20.69,0,0,0,6.83,5.56c-1.08-2.82-4.37-4.33-3.16-7.57a.14.14,0,0,1,0-.06c-.64-3.52-2.88-6.28-4.41-9.39-5-10.21-6.57-21.34-8-32.64,5.4,7.08,11.63,13.31,17.37,20,2.09,2.42,4.09,4.77,7.08,6.07l.21,0c2.37.18,3.41,2.15,4.71,3.71a49.46,49.46,0,0,0,17.53,13.47,79.43,79.43,0,0,1-9.71-7c-1.53-1.33-3.5-2.58-2.76-5.16a.24.24,0,0,1,0-.08c-2-5.57-7.6-8.12-10.72-12.85-2.38-3.6-4.18-7.48-6.38-11.26,4,3.2,7.09,7.46,12.14,9.1h0l.34-.08c2.62-.5,3.92,1.67,5.46,3.1,5.58,5.18,11.89,8.73,19.64,9.35-1.17-1.25-3.23-1.95-2.58-4.22a.53.53,0,0,1,0-.12c-2.95-6.59-8.83-11-12.56-17.05a28.12,28.12,0,0,1-2.86-5c6.93,3.75,13.49,7.92,22,10.15l.24.07-.11-.24c-2.42-5.28-7.14-7.69-9.33-12-1.64-3.19-5.52-5.37-4.47-9.79a4.22,4.22,0,0,1,1,.12c1.85.44,2.85,2.11,4.06,3.44,4.37,4.79,8.64,9.73,13.86,13.57,11.81,8.71,25.26,10.28,39.38,8.22,1.41-.2,3.21-.26,3.82-1.9.71-1.93-1-3-2.06-4.18-3.32-3.48-7.62-5.18-12.14-6.49-7.53-2.17-15.37-2.74-23-4.58-2.11-.51-4.46-.64-6.07-2.25a5.35,5.35,0,0,1-.85-1.1c5.07-2.23,9.94.55,14.92.61,5.3.07,10.49,2.21,16.62,1-2.57-1.95-4.68-3.38-6.58-5.06-1-.84-2.75-1.81-.95-3.55a8,8,0,0,1,4.78,1.09c.85.45,1.68,1,2.51,1.49,10.08,6.14,20.88,9.87,32.81,9.81,1.14,0,2.61.38,3.23-.7.83-1.43-.6-2.38-1.42-3.36s-2.27-1.89-2.85-3.25a3.37,3.37,0,0,1-.26-1.05c7.36-2.6,13.89.68,20.59,2.87,1.51.49,2.72,1.93,5.09,1.46-3.34-5.87-7.82-10.55-12-16,22.61,6.31,44.71,6.42,66.83-3.93l-14.28-9c7.6-.84,13.53.68,19.48,1.25a203.25,203.25,0,0,1,24.43,4.24c1.53.34,3.77.94,4.64-.57,1-1.8-1.32-2.67-2.28-3.88-4.89-6.14-12.17-8.86-18.67-12.89,5.77.18,11.47,0,16.78,2.5.58.51,1.17,1,1.77,1.48,9,7.23,19,10.77,30.6,8C505.23,98.41,505.78,98.27,506.33,98.11Z"/><path class="cls-5" d="M188.23,190.9l-2.18,2.89c-.46.55-.68,1.52-1.76,1-6.25-.05-9.63-3.93-11.64-9.2-1-2.72-2.64-4-5.31-5.21-9-4-13.83-12-17.92-20.47-1.49-3.09-2.45-6.43-3.91-10.36-.73,5.11.85,9.29,1.26,13.57.24,2.54.82,5.23-2,6.53-2.62,1.21-4.71-.35-6.59-2.21-4.64-4.6-7.91-10.27-8.45-16.51-.49-5.58-2.16-9.69-6.53-12.88,1.67-2.64,3.39-6.39,6.61-5.84,3,.52,2.16,4.73,2.82,7.35.93,3.7,1.39,7.53,3.07,11,.7,1.45,1.44,3.4,3.5,2.9,2.4-.58,2.11-2.77,1.74-4.53-1.82-8.53-1.36-17.16-1.6-25.78-.57-20.3,6-38.74,13.34-54.88-3.83,5.46-9.14,12.48-13.46,20.15-2.36,4.2-4.49,8.5-6.43,12.92-.68,1.55-1.11,4.1-3.37,3.56-2-.48-1.8-2.92-1.94-4.71a27.77,27.77,0,0,1,.09-5.47c4-31.18,20.94-52.85,48.56-66.78-4.09,2.1-8.29,4.2-12.36,6.57s-8.25,5-12.4,7.4c-1.9,1.11-3.74,3.06-6.31,1.4,8.11-8.43,18.21-13.7,29-17.74,15.93-6,32.37-9.55,49.48-9.17,2.88.07,5.05-1.19,7.41-2.29a6.69,6.69,0,0,1-7.14,4.23c-25-1.58-43.3,14.82-51.62,37.42-2,5.32-4.15,10.65-4.28,16.71,6.44-14.18,18-22.7,32.1-30.75-4.47,9.33-9.54,16.78-11.92,25.45a5.72,5.72,0,0,1-1.51,4.11C177.78,82.52,175,96,172,109.52c-3.76,17.12-1.57,34,1.56,48.24-1.81-26.56,1.4-54.5,17.71-79.67,1.92-3,3.62-6.51,7.94-6.85,2.22,4-.08,7.8-.65,11.56a218.08,218.08,0,0,0-2.45,39c0,1.28-.25,3.18,1.42,3.24s1.36-1.9,1.6-3.13c2-10.06,4-20.13,7.77-29.73,1.12-2.85,2.5-5.59,3.77-8.39l1.22.3c0,4.52.35,9.07-.07,13.55-.88,9.54-1.86,19.07-1.74,28.66,0,3.26,1.45,6.5.09,9.76,1.89,5.27.79,10.79,1.23,16.17.63,7.67,1.57,15.13,4.85,22.16.14.3.21.63.33.93,2.64,6.73,2.07,10.51-2,13.31-3.88,2.67-9.84,1.92-14-2.52-6.23-6.61-10.63-14.33-12.07-23.47.91,7,.19,14.18,1.5,21.22A8.6,8.6,0,0,1,188.23,190.9Z"/><path class="cls-6" d="M291.93,376.49c-3.14,8.77-8.61,16.3-13,24.42-9.7,13.34-20.39,25.77-33.44,36-58.72,46.23-137.76,39.6-189.22-16.16-26-28.13-40.2-61.71-44.87-99.55a194.43,194.43,0,0,1-1.23-26.86c0-2.16,0-4.4,1.42-6.2,1.76-2.25,3.59-3,5.11.28-.13,10.71,1.18,21.32,2.24,31.94-1.24,4-.49,7.95.37,11.78,8.94,39.86,28.3,73.31,62.17,97,38.69,27,80.6,32,124.45,14.37,32.83-13.2,56.16-37.11,72.42-68.21,1.77-3.38,3.37-6.86,5.13-10.25.76-1.46,1.54-3.17,3.51-3.13,2.13,0,3,1.8,3.84,3.47A15.6,15.6,0,0,1,291.93,376.49Z"/><path class="cls-7" d="M17.39,321.7c-1.07-9.34-2.23-18.68-1.78-28.11.09-1.77-.46-3.69,1.12-5.14,2.88,6.22,2,13,2.73,19.5,6,56,42.24,104.23,93.19,120.57a118,118,0,0,0,44.15,5.55c14.46-.19,28.06-4.18,41.19-9.79a121.54,121.54,0,0,0,43-30.42c3.4-5.42,7.88-10.06,11.37-15.42a181.76,181.76,0,0,0,11.72-21.11c1-2.06,1.82-4.27,3.81-5.69,3.78-1.57,7-.13,9.47,2.49s.66,5.45-.51,7.93c-21.62,45.71-56,75.54-106.88,83.27-38.45,5.85-72.62-5.46-102.48-30.05C40.12,392.75,25,363.17,18,328.94,17.55,326.55,16.32,324.23,17.39,321.7Z"/><path class="cls-3" d="M145.09,43.29c5.29-3.07,10.49-6.33,15.9-9.17,4.84-2.54,9.89-4.66,14.9-6.87,1-.43,2-1.31,3.61-.3-30.22,16.87-50.29,40.25-50,76.74A132.53,132.53,0,0,1,157,62.21c-2.6,6.3-5.27,12.56-7.79,18.89-8.68,21.84-10.16,44.37-6.35,67.41.46,2.77,1.24,6-2.27,7.26-4,1.39-5.71-1.61-6.84-4.74a76.68,76.68,0,0,1-3.9-18.74c-1.87,2.94-3.36,5.55-6.64,5.74-5.26-6.79-6.2-15-6.53-23C115.57,87,123.19,62.26,145.09,43.29Z"/><path class="cls-8" d="M74.33,171.81c2.09,5.74,6.49,10.29,8.19,16.27,2.19,7.68,3.75,15.08-2.62,21.75-4.49,4.7-9.79,3.49-14.73,1.85-3.69-1.23-6.42-1.78-9,1.73a7.17,7.17,0,0,1-4.77,2.42c-7.78-1.73-9.75-8.3-10.78-14.55-2.3-14.09-1.56-27.95,6.67-40.44,1.56-.37,2.36-1.7,3.44-2.69,8.23-7.51,19.72-3.91,22.26,6.93C73.54,167.31,73.48,169.65,74.33,171.81Z"/><path class="cls-9" d="M86.34,350.41a31.65,31.65,0,0,1,2,11.19C70.94,350.79,57.45,336.12,46.64,319c-17.53-27.82-25.42-58.38-25.11-91.15,0-2.34-.05-4.75,1.44-6.68,1.69-2.19,3.45-2.67,4.64.54.11,11.38.83,22.7,3.33,33.83a45,45,0,0,1,.85,5.86c-1,4.41.47,8.55,1.68,12.65,6.86,23.4,19.29,43.5,36.31,60.85,3.61,3.69,7.79,6.72,11.82,9.9A15.13,15.13,0,0,1,86.34,350.41Z"/><path class="cls-10" d="M208.19,334.31c3.51,2,4.11,5.53,4.8,9-1,2.48-3,3.93-5.18,5.15-23.24,12.75-47.89,18.32-74.35,14.49-2.25-.32-4.7-.46-6.17-2.68-2.53-2.87-2.42-6.51-2.91-10C154.48,356.3,182.36,350.64,208.19,334.31Z"/><path class="cls-11" d="M30.45,262.73C28,250.89,26,239,26.56,226.85c.08-1.77-.5-3.7,1.05-5.18,2.91,6.72,1.75,14,2.81,21,5.57,36.51,22,66.59,51.9,88.81.92.68,2,1.18,3,1.77,0,3,0,6.08,0,9.13-3.34,1.29-5.28-1.3-7.4-2.91-20.57-15.61-34.83-35.82-43.34-60.12C32.69,273.93,30.26,268.65,30.45,262.73Z"/><path class="cls-12" d="M172.93,240.8c1.44,9.31,8.73,13.38,15.86,17.53a21.53,21.53,0,0,0,4.19,1.42v0c.48,2.48,2.91,5.61,1,7.21s-4.83-.85-7.17-1.89a53.91,53.91,0,0,1-11.47-6.67c-.91-.73-1.78-1.82-2.45.18A48.42,48.42,0,0,1,172.93,240.8Z"/><path class="cls-13" d="M74.33,171.81c-1.09-2.56-2.2-5.11-3.29-7.66-3.76-8.88-11.31-10.9-19.14-5.16-1.35,1-2.34,3-4.58,1.85,3.94-6.26,8.46-11.74,16.69-12,3.45-.13,6.49.77,8.48,3.88A56.9,56.9,0,0,1,74.33,171.81Z"/><path class="cls-14" d="M184.29,194.77l1.76-1c2,5.23,7,7.07,11.25,9.76,1.28.81,4.1.66,2.95,3.46-.91,2.24-2.78,3.44-5.16,2.67-4.68-1.51-9.28-3.3-13.92-5Z"/><path class="cls-15" d="M202.05,322.53a48.27,48.27,0,0,0,25.74-12.27c-3.47,10.46-12,16.91-21.71,17.24Z"/><path class="cls-16" d="M115.37,175.61c-.46,1.89-.73,3.86-2.21,5.46-5.13-3-3.84-7.82-3.73-12.28C111.75,170.77,114.3,172.55,115.37,175.61Z"/><path class="cls-17" d="M129.13,281.65c-5.94,2.19-1.51-3-2.88-4-.48-1.1.11-1.61,1.08-1.9l2.64-2.09Z"/><path class="cls-18" d="M126.37,219.88l2.86-4.14c1.2,1.58.93,3.38.73,5.17a19.51,19.51,0,0,0-1.57,1.71c-.46.61-.81,1.66-1.65,1.21-.46-.24-.45-1.39-.65-2.13A1.26,1.26,0,0,1,126.37,219.88Z"/><path class="cls-3" d="M298.86,125.94c10,2,20.09,3.91,30.08,6.15,5.72,1.28,11,3.7,14.87,8.4,3.38,4.08,2.56,6.44-2.64,7.46-23.83,4.66-42.5-3.75-57.06-22.54l-3.33-4.32L278.07,117C285.3,120.81,291.71,124.29,298.86,125.94Z"/><path class="cls-3" d="M199.2,71.24c-14.8,16.5-20.84,36.45-23.15,58a214.66,214.66,0,0,0-.27,37.4c-4.23-6.79-5.49-13.8-6.5-20.73-3.27-22.53.57-44.16,9.14-65.07a37,37,0,0,1,9.66-13.67c.55-.35,1.09-.73,1.67-1.06C196.65,62.18,199.91,65.24,199.2,71.24Z"/><path class="cls-19" d="M188.23,190.9c.2-9.78-2-19.47-1.07-29.27.19-1.9-.53-4,1.35-6.19.59,2.55,1.19,4.65,1.55,6.8,1.43,8.27,5.76,15.11,10.67,21.64a12.94,12.94,0,0,0,7.07,4.4,6.7,6.7,0,0,0,7.25-2,6.4,6.4,0,0,0,1.34-6.92c-1.76-5-4.54-9.54-5.44-14.91-1.58-9.44-.78-18.88-.79-28.33,2.55-.84,1.68,1.22,1.81,2.25.48,3.54-.8,7.24,1,10.66,2.08,23.41,9.37,44.74,25.07,62.7-4.56-.67-9.09-1.66-13.76-1a1.9,1.9,0,0,1-2.27-1.94,2.28,2.28,0,0,1,2.68-1c-5.94-2.62-9.78-9.06-16.63-10.88a15.44,15.44,0,0,1-11.4-4.19A7.65,7.65,0,0,0,188.23,190.9Z"/><path class="cls-3" d="M385.59,32.25c-.24-.9-1.69-1.66-.91-2.56s2.19-.46,3.27-.13c8.57,2.68,16.59,6.34,23.13,12.74,1.4,1.37,2.92,2.64,4.38,4,5.2,3.86,8.35,9.31,11.37,14.83,1.05,1.93,1.63,4.24-.14,6s-3.77.76-5.61,0c-7.95-3.07-14.16-8.65-20-14.6-4.74-4.87-9.1-10.13-13.4-15.41C386.55,35.72,385.48,34.25,385.59,32.25Z"/><path class="cls-3" d="M351.68,57.09c-2.85-5.49-8-9.23-11.13-14.47-.54-.9-2.11-1.58-.94-2.87.74-.81,1.89-.44,2.82-.08,13.09,5,26.14,10,33.23,23.52.53.83.95,1.73,1.47,2.57a4.78,4.78,0,0,1-.25,5.57c-1.35,2-3.33,1.92-5.34,1.35a22.69,22.69,0,0,1-8.41-4A70.68,70.68,0,0,1,351.68,57.09Z"/><path class="cls-20" d="M361.67,123a16.23,16.23,0,0,1,6.18,4.85c1,1.29,2.13,2.69.92,4.46-1,1.49-2.48,1-4,1-15.66.1-29.32-5.54-41.9-14.38,4.1-1.93,8.5-1.15,12.63-.73C344.32,119.13,353.22,119.92,361.67,123Z"/><path class="cls-21" d="M385.59,32.25c4.66,5.34,9.31,10.69,14,16C406,55.49,413,62,422,65.81c1.18.51,2.77,1.85,4,.37.94-1.09.08-2.49-.3-3.75-1.89-6.38-6.16-11.22-10.27-16.18,2-.85,2.64,1.06,3.44,2,6.2,7.38,12,15.06,16,23.89.63,1.38,2.37,3,.6,4.43-1.49,1.19-3.5.66-5.23-.07a75,75,0,0,1-18.47-11.64c-9.1-7.51-17.73-15.58-24.81-25C385.74,38.13,379.86,35.82,385.59,32.25Z"/><path class="cls-22" d="M233.93,186.88c1.34,4.93,4.75,8.68,7.34,12.9,1,1.66,2.74,3.62,1,5.35s-4.18.49-5.89-.79a28.06,28.06,0,0,1-9.12-11C221,179.15,217.77,164.1,215,148.94c.07-1.26.13-2.51.19-3.77,4.78,12.72,9.29,25.42,15.62,37.37C231.68,184.12,232.17,186,233.93,186.88Z"/><path class="cls-22" d="M287.83,154.94l6.67,5.58c-7.61,1.25-13.77-1-19.33-4.91-3.65-2.56-6.84-5.77-10.23-8.69-3.31-6-7.89-11.35-10.49-17.83-.91-2.26-2.16-4.39-2.35-8.18C263.83,133.42,274.58,145.54,287.83,154.94Z"/><path class="cls-5" d="M506.33,75.86V92.55c-9.92-8-22.34-9.94-34.22-13.64A72.33,72.33,0,0,1,506.33,75.86Z"/><path class="cls-22" d="M506.33,98.11a3,3,0,0,1-2.8,2.92c-12.18,1.62-22.63-2.27-31.81-10.09-1.05-.9-.85-1.65.6-1.88C484.53,88.82,496.12,90.87,506.33,98.11Z"/><path class="cls-5" d="M355.71,10.27c3.09.55,6.15,1.21,9.25,1.62,8,1,15.74.59,22.51-4.56a22.84,22.84,0,0,1,11,6.34c1.66,1.74,1.6,2.92-.77,3.37-8.33,1.56-16.74,2.41-25,.07-5.89-1.65-11.63-3.83-17.43-5.78-.16-.05-.4-.11-.43-.21C354.64,10.37,355.29,10.42,355.71,10.27Z"/><path class="cls-5" d="M351.68,57.09c5.76,4.8,10.2,11.42,18.18,13.19,1.84.41,3.7,2.42,5.47.91s1.16-3.92.52-6a9.11,9.11,0,0,1-.19-2,36,36,0,0,1,13,18.19c.31.92,1.09,1.89.4,2.77-1,1.23-2.17.19-3.17-.1A52.28,52.28,0,0,1,364.8,71.59C360.08,67.16,354.45,63.35,351.68,57.09Z"/><path class="cls-23" d="M247.87,172.94c1.15,2.87,3.5,4.79,5.5,7,.53.6,1.35,1.22.95,2.12-.51,1.13-1.71,1-2.61.77-2.67-.64-4.7-2.41-6.54-4.32-7.28-7.57-12-16.61-15.26-26.52-.21-1.6-.41-3.2-.75-5.82C235.22,156,239.63,165.85,247.87,172.94Z"/><path class="cls-24" d="M269.89,161.92c4.17,5.79,10.76,8.61,16.24,13-6.84,1.93-14.86-3.63-26.24-18-.45-2.94-3.28-4.85-3.56-8.7C261.13,153.12,264.58,158.48,269.89,161.92Z"/><path class="cls-2" d="M495.79,268.73c-8.24-7.45-16.87-14.4-28.46-16a3.32,3.32,0,0,0,.42,1.71h0c.79,1.35,2.53,1.69,3.91,2.3a60.31,60.31,0,0,1,15.49,9.79c3.54,3.09,6.58,6.61,7.78,11.28.65,2.53,1.73,5.95-.89,7.31s-3.24-2.48-4.88-3.88a7.61,7.61,0,0,1-.91-1.17c-5.87-7.4-11.8-14.75-19.28-20.64-1.25-1-2.37-2.52-4-2.38a3.45,3.45,0,0,0-1.51.55,10.53,10.53,0,0,0,1.46,2c12.4,10.59,19.39,24.63,25.2,39.43,1.36,3.46,2.82,6.88,4.33,10.53-2.16.08-2.74-1.43-3.93-1.94-1.37-.58-2.78-1.62-4.2-.62-1.57,1.1-.52,2.66-.31,4.1.73,4.91,1.92,9.73,2.74,14.63,3,18.14,3.88,36.48,5.52,54.75.11,1.24.77,2.92-1.18,4.13-4.38-8.94-5.66-18.48-7.79-27.81-5.37-23.56-12.52-46.45-27-66.33a68.27,68.27,0,0,0-6.09-6.55c-.71-.74-1.62-1.39-2.62-.67-1.26.91-.85,2,0,3l1.89,2.28a1.56,1.56,0,0,1,1.21-.12,2.07,2.07,0,0,1,1,.95,3.68,3.68,0,0,0-.92-.52,4.58,4.58,0,0,0-1.33-.29c1.55,7.44,4.33,14.59,5,22.24,1.26,15.57,1,31.16.94,46.75,0,1.25.77,2.9-.91,3.92-8.2-14.35-8.07-30.94-13.44-46.72a24.4,24.4,0,0,0-1.42,2.81,165.07,165.07,0,0,1-17.8,38.23c-6.06,9.7-11.91,19.89-21.46,26.43-12.16,8.34-26.29,11.3-41,11-3.68-.07-5.39,1-6.84,4.61-5,12.48-10.12,25-19,35.36-3.89,4.54-5.63,9.54-6.81,15.05-2.31,10.84-4.15,21.75-9.34,31.82-4.61,8.92-9.47,17.69-14.68,26.27H435.14c2.14-2.22,3.52-5,5-7.69,6.25-11.56,9.61-24,11.65-37.66.88,6.34,1.33,12,1.67,17.6.54,8.75-.77,17.23-5.18,25a6.61,6.61,0,0,0-1.06,2.72h6.59c3-3.95,2.75-8.86,3.61-12.43.47,3.49,0,8.16,2.09,12.43h46.84V377.76c-.7-.48-1.46-.89-2.18-1.34a7.64,7.64,0,0,1-3.92-6.52c-.13-4.31-.86-8.55-1.23-12.84-1.26-14.76-3.26-29.4-7.82-43.09a159.64,159.64,0,0,1,13.24,18.64,6.67,6.67,0,0,0,1.91,2.43V279.65C502.88,275.94,499.54,272.12,495.79,268.73Zm-32.15,36.5c4.91,9.1,9.46,18.32,11.66,28.51.48,2.21.58,4.36-1.62,5.8a5.81,5.81,0,0,1-6.59-.16,10,10,0,0,1-4.77-8.32c-.22-3.83-.83-7.6-1.24-11.4a117.69,117.69,0,0,0-5.18-25.34c-.24-.72-.42-1.55-.67-2.35C458,296.44,461.14,300.61,463.64,305.23Z"/><path class="cls-3" d="M506.33,332.44v46.65c-4.8-1-7.68-3.83-8-8.28C496.87,350,495,329.25,488.19,309.2c-.08-.25-.16-.49-.25-.74.2.19.41.38.61.59C495.74,315.93,501.25,324,506.33,332.44Z"/><path class="cls-3" d="M453.52,496a36.67,36.67,0,0,1-5,10.36H433.61a1.9,1.9,0,0,1,.31-.9,86.54,86.54,0,0,0,11.37-23.69,153.75,153.75,0,0,0,5.44-25.86c3.16,1.69,2.77,4.7,3,7.09C455,474,456.76,484.94,453.52,496Z"/><path class="cls-25" d="M460.37,506.33h-7.58l4.47-18.3C458.6,494.19,460.28,500.15,460.37,506.33Z"/><path class="cls-26" d="M382.33,334.86c-17.58,2.21-25.95-2-34.95-17.22-12.95-21.83-9.06-43.95,1.9-65,9-17.21,18.6-33.94,25.88-52.06,5.23-13,14.09-23.44,30-25.23,10.1-1.14,17.44,3,23.8,9.75,7.26,7.68,11.15,17.15,13,27.53.68,4-1.53,5.67-4.8,6-4.16.48-7.89-.71-10.42-4.46-2.69-4-5.06-8.26-8.25-11.81-10-11.12-26.35-9.59-35.61,3.06-3.88,5.3-6.26,11.32-8.05,17.57s-3.48,12.8-5.26,19.19a22.9,22.9,0,0,1-3.76,7c-7.92,11.17-14.46,22.93-17.42,36.57-5,23.17,12.69,44.07,30.56,48A36.11,36.11,0,0,1,382.33,334.86Z"/><path class="cls-27" d="M247.88,213.7c3.89-3.08,2.73-6.68,1-10.25-3-6-5.86-12.11-7.52-18.77,3.29,3.32,6.46,6.62,10.63,8.7,3.54,1.76,7,2.74,9.24-1.88.74-1.51,1.82-1.68,3.29-1.05a15.54,15.54,0,0,0,3.31,1.05c3.59.65,7.2.67,9.18-3s-.23-6.53-2.85-8.65c-4.15-3.33-7.68-7-9.63-12.1,5.88,5.1,11.75,10.06,19.19,12.84,1.32.5,2,2.9,2.84,4.5,4.93,9.66,10.22,19,19.46,25.38,4.57,3.14,9.29,5.25,14.7,1.86,1.35-.84,2.55-.16,3.75.41a41.15,41.15,0,0,0,9.07,2.54c6.52,1.39,11.71-.83,16.08-5.54,2.76,4.23-1.18,6.24-3,9-18,10.9-30.81,7.13-47.93-6.56-2.32-1.86-4.59-3.81-6.8-5.79a4.45,4.45,0,0,0-4-1.35,62.19,62.19,0,0,1-29.4-1.95c-2.39-.71-3.64-.58-3.6,2.48C254.91,210.09,252.52,212.94,247.88,213.7Z"/><path class="cls-28" d="M193,259.75c-3-14.94-1.67-29.54,3.19-43.94,1.42-4.22,3.64-5.79,8.15-4.51,4.34,1.23,8.92.59,13.38.45,3.47-.11,3.76,1,2.89,4-2.5,8.8-6.7,16.92-10,25.41a81.58,81.58,0,0,0-5,17.12c-.57,3.79-2.32,5.19-6.09,3.63-2.13-.88-4.39-1.49-6.59-2.22Z"/><path class="cls-28" d="M301.85,288.38A25.16,25.16,0,0,1,294,305.53c-7.09,6.74-10.72,15.42-15,23.79q-2.61,5.07-5.42,10.05c-.88,1.57-1.87,3.49-4.12,2.82s-2.28-2.91-2.51-4.92c-.52-4.52.88-8.86,1.1-13.32.68-13.51,6-25.32,14.21-35.82,3.58-4.55,8.91-6.35,14.48-6.34C300.41,281.79,301.93,284.73,301.85,288.38Z"/><path class="cls-1" d="M211,369.44c-.45,8.55-6,13.86-12,18.86-1.56,4-4.82,5.45-8.8,5.81-13.64,7.1-26.92,5.32-40-1.64-3.49,1-4.56-1.78-6-3.94a33,33,0,0,1-6.9-7.1c1.33-1.59,3.12-1.69,5-1.52,21.48,1.92,42.23-.81,62.08-9.55C206.44,369.45,208.56,368.22,211,369.44Z"/><path class="cls-9" d="M211,369.44c-22.55,11.06-46.23,15.37-71.21,12a17,17,0,0,0-2.47,0c-3-3.64-6-7.25-7-12,2.1-2.19,4.71-1.19,7-.9,19.2,2.4,37.91.73,56.12-6.08,4.82-1.81,9.31-4.28,14-6.3,2.1-.9,4.51-2.75,6.49.37C212.63,360.74,213.18,365.41,211,369.44Z"/><path class="cls-28" d="M346.61,218.68c.82-3.05,3.05-5.62,3-9,3.52-8.21,5.26-17,8.76-25.26,8.32-19.64,27-32.27,48.3-32.13a42.61,42.61,0,0,1,4.89.58c1.83,1.68,3.67,3.33,5.46,5,1.47,1.39,2,3,.87,4.9-1,1.68-2.48,1.6-4.32,1.31-10.75-1.71-21.07-.52-30.38,5.54-7.56,4.92-12.29,12.36-16.87,19.88-5.59,9.18-11.15,18.38-16.86,27.48C348.94,217.81,348.73,220.28,346.61,218.68Z"/><path class="cls-29" d="M214,356.5c-2-1.35-3.51.17-5,1-20.29,11.11-42.07,15.25-65,13.81-4.58-.28-9.12-1.24-13.68-1.88-1.8-2.77-3.93-5.44-3-9.11,6.08.66,12.16,1.77,18.25,1.91a116,116,0,0,0,63.09-16.48c1.42-.84,2.9-1.6,4.36-2.39a21.9,21.9,0,0,1,1.1,7.27c1.22,1.86,1.88,3.73,0,5.61Z"/><path class="cls-26" d="M268.15,352.61A137,137,0,0,1,241,393.86c-.07-1.84,1.18-3,2.14-4.35,6.24-8.8,12.41-17.65,16.61-27.67a18.77,18.77,0,0,0,1.89-8.65c-.06-.8-.57-2.09.32-2.22,5-.73,3.33-4.29,2.84-8.52,3,4,6.27,4.83,10,5.27,6.26.76,12.28,2.76,18.21,4.91,6.76,2.43,9.79,1.42,13.24-5.12,4.77-9,7.09-18.84,8.65-28.91,1.22-7.89.67-15.82,1.1-24.89,3.36,5.26,4.65,10.13,5.84,15a106.92,106.92,0,0,1-8.23,40.08c-2.63,6.49-7.08,11.55-14.65,12.62-2.61.59-4.86-.43-7-1.61-5.36-2.92-11.28-4.46-16.8-7C273,351.88,270.5,350.81,268.15,352.61Z"/><path class="cls-28" d="M270.13,274.28c-1.56,3.26-4.83,3.46-7.58,3.87-14.39,2.15-23.64-1-28-15.28a28.52,28.52,0,0,1-.28-13.31c.74-4,2.8-7.56,7.67-7.83,5.1-.28,7.33,3.16,8.79,7.26.78,2.17,1.07,4.51,1.73,6.72C256.12,267.81,258.42,270.23,270.13,274.28Z"/><path class="cls-30" d="M266.05,255.47c-5.47-12.87-.92-24.28,11-27.19,8.14-2,14.45,1.36,19.58,7.51,6.21,9.7,4.62,20.69-4.6,25.89C283.61,266.45,271.38,267.36,266.05,255.47Z"/><path class="cls-28" d="M87.22,161.9c5.7.08,19.11,9.15,20.78,13.77.79,2.19-2.71,12.94-4.58,14.32a1.91,1.91,0,0,1-2.65-.24c-5.55-4.67-11.64-8.72-16.33-14.36-2.3-2.76-3.57-5.55-2.41-9.51C83,162.56,84.59,161.56,87.22,161.9Z"/><path class="cls-28" d="M126.37,219.88c-.09.61-.19,1.21-.28,1.82-2.88,2.21-3.51,6.39-7.45,8.36A81.48,81.48,0,0,0,115,211.17a42.33,42.33,0,0,0-7.8-14.83c-1.63-1.91-1.88-3.27.06-5a14.65,14.65,0,0,0,2.15-2.71c1.27-1.83,2-5.19,4.14-4.87,1.53.23,2.81,3.38,3.86,5.4A88.2,88.2,0,0,1,126.37,219.88Z"/><path class="cls-26" d="M321.91,244.09a34.1,34.1,0,0,1-7.55,18.42,5.9,5.9,0,0,1-8,1.48c-3-1.87-1.13-4.48.1-6.91,2.71-5.35,2.31-11.21,2.37-17,0-3.52-.94-7.7,4.46-8.4,4.42-.58,6.61,1.49,7.83,7.41C321.44,240.86,321.67,242.65,321.91,244.09Z"/><path class="cls-28" d="M127.33,275.7l-1.08,1.9c-2.11.9-3,3.5-6,4.23.34-15.89-.12-31.51-1-47.11h0c3.25-1.48,4-5.58,8.06-7.6Z"/><path class="cls-31" d="M30.45,262.73c8.4,33.35,26,60.4,54.87,79.62.13,2.71,1.47,5.27,1,8.06-24.1-16.52-40.65-38.81-50.83-66.05a137.88,137.88,0,0,1-5.45-17.5C29.73,265.41,29.07,264,30.45,262.73Z"/><path class="cls-32" d="M266.05,255.47c4.54,5.24,10,8.77,17.21,7.82,11.85-1.53,18.64-13,14.55-24.25-.4-1.08-.76-2.16-1.14-3.25,4.89,4.48,6.86,13.55,4.25,19.62-2.8,6.54-10.2,10.63-18.41,10,4.32,3.76,9.6,4.48,15,5.89C283.56,275.94,269.44,268.86,266.05,255.47Z"/><path class="cls-28" d="M197.08,398.27c1.43,1,2.87,2.07,4.82,3.47-10.52,5.7-21.06,9.08-32.63,8.43-2.59-.15-5.17-1.11-5-4.38.2-3.83,3.48-2.69,5.36-2.41,6.51,1,12.81,1.07,19.06-1.41a29.25,29.25,0,0,0,7.49-3.82A.66.66,0,0,1,197.08,398.27Z"/><path class="cls-28" d="M219.63,383.11c-.08,5.35-8.79,15.62-13.95,16.68-1.9.4-2.6-1.13-3.6-2.14s-.76-2.13.22-3a57,57,0,0,0,12.08-15c.55-1,1.73-2.43,3.23-1.63C219.69,379.07,218.91,381.52,219.63,383.11Z"/><path class="cls-33" d="M208.06,196.87c3.62-.92,6.37-.28,9,2.94s6.36,5.65,9.9,8.66l-4.94.32c-5-.69-10-1.27-15-2.09-5.46-.9-5.94-2.18-2.49-6.51A30.6,30.6,0,0,1,208.06,196.87Z"/><path class="cls-33" d="M120.48,287.69l5.69-2.89c-.47,4.58-.75,8.52-1.33,12.42a72,72,0,0,1-1.94,8.68c-.33,1.16-.65,3-2.28,2.74s-1.49-2.13-1.19-3.36c1.4-5.56.67-11.18.76-16.79C119.94,288.1,120.05,287.83,120.48,287.69Z"/><path class="cls-33" d="M204.05,268.63v16.7a41.42,41.42,0,0,1-7.6-14.21c-.56-1.78.58-2.38,2.14-2.42,1.82,0,3.64-.05,5.46-.07Z"/><path class="cls-34" d="M204.05,268.63c-.37-3.88,1.39-5.18,5.23-5.09,5.22.13,10.49.79,15.75-.4-6.26,4.69-13.38,6-21,5.49Z"/><path class="cls-34" d="M144.19,388.53l6,3.94c-2.28,4.27-2.29,9.11-3.46,14.23C142.85,400.68,144.67,394.44,144.19,388.53Z"/><path class="cls-35" d="M197.08,398.27l-.9-.12a15,15,0,0,0-6-4l8.8-5.81C198.07,391.57,202.41,395.84,197.08,398.27Z"/><path class="cls-34" d="M214.14,356.22c0-1.87,0-3.74,0-5.61,3.48,1.5,7.22,1.77,12.12,2.16C221.76,355.36,218.2,356.65,214.14,356.22Z"/><path class="cls-36" d="M120.48,287.69c-.1.26-.2.53-.29.8-4.16,1.44-8.1,3.61-13.72,4.09,4.14-2.69,7.48-4.65,10.59-6.93S120.48,285.1,120.48,287.69Z"/><path class="cls-37" d="M119.27,234.72c-3.64,2.77-7.17,5.75-12.15,6.37,3.83-2.22,6.55-5.64,9.9-8.3,2.32-1.86,2.11.54,2.25,1.93Z"/><path class="cls-38" d="M268.15,352.61c.82-2.88,3-1.47,4.53-1.22,9.41,1.54,18,5.42,26.21,10.05-2.83,4.78-3.58,10.52-7,15.05-1.26-3.75-.94-7.92-3-11.47-.5-.84-.67-2-1.85-2.06s-1.26,1.35-1.64,2.18c-6.57,14.2-14.28,27.63-24.42,39.69-20.07,23.87-44.8,40.35-75.33,47.13-39.87,8.85-76.36.55-108.9-24-33.85-25.54-52.26-60.44-60-101.53-.3-1.61-.68-3.3.6-4.74C21.55,348.7,32,373,49.21,394.21c20.35,25.06,46.11,41.84,78.05,48.1,40.55,7.94,76.58-2.35,108.36-28.23,17.31-14.09,29.95-31.82,39.26-52C278.41,354.41,277,352.42,268.15,352.61Z"/><path class="cls-3" d="M322.85,450.77c-4.22,12.65-8.76,25-15.49,36.38-2.42,4.08-6.38,5.56-10.87,5.85-2.76.17-5.72-.41-7-2.8a7.53,7.53,0,0,1,.9-8.4c4.89-6.31,10.83-11.61,16.56-17.1C312,459.82,317.52,455.39,322.85,450.77Z"/><path class="cls-3" d="M332.16,401.25c-4,13.26-7.39,25.41-15.71,35.3-3.91,4.64-8.93,7.56-15.32,6.43-2.13-.38-5.14-1-2.88-4.5,8.64-13.3,18.55-25.49,31-35.47A31.52,31.52,0,0,1,332.16,401.25Z"/><path class="cls-20" d="M467.33,252.74c6.64,3.34,13.57,6.18,19.33,11.07s10.83,10.38,10.63,18.75c-.06,2.25-.46,4.64-2.64,5.53-2.72,1.1-3.56-1.6-4.82-3.25-6.93-9.1-14.17-17.92-23-25.27-1-.86-1.94-1.84-3.38-2L458.57,252Z"/><path class="cls-20" d="M311.64,176.15a70,70,0,0,1,19.47,5.93c4.68,2.15,9.37,12,8.3,17-.76,3.5-2.85,3.48-5.57,2.28C322.83,196.47,316.63,187.43,311.64,176.15Z"/><path class="cls-20" d="M488.92,138.83c-19.93-3.34-25.79-21.64-38-32.66C463.09,108.17,485.5,124.5,488.92,138.83Z"/><path class="cls-39" d="M254,159.2c6.63,5.42,12.77,14.51,13.56,19.65C262,177.35,259.4,173.7,254,159.2Z"/><path class="cls-3" d="M159.81,73.31c-3.05,12-5.78,23.85-4.31,37.81,5.84-14.94,11.85-28.34,20.87-40.15-2.84,8.54-6.23,16.85-9,25.41-7.46,23.36-6.35,46.64,0,70,.46,1.71,1.94,3.92.52,5.06-1.74,1.39-3.73-.5-5.3-1.6-9.38-6.55-13.32-16.51-15.23-27-3.73-20.58-.53-40.55,7.44-59.8C156.2,79.65,157.17,76.1,159.81,73.31Z"/><path class="cls-23" d="M193.47,122.42c1.3,18.32,3.5,36.52,8.94,54.2.29.94.93,2-.12,2.69s-1.88-.26-2.71-.77a8.14,8.14,0,0,1-3.12-3.79C188.74,157.73,188.29,140.26,193.47,122.42Z"/><path class="cls-40" d="M62.34,200.92c-4.33-10.4-5.89-21.12-3.49-32.24.4-1.84,1.49-3.5,3.65-3.48s2.77,2,3.54,3.62-.2,3.68,1.08,5.22c1.6,7,3.69,13.92,5.56,20.87a8.37,8.37,0,0,1-.4,5.86C70.28,205,66.37,205,62.34,200.92Z"/><path class="cls-41" d="M44.64,193.64c-.18-7.13-.22-14.26,2.45-21,.68-1.74,1.22-4.44,3.7-3.92,2.25.47,1.44,3,1.5,4.72.16,4.46.22,8.93.32,13.4a37,37,0,0,0,2,9.65,19.86,19.86,0,0,1,1,5.36c.12,2.38-.95,4.28-3.35,4.9-2.61.68-4.53-.48-5.64-2.89C45.21,200.6,45.23,197.05,44.64,193.64Z"/><path class="cls-42" d="M62.34,200.92c2.47,1.06,4.85,3.49,7.66,1,2.53-2.27,1.69-5.21,1-7.92-1.72-6.56-4-13-3.86-19.94,3,7.92,6.42,15.74,7.3,24.3.36,3.49,0,7.24-3.94,8.08S63.61,204.9,62.34,200.92Z"/><path class="cls-43" d="M44.64,193.64c.89,2.8,1.76,5.61,2.7,8.39.7,2.09,1.62,4.38,4.35,3.68,2.51-.65,2.81-3.12,2.58-5.27-.35-3.25-1.12-6.47-1.59-9.71a30.27,30.27,0,0,1-.07-3.93c1.51,4.85,3.09,9.67,4.48,14.55,1,3.58.28,6.6-3.67,7.94s-6-1.3-7.45-4.07C44,201.64,44.17,197.61,44.64,193.64Z"/><path class="cls-3" d="M342.7,479.07c-3.24,1.1-6.13,3.1-9.82,3.06-3.39,0-4.43-.87-3.27-4.37a86,86,0,0,1,9.49-19.56c6.12-9.52,11.92-19.25,18.25-28.73-.89,17.26-.66,34.77-13.62,48.62A1.14,1.14,0,0,1,342.7,479.07Z"/><path class="cls-3" d="M457.54,388c3.93,4,6.54,9,8.67,14.12,4.88,11.76,10.51,23.35,11.63,36.29.47,5.45,0,10.9-4.36,15.13a4.65,4.65,0,0,1-5.45,1.2c-2.27-1-.73-2.86-.73-4.37-.05-9-1.71-17.75-3.55-26.49q-3.72-17.67-7.52-35.31Z"/><path class="cls-3" d="M451.46,288.53c.51-4.91,2.39-1,3-.26,3.72,5.27,7.57,10.5,10.75,16.11a114.54,114.54,0,0,1,12,28.86c.83,3.35.95,6.2-2.39,8.15a8,8,0,0,1-9.32-.64c-3.36-2.51-4.83-6-5.12-10.31-.88-12.73-2.53-25.35-6.67-37.51-.54-1.57-.87-3.22-2.21-4.38Z"/><path class="cls-5" d="M342.7,479.07l1-1c4.38-1.4,6.5-5.47,9.64-8.3,1.43-1.29,2.28-3.23,4.21-4.28.82,6.76-1.47,12.48-4.67,17.31a41.19,41.19,0,0,1-12.45,12c-3.72,2.32-7.47,3.1-11.66.71-4.56-2.6-6.68-6.16-6.06-11.41.3-2.52.2-4.35,3.67-2.11C332.17,485.72,338.07,484.4,342.7,479.07Z"/><path class="cls-20" d="M375.44,397.46a169.28,169.28,0,0,1,6.21,43.88c.05,4.21-2.57,6.43-5.45,8.25-3.16,2-6.31-.4-6.57-4.61-.58-9.65,1.1-19.13,2.48-28.61C373,410,374.31,403.76,375.44,397.46Z"/><path class="cls-20" d="M422.32,394c2.29,5.13,2.76,10.61,3.62,16,1.62,10.12,2,20.36,2.41,30.57.28,7.33-6.75,13.73-12.87,12.44-2.73-.58-4.44-1.56-2.55-5.13,5.33-10.09,7-21.26,8.58-32.4A95.38,95.38,0,0,0,422.32,394Z"/><path class="cls-5" d="M431.89,450.14c.37,10.6-4.18,19.26-10.29,27.24-1.8,2.34-4.26,4.18-6.26,6.39-2.37,2.63-4,2.39-5.39-.9a77.32,77.32,0,0,1-4.25-14.23c-.4-1.92-.42-3.82,2.79-2.33,4.69,2.18,8.69.11,12.24-3A62.64,62.64,0,0,0,431.89,450.14Z"/><path class="cls-5" d="M485.15,430.76c1.7,1.51,1.09,3.09,1.14,4.47.57,16.62-2.94,32.56-8.24,48.17-.39,1.13-.29,3.06-2,3-1.49,0-2-1.7-2.33-2.92-1.7-5.54-3.3-11.12-4.9-16.69-.37-1.25-.43-2.41,1.47-2.17,4.88.61,6.51-3.31,8.42-6.4a38.19,38.19,0,0,0,5.68-21.81C484.32,434.67,483.9,432.79,485.15,430.76Z"/><path class="cls-5" d="M392,440.73c.14,7.64,1.59,15.46-.57,23.13A24.46,24.46,0,0,1,386,474.33c-2.82,3-5.08,3.28-7.65-.05s-5.18-6.47-6.79-10.37c-.51-1.24-1.19-2.47-.16-3.72s2.35-.95,3.64-.42l.47.17c9.28,2.73,10.95,1.87,13.83-7.67C390.44,448.49,391.11,444.58,392,440.73Z"/><path class="cls-44" d="M289,237.73c1.28,3.49,3.05,6.89,3.74,10.49,1.15,6.05-2.6,11.88-7.85,13.21a12.06,12.06,0,0,1-13.94-6.78c-2.33-5.26-.21-10.66,5.58-14.22.43-.26.87-.48,1.31-.73a1.46,1.46,0,0,1,.48.1C284.57,243.14,284.57,243.14,289,237.73Z"/><path class="cls-45" d="M289,237.73c0,2.61.65,5.56-3,6.28s-6.9-.07-8.12-4.31C280,233.37,284.22,232.63,289,237.73Z"/></g></g></svg>
