<svg xmlns="http://www.w3.org/2000/svg" viewBox="0 0 466.05 465.95" width="100" height="100"><defs><style>.cls-1{fill:#00a672;}.cls-2{fill:#09463f;}.cls-3{fill:#052927;}.cls-4{fill:#016b45;}.cls-5{fill:#01a672;}.cls-6{fill:#052926;}.cls-7{fill:#02cba3;}.cls-8{fill:#03cba3;}.cls-9{fill:#01c195;}.cls-10{fill:#01c296;}.cls-11{fill:#01c297;}.cls-12{fill:#026b45;}.cls-13{fill:#058158;}.cls-14{fill:#058157;}.cls-15{fill:#058057;}.cls-16{fill:#058058;}.cls-17{fill:#07c6a1;}.cls-18{fill:#043f38;}.cls-19{fill:#09433d;}.cls-20{fill:#036843;}.cls-21{fill:#033026;}.cls-22{fill:#08453d;}.cls-23{fill:#03c194;}.cls-24{fill:#058257;}.cls-25{fill:#016944;}.cls-26{fill:#058359;}.cls-27{fill:#052826;}.cls-28{fill:#008667;}.cls-29{fill:#016843;}.cls-30{fill:#69fba9;}.cls-31{fill:#07895f;}.cls-32{fill:#01a66a;}.cls-33{fill:#026844;}.cls-34{fill:#044d34;}.cls-35{fill:#06835a;}.cls-36{fill:#ae240c;}.cls-37{fill:#af220d;}.cls-38{fill:#c9518f;}.cls-39{fill:#078f67;}.cls-40{fill:#036a45;}.cls-41{fill:#058258;}.cls-42{fill:#044e35;}.cls-43{fill:#14de8f;}.cls-44{fill:#67fda8;}.cls-45{fill:#016a45;}.cls-46{fill:#68fca9;}.cls-47{fill:#026a44;}.cls-48{fill:#042926;}.cls-49{fill:#09453e;}.cls-50{fill:#03c295;}.cls-51{fill:#02a569;}.cls-52{fill:#062b26;}.cls-53{fill:#077e57;}.cls-54{fill:#028566;}.cls-55{fill:#044e34;}.cls-56{fill:#6afbaa;}.cls-57{fill:#044d35;}.cls-58{fill:#068158;}.cls-59{fill:#049166;}.cls-60{fill:#f872b9;}.cls-61{fill:#c2528d;}.cls-62{fill:#bce0e9;}.cls-63{fill:#ae211b;}.cls-64{fill:#f873bc;}.cls-65{fill:#c95491;}.cls-66{fill:#bde3e7;}.cls-67{fill:#f9faf9;}.cls-68{fill:#e578b6;}.cls-69{fill:#00a66a;}.cls-70{fill:#03a66a;}.cls-71{fill:#02c296;}.cls-72{fill:#02c295;}.cls-73{fill:#046844;}.cls-74{fill:#04c194;}.cls-75{fill:#66fcaa;}.cls-76{fill:#65fcaa;}.cls-77{fill:#63f9ad;}.cls-78{fill:#5afaae;}.cls-79{fill:#58f7b0;}.cls-80{fill:#058056;}.cls-81{fill:#67fea7;}.cls-82{fill:#741503;}.cls-83{fill:#028667;}.cls-84{fill:#028767;}.cls-85{fill:#b0260b;}.cls-86{fill:#b0260c;}.cls-87{fill:#018667;}.cls-88{fill:#751503;}.cls-89{fill:#fa72bb;}.cls-90{fill:#751303;}.cls-91{fill:#038464;}.cls-92{fill:#028565;}.cls-93{fill:#038564;}.cls-94{fill:#038465;}.cls-95{fill:#711606;}.cls-96{fill:#028464;}.cls-97{fill:#67fca8;}.cls-98{fill:#f03a15;}.cls-99{fill:#ad270e;}.cls-100{fill:#b1230c;}.cls-101{fill:#af240c;}.cls-102{fill:#038665;}.cls-103{fill:#f03b15;}.cls-104{fill:#b0250e;}.cls-105{fill:#038463;}.cls-106{fill:#fafbfb;}.cls-107{fill:#f672b7;}.cls-108{fill:#f972b9;}.cls-109{fill:#d13818;}.cls-110{fill:#f773ba;}.cls-111{fill:#d23a18;}.cls-112{fill:#d1391a;}.cls-113{fill:#f674ba;}.cls-114{fill:#f9fafa;}.cls-115{fill:#fafafa;}.cls-116{fill:#f9f9fa;}.cls-117{fill:#f8f9fa;}.cls-118{fill:#f8f9fb;}.cls-119{fill:#b9dee9;}.cls-120{fill:#c65390;}.cls-121{fill:#f972bb;}.cls-122{fill:#ea7ab8;}.cls-123{fill:#c8528f;}.cls-124{fill:#b7dce6;}.cls-125{fill:#c95290;}.cls-126{fill:#c4518d;}.cls-127{fill:#b9e1e9;}.cls-128{fill:#b6dfe7;}.cls-129{fill:#b3dee4;}.cls-130{fill:#b8dfe9;}.cls-131{fill:#b1dce2;}.cls-132{fill:#b7e0e8;}.cls-133{fill:#038863;}.cls-134{fill:#038563;}.cls-135{fill:#038662;}.cls-136{fill:#048462;}.cls-137{fill:#46ba80;}.cls-138{fill:#37c583;}.cls-139{fill:#ad230c;}.cls-140{fill:#751403;}.cls-141{fill:#06895f;}.cls-142{fill:#04855a;}.cls-143{fill:#fbfbfc;}.cls-144{fill:#fafafc;}.cls-145{fill:#b4d3e0;}.cls-146{fill:#f9f8fa;}.cls-147{fill:#c5508c;}.cls-148{fill:#b9dee8;}.cls-149{fill:#f774bc;}.cls-150{fill:#962115;}.cls-151{fill:#030202;}.cls-152{fill:#1e1e1e;}.cls-153{fill:#c95390;}.cls-154{fill:#fbfbfb;}.cls-155{fill:#b4dde7;}.cls-156{fill:#f9f9fb;}.cls-157{fill:#c7518e;}.cls-158{fill:#bce0ea;}.cls-159{fill:#b75882;}.cls-160{fill:#050304;}.cls-161{fill:#c3518d;}.cls-162{fill:#f875bc;}.cls-163{fill:#030404;}.cls-164{fill:#b5e1e8;}.cls-165{fill:#9e1b11;}.cls-166{fill:#b7dfe8;}.cls-167{fill:#9f2516;}.cls-168{fill:#066946;}.cls-169{fill:#64fba9;}.cls-170{fill:#f9fcfb;}.cls-171{fill:#fde311;}.cls-172{fill:#e0a802;}.cls-173{fill:#f9cb2f;}.cls-174{fill:#f9ca30;}.cls-175{fill:#f63b15;}.cls-176{fill:#ef3c18;}.cls-177{fill:#f13b1a;}.cls-178{fill:#b9e3eb;}.cls-179{fill:#f9fcfc;}.cls-180{fill:#fafafb;}.cls-181{fill:#b5dde9;}.cls-182{fill:#fbb4de;}.cls-183{fill:#b9dee5;}.cls-184{fill:#c9518e;}.cls-185{fill:#c7538e;}.cls-186{fill:#d25a98;}.cls-187{fill:#a62818;}.cls-188{fill:#c85191;}.cls-189{fill:#fa74bd;}.cls-190{fill:#9b2e33;}.cls-191{fill:#fcfdf9;}.cls-192{fill:#faf4b0;}.cls-193{fill:#4e0708;}.cls-194{fill:#9b2d32;}.cls-195{fill:#f8f2a6;}.cls-196{fill:#a9281b;}.cls-197{fill:#ac1d0e;}</style></defs><g id="Calque_2" data-name="Calque 2"><g id="Calque_7" data-name="Calque 7"><path class="cls-1" d="M466,250.35v34.42a10.37,10.37,0,0,1-4.43,3.16c-5.51,3.55-10.76,7.5-16.8,10.21a135.75,135.75,0,0,1-34,10.41c-3.42.55-6.75,1.73-10.29,1.42-1.47-.13-3,0-4.23-1.06-.88-2,.08-3.66.91-5.28,4.51-8.76,7.12-18.19,10-27.54.95-3.12.59-6.4,1.3-9.56.46-2,1-3.83,3.08-4.77a119.19,119.19,0,0,0,21.69-9.59,20,20,0,0,0,8.15-8.36c4.43-7.32,8.08-14.91,8.5-23.67.13-4.62,1.29-9.27-.49-13.81-3.28-13.17-10.21-24.62-16.89-36.2-1.76-2.92-3.7-5.72-5.61-8.55-8.75-12.86-18.23-25.2-27-38.05s-17-25.82-21-41c-1.19-4.43-2.52-8.86-2.34-13.54-1.36-19.72,5.25-36.06,20.55-48.79C402,16.13,407.78,14,413.7,12a12.33,12.33,0,0,1,1.43-.43c4.52-1.11,4.48-1.11,4.64-5.92.07-1.93-.42-4.05,1.41-5.56,2.55-.24,5.1-.07,7.64-.1,2.9,1,2.57,3.51,2.46,5.63-.19,3.39,1.13,5,4.5,5.48,3.18.47,6.42,1,9.25,2.81,8.41,2.62,13.63,9.29,19.4,15.27.9.93.71,2.38,1.56,3.35V58c-1.88.29-2.16-1.35-2.84-2.42-2.7-4.32-5-8.85-7.89-13.1a53.45,53.45,0,0,0-9.08-10.35c-4.45-4-10.22-4.89-15.72-4.95C413.78,27,402.73,34.77,397.52,50c-.86,2.51-1.16,5.1.11,7.62a28.1,28.1,0,0,0,.9,14.88,25.76,25.76,0,0,0,2.08,9.69c2.92,7.47,5.52,15.09,10.07,21.81.67,1,1,2.36,2.54,2.41,2.3,3,3.9,6.51,6,9.68-.35,1.68.65,2.86,1.57,4,9.2,11.6,17.84,23.62,27.72,34.72,6.5,7.31,12.68,15,17.49,23.68v26.2c-2,.4-2.59-1.22-3.25-2.46-7.47-13.85-16.69-26.56-25.19-38.66,10.88,13.74,16.63,30.56,18.75,48.53,1.18,10,1.57,20.23-1.58,30-3.42,10.65-9.62,19.05-20.61,23.11-3.63,1.34-6.88,3.52-10.73,4.95,2.7-.18,5.19.06,7.65-.25,2.72-.35,5.35-1.17,8.07-1.61s5-1.62,7.49-2.32c6.72-1.87,11.62-6,15.39-11.76C463,252.72,463.47,250.42,466,250.35Z"/><path class="cls-2" d="M466,430c0,11.1-.08,22.21.06,33.3,0,2.24-.45,2.7-2.68,2.69-27.08-.1-54.15-.07-81.22-.07-6.78-2.64-11.26-8.1-15.82-13.3-10.05-11.48-16.05-25.11-20-39.68q-5.41-20-10.32-40.12c-1.77-7.28-4.91-14.11-6.91-21.31a3.41,3.41,0,0,1,1.81-2.24c4-2.29,7.89-4.64,12-6.72a3.72,3.72,0,0,1,3.54-.38c3.12,3.64,3.8,8.35,5.17,12.67,3.68,11.65,7.21,23.35,11.47,34.8,6,16.21,14,31.16,28,42.07,8.22,6.38,17.5,9.53,27.83,10.74,13,1.51,24.74-1.2,35.94-7.51,2.7-1.52,5-3.77,8-4.75C463.94,429.8,464.89,429,466,430Z"/><path class="cls-3" d="M466,430c-5.4,1.73-9.51,5.73-14.56,8.14-10.14,4.84-20.48,6.44-31.76,5.56-23.52-1.83-38.19-15.56-49.09-34.69-9.43-16.54-14.09-35-19.86-52.92-1.48-4.6-3.05-9.17-4.58-13.76-.12-1.52,1.22-2,2-2.93,4.32-3,8.48-6.29,12.6-9.58,1.62-1.29,3.12-2.84,5.34-3.12,5.47,1.3,10.81,3.17,16.48,3.52a8.39,8.39,0,0,1,1.2.29c8.82,1.13,17.63,2.08,26.42-.21,18-3.48,36-6.75,52.61-15,1-.49,2-1.1,3.19-.55v10.48c-1,1-2.29.73-3.51.58-1.6-.18-3.18-.59-4.79-.69-3.51-.23-7.07,1.57-8.16,4.07-1.48,3.39-.12,6,2.31,8.29,1.53,1.46,2.9,3.08,4.49,4.45,5.47,4.7,8.94,10.45,9.66,17.72v17.22c-.54.7-.43,2-1.84,1.9-1.66-.35-2.28-1.77-3.1-3q-9.37-14.13-18.23-28.59c-1.42-2.32-3.08-3.32-5.79-2.85a88.82,88.82,0,0,1-17.09.82c-2,0-4,0-5.4-1.87-.59-3.33-2.7-4-5.87-4.15-10.82-.52-20.44,2.3-28.92,9.08-4.81,3.85-7.35,8-5.86,14.81,1.62,7.39,2.56,14.95,4.37,22.34,5.89,24,21,38.49,45.06,43.51a83,83,0,0,0,37.72-.58c1.67-.42,3.36-1.24,4.95.22Z"/><path class="cls-4" d="M464.51,378.36l1.48-1.53v51.64c-2.94-.26-5.52,1.26-8.31,1.8-18.49,3.55-36.33,1.9-53.08-6.81-12.91-6.7-21-17.63-25.65-31.44-3.67-10.91-5.09-22.22-7.07-33.43-.83-4.68,2.8-7.81,6-10.57,9.85-8.6,21.56-11.08,34.3-10.12,3.92.3,2.6,3.15,2.94,5.25a10,10,0,0,1,1.83,6c0,6.09,1,12.14.91,18.23-.1,4.77.91,9.36,1.7,14,2.63,15.65,21.35,17.64,30,11.15,4.84-3.63,10.17-6.84,13-12.61A3.21,3.21,0,0,1,464.51,378.36Z"/><path class="cls-1" d="M200.24,465.88H184.52a4.83,4.83,0,0,1-1.25-3.78c.2-13.24-3.39-25.55-9.12-37.33-5.11-10.52-9.86-21.21-15.63-30.94,1.52,13.09,6.41,25.84,8.73,39.13,1.78,10.19.58,20.35-2.49,30.25a5.8,5.8,0,0,1-1.95,2.67h-9.73c-1.23-1.51-.55-3.06-.11-4.61,3.94-13.8,3.46-27.58-.22-41.33-.61-2.27-.91-4.65-2.08-6.76-2.5-8.27-5.37-16.44-7.11-24.93a14.82,14.82,0,0,1-.62-5.13c-.06-5.91.44-11.83-.34-17.73a3.23,3.23,0,0,1,.34-1.83c1.55-1.53,3-.52,4.35.31C159.1,371.32,172,376.42,185,381.11c1.33,1,4,0,4.15,2.75-2.18,7.29-1.3,14.58.68,21.65,3.34,11.95,7.79,23.6,10.12,35.84,1.3,6.85,1.19,13.83,1.55,20.77A4.68,4.68,0,0,1,200.24,465.88Z"/><path class="cls-3" d="M143.45,363.44l-.06,1.41c.73,4.77.12,9.57.34,14.35.07,1.46-.32,3,.32,4.37,1.24,8.76,4.09,17.09,6.69,25.49.36,1.18.63,2.38.94,3.58a10.64,10.64,0,0,1-.14,6.17c-4.25,15.22-9.54,30-17.58,43.71a7.85,7.85,0,0,1-3.34,3.36H77.48c-.88-2,.66-2.18,1.92-2.56,2.32-.7,4.73-1.19,6.71-2.71,6.65-3.16,13.23-6.4,18.73-11.49,10.34-9.57,14.78-21.87,17.07-35.34,2.24-13.14,2.73-26.54,5.93-39.53a85.87,85.87,0,0,1,5.32-16.33,72.81,72.81,0,0,1,6-8.7c1.09-1,2.28-1.8,3.88-1.4a3.07,3.07,0,0,1,1.88,1.75A22.48,22.48,0,0,1,143.45,363.44Z"/><path class="cls-2" d="M268.36,465.88h-26.2a6.84,6.84,0,0,1-1.94-3.94c-4.12-19.81-11.07-38.77-17.31-57.95a103,103,0,0,1-3.15-11.14c-.8-3.9.75-5.63,4.6-4.93,10.74,1.93,21.57,1.71,32.4,1.73,7.89,0,11,2.67,12.38,10.46a38.93,38.93,0,0,1,.62,7.06q0,26.35,0,52.7C269.75,462,270,464.16,268.36,465.88Z"/><path class="cls-5" d="M337.21,372.36c5.08,19.15,8.56,38.76,16.28,57.14a81.65,81.65,0,0,0,27.75,35.23,5.77,5.77,0,0,1,.91,1.15H368.67a20.41,20.41,0,0,1-6-6c-3.5-4.85-7.47-9.35-11.41-13.83-12.44-14.12-21.37-30.27-28.34-47.62a51,51,0,0,0-4-8c.35,7-.5,13.26,1.55,19.56,4.27,13.17,8.55,26.3,15.84,38.21a44.08,44.08,0,0,0,12.28,13.41c1.44,1,3.4,1.87,2.89,4.28H332.74a33.74,33.74,0,0,1-8.3-8c-7.75-10.43-15.39-20.9-18.92-33.71-2-7.38-2.71-15-3.7-22.49-.66-5.08-1.55-10.1-2.34-15.14a2.11,2.11,0,0,1,1.51-1.7c11.49-1.87,21.63-7.33,32-12.11C334.34,372.12,335.7,371.25,337.21,372.36Z"/><path class="cls-6" d="M268.36,465.88c0-20.17.06-40.34-.05-60.51,0-4.06-.34-8.16-3.07-11.64a6.14,6.14,0,0,0-5.33-2.72c-9.94.1-19.89.25-29.81-.74a53.49,53.49,0,0,1-5.84-1.08c-3.57-.77-4.11-.31-3.22,3.17,2.7,10.45,6.63,20.52,9.76,30.82,4.28,14.09,9.56,27.95,11.36,42.7h-18c-1.75-1.84-1.4-4.18-1.37-6.38.14-11.71-.07-23.38-2.31-34.94-1.75-9.05-4.44-17.87-6.65-26.8a38.93,38.93,0,0,1-1.32-6.58c-.28-3.89-1.89-7.76-.23-11.69,1.59-1.84,3.17-.64,4.63.14,2.17,1.15,4.21,2.55,6.69,3,10,4.9,20,4.55,30,.05,4.37-.39,7.25-3.39,10.3-6,1.58-1.36,2.89-3.05,4.42-4.49,1-.91,1.89-2.07,3.52-1.38a4.1,4.1,0,0,1,1.81,2.68c1.18,5.75,2.72,11.44,3.26,17.32,2.51,12.95,3.65,26.14,7.28,38.9a90.62,90.62,0,0,0,15.08,30.66c1.21,1.58,3.24,3,2,5.53Z"/><path class="cls-3" d="M466,90.19v40.42c-3.51,0-4.37-2.9-5.36-5.29a91.39,91.39,0,0,1-3.95-13.22A64.63,64.63,0,0,0,445.3,88.32c-6.05-8-12.63-15.43-21.05-21.06-2.61-1.75-5.11-2.37-8-.76A8.29,8.29,0,0,0,411.52,74c-.19,4.87,1.88,8.92,4.06,13,.85,1.59,2.59,3.38.19,5.2a2.48,2.48,0,0,1-1.18-.07c-4.26-3.5-5.62-8.68-7.35-13.5-3.08-8.61-3.62-17.46-.33-26.16,1.3-3.44,3-6.85,6.87-8.34,2.48.33,1.82,1.9,1.16,3.27a45.09,45.09,0,0,0-2.42,5.46c-.62,1.89.13,2.86,2,3.12a9.1,9.1,0,0,0,7.37-2c3.15-2.62,6.55-5,9-8.42.85-1.22,1.82-2.41,3.48-2.61,2.29-.06,4,1.29,5.59,2.6,5.31,4.41,10.46,9,14.34,14.8a85.44,85.44,0,0,1,8.23,13.47C464.5,79.12,463.85,85,466,90.19Z"/><path class="cls-7" d="M213.64,391.07c3.73,16.18,9.26,32,10.28,48.74.53,8.7.38,17.38.28,26.07h-4.5c-1.23-1-1.39-2.59-1.91-4-.81-2.14-2.17-3.61-4.63-3.72s-3.6,1.37-4.47,3.31c-.75,1.69-1.31,3.53-3.21,4.39h-5.24c-.14-9.53-.1-19.13-2.38-28.43-2.1-8.55-4.64-17-7.53-25.35a69.11,69.11,0,0,1-3.55-25.57c.05-1.6,0-3.08,2.24-3,1.91-1.42,3.37-.25,4.86.83,3.05,4.06,7.18,4.81,11.86,3.82C208.56,388.63,211.79,388,213.64,391.07Z"/><path class="cls-7" d="M466,314.71a86.46,86.46,0,0,1-26.58,10.45c-9.58,2.06-18.91,5.33-28.75,6.13-9.26,1.8-18.5.86-27.75-.11h0c-1.15-2.26.32-3.33,1.95-4.32,1.75-.63,3.64-.64,5.41-1.22,4.65-1.52,6.44-5.5,4.15-9.82-1.43-2.71-1.12-4.93.88-7.09a.94.94,0,0,1,1-.06c9.16.47,17.85-2,26.63-4.08A105.59,105.59,0,0,0,451.72,293c2.13-1.24,4.08-2.8,6.14-4.18,1.15-.77,2-2.15,3.74-1.77.64,1.37,0,2.7-.27,4-1.11,5,1.14,8.58,4.66,11.7Z"/><path class="cls-8" d="M453.41,60.82c-5.43-6.62-11-13.12-18.83-17.06-1-.77-2.15.21-3.2-.15a23,23,0,0,0-17.13.81c-8,7-9.2,16.07-7.85,25.8A50.76,50.76,0,0,0,415,91.74a10.26,10.26,0,0,1,4.13,6.82c-.06.24-.16.61-.33.62-4.93.19-5.77,3.66-6.08,7.55-.07.48,0,1.23-.24,1.38-.81.45-.94-.44-1.23-.9a77.57,77.57,0,0,1-7.43-13.74c-2.25-5.88-5.24-11.49-6.24-17.81-.15-1-.74-1.9.28-2.72,3.73-.31,4.82-2.91,5.29-6.08a34,34,0,0,0,.21-6.69c-.19-3.87-1.27-4.56-4.85-3.22a3.26,3.26,0,0,1-1.44.29c-.84.32-1.47.28-1.45-.86,0-1.61-.33-3.35.15-4.82,3.24-10,8.37-18.38,18.72-22.69a36.07,36.07,0,0,1,28.77-.05c4.86,2,7.88,6.28,11,10.24,4.64,5.85,7.65,12.73,11.7,18.95v3c-1.66.46-2.11-.92-2.77-1.88a22.18,22.18,0,0,0-2.36-3.32c-.88-.9-1.84-1.77-3.23-1.42s-2,1.58-2.4,3C454.91,58.64,455.55,60.49,453.41,60.82Z"/><path class="cls-8" d="M301.3,465.88c-3.05-4.65-6.24-9.22-9.11-14-7.55-12.46-10.9-26.33-13.2-40.51-1.1-6.74-2-13.52-3-20.27,2.07-2.1,4.92-1.95,7.49-2.45a28.31,28.31,0,0,0,5.62-1.46,4.62,4.62,0,0,1,1.22-.23,14.71,14.71,0,0,0,5-.78c1.48-.45,3.06-1.09,4.47.29,1.26.21,1.38,1.13,1.53,2.2,1.47,10.69,2.54,21.46,4.65,32a60.92,60.92,0,0,0,10.24,23.38c4.94,7,9.33,14.38,15.86,20.11.4.35.45,1.11.67,1.68H327.5c-2.85-1.55-4.23-4.46-6.15-6.85a73.9,73.9,0,0,0-6.08-7c-2.07-2-4.53-2.77-7.17-1.63s-3.35,3.78-3.32,6.53a20.78,20.78,0,0,0,1.05,5.46c.32,1.16,1,2.36,0,3.51Z"/><path class="cls-2" d="M415.82,91.72c.66-1.65-.44-2.77-1.17-4-2.91-5-5.19-10.09-4.12-16.18,1-5.43,8.37-9.13,13-6.14,11,7.17,19.35,16.9,26.48,27.84,5.41,8.31,7.51,17.71,10.09,27,1.07,3.9,2,8,5.91,10.39v5.24c-2.12.09-2.65-1.73-3.26-3.06-7-15.33-19.61-24.8-33.86-32.59-3.83-2.09-7.89-3.75-11.46-6.29C416.64,93.36,415.49,93.06,415.82,91.72Z"/><path class="cls-9" d="M466,250.35c-2.54,3.21-4.35,6.89-7.21,9.92-5.67,6-13.29,7.39-20.64,9.52-5.18,1.51-10.53,1.56-15.86,1.76-.91,0-2.14,1-2.42-.56-.22-1.19,1.15-.94,1.87-1.31,8.2-4.23,17.69-6.28,24-13.72a38.41,38.41,0,0,0,8.44-17.1c2.58-11.92,1.74-23.74-.36-35.42-1.66-9.28-5.17-18.13-9.23-26.73-2.36-5-5.76-9.27-8.52-14-.56-.95-2-1.75-.78-3.6,3.55,4.77,7.07,9.34,10.42,14a239.58,239.58,0,0,1,18.41,29.29A4,4,0,0,0,466,204.7Z"/><path class="cls-4" d="M415.82,91.72c7.08,4,14.31,7.7,21.21,12,11,6.84,20.52,15.26,26.05,27.42a43.88,43.88,0,0,0,2.91,4.73v32.92c-1.84.26-2.17-1.32-2.79-2.39l-6.42-11.14c-4.7-8-10.12-15.52-15.52-23.05-5.3-6.23-9.75-13.08-14.43-19.76-1.8-3.12-4.07-5.94-5.86-9.07a22.85,22.85,0,0,1-2.37-4.87q-1.8-3.37-3.58-6.75Z"/><path class="cls-6" d="M63.25,465.88H8.61A23.91,23.91,0,0,1,0,453.36v-31c.36-3.11,1.83-1.12,2.53-.38,2.55,2.71,5.06,5.47,7.49,8.29,6.11,7.11,13.41,12.8,21,18.24,7.11,5.14,15.05,8.66,23,12.23,2.43,1.56,5.41,1.8,7.84,3.34C62.54,464.53,63.5,464.7,63.25,465.88Z"/><path class="cls-10" d="M351.45,465.88c-1.66-3-5-4-7.37-6.16-6.5-5.89-10.44-13.45-14.32-21.1-5.22-10.28-8.5-21.31-11.56-32.3-1.58-5.64-.28-12.09-.28-18.83,3.06,2.88,4.47,6.24,5.75,9.48,6.73,17.07,15.23,33,27.44,46.93,5.89,6.7,11.42,13.7,17.09,20.59a4.39,4.39,0,0,1,.47,1.39Z"/><path class="cls-11" d="M162.81,465.88c2.33-8.4,4.11-16.84,3.82-25.67-.23-6.89-2-13.36-3.71-19.94-2.12-8.32-4.82-16.55-5.3-25.2-.09-1.6-1.13-3.07-.36-5.45,1.77,2.84,3.46,5.17,4.74,7.71,4.62,9.16,9.26,18.32,13.57,27.63,2.75,6,5.89,12,7.14,18.33a84.5,84.5,0,0,1,1.81,22.59Z"/><path class="cls-2" d="M130.62,465.88a172.41,172.41,0,0,0,19.54-47.21c.51-2,1.82-3.81,1.52-6,6.26,16.82,7.67,33.81,1.8,51.06a16.08,16.08,0,0,0-.4,2.18Z"/><path class="cls-8" d="M427.8,111.88c4.55,6.63,9.11,13.25,14.19,19.49a3.79,3.79,0,0,1,.48,3.86c-1.58,4.58.55,8.12,3,11.63,3,4.25,7.43,6.28,12.22,7.72L466,168.77v9.73c-3.62-2.26-5.17-6.21-7.53-9.45-6.51-8.93-14.23-16.82-21-25.49q-9.3-11.84-18.31-23.89c-.48-.65-3.08-1.9-.34-3.22a3.18,3.18,0,0,1,1.81.06c2.92,1.2,4.7.31,5.44-2.8C426.23,112.86,426.34,111.64,427.8,111.88Z"/><path class="cls-2" d="M445.78.51,466,.39V32.57c-3.06-3.23-6.17-6.42-9.17-9.71a29.65,29.65,0,0,0-11.74-7.63C442.81,10.21,443.88,5.34,445.78.51Z"/><path class="cls-12" d="M466,359.61c-1.6-1.59-1.51-3.87-2.25-5.79-2.67-6.94-8.7-11-13.42-16.13-1.72-1.88-3.2-3.73-2.69-6.53.92-5,5.65-8.18,11.06-7.26l7.3,1.29Z"/><path class="cls-13" d="M305.79,465.88c-.89-3.07-2.31-6-2.31-9.3s1-6.05,3.94-7.43,6.06-.63,8.5,1.84a73.6,73.6,0,0,1,11.58,14.89Z"/><path class="cls-14" d="M453.41,60.82c.93-1.09.46-2.39.49-3.58a4.46,4.46,0,0,1,2.76-4.07,3.66,3.66,0,0,1,4.65,1.27C463,56.55,464.44,58.81,466,61v8.23c-.72,2.4-1.92,4.3-4.71,4.57Q457.35,67.32,453.41,60.82Z"/><path class="cls-15" d="M205.48,465.88c.66-1.59,1.33-3.19,2-4.79,1.12-2.72,2.7-4.64,6.1-4.3,3.23.31,4.75,2.23,5.54,5.09a9.26,9.26,0,0,1,.59,4Z"/><path class="cls-16" d="M466,302.74c-6.58-3-8.22-8.82-4.39-15.69,1.38-.92,2.6-2.14,4.39-2.28Z"/><path class="cls-17" d="M461.28,73.81c1.07-2,3.8-2.37,4.71-4.57v21a14.82,14.82,0,0,1-3.21-8.83A20.49,20.49,0,0,0,461.28,73.81Z"/><path class="cls-18" d="M63.25,465.88c-3-2-6.88-2.06-9.75-4.38,1.34-1.45,3-.9,4.51-.58a60.26,60.26,0,0,0,24.66.14c1.29-.26,2.68-.75,3.81.49-1.87,2-4.5,2.15-6.91,2.79-1,.26-1.93.29-2.09,1.54Z"/><path class="cls-19" d="M.37,465.88l.12-11.21c3.49,3.17,5.31,7.55,8.12,11.21Z"/><path class="cls-3" d="M377.59,69.26c1.51,16.6,8.66,31,17.44,44.78,9.3,14.6,19.9,28.29,29.82,42.46,1.07,1.53,2.06,3.12,3.08,4.68-.94,2.64-2.58,1.07-3.62.35-4.72-3.3-10-5.46-15.07-8.12-6.41-3.37-13.23-5.7-19.86-8.47-5.51-2.29-11-4.65-16.22-7.47-2-1.39-3.32-3.7-5.74-4.6-7.38-7.24-15.69-13.3-24.21-19.11a14.82,14.82,0,0,1-4.09-3.77c-6.82-5.16-3.86-11.48-2.13-17.66,1-2.4.53-4.92.65-7.39.07-1.35-.27-3,1.2-3.68s2.58.61,3.54,1.55c6.69,6.61,14.3,12,22.14,17.11,5.74,3.74,8.1,3,9.14-3.93a59,59,0,0,0-1-23,10.19,10.19,0,0,1-.54-4.41C374,66.09,374.64,66.16,377.59,69.26Z"/><path class="cls-2" d="M377.59,69.26a8.14,8.14,0,0,1-3.31-1.49c-.8-.52-1,0-1.14.72-2.81-.77-4-3.46-6.1-5.12-6.9-5.5-12.65-11.91-14.84-20.86-.8-3.3-1.67-6.51-.73-9.9,1.85-5.5,3.63-11,7.49-15.6,7.16-8.54,15.61-14.77,26.9-16.5h19.53c4.82.93,7.45,3.67,7.22,8.77-.07,1.41.73,2.6,1.08,3.91-15.39,4.69-25.72,14.9-32,29.45C378,51.15,377.38,60.14,377.59,69.26Z"/><path class="cls-4" d="M450.19,205.56c2.72,4.81,1.16,9.86.83,14.85-8.93,10.37-20,16.92-33.73,18.33-2.67.27-5.55.5-7.42-2.24a27.23,27.23,0,0,1-.63-7.4c.55-10.32-1.49-20.29-3.8-30.24a7.18,7.18,0,0,1-.12-4,3.86,3.86,0,0,1,3.55-2.33c5.53-.39,9.87-3,13.58-6.93a7.08,7.08,0,0,1,2.75-1.85,16,16,0,0,1,12.46,3.54c5.69,4.69,10.67,10,11.58,17.86a.89.89,0,0,0,.35.62C449.85,205.94,450.06,205.86,450.19,205.56Z"/><path class="cls-2" d="M425.57,184.48c-2.94,1.82-4.79,4.84-7.82,6.66-3.66,2.21-7.73,2.09-11.61,3.05-1.94-.46-2.26-2.16-2.71-3.68a134.54,134.54,0,0,0-19-38.71c-2.92-4.19-6.5-7.83-9.73-11.75-.82-1-2.22-1.79-1.53-3.47,10,4.38,20.11,8.43,30.13,12.71,7.26,3.1,14.65,6.24,21.16,11,.85.62,1.8,2.52,3.43.92l5.25,8.21C432.08,175.15,430.07,180.44,425.57,184.48Z"/><path class="cls-6" d="M410.51,236.75c6.42,2.1,12.43,0,18.41-1.94,7.33-2.42,13.08-7.31,18.81-12.21,1-.85,1.69-2.21,3.29-2.19-.51,8.91-3.88,16.77-8.88,24-9.3,6.13-19.12,11-30.43,12-1.86.17-3.78.48-4.9-1.62-.63-6.1,1-11.89,2.53-17.7A1.08,1.08,0,0,1,410.51,236.75Z"/><path class="cls-20" d="M396.32,308.66a3.9,3.9,0,0,1-.59.14c-3.93,2.09-7.66.9-11.36-.66-1-1.75,0-3.15,1-4.4A113.6,113.6,0,0,0,403.26,266c.4-1.51.77-3.19,2.45-4,2.11.81,4.38-1.4,6.46.31-3.46,1.85-2.66,5.44-2.88,8.25a53.42,53.42,0,0,1-2.53,11.52A168.94,168.94,0,0,1,396.32,308.66Z"/><path class="cls-21" d="M425.57,184.48l7.61-15.09c6.75,9.81,11.63,20.58,16.14,31.53.61,1.47-.26,3.24.87,4.64v1.85c-1.71-3.95-3.2-8-5.77-11.46C439.7,189.55,434.2,184.46,425.57,184.48Z"/><path class="cls-22" d="M412.17,262.38c-1.3-.24-2.25.48-3.32,1-1.43.75-2.54.36-2.93-1.36-1.3-2.85-1.35-5.43,1.6-7.35,3.14,1.87,6.4.34,9.31-.26a62,62,0,0,0,21.77-9.28,5.15,5.15,0,0,1,3.54-.73,15.2,15.2,0,0,1-7,7.85C427.82,256.39,420.53,260.6,412.17,262.38Z"/><path class="cls-23" d="M411,19.82c1.13.72,3.18-1.51,3.72.33s-2,1.27-3,1.91c-12.4,7.56-20.12,18.83-25.68,31.85-.37.86-.19,2.34-1.53,2.07s-.64-1.66-.77-2.57c-.6-4.09,1.47-7.67,3.27-10.78,2.76-4.74,4.66-10,8.47-14.2C400.45,22.92,405.48,20,411,19.82Z"/><path class="cls-24" d="M427.8,111.88c-.21.29-.57.56-.62.87-.92,6.32-2.92,7.21-8.4,3.7-3-2.63-4.58-6.13-6-9.72-1.77-5.93-.2-8.15,5.85-8.24C422.36,102.48,424.65,107.48,427.8,111.88Z"/><path class="cls-25" d="M445.78.51c.55,5-1,9.79-.7,14.72-3.86-2.19-8.22-2.68-12.46-3.43-2.12-.37-2.58-1.24-2.6-3.16,0-2.71.52-5.49-.63-8.11Z"/><path class="cls-26" d="M397.09,57.24c1.16-1.7,2.59-3.33,4.8-2.62s2.78,2.84,2.69,5.13c-.14,3.69.16,7.4-1.13,11-1,2.91-2.68,4.07-5.57,2.21C395.39,67.82,394.69,62.61,397.09,57.24Z"/><path class="cls-27" d="M413.69,13.19c-1.38-.07-2.63-.51-2.3-2.14,1.07-5.31-1.85-8.26-6-10.54L421,.54c.07,2.73,0,5.46.23,8.18.17,2.37-.34,3.79-3.13,3.71A21,21,0,0,0,413.69,13.19Z"/><path class="cls-28" d="M410.51,236.75a1.87,1.87,0,0,1-.57.08,1.54,1.54,0,0,1-.75-1.22c-.14.17-.06.37-.09.56-1.65,13.52-6.57,26-12.26,38.21a229.39,229.39,0,0,1-36.43,54.93,70.58,70.58,0,0,1-10.58,9.4c-.6.45-1.24.83-1.41,1.64l-2.28,1.94a162.82,162.82,0,0,0-16.41,9.08,9.81,9.81,0,0,1-4.48,3.18c-7.51,3.32-15.22,6.09-23,8.64-4,1.31-4.13,1.31-3,5.52a95.87,95.87,0,0,1,2.55,12.77c.2,1.45.65,3-.49,4.27l-1.55.74c-3.29.22-6.3,2.32-9.75,1.48-.33-1.15.48-1.84,1.07-2.62a15.22,15.22,0,0,0,.07-17.67,2.62,2.62,0,0,0-2.95-.95c-2.93.53-5.78,1.44-8.72,1.93-1.94.33-2.38,1.6-1.64,3.31a40.57,40.57,0,0,1,2.39,8.59,7.34,7.34,0,0,0,5.49,6c1.27.38,2.78.28,3.64,1.6-4.25,2-8.89,2.31-13.44,3-1.46-6.82-2.11-13.81-4.64-20.38-1.32-1.73-.21-3.4.32-4.93,2.75-7.88,4.65-15.89,4.41-24.3a6.44,6.44,0,0,1,.65-3.25c1-1.56,2.77-1.51,4.31-1.83,21.77-4.61,42.3-12.22,61.14-24.3,21-13.47,37.89-30.68,48.87-53.19,7.58-15.55,11.63-32.13,10.78-49.53C400.49,182.9,390.27,160,373,140c-2-2.35-5-4.21-5.1-7.86,2.5.62,3.61,2.88,5.29,4.47,5.43,6.43,11.17,12.6,15.67,19.79,6.76,10.8,12.4,22.08,15.81,34.41a26,26,0,0,0,1.45,3.41c1,4.94,1.83,9.91,2.94,14.82C411.15,218.18,410.54,227.47,410.51,236.75Z"/><path class="cls-29" d="M301.34,385.75c-1.12-6.59-2-13.22-4-19.63-.51-1.64-.67-2.93,1.42-3.44,10.26-2.53,20-6.56,29.54-10.92a10.07,10.07,0,0,1,1.43-.39c3.36,6.69,5.21,13.92,7.48,21-7.68,3.37-15.43,6.6-23,10.18C310.07,384.48,305.66,384.84,301.34,385.75Z"/><path class="cls-2" d="M464.51,378.36c-3.73,9.14-11.41,14.26-19.74,18.14-9.93,4.63-23.26-2.51-26-13.05a74.57,74.57,0,0,1-2.28-18c-.1-7.43-.89-14.85-1.39-22.26,5.78,1.48,11.62.71,17.44.49a55.54,55.54,0,0,0,7-1c1.89-.31,2.6,1,3.42,2.3,5.29,8.42,10.48,16.91,16,25.19C460.74,372.86,462,376.06,464.51,378.36Z"/><path class="cls-30" d="M348.42,340.35c-.78-1.38.66-1.62,1.23-2.17a206.06,206.06,0,0,0,56.64-92.78c1.18-4,1.93-8.17,3.38-12.26l.27,3.69q-1.21,8.94-2.42,17.88a33,33,0,0,0-1.6,7.35c-3.18,9.41-5.82,19-10.65,27.82a204.59,204.59,0,0,1-10.91,17.35c-.07,1.83-1.24,3.08-2.28,4.41a124.88,124.88,0,0,1-11.92,12.53c-1.37,1.23-2.63,2.63-4.5,3.15Z"/><path class="cls-31" d="M365.66,327.32l3.74-3.56a96,96,0,0,0,15.13,3,1.64,1.64,0,0,1,.76.86,4.58,4.58,0,0,0-2.4,3.56A43,43,0,0,1,365.66,327.32Z"/><path class="cls-31" d="M382.91,331.18c9.25.09,18.49,1.3,27.75.11C401.4,333.6,392.15,333,382.91,331.18Z"/><path class="cls-32" d="M388.09,358.67c5.06,12.42,12.28,22.51,20,32.12S426,406.3,438.56,407.6c4.22.44,8.35,1,12.59.1,2-.45,2.52,1,1.71,2.48a9.53,9.53,0,0,1-3.83,4c-4.09,2.25-8.4,4-13,4.17-8.81.28-17.72,2.38-26.31-1.89-10.53-5.23-17.79-13-21.72-24.23-2.75-7.87-3-15.81-2.8-23.9C385.24,365,386.86,362.27,388.09,358.67Z"/><path class="cls-28" d="M193.48,385.08a9.42,9.42,0,0,0-4.46-1.56c-1.23-1.4-3.3,0-4.54-1.38,2.93-4.23,1.77-9.33,2.88-14,.39-1.59-1.51-2.06-2.83-2.37-12.25-2.9-23.88-7.52-35.32-12.67-2.05-.92-4.15-1.73-5.14-4l-1.46-.8A32.55,32.55,0,0,1,127,340a15.13,15.13,0,0,0-4-4.85c-11.89-10.84-21-23.88-29.64-37.31A184.49,184.49,0,0,1,70.6,248.07a122.59,122.59,0,0,1-3.06-12.65A35.28,35.28,0,0,0,66,230.87c-.49-5.35-.91-10.69.4-16,2.55-20.68,8.77-40.1,20.15-57.71a149.5,149.5,0,0,1,12.25-16.49c1.23-1.42,2.33-3.42,4.83-2.78,1,2.37-.8,3.72-2,5.19-8.82,11.12-16,23.15-20.45,36.69-10,30.18-6.49,58.94,9.09,86.4,14.2,25,35.4,42.29,60.84,54.91a183.08,183.08,0,0,0,42.24,14.7c4.87,1.07,4.89,1,5.59-3.89a6.56,6.56,0,0,1,.86-3.21c.79-1.06,1.42-.63,2,.29,1.23,3.77.54,7.64.62,11.47.09,4.59.2,9.19-.07,13.78-.4,1.84-.43,3.63.84,5.22,1.12,2.77,3,5.37,1.86,8.64-1.58,1.87-3.59,1.11-5.5.87-3.66-.46-4.3,0-4.62,3.73-.23,2.7,0,5.41-.12,8.11a6.72,6.72,0,0,1-.84,3.9Z"/><path class="cls-33" d="M144.07,349.16a188.21,188.21,0,0,0,24.79,10.61c5.72,2,11.42,4,17.38,5.09,2.62.49,3.22,2.17,2.6,4.37a29.55,29.55,0,0,0-1.33,10.26c.16,2.3-1.19,2.71-3,2.64-13.45-4.68-26.62-10-38.61-17.84a10.2,10.2,0,0,0-2.42-.85Q143.75,356.3,144.07,349.16Z"/><path class="cls-33" d="M144.05,383.57c-1.52-6.19-.57-12.47-.66-18.72C144.76,371.05,143.72,377.34,144.05,383.57Z"/><path class="cls-7" d="M86.48,461.55c-11,3.21-22,2.35-33-.05C32.45,453.8,16,439.93,2,422.92c-.47-.57-1-1.11-1.46-1.66q0-19.22,0-38.43c2.29-.13,2.81,1.8,3.55,3.27A146.3,146.3,0,0,0,13.15,402c6.48,9.68,14.37,17.78,25.08,22.84A36.59,36.59,0,0,0,54,428.73a30.45,30.45,0,0,1,4.48.13c13.72,2.06,23.06-4.6,29.68-15.63,6-10,9.54-21,11.45-32.57,1.06-6.36,2.67-12.66,3.77-19A134.22,134.22,0,0,1,108.47,343c.57-1.77,1.14-3.59,2.89-4.65a2.66,2.66,0,0,1,3,1.11c2,2.54,4.61,4.53,6.36,7.27a3.47,3.47,0,0,1,.29,1.08c.1,1.49-.35,2.93-.35,4.41,0,2.2.37,4.22,2.49,5.41s4,.23,5.73-1.14,3.28-1.73,5-.15a1.29,1.29,0,0,1,.36,1.65c-6,14.66-7.7,30.23-9.56,45.77-1.19,9.88-2.67,19.72-6.65,28.95C111.81,447,100.87,456.18,86.48,461.55Z"/><path class="cls-34" d="M120.24,347.6c0-.23-.09-.46-.13-.69a9,9,0,0,1,6.66-8,1.18,1.18,0,0,1,.9.59c4.41,3.91,10.1,5.65,14.94,8.82-1.26,0-2,1-2.92,1.55-2,1.41-3.59,3.38-5.76,4.65s-4.25,1.56-6.29.1C124.86,352.66,121.46,351.26,120.24,347.6Z"/><path class="cls-35" d="M120.24,347.6c2.74,2.12,5.46,4.25,8.21,6.34,1.68,1.28,3.08,1.25,4.92-.23s3.55-3.66,6.32-3.8L134.18,358c-1.18-1.83-2.57-2.85-4.38-.79s-4.14,3.21-6.91,1.89c-3-1.42-3.71-4.07-3.62-7.15A15.13,15.13,0,0,1,120.24,347.6Z"/><path class="cls-36" d="M277.36,338.14a75.83,75.83,0,0,1-6.05,32.6c-3.9,4.05-7.32,8.6-12.44,11.36a9.75,9.75,0,0,1-4.84,1.5c-.36-1.83,1.13-2.58,2.14-3.55,1.59-1.52,3.42-2.8,4.39-4.87,7.48-7.3,10.29-16.59,11.13-26.6.38-4.46.05-9,.06-13.46.31-2.42-.61-4.87.24-7.28a3.18,3.18,0,0,1,2.56-1.83,2.68,2.68,0,0,1,1.88.64C279.09,330.29,279.66,334.1,277.36,338.14Z"/><path class="cls-37" d="M201.06,355.06c-.64-8.9-.16-17.82-.23-26.73a1.59,1.59,0,0,1-.23-1.65c.82-1.27,1.92-1.26,3.14-.69a4.41,4.41,0,0,1,2.37,3.31c-.91,4-1.62,8.06-.57,12.18-.16,9.71,1.29,19,6.27,27.61,1.34,2.31,3.41,4,4.7,6.23s3.26,3.58,5.1,5.18c.92.8,2.5,1.34,1.75,3.12-4-.22-6.68-3.37-10.24-4.55-2.18-.54-3.18-2.56-4.79-3.81-1.92-2.12-3.73-4.28-3.76-7.36s-2.18-5.28-2.21-8.2C201.2,358.36,202.3,356.38,201.06,355.06Z"/><path class="cls-38" d="M223.36,383.62c-2.19-2.78-6-4-7.36-7.56,1.47-1.44,3-.57,4.47-.07,3.26,1.11,6.18,3.14,9.72,3.47a6.55,6.55,0,0,1,1.16.2,27.73,27.73,0,0,0,14.85,0,30.07,30.07,0,0,0,10.13-3.34c1.46-.71,3.1-1.88,4.68-.09-1.21,3.51-5,4.58-7,7.35C243.81,388.86,233.59,389,223.36,383.62Z"/><path class="cls-39" d="M209.21,374.69c1.42,1.35,3.15,2.43,3.91,4.38-.39,4,.34,8,.52,12-2.51-1.4-5.48-1.11-8.08-2.17l-.29-.48c1.79-3.94,3.38-7.92,2.84-12.4A1.36,1.36,0,0,1,209.21,374.69Z"/><path class="cls-40" d="M414.25,44.42c6.59-6.07,13.47-3.13,20.33-.66-3.78,2.8-6.24,6.92-10,9.79-3.21,2.44-6.35,4.31-10.53,3.72-2.87-.4-3.92-2-2.78-4.63.93-2.14,1.5-4.47,3.13-6.28A1.22,1.22,0,0,0,414.25,44.42Z"/><path class="cls-41" d="M219,434.76c.21,3.48-.67,6.53-3.59,8.59-4.67,3.29-11.39.26-12.91-5.94a82.57,82.57,0,0,1-1.48-10c-.34-2.81,0-5.63-1.08-8.45s1.56-7.49,4.18-8.4c3.77-1.31,7.9.06,9.51,3.74A63.86,63.86,0,0,1,219,434.76Z"/><path class="cls-39" d="M205.56,388.9c-5,1.71-9.08.71-12.08-3.82l.21-.25c4.38-.29,7.86,2.18,11.63,3.76Z"/><path class="cls-24" d="M426.46,322.22c-5.63,0-9-2-9.83-4.92-1.07-3.95.34-6.81,4.65-9a80.16,80.16,0,0,1,16.5-6.72c2.72-.7,5.43-.63,7.76,1.36a6.2,6.2,0,0,1,1.43,8.36,10.79,10.79,0,0,1-2.54,3.19A42.8,42.8,0,0,1,426.46,322.22Z"/><path class="cls-31" d="M381.44,311q1.46-1.89,2.92-3.76c3.7,1.16,7.54,1.33,11.37,1.57-1.52,3-1.2,5.45.83,8.36s-1.35,8.33-5.4,9.5a46,46,0,0,1-5.87.95l-.23-.29c.57-3.57,3.27-6,4.87-9,2.25-4.24,1.93-5.07-2.89-6C385.16,312,383,312.67,381.44,311Z"/><path class="cls-24" d="M431.3,40.08c-2.05.26-4.57-.6-7.15-.82a3.16,3.16,0,0,1-3.08-2.73,3.58,3.58,0,0,1,1.11-3.69c3.72-3.2,10.7-3.25,14.45,0,1.3,1.13,2.9,2.31,2.16,4.32a4.33,4.33,0,0,1-4.68,2.91C433.36,40.05,432.62,40.08,431.3,40.08Z"/><path class="cls-41" d="M284.9,413.3c0-1.15-.08-2.53,0-3.89.3-4.32,3.56-7.8,7.37-7.94,4.81-.18,8.6,2.72,8.8,7.54a82.83,82.83,0,0,0,2.33,18c1.12,4.19-1.77,8.32-5.29,9-5,.91-8.85-1.29-10.28-5.71C286.07,424.8,284.58,419.32,284.9,413.3Z"/><path class="cls-42" d="M289.39,388.12c-7.44-.31-9.28-2-10.67-9.58a29.07,29.07,0,0,0-2.4-7c-.94-2-.7-3.52,2-3.94a64.84,64.84,0,0,0,9.79-2.1c3-1,4,.23,4.74,2.81.62,2.27,1.81,4.4,2.25,6.69,1,5.31-.57,9.78-5.09,13A3.61,3.61,0,0,1,289.39,388.12Z"/><path class="cls-41" d="M457.74,154.58c-7.61-.09-15.62-7.07-17.14-14.59-.64-3.17,1.87-5.61,1.39-8.62Q450.41,142.61,457.74,154.58Z"/><path class="cls-4" d="M.49,153.05V142.57c1.5-2.49,4.05-3.59,6.42-4.95,7.14-4.09,14.78-7.19,21.94-11.26A145,145,0,0,0,74.53,85.7a72.37,72.37,0,0,0,13.2-30.21c1.73-9.55.28-18.71-8.36-25.14-5.29-3-11-2.6-16.76-2.29-1.47.08-3,.54-4.36-.34-1-1.88.73-2.08,1.69-2.54,7-3.31,14.25-3.4,21.54-1.32a16.16,16.16,0,0,1,9.64,7.81c4.71,8.13,4.35,17,3.94,25.87-.87,18.78-9,35.29-16.12,51.59A79.2,79.2,0,0,0,104.2,61.76c4-26.57-12.39-48.67-34.46-55.29C61,3.84,52.4,5,45,10.94A74.12,74.12,0,0,0,31.22,26.12c-3.53,5-4.78,10.64-4.88,16.6-.09,6.35-.35,12.69,2.08,18.82,5.14,13,11.94,16.22,25.71,15.37,1.65-.1,2.64-1.3,4-1.88,2.14,2.32,2,4-.59,8.31-6.72,9.89-20.05,9.49-28.06,4.25C20.93,82,15.25,74.18,13.29,64.25c-2.46-12.45-2.6-25.07,1.15-37.35,3-9.75,8.84-17.77,16.35-24.61A14.36,14.36,0,0,1,34.05.51h69.68c5.42,2.49,8.4,7.33,11.29,12.1,8.63,14.28,10.66,29.78,8.27,46.1-3.29,22.44-13.48,41.53-28.1,58.5a182.79,182.79,0,0,1-48,40c-5.3,3-10.63,6.18-16.46,8-6.11,1.87-11.77-.42-17-3.64,2.36-2.2,5.65-2.25,8.39-3.65,12.1-6.2,24-12.63,32.81-22.74-13.28,5.55-26.27,12.75-40,18.24-3,1.18-6.39,1.25-8.91,3.57C3,157.26,2,154.84.49,153.05Z"/><path class="cls-5" d="M111.91,338.65a70.57,70.57,0,0,0-6.9,22.08c-.63,5.23-2.48,10.27-3.2,15.58A102.94,102.94,0,0,1,96.18,399c-3.55,9.38-7.34,18.76-15.62,25.19-6.18,4.79-13,7.36-21.15,6-4.87-.81-9.86,0-14.78-1.57a52.78,52.78,0,0,1-18.5-10c-9.87-8.33-16.69-19-22.36-30.43-.92-1.86-1.42-4-3.26-5.35V312.46c1.8-13.06,8.68-23.87,15-35,5.75-10.19,12.21-20,17-30.7,6.1-13.54,9.21-27.56,5.49-42.48-1.78-7.12-5.66-12.4-12.14-15.71C19,185,12.23,181.15,4.21,180.84A5.07,5.07,0,0,1,.5,179.29v-6.8c2-1.77,4.21-1.21,6.36-.58a189.13,189.13,0,0,1,22.5,7.87c1.07.47,2.47,1.76,3.34.67,1.05-1.32-.58-2.48-1.39-3.45-6.45-7.67-14.9-8.67-24.09-7.05-2.28.4-4.59,1.5-6.71-.42v-4.6c4.09-2.79,8.76-2.69,13.25-2.06C29.7,165.1,39.84,174.76,46.22,189a54.14,54.14,0,0,1,4.69,20.26c.92,11-.66,21.72-3.37,32.42C42.8,260.38,36.33,278.54,30.66,297,26.93,313.09,22,329,20,345.45a71,71,0,0,0,1.12,24.94c2.63,11.21,10.4,18.72,18.82,25.78A20.61,20.61,0,0,0,53,400.89c8.59.26,12.95-3.86,13.44-12.41.67-11.7-.27-23.4,0-35.1.25-12.75,3.88-24.54,9.5-35.83.65-.82,1.2-1.83,2.53-1.31,1.57,2,1.15,4.29.45,6.42a113.79,113.79,0,0,0-5.19,45c.7,8.64-.39,17.15-.22,25.73.12,5.4-1.56,10.55-3.33,15.76a40.49,40.49,0,0,0,9.53-11.2c2.91-4.87,4.39-10.32,6-15.69,3.57-12.18,6.89-24.45,8.69-37,1.15-8,1.84-16-3.19-23.43-3-4.39-4.23-9.85-7.77-14-1.21-3.86,1.84-6,3.49-8.76,1.4-.68,2.11.38,2.72,1.24,1.51,2.1,3.24,4.07,4.19,6.54a44.17,44.17,0,0,0,8,15c3.68,4.7,6.52,10,10,14.8A2,2,0,0,1,111.91,338.65Z"/><path class="cls-43" d="M216,.55,242.15.46c2,.82,3,2.5,4,4.28C253.85,19.23,258,34.83,260.66,50.9c.85,5.16,1.57,10.35,1.92,15.56.16,2.31.83,4.74-.83,6.86a6.26,6.26,0,0,1-4.66.88c-12.24-1.53-24.38.1-36.53,1.16-5.7.49-6.92-.4-8-6.17-1.08-5.93-1-11.91-1-17.89,0-9.47-.17-18.94.79-28.38a16.63,16.63,0,0,1,.94-5,262.69,262.69,0,0,0-8.56,44.36c-.33,3.48-.11,7-.21,10.46-.13,4.63-.83,5.87-5.27,6.84-14,3-26.86,9.14-39.83,15-2.94,1.32-5.31,3.79-8.66,4.26a3.29,3.29,0,0,1-2.57-1.93,31.53,31.53,0,0,1-5.06-18.83,50.06,50.06,0,0,1,1.38-10c2.6-10.28,10.39-16.3,18.31-21.86A359.35,359.35,0,0,0,210.26,6.33C212.19,4.41,213.54,1.9,216,.55Z"/><path class="cls-2" d="M80.4,29.63c6.77,4.55,8.75,11.53,9,19,.32,11-3.87,20.83-9.14,30.17C71,95.25,57.41,107.67,42.6,119c-8.67,6.63-18.5,11-28,16-4.71,2.47-9.37,5.05-14.06,7.57,0-6.36-.11-12.71-.11-19.07C.36,83.72.41,43.94.29,4.16.28,1.06.29.3.29.3c10,.26,23.79.17,33.76.21C28.22,6.59,22.35,12.6,18.42,20.25a49,49,0,0,0-5.17,19.64c-.52,8.43-.69,16.94,1.45,25.21A36,36,0,0,0,29.59,86.21c7.73,5.33,20.45,5.75,27-3.42,6.9.54,10.33-1.67,11.22-7.19a8.07,8.07,0,0,0-1.39-6.35,42.83,42.83,0,0,0-3.81-4.58C57.87,59.77,57,55.91,60,49.92a47.86,47.86,0,0,1,15-18.22A9.64,9.64,0,0,1,80.4,29.63Z"/><path class="cls-2" d="M49.82,209.2a73.68,73.68,0,0,0-4.65-20.13c1.92-2.36,4.68-3.66,7-5.45,20.22-15.38,36.14-34.47,49.31-56.1A204,204,0,0,0,120,88.39a110.51,110.51,0,0,0,4.53-58.21A56.29,56.29,0,0,0,112.85,5c-1-1.25-2.81-2.35-1.71-4.47h18C132.9,2.18,134.46,5.74,136,9c6.19,13.05,10.18,26.66,9.41,41.32a12.13,12.13,0,0,1-4,6.34c-5,4.84-7.19,11.08-7.84,17.69-.58,5.89-.85,11.91.67,17.8a28.15,28.15,0,0,0,4.38,9.4c3,4.19,3,4.25-.29,8.31-4,4.56-9.29,7.37-14.08,10.88a146.77,146.77,0,0,0-16.51,14.41c-1.2,1.19-2.19,2.77-4.18,2.85-5.64,3.89-9.08,9.76-12.92,15.14a123.68,123.68,0,0,0-19.3,41.91,119.23,119.23,0,0,0-3.71,19.29c-2.66,2-5,.06-7.44-.6-1.89-1.29-4.12-1.7-6.27-2.28C52.39,211.06,50.83,210.64,49.82,209.2Z"/><path class="cls-3" d="M111.14.52c2.32,4.08,5.58,7.48,8,11.58,4.57,7.81,6.48,16.27,7.79,25,.91,6.06.62,12.15.75,18.23.26,11.64-3.15,22.57-6.53,33.46-4.77,15.35-12.13,29.54-20.75,43.06a218.49,218.49,0,0,1-21.43,28.51A181.42,181.42,0,0,1,50.4,186.47c-1.59,1.15-3,2.64-5.23,2.6-3.44-6.34-7.1-12.47-12.84-17.13-9.47-7.71-20.13-9.6-31.82-7q0-5.94,0-11.88c2.33.39,3.18,2.81,5.12,3.74a10.55,10.55,0,0,1,8.21,4.55,55,55,0,0,0,13.24,3.5c3.25.41,6.09-1.81,8.93-3.2a167.74,167.74,0,0,0,28.88-17.58A192.7,192.7,0,0,0,99.14,110.5c9.37-12,16.54-25.12,20.48-39.75,5.42-20.17,5.25-40-6.12-58.53-2.68-4.36-6.39-7.9-9.77-11.7Z"/><path class="cls-4" d="M352.25,32.52c-.53,13.27,6.26,22.74,16.11,30.48a17.06,17.06,0,0,1,4.78,5.49,85.79,85.79,0,0,1,2.32,24,19,19,0,0,1-2.71,9.59c-1.42,2.29-3.07,2.85-5.55,1.19C358,97.07,348.64,91.09,340.88,83c-.47-.49-.84-1.29-1.92-1.09-.87,3.43.54,7.12-.94,10.51-1.85-1.66-1.39-3.91-1.38-6,0-5.86,0-11.69-2.52-17.15a44.08,44.08,0,0,0-4.7-10.43,8.91,8.91,0,0,1-1.5-4.13A90.29,90.29,0,0,1,333,18c1.94-5.64,5.35-10.36,9.12-14.88a11,11,0,0,1,4-2.63H362.6c.51,1.37-.3,2.42-1,3.42a50.73,50.73,0,0,0-8.74,26.86A3.45,3.45,0,0,1,352.25,32.52Z"/><path class="cls-8" d="M.5,179.29c12.05.2,22.31,5.24,31.74,12.16,3.73,2.73,5.64,7,6.72,11.34,2.56,10.29,2.16,20.46-.47,30.86-3.64,14.37-12.06,26.22-18.94,38.9-5.42,10-11.7,19.52-15.75,30.23-1.2,3.2-1.08,6.84-3.29,9.68l0-26.23a73.06,73.06,0,0,1,5.06-13.89c2.83-6,4.91-12.36,8.66-17.91a27.9,27.9,0,0,0,9.94-11.26c1.6-3.39,2.54-6.7,1.13-10.35a6.07,6.07,0,0,1-.29-3.3c1.51-4.26.81-8.7,1.05-13.06.1-2.51,1-4.15,3.87-4.51,2.6-.32,3.83-2.31,3.61-4.86a17.85,17.85,0,0,0-8.46-13.82c-3.09-2-6.21-.37-7,3.21-.25,1.2-.19,2.52-1.36,3.35-1.66.63-3.11-.26-4.62-.65A31.25,31.25,0,0,0,3.78,198c-1.18,0-2.5.38-3.26-1l0-1.07c4.3-5.12,4.3-5.12,0-11.46Z"/><path class="cls-44" d="M328.8,55.11c2.26,4.4,5,8.57,6.33,13.42a31.37,31.37,0,0,1-1.53,19.28c-.61,1.49-1.14,3-2.64,3.94-2.1.36-2.11-1.3-2.31-2.57a24.78,24.78,0,0,1-.13-6c1.34-15.51-5.67-26.56-18.42-34.49C301.34,43.29,292.53,38,282.94,34c-12.35-5.13-17.93-9.45-26.56-19.74,4.22,11,6,22.68,7.15,34.41.69,6.8,1.9,13.58,1.54,20.45-.09,1.76.29,3.94-2.37,4.38a1.5,1.5,0,0,1-1-.58C260,47.45,255.49,22.77,242.15.46h16.38a20.1,20.1,0,0,1,5,4.51C272,15.12,281.81,23.67,294.2,28.86c2.53,1.06,4.87,2.51,7.41,3.55a118,118,0,0,1,12.79,7.64c2.48,2.1,5,4.22,7.59,6.12C324.68,48.83,327.62,51.3,328.8,55.11Z"/><path class="cls-2" d="M301.3,33.28C283.65,26.77,269.52,15.67,258.53.47l51,0c1,1.32.33,2.63-.11,3.88a119.4,119.4,0,0,0-5.3,24C303.85,30.45,303.38,32.3,301.3,33.28Z"/><path class="cls-45" d="M14.63,254.94,6.38,272.81c-1.93.49-3.76,1.82-5.88.73l0-14.22c2.2-5,6.31-8.58,9.21-13.07,1.74-2.7,3.69-5.27,5.39-8.43-3.35-1-6.45-.53-9.56.07-1.66.32-3.28,1.34-5.06.45V215.9c1.63-2.59,4.24-3.69,7-4.55a136.39,136.39,0,0,1,16.93-4c2.29.88,2.45,2.88,2.58,4.89.07,1.22-.35,2.48.3,3.65-.06,4.79,1.13,9.71-1.5,14.23C24.39,239.45,20.22,247.52,14.63,254.94Z"/><path class="cls-46" d="M141.2,55.78l3.63-5.24c1.94-4.43,6.34-6.1,9.88-8.69,1.69-1.24,3.64-2.15,5.38-3.35,4.93-3,10.37-5.17,15-8.74,3.24-2.24,6.34-4.69,9.58-6.93,2.55-2,5-4.07,7.61-6,5.21-4.13,10-8.69,14.83-13.27A33.52,33.52,0,0,1,210.75.47L216,.55C212.35,7.4,206.18,12,200.71,17.21,187.52,29.74,173,40.58,158.19,51.16c-16.11,11.55-17.45,32.63-8.39,46.11a3.63,3.63,0,0,1,.32,1.06c-.89,2.46-2.41,2.17-4,.8s-2.47-3.37-3.44-5.25c-4.55-8.87-5.82-18.34-5.06-28.16C137.91,62.11,138.62,58.59,141.2,55.78Z"/><path class="cls-32" d="M328.8,55.11,321.45,47c-3-3.05-3.41-7-3.84-11-1.15-10.38-.8-20.56,4-30.15,1.06-2.11,1.89-4.37,4.34-5.33h20.15A51.46,51.46,0,0,0,331.83,26c-1.61,7.37-3.07,14.76-2.84,22.38C329.06,50.65,328.87,52.88,328.8,55.11Z"/><path class="cls-3" d="M160.6,39.31c-5.36,3.6-10.86,7-15.77,11.23-1.39-1.88-.53-4.06-.65-6.06-1-16.06-5.55-30.83-15-44h10.48A8.13,8.13,0,0,1,142.79,3,95.65,95.65,0,0,1,160.47,35.4C160.86,36.68,161.53,38,160.6,39.31Z"/><path class="cls-47" d="M160.6,39.31C156.52,25.8,150.26,13.46,141,2.74A15,15,0,0,1,139.64.52h11.9A64.38,64.38,0,0,1,169,26.08c1.07,2.8,1.92,5.15,5.6,3.62.42-.17.93.24,1.24.67C171.18,34.13,165.79,36.54,160.6,39.31Z"/><path class="cls-32" d="M175.79,30.37c-.25,0-.57-.1-.74,0-4.42,2.87-5.62.58-7.05-3.53a59,59,0,0,0-13.68-22A10.15,10.15,0,0,1,151.54.53l9,0C168.4,3.66,174.76,9,180.65,14.85c2.38,2.38,4.26,5.18,4.49,8.74Z"/><path class="cls-47" d="M185.14,23.59c-2.26-.86-1.61-3.35-2.76-4.93-4.79-6.58-11.48-10.85-18.07-15.25C163,2.52,161.4,2,160.54.5h21.75c5.23,4.63,9.21,10,10.44,17.1A52.14,52.14,0,0,1,185.14,23.59Z"/><path class="cls-27" d="M301.3,33.28c2.78-6.53,2.35-13.73,4.31-20.45,1.21-4.15,2.54-8.24,3.93-12.32H317a3.61,3.61,0,0,1-.1,3.22c-4.3,11-4.1,22.23-2.18,33.62.2,1.15,1.52,2.89-.79,3.62Z"/><path class="cls-47" d="M313.88,41c-.31-4.12-1.1-8.17-1.53-12.28A51.8,51.8,0,0,1,317,.52h9c-8.26,12.92-9.12,26.93-6,41.49.36,1.68,1,3.31,1.47,5Z"/><path class="cls-6" d="M24.44,207.69c-.23,1-.91,1.33-1.87,1.47C14.86,210.26,7.36,212,.5,215.9q0-9.48,0-19a29.68,29.68,0,0,1,16.32,2.57C20.61,201.09,24.12,202.91,24.44,207.69Z"/><path class="cls-48" d="M352.25,32.52C351.11,20.36,355.49,10,362.6.5h23.26c-7,2.89-13.95,5.62-19.75,10.76-6,5.3-10.79,11.2-12.43,19.22A2.62,2.62,0,0,1,352.25,32.52Z"/><path class="cls-49" d="M192.73,17.61C190,11.47,185.94,6.11,182.29.51l28.46,0C205.76,7.26,199.35,12.55,192.73,17.61Z"/><path class="cls-50" d="M.5,169.53a33.33,33.33,0,0,0,7-.89c11.22-1.82,19.81.25,26.55,9.5,1,1.34,1.26,2.79.17,4.09s-2.18.22-3.28-.33c-8-4-16.73-6.33-25.22-9.16-1.58-.52-3.44-.18-5.18-.24C.49,171.51.49,170.52.5,169.53Z"/><path class="cls-51" d="M.5,238.34c4.76-2.3,9.85-2.35,15-2.2,1.3,0,2.46.26,1.26,1.92C11.52,245.29,7.1,253.13.52,259.32Q.52,248.84.5,238.34Z"/><path class="cls-52" d="M.5,273.54c2-.34,3.72-2.09,5.88-.73-1.92,4.5-3.23,9.25-5.89,13.42Q.49,279.89.5,273.54Z"/><path class="cls-53" d="M.48,184.41c3.28,1.31,4.9,3.63,4.45,7.23-.33,2.6-1.91,3.9-4.43,4.23Q.5,190.14.48,184.41Z"/><path class="cls-43" d="M103.6,138A146.55,146.55,0,0,1,131,114.74a77.17,77.17,0,0,0,6.37-5.09c15.35-12.26,33.41-18.66,52-23.56A188.84,188.84,0,0,1,245,80c31,1.21,60.39,8.28,87.44,24,2.84,1.65,5.16,3.91,7.78,5.8,7.19,6.52,16,10.91,23,17.76,1.58,1.56,3.19,3.1,4.78,4.64,8,9.22,15.81,18.55,21.62,29.38,6.95,13,11.6,26.65,12.88,41.36,3.28,37.85-11.5,68.37-38.44,93.83-16.55,15.64-36,26.52-57.4,33.94a161,161,0,0,1-29.22,7.52c-.38-3.84.25-7.81-1.46-11.47a2.81,2.81,0,0,1-1-1.93c.48-6.86-2.45-13.44-1.62-20.31a6.13,6.13,0,0,1,.73-3.2c1.19-2,.79-3.76-.62-5.43a8.71,8.71,0,0,1-1.45-2.7,53.18,53.18,0,0,1-.05-14.64c.31-1.21,1.33-1.67,2.31-2.21,1.39-.76,2.3-1.83,2-3.57,0-2.46-2.24-4-2.77-6.2-.69-2.83,1.07-5.24,1.32-7.9.08-1.15,0-2.31.11-3.46-.08-1.69,1.82-2.89,1.17-4.73-.28-1.72-1-3.33-1.19-5.08-.55-5.93.07-12-1.57-17.79a5.39,5.39,0,0,0-1-2.58c-.59-1.47-.4-3.21-1.52-4.5a28.07,28.07,0,0,0-4.52-10.19c-5.89-10-14.29-16.69-26-16.9-14.7-.26-25,6.59-30.81,20.89-.67,1.79-1.77,3.42-2.06,5.37a4.63,4.63,0,0,1-.4,1.5c-.47,1.1-1.52,1.84-1.85,3a13.7,13.7,0,0,0-.92,3.5c-.57,1.19-.46,2.58-1.15,3.73-1.63,2.73-.6,5.71-.84,8.57a18.37,18.37,0,0,1,0,5.39,7.54,7.54,0,0,1-.2,1.71c-2.47,3.23.2,5.56,1.44,8.14a4.72,4.72,0,0,1,.27,1.75,33.79,33.79,0,0,1-.16,10,12,12,0,0,1-1.59,3.15c-2,2.38-1.57,4.37,1,6a4.29,4.29,0,0,1,2,2c1,5,.65,9.94.18,14.92a14.26,14.26,0,0,1-1.45,4.09c-1.32,2.14.41,4.27,0,6.41.37,5.29.84,10.54-1.2,15.68-.93,2.36.25,5.21-1.32,7.53-.09.55-.17,1.09-.26,1.64a14,14,0,0,0-1,6.91c.14,3.26-1.43,2.91-3.38,2.48a216.53,216.53,0,0,1-25.92-7.1c-15.25-5.37-29.68-12.38-42.73-21.91C100,288.4,80.58,262.33,75.45,227.51c-4.31-29.3,3.82-55.7,20.93-79.58C98.76,144.61,101.85,141.8,103.6,138Z"/><path class="cls-54" d="M340.17,109.71c-2.69-.48-4.59-2.45-6.79-3.77-18.06-10.85-37.63-17.68-58.22-21.42a198.7,198.7,0,0,0-58.34-2c-23.67,2.69-46.08,9.09-67.16,20.2-4.17,2.2-7.79,5.36-12.3,7,3.21-2.89,2.31-5.35-.3-8.26a19.8,19.8,0,0,1-4.43-10.89c-1.37-10.73-1.35-21.33,4.75-30.92,1-1.5,1.75-3.34,3.82-3.8-4.43,14.66-3,28.59,5.05,41.75,1.09,1.79,2.11,2.8,3.87.8,11.31-6.92,23.57-11.78,35.91-16.41a105,105,0,0,1,13.68-3.71c2.64-.59,3.62-1.7,3.56-4.53-.42-19.87,4.11-39,9.28-58,.29-1.07.22-2.58,2.14-3.07-.43,5.61-1,11.07-1.24,16.55-.66,14.16-1.58,28.33.93,42.44.38,2.18,1.23,3.09,3.43,2.8,14.2-1.91,28.45-2.82,42.77-1.48a6,6,0,0,0,1.12-.07,5.25,5.25,0,0,0,.63.22c6.45-1,12.53.9,18.53,2.7,13.27,4,26.26,8.69,38.15,15.94,3.9,2.38,7.56,4.13,11.36,0,3.42-5.94,4.4-12.45,4.51-19.17,0-1.35.17-2.7.25-4,3.7,7.65,2.72,15.85,2.89,23.92a21,21,0,0,1-.64,2.87C335.43,100.69,334.88,105.75,340.17,109.71Z"/><path class="cls-55" d="M381.44,311a30.81,30.81,0,0,1,8.87.81c2.73.77,3.93,2.21,2,4.83-2.54,3.49-3.94,7.74-7.27,10.69a31,31,0,0,1-12.85-1.56c-1.07-.35-2.62-.31-2.81-2Q375.42,317.37,381.44,311Z"/><path class="cls-4" d="M60.15,212.84c2.61,0,4.83,1.93,7.52,1.54-1.24,5.77-.54,11.61-.53,17.43C69,243.74,72,255.45,73.89,267.37c-1.49,3.75.54,7.35.46,11,0,1.45.65,3.19-.77,4.2-1.59,1.13-3.08-.09-4.48-.83a104.69,104.69,0,0,0-17.83-7.63c-5-1.56-5.58-2.67-5.82-7.75a100.59,100.59,0,0,1,9.69-48.14C56.2,216,56.91,213.18,60.15,212.84Z"/><path class="cls-56" d="M73,267.5c-2.66-9.28-3.77-18.87-5.78-28.29-.5-2.36-.07-4.93-.06-7.4,2.35,1.74,1.64,4.57,2.15,6.84,5.52,24.13,16.22,45.87,30.05,66.21a185.55,185.55,0,0,0,27.35,32.49c.55.51,2,.86,1,2.19l-.88-.4c-3.58-.44-5.61-3.41-8.39-5.15-1.26-.78-2.21-2-3.49-2.74-7.72-6.49-15.25-13.17-20.8-21.74-.44-.69-1.28-1.25-1-2.28L87.45,299c-2-.27-2.75-2-3.58-3.48a144.23,144.23,0,0,1-10.41-22.67A8.94,8.94,0,0,1,73,267.5Z"/><path class="cls-57" d="M205.32,388.59c-4.39.35-7.84-2.23-11.63-3.76a84.9,84.9,0,0,1,0-13.81c.2-3.22,1.59-4.7,5.12-3.62,1.81.55,3.77,1.44,5.79.5l4.64,6.79c-.66,1.7,0,3.42,0,5.11A10.77,10.77,0,0,1,205.32,388.59Z"/><path class="cls-41" d="M121,401.65c-1.28,5.05-.17,10.74-2.19,16.14a15.37,15.37,0,0,1-3.52,5.57,7.05,7.05,0,0,1-7.91,1.78c-2.84-1.12-5.08-3.46-5.11-6.77,0-4.29-.59-8.61,1.12-12.87a22.14,22.14,0,0,0,1.89-7.53c.15-4.6,3.23-8,7.1-8.29,4-.35,7.3,2.59,8.19,7.49C120.79,398.51,120.82,399.88,121,401.65Z"/><path class="cls-41" d="M75.19,458.34a47.36,47.36,0,0,1-5.59,0,7.09,7.09,0,0,1-6.44-6.55c-.23-4.61,1.59-7.44,5.58-8.38,5.44-1.28,10.88-2.45,16.21-4.22,4.26-1.41,7.62.11,10,3.82,2.13,3.35,1.71,6-1.46,9.75-3.73,4.36-9.09,4.69-14.17,5.66a22.42,22.42,0,0,1-4.1,0Z"/><path class="cls-58" d="M36.33,436.12A6.54,6.54,0,0,1,33,442.79a7.61,7.61,0,0,1-8.48,0,48,48,0,0,1-11.84-10.71c-2.11-2.68-3.16-5.73-.8-8.86,2.13-2.82,4.68-2.87,9-1.13,4.11,1.65,7.6,4.23,11.18,6.67C34.65,430.48,36.72,432.7,36.33,436.12Z"/><path class="cls-59" d="M115.65,330.58l11.14,8.56c-2.83,2.07-4.72,4.95-6.68,7.77-3.28-2.21-5.28-5.7-8.2-8.26l-.77-1.44C112.23,334.73,113.34,332.25,115.65,330.58Z"/><path class="cls-60" d="M261,376.25c-1.61-.41-2.87.48-4.17,1.15a25.71,25.71,0,0,1-10.07,3.25l-.3-.43c1.71-2.89,3.23-5.85,2.69-9.39a13,13,0,0,0,.86-2.78c.28-1,.56-2.3,2.18-1.62.77.89.74,2,1,3.08.83,3.8,2.15,4.45,5.93,2.94,3.9-2.57,5-5.42,3.84-9.83-.5-1.93-1.7-3.62-1.85-5.65.1-2.07,1.27-2.89,3.26-3.21a7.34,7.34,0,0,0,5.9-4.87,10.84,10.84,0,0,1,.27-1.51c1.42-3.94-.85-6.78-2.92-9.66-.63-2,.1-3,2.17-2.41.92.25,1.59.61,2.13-.45a.72.72,0,0,1,.89.05c.28,11.66.77,23.34-5.76,33.87A28.87,28.87,0,0,1,261,376.25Z"/><path class="cls-61" d="M272.8,334.91l-.66-.08c-1-2.38-2.59-2.54-4.6-1.14a12.17,12.17,0,0,1-2.44,1.71c-2.58,0-5.14-.14-6.83-2.56.05-4.09-.74-8.21.38-12.26.82-1.41,1.84-.85,2.8-.23a7.82,7.82,0,0,1,2.6,2.58c1.91,3.4,4.94,4.84,8.64,5.23Q272.75,331.54,272.8,334.91Z"/><path class="cls-62" d="M272.69,328.16c-3.33,2.1-5.58.16-7.57-2.18-1.75-2.06-3.15-4.42-5.54-5.87-2.79-.37-4.87-2.33-7.41-3.24-3.58-2.72-3.65-3.49-.46-5.06,4.74.54,8.3,3.2,11.19,6.71,3.08,3.73,6.34,6.86,11.61,6.63.24.57.29,1.08-.34,1.44Z"/><path class="cls-63" d="M274.17,326.59l.17-1.14c-.18-3.54-1.84-6.59-3.23-9.73.15-3.86-.89-7.79.74-11.56a2.06,2.06,0,0,1,2.3-1c.44,7.85,2.11,15.6,1.75,23.51Z"/><path class="cls-64" d="M230.31,380.39c-4.05.25-7.23-2.22-10.77-3.5a8.86,8.86,0,0,0-3.54-.83c-9.35-9.61-12.29-21.34-11.34-34.36-.12-1,.36-.94,1-.62,1.37,1.64.95,3.64,1.08,5.52-.3,1.34,1.16,2,1.3,3.13.16,2.95,2.65,3.26,4.65,4,1.47.58,3.23.51,4.22,2.07.22,2-1.26,3.4-2,5.05-2.31,5.16-1.6,8.1,2.93,11.47,1.51,1.63,3.47.84,5.25.95,1.58.32,2.66-1.73,4.34-.94C228.36,375.06,229.72,377.59,230.31,380.39Z"/><path class="cls-65" d="M205.48,340.92l-.82.78a19.56,19.56,0,0,1,.8-12.87c3.51-1,6-3.22,8-6.16,1-1.47,2.22-3.23,4.57-2,1.26,1.17,1.23,2.68,1,4.18a22.23,22.23,0,0,0,.25,7.8c-1.39,2.74-4.15,2.48-6.57,3-2.19-.45-3.61-4.09-6-2.41-2,1.39-.53,4.37-.71,6.63a2.22,2.22,0,0,1-.2.71Z"/><path class="cls-66" d="M217.47,320.63c-2.42,1-3.62,3.22-5.12,5.15-1.75,2.26-3.73,4-6.89,3.05l-2.18-2.19a.65.65,0,0,1,0-1c5.43-.29,8.3-4.41,11.63-7.82,3-3.12,6.42-5.51,10.88-6,1.23.07,2.34.52,2.28,1.89-.08,1.93-1.79,2.47-3.22,3.17C222.13,317.61,220.3,320.1,217.47,320.63Z"/><path class="cls-37" d="M203.38,326a2,2,0,0,0-.1.64c-.74-.18-1.47-.53-2.19.05q.84-11.9,1.69-23.79c1.61-.4,2.6.46,3.41,1.69a4.79,4.79,0,0,1,.38,1.79,31.11,31.11,0,0,1-.1,9.34A23.44,23.44,0,0,0,203.38,326Z"/><path class="cls-67" d="M230.31,380.39a8.94,8.94,0,0,1-3.22-8c-1.68-2.17.59-4,.59-6a13,13,0,0,1,1.06-2.73c1.27-1.78,2.17-4.12,5.1-3.46.39.34.83.78.73,1.24-1.08,5.2.14,10.29.62,15.42a4.5,4.5,0,0,1-1.11,3.81,4,4,0,0,1-3.17-.05A1.7,1.7,0,0,0,230.31,380.39Z"/><path class="cls-68" d="M230.91,380.62l3.13-.09c2.33-1.64,1.12-4.62,2.5-6.63a3.73,3.73,0,0,1,4.14-.31c.76,1,.5,2.12.49,3.2,0,2,.91,2.93,3,2.67a2.94,2.94,0,0,1,2.53,1l.12.19A24.75,24.75,0,0,1,230.91,380.62Z"/><path class="cls-69" d="M58,75.31c.11,1.55-.29,2.84-2.11,2.84-4,0-8,.45-11.94-.27C32.67,75.84,28.31,67.33,26,57.69a49.22,49.22,0,0,1,1.52-28,22.44,22.44,0,0,1,4.34-6.9C36.26,17.74,40.28,12.21,46,8.5c7.78-5.06,16.38-5.77,25.08-3,15.06,4.8,25.26,15.26,31.43,29.4,4.31,9.91,4.59,20.65,2.31,31.16a83.33,83.33,0,0,1-26.91,45.78c-.61.53-1.07,1.43-2.68,1,3.41-5.3,5.56-11,8.07-16.63,7.32-16.29,12-33.13,10.54-51.13-.57-7.26-2.29-14.59-9.39-18.52a24.52,24.52,0,0,0-19.5-1.8c-2.33.72-4.91,1-7,2.51-.5,1.85-2.14,2.06-3.61,2.53-7.81,1.57-12,7.18-14.67,14-2,5.12-3,10.52.41,15.64,3.19,5.1,7.32,9,13.2,10.89C55.56,71,58.07,72.1,58,75.31Z"/><path class="cls-3" d="M54.31,28.88,58,27.26c5.59-.53,11.15-1.32,16.81-.13a22.33,22.33,0,0,1,5.63,2.49C71.93,34.2,66,41.15,61.45,49.5c-3.06,5.64-2.61,9.71,1.91,14.22,4,4,7.44,8,5.22,14.36C67,82.56,61.79,85.52,57.35,84c-.35-.13-.51-.77-.76-1.17C58,80.47,59.45,78.16,58,75.31a8.44,8.44,0,0,0-5.12-4.1c-6.17-1.65-10.39-5.61-13.45-11C35.26,48.26,42,34,54.31,28.88Z"/><path class="cls-70" d="M13.82,161.34a42.48,42.48,0,0,1-8.21-4.55c.25-2.63,2.63-3.17,4.33-3.41,6.19-.85,11.39-4.1,16.91-6.51,9.53-4.17,18.86-8.77,28.29-13.17a22.31,22.31,0,0,1,2.56-.79c-5.08,7.75-12.05,12.52-19.17,17.19a173.88,173.88,0,0,1-17.59,9.57A13.26,13.26,0,0,1,13.82,161.34Z"/><path class="cls-2" d="M76.82,317.77c-3.72,8.83-7.42,17.69-8.44,27.32-1.19,11.17-.69,22.38-.27,33.57a67.31,67.31,0,0,1-.7,13.35c-1.24,7.7-8.35,11.37-17.15,10.09-9-1.31-14.57-7.53-20.4-13.45-8.25-8.36-11.19-18.64-11.59-30.18-.53-15.05,3.17-29.35,6.71-43.71,1.48-6,3.06-12,4.6-18,9.11.67,18,2.06,26.22,6.5,6,3.27,11.78,7,17.47,10.79C74.69,315,76.18,316,76.82,317.77Z"/><path class="cls-3" d="M76.82,317.77c-3.83-2.47-7.71-4.87-11.49-7.43-10.3-7-21.27-12.09-34-12-1.48,0-1.71-.46-1.71-1.61C32,287,35.74,277.66,38.63,268c4.08-13.64,8.52-27.21,10.69-41.35.88-5.8.22-11.66.5-17.49,3.42,1.27,7.44.87,10.33,3.64-5.6,6.93-7.78,15.35-10.31,23.61-3.21,10.5-3.19,21.3-3.11,32.12,0,2,.82,3.08,2.55,3.57a102.14,102.14,0,0,1,23.18,10c.17.1.47,0,1-.07-.38-3.43-.84-6.84-1.1-10.27-.1-1.43-.53-3,.67-4.28A125.18,125.18,0,0,0,87.45,299c-.52,3.14-3.45,5-4.13,8.1a14.55,14.55,0,0,1-5.1,9.08Z"/><path class="cls-71" d="M78.22,316.22a40.54,40.54,0,0,1,5.1-9.08c1.45-.06,2,.8,2.75,2,3.6,6,5.86,12.63,9.65,18.51.54.84.4,2.16.46,3.26.72,11.93-2,23.36-4.82,34.82-2.08,8.42-4.48,16.73-7.08,25-2.49,8-7.4,14.26-13.22,20-.87.86-2.11,1.91-3.28,1s.35-2,.72-2.86c2.6-6.15,3.52-12.51,3.86-19.18.63-12.06-.14-24.09-.19-36.13,0-10.73,2.64-20.86,5.55-31C78.33,320.39,78.14,318.32,78.22,316.22Z"/><path class="cls-72" d="M16.8,388.61c-4.68-3-6.45-8-8.8-12.58-6.08-11.84-5.33-24.29-3.52-37A196.64,196.64,0,0,1,9.56,316,208.49,208.49,0,0,1,20.14,285.8C23.56,278,28.38,271,32.71,263.6c.08,3.39-1.63,6.29-3,9.19A198.41,198.41,0,0,0,15.2,316.3c-1.16,5.77-1.84,11.63-3.08,17.31-2.49,11.38-1.09,22.76-1,34.1,0,6.43,2.32,12.84,5,18.87C16.39,387.23,16.57,387.93,16.8,388.61Z"/><path class="cls-73" d="M115.65,330.58c-1,2.57-1.92,5.17-4.51,6.63-6.08-9.13-13.18-17.6-17.84-27.64-.35-.74-1.08-1.48-.2-2.34A162.19,162.19,0,0,0,115.65,330.58Z"/><path class="cls-74" d="M19.53,396.85c4.65,2.06,6.94,5.28,9.91,7.64a50.63,50.63,0,0,0,10.61,6c1,.43,2.37.72,2,2.23s-1.8,1.52-3,1.45c-4.23-.25-7.12-3.29-10.51-5.24C24.14,406.45,22.44,401.82,19.53,396.85Z"/><path class="cls-75" d="M165.26,52.74a2.87,2.87,0,0,1,2.66,3.18c0,1.65-4.73,5.71-6.51,5.48a3.34,3.34,0,0,1-3-3.64C158.42,55.7,162.34,52.63,165.26,52.74Z"/><path class="cls-76" d="M225,13.88c-.92,2.09-.89,5.4-3.9,5.54-2.33.1-2.17-2.53-2.17-4.42,0-2.39.92-4.37,3.36-4.61C224.19,10.2,224.84,12,225,13.88Z"/><path class="cls-77" d="M175.7,52.75c-1.36,0-2.37-.55-2.23-1.91a2.73,2.73,0,0,1,2.7-2.54c1.24-.09,2.28.52,2.16,1.89A2.88,2.88,0,0,1,175.7,52.75Z"/><path class="cls-78" d="M174.51,63.45A3.55,3.55,0,0,1,172,65.93c-1,.24-1.66-.59-1.59-1.56a2.52,2.52,0,0,1,2.37-2.44A1.46,1.46,0,0,1,174.51,63.45Z"/><path class="cls-79" d="M227.17,29.88c-.22.88-.55,1.77-1.64,1.65a1.4,1.4,0,0,1-1.14-1.67,1.58,1.58,0,0,1,1.68-1.63C227,28.27,227.2,29.05,227.17,29.88Z"/><path class="cls-13" d="M24.44,207.69c-1.55-3.64-5.17-5.35-7.6-8.18,0-3-.93-6.49,3-7.95s6.7.42,9.14,3.25c3.31,3.83,6,7.9,5.8,13.28-.15,3.28-2.2,5.69-5.36,5.24-2.88-.41-1.93,1.35-2.16,2.59C25.68,213.4,26.17,210.16,24.44,207.69Z"/><path class="cls-80" d="M14.63,254.94c3.75-8.25,8.12-16.22,11.15-24.79,1.51,4.54,2.36,9-.38,13.5S20,252.91,14.63,254.94Z"/><path class="cls-43" d="M330.37,91.75c-.53.84-1.08,1.67-1.59,2.52-1.5,2.49-3,2.74-5.7,1.11a171.46,171.46,0,0,0-55.67-21.52c-1.69-.34-3.52.37-5.08-.75,2-.39,1.57-2,1.54-3.27a262.05,262.05,0,0,0-2.56-28.93,130.94,130.94,0,0,0-7.34-30,37.18,37.18,0,0,1,7.89,7.45c6.25,7.19,14.35,11.3,22.84,15.07,13.1,5.83,25.74,12.61,36.3,22.46,5.82,5.43,8.32,12.72,8.76,20.69C330.05,81.65,329.11,86.74,330.37,91.75Z"/><path class="cls-81" d="M239.17,90.24a97.13,97.13,0,0,1,34.91,5,36,36,0,0,1,8.28,4.26c1.44,1,2.2,2,.5,3.52-7,6.27-10.89,14.34-13.94,23.07-3.11,8.94-17.9,18.66-27.39,18.71-8.26.05-16.37-.17-23.85-4.6a29.49,29.49,0,0,1-10.79-10.57c-4.59-7.83-8.68-16-15.73-22.1-3.06-2.64-.33-4.56,1.39-6.08,4.76-4.21,10.56-6.55,16.64-8.06,4.34-1.08,8.8-1.64,13.21-2.42C228,90,233.58,90.34,239.17,90.24Z"/><path class="cls-82" d="M311.76,241.62c-2.23-1.88-2.37-4.64-3-7.17-2.53-9.93-1.65-20-1.54-30.1.14-12,2.43-23.69,4.93-35.36a1.27,1.27,0,0,1,1-1c4.94-8.35,10.58-16.11,18.19-22.3a28.13,28.13,0,0,1,8.89-5.32c1-.33.22-.64.16-1,11.09-1.73,24.56,2.94,31.89,13.55a8,8,0,0,0,4.09,3c.59,5.17,2.1,10.24,1.69,15.52-.49,6.17-.61,12.37-1.49,18.51-.2,1.43-.51,3.1-1.94,3.28-1.94.25-1.48-1.84-2-3,0-5.13.39-10.25.17-15.37-.16-1-.18-2-.28-3-1.23-11.27-10.31-19-21.8-18.47a25.51,25.51,0,0,1-4.1,0c-9.72-.81-16.62,4.25-22.55,11-8.83,10.06-12.19,22.32-13.62,35.28-.95,9.76-1.38,19.5,1.77,29,1.59,4.82,4,6.55,9,6.7A36.74,36.74,0,0,0,329,235c10.72-1,19.52-6,27.26-13.2,1.42-1.33,2.47-3.63,5.13-2.83.69,1.56-.25,2.66-1.18,3.64C348.7,234.7,335,242.22,318,242.6A19.88,19.88,0,0,1,311.76,241.62Z"/><path class="cls-83" d="M165.12,242.85c-6,11.38-17.87,16.74-29.26,14.39C115.39,253,103,239.28,95,221.19a88.54,88.54,0,0,1-7.8-38.87,16.81,16.81,0,0,1,1.54-6.84c0,8,0,15,1.39,21.9A51.36,51.36,0,0,0,103.82,223c.61.63,1.22,1.35,2.21.6,2.59-.37,3.71,1.78,5,3.23,6.29,6.93,14.4,11,22.82,14.41a43.71,43.71,0,0,0,28.43,1.5C163.26,242.51,164.2,242.09,165.12,242.85Z"/><path class="cls-84" d="M372.88,222.2c4.2-1.46,6.05-5.28,8-8.65,5.49-9.3,7.8-19.55,7.94-30.32,0-2,0-4,0-6.39,1.92,5,2.24,8.85.64,18.81-2,12.47-5.32,24.58-12.27,35.34-8.83,13.68-20.25,23.77-37,26.5-10.82,1.76-23.39-4.65-27.85-14.51,3.29-1.44,6.83-.37,9.64.55,6.38,2.1,12.16.17,17.9-1.41,12.08-3.34,22.72-9.31,30.74-19.3C371.16,222.19,371.73,220.92,372.88,222.2Z"/><path class="cls-85" d="M165.12,242.85c-12.25,4.82-24.17,3.1-35.82-2A61.51,61.51,0,0,1,106,223.63C92,207.87,89.72,189,92,169.09a18.15,18.15,0,0,1,7.1-12.4,2.94,2.94,0,0,1,1.65-.65c3.33-1.17,3.11,1.27,2.61,3-2.17,7.42-1.28,15-1.5,22.51-.1,3.52,1.14,6.87,2.2,10.21a2.65,2.65,0,0,1,1.43,2.07,56.92,56.92,0,0,0,12.7,25,7.28,7.28,0,0,1,1.14,1.92c1.14,3.8,4.63,5.42,7.37,7.6a62.3,62.3,0,0,0,23.41,11.21,28.35,28.35,0,0,0,12.6.11c2.69-.52,3.14.59,2.41,2.84A.52.52,0,0,1,165.12,242.85Z"/><path class="cls-86" d="M372.88,222.2A60.92,60.92,0,0,1,352,239c-5.35,2.59-11.11,4.18-16.89,5.8-6.48,1.81-12.43-.47-18.61-.42-1.57,0-2.42-1.84-4.09-1.38a1.16,1.16,0,0,1-.61-1.36c.14-.57.1-1.49,1-1.26,13.51,3.62,24.54-2.64,35.53-8.93a46.25,46.25,0,0,0,11.18-9.66c.83-.93,1.81-1.74,1.7-3.16-.87-1.87.58-3,1.42-4.28,4.43-6.61,8-13.58,9.5-21.5.19-1,.14-2.36,1.8-2.29l.33,2.53c1.8-2.19,1.62-4.63,1.75-6.64.49-8.16,1.82-16.35.15-24.52a27.48,27.48,0,0,0-1.1-3.16c-.46-1.35-.46-2.5,1.35-2.75,6.08,2.72,8,8.07,8.92,14.07a77.62,77.62,0,0,1,0,22.11c-1.16,10.43-5.27,19.69-11.28,28.16C373.52,221,373.28,221.61,372.88,222.2Z"/><path class="cls-28" d="M287.68,179.39c-1.16-9.13-.34-18.18.36-27.18a107.11,107.11,0,0,1,6.62-30.48c1.81-4.69,5.7-7.09,10.67-7.53,4.38-.4,7.06,2.16,8.72,5.76,1.92,4.18.4,8.33-1.89,11.66C301.94,146.49,292.55,161.73,287.68,179.39Z"/><path class="cls-87" d="M189.86,179.42C185.23,162,175.71,147.31,166,132.68c-2-3-3.41-6-3.24-9.7a8.61,8.61,0,0,1,5.59-8.11,9.37,9.37,0,0,1,9.51,1.13c5.67,4,6.63,10.28,8.11,16.26a146.61,146.61,0,0,1,3.92,39.61C189.8,174.38,189.86,176.9,189.86,179.42Z"/><path class="cls-88" d="M103.73,192l-.28,2.12-.64.08c-.71-4.14-1.76-8.25-2-12.41-.35-5.42.06-10.89-.14-16.33-.1-2.61,1.22-4.75,1.73-7.14.36-1.68.08-2.35-1.62-2.3a23.8,23.8,0,0,0,6-5.25c7.93-8.85,17.92-12.69,29.8-11.36-.16.37-.41.58-.84.43,0,.18.14.28.45.34,4.85.94,8.5,4,12,7.15a86,86,0,0,1,13.32,16c.53.8.56,2.39,2.25,1.89a39,39,0,0,1,3,12.93c.15,1.76,1.65,3.68-.6,5.17-2.54.1-2.91-2.07-3.57-3.68a54.75,54.75,0,0,0-10.17-16.38,30.8,30.8,0,0,0-18.24-10.11c-10-1.41-18.58,1.42-25.64,8.62-2.28,2.32-2.71,5.52-3.3,8.55-.47,2.43-.82,4.88-1.09,7.35a56.43,56.43,0,0,0,.54,10.23C104.84,189.39,105,190.86,103.73,192Z"/><path class="cls-44" d="M209.27,149.39c0,1.5,0,2.25,0,3-.09,4.26-1.76,6.76-4.89,7.35-3.34.63-6.38-1.55-7.89-5.42s-1.14-8.09-2-12.08a130.76,130.76,0,0,0-8.93-26.75,12.26,12.26,0,0,1-1-3.16,3.2,3.2,0,0,1,1.42-3.58c1.37-.8,2,.61,2.82,1.2,8,6,13.07,14.13,16.71,23.27C207.63,138.65,209.7,144.12,209.27,149.39Z"/><path class="cls-81" d="M269.11,147.11c.42-13,3.26-25.35,10.39-36.43a69.42,69.42,0,0,1,5.14-6.39c1.2-1.46,2.21-.88,2.84.47a9,9,0,0,1,1,6.16,291.62,291.62,0,0,0-6.73,39.27c-.47,4.16-4,7.45-7,7.07s-5.58-4.17-5.61-8.28Z"/><path class="cls-81" d="M266.4,200.29c-18.35-14.91-35.89-15.1-54.54-1,.49-3.8,2.65-6.54,4.26-9.4,5.76-10.18,16-17.8,29-14.39,5.54,1.46,9.38,5.49,12.92,9.62S263.74,194.28,266.4,200.29Z"/><path class="cls-89" d="M206.38,219.81c-.61-2.16,1.15-3.56,1.72-5.35a38.81,38.81,0,0,1,17.47-15.54c16.11-7.55,33.05.73,41,11.78,1.55,3,4.11,5.54,4.38,9.17a1,1,0,0,1-.59.8c-4.23-1.79-7,1.41-10.33,2.94-3-2.41-5.33-5.13-3.85-9.41a2.59,2.59,0,0,0-.36-2.11c-.83-1.66-.68-4.08-3.36-4.27a8.33,8.33,0,0,0-7.85,1.56c-.84.54-1.31,1.69-2.55,1.59-2.17-1.06-4.41-.74-6.66-.31a3.69,3.69,0,0,1-1.57-.26c-2.75-2.14-5.63-3.84-9.31-2.48-2.66.44-2.84,2.65-3.31,4.64a6.77,6.77,0,0,0-.14,3.29c.53,3.89-.45,5.47-4.19,7.19A23,23,0,0,0,206.38,219.81Z"/><path class="cls-90" d="M175.5,260c-.27,5.27-4.15,7.73-8.21,9.41-7.39,3-15.26,3.64-23.21,3a1.6,1.6,0,0,1-1.46-1c-4.78-1.43-9.71-2.33-14.21-4.64-10.72-5.48-19.25-13.53-26.83-22.68-2-2.37-3.87-4.82-5.72-7.29C93,234,91.5,230.3,90.05,226.61c-2.51-2.86-2.74-6.6-4.08-9.92l.8-.46,4.85,8.69c5.33,7.82,11,15.39,18.23,21.55,2.86,2.42,6,4.57,8.93,6.85a3,3,0,0,0,1.61,1.92A63.2,63.2,0,0,0,145,264.56c5.56.79,11.07.44,16.16-2.36,4-1.79,8.52-2.14,12.47-4.24C175.36,257,175.57,258.7,175.5,260Z"/><path class="cls-90" d="M175.19,287.42a7.56,7.56,0,0,1-1,3.44c-2.23,5.19-7.16,6.94-11.81,8.54a33.71,33.71,0,0,1-15.26,2c-4-1.06-8.28-.51-12.3-2a63.79,63.79,0,0,1-27-18.41c-2.41-2.79-5.22-5.21-7.54-8.08-3.83-4.15-6.32-9.13-8.62-14.22-1.9-2.19-2.31-4.89-3-8.4a12.59,12.59,0,0,1,3.92,6c6.57,9.83,13.8,19,23.79,25.73,1.32.88,2.43,2.13,4,2.74,11.3,8.16,23.52,11.9,37.36,7.67.95-.29,1.92-.51,2.86-.81.05,0,1.15.33.38-.47a3.09,3.09,0,0,1-.53-.5c4.29-.77,8-3,12-4.51C174.22,284.59,175.14,284.88,175.19,287.42Z"/><path class="cls-81" d="M243.12,170.27c-5.11-.27-10.08-.48-15-.83-2.75-.19-4.5-1.87-5.65-4.29s.63-3.86,2-5.15a18.84,18.84,0,0,1,17.89-4.92c3.91.86,8.18,1.32,10.9,5.08s1.58,7.79-2.81,9.51C247.94,170.62,245.45,170.17,243.12,170.27Z"/><path class="cls-91" d="M308.14,298.87c13.12,7.64,26.24,6.88,39.43,1.7,12.45-4.9,21.39-14.33,30.09-24,.65-.73,1-1.7,2.64-2.12-3.41,5.92-7.75,10.62-11.93,15.42-6.64,7.6-14.42,13.91-23.66,17.92C332.67,313,315.5,311.25,308.14,298.87Z"/><path class="cls-92" d="M378.35,245.25c-1.75,4-4.31,6.55-6.51,9.36-7.37,9.42-15.94,17.44-26.74,22.86-10.39,5.22-24.8,5.75-35.33-3.54a11.88,11.88,0,0,1-2.87-3.8c16.42,7.72,32,6.39,47-3.24a49.43,49.43,0,0,0,11.09-8c1.4-1.3,3.46-2.11,3.7-4.41l-2.54,1.88a15,15,0,0,0,1.54-2.07,4.27,4.27,0,0,1,1.76-1.86,6.79,6.79,0,0,0,1-.6,10.48,10.48,0,0,0-.65,1.49,16.38,16.38,0,0,0,6.46-6.51h0Z"/><path class="cls-91" d="M118.39,293.87c12.22,10.81,36.8,14.77,50.55,5-2.43,5.7-11.43,10.84-18.58,11.54-12.49,1.22-22.67-3.81-31.8-11.35A112.8,112.8,0,0,1,98.5,277c-.26-.37-.72-.72-.19-1.58,4.34,3.91,7.48,8.94,12.19,12.36A16.61,16.61,0,0,1,118.39,293.87Z"/><path class="cls-92" d="M117,262.47c14.45,12.86,38.25,17,54.34,6.58a22.79,22.79,0,0,1-8.38,8.13c-10.48,5.88-21,5-31.45-.08-12.35-6-21-16.22-29.38-26.61-.62-.77-2.16-1.69-.71-3.09.45.22-.07-.11.31.2C107.29,252.09,112.07,257.37,117,262.47Z"/><path class="cls-93" d="M178.47,173.49c-2.44-6.21-4.88-12.41-8.78-17.88-5.95-8.35-13.14-15.2-22.63-19.45-7.68-3.44-15.43-3.26-23.3-1-.94.27-1.8.91-3.41.25,8.82-5.71,17.87-8.43,27.69-4.91,12.87,4.6,21,14.21,25.92,26.7,2,5.22,3.61,10.64,5.4,16Z"/><path class="cls-94" d="M357.45,136c-10.28-3.49-20.33-3.85-30.05,1.48-12.39,6.8-20.81,17.1-26.11,30.08a37.46,37.46,0,0,1-2.7,5.65,89.15,89.15,0,0,1,6-19c4.67-10.32,12-18.33,22.46-23C338.05,126.43,348.11,129.57,357.45,136Z"/><path class="cls-95" d="M165.06,183c2.65-.9,1-3.24,1.6-4.81,1.76,1.78,1.06,4.15,1.48,6.26.59,3,.73,6.07,1.31,9.07.4,9.27,1.79,18.51,1,27.81-.47,5.28-.68,10.65-2.45,15.71a39.86,39.86,0,0,1-2.85,5.45c-.4-.7.52-2.53-1.26-2-8.23,2.46-15.87.27-23.34-2.87a68.41,68.41,0,0,1-20.24-13.14c-.93-.86-2.33-1.63-1.62-3.35,2.27-.48,3.26,1.4,4.57,2.57A43.64,43.64,0,0,0,147.61,235a39.58,39.58,0,0,0,8.56.53c5-.13,7.83-2.27,9.24-7.09a30.35,30.35,0,0,0,1.39-12.16c1.15-9.48-.15-18.77-2-28C164.42,186.53,163.57,184.68,165.06,183Z"/><path class="cls-96" d="M196.26,322.63c-3.29-27.17-1.44-53.42-1-80.4C199.29,249.75,200.19,315.18,196.26,322.63Z"/><path class="cls-96" d="M280.56,322.82a359.11,359.11,0,0,1,.61-79.87C282.81,269.58,283.67,296.21,280.56,322.82Z"/><path class="cls-97" d="M314.22,153.71c-3.67,10.94-6.83,22-8,33.53-.9,8.9-2.24,17.76-2,26.75,0,1.12,0,2.24-.07,3.36,0,.65-.25,1.29-1,1.32s-.95-.61-1.15-1.22c-1.16-3.61-1.12-7.42-1.27-11.09-.58-14.52.7-28.83,6.76-42.33A35.06,35.06,0,0,1,314.22,153.71Z"/><path class="cls-46" d="M163.94,154a49.6,49.6,0,0,1,8.35,16.23,102.12,102.12,0,0,1,3.28,46.06c-.14.92.16,2.39-1.19,2.34s-1-1.48-1-2.41c-.57-10.43-.7-20.9-2.39-31.21-1.62-9.8-3.45-19.59-7.32-28.84-.22-.54-.36-1.12-.55-1.68Z"/><path class="cls-98" d="M340.35,139.43l2.94.43c-13.33,5.5-21,16-28.41,26.78-.4.58-.41,1.92-1.77,1.37.68-10.81,7.61-17.69,15.36-23.9A19.1,19.1,0,0,1,340.35,139.43Z"/><path class="cls-99" d="M160.32,290.65c.6.14,1.51.11,1.71.48.38.68-.42,1-1,1.23-2.55,1-5.05,2.39-7.68,2.72a44.24,44.24,0,0,1-31.75-7.86c-.68-.48-2.3-.9-1.37-2.47,4.9,1.38,9.4,3.77,14.49,4.88,5.45,1.19,10.82,1.09,16.25,1.19C154.1,290.87,157.22,290.71,160.32,290.65Z"/><path class="cls-100" d="M161.1,262.2c1.46,1.4,0,1.46-.83,1.81-6.69,2.88-13.61,2.63-20.42.92a66.68,66.68,0,0,1-20-8.62c-2-1.3-2.18-1.62-1-3,4.24,1.75,8.52,3.43,12.7,5.31a15.82,15.82,0,0,0,3.56.83c1.4,1,3.18.53,4.62,1.29C146.79,261.6,153.91,262.48,161.1,262.2Z"/><path class="cls-101" d="M360,254c-11.88,8.44-24.56,14.18-39.64,11.22-2-.4-4.35-.75-5.56-2.94l-1.24-.78-1.22-.63h22a54.89,54.89,0,0,0,25-8.53,7.67,7.67,0,0,1,1.69-.59A2.21,2.21,0,0,1,360,254Z"/><path class="cls-102" d="M296.86,209.08c.67,6.23,1.68,12.38,2.84,18.52,1.06,5.61,1.88,11.26,3.69,16.7.29.87,1,1.94-.14,2.69s-2-.29-2.87-1c-4-3.2-4.61-7.82-4.86-12.41C295.09,225.43,295,217.25,296.86,209.08Z"/><path class="cls-103" d="M163.69,165.25l-.38,3a121.22,121.22,0,0,0-12.69-16.82,42.76,42.76,0,0,0-16.9-11.52l2.82-.44c8.72,0,14.2,5.67,19.58,11.4A28.47,28.47,0,0,1,163.69,165.25Z"/><path class="cls-104" d="M357.21,284.67c.56.39,1,.9.31,1.45-9.8,7.42-28.85,13-41.07,6.34-.79-.43-1.64-.65-1.59-1.77,1.47-1.15,3-.36,4.47-.07a168.89,168.89,0,0,0,17.86,0c2-.77,4.14-.48,6.09-1.28C348.33,289,352.54,286.17,357.21,284.67Z"/><path class="cls-105" d="M180.32,209.81a1.48,1.48,0,0,1,1.14,1.67c0,8.82.12,17.63-.06,26.44-.08,3.71-2.63,6.3-5.22,8.68a1.5,1.5,0,0,1-2,.33,1.61,1.61,0,0,1-.41-2,102.52,102.52,0,0,0,4-17.36C178.69,221.71,179.45,215.84,180.32,209.81Z"/><path class="cls-106" d="M206.38,219.81c4.19-1.92,7.55-.64,10.39,2.68,1.51.38,2.14,1.67,2.89,2.83.53.9,1.1,1.78,1.59,2.72a18.85,18.85,0,0,1,1.73,5.22c-.12,2.09-.58,4.12-3.23,2.47-4.58-2.87-9.21-5.72-12.65-10-1.12-1.4-2-2.85-1-4.7Z"/><path class="cls-107" d="M204.12,294,204,277.36a1.69,1.69,0,0,1,1.14-.49c.49.05-.13,0,.37,0,8.78,1.06,11.26,5.08,8.57,13.89A20.74,20.74,0,0,1,204.12,294Z"/><path class="cls-108" d="M273,277.31l0,16.56c-3.71-.2-7.22-1-10.24-3.34-.64-2.79-.17-5.61-.18-8.42,0-3,1.57-4.51,4.5-4.7,1.59-.11,3.14-.51,4.74-.61A2,2,0,0,1,273,277.31Z"/><path class="cls-109" d="M95.86,236.85c4,2.51,6.17,6.7,9.31,10,8.1,8.54,16.57,16.51,27.83,20.75a52.4,52.4,0,0,0,10,3c.11,0,.27.09.29.16.13.53-.33.55-.64.7-8.74.29-15.81-3.9-22.72-8.51a7.77,7.77,0,0,0-1.32-.58c-6.8-3.58-11.4-9.51-16.32-15.11C100.76,243.4,96.93,241,95.86,236.85Z"/><path class="cls-110" d="M274,226.35a54.47,54.47,0,0,1,1.71,19.48,23.62,23.62,0,0,1-8.41-.74c-1.64-3.83-2.14-7.53.71-11.16,1.29-1.64,2-3.69,3-5.52C271.67,227.28,272.11,225.74,274,226.35Z"/><path class="cls-111" d="M330.4,301.36c3.57-1.86,7.65-1.37,11.42-2.69,13-4.56,22.89-13.1,31.67-23.28,1.2-1.38,2-3.43,4.34-3.47-3.6,6.92-9,12.25-14.87,17.23a56.2,56.2,0,0,1-21.45,11.63A30.65,30.65,0,0,1,330.4,301.36Z"/><path class="cls-109" d="M369.8,253.31c-.93-.16-1.35.19-1.15,1.16-5.08,4.68-10,9.61-16.55,12.26-3.89.77-7.14,3.28-11.12,3.95a33.9,33.9,0,0,1-5.4.75,2.94,2.94,0,0,1-.74-.11c-.65-.26-.74-.58,0-.75,18.65-3.87,31.26-16.31,42.88-30.17,1.46-1.74,3.06-3.36,4.6-5-.88,4.19-4.47,6.76-6.25,10.41C374.48,248.69,371.77,250.68,369.8,253.31Z"/><path class="cls-112" d="M100.23,272.88c1.62-.36,2.08,1.1,2.88,1.93,7.14,7.39,14.07,15,23.4,19.81a51.14,51.14,0,0,0,17.86,5.84c1,.11,2-.06,2.71.89-9.51,1.12-17.8-2.1-25.6-7.13a5.8,5.8,0,0,0-1.35-.46c-3.9-1.35-6.63-4.13-9-7.35C107.17,282.16,102.76,278.27,100.23,272.88Z"/><path class="cls-113" d="M202.41,230.85a6.83,6.83,0,0,1,1-3.68c.2-.16.47-.36.65-.28,4.26,2,8.15,12.91,6.07,17a3.21,3.21,0,0,1-.73.83,19.31,19.31,0,0,1-8,1.31l-.3-6.07c1.1-1.65.52-3.52.65-5.29C201.83,233.39,201.5,232,202.41,230.85Z"/><path class="cls-114" d="M267.68,244.8c2.8-.61,5.53-.7,8,1a10.87,10.87,0,0,1,1.56,4.56,3.75,3.75,0,0,1-4.1,2.48c-4.79-.4-9.56-1.1-14.37-1.23-1,0-2-.36-2.21-1.56,1-4.32,4.71-4.88,8.07-6A4.15,4.15,0,0,1,267.68,244.8Z"/><path class="cls-115" d="M201.38,246.05c2.28-2.07,5.11-1.54,7.8-1.66a6.1,6.1,0,0,1,3.44,0c2,.48,4.11.89,5.77,2.22,1.41,1.12,3,2.27,2.13,4.53-5.69,1.14-11.48,1.37-17.24,1.74-2.77.18-3.29-1.43-2.42-5.54Z"/><path class="cls-116" d="M204.12,294c2.79-2.26,6.17-2.8,9.58-3.27,1-1.15,2.25-1.13,3.58-1a9.47,9.47,0,0,1,5,2.1c1,.86,2.19,1.93.36,3.21-4-.65-7.32,1.31-10.56,3.26a15.14,15.14,0,0,1-5.73,2.46c-3.32.42-4.27-.57-4-4.06C202.39,295.45,203.25,294.73,204.12,294Z"/><path class="cls-116" d="M274.31,267c1.52,1.69,3.69,3,3,5.88-1.12,2-3,2.14-4.9,1.84-4.88-.77-9.61-2.52-14.66-2.32-.64,0-1-.63-1.16-1.28.31-2.83,2.75-3.37,4.72-4.41,1.43-.19,2.7-1,4.16-1.08C268.62,264.9,271.81,263.69,274.31,267Z"/><path class="cls-117" d="M263.14,290.77c3.46.48,7,.77,9.85,3.1a2.08,2.08,0,0,1,1.37,1.42c.37,1.59,2,3.36.4,4.78s-4,1-6,.14c-3.07-1.32-5.72-3.49-9-4.45-.81-.23-1.47-.91-2.42-.81-3.28.33-3.08-1.15-1.68-3.25a4.65,4.65,0,0,1,2.75-1.42C260,290.17,261.7,289.23,263.14,290.77Z"/><path class="cls-118" d="M200.81,269.71a3.05,3.05,0,0,1,1.88-2.39c2.43-3.21,5.64-2.57,8.89-1.8a21.67,21.67,0,0,1,4,1.1c2.26,1.17,5.33,1.57,5,5.21-1.5,1.44-3.36.49-5,.67-3.73.4-7.28,1.68-11,2.12C200.61,275.11,199.41,273.42,200.81,269.71Z"/><path class="cls-119" d="M271.7,220.49c1.59,1,.95,2.73,1.18,4.16-.83,4.14-2.88,7.32-7,8.83a10.56,10.56,0,0,0-3.93,2.73c-1.08,1-2.23,1.94-3.32,2.94s-2.4,1.87-4,.91-1.66-2.37-1.54-3.9a4.74,4.74,0,0,1,1.81-3.86c1.61,2.59,2.75.46,4-.4,4.51-3.06,9.21-5.94,11.82-11,0-.18.07-.36.1-.55A.59.59,0,0,1,271.7,220.49Z"/><path class="cls-120" d="M265.35,266.72l-3.52.8A17.37,17.37,0,0,1,263.61,253c4.24-1.32,8.07.3,11.94,1.68l0,3.79c-.76.76-1.29-.11-1.94-.24-3.12-.64-4.79.42-5.69,3.48C267.36,263.54,267.47,265.7,265.35,266.72Z"/><path class="cls-121" d="M211.54,266.57a13.11,13.11,0,0,0-8.85.76l-.21-11.06C210.46,255.19,214.31,259.56,211.54,266.57Z"/><path class="cls-122" d="M265.35,266.72c1.12-1.71.92-3.77,1.43-5.65,1.21-4.46,5.21-5.72,8.74-2.59.69,3-1.55,5.55-1.21,8.49C271.35,265.76,268.35,266.05,265.35,266.72Z"/><path class="cls-123" d="M212.29,245c-1.09.05-2.2.19-3.11-.64,2.91-5.54-1.14-9.52-3.26-13.85-.57-1.17-.67-3-2.5-3.37-.64-1.52.68-2.6.9-3.92,3.16,4,6.31,8,11.3,10,.82.32,1,1.37.78,2.3-1.15,2.15-2.29,4.28-2.46,6.82A3,3,0,0,1,212.29,245Z"/><path class="cls-124" d="M216,235.22c-.2-1.57-1.7-1.85-2.7-2.16-5-1.52-7.73-5-9-9.81a4,4,0,0,1,1.81-2.26c.68,4.69,4.68,6.72,7.74,9.41,2.28,2,5,3.46,7.77,5.3l.4-2.57c2.41.63,2.38,2.56,2.22,4.42a2.93,2.93,0,0,1-2.13,2.79c-1.91.49-3-.87-4.08-2.05A6.45,6.45,0,0,1,216,235.22Z"/><path class="cls-125" d="M211.54,266.57a17.92,17.92,0,0,1-.58-3.28c0-4.63-1.91-7-6.76-6.36-.54.07-1.14-.43-1.72-.66,0-.47-.08-.94-.13-1.42,3.69-1.73,7.4-3.26,11.58-1.79,2.2,4.63,3.16,9.37,1.42,14.39Z"/><path class="cls-126" d="M261.46,235.35c.06-1.41,1.29-1.85,2.21-2.16,4.39-1.47,7.62-4.09,9.21-8.54.58.43,1.41.7,1.12,1.71-3.36,3.21-4.2,7.92-6.81,11.64-1,1.44.26,4.48.49,6.8l-2.78.3C262.51,242.29,262.42,238.66,261.46,235.35Z"/><path class="cls-127" d="M213.7,253.39c-3.88-.28-7.38,2.42-11.35,1.46-2.21-2.18-4.2-4.4-1.49-7.56.27,4.85.25,4.68,5.2,4.07s9.65-.78,14.48-1.15c1.76.15,2.26,1.28,2,2.8s-1.38,2-2.67,2C217.71,255,215.49,255,213.7,253.39Z"/><path class="cls-128" d="M256.32,292.22c.1.71-1.47,1.91-.34,1.88,4.9-.13,8.63,2.52,12.52,4.75a5.94,5.94,0,0,0,5.66.55c1.46-.76-.26-2.71.2-4.11,2.7,2.7,1.25,5.28-.21,7.87l-1.5,1.1c-2.88,1.84-4.68-.41-6.52-1.9-2.32-1.89-4.42-4-7.5-4.67a11.8,11.8,0,0,1-4-1.77,2.1,2.1,0,0,1-.86-2.59C254.2,292.19,255,291.49,256.32,292.22Z"/><path class="cls-129" d="M200.81,269.71c-.33,3.63.38,4.61,4,3.66a72.7,72.7,0,0,1,15.83-2.29,1.86,1.86,0,0,1,1.86,2.23c-.13,1.37-1.21,1.73-2.35,1.92-1.35.24-2.7-.17-4,.06-4-.25-7.53,1.89-11.44,2l-.33,0-.33,0C199.57,276.68,198.22,273.42,200.81,269.71Z"/><path class="cls-130" d="M275.55,254.69c-4.12,1.45-7.77-1.7-11.79-1.22-1.86,1.5-4.1,1.5-6.3,1.52-1.46,0-2.82-.64-3-2.21s.42-3.19,2.64-3c4.19,1.08,8.5,1,12.77,1.4,2.51.21,5.12,1.56,7.36-.75C278,252.33,276.28,253.32,275.55,254.69Z"/><path class="cls-131" d="M257.11,270.66c6.84-.09,13.21,4.06,20.24,2.19.26,3.14-1,4.81-4.33,4.46l-.63-.06c-3.74-.19-7.2-1.95-11-1.91-1.46-.29-3,.27-4.42-.17-1.17-.35-2-1-2-2.31S255.35,270.36,257.11,270.66Z"/><path class="cls-132" d="M202.38,296.72c.6,3.16,2.16,3.91,5.49,2.54,2.86-1.17,5.38-3,8.18-4.31a8.1,8.1,0,0,1,6.7-.41c-.46,2.86-3.13,2.26-4.87,3.12a34.61,34.61,0,0,0-7.64,5.23c-1.41,1.18-2.83,2.58-5,1.5l-2.51-1.49C202.54,300.84,200.45,298.91,202.38,296.72Z"/><path class="cls-133" d="M326.14,114.06c2.45.36,4.14,1.39,4.23,3.71s-1.71,3-3.53,2.94c-2.22-.07-4.35-1-4.41-3.58C322.38,114.75,324.55,114.47,326.14,114.06Z"/><path class="cls-134" d="M155.08,117.23a5.21,5.21,0,0,1-4.86,3.5,2.85,2.85,0,0,1-3.13-3.34c.18-2.53,2.11-3.19,4.26-3.2C153.34,114.17,154.49,115.37,155.08,117.23Z"/><path class="cls-135" d="M308.3,106.57c2,0,4,.5,4.14,2.83s-2,2.47-3.78,2.53c-2,.07-4.08-.39-4.14-2.72C304.48,107.07,306.36,106.5,308.3,106.57Z"/><path class="cls-136" d="M168.66,112c-1.91,0-3.93-.23-3.89-2.21,0-2.31,2-3.15,4.24-3.17,1.92,0,3.68.29,3.57,2.68C172.45,111.84,170.3,111.78,168.66,112Z"/><path class="cls-137" d="M102.25,247.26c4.45,3.13,7.46,7.77,11.73,11.13,1.55,1.22,3.66,2,4.59,4l-1.55.1c-6.21-4-11-9.43-15.58-15.07Z"/><path class="cls-138" d="M111.12,286.41l9,7.35-1.73.11a29.58,29.58,0,0,1-7.9-6.11C110.71,287.31,110.92,286.86,111.12,286.41Z"/><path class="cls-139" d="M271.71,220.48l-.85-.17c-.85-3.3-3.12-5.86-4.62-8.83-5.4-6-11.56-10.89-19.46-13.17-10.59-3.07-19.86,0-28.35,6.31a36.93,36.93,0,0,0-7.65,7.59c-.67.91-1.05,2.4-2.68,2.25,3.08-10,12.54-19,22.11-21.22,8.93-2.07,17.15-1.06,24.9,3.36a27.67,27.67,0,0,1,12,13.32C269.91,212.87,271.15,216.53,271.71,220.48Z"/><path class="cls-140" d="M388.15,224.92c-1.55,3.69-2.89,7.5-5.79,10.44-4.65,6.78-9.61,13.35-15.75,18.83S353.76,265,345.78,268.12c-3.35,1.31-6.88,2-10.2,3.31-3.5,1.92-7.35,1.29-11,1-6.37-.46-12.77-1.15-18.28-5.14a12,12,0,0,1-4.5-6.57c-.28-.92-.58-2,.45-2.72.83-.57,1.62-.13,2.43.29,2.42,1.23,4.84,2.52,7.65,2.59.47.19.94.34,1.41.53a4.7,4.7,0,0,1,1.93.77c8.79,4.3,17.7,3,26.41.09a73.92,73.92,0,0,0,17.16-8.65,7.76,7.76,0,0,0,1.79-1.87,105.86,105.86,0,0,0,25.63-28.35l3.51-7.08C391.13,219.67,389.92,222.37,388.15,224.92Z"/><path class="cls-140" d="M385.22,259.45c-1.89,4.49-4,8.85-7.39,12.47-3.78,3.41-6.5,7.75-10.11,11.35a67.94,67.94,0,0,1-27.48,16.94c-3.12,1-6.62.18-9.84,1.15a37.1,37.1,0,0,1-21.7-4.77c-3.44-1.93-6.06-4.6-6.74-8.69-.16-1-.23-2.14.59-2.81,1.1-.9,1.64.46,2.45.84,2.66,1.25,5.23,2.76,8.15,3.39.81.43,1.83.39,2.51,1.12,4.68,3.45,10.06,3.65,15.6,3.61,8.86-.06,16.55-3.75,24.23-7.51a3.45,3.45,0,0,0,1.72-1.87c11-6.81,19.54-16.08,26.59-26.81l3.48-6.29C388.12,254.7,386.74,257.09,385.22,259.45Z"/><path class="cls-141" d="M320.67,107.73c-.11,1.16-.72,1.88-1.88,1.81a2.17,2.17,0,0,1-2.19-2.07c-.09-1,.79-1.49,1.7-1.55A2.1,2.1,0,0,1,320.67,107.73Z"/><path class="cls-142" d="M160.54,107.63a1.87,1.87,0,0,1-1.85,1.92,1.6,1.6,0,0,1-1.75-1.86,1.81,1.81,0,0,1,3.6-.06Z"/><path class="cls-143" d="M261.58,356.59a52.05,52.05,0,0,1,2.8,6.49c1.31,4.61-.72,8.64-4.84,10.29-3.58.14-4.88-2.5-5.32-5.19-1.05-6.49-1.25-13.13-3.93-19.29a1.29,1.29,0,0,1,.89-1.77c3.41-.39,5,2.34,7.11,4.16C259.6,352.92,261.41,354.25,261.58,356.59Z"/><path class="cls-144" d="M258.85,332.72l6.5,2.25c1.59,0,1.94,1.62,3,2.36,2.73,3,5.4,6,3.1,10.49-2.73,1.72-4.57.17-6.3-1.73-1.12-1.23-1.74-3-3.6-3.44a3.87,3.87,0,0,1-1.3-1.64,4.91,4.91,0,0,1-.34-1A5.9,5.9,0,0,0,256,335.1c-.68-.25-1.38-.61-1.23-1.57C255.87,332,257.17,331.37,258.85,332.72Z"/><path class="cls-145" d="M251.82,347.65c-.66.19-1.12.4-.59,1.24,3,4.71,3.35,10.07,3.61,15.39.19,3.84,1.09,7.11,4.7,9.08-3.58,2.48-6.8,1.3-7.57-2.86a29.18,29.18,0,0,1-.22-4.09c-1.75-1.57-.49-3.94-1.55-5.7-.79-4.12-2.57-7.94-3.65-12,.31-2.75,2.08-3.07,4.33-2.59C251.49,346.45,252.06,346.8,251.82,347.65Z"/><path class="cls-146" d="M246.65,380.46l-3.16.11c-1.78-1.52-1.75-3.48-1.24-5.49a35.26,35.26,0,0,0,.88-8.51,10.8,10.8,0,0,0-2.08-6.59c.61-2.64,2.26-1.61,3.58-.88a10.07,10.07,0,0,1,3.68,4.37c1.16,2.28,2.41,4.54,1.46,7.25C250.81,374.63,250.29,378.05,246.65,380.46Z"/><path class="cls-147" d="M261.11,341.21l.74,1a4.72,4.72,0,0,1,2,3c.95,3,2.58,4.83,6.06,3.5a1.44,1.44,0,0,1,1.39.32c-1.25,3.41-3.49,5.87-7.26,5.82-1.63,0-1.65,1.19-2.49,1.71L258,352.25C258.93,348.55,258.13,344.34,261.11,341.21Z"/><path class="cls-148" d="M271.33,349.06c-5.49,2.84-6.43,2.45-8.55-3.65-.36-1.05-.62-2.12-.93-3.18,1.59-1.83,1.91.08,2.44.9,1.7,2.62,3.48,5.06,7.13,4.69Z"/><path class="cls-149" d="M268.32,337.33a5.87,5.87,0,0,1-3-2.36c.48-1.52,5.16-4.64,6.15-3.92,1.28.93.45,2.5.64,3.78v3.32a13.62,13.62,0,0,0-2.77-2.21C267.86,335.31,268.13,336.44,268.32,337.33Z"/><path class="cls-150" d="M249.77,370.72c.28-2.55-1.67-4.39-2.14-6.7a5.31,5.31,0,0,1,3.68-3.33c.15,1.91.3,3.81.44,5.72C249.75,367.23,252.16,370.08,249.77,370.72Z"/><path class="cls-151" d="M261.11,341.21c-.51,2.85-1,5.72-1.58,8.56-.2,1,0,2.3-1.59,2.48-1.92-1.69-3.7-3.57-6.12-4.6-.23-.26-.45-.53-.67-.8-3.82-1.36-4-1.64-2.72-5.62,1.82-5.77,4.15-11.41,3.69-17.66a19.26,19.26,0,0,0-.84-5.83c-.57-1.43-.06-2.19,1.59-1.67a16.51,16.51,0,0,1,6.7,4,51.12,51.12,0,0,0,.13,10.2c.07,1,.29,1.91-.85,2.42-1.46,0-3-.25-3.85,1.44,3,1.1,4.63,3.42,5.79,6.21Z"/><path class="cls-152" d="M252.87,316.07c-.31.18-.9.49-.89.51,2.9,6.26,1.54,12.47-.24,18.64a53.77,53.77,0,0,1-2.73,7.7c-1.15,2.52,1.07,2.83,2.14,3.93-1.53.31-4.49-1.75-3.77,2.28-.41.52-1-.47-1-.12.27,4.53-3.24,6.37-6.09,8.66a2.64,2.64,0,0,1-2.16.31c-3.45-.63-7.12-5.74-6.75-9.57-.32.93-.7,1.63-1.68,1.69a38.43,38.43,0,0,1-3.48-3.51,6.07,6.07,0,0,0-.09-5.32A45.14,45.14,0,0,1,223,320.83a12.06,12.06,0,0,1,1.18-4.65,23.75,23.75,0,0,0,2.2-1.27c1.95-1.39,1.12-2.07-.67-2.46a3.21,3.21,0,0,1-3.18-.76,1.06,1.06,0,0,1,.31-1.06c3.39-.83,6.19-3,9.38-4.26,6.63-2.68,16-.37,19.79,4.89a1.15,1.15,0,0,1-.15,1.13c-1-.09-2,.4-1.89,1.22C250.13,315.13,252,315.16,252.87,316.07Z"/><path class="cls-106" d="M251.85,312.39a.65.65,0,0,0,.17-.61,2.22,2.22,0,0,1,.93-.84c3.32-.45,6.63-.69,9.89.34,2.75,1.23,6,1.25,8.34,3.51a7.59,7.59,0,0,1,.86,1.45c2.26,2.7,4.57,5.38,2.3,9.21-4,1.18-7,.43-9.58-3.23A26.18,26.18,0,0,0,251.85,312.39Z"/><path class="cls-153" d="M272,316.24l-.77-.67c-1.16-1.32-1-2.95-1.14-4.54-.1-1.19.59-3-1.65-3-1.62,0-3.26.18-3.24,2.55,0,1.15,0,2.73-2.06,1.9-3.3-1.15-6.78-.21-10.12-.89-.45-1.49.88-1.65,1.63-1.72,3-.3,3.41-2.27,3.32-4.71a40.63,40.63,0,0,1,.06-4.81c.11-1.35.15-2.76,1.56-3.55,3,.59,5.18,2.59,7.33,4.61,1.6,1.52,3.21,3.07,5.69,2.83C271.7,308.21,272.56,312.26,272,316.24Z"/><path class="cls-154" d="M217.47,373.25c-4.82-1.74-6.11-7.26-4.09-11.86a57.18,57.18,0,0,1,3.12-5.48c-.35-2.2,1.71-3.07,2.51-4.64,2.16-1.79,3.78-4.61,7.29-3.83a1.9,1.9,0,0,1,.4,2.39c-2.56,5.53-2.45,11.59-3.47,17.43C222.52,371.29,221.14,372.79,217.47,373.25Z"/><path class="cls-155" d="M217.47,373.25c4.75-1.89,4.46-6.32,5.07-10.23.77-5,.65-10.12,3.62-14.54.09-.13-.31-.6-.48-.91-.11-.62.15-.87.76-.78,2.21-.14,5-.84,3.08,3.1.74,2.58-1,4.65-1.49,7-.41,1.77-.78,3.55-1.15,5.33-.1,1.4.3,2.8,0,4.21-.26,3.13-.1,6.45-3.61,8.13C221.3,374.31,219,375.4,217.47,373.25Z"/><path class="cls-156" d="M212.26,334.94l6.41-2.26c1.49-1.14,2.6-.71,3.44.82-.61,2.27-4.06,2.43-3.92,5.27a6.57,6.57,0,0,1-1.18,1.9,41.47,41.47,0,0,0-5.25,5.75c-1.71,2.06-3.67,2.91-6.13,1.21-.64-2.23-.16-4.48-.15-6.71v0C206.75,337.77,208.75,335.5,212.26,334.94Z"/><path class="cls-157" d="M219.47,352.27l-3,3.64c-2.39-1-5.19-.69-7.31-2.35-1.15-.9-3.23-1.53-1.78-3.73,3.15-.24,5.08-1.8,6.22-4.86.58-1.54.77-4,3.39-4C218.7,344.55,218.49,348.54,219.47,352.27Z"/><path class="cls-158" d="M216.36,341.08c-.87,2.16-1.73,4.34-2.61,6.5-1.27,3.09-3.2,4.36-6.33,2.25-.31-1-2.06-.77-1.79-2.2,2.76.53,4.61-.7,6.11-2.91,1.28-1.88,2.57-3.82,4.89-4.62C216.94,340.53,216.85,340.86,216.36,341.08Z"/><path class="cls-159" d="M223.29,374.52c2.05-2.32,2.48-5.13,2.44-8.08a2.71,2.71,0,0,1,3,0l-1.62,5.89C226.17,373.69,225.06,374.69,223.29,374.52Z"/><path class="cls-160" d="M216.36,341.08l.27-1c.26-.48.51-1,.77-1.43a9.13,9.13,0,0,1,4.6-4.48c-.47-1.91-1.94-1.62-3.33-1.51-1.77-.47-1.06-1.84-1.12-3-.16-3,1-6.07-.08-9.08,1.58-2.48,4.2-3.37,6.7-4.45,2.28.94,0,2,0,2.93-.27,8,.1,15.82,3.78,23.06,1.23,2.42,1,3.71-1.48,4.62l-.76.78a20.86,20.86,0,0,0-6.21,4.7c-2.78-1.39-1.81-4.26-2.46-6.47A29.31,29.31,0,0,1,216.36,341.08Z"/><path class="cls-64" d="M212.26,334.94l-6.77,5.95a11.54,11.54,0,0,1-.66-5.48c.27-1.55-.38-4.45,1.57-4.14S211.87,331.33,212.26,334.94Z"/><path class="cls-106" d="M222.38,311.58c1.17,0,2.37,0,3.32.87a24.88,24.88,0,0,0-13.18,9.65c-2.48,3.4-5.36,4.33-9.14,3.89-1.91-3.83-1.45-6,2.09-9.71,1.78-3.45,5.43-3.63,8.48-4.88C216.78,310.69,219.61,309.81,222.38,311.58Z"/><path class="cls-161" d="M222.38,311.58c-2.84.72-5.86-.09-8.66,1a2,2,0,0,1-.35,0c-1.18-3.94-5-4.92-7.86-6.88-.08-.44-.15-.88-.23-1.31,2.51-.29,4-2.15,5.74-3.66,1.93-1.67,3.9-3.31,6.48-3.94,2.81,2.1,2.07,5.2,1.91,7.91-.17,2.91.52,5,3.11,6.38A.45.45,0,0,1,222.38,311.58Z"/><path class="cls-162" d="M205.51,305.7a4.93,4.93,0,0,0,.73.14c4.45.06,7.5,1.67,7.48,6.71a43.11,43.11,0,0,0-8.25,3.73C205.48,312.75,205.5,309.23,205.51,305.7Z"/><path class="cls-163" d="M226,362a27.42,27.42,0,0,1,3.55-12.14c1.35-.49,1.23-2,2.2-3.47-.63,5.29,2.77,7.66,5.73,10.28a1.77,1.77,0,0,0,2.66,0c2.73-2.75,6.45-4.9,5.78-10l1.49,2.46c2.37,3.49,3.15,7.52,3.93,11.56-.34,2.09-2.18,2.53-3.68,3.33a29.37,29.37,0,0,0-2.94-3.6c-.84-.76-1.84-2.08-3.32-.84.3,2.17,2,4.28.28,6.53-3.58,2.1-4.82,1.8-6.5-1.56a14.06,14.06,0,0,1-.08-2.83c0-1.46-.65-1.94-2-1.49l-3.55,4C227.59,364.67,226.67,363.53,226,362Z"/><path class="cls-164" d="M233.05,360.23c.72-1,1.66-1.59,2.84-1s.51,1.72.38,2.64c-.11.73-.23,1.47-.34,2.2-.66,1.95.88,3.47,1.06,5.26.16,1.52,1.16,3,0,4.54,0,1.37,0,2.73.09,4.1.08,2.16-1,2.9-3,2.57.35-6.48-2.78-12.91-.34-19.45C233.76,360.9,233.28,360.52,233.05,360.23Z"/><path class="cls-165" d="M226,362l3.53,2.16c-.26.75-.53,1.51-.79,2.27-1,1.39-2,1.19-3,0A10.42,10.42,0,0,1,226,362Z"/><path class="cls-166" d="M241.48,365.83c.8-2.1-1.46-4.14-.11-6.25,4.9,3.65,3,8.73,2.6,13.36-.23,2.54-1.3,5-.47,7.63-3.87-.4-4.22-1.15-3.13-6.66A8.85,8.85,0,0,1,241.48,365.83Z"/><path class="cls-167" d="M241.48,365.83a13.7,13.7,0,0,1-1.11,8.08c-1.13.28-2.27.82-3.39-.05-1.17-3.18-2.07-6.4-1-9.81C236.74,367.9,239.39,366,241.48,365.83Z"/><path class="cls-168" d="M54.31,28.88c-2.71,2.87-6.21,4.84-8.8,7.89-5.8,6.87-6.89,14.88-6.14,23.42-3.75-4.16-2.62-9.06-1.75-13.72C39,39.15,43.33,33.77,49.72,30A6.82,6.82,0,0,1,54.31,28.88Z"/><path class="cls-169" d="M293.81,41.06c0,1.6-.63,2.58-2.37,2.63-2.6.07-6.6-2.39-6.43-4.08a2.7,2.7,0,0,1,2.81-2.44C290.53,37,293.72,39.06,293.81,41.06Z"/><path class="cls-170" d="M238.32,100.68c-3.22.11-6.68.16-10-1.37a3,3,0,0,1-2.09-2.77c-.08-1.52.41-2.79,1.89-3.29,7-2.41,14-2.69,21,0a3.22,3.22,0,0,1,2.4,3c-.07,1.63-1.26,2.62-2.71,3.2C245.55,100.76,242.06,100.75,238.32,100.68Z"/><path class="cls-171" d="M309.43,199.44c1-13.71,5.11-26.24,14.43-36.68,7.18-8,15.95-12.07,26.89-10.5,3.14.63,6.27,1.24,8.23,4.21,1,1.49,1.83,3,1.26,4.83-3.12,3.61-4.13,7.88-4.92,12.55-3.19,18.77-12.47,33.11-31.06,40-4.38,1.62-8.43,3.56-11.32,7.38-3.47.5-3.6-2.28-3.66-4.32A139.19,139.19,0,0,1,309.43,199.44Z"/><path class="cls-172" d="M359.7,161.07c-.77-5.18-4.83-7-8.95-8.81,10.72.1,23.65,6.59,23.1,21.72a83.86,83.86,0,0,1-4.19,22.18c-5.83,17.29-17.9,28.91-33.32,37.61-2,1.15-4.5,1.28-6.61,2.33a21.72,21.72,0,0,1-9.56.93c-4.67-.38-7.9-2.79-9.25-7.36-2.92-9.95-2.62-20.07-1.49-30.23.05,5.31-.13,10.64.27,15.92.14,2-.63,5.44,3.48,5a1.9,1.9,0,0,1,.68.83c1.4,7.25,7.5,9.36,14,4.85a54.43,54.43,0,0,0,12.33-12.42c7.85-10.46,15.2-21.3,23.93-31.08,4-4.44,3.84-9.83,3-15.23-.58-3.8-3.76-4.59-6.82-5.42A1.48,1.48,0,0,1,359.7,161.07Z"/><path class="cls-173" d="M329.73,236.1c4.93-3,10.22-5.35,14.92-8.83,13.15-9.74,22-22.18,26-38.18,1.25-5,1.75-10.16,3.21-15.11.68,5.52.24,11,0,16.56a60.25,60.25,0,0,1-9.37,23.21c-1.1,1.63-2.23,3.24-3.35,4.86-7.74,8.38-16.58,14.94-28.11,17.12A9.42,9.42,0,0,1,329.73,236.1Z"/><path class="cls-174" d="M147.14,236.09a44.92,44.92,0,0,1-26.33-12.91l-2.16-2.05A61,61,0,0,1,103.73,192c-.52-5-1.11-10.07-.51-15.14,2.76-.1,2.76,2.16,3,3.83.6,5.51,2.47,10.65,4.15,15.86,3.31,10.3,9.79,18.35,17.84,25.27,5.19,4.46,10.46,8.83,16.89,11.51C146.14,233.81,147.33,234.5,147.14,236.09Z"/><path class="cls-175" d="M93.24,177a41.72,41.72,0,0,1,.05-5.06c.18-1.76.87-3.6,2.93-3.78,2.26-.2,2.45,1.93,2.65,3.4a46.35,46.35,0,0,1,.3,7.45,51.58,51.58,0,0,0,1.06,12.59c.38,1.71.33,3.15-1.34,3.73s-2.31-1.07-2.93-2.22C93.36,188.31,93.13,183.11,93.24,177Z"/><path class="cls-176" d="M102.55,203.65c1.76.75,2.39,2.32,2.58,4.11.11,1.05-.09,2.31-1.46,2-2.24-.48-2.11-2.81-2.75-4.43C100.53,204.37,101.49,203.84,102.55,203.65Z"/><path class="cls-175" d="M384.45,174c-1.66,6,.49,12.5-2.72,18.25-.76,1.35-.88,3.57-3,3s-1.52-2.27-1.3-4c.74-5.89-.35-11.91,1-17.76.5-2.19-.39-6,3.09-5.67C384.44,168.05,383.67,171.73,384.45,174Z"/><path class="cls-177" d="M376.19,205.56c-.57,1.37-.57,3.39-2.46,3.95-.94.29-1.42-.94-1.26-1.8.31-1.63.34-3.61,2.46-4.07C376.28,203.35,376,204.57,376.19,205.56Z"/><path class="cls-171" d="M165.06,183c1.46,7.87,3.32,15.68,3.41,23.72,0,3.33-.23,6.67-.36,10-.89,1.8,0,4.83-3.39,4.91a2.17,2.17,0,0,1-1-.49,16.75,16.75,0,0,0-9.48-6.89c-16.95-5.42-26-18-31.14-34.18a26.92,26.92,0,0,1-1.18-7.73,12.78,12.78,0,0,0-4.4-9.93,3.58,3.58,0,0,1-.59-1,9.11,9.11,0,0,1,6.55-8.36,23.09,23.09,0,0,1,10.92-.79c7.51.6,13.26,4.56,18.32,9.74C158.55,167.94,162.21,175.24,165.06,183Z"/><path class="cls-172" d="M134.39,152.21c-3.06.43-6.19-.07-9.22.84-3.64,1.1-6.91,4.66-7.38,8.28a4,4,0,0,1-1.22.84c-6.11,2.27-8.2,5.92-6.95,12.34a16.75,16.75,0,0,0,3.79,8.42c9.46,10.28,16.89,22.14,25.61,33a74.65,74.65,0,0,0,8.34,8.53,14.55,14.55,0,0,0,5.8,3.28c5.26,1.5,7.87.25,10-4.78.3-.69.51-1.42,1.27-1.75,2.43-.53,2.43-3,3.67-4.5.62,4.79-.46,9.38-2,13.84a9.24,9.24,0,0,1-8,6.37,25.39,25.39,0,0,1-11-.83c-3.1-2.71-7.15-3.71-10.52-6.09-9-6.36-17.18-13.44-22.82-23a70.39,70.39,0,0,1-8.61-25.18c-.29-1.81-.16-3.74-2-4.93.24-14,4.39-20.91,19.78-24.41C126.72,151.62,130.57,151.11,134.39,152.21Z"/><path class="cls-178" d="M242.18,210.46l1.57-1.75a3.07,3.07,0,0,1,1.54,3.49c-.83,5.18,0,10.36-.22,15.51.53-7.69,5.34-13.81,7.7-20.84,3.79,0,3.81,2.64,3.71,5.35.52,3-1.79,4.85-3,7.14a15.68,15.68,0,0,0-2.2,4.94c-.75,2.5-1.37,5-2,7.54-.39,1.58-.92,3.3-2.75,3.62-2,.36-3.28-1.13-4.09-2.64a23.22,23.22,0,0,1-2.88-13.2,24.66,24.66,0,0,1,1.17-8A2.19,2.19,0,0,1,242.18,210.46Z"/><path class="cls-179" d="M224.11,206.94c4.42-1.74,7.16-.94,9.95,2.91,2.1,2.46,1.07,5.48,1.06,8.14,0,4.38-.55,8.78-.8,13.18-2.37,1.32-2.93-.83-3.34-2.11a120.54,120.54,0,0,0-6.84-16.14C223.22,211,222.51,208.94,224.11,206.94Z"/><path class="cls-180" d="M270.76,220.86c1.19,1.69-.08,2.68-1,3.81-3,3.52-6.91,5.87-10.61,8.51a10,10,0,0,0-3.8,4c.11-2.23.18-3.51.24-4.8-.85-1-.32-2,0-3,.55-1.07,1.08-2.17,1.62-3.25.75-1.18,1.33-2.53,2.94-2.79C264.77,218,266.86,217.53,270.76,220.86Z"/><path class="cls-143" d="M252.77,206.87c1.38,2.91-.92,4.91-1.82,7.25-1.87,4.82-4.65,9.27-5.93,14.43a37,37,0,0,1-1-15.1,14.66,14.66,0,0,0-.23-4.74C246.43,206.5,249.25,205,252.77,206.87Z"/><path class="cls-181" d="M224.11,206.94c-.09,6,4,10.47,6,15.7,1.12,2.91,1,6.42,3.5,8.77a1.06,1.06,0,0,1,.74.86c-.16,2.18-1.38,3.55-3.51,3.48s-2.38-1.92-2.68-3.52a75.83,75.83,0,0,0-2.06-7.87c-.37-1.79-1.44-3.28-2.18-4.9-1.18-2.47-3.86-4.24-3.49-7.43C220.3,209.35,220.87,207.19,224.11,206.94Z"/><path class="cls-182" d="M238.7,203.89c-1.61,0-3.23,0-4.84,0a1.88,1.88,0,0,1-2-1.38,1.64,1.64,0,0,1,1.17-2.05,15.66,15.66,0,0,1,11.6.06,1.58,1.58,0,0,1,1.07,1.77,1.75,1.75,0,0,1-1.81,1.56c-1.73.06-3.47,0-5.21,0Z"/><path class="cls-183" d="M233.64,231.41c-1-7.21.71-14.37.41-21.56l1.07.11c1.43.4,1.31,1.82,1.87,2.8a31.15,31.15,0,0,0,.87,3.42,12.07,12.07,0,0,1,.2,3.65,19.8,19.8,0,0,1-1.32,8.76c-.47,1.34-.84,2.95-2.75,3.1Z"/><path class="cls-184" d="M220.46,212l4.33,6.95c-1.45,2.69-2.29,5.91-5.87,6.73l-2.15-3.22c2.46-1.69,4.34-3.55,3.11-7A3.41,3.41,0,0,1,220.46,212Z"/><path class="cls-185" d="M260.14,223.3l-2.05,3.19c-2.89-1.76-4.21-4.64-5.37-7.62l3.76-6.65c.43-.09,1.36-.26,1.16.16C255.63,216.72,257.81,220,260.14,223.3Z"/><path class="cls-186" d="M236,213l-.87-3c2.42-.9,4.84-1.73,7.05.5l-.69,1C239.93,212.94,237.81,212.4,236,213Z"/><path d="M234,231.69c2.48-3.76,2.54-8.12,3-12.38a2.76,2.76,0,0,1,2.66-.33,4.8,4.8,0,0,1,.87.69,26.37,26.37,0,0,0,3.15,13.17c.61,1,1.49,2.36,2.75,2.23,1.61-.16,1.23-1.88,1.44-3a42.7,42.7,0,0,1,2.6-8.86c3.4.25,5.32,2.1,6.16,5.94l-1.1,3.24c-.94.66-.76,1.77-1,2.67-.48,1.65-1,3.76.73,4.69s2.36-1.27,3.23-2.31a9.93,9.93,0,0,1,3-2.06c3,2.59,3.05,6.23,3.44,9.75-2.73,1.3-5.95,1.78-7.76,4.64-1.06.87-2.42,1.94-1.82,3.31.7,1.61,2.3.68,3.64.51a38.35,38.35,0,0,1,4.8-.09q-1,7-1.93,14c-1.53,1.11-3.5,1.56-4.72,3.13-1.1.67-2.05,1.58-1.43,2.9.49,1,1.71.61,2.64.51a6.28,6.28,0,0,1,3.22.15c1.47,4-.1,14.59-2.53,17.12-.94.17-1.95.13-2.69.89-1.26.13-2.18.86-2.08,2.06s1.45,1.15,2.33,1.42c1,.33,2.17.37,3.06,1.12-.1,3.45-.41,6.9-.23,10.33.17,3-.35,4.77-3.88,4.07a2.76,2.76,0,0,0-2.47.39l-1,.17a20.71,20.71,0,0,0-14.4-5.34,14.19,14.19,0,0,0-10,4c-1.83,1.85-3.55-.42-5.11.65-3.73.87-5-.48-4.59-4.34a27.14,27.14,0,0,0-.43-9.95c1.47-1.39,4-.44,5.25-2.25-.11-3.58-3.64-2.35-5.3-3.76-2.23-5.36-3.18-10.84-1.6-16.57,1.18-.57,2.39-.2,3.59-.13.83.06,1.87.4,2.27-.6s-.23-1.83-1.11-2.4c-1.28-1.89-3.5-2.43-5.25-3.63l-1.65-14.06a9.88,9.88,0,0,1,4.77.14c1.17.32,2.54,1.1,3.36-.27s-.37-2.23-1.29-3c-1.76-3.3-5.33-3.73-8.25-5.18.86-3.42,0-7.5,3.74-9.81,1.6.62,2.52,2,3.59,3.19.62.7,1,1.94,2.3,1.43s1.34-1.68,1.3-2.85a7.24,7.24,0,0,0-1.18-3.86c-.17-1.81-1.79-3.15-1.6-5.07,1.39-2.5,2.56-5.28,6.19-5,1.55,2.6,2,5.55,2.73,8.43.29,1.24-.44,3.3,1.26,3.51C232.53,235.22,233.49,233.45,234,231.69Z"/><path class="cls-187" d="M226.63,223c-2.86.69-3.47,4.15-6.19,5-1.05-.43-1.2-1.44-1.52-2.35,2.39-1.86,3-5.25,5.87-6.73C225.47,220.3,226.68,221.38,226.63,223Z"/><path class="cls-125" d="M215.85,274.21c.61,5.52,1.68,11,1.6,16.57l-3.75,0c-.51-1,0-1.94-.09-2.9a42.56,42.56,0,0,0-.72-7.34c-.81-3.5-4.14-.71-5.94-2.05a14,14,0,0,0-2.31-1.11C208.05,275.15,211.67,273.7,215.85,274.21Z"/><path class="cls-188" d="M259,291.33c1.58-3.6.87-7.53,1.68-11.25.42-1.93.58-3.91.86-5.87a16.22,16.22,0,0,1,10.84,3,7.12,7.12,0,0,1-5.25,1.53c-2.92-.38-3.25,1.17-3.3,3.52-.07,2.82.68,5.74-.7,8.47Z"/><path class="cls-148" d="M260.79,340.37,255,334.16C258.84,334.57,260.57,336.42,260.79,340.37Z"/><path class="cls-189" d="M263.18,312.5a4.92,4.92,0,0,0,.92-.48c-1.33-4.52,1.35-5.12,4.91-5.59,1.89-.26,2.48-.17,2.42,1.73-.09,2.47-.11,4.94-.16,7.41Z"/><path class="cls-158" d="M222,334.19a11.09,11.09,0,0,1-4.6,4.48C217.44,335.65,218.85,334,222,334.19Z"/><path class="cls-190" d="M313.39,221.13l-.21-.74c.85-3.66,3.73-5.17,6.89-6.14,12.36-3.77,22-11,28.06-22.48,3.4-6.42,6-13.13,6.31-20.53.2-4.14,1.47-7.83,5.26-10.17,0,.2-.05.4-.07.6,1.51,1.18,1.25,2.9,1.25,4.47,0,11.17-4.17,21-10.53,29.79-6.79,9.39-14.57,18-25.13,23.48a33.44,33.44,0,0,1-7.22,3C316.25,222.85,314.52,223,313.39,221.13Z"/><path class="cls-191" d="M344.72,160.53c2.47,1.6,1.89,4,1.07,5.93A32.87,32.87,0,0,1,328,184.69c-.87.37-1.36,1.58-2.57,1.18-1.56-1.92-.75-3.91-.19-5.89,2.79-7.68,6.6-14.65,13.54-19.44A5.9,5.9,0,0,1,344.72,160.53Z"/><path class="cls-192" d="M317.33,200.83c-1.4-.15-1.29-1.28-1.24-2.2s.18-2,1.57-2.06,1.62.88,1.61,1.94A2.15,2.15,0,0,1,317.33,200.83Z"/><path class="cls-193" d="M313.39,221.13c3.86,1.43,7.11-.54,10.2-2.22,13.63-7.4,23.55-18.48,30.75-32a45.73,45.73,0,0,0,5.29-25.2c5-.91,8.1,1,8.94,5.8,1,5.58.72,11.16-3.29,15.53-10.29,11.21-18.06,24.36-27.93,35.88a53.67,53.67,0,0,1-8.72,8.11c-3.28,2.45-6.94,2.67-10.67,2.27C314.61,228.9,312.25,224.4,313.39,221.13Z"/><path class="cls-193" d="M164.44,221.21c-.27,8.3-5.56,9.7-12.84,7.24-4.58-1.55-7.67-5.37-10.92-8.81-6.68-7.09-11.61-15.49-17.53-23.16-3.33-4.32-7-8.35-10.51-12.58a18.71,18.71,0,0,1-4.27-14.6c.71-6,3.32-8.17,9.42-8a6.19,6.19,0,0,1,.3.57c1.72,2.61.83,5.59,1.15,8.4,1.3,11.6,6.57,21.29,14.09,29.94,5.9,6.79,12.15,13.1,20.37,17.27,3.39,1.72,7,2.31,10.44,3.7Z"/><path class="cls-194" d="M164.14,221.21c-2.81,1-5.44.17-7.88-1.09-18.29-9.43-31-23.77-37.17-43.45a33.37,33.37,0,0,1-1-14.77c4,1.91,4.53,5.62,4.89,9.36,1.53,15.8,8.61,28.35,21.71,37.43,3.95,2.73,8.63,3.79,13,5.64C160.82,215.69,163.84,217.16,164.14,221.21Z"/><path class="cls-191" d="M132,161.2c2.19-3,4.95-2.14,7.09-.42a36.13,36.13,0,0,1,12.64,19c1.32,4.88.91,5.49-3.2,4.71a37,37,0,0,1-16.47-16.46C130.91,165.79,131.2,163.49,132,161.2Z"/><path class="cls-195" d="M161.86,198.93c.06,1.23-.42,1.86-1.44,1.92-1.54.1-2.14-1.21-2.43-2.23a1.7,1.7,0,0,1,1.66-2C161,196.68,161.42,198,161.86,198.93Z"/><path class="cls-196" d="M256.66,229.12c-1.8-2.24-3.12-5-6.16-5.94a9.06,9.06,0,0,1,2.22-4.31c2.58,2,4,4.81,5.37,7.62C257.61,227.37,257.14,228.25,256.66,229.12Z"/><path class="cls-197" d="M241.5,211.47l-.93,8.19-.78-.54a3.49,3.49,0,0,1-2.76.2c-.06-1.1-.13-2.2-.19-3.29l-.83-3C237.21,210.26,239.65,211.93,241.5,211.47Z"/></g></g></svg>
