<svg xmlns="http://www.w3.org/2000/svg" viewBox="0 0 507.58 507.57" width="100" height="100"><defs><style>.cls-1{fill:#520004;}.cls-2{fill:#ba906f;}.cls-3{fill:#2d0002;}.cls-4{fill:#a47758;}.cls-5{fill:#f7ecd7;}.cls-6{fill:#d1a97e;}.cls-7{fill:#e1ba91;}.cls-8{fill:#eddbaf;}.cls-9{fill:#fbf5e8;}.cls-10{fill:#e7e4d1;}.cls-11{fill:#f3e5cd;}.cls-12{fill:#fcfaf3;}.cls-13{fill:#aca9ab;}.cls-14{fill:#d1a87d;}.cls-15{fill:#e1bb92;}.cls-16{fill:#2d0103;}.cls-17{fill:#faf8f0;}.cls-18{fill:#e4c69c;}.cls-19{fill:#2e0103;}.cls-20{fill:#fdfbee;}.cls-21{fill:#b27d72;}.cls-22{fill:#f6ebd6;}.cls-23{fill:#ead7ac;}.cls-24{fill:#e3c49a;}.cls-25{fill:#faf7f0;}.cls-26{fill:#5b3c35;}.cls-27{fill:#f4e7d2;}.cls-28{fill:#b68375;}.cls-29{fill:#855845;}.cls-30{fill:#d1a87e;}.cls-31{fill:#8e694d;}.cls-32{fill:#624631;}.cls-33{fill:#644732;}.cls-34{fill:#906a4e;}.cls-35{fill:#d1a97f;}.cls-36{fill:#684a34;}.cls-37{fill:#cea78a;}.cls-38{fill:#eed7be;}.cls-39{fill:#ddbb90;}.cls-40{fill:#d1a482;}.cls-41{fill:#b17d72;}.cls-42{fill:#4e2c2a;}.cls-43{fill:#b27c71;}.cls-44{fill:#010101;}.cls-45{fill:#b17c71;}.cls-46{fill:#b37e73;}.cls-47{fill:#eddaae;}.cls-48{fill:#edd9ae;}.cls-49{fill:#eddaaf;}.cls-50{fill:#edd5cc;}.cls-51{fill:#fdfcfa;}.cls-52{fill:#fefefd;}.cls-53{fill:#fdfbf0;}.cls-54{fill:#aea9aa;}.cls-55{fill:#e2ddcb;}.cls-56{fill:#745651;}.cls-57{fill:#eddbb0;}.cls-58{fill:#b88677;}.cls-59{fill:#e7d1ad;}.cls-60{fill:#54302c;}.cls-61{fill:#593b33;}.cls-62{fill:#aeaaab;}.cls-63{fill:#5d1513;}.cls-64{fill:#7f1b19;}.cls-65{fill:#fdfaed;}.cls-66{fill:#fcfaed;}.cls-67{fill:#862f2a;}.cls-68{fill:#b78577;}.cls-69{fill:#ad7d64;}.cls-70{fill:#d56c6a;}.cls-71{fill:#ba916f;}.cls-72{fill:#8f694d;}.cls-73{fill:#664933;}.cls-74{fill:#5d1413;}.cls-75{fill:#e4a09f;}.cls-76{fill:#865845;}.cls-77{fill:#f1ded6;}.cls-78{fill:#e7e4d2;}.cls-79{fill:#b0adad;}.cls-80{fill:#aeabac;}.cls-81{fill:#ada8a8;}.cls-82{fill:#ada8a9;}.cls-83{fill:#aea7a7;}.cls-84{fill:#a11312;}.cls-85{fill:#e7e3d0;}.cls-86{fill:#e7e3d1;}.cls-87{fill:#e8e4d2;}.cls-88{fill:#dd1f0f;}.cls-89{fill:#a21413;}.cls-90{fill:#aea8a9;}.cls-91{fill:#dc2010;}.cls-92{fill:#e5e1ce;}.cls-93{fill:#afa4a4;}.cls-94{fill:#d63023;}.cls-95{fill:#edfd04;}.cls-96{fill:#4f2d2a;}.cls-97{fill:#b03c2e;}.cls-98{fill:#fcfd2a;}.cls-99{fill:#d51917;}.cls-100{fill:#c19380;}.cls-101{fill:#bf8e74;}.cls-102{fill:#bf8e73;}.cls-103{fill:#f9f3e6;}.cls-104{fill:#fe6a34;}.cls-105{fill:#f6280a;}.cls-106{fill:#fdfcf6;}.cls-107{fill:#4f2c2a;}.cls-108{fill:#f32a27;}.cls-109{fill:#170807;}</style></defs><g id="Calque_2" data-name="Calque 2"><g id="Calque_8" data-name="Calque 8"><path class="cls-1" d="M507.58,0V245.45a6.22,6.22,0,0,1-1.56-.71c-6.47-3.94-13.68-5.19-20.87-6.46h0c-2.4-.42-4.79-.85-7.15-1.38,0,0,0,0,0,0-6.17-1.28-12.3.15-18.46.34l-1.25,0h-.32a115.45,115.45,0,0,1-28.51-10.15c-7.66-3.81-11.91-9.68-13.68-17.86-2.88-13.34-6.32-26.53-10.21-39.62-2.89-9.75-7-19-10.75-28.36-.08-.18-.15-.36-.22-.54l-.06-.2a7,7,0,0,1-.26-1.27c0-.2,0-.39,0-.59a10.39,10.39,0,0,0-.08-1.26,20.78,20.78,0,0,0-3.47-8.76l-.68-1.12h0c-.68-1.11-1.38-2.19-2.12-3.27l0,0a41.6,41.6,0,0,0-8.49-9.48c-.38-.31-.77-.61-1.18-.9l-.44-.31c-11.14-12.36-25.18-20.37-40.19-26.89l-.29-.13-.13-.13-.09-.1a19.92,19.92,0,0,1-3.54-5.55l0,0c-.65-1.35-1.24-2.72-1.91-4.05a145.73,145.73,0,0,0-8.81-14.47l-.92-1.39c-.33-.5-.66-1-1-1.49-2-5.24-4.53-10-10.55-11.65-1.64-.45-2.47-2.15-3.4-3.51-1.65-2.41-3.65-4.29-6.63-4.85l-1.55-.44h0a14.59,14.59,0,0,0-3.09-.53h0a6.27,6.27,0,0,0-1,0,9.81,9.81,0,0,1-2.22-.3l-.41-.18c-.33-.15-.65-.29-1-.42h0c-4.33-1.82-8.67-2.92-13.39-.77a4.48,4.48,0,0,1-3.41-.1c-6.63-2.45-12.72-.69-18.64,2.34-1.33.68-2.66,1.73-4.1,1.73-7.57,0-13.1,3.86-18,9.13a6.86,6.86,0,0,1-3,1.82c-8.59,2.62-13.71,8.92-17.64,16.52l-.34.38-.32.37c-2.49,2.86-4.84,5.88-8.58,7.3l-1.72.28-2.47.41c-7.69,1.25-15.37,2.52-22.81,5-1.7.57-3.49,1-5.29.21-.32-.27-.63-.55-.93-.85s-.33-.31-.49-.48c-3.18-3.22-5.51-7.26-9.33-9.87l-.33-.23-.08-.07c-3.82-3.7-8.15-6.19-13.49-6.21l-.95,0-.53,0a22,22,0,0,0-5.36.8c-.47.12-.94.26-1.4.4l-.65.21c-.8.32-1.6.66-2.38,1l-.12,0c-.2.06-.4.12-.6.2-4.55,1.56-7.23,5.73-11.08,8.27l-.45.29h-.07c-4.62.74-7.42,3.51-9.56,7.62-3.44,6.63-3.69,13.93-5.19,21h0c0,.2-.08.38-.12.58l0,.08c-.81,2.05-2.69,2.74-4.5,3.5-16.92,7.06-30.51,18-39.32,34.33a7.67,7.67,0,0,1-2.55,3l0,0a10.51,10.51,0,0,0-.95.64c-3.32,2.44-4.71,6.17-5.86,10a34.33,34.33,0,0,0-1.12,11.38A57.42,57.42,0,0,1,50.24,191c-3.71,9.72-5.48,20.12-6.38,30.6C42.42,238.42,48.94,253,56.8,267c5.12,9.11,10.26,18.38,17.7,25.86,8.76,8.83,17.48,17.72,27,25.71.85.72,1.84,1.94,3,1.27,1.49-.87.53-2.42.26-3.61-2.14-9.51-.05-18.86,1.12-28.21.51-4.12,2.52-4.69,5.78-2,2.7,2.2,5.35,4.47,8,6.71,1.22,1,2.48,2.71,4.27,1.84s1.45-2.87,1.59-4.47c.35-4.15.09-8.31.17-12.47,0-2.15-.23-4.34.81-6.37a1.62,1.62,0,0,1,.29-.34.73.73,0,0,1,.22-.18,1.88,1.88,0,0,1,.74-.35h.86a11.73,11.73,0,0,1,2,.17,5.94,5.94,0,0,1,2.33.91l.12.53s0,0,0,0a5.05,5.05,0,0,0,1.68,3.17c6.09,5.11,13.29,8,20.45,11l1.58.67,1.14.48a4.45,4.45,0,0,1,1.37,1.94.09.09,0,0,1,0,.05h0c.07.24.13.48.18.73,1.93,7.79,1.59,15.86,3,23.72a62.63,62.63,0,0,0,1.58,7.56,1.21,1.21,0,0,0,.05.18l0,.33c.51,6.45,2.94,12.47,4.25,18.73,0,.71-.1,1.42-.18,2.11h0c0,.38-.09.74-.14,1.11-.74,5.23-2.63,9.82-6.78,13.19h0a18.49,18.49,0,0,1-2.34,1.6l-.54.31c-3,0-5.14-2-7.47-3.52s-4.17-3.27-6.52-4.51c-3.28-1.73-4.44-1.07-4.75,2.65-.36,4.36.79,8.54,1.55,12.76.55,3.08,1.67,6.08,1.5,9.28,0,.15-.08.3-.13.45v0c-.06.19-.13.37-.2.55a2.06,2.06,0,0,1-.12.26,2.09,2.09,0,0,1-2,1.35c-1.66,0-2.09-1.47-2.51-2.69a102.84,102.84,0,0,0-10.86-21.66c-.74-1.15-1.13-2.65-2.43-3.33a2.89,2.89,0,0,0-.7-.25,4.77,4.77,0,0,0-.7.73s0,0,0,0a0,0,0,0,0,0,0c-1.65,2.05-1.09,4.61-1.31,7-.28,2.92.64,6-1.17,8.71l-.48.05h0c-2.16.31-3.17,1.6-3.63,3.95-1.49,7.52-.52,14.93.72,22.32a94.47,94.47,0,0,1,1.6,17.36c-.11,6.68,2.36,12.77,5.34,18.54a85,85,0,0,0,25.44,30.26c10.57,7.74,22.76,10.51,35.38,12.09,19.2,2.41,33.53-6.93,46.39-19.52a189.24,189.24,0,0,1,18.19-16.26c3.81-2.87,5.27-2.69,7.44,1.43,4.24,8.08,10.19,14.78,16.71,21a13.48,13.48,0,0,1,4.33,13c-2,11.48-4.16,22.93-3.74,34.67a6.66,6.66,0,0,1-.18,1.95H0V0Z"/><path class="cls-2" d="M507,253.44c-1.57,1.17-2.44,3-3.61,4.52-.45.6-.88,1.24-1.32,1.85a17.8,17.8,0,0,1-1.1,1.42,5.37,5.37,0,0,1-5.64,1.93c-11.57-2.45-22.78-5.4-28.92-16.31a25.27,25.27,0,0,1-1.33-2.71A.31.31,0,0,1,465,244h0c-.07-.15-.14-.3-.2-.45a2.21,2.21,0,0,0-.18-.34c-.1-.17-.22-.34-.32-.51a4.12,4.12,0,0,0-2.69-1.55c-.38-.09-.75-.17-1.12-.27a6.39,6.39,0,0,1-.74-.24,310.52,310.52,0,0,1-37.85-12.51c-1.53-.62-3.1-1.25-4.83-.83a4.34,4.34,0,0,0-.46.59l-.06.09c-1.09,1.84,1,2.82,1.82,4.09,2.13,3.31,6,5.39,6.89,9.6l-.73.26h0c-3.73,1.3-7.62,1.71-11.36,3.07H413l-.09,0c-2.34.86-4,0-5.47-2-3.25-4.33-5.53-9.16-7.81-14-.09-.17-.18-.35-.25-.52l-.51-1.06a14.75,14.75,0,0,0-1.34-2.83,2.34,2.34,0,0,0-1.91-.91h0l-.55,0a6.27,6.27,0,0,0-2.82,5.53,29.23,29.23,0,0,0,1.39,9.77c-5.9-16.46-10.07-33.57-6.85-52.22,2.13,4.07,3.85,7.83,5.81,11.46,3,5.55,5.76,11.25,9.58,16.27,2.26,3,4.16,3.3,5.6,1.22v0c.09-.13.18-.28.27-.43a11.15,11.15,0,0,0,.79-1.84c-1.06-9.59-3.34-19-5.16-28.42-1.78-9.27-2.72-18.79-6.8-27.5-.56-.74-1.09-1.46-1.59-2.23a0,0,0,0,0,0,0c-.63-.93-1.23-1.88-1.81-2.84,0,0,0,0,0-.06-1.84-3-3.52-6.14-5.37-9.2a27.58,27.58,0,0,0,3.54.22H392c.61.06,0-.9.05-1.35h0a.27.27,0,0,1,.16-.2h0a1.6,1.6,0,0,1,1,.2c.64.26,1.2-.14,1.62-.76a5.38,5.38,0,0,0,.63-1.3l-.09-1.12c-.41-.45-.79-1-1.17-1.44-1.16-1.5-2.39-2.9-4.78-2.6l-.07,0a1,1,0,0,0-.12.15h0c-.37.56-.48,1.74-1.36.79-2.23-2.41-4.85-4.47-7.09-6.88a20.93,20.93,0,0,1-2.79-3.66h0c-.14-.23-.27-.46-.4-.7-.82-1.94,0-3.71.48-5.51h0c.07-.25.13-.5.18-.76a6.24,6.24,0,0,0,.1-1.06c-.49-3.31-3.35-4.28-5.67-5.76-8.29-5.3-18.31-6.63-26.74-11.66a2.68,2.68,0,0,0-3.32.06,2,2,0,0,0-.32.33,4.05,4.05,0,0,0-.5.83,11.86,11.86,0,0,0,1.71,8.83,7.83,7.83,0,0,1,1.17.76c.25.19.47.38.7.59h0c1.85,1.72,3.07,4,4.94,5.72,2.49,2.25,2.94,4.59.88,7.36-1.06,1.44-1.69,3.18-3.05,4.63-.45-2,.19-4-.69-5.76-.57-1.15-1.12-1.54-1.62-1.39,0,0,0,0-.07,0a2.85,2.85,0,0,0-1.24,1.6c-1.13,11.63.23,23.41-2,35q.35,1.8.54,3.6c0,.13,0,.27,0,.4h0c0,.39.08.78.11,1.17,0,0,0,0,0,0s0,0,0,0a91.83,91.83,0,0,1-.49,16.67c-.57,5.66,1,9.24,5.82,11.93,6.8,3.82,11.24,9.76,14.19,16.86a121.62,121.62,0,0,1,8.42,29.2q2,14.07,3.3,28.25c1.6,17.72,3.16,35.44,3.47,53.24.24,14-.2,28,.11,42,.42,19.52-4,37.94-11.62,55.74-2.76,6.44-6.66,12.29-9.65,18.6-7.09,15-19,23-35.2,25.28-3.35.47-6.91.3-9.93,2.27l0,0-.1.06h0l-.12.16c-1.2,1.65-1.16,3.59-1.18,5.51.19,2.49.15,5,.12,7.48a30.86,30.86,0,0,0,.34,6.47.38.38,0,0,0,0,.1,10.16,10.16,0,0,0,1.16,3.1,0,0,0,0,0,0,0,8.47,8.47,0,0,0,.84,1.24c4.31,5.5,7.67,11.63,11.52,17.44a22.05,22.05,0,0,0,1.76,2.37h56c17.6-10.43,33.48-23,46.74-38.72a201.53,201.53,0,0,1-28.46,35.86c-.84.83-2,1.69-2.25,2.86h75.71a20.25,20.25,0,0,0,2.44-2.29c4.11-4.54,8.1-9.19,11.9-14,3.53-4.45,6.76-9.14,10.61-14.41a17.39,17.39,0,0,1-1.38,8.66,150.27,150.27,0,0,1-9,18.81,10.75,10.75,0,0,0-1.63,3.22h20.94V453.63a12.24,12.24,0,0,0-1.81-.91,64.5,64.5,0,0,0-7.59-2.44c-16.23-4.52-32-10.08-45.81-20.14a28.72,28.72,0,0,1-8.44-9c-6-10.54-11.53-21.37-16.88-32.27-1.91-3.89-2.18-8.44-4.74-12-6.26-8.83-12.66-17.6-21.06-24.51a23.92,23.92,0,0,1-7.84-11.82,63.24,63.24,0,0,1-2.49-12.19c-.95-8.76-1.65-17.55-2.66-26.3-1.14-9.83-2.1-19.69-3-29.55a9.06,9.06,0,0,1,.88,3.9c2.34,18.13,4,36.35,7.5,54.34,1.58,8.11,4.88,14.56,12,19.15a51.12,51.12,0,0,1,17,18.62c7.52,13.52,15.91,26.52,23.55,40a29.36,29.36,0,0,0,17.38,14.08,172.65,172.65,0,0,1,21.79,8.53c6.27,2.93,12.93,4.2,19.64,5.37a10.15,10.15,0,0,0,2.61.33V420.34c-.65-.25-1.37-.39-2-.57-7.68-2.11-15-5.31-22.81-7.08-15.1-3.42-21.66-16.1-29.88-27.11,15.57,4.12,30.25,9.95,42.82,20.18,3.48,2.83,6.78,5.88,10.54,8.33a12.68,12.68,0,0,0,1.36.86V384.22l-.13-.11c-7.85-6.63-14.37-14.68-22.12-21.33-7.92-6.79-14.37-13.95-15.57-24.73a1.48,1.48,0,0,0-.37-.3.34.34,0,0,0-.12-.06h0a.09.09,0,0,0-.06,0l-.06,0a1.55,1.55,0,0,0-.68-.11,5.66,5.66,0,0,0-3,2.27h0c-.22.27-.43.54-.66.8-1.46,1.67-3.32,2.9-5.62,2.35-5.16-1.24-10.47-2.05-15.36-4.19a27.1,27.1,0,0,1-3.26-1.67h0c-1.25-3.2-.62-6.53-.65-9.81-.08-12.08.12-12.21,11.87-10.57h.13a8.71,8.71,0,0,1,1.35.05h0c1.62.17,3.2.68,4.82.9,2.57.35,4.32-.74,4.52-3.33.36-4.73,1.16-9.53-.77-14.15a2.31,2.31,0,0,0-.54-.33v0h0a1.4,1.4,0,0,0-1.29,0l0,0a2.58,2.58,0,0,0-.6.5h0a6.56,6.56,0,0,0-.71.93c-1.86,2.74-4.44,3.22-7.4,2.83a176.16,176.16,0,0,1-23.85-4.72c-2.22-.62-4.12-1.57-4.61-4-1.7-8.47-3.82-16.86-5.44-25.36a.5.5,0,0,1,0-.12c-.55-2.84-1-5.69-1.44-8.57,0-.21,0-.42,0-.62,0-2.39.59-4.41,3.21-5.45,5.19-2.06,9.93-5.19,15.46-6.4l.11,0c.66,0,1.32,0,2,.09h0c8.74.61,16.47,4.1,23.44,9.33,2.79,2.09,5.37,4.43,8.6,5.81a22.35,22.35,0,0,1,10.18,8.37,14.33,14.33,0,0,0,15,6.6,19.62,19.62,0,0,1,12.07,1.39,12.18,12.18,0,0,0,1.66.77V253C507.37,253.14,507.17,253.3,507,253.44ZM429.18,468l0,.05,0,0A.19.19,0,0,0,429.18,468Z"/><path class="cls-3" d="M307.35,507.57H272.74c-.32-12.41,1.37-24.63,3.84-36.79.91-4.45.06-8.2-3.69-11.59-7.14-6.47-13.68-13.57-17.63-22.6-1-2.19-1.72-2.56-3.93-.9-9.59,7.19-17.33,16.42-26.68,23.84-9.6,7.61-19.67,13.67-32.76,13.39-15.26-.34-29.7-3-42.3-12-15.77-11.2-27.22-25.89-31.56-45-2-8.61-1.08-17.81-2.86-26.59a52.17,52.17,0,0,1,.2-21.23c.32-1.56.7-3.53,2.65-3.83,1.49-.23,1,1.93,2,2.47h0c2,1.14,2.17,3.19,2.58,5.1.77,3.55,1.52,7.12,2.6,10.58,1.5,4.86,2,9.67.52,14.6,0,.41-.07.83-.07,1.24,0,.63,0,1.27,0,1.91,0,1.58.14,3.15,0,4.73a20.56,20.56,0,0,0-.16,2.32,19.52,19.52,0,0,0,0,2h0c.51,6.62,4,12.25,7.8,17.53a51.76,51.76,0,0,0,17.94,16c.49.29,1,.56,1.48.83h0c.26.15.53.29.8.42h0c1.27.67,2.56,1.29,3.88,1.85h0c1.63.7,3.29,1.33,5,1.88l.3.06c20.64,4.45,39.12-1.46,56.72-11.82,17.76-10.46,30.26-25.69,39.87-43.6.39-.73.73-1.5,1.17-2.2.92-1.49,1.61-3.57,3.69-3.38h.14c1.84.25,2.28,2.31,2.82,3.82,6.39,17.92,16.93,33.48,27.58,49a7.56,7.56,0,0,0,1.06,1.66l0,0,0,0a27.77,27.77,0,0,1,2.11,2.43h0c4.29,5.56,5.85,12,5.27,19.08,0,.3,0,.6-.08.9l-.06.56c.3,12.12,2,24.09,3.61,36.07C307.13,502.82,307.7,505.2,307.35,507.57Z"/><path class="cls-4" d="M429.78,467.53c-2.94,7.31-7.46,13.56-12.27,19.65a173.74,173.74,0,0,1-17.15,19.22,8.55,8.55,0,0,0-1.09,1.17H380.7c4.88-3.37,9.79-6.71,14.62-10.18a284.24,284.24,0,0,0,33.87-29.28Z"/><path class="cls-5" d="M315.57,507.57h-9.22c-2.45-14.47-4.51-29-4.46-43.74a7.33,7.33,0,0,1,1.45-.9c2.44-1.19,5-.79,7.62.14l.15.05.49.48,0,0,.1.11-.12,5.91a48.91,48.91,0,0,0-.5,6.35v.05a69.94,69.94,0,0,0,.7,10.43,0,0,0,0,0,0,0c.74,5.55,1.95,11.05,3,16.57C315.07,504.59,315.7,506.09,315.57,507.57Z"/><path class="cls-4" d="M495.8,492.46c-2.29,5.13-4.92,10.1-7.46,15.11h-16a303.42,303.42,0,0,0,27.2-34.16C501.5,481.28,498.31,486.86,495.8,492.46Z"/><path class="cls-6" d="M327.29,507.57H314.11a107.28,107.28,0,0,1-3.45-24.18.38.38,0,0,1,0-.1q-.12-4.41.12-8.86c.09-1.62-.37-3.35.85-4.77a23.77,23.77,0,0,0-.5,6.35v.05c.55,9.39,6.77,16.71,11.76,24.48C324.38,502.87,325.84,505.22,327.29,507.57Z"/><path class="cls-7" d="M342.56,100.93a28.23,28.23,0,0,0,2,9c2.5,3.76,3.67,7.65,1.17,11.91,0,5.09-.24,10.2,0,15.29a104.17,104.17,0,0,1-1.93,21.95,2.61,2.61,0,0,1,.07,2.25c-3.9,14.62-11,27.39-24.08,35.41-15.44,9.44-31,6.14-45.94-1.95-4-2.15-6.91-2.61-10.84-.05-7.3,4.75-15.64,5.11-24.06,4.44-2.49-.2-4.42-1.19-5-4.27A106.41,106.41,0,0,1,209,220.44q-39.35,28.83-82.28,5.87c-17.79-9.57-35.58-9.32-53.53-.69a17.18,17.18,0,0,0-6.11,4.26c-4.35,5.42-9.54,6-15.52,3.27-3.28-5.36-1.94-11.3-1.4-16.83a65.6,65.6,0,0,1,10.58-30.55c1-1.19,1.3-2.77,2.34-3.92,2.71-.25,2.5,2.14,3.08,3.63,1.48,3.86,2.66,7.85,4.78,11.41,1.28,2.17,2.31,4.89,5.57,4.87,2.29-2.38,2.07-5.43,2.27-8.36a79.69,79.69,0,0,0-3.2-26.9c1-4.67-2.2-8.71-2-13.26,1-2.61,2.6-1.37,3.87-.39,3.74,2.91,5.65,7,6.81,10.07-1.53-6.59-3.83-14.2-10.23-19.82-1-.87-2-1.72-2.2-3.18a2.44,2.44,0,0,1,2.37-2.4c5.73,3,8.92,8.35,11.9,13.69,2,3.49,2.82,7.61,8,7.68,5.57.08,10.61-1.08,14.09-5.86s7.16-9.19,12.17-12.38a15.88,15.88,0,0,1,5.84-2.7c1.48-.24,3.2-.42,4,1.2.67,1.41-.53,2.52-1.43,3.46-2.17,2.28-4.78,4.06-6.82,6.54a130.3,130.3,0,0,0-8.27,12.06,53.17,53.17,0,0,1,35.65-15.65c1-.05,2,.06,3,0s2.19.42,2.54-.89c.28-1-.53-1.86-1.18-2.61a12.18,12.18,0,0,0-4-2.93c-3.52-1.68-4-3.73-2.51-7.59,5.78-15.22,17.23-25.44,29.59-34.91A134.31,134.31,0,0,1,187.75,89a15.8,15.8,0,0,0,5-5.43c2.63-4.24,6.12-7.41,11.15-8.54L212,68c1.25.89,1.44,2.27,1.71,3.63-.23,3.12,4.37,5,2.29,8.57-10.41,2.09-15.5,10-13.32,20.78.26,7.71,12.36,16.59,19.43,14.18,3.31-1.13,4.66-3.94,5.64-7.08a19.53,19.53,0,0,0,.4-9.36,2.64,2.64,0,0,1,.84-2c2.27-.57,4.17.76,6.24,1.24,5.92,1.36,9.72-.94,11.1-6.8.19-.8.23-1.64.47-2.44.78-2.64,2.68-3.38,5-2.46s1.83,3,.91,4.6a88.18,88.18,0,0,1-11.15,15.85c-12.76,14.08-17.29,15.72-36.29,13.53-6.33-.72-10.78-4-13.21-10.21.23,10.8,3.09,14.57,13.23,18.26,3.82,1.39,8.15,1.75,11.08,5.11.47,2-.9,3.45-1.61,5.1-2.55,5.91-1.92,11.3,2.42,16.22a43.31,43.31,0,0,0,13.54,10.23,21.5,21.5,0,0,1-7.66-11.52c-1.33-4.7-.34-7.08,3.37-8.95,3,.78,5.09,3,7.65,4.5,15.25,8.91,31.26,9.32,47.4,3.51,9.62-3.47,16.88-10.35,21.6-19.61,5.43-10.63,8.13-22,9.12-33.88.35-2.34-.35-4.55-.87-6.78-1.9-10.09-12.41-19.13-24-20.66-1.8-.24-3.66-.11-5.38-.81s-3-1.62-2.77-3.63,1.77-2.64,3.59-2.65c3.17,0,6.27.19,9.15,1.78,3.9,2.16,8,3.19,12.37,1.49,2.17-.84,3.71-.22,4.65,2.2,2.1,5.38,4.57,6,9.69,2.67a5.27,5.27,0,0,1,2-1c8.11,2.28,12.79,8.42,16.95,15.14C341.29,90.68,342.64,95.55,342.56,100.93Z"/><path class="cls-8" d="M203.94,75c-4.67,2.95-8.69,6.4-11.4,11.45-2.1,3.92-6.66,5.34-10.18,7.7a121.86,121.86,0,0,0-27.93,25.88c-3.45,4.39-4.39,10-7.34,14.64-1.27,2,1.35,2.29,2.46,2.83,3.24,1.56,6.15,3.42,7.27,7.05.42,1.38.82,3-1.87,2.75C138,145.6,124.33,152.28,112.63,164a3.58,3.58,0,0,1-1.85,1.05c1.64-5.1,4.66-9.44,7.65-13.78s7.34-7.85,11-11.88c-7.84.31-13.1,4.88-17.19,10.73-3.79,5.42-8.05,9.44-14.92,10.33-5.59.72-9.27-.83-11.23-6.09-2.46-6.59-7.57-11.16-11.78-16.43,1.17-4.92,8.47-11.85,12.91-12.26,1,2.41-1.26,3.48-2.1,5.13-.53,1.06-1.13,2.11-.4,3.25.87,1.34,2.21,1.17,3.56.92,6.07-1.14,9.45-6.56,6.87-11.06-3.83-2.66-3.87-3-.11-5.76a153.19,153.19,0,0,1,29.74-16.9c13-5.51,25.45-12,38.07-18.18,1.49-.73,3-1.3,4.59-1.9a4.57,4.57,0,0,1,3.57-.2c1.83,1.4,3.52,0,5.11-.47A110,110,0,0,1,203.94,75Z"/><path class="cls-3" d="M127.21,271.08c-.45,7.94.73,15.92-.87,23.86-.58,2.87-1.57,2.87-3.54,1.7-4.43-2.64-8.14-6.19-11.93-9.64-.8-.73-1.44-2.11-2.82-1.55-1.13.47-.73,1.72-.8,2.66-.87,10.31-3.83,20.6-.17,30.95.37,1.06.5,2.48-.55,3.25-1.31,1-2.6,0-3.65-.75a34.49,34.49,0,0,1-4.61-3.75c-13.83-13.48-29-25.68-38.63-43.05-5.35-9.6-10.53-19.16-14.27-29.5-4.2-11.63-3.89-23.51-1.37-35.3,2-9.18,3.84-18.38,7.62-27.2,2.45-5.72.59-12.49.74-18.78s1.53-11.84,5.42-16.68c.87-1.08,1.32-3.32,3.64-2.36,1.18,1.61.44,3.22-.15,4.73a51.65,51.65,0,0,0-3.32,22A32.83,32.83,0,0,1,54.4,188.5c-6.77,13.56-6.22,28-4.34,42.46.45,3.41,4.14,5.22,4.62,8.68.17,1,.47,2,.7,3,3.56,15.32,11,28.56,21.47,40.17a32.19,32.19,0,0,0,4.9,4.13c3.12,3,6.92,4.93,10.92,6.67.14-1.65-1.06-2.76-1.45-4.15-1.53-4.3-2.91-8.64-4.09-13.06-2.22-8.47-4.07-17-5.67-25.62a21.79,21.79,0,0,1-.51-6.39,4.8,4.8,0,0,1,1.81-3.5,2.3,2.3,0,0,1,1.45-.33,5.87,5.87,0,0,1,2.4,3.06,81.49,81.49,0,0,0,19.09,25.25,11.15,11.15,0,0,0,4.32,2.87c3.73.1,3.77-2.11,3.31-4.94-.75-4.69-3.3-9-2.89-13.93a2,2,0,0,1,1.53-1.33c3.34,1.37,3.59,5,5.39,7.48,1.47,2,2.86,4.08,4.49,6C123.29,267.34,126.4,268.19,127.21,271.08Z"/><path class="cls-9" d="M53.57,240.79c-1.3-4.83-5.08-8.39-5.67-13.85-1.58-14.51-.6-28.44,6.15-41.57a18.83,18.83,0,0,0,2.27-10.94c-1.08-10.29,1.14-20.05,5.09-29.49,10-19.5,26-31.85,46-39.74,3.69-3.43,7.45-10.65,9.06-16.49,1.09-4,1.86-8.18,5.36-11,3.65-.63,5,2,6.08,4.61s.08,5.17-2.1,7.15c-1.16,1.06-3.14,1.44-3.08,3.56a8,8,0,0,0,.48,1.92c3.17,4.84,5.06-.38,7.52-1a13.94,13.94,0,0,1,1.83-1.23c9.33-4.57,18.83-8.75,29-11.12,2.16-.5,4.45-1.65,6.52.35-17.18,9-35,16.86-52.42,25.31a147.69,147.69,0,0,0-22.65,14l3.35,1.63c-2.76,1.69-5.51,3.4-9,3-5.57,2.66-9.07,7.59-13,12l-2,2c-1.86,4.74,1.7,8.66,2,13.07.71,4.33,3.85,8.22,2.37,12.95-1.73-.59-2.18-2.16-2.76-3.63-.77-2.39-2.13-4.26-4.91-4-2.63.27-3.76,2.27-4.57,4.62a15.36,15.36,0,0,0-.55,4.89c-.11,6.07.2,12.18-1.39,18.14-9.13,14.43-13.1,30-10.27,47C56,236.91,56.12,237.84,53.57,240.79Z"/><path class="cls-10" d="M121.22,265.83c-4.38-3.74-6.68-8.86-9.08-13.9-1.6-1.91-2.64-4-2.24-6.5-.31,2.57,1.33,5,1.23,7.53,1.22,4.81,2.61,9.6,3.64,14.45,1,4.58-1,6.4-5.55,5.45,2.69-2.95,2.11-5.78.08-8.93-4.66-7.22-9.24-14.5-13.61-21.25,3,7.24,5.79,15.16,9.3,22.81.66,1.44,1.69,3,.17,4.57A77.69,77.69,0,0,1,84.1,241.14c-1.89-3.78-1.88-7.45,1.39-10.38s7-2.47,10.62-.44c4,2.23,6.7,5.83,10,9.17.61-4.08,2.46-7.46,6.52-9.13,4.23-1.75,8.1-.46,11.84,1.6,5.8,3.19,9.46,8.15,11.79,14.24a8.82,8.82,0,0,1,.31,1.69,169,169,0,0,1,.18,17.72c-.08,2.66-.4,5.35-3.58,6.32-1.8.19-3.63.49-5.09-1,2.18-1.89,2.35-3.82,1-6.5-4.08-7.95-8.37-15.81-11.63-23.92a94.46,94.46,0,0,0,4,20.19C121.94,262.38,122.77,264.17,121.22,265.83Z"/><path class="cls-11" d="M391.65,142.76c.54-1.89,2.58-1.75,3.75-2.8,11,21.89,16.24,45.63,21.89,69.22,1.75,7.34,5.13,12.8,12.26,16.37a144.21,144.21,0,0,0,27.77,10.28c1.72,1.13,3.76,2,4.15,4.33.14.88.45,2-1.2,1.78-14.66-2.94-28.48-8.5-42.39-13.75a11.75,11.75,0,0,0-1.45-.34c-3.85.3-6.94-.73-8.26-4.8-1.48-3,.31-6.18-.71-9.19-3.63-19.06-6.09-38.38-12-57C393.42,152.39,391.16,148,391.65,142.76Z"/><path class="cls-10" d="M158.2,288.54l-.6-.78c-3.9-2.19-6.36-5.74-8.64-9.39-5.94-9.49-10.42-19.58-12.16-30.75-.14-3.59.75-6.64,4.28-8.34,3.66-.61,6.62,1.66,9.94,2.5,1.91.48,3.76,1.41,5.73,1.54,6.2.41,10.07,3.52,11.6,9.56,2.37,7.66,2.78,15.68,4.07,23.53.37,2.27.87,4.55,1.05,6.86,0,3.42,2.33,6.57,1.15,10.12-2.61,1.57-3.5-1-4.58-2.21a105.75,105.75,0,0,1-18.66-30.59c2.21,6.73,5.07,16.18,8.78,25.33.5,1.22,1,2.51.19,3.83C159,290.47,158.6,289.5,158.2,288.54Z"/><path class="cls-8" d="M320.59,72.1l-.75.76c-.4.29-.83.55-1.25.81-3.19,2-6.59,2-9.15-.56s-1.42-5.62.17-8.32c1.9-3.22,3.51-6.47,3.08-9.83.16,7.37-4.84,13.54-11.69,13.95a8.37,8.37,0,0,1-8.11-3.86c-1.9-2.92.56-4.48,2-6.43,1.91-2.53,2.09-4.57,1.75-10.21.91,4.46.25,10.16-5.69,13.88-2.29,1.43-4.86,2.63-7.45.87s-1.92-4.25-1.58-6.8c.76-5.81,1.23-11.64-3.36-16.38,0-1.42,1-1.84,2-2.22,4-.79,8.08.06,12.09-.56l2.06,0a9.58,9.58,0,0,0,5.88.9c7,4.41,13.76,9.26,19.17,15.63,1.1,1.3,1.35,3.35,2,5.05C323.06,63.39,325,68,320.59,72.1Z"/><path class="cls-12" d="M292.72,37.2c-3.54,3.46-7.93.95-11.86,1.68-.4-.33-1-.62-1.35-.35-5.88,4.81-13,5.51-20.15,6.58-3.7.55-7.42,1.12-10.53,3.75s-7.35,2.78-10.43,5.36a2.73,2.73,0,0,1-.55,1.24c-4.31,2.34-5.33,7.31-8.46,10.72-4,4.42-7.6,8.54-14.29,7.09a1.83,1.83,0,0,1-2.12-1.4L212,68c2.62-7.79,7.67-13.49,15.23-16.54a23.37,23.37,0,0,0,9.53-6.67,12.76,12.76,0,0,1,10.39-5c3,.07,5.56-1.09,8.31-2.47,5.88-3,12.15-5.54,18.86-2.08,1.1.57,2.33,1.07,3.29.4C283.14,31.78,287.93,34.35,292.72,37.2Z"/><path class="cls-10" d="M124.17,348.13c6.89,8,11.5,17.33,14.88,27.17,1.43,4.17,1.9,1.43,3,.32l.6.47a106.51,106.51,0,0,1,4.07,13.62c-.51-3.71-2.28-9.17-.12-14.61,2.35-1.41,3.61.51,4.9,1.79a36.63,36.63,0,0,1,5.17,7.11,46.72,46.72,0,0,1,.87,10.43c-.1,4-1.49,7.2-5.65,8.4-3.67,1.06-7.23-.72-9.57-4.58a23,23,0,0,1-1.59-3.36c-1,2.8-1.75,5.51-5.4,4.37-4.73-6.06-8-12.51-9-20.48-1-8.34-2.58-16.63-3.19-25C123.05,351.76,122.52,349.77,124.17,348.13Z"/><path class="cls-13" d="M167.13,340.81c-1.55-6.28-4.57-12.24-4.07-19,2.69-2,4.83.12,7.14.92,4.62,2.21,4.64,2.22,5.62-2.31.36-1.64.63-3.44,2.65-3.67,1.72-.19,2.5,1.32,3.28,2.57a11.94,11.94,0,0,1,1.24,2.69,39.9,39.9,0,0,1,.28,12.43,12.43,12.43,0,0,0,2.46,9.33c2.58,3.48,4.54,7.37,7,10.95,3.78,6.29,9.28,10.7,15.57,14.24,1.84,1,4,1.63,5.09,3.76-.85,5.28-4.16,8.74-8.47,11.45-3.68-.56-5.45-3.58-7.53-6.09a92.65,92.65,0,0,1-18.14-35.25c-.74-2.73-1.41-5.54-4.17-7.06-2.82.09-3.32,2.37-4.11,4.37-.53,1.3-.59,2.82-1.77,3.81C166.63,344.11,168.24,341.59,167.13,340.81Z"/><path class="cls-13" d="M156,384c-3.86-2.13-4.39-7.55-8.9-9.05a5.93,5.93,0,0,1-4.88,1.62,1.19,1.19,0,0,1-.14-.92c-2.21-7.46-4.14-15-3.93-22.84.16-5.66,1.77-6.47,6.63-3.44,4.47,2.78,8.47,6.31,13.29,8.55a11.53,11.53,0,0,0,8.77-6.31c.66-1.27.26-3.6,2.89-2.32,1.55,5.87,0,11.9,1,17.8a9.8,9.8,0,0,1-4.16,5c-2.36.86-4.51-1.64-6.89-.44a4.45,4.45,0,0,0-1.87,1.48c-1.55,3.18.44,6.65-.82,9.86A2.25,2.25,0,0,1,156,384Z"/><path class="cls-14" d="M342.56,100.93c-2.13-4.64-2.61-10-5.84-14.13.31-.35.32-1,.95-1,15.77,5.77,29.84,14.12,40.78,27.17.57,2.4,3.84,3.93,2.25,7-1.88.56-2.72-.46-3.16-2.08-2.66-5.71-8.66-6.66-13.48-9-6.29-3.09-13.54-4-19.36-8.34A1.43,1.43,0,0,0,342.56,100.93Z"/><path class="cls-15" d="M168.05,82c-11.1,1.33-21.19,5.78-31.28,10.21-1.5.66-3,1.24-4.55,1.86-.48-3.47,3.14-3.56,4.51-5.51,3.09-1.91.93-3.35-.31-5.08-1.13-1.58-4.48-2.14-2.66-5.25,1.86-.89,3.82-.64,5.77-.52,3.74,1.28,6.32-.06,8-3.51A9.66,9.66,0,0,1,150,70.51a3.4,3.4,0,0,1,2-.4c3,1.51,6.06,1.8,9.05-.12a26,26,0,0,1,9.95,11Z"/><path class="cls-16" d="M138,248.09a93.19,93.19,0,0,0,19.61,39.67c-8.72-1.82-16.36-5.93-23.29-11.4-1.24-1-3.9-2.16-1.15-4.43,2-2.07,2.12-4.67,2.11-7.34,0-5.9,0-11.81.05-17.71.37-.86.83-1.56,1.95-1.25C137.8,246.36,137.61,247.31,138,248.09Z"/><path class="cls-3" d="M169.91,324c-2.3-.66-4.19-2.65-6.85-2.17-2.85-3.64-2.06-8.2-2.77-12.3-1.19-6.91-1.45-14-2.09-21l1.93,1.23a69.09,69.09,0,0,1,12.53,9.83c2,7.34,1.13,14.65-.28,21.94C172.14,322.78,171.72,324.2,169.91,324Z"/><path class="cls-17" d="M124.17,348.13c1,9.78,1.9,19.55,3.48,29.3,1.19,7.31,3.11,13.81,7.81,19.48.26.31-.19,1.2-.31,1.83a8.4,8.4,0,0,1-1,3.34c-2.15,3.69-4.41,2.32-6.82.24-1.73-1.5-2.35-3.52-3-5.55,2.9-10.62-3.34-19.92-4.27-30,0-4.24-.25-8.51.22-12.7C120.51,351.75,120.19,348.31,124.17,348.13Z"/><path class="cls-18" d="M507.58,246.45v5.08c-1.65.26-3.18-.58-4.66-1.25-10-4.46-20.09-7.54-31.2-5.1a9,9,0,0,1-6.54-1,.6.6,0,0,1-.13-.09,3,3,0,0,1-.38-.24l-.08-.05a10,10,0,0,1-1.29-1c-.74-1.22-2.37.66-3-.87a3.34,3.34,0,0,0,.2-1.07c0-1.58-1.25-2.53-2.23-3.62a4.44,4.44,0,0,1-.92-1.42c7-.32,14-2.44,21.05-.07,2.22.93,4.48,1.75,6.76,2.52h0c5,1.67,10,3.09,14.88,5C502.58,244.21,505.38,244.75,507.58,246.45Z"/><path class="cls-19" d="M122.45,78c-3.51,5.53-6,11.49-5.12,18.12.57,4.07-.57,6.11-4.44,7.05a47.58,47.58,0,0,0-5.51,2c.27-9,1.75-17.79,6.59-25.61,2-3.31,4.94-5.54,9.22-4.79a1.73,1.73,0,0,1,.59,1.77A2.77,2.77,0,0,1,122.45,78Z"/><path class="cls-20" d="M121.22,265.83c-1.22-6.3-3.49-12.33-4.49-18.7a33.23,33.23,0,0,1,.21-10.33q4.69,9.69,9.41,19.38a90.79,90.79,0,0,0,4.74,9.27c2.6,4.07.82,5.23-3,5.47a6.07,6.07,0,0,0-.85.16C125,269.6,122.59,268.3,121.22,265.83Z"/><path class="cls-8" d="M150.08,71c-2.54,7.86-4.72,9.61-9.84,7.91-3.38-1.91-7.68-1-10.87-3.49a1.42,1.42,0,0,1,.73-2.35c3.43-1.3,4.32-4.16,4.85-7.32.46-.91,1.37-.9,2.19-1.07C142,65.66,147.45,65.44,150.08,71Z"/><path class="cls-21" d="M337.67,85.76c-.32.35-.64.69-.95,1-3.88-6.55-9.6-11.07-16.13-14.71,1.62-4.31,1.2-8.82,1.23-13.28C328.5,67,333.13,76.33,337.67,85.76Z"/><path class="cls-22" d="M507.58,243.82v3.59q-14.52-5.17-29.07-10.31l-.53-.2s0,0,0,0c-.86-.32-1.11-.58.42-1.13C488.49,237.16,498.65,238.4,507.58,243.82Z"/><path class="cls-23" d="M161.08,70c-2.09,3.84-5,4.12-9.1.91-2.75-2.2-5.6-4.32-6.76-7.88C151.89,62.19,156.86,65.23,161.08,70Z"/><path class="cls-24" d="M395.31,138.84c-2.82,0-3.6-3.11-5.92-3.85-1.56.13-2.08-1.07-2.72-2.12-.53-3.56-4.44-6-3.35-10.09,2-1.13,3.24.13,4.52,1.42s2.07,2.86,3.7,3.69C394,131.14,396.14,134.47,395.31,138.84Z"/><path class="cls-25" d="M135,65.76c3.24,6.36-2.34,7.07-5.82,9.11A3.11,3.11,0,0,1,127.19,77c-1.42.45-2.86,1.17-4.22-.15.07-.7.15-1.39.22-2.09C126.5,71,129.81,67.18,135,65.76Z"/><path class="cls-26" d="M169,348.71c-1,1.47-.66,3.15-.67,4.75,0,2.27-.16,4-3.19,2.52a2.08,2.08,0,0,0-3.06,1.44c-.95,2.9-2.49,1.64-4,.46,6.15-4,8.43-10.11,9.07-17.07L169,344C170.55,345.54,170.55,347.12,169,348.71Z"/><path class="cls-27" d="M391.54,127.89c-3.63-.12-4.47-4.86-8.13-4.94-2.17,0-2.6-1.47-2.74-3.19.25-2.6-3.65-3.84-2.22-6.83C384.81,116.16,388.16,122,391.54,127.89Z"/><path class="cls-28" d="M145.22,63A24.3,24.3,0,0,1,152,70.9l-1.9.11c-3.42-3.94-9.07-3.3-12.94-6.32A15.39,15.39,0,0,1,145.22,63Z"/><path class="cls-12" d="M300.66,38.13c-2.13.84-4.29,1.84-5.88-.9C296.89,36.55,298.76,37.48,300.66,38.13Z"/><path class="cls-29" d="M343.56,160.85c.07-.58.13-1.17.2-1.75,1.67,7.88,1.25,15.83.25,23.69-.38,3,.24,5.24,2.55,6.36,14.63,7.13,19,20.92,23,35,3.75,13.14,4.57,26.71,6.17,40.2,4.3,36.45,4.68,73,3.45,109.57-.67,19.86-7.22,38.78-17.48,56-3.31,5.56-5.23,11.84-9.58,16.86-10.72,12.39-24.69,16.68-40.4,16.94l-.1.08c-1.66-1.6-2.13-3.29-.35-5.12,3.17-3.25,1.72-5.15-1.62-7.18-5.74-3.48-11.47-7-16.34-11.75-11.58-16.26-22.25-33-29-53-2.66,4.58-5,8.45-7.18,12.37-12.4,22-30.55,37.38-53.94,46.49a71.89,71.89,0,0,1-39.47,4.15,7.31,7.31,0,0,1-1.74-.88c-.86-2.51-5.22-1.28-5.11-4.83,1.29-1.8,3.16-1.49,5-1.39,19.18,1.05,36.35-3.92,51.21-16.56,10.1-8.59,19.21-17.85,25.57-29.67a71.93,71.93,0,0,1,11.39-15.12c-3.61,1.64-7,3.7-10.54,5.49-1.13.57-2.64,1.25-3.55-.25-.71-1.17.21-2.37,1-3.07,7.25-6,13.22-13.54,22.43-17.12q22.3-8.69,44.25-18.27a166.93,166.93,0,0,0,49-32.95c1.37-1.32,2.62-4.19,4.56-3.08,2.39,1.38.78,4,.16,5.88,22-31.76,13-86.48-6.76-116A158,158,0,0,1,356,219.5c1.29,6,2.4,12.09,3.15,18.21s1.58,12.21,1.88,18.37c.2,4,1.36,7.9.74,11.93-.18,1.13-.32,2.66-1.7,2.71s-1.57-1.49-1.83-2.58c-.45-1.95-.76-3.93-1.09-5.9-2.61-15.14-9.47-28-21-38.16-2.7-2.39-5.51-5.11-9.69-3.08-2.61,2.11-3.41,5.26-4.6,8.15-2.73,6.61-5.11,13.39-8.71,19.61-.8,1.39-1.17,4.23-4.1,2.61-1.22-4.05.68-7.8,1.13-11.68.36-3.12.88-6.22,1.33-9.33,1.13-3.22.79-6.57.74-9.87a8.32,8.32,0,0,1,3.79-7.61c9.39-6.46,15.29-15.39,18.78-26.18C337.66,178.05,341,169.59,343.56,160.85Z"/><path class="cls-30" d="M507.58,279.93v19.22C501,305.24,498,313,497.38,322.06a25.25,25.25,0,0,0,4,15.56c2,3.16,4.33,6.1,6.21,9.34v38.77A152,152,0,0,1,491,370.16c-4-4.14-7.68-8.64-12.56-11.88-7.25-4.82-8.6-12.34-9.1-20.23,0-.12,0-.24,0-.36-.25-7.11-4-11.94-9.91-15.66-2.56-1.6-5.75-2.57-7.48-5.33a6,6,0,0,1-.51-.93c2.26-1.92,4.4,0,6.4.5,2.81.67,3.58-.11,3.55-2.72-.07-4.57,0-9.14-.05-13.71v-.06a2.25,2.25,0,0,1-.45-.8,3.18,3.18,0,0,1,.59-2.43l.11-.2c2.19-3.33,5-6.18,7.5-9.27,1.85-2.27,2.08-4.2.42-6.69A90.41,90.41,0,0,1,461.56,266a14.74,14.74,0,0,0-7.26-7.2c-5.31-2.73-10.76-5.14-16.18-7.64-1.25-.58-3.08-.71-3.62-2.27a3,3,0,0,1-.15-1c1.56-1.62,3.34-1.1,5.08-.49,8.73,3,18,4.94,24.49,12.45a8.72,8.72,0,0,0,3,1.79c5.4,2.54,10.48,5.17,13.71,10.81,3,5.19,8.61,6.56,14,5.13C499.65,276.25,503.63,277.67,507.58,279.93Z"/><path class="cls-31" d="M507.58,435.55V455c-5.68-2.72-11.86-4.07-17.86-5.75a133.25,133.25,0,0,1-41-19.75c-3.57-2.51-5.45-6.27-7.35-9.9-6.66-12.79-14-25.2-18.87-38.94-2.63-7.41-8.66-13.27-14-19.16A113,113,0,0,0,397,350.54c-4.24-3.54-5.35-9.23-6.24-14.33-1.59-9.1-2.18-18.39-3.22-27.59-1.23-10.85-2.53-21.68-3.71-32.53-.28-2.53-1.07-5.2,1-8,3.86,5.17,2.84,11.05,3.63,16.44,2.46,16.85,3.64,33.89,7.66,50.5,1.13,4.66,3.12,8.67,7.39,11.32,10.9,6.77,18.09,16.73,24.17,27.83,6.3,11.49,13.19,22.65,19.87,33.93,3.79,6.39,9.05,11,16.34,12.95,11.07,3,20.9,9.34,32.06,12C499.78,434.06,503.69,434.77,507.58,435.55Z"/><path class="cls-31" d="M434.35,247.9c6.84,3.22,13.62,6.59,20.55,9.61a15,15,0,0,1,8.14,8.22,87.2,87.2,0,0,0,8.6,15.59c1.37,2,1.41,3.25-.3,5.08-3.14,3.36-6,7-8.92,10.54-4.37,6.56-10.28,6.31-16.91,4.21a61.45,61.45,0,0,0-12.15-2.45c-6.36-.65-9.64-4-11.15-10.11-1.72-6.9-3.78-13.72-5.41-20.65-.55-2.38-.66-5-2.25-7-.8-3.68.49-5.94,4.22-7.07C424.1,252.24,428.54,248.27,434.35,247.9Z"/><path class="cls-14" d="M507.58,413.57v7.94c-10.66-2.46-20.89-6.31-31.25-9.73-9.46-3.11-14.25-11.47-20.09-18.6-1.57-1.92-3.19-3.8-4.75-5.73-.67-.83-2.11-1.38-1.29-2.85s2.08-1.29,3.46-.83c7.07,2.36,14.09,4.8,21,7.65C487.15,396.61,497.23,405.27,507.58,413.57Z"/><path class="cls-31" d="M357.68,155l7.44-16.19c1.3-2.84,2.45-4.19,5.71-1.49,4.49,3.71,8.94,7.54,12.32,12.12,3.54,4.82,3.63,11.12,3.54,17-.05,3.19-1.3,6.37-2,9.55-4.59,0-9.18-.46-13.76-.49s-7.25-2.2-8.7-6.44C360.62,164.39,359.27,159.65,357.68,155Z"/><path class="cls-31" d="M451.37,315.77A85,85,0,0,1,465,324.65a12,12,0,0,1,4.26,13.4,2.74,2.74,0,0,1,0-.5c-8.58,6.66-17.65,1.95-26.54,1.09-1.11-.11-2.16-.94-3.24,0-2.28-7-1.46-14.24-.53-21.26.39-3,4.12-4,7.33-3.43A34.68,34.68,0,0,1,451.37,315.77Z"/><path class="cls-14" d="M407.46,213.86c1.47,2.89,1.32,6.09,1.75,9.18-2.47,1.59-4.37-.2-6.35-1.17-2.35-1.15-4.39-2.86-6.83-3.86a.41.41,0,0,0-.38.17,1.31,1.31,0,0,0,0,1c.39,1.51,1.22,3-.05,4.5-4.89,7.16,0,14,.87,21.24-9.58-9.84-15.75-46.78-10.08-61.63,4.17,7.83,8.12,15.42,12.24,22.92a62.7,62.7,0,0,0,5.6,8.74C405.4,216.39,407.5,217.51,407.46,213.86Z"/><path class="cls-31" d="M507.58,250.42v4.24l-3.41,4.18a8.17,8.17,0,0,1-3.23,2.39c-2.14.84-4.51.51-7.12-.4a58.51,58.51,0,0,0-12-3.3c-7.42-.9-11.95-5.14-15.44-10.68-.6-.95-1.17-1.93-1.71-2.95-.15-.25-.28-.51-.42-.77l.35.07a27.27,27.27,0,0,0,11.34-.06c9.16-1.84,17.5,1.56,25.78,4.92Z"/><path class="cls-31" d="M394.43,218.94c-1-.92-1.34-2-.37-3s1.7,0,2.5.52c4,2.55,7.82,5.6,12.65,6.62,1,3.75,5.24,2.57,7.22,4.81,3.32,3.85,6.68,7.65,9.9,11.58.72.86,3.1,1.56,1,3.35-4.17-.52-8.07.88-12,1.87s-6.69,0-8.84-3.54a139,139,0,0,1-9.93-18.91C396,221,395.7,219.66,394.43,218.94Z"/><path class="cls-32" d="M414.55,260.92c3.36-1,2.4,2.15,2.69,3.31,2.22,8.81,4.63,17.56,7.11,26.3,1.19,4.23,3.61,5.72,7.59,6.38a176.26,176.26,0,0,1,18.34,3.87c3.77,1,6.63.81,9.12-2.43.61-.79,1.26-2.61,3-1.41-.39.95-.77,1.89-1.15,2.84-3.8,9.51-11.49,5.41-17.81,4.72-6-.66-12-2.48-17.94-3.87-1.58-.37-3.53-.72-3.87-2.68C419.52,285.56,415.75,273.49,414.55,260.92Z"/><path class="cls-4" d="M379.37,451.88c-13.05,16-28.74,25.91-49.22,29.08C345.86,469.75,362.66,461.86,379.37,451.88Z"/><path class="cls-32" d="M464.25,243.13c2.14,2.52,4.25,5.06,6.41,7.55a12.35,12.35,0,0,0,7,4.3,112.5,112.5,0,0,1,14.79,4c4,1.45,7.82,2.16,11.7-.14-4.68,7-4.69,7-12.75,4.85-3-.81-5.94-2.07-9-2.65-10.36-2-15-9.74-19.13-18.23Z"/><path class="cls-33" d="M357.68,155c3.56,3.74,4.26,8.77,5.81,13.37,1.33,4,3.21,5.89,7.76,5.68A30.64,30.64,0,0,1,384.67,176c-7,2.77-14.18,1.65-21.34.83-1.17-.13-1.59-1-1.87-2C359.69,168.3,357.52,161.88,357.68,155Z"/><path class="cls-33" d="M394.43,218.94c1.18-2.92,1.56.05,1.72.37,3.51,7.17,7.39,14.13,11.38,21.05,1.88,3.25,4,3.69,7.33,3.29,4.12-.5,8.13-3.15,12.44-.87-4.78,1.27-9.58,2.45-14.33,3.82-2.82.81-4.68-.22-6.4-2.41-4.88-6.19-7.3-13.67-10.94-20.52Z"/><path class="cls-34" d="M345.72,121.86,344.55,110c10.76,4.2,11.73,12.74,2.4,22C345.73,128.62,347.67,125,345.72,121.86Z"/><path class="cls-33" d="M439.47,338.68c.09-1.6,1-1.8,2.39-1.56q7.78,1.35,15.6,2.54c3.17.48,6.22.4,9-1.8.55-.45,1.66-2.92,2.83-.3-4.54,7.92-11.15,7.82-18.59,4.93C447,341.07,443.21,339.94,439.47,338.68Z"/><path class="cls-34" d="M380.67,119.76c.92,1.06,1.83,2.12,2.74,3.19,1.1,3.43,3.93,6.09,4.33,9.83-3.07,1.08-4-2-5.92-3.09-2.1-1.23-3.4-3.4-5.47-4.68-1.74-2.74-.09-4.91,1.19-7.14Z"/><path class="cls-35" d="M391.65,142.76c1.82,4.57,3.47,9.18,3.79,14.14-4.58-4.46-6.48-10.54-10-16C388.14,140.46,389.19,144,391.65,142.76Z"/><path class="cls-36" d="M376.35,125c3.58,0,5,3.37,7.58,4.88,1.36.79,2.09,2.51,3.81,2.89l1.65,2.21c-.12,1.44,1.61,2.56.44,4.71C385.29,134.64,379.73,130.89,376.35,125Z"/><path class="cls-37" d="M309.68,251.94c4.88-7.17,7.56-15.38,11-23.26,1.35-3.13,2-6.71,5-8.9,2.06,2.22,1.08,4.66.36,7a148.8,148.8,0,0,1-6.91,19c-2.5,6.88-5.68,13.48-8.5,20.24-5.94,14.23-16.07,24.86-27.91,34.45a221.56,221.56,0,0,0-35,36.06,121,121,0,0,0-11.17,16.35c-6.67,12.3-15.37,23.05-24.79,33.28-10.93,13.56-25.42,21.31-42.18,24.36-10.24,1.86-20.87,2.06-30.94-1.65-3.88-1.42-5.2-.84-4.57,3.3a2.72,2.72,0,0,1-.4,1.43c-3.49,2.3-4.76-1.18-6.76-2.65-1.68-1.23-1.83-3.36-2.7-5.06a23.22,23.22,0,0,1,.08-9.06c1.61,1.8,3.2,3.63,4.84,5.41,2.38,2.56,3.51,1.09,4.28-1.39,3.34-1.45,6.75-.19,9.71.69,7.48,2.23,14.79.41,22.16.22a67.39,67.39,0,0,0,18.55-4.87c2-.85,3.89-1.77,5.76-2.81,5.4-2.89,10-7,15.27-10.09,2.67-3.68,6.11-6.78,8.06-11-.14-1-.69-2.12.32-3,4.29-4.29,6-10.24,9.6-15,1.09-1.44,1.89-3.1,3-4.52a24.46,24.46,0,0,0,2.94-5.23c1.5-3.29,3.64-6.22,5.21-9.47,1-2,2.59-3.69,3.74-5.62,2.11-3.75,5-6.95,7.38-10.52,3.05-3.28,5.81-6.82,8.6-10.32a11.42,11.42,0,0,1,2.38-2.38c3.06-2.22,5.46-5.14,8.14-7.77,2.94-2.76,6.33-5,8.9-8.19,8-6.92,17.34-12.25,24.34-20.36a46.49,46.49,0,0,0,9.3-15.73A7.6,7.6,0,0,1,309.68,251.94Z"/><path class="cls-38" d="M124.22,405.83c2.91,2.77,4.65,6.9,9.11,7.86,1.29,0,1.62,1,2,1.94,1.28,8.85,6.39,15.37,12.74,21.18,2.24,2.05,5.51,3.15,6.29,6.61-1,1.37-2.21.88-3.43.5C136.43,437.24,123.7,419.07,124.22,405.83Z"/><path class="cls-39" d="M293.33,439.78c6.88,4.29,13.86,8.43,20.6,12.93,3.28,2.18.26,5.62-.82,6.17-2.79,1.44-1.43,3.22-1.47,4.95h-9.75C303,454.4,299,446.79,293.33,439.78Z"/><path class="cls-40" d="M150.9,443.92c1-.36,2.28.1,3.06-1,2-1,2.5.62,3.29,1.78,1.79,1,3.66,1.84,5.35,3s-.28.82-.57,1.18C158.1,447.71,154.19,446.52,150.9,443.92Z"/><path class="cls-2" d="M507.58,298.36v49.93c-8.43-8.81-14.19-19-11-31.63C498.26,309.81,499.42,301.48,507.58,298.36Z"/><path class="cls-41" d="M343.56,160.85c-.82,8.52-4.1,16.36-6.62,24.42-3.9,12.43-10.25,23-21.72,29.89-1.73,1-1.47,2.77-1.6,4.43-.29,3.42.91,7-.86,10.26-2-1.8-1.7-4.27-1.62-6.53.13-3.74-1.61-5-5.12-4.86a74.7,74.7,0,0,1-9.46-.19c-3.89-.36-7.41-2-11.07-3.19-2-.63-3.61-2.62-6.05-1.62a2.3,2.3,0,0,1-1.89-.46c-3.27-6.56-5.67-7.35-12.58-4.14a6.73,6.73,0,0,0-5.84,4c-1.28.69-2.12-.39-3.14-.76-2.73-.63-5.43.4-8.16.18-1.91-.18-3.78.31-5.68.31a27.48,27.48,0,0,0-7-.12c-2.8-.74-5.68-2-7.85,1.25-4.14,2-4.82,6.13-6,10-4.6-1.2-7.65,1.58-10.73,4.25-3.43,2.27-6.84,4.55-10.23,6.88-6.14,3.92-12,8.36-18.93,10.88a9.48,9.48,0,0,1-1.35.49c-1.42.4-2.86,1.11-4.31.93-4.54-.55-7.38,1.32-8.73,5.63-1.48-5.2-5.07-7.16-10.29-8s-10.39-3.08-15.57-4.71c-4.15.51-7.16-2.12-10.29-4.05a64.77,64.77,0,0,0-19.33-8.33c-7.06-2.59-14.32-2.66-21.66-1.88-1.89.47-3.83.79-5.69,1.4a35.2,35.2,0,0,0-10.16,5.48,28.58,28.58,0,0,0-3.5,3.37c-4,4.64-8.15,8.94-15.11,7.72a5.87,5.87,0,0,1-1.22-.89,1.5,1.5,0,0,1-.72-2.05c2.36-3.11-2-5-1.39-7.82.4-.28,1-.9,1.16-.79,6,3.6,9.36-.46,13.55-4,8.22-7,18.43-9.23,29-10.32,14.54-1.5,26.73,4.71,39.08,10.92,11.74,5.91,24.42,7.06,37.26,5.52,24.88-3,42.58-17.66,57.7-36.34,1.66-2,3.32-4.11,5-6.15.08-.1.32-.06.48-.09-.39,6.21-.38,6,6.42,6.32,9,.46,17.16-1.37,24.29-6.93,2.21-1.72,3.38-.49,5.15.65,11.09,7.15,23.12,10.71,36.35,8.31,13.78-2.49,22.18-11.93,28.62-23.44C339.05,171.56,341.14,166.11,343.56,160.85Z"/><path class="cls-41" d="M213,71.87l1.93.93c2.91-1.25,3.79,1.16,4.94,2.87,3.26,4.81,6,10,10.33,14,4.66,4.4,8.09,4.1,11.9-1.12a14.61,14.61,0,0,0,2.2-3.9c1.06-3.14,2.75-4.18,6.34-3.66,5.83.84,12.32-5.3,12.71-11.55.46-7.25-.43-14.26-4.42-20.64-1-1.65-3.46-4.56,1.57-4.33,2.82,1.06,3.64,3.84,5.17,6a9.1,9.1,0,0,1,.64,1.29,45,45,0,0,1,3.89,12.74c.7,3.79,1.9,4.19,4.79,1.61,6.26-5.57,6-12.75,4.79-20.13-.27-1.63-1.16-3.09-1.43-4.73a1.84,1.84,0,0,1,.48-1.34c2.81-.6,3.37,1.44,3.87,3.42a29.86,29.86,0,0,1,.4,14.31c-.39,1.62-.64,3.44.82,4.67,1.71,1.44,3.44.38,5.09-.42,4.59-2.23,7.36-5.54,6.87-11a22.29,22.29,0,0,1,.32-5.93c1.95,5.24,2.84,10.58-1.4,15.13-2.79,3-1.3,4.71,1.09,6.37,5.71,4,14.39-1.11,15.73-9.14a48.21,48.21,0,0,0,.27-4.93c3.44,4.94.84,8.88-.86,12.91-.9,2.13-3.87,4-1.47,6.62,2.09,2.24,5,2.27,7.93,1.6.8-.19,1.58-.47,2.37-.7-1.81,3.57-5,3.47-8.17,2.82-2.71-.55-4.2-2.31-4-5.37.15-2.48-1.36-2.09-2.94-1.37a12.49,12.49,0,0,1-12.35-.9c-3.23-2.16-6.55-1.8-9.88-2.4-1.15-.21-2-.11-2.39,1-.52,1.43.36,2.11,1.5,2.68,1.56.77,3.24.5,4.87.59,11.92.67,24.73,11.44,26.2,22a1.43,1.43,0,0,1-1.74-.57c-4.38-7.22-12.09-9.42-19-12.81-4.43-2.15-8.63-1.64-12.9.3A72,72,0,0,0,256.28,95.5c-3.27,3.5-7,6.65-9.61,10.71-4.18,4.88-7.95,10.15-13.25,14-5.3,3.24-10.46,6.89-17.79,5.93,2.79,2.6,4.88,5.09,3.55,8.77-1.42.82-2.34,0-3.21-1-5.59-3.26-12.2-4-17.8-7.31-6-3.57-9.45-12.82-7.11-19.76.87-.16,1.16.54,1.35,1.1,3,8.88,9.76,10.21,18.24,11.34,17.23,2.29,26.14-8.16,34.85-19.78,2.28-3,4.26-6.32,6.28-9.55.53-.86,1.62-2.23-.27-2.77-1.38-.39-3.09-.62-3.51,1.55-.09.49-.05,1-.1,1.49-1,8.17-6.19,11.52-14,8.89-1.72-.58-3.35-1.43-5-2.16-4.09-5.85-10.24-10.1-13-17C216.47,76.68,211.45,75.49,213,71.87Z"/><path class="cls-42" d="M245.79,105.79c9.51-12.8,20.66-23.58,35.94-29.28a10.86,10.86,0,0,1,8.62.13C298.76,80.35,308,82.8,312.67,92c.6,2.23,1.54,4.42.94,6.82-3.91-1.13-4.69-5.63-8-7.42-9.42-8.56-21.39-6.42-28.92,6.39a5.74,5.74,0,0,0,.3,6.56c5.4,7.94-.11,22.65-7.87,28.42-1.36,1-2.94,2.49-4.75.54a3.24,3.24,0,0,1-.19-1.48c.27-1.64,1.14-3.09,1.55-4.7,2.59-10.18-4-19.2-14.84-20.25C249.18,106.66,247.22,107.51,245.79,105.79Z"/><path class="cls-21" d="M227.09,179.5c-11.84,7.88-23.93,15.32-38.46,17.21-4.35.57-8.58-.25-12.8-1.1-2.8-.56-2.65-2.78-2.81-5-1.34-19,5.9-35,17.35-49.46,2-2.49,3.37-5.65,7-7.09-7.43,11.64-13.63,23.31-15.9,36.78-1.49,8.86,2.68,14.38,11.73,15.15C205.13,187,216.14,183.91,227.09,179.5Z"/><path class="cls-43" d="M306.72,90.69c3.28,1.86,4.6,5.38,6.89,8.08-1.3,16.52-5.11,32.27-16.42,44.93-6.82,7.63-16.08,11.43-26.17,13.12q-25.26,4.23-45-12c-3-1-5-2.85-5.47-6.09.3-1,.71-1.91,1.89-2.13a5.56,5.56,0,0,1,2.81,2c12.17,12.24,27,15.35,43.51,12.76a32.42,32.42,0,0,0,16-7.52c11.8-10,20.19-22,21.76-37.89.35-3.52-.32-7-.36-10.46C306.17,93.85,305.39,92.15,306.72,90.69Z"/><path class="cls-8" d="M315.79,154c4-8.36,9.77-11,15.85-7.1,3.68,2.34,5.45,5.8,3,9.73-6.63,10.69-15.81,18.07-28.54,20.21-5.13.87-10.3,1.7-17,.18a148.81,148.81,0,0,0,20.59-16.16c2.76,1.77,4.53.23,6.34-1.73S317.42,155.66,315.79,154Z"/><path class="cls-8" d="M216,79.92c4.4,5.61,10.62,9.82,13,17,0,.73.05,1.45.07,2.17,1,9.8-4.59,15.37-13.84,12.84-5.72-1.57-11.58-4-13.15-11.07-3.81-7.43,2.91-20.64,11.13-21.73C214,79,215,79.64,216,79.92Z"/><path class="cls-44" d="M113.15,201.83c-3.76-.61-4.19-3.67-3.94-6.41,1.16-12.79,5.84-24.2,14.66-33.6,3.52-3.75,7.94-3.7,12.27-.92,3,3.69,2.83,8.23-1.57,10.31-11.41,5.4-15.95,15.26-18.86,26.48A7.49,7.49,0,0,1,113.15,201.83Z"/><path class="cls-44" d="M75.22,162.17l1.41,3.71a67.2,67.2,0,0,1,3,33.85c-.33,2-.55,4.07-3.3,4.11-2.07-1.06-2.34-3.07-2.7-5.05-.92-5.07-1.77-10.15-2.89-15.19a42.54,42.54,0,0,0-6.36-15.06,9.29,9.29,0,0,1-.27-4.85,5.76,5.76,0,0,1,4.79-4.95A5.21,5.21,0,0,1,75.22,162.17Z"/><path class="cls-8" d="M314.24,131a95.73,95.73,0,0,0,3.55-28.79c-.16-3.83-.79-7.55-1.26-11.31-.16-1.33-1.72-2.93.49-3.79,1.64-.63,3.14,0,4.56,1.13,5.07,4.21,7.13,9.76,5.89,16C325.49,114.19,322.15,123.68,314.24,131Z"/><path class="cls-45" d="M113.15,201.83c1.48-6,3-11.9,5.94-17.36,3.14-5.8,6.85-10.84,13.4-13.37,4.55-1.77,5.45-5.14,3.65-10.2,3.75.45,3.56,3.56,2.9,5.69-4.36,14.07-12,26-24,34.84C114.59,201.78,113.8,201.71,113.15,201.83Z"/><path class="cls-8" d="M220.93,138.93l5.06,5.92c-3.42,4.33-2.6,10.43,2.42,16,2.08,2.28,4.57,4.17,7,6.4-18.56-2.38-28.6-19.78-19.47-33.34l2.93,1.07C220.85,135.61,221.38,137,220.93,138.93Z"/><path class="cls-46" d="M320.46,133.83c-10,27.38-47.47,41.75-71.53,33.21C279.11,170.25,301.17,155.82,320.46,133.83Z"/><path class="cls-47" d="M64.18,216.22c14.54-12.83,47.1-15.14,64.33-4.06C105.72,207.83,84.75,209.88,64.18,216.22Z"/><path class="cls-48" d="M152.25,222.87c1.59,0,3.19-.12,4.77,0,12.53,1.13,24.31-1.57,35.62-6.82,1.24-.58,2.82-2.07,3.94-.28a3.71,3.71,0,0,1-1,5c-6.42,5.31-13.43,8.53-22.17,7.51C166.2,227.41,159,226.68,152.25,222.87Z"/><path class="cls-45" d="M65.57,168.67c4.55,4,5.48,9.59,6.74,15,1.57,6.68,2.72,13.46,4.06,20.19-3.55-.54-5.07-3.33-6.55-6.07-2.73-5.08-4.4-10.59-6.37-16C62.81,177.2,61.94,172.57,65.57,168.67Z"/><path class="cls-41" d="M202,100.84a27,27,0,0,0,12.38,9.55c8.26,3,13.72-1.34,14.61-11.32,2.11,4.86.49,9.41-1.64,13.64-1.79,3.57-5.22,4.88-9.22,4.16-7.09-1.27-12.22-5.47-16.23-11.18C200.89,104.24,200.1,102.41,202,100.84Z"/><path class="cls-49" d="M74.26,152.93c-2.08-4.14-6.66-7.9-2-13.07,8.67,6.47,12.65,15.23,13.07,26.81-3-5-4.88-9.66-8.72-12.95C76,153.17,75.49,151.84,74.26,152.93Z"/><path class="cls-50" d="M65.57,168.67c-1.2,4.3-2.4,8.59-2.12,13.12-.32,1.38.33,3-1,4.14,0-6.44,0-12.89-.11-19.33a14.4,14.4,0,0,1,1.07-5.3c1.06-2.85,3.17-5.18,6.12-4.92a5.88,5.88,0,0,1,5.69,5.79c-2.22-2.33-4.79-3.65-7.88-1.93C63.64,162.29,65.18,165.65,65.57,168.67Z"/><path class="cls-51" d="M315.79,154c4.08-.31,4.31,1.67,2.46,4.47a22.28,22.28,0,0,1-3.72,4c-2.46,2.27-4.12,1.68-4.82-1.6Q312.76,157.45,315.79,154Z"/><path class="cls-52" d="M87.36,125.89c2.85-1.44,5.41-3.73,9-3,3.12,2.38,2.54,5.2.6,7.82a15.5,15.5,0,0,1-8.5,5.76c-2.17.6-3.91.5-5.31-1.38s-.32-3.53.7-5A51.53,51.53,0,0,1,87.36,125.89Z"/><path class="cls-53" d="M54.29,242.84l1.1,0c5.06.28,8.47,4,11.51,7,7,6.94,13,14.95,19.29,22.63,1.07,1.31,1.14,3.06,2.3,4.26q2,6.38,4,12.74c-2.21,4.79-4.52,1-6.67,0-1.54-.7-2.46-3.12-4.74-1.51C66.77,276.14,58.22,260.87,54.29,242.84Z"/><path class="cls-10" d="M88.49,276.77c-7.44-8.75-14.39-18-22.58-26-2.94-2.86-6.12-6.52-10.52-7.93,7,1,10.65-4.1,14.93-8.07a17.07,17.07,0,0,1,11.88,9.09c.51,9.76,3.43,19.07,5.47,28.54C88,273.87,88.22,275.32,88.49,276.77Z"/><path class="cls-54" d="M83.06,226l6.42-1.18c5.25.84,8.53,4.74,12,8.11,2.52,2.43,3.81,2.61,5-1,.84-2.5,2.23-4.86,5.34-5.24,6.6.56,11.91,4.4,17.68,7.05,4,1.85,7.79,4.21,11.68,6.34a9.19,9.19,0,0,0-3.27,8.07c-.32-.72-.64-1.44-.95-2.16-1.15-1.09-.71-2.76-1.49-4.07.35,1.48,1.15,2.93-.52,4-3-5.62-6.41-10.77-12.56-13.53-3.85-1.73-7.6-2.53-11.22.18s-4.59,6.25-3.14,11.25c-3.36-3.62-6.18-6.59-8.92-9.63A14.26,14.26,0,0,0,93,230.24c-4.53-1.51-8.54,1.53-8.72,6.43-.06,1.49-.09,3-.13,4.47a.75.75,0,0,1-.79-.29l-.65-.65A20.19,20.19,0,0,1,83.06,226Z"/><path class="cls-20" d="M105.16,270.06c-3-7.5-6-15-9-22.49-1.12-2.85-2-5.79-3-8.68l1.13-.58c2.86,4.28,5.79,8.52,8.56,12.86,3.1,4.88,6,9.9,9.11,14.75,2.43,3.76,1.19,5.81-2.72,6.94A7.23,7.23,0,0,1,105.16,270.06Z"/><path class="cls-55" d="M81.09,288c1.87-1.24-1.16-2.1-.13-3.37,2.25.81,3.88,2.57,5.76,4,1.63,1.28,3.44,3.51,5.78.86l2.83,6.21C89.53,293.91,84.83,291.9,81.09,288Z"/><path class="cls-54" d="M82.2,243.89,70.32,234.8a6.51,6.51,0,0,1,3.05-3c5.13,1,6.63,6.05,10,9l0,0Z"/><path class="cls-56" d="M111.13,253c-1.5-2.44-1.63-5.15-1.26-8q1.13,3.5,2.27,7Z"/><path class="cls-57" d="M123,76.89l4.32-.84c1.36,2.15,4.44.92,5.83,3,1.94,1.73,4,3.33,5.81,5.22,2.59,2.76,2.22,4.61-1.93,4.81A52.84,52.84,0,0,1,121.3,94c-.08-2.12-.65-3.77,2.64-4.86,5.08-1.69,4.2-7.24-1.49-11.15Z"/><path class="cls-58" d="M121.3,94c4.72-3.3,10.16-4.27,15.7-4.92-.22,3-4.27,2.26-4.78,5l-1,.88c-3-.39-6,1.42-9.08.17Z"/><path class="cls-59" d="M122.11,95.08c3-.42,6-3.37,9.08-.17-1.15.89-2.25,1.86-3.46,2.64C124.68,99.51,122.49,99.32,122.11,95.08Z"/><path class="cls-60" d="M135,245.91l.31-5.52c1.17,2.15,1.92,3.68,1.7,5.54l-1.72.95Z"/><path class="cls-61" d="M169.91,324c2.47-8.22,3.3-16.52,1.11-25,1.46-1.47,2.12-3.38,2.92-5.21q-.85-5-1.7-10c1-4.15.56-8.45,1.25-12.67,1.19-7.22,2.94-14.3,4.67-21.4.44-1.79,1.1-3.5,2.85-4.48a2.55,2.55,0,0,0,.19-.72c4.8,2.27,9.05,5.2,11.72,10,0,3.42-1.79,6.32-2.84,9.42-2.71,8-3.71,16.41-5,24.72-1.22,8.07-.24,16.19-.56,24.27-.13,3.28,0,6.62-2.64,9.18-.3-.57-.57-1.16-.92-1.7-.74-1.16-.86-3.33-2.68-2.93-1.32.28-1.13,2.16-1.27,3.46C176.23,327.8,176.22,327.8,169.91,324Z"/><path class="cls-19" d="M181,245.27c-3.42,11.91-6.4,23.9-7,36.35,0,1,.85,3.14-1.77,2.2l-5.13-31.07c-.77-5.21,1.26-7.62,6.65-6.73C176.24,246.43,178.48,244.44,181,245.27Z"/><path class="cls-20" d="M173.94,293.85c.83,2.75,2.3,5.85-2.92,5.21a32.87,32.87,0,0,1-10.89-9.28c-4.21-11.41-8.83-22.7-10.69-34.95C156.07,268.87,163.36,282.4,173.94,293.85Z"/><path class="cls-8" d="M260.72,45c-2.27-.19-2.67.46-1.26,2.38C264.12,53.7,265,61,264.73,68.61c-.29,9.14-7.36,14.88-16.49,13.11-1.62-.32-1.63.7-2,1.4-.52,1-.66,2.22-1.15,3.26-4.42,9.33-10.31,10.3-17.29,2.93-3.69-3.89-6.31-8.51-9.07-13-1-1.55-1.64-3.33-3.83-3.48.79-.7.82-3.21,2.61-1.6,3.2,2.9,5.55.69,6.89-1.54,2.66-4.41,8.36-6.56,8.87-12.64.14-1.68,2.93-1.64,4.64-2.07,4.36,2.8,4.77,7.73,6.43,12,.94,2.4.74,5.12,1.64,6.86a85.22,85.22,0,0,0-4.27-14.58c-.8-2-1.8-3.49-3.8-4.25-.88-2.5-5-7,2.75-3.61,1.8.78,6.17-1.73,7.84-3.9,2.81-3.65,7-3.37,10.07-3.67a62.46,62.46,0,0,0,19.62-5.26,2.13,2.13,0,0,1,2.66.37A2.32,2.32,0,0,0,278.81,40c0,.32,0,.64,0,1,1.43,5.47-.25,11.19,1.42,16.69.45,1.45-.75,3.16-1.75,4.52-1.32,1.79-2.87,3.44-5.29,3.06s-3.21-2.55-3.78-4.71c-.82-3.16-1.23-6.56-4.38-8.54-.08-.32-.17-.64-.26-1C265.06,47.86,263.15,46.24,260.72,45Z"/><path class="cls-62" d="M166.15,402.74c-5.81,2.14-11.87,1.22-17.72.83-5-.34-10.26-.55-15-2.78a3.07,3.07,0,0,1,1.73-2.05c2.53-.49,2.53-.49,5.28-7.52,1.22,2.52,2.28,4.85,3.46,7.11,1.73,3.31,4.79,4.11,8,3.28,3-.77,4.34-3.24,4.23-6.45-.13-3.73-.1-7.46-.15-11.19.07-.42.13-.84.2-1.27.35,0,.83-.05.92.17C159.79,389.65,163.34,396,166.15,402.74Z"/><path class="cls-20" d="M142.21,376.54c1.1-2.16,3-1.76,4.88-1.62.08,5.92-.19,11.85.7,17.84C144.86,387.69,142.49,382.48,142.21,376.54Z"/><path class="cls-10" d="M166.15,402.74c-5.41-5.64-7.65-12.85-10-20,.55-3.6-2.34-7.51.94-10.87,2.8,1,2.92,3.76,4,5.89,2,4,3.78,8,5.15,11-3-5-3.48-12.24-7.37-18.1,2.79-2.05,4.88.2,7.19,1.16a5.35,5.35,0,0,1,3.27,1.12c-.06-1.73-.79-3.46.45-5-2.47-6.32.1-12.87-.86-19.25,0-1.59,0-3.17,0-4.76.42-1.37-.22-3,1.1-4.16,1.46,1.17,1.47,2.91,1.66,4.52a96.72,96.72,0,0,0,6,24.79c-2.64-8.6-4.65-18.61-4.2-29,.09-2.13-.21-4.35,1.44-6.11,3.28,1.32,4.29,4.1,5.16,7.28,4.49,16.38,12,31,24.71,42.66-3.85,5-9.05,8.2-14.73,10.71-5.45-1.35-8.61-5.55-11.39-8.52,1.44,3.29,6.06,6.27,6.16,11.62A46,46,0,0,1,166.15,402.74Z"/><path class="cls-63" d="M213.2,370.74c0,.75,1.19,1.64-.27,2.2-8.21-4.19-16.38-8.44-20.93-17.12-.42-6.2-1.28-12.49,3.44-17.68a9.59,9.59,0,0,1,6.54,1,4.47,4.47,0,0,1,2.06,2.67c2.26,8.94,5.67,17.49,9,26.07A4,4,0,0,1,213.2,370.74Z"/><path class="cls-64" d="M196,338.83c-3.86,3-1.1,7.71-2.87,11.32-.82,1.67-.78,3.77-1.13,5.67-3.36-5.06-6.71-10.13-10.11-15.17a3.76,3.76,0,0,1-.57-3.28c1.44-5,.8-10.14.52-15.23,2.11-9.46.91-19.05,1.2-28.59.06-1.93-.5-4,.84-5.74,2.13,1.73,1.64,4.19,1.7,6.44.17,7.11-.1,14.21.84,21.32,1,7.73,2.88,14.94,8.63,20.61A2.59,2.59,0,0,1,196,338.83Z"/><path class="cls-65" d="M175,334c-.69,13.46,1.42,26.58,5.46,40-5.58-4.42-10.2-20.25-10.41-34.18C170.28,336.64,171.53,334.36,175,334Z"/><path class="cls-66" d="M158.91,370.64c1.08.26,2.49,0,3,1.36,2.41,7.28,4.77,14.58,6.67,22.08a145.88,145.88,0,0,1-11.4-22.25Z"/><path class="cls-67" d="M169.82,368c-.12,2.44,1.65,4.61,1,7.69l-4.72-3.85C167.44,370.61,167.31,368,169.82,368Z"/><path class="cls-68" d="M133.12,79.05c-1.66-.07-3.32-.08-5-.21-2.56-.19-1.2-1.66-.86-2.79l1.84-1.18c3.83,1,8.14.66,11.11,4Z"/><path class="cls-69" d="M157.25,444.71,154,442.93a48,48,0,0,1-17.69-19.08c-1.26-2.52-2.48-5.11-1.91-8.09,2.74-.75,4.71,1.15,6.95,2.07,9.56,3.94,19.35,5.7,29.64,3.48a36.67,36.67,0,0,0,11-4.55c12.85-7.68,22-18.88,29.13-31.82,4.27-5,8.63-10,12.79-15.09,7.55-9.27,12.27-20.4,19.51-29.87,1.09-1.43,1.64-3.31,3.37-4.23,13.89-11.8,30.53-20,43.19-33.46,14.3-15.18,22.76-33.35,27.69-53.37a5.92,5.92,0,0,0,.14-3q3.38-9.47,6.74-19a15.67,15.67,0,0,0,1.17-7.23c3-3.13,5.81-1.06,8.17.68,10.47,7.7,17.49,18,21.84,30.19,2.18,6.12,3.15,12.47,4.49,18.81.61-7.9-.9-15.66-1.51-23.5a223.09,223.09,0,0,0-3.58-24c-1.52-8-4.27-15.61-7.4-23.56,2.36-.18,3.11,1.27,4,2.58,10.9,16.91,17,35.37,19,55.43,1.73,16.63.94,32.78-5,48.5a56.43,56.43,0,0,1-10.21,17l2.23-10.24c-8.11,9.62-17.28,16.24-26.49,22.75-15.86,11.23-33.95,18-51.73,25.32-7.66,3.16-15.34,6.28-23.06,9.3-2.59,1-4.34,3-6.36,4.72a109.52,109.52,0,0,0-13.25,12.81l16.88-8.69c-3,5.21-7.24,9.27-10.47,14.12-6.15,9.21-11.59,18.82-19.59,26.85-14.9,14.95-32.27,24-53.32,25.8a20.66,20.66,0,0,1-7.42-.41C161,443.73,159,443.11,157.25,444.71Z"/><path class="cls-70" d="M295.84,216.88c4.47,0,9,.1,13.42,0,2.61-.07,3.57,1,3.48,3.53-.1,3.16,0,6.32,0,9.47.17,7.53-2.54,14.66-3.08,22.09a3.15,3.15,0,0,1-2,2.95c-2.2-2.46-1.65-5.65-2-8.49-1.06-9.34-3.56-18.1-9-25.89C296,219.46,295.15,218.33,295.84,216.88Z"/><path class="cls-71" d="M480.16,308.69a38.28,38.28,0,0,1-.09,6,5.43,5.43,0,0,1-4.92,4.92c-2.79.24-4.78-1.52-5.45-4.17s-1.82-5-1.27-7.78C472.2,309.56,476.05,310.54,480.16,308.69Z"/><path class="cls-72" d="M468.2,302.74c1.67-1.69,3.4-5.4,5.3-4.29,3.16,1.85,6.84,4.08,7.77,8.39C475.59,309.88,471.69,308.66,468.2,302.74Z"/><path class="cls-73" d="M468.2,302.74c4,2.51,7.5,6.62,13.07,4.1l-1.11,1.85c-5.63,4.2-5.63,4.2-11.73-1.06C467.55,306,464.67,304.55,468.2,302.74Z"/><path class="cls-74" d="M235.08,335.76l-5.18,10.12c-2.24.72-3.7-.77-5.26-1.9-3.55-2.58-6.86-5.53-11-7.29-2.23-1.42-4.9-2-7-3.65a3.69,3.69,0,0,1-.64-1.36c.2-8.61,4.3-16,7.87-23.4,8.27-17.1,19.5-32,34.92-43.4,8-5.9,16.37-10.72,26.49-11.67,1.63-.15,3.29-.71,4.77.5,1.26,6.71-.84,9-7,7.55a23.51,23.51,0,0,0-3.89-.78c-5.65-.3-8.09,3.26-5.48,8.26a53.39,53.39,0,0,0,6.66,9.89c2.62,3.07,2.86,6.18,1.23,9.68-1.82,3.91-3.43,7.94-6.77,10.9-3.18,1.82-6-.51-9-.79-8.91-.38-10.18.51-12,8.52a3.5,3.5,0,0,1-.85,1.2c-2.2,1-4.15-.39-6.22-.65-5-.62-7.56,1.66-7.22,6.72.25,3.81,1.77,7.34,2.7,11C232.78,328.84,235.45,331.89,235.08,335.76Z"/><path class="cls-75" d="M295.84,216.88c9.1,11.05,11.6,24.18,11.85,38-2.32,10-8.92,17.15-16.34,23.51-5.61,4.81-11.76,9-17.67,13.41-1.57-2.05-.59-4.14,0-6.16,6.43-21.51,10.73-43.32,9.52-65.94-.11-2.1-.25-4.38,1.71-6Z"/><path class="cls-76" d="M211.08,384.94c1.16.86.49,1.77,0,2.61-7,12.33-15.83,23-28.14,30.27-14.62,8.67-29.42,7.24-44.19.25-1.5-.71-2.94-1.54-4.41-2.31l-1-2.07c-.32-2-.7-3.91-.93-5.87a8.93,8.93,0,0,1,.23-2.14C163.32,415.37,189.47,408.83,211.08,384.94Z"/><path class="cls-76" d="M317.77,246c1.59,1.75,1,3.73.48,5.63-7.06,28.51-22.15,51.46-46.73,67.9-7,4.68-13.68,9.84-20.64,14.61-1.14.78-2.11,2.8-4.13,1.65a219,219,0,0,1,39.41-40c11.38-8.89,19-20.23,24.52-33.28C313,256.94,315.4,251.46,317.77,246Z"/><path class="cls-77" d="M284.92,213.75c-.5,12.54.2,25.09-1.89,37.62a263.19,263.19,0,0,1-8.56,37.07c-.35,1.1-.53,2.25-.79,3.37a29.16,29.16,0,0,1-8.86,8c-.24-.19-.32-.38-.25-.58s.14-.3.22-.3a3.86,3.86,0,0,1,.16-.48c2.26-4.79,6-9.47,6.36-14.41s-5.29-8.2-7.88-12.51c-1.93-3.21-4.38-6.4-1.75-10s6.74-3.05,10.52-2c6.45,1.75,6.43,1.83,7.42-5.54-1-1.47-.93-3.12-.72-4.77,1.38-10.85,2.11-21.69,0-32.54a4.38,4.38,0,0,1,.79-3.75C282,209.38,283.18,213.44,284.92,213.75Z"/><path class="cls-10" d="M207.08,332.64c2.78-.08,4.85,1.54,7,3,3.81,2.8,7.53,5.7,10.42,9.52,1.27,1.69,2.83,3.24,2.54,5.63-3.32,5.35-7,10.5-9.72,16.21-.84,1.78-1.6,3.77-4.11,3.77-5.22-9.82-8.1-20.48-11.21-31.06a1.42,1.42,0,0,1,0-2c5.28,1.52,5.41,6.73,7.72,10.21-.7-2.44-2.67-4.64-3.19-7.39S204.72,335.11,207.08,332.64Z"/><path class="cls-10" d="M231.08,325.78a40.57,40.57,0,0,1-3-10.94c-1.08-7.07,3.21-10.69,10.09-8.68,1.56.46,3.11,1,4.66,1.48,3.33,3.48,4.59,7.49,3.1,12.2-1.58,4.13-5.17,6.92-7.13,10.8C234.13,332.38,233.08,328.32,231.08,325.78Z"/><path class="cls-78" d="M243,306.81c-.38-7.82,3.28-10.63,12.84-9.85,4.29,3.91,4.44,5.87.82,10.86l-1.82,1.81C249.2,313.76,245.7,312.93,243,306.81Z"/><path class="cls-79" d="M184.91,397.74q-4.86-7.94-9.7-15.87c4.64,4.78,9.95,8.59,14.93,12.78C188.81,396.39,186.76,396.9,184.91,397.74Z"/><path class="cls-80" d="M243,306.81c3,4.82,7.22,4.73,11.84,2.82-2.74,3.6-5,7.58-8.89,10.21q-1.55-6.09-3.1-12.2A.75.75,0,0,1,243,306.81Z"/><path class="cls-81" d="M227,350.76c-3.56-5.7-8.62-10.12-13-15.15,6,2.25,10.27,7.28,15.83,10.27C228.94,347.5,228,349.13,227,350.76Z"/><path class="cls-82" d="M256.65,307.82c1.62-3.76,1.8-7.42-.82-10.86,3.14-.06,5.69,2.62,9,2a1.33,1.33,0,0,1,0,.88A30.16,30.16,0,0,1,256.65,307.82Z"/><path class="cls-83" d="M231.08,325.78c2.47,1.79,4.4,4.45,7.73,4.86l-3.73,5.12A33.11,33.11,0,0,1,231.08,325.78Z"/><path class="cls-84" d="M279.68,212.91c3.37,13.69,2.44,27.37-.06,41.06-14.7.7-26.3,8.11-36.76,17.54-17.52,15.8-29,35.43-35.61,58a16.73,16.73,0,0,0-.33,2.46,2.56,2.56,0,0,1-2.89.27c-1.69-1.65-1.16-3.66-.9-5.64a79.7,79.7,0,0,1,10.26-29.53,109,109,0,0,1,52.93-47.27c2.65-1.13,3-2.14,1.27-4.25-5.81-7.05-12.26-13.16-21.67-15-1.45-.28-3-.42-4.16-1.51-.93-2.69.59-5,1.18-7.43.94-3.68,4.07-4,7-4.62,3.43-.75,4.13-4.65,7-6.09l1.79,2.09c2.53,2.45,2.13,6.23,4,9,3.73,4.13,4.89,4,8.3-.27,2.31-2.89,3.19-6.89,6.77-8.79Z"/><path class="cls-85" d="M192.16,253.71c-3.9-2.76-8.17-5.08-11-9.16,6.79-2.67,12.54-7.17,18.81-10.78,6.23-1.63,8.08-.86,9.91,4.14-.43,5.08-.27,10.17-.34,15.26,0,1.81,0,3.63-1.08,5.22-.67.62-1.7,1.06-2,0-1.55-6.2-7.21-8.32-11.56-11.94.56,3.29,3.54,5.92,2.19,9.52C194.8,256.74,193.41,255.39,192.16,253.71Z"/><path class="cls-86" d="M243.83,221.89l-1.74,6.94c.1.9-.39,1.27-1.2,1.37-4.29-1.45-7.32-4.91-11.39-7.32-.89,3.54,2.18,6.63.67,9.94-2.54.94-3.92-1.16-5.71-2.19-1.75-1.91-4.16-3.46-3.71-6.61-.55-5.17,1.37-9,6.11-11.31C233.09,210.66,240.4,214.62,243.83,221.89Z"/><path class="cls-87" d="M277.85,212.91c-2.13,3.48-4.1,7.07-6.44,10.4-3.77,5.39-5.88,5.21-9.58-.52-1.69-5.53-1.75-10.73,3-15,5.94-4,7.85-3.67,12.67,1.45C278.77,210.62,277.51,211.73,277.85,212.91Z"/><path class="cls-88" d="M111.89,226.63c-3.66,2.75-4.88,6.84-6.22,12a104.46,104.46,0,0,0-16.19-13.87C97.13,223.22,104.66,223.12,111.89,226.63Z"/><path class="cls-89" d="M220.75,224l4.46,5.7c-4.64,2.33-9,5.42-14.61,5.05-1.35-2.54-2-5.14-.64-7.9,1.38-1.14,2.83-2.2,4.11-3.44C216.58,221,218.81,220.6,220.75,224Z"/><path class="cls-90" d="M243.83,221.89l-5.07-4.55c-3.39-3-7.16-5.08-11.9-4.63,2.31-3.79,5-3.34,8-.81,2.4-.86,4.78,2.8,7.18,0,1.81-1.23,3.82-1.13,5.85-.91-.81,3.1.07,5.49,3,7C248.69,219.6,244.59,217.71,243.83,221.89Z"/><path class="cls-91" d="M83.34,240.89c-4.51-1.7-6.38-6.32-10-9,2.76-2.75,6.47-3.91,9.69-5.89Q83.2,233.43,83.34,240.89Z"/><path class="cls-92" d="M250.88,218c-1.59-.54-3.94.87-4.75-1.45-.74-2.09-.52-4.24,1.75-5.55,3,.87,6-2.08,9.06-.09C255.76,214,254.42,217,250.88,218Z"/><path class="cls-93" d="M210,226.87c1.18,2.55.77,5.29,1,8-.1,1.28.66,3.15-1.88,2.76-1.8-4.16-5.62-3.51-9-3.82Z"/><path class="cls-54" d="M264.82,207.81c-1.94,4.8-3.56,9.67-3,15a20.14,20.14,0,0,1-3.1-9.78C258.44,208.54,261.22,207.7,264.82,207.81Z"/><path class="cls-94" d="M242,211.93c-.34,2.39-.72,4.6-3.79,2a25.08,25.08,0,0,0-3.39-2.06C237.25,210.1,239.65,210.37,242,211.93Z"/><path class="cls-95" d="M245.79,105.79c13.21-1.3,22.35,6,22,17.65-.09,3.16-.73,6.2-2.92,8.67-2.34-3.2-3-7.12-4.5-10.68,1.57-4.72,1.57-4.72-3.71-4.69a5.51,5.51,0,0,1-1.79-.78c-6.8-4.38-10-3.38-13.14,4.05a15.32,15.32,0,0,1-1.36,2.6,12.48,12.48,0,0,0-3.13,7c-.17,1.37-.09,3-2,3.51-4.13-3.9-4.89-8.35-2.42-14.06C238,115.45,241.19,109.93,245.79,105.79Z"/><path class="cls-96" d="M232.87,119.05c-.19,4.84-.54,9.71,3.09,13.68,3.71,2.46,7.77,4.39,11.16,7.33-1,2.64-3.08,1.83-4.94,1.47-4.76-.91-8.2-3.85-11.37-7.33-4.21-4.62-5-4.44-7.65,1.27a5.82,5.82,0,0,1-1.09,1.63c-.19.73-.21,1.56-1.14,1.83l-2-4c-.08-4.41-2.59-7.22-6.45-9.73C220.35,126.13,226.83,123.25,232.87,119.05Z"/><path class="cls-8" d="M265,51.93c5.3.26,4.38,5.08,5.65,8.1.82,1.94.44,4.57,3.63,4,2.39-.4,5.61-5.26,4.74-7.21-2.37-5.32-1-10.63-.24-16,5.54,8.74,3.78,20.9-3.94,27.51-1.18,1-2.33,2-4,1.42s-2-2-2.05-3.6C268.72,61.16,266.84,56.55,265,51.93Z"/><path class="cls-8" d="M260.72,45c3.77.35,6.38,1.49,4,6C263.41,49,262.06,47,260.72,45Z"/><path class="cls-97" d="M222.07,137.1a7.85,7.85,0,0,1,.94-5.28c2-3.57,4.72-3.77,7.18-.47,3.35,4.5,7.3,8.08,13.05,9.16,1.34.25,2.59.51,3.8-.33.13-.31.3-.74.56-.76,6.22-.6,11.65-3.37,17-6.21,4.75-.45,6.91-4.23,8.93-7.65,4.2-7.12,6.74-14.58,1.09-22.28A3.16,3.16,0,0,1,274,100c3-6.48,7-12.17,14.24-14.34,7.09-2.12,13.4-.61,18.5,5,7.8,27.7-16.24,61.19-42.44,62.94C248,154.72,233,150.76,222.07,137.1Z"/><path class="cls-98" d="M264.65,133.21c-4.54,5.7-10.62,7.5-17.61,7-4.52-1.25-8.67-3.05-11.08-7.45-.2-4.19-.5-8.41,4-10.86,2.32,2.41,2.54,6.06,5.16,8.41,2.22,2,4.29,3.79,7.44,2.83s4.34-3.4,4.94-6.33c.33-1.63.12-3.34.85-4.9.64-.83,1.37-1.42,2.49-.93a17.83,17.83,0,0,1,4,11.16Z"/><path class="cls-52" d="M213,89.28c-.83,2.78-2,5.89-5.55,6.42-1.91.29-3.29-1.39-3.29-3.52,0-2.52,4.72-7.49,6.68-7.09C213,85.52,213,87.24,213,89.28Z"/><path class="cls-99" d="M209.05,237.59c1.4-.39,1.07-2,1.88-2.76,4.63-2.07,8.92-5.1,14.28-5.11l4.73,3A22.76,22.76,0,0,0,241,230l1.13-1.16c13.11.56,21.36,8.66,28.43,18.53,1,1.35.78,2.26-1.1,2.79-14.16,4-25.44,13.11-35.66,22.85C219,287,208.23,303.89,205,324.64c-.39,2.45-1.31,4.83-.86,7.37a9.34,9.34,0,0,1-1.94,5.82c-.06.62-.11,1.24-.16,1.85-2.11.5-4-.41-6-.85-7.45-5.35-9.82-13.19-11-21.81-1.36-9.72-.77-19.47-1.1-29.21.85-11.83,4-23.11,8.28-34.1l4.88,2c3.71-.27,6.74,1.67,9.92,3.1,1.64-5,.21-10.12.67-15.16C207.81,241.55,207.11,239.26,209.05,237.59Z"/><path class="cls-100" d="M237.92,55c2.25-1,3.81-1,4.6,2,1.77,6.85,3.72,13.64,4.06,20.79-1.42-8.19-4.75-15.62-8.66-22.82Z"/><path class="cls-101" d="M337.64,288.77c0,19.48-11.67,35.06-26.84,38.79-11.2,2.76-22.6,4.74-33.92,7.07a4.29,4.29,0,0,1-4.5-1.42c-1.24-1.6-.35-3.31.62-4.61a118.82,118.82,0,0,1,8.91-11.29c11.51-12.17,21.5-25.58,31.91-38.66,3.71-4.66,7.55-9.22,11.36-13.8,1.86-2.24,3.55-2.34,4.75.62C333.49,274.21,337.51,282.82,337.64,288.77Z"/><path class="cls-102" d="M164.92,437.88c-3-.23-5.94.22-8.84-.91-2.19-.85-4.06-1.88-3.83-4.48.21-2.37,2.12-4.58,4.07-4.41,10.61.92,20.4-3.51,30.72-4.26,1.76-.13,3.82-.41,4.69,1.8s-.61,3.83-2.16,5.09C182.37,436.61,173.73,437.54,164.92,437.88Z"/><path class="cls-103" d="M202.15,337.83c-.47-2.31-1.33-4.76,1.94-5.82l2.83,0c.06.22.12.44.16.66-.86,6.15,2.4,11.46,3.42,17.27Z"/><path class="cls-65" d="M207,258.8c-3.89.86-6.74-1.68-9.92-3.1q-2.34-5.89-4.66-11.78C197.46,248.7,207.09,249,207,258.8Z"/><path class="cls-20" d="M241,230c-3.31,4.61-5.55,5.16-11,2.71l-3-12.18C232.17,223.43,237.07,226,241,230Z"/><path class="cls-104" d="M259,122c.5,3.35.33,6.55-1.79,9.43-3.37,4.57-8.57,4.43-12.42.3-2.73-2.93-4.56-5.91-4.77-9.88.25-.66.5-1.33.76-2,4.19-2.13,8.31-5,13.17-1.61C254.29,121.25,256.91,121.24,259,122Z"/><path class="cls-105" d="M253.78,118.85c-3.42-2-6.64-.1-9.91.57-1,.22-1.93,1.39-3.14.45,2.49-9.39,8.8-10.82,16.17-3.66C256.75,118.15,256.08,119.47,253.78,118.85Z"/><path class="cls-106" d="M253.78,118.85l3.12-2.64a5.42,5.42,0,0,0,.9-.35c2-1.11,4.15-1.86,5.52.53s-1.23,3.25-2.47,4.56L259,122c-1.85.49-3.73,1.93-5.58.36C252,121.21,253.29,120,253.78,118.85Z"/><path class="cls-107" d="M290.23,122.59c-5.59,22.68-35,32.75-54.55,18.9a36.84,36.84,0,0,0,29.79-1A85.86,85.86,0,0,0,290.23,122.59Z"/><path class="cls-108" d="M189.2,306c-.36-13-1.32-25.79,5-37.61a13.75,13.75,0,0,1,2.13-3.32c1.55-1.56,3.09-4.42,5.64-2.7,2.09,1.42,1.61,4.71.65,6.45-6.42,11.56-9.42,24.21-12.43,36.89C190.22,305.8,190,305.81,189.2,306Z"/><path class="cls-109" d="M251.83,124c0,1.46-.37,2.86-2,2.85-2,0-2.66-1.72-2.72-3.41,0-1.41.69-2.64,2.31-2.55C251.29,121,251.55,122.53,251.83,124Z"/></g></g></svg>
