<svg xmlns="http://www.w3.org/2000/svg" viewBox="0 0 506.54 506.53" width="100" height="100"><defs><style>.cls-1{fill:#642412;}.cls-2{fill:#ae411f;}.cls-3{fill:#fed139;}.cls-4{fill:#7b6210;}.cls-5{fill:#c69e1e;}.cls-6{fill:#eabdce;}.cls-7{fill:#15243a;}.cls-8{fill:#14233a;}.cls-9{fill:#feec5d;}.cls-10{fill:#e1edf0;}.cls-11{fill:#fefefd;}.cls-12{fill:#c7a01f;}.cls-13{fill:#c79f1e;}.cls-14{fill:#13223b;}.cls-15{fill:#fdfdfd;}.cls-16{fill:#181b2a;}.cls-17{fill:#725a09;}.cls-18{fill:#292d45;}.cls-19{fill:#fefefe;}.cls-20{fill:#3a3f5f;}.cls-21{fill:#0a2029;}.cls-22{fill:#091419;}.cls-23{fill:#f7f9fa;}.cls-24{fill:#124253;}.cls-25{fill:#f6f9fa;}.cls-26{fill:#fdfefe;}.cls-27{fill:#0051dd;}.cls-28{fill:#eff3f8;}.cls-29{fill:#002dc5;}.cls-30{fill:#0b242f;}.cls-31{fill:#002bc3;}.cls-32{fill:#008af5;}.cls-33{fill:#f6f9fb;}</style></defs><g id="Calque_2" data-name="Calque 2"><g id="Calque_8" data-name="Calque 8"><path class="cls-1" d="M506.54,334V506.53H447.77a10.84,10.84,0,0,1,.9-3.49c7.79-20.91,11.3-42.69,12.8-64.8a231,231,0,0,0-.27-32.85c-.83-11.25-.79-22.55-2.47-33.76-4.15-27.81-12-54.46-24.5-79.69a16.75,16.75,0,0,0-1.66-3.06c-.08-.11-.29-.11-.62-.21a117.48,117.48,0,0,1-6.54,18.71,15.2,15.2,0,0,0-.37,12,233.11,233.11,0,0,1,11.77,51.88A242.3,242.3,0,0,1,434,444.15a396.93,396.93,0,0,1-16.15,59.07,22.05,22.05,0,0,1-1.35,3.31H373c0-1.67,1-3.25,1.66-4.81,15.43-36.52,27.42-74.12,34.9-113.07,3.75-19.57,6.95-39.24,7.47-59.22a43.46,43.46,0,0,1,.85-6.35,165.13,165.13,0,0,1-13,21.41,14.76,14.76,0,0,0-3.28,9.15c.25,24.27-5.78,47.43-13.39,70.13-9.05,27-21.21,52.65-37.35,76.26a40.76,40.76,0,0,1-5,6.5H166.11a47.4,47.4,0,0,1-5.2-7,311.55,311.55,0,0,1-45-104.76c-3.08-13.47-5.53-27-5.17-40.94a11.82,11.82,0,0,0-2.33-7.46,163.45,163.45,0,0,1-13.45-22c1,27.91,5.15,54.42,11.15,80.66a582,582,0,0,0,31.19,96.15c.71,1.7,1.88,3.4,1.94,5.27H95.47a11.21,11.21,0,0,1-.84-1.86c-10.8-30.88-19.13-62.43-20.54-95.17-1.31-30.39,2.61-60.38,13-89.21,1.57-4.35,1.87-8.19-.16-12.42-2.78-5.81-4.36-12.11-6.7-18.84a205.67,205.67,0,0,0-17.65,42.74,292.36,292.36,0,0,0-11.36,70.62c-.89,22.36-.48,44.46,3.29,66.49a213.27,213.27,0,0,0,8.66,33.25c.5,1.45,1.28,2.89,1.32,4.4H0V345.93c2.24-5.8,5.48-11.2,8.38-16.7,11.35-21.53,24.68-41.78,40.79-60.1A318.91,318.91,0,0,1,77.35,241a18.7,18.7,0,0,0,6.57-11.25,196.88,196.88,0,0,1,12.26-42,36.59,36.59,0,0,1,3.8-7.55c.85-1.17,1.77-2.94,3.54-1.91l.09.06a4.48,4.48,0,0,1,.55.42c.65,2.7-.87,4.82-1.88,7.06-6.7,14.83-10.35,30.38-11.92,46.57-1.89,19.35.76,38.05,6.55,56.45a48.67,48.67,0,0,0,1.2,4.83s0,0,0,0c.51,1.72,1.11,3.41,1.78,5.07,2.64,6.63,6.31,12.81,9.84,19A114.91,114.91,0,0,0,132,346.15a20.53,20.53,0,0,1,5,6.47h0s0,0,0,0a12.91,12.91,0,0,1,.62,1.6h0a14.38,14.38,0,0,1,.66,5.25c-1.56,11.06-.63,22,1.45,32.89.33,1.75.73,3.45,1.21,5.13,0,0,0,0,0,0,.32,1.17.69,2.32,1.09,3.45h0a55.22,55.22,0,0,0,8.12,15.15c1.1,1.44,2.43,2.72,3,4.51a6.58,6.58,0,0,0,.25,1.8h0a7.63,7.63,0,0,0,.42,1.16c1,2.31,2.93,4.22,3.82,6.59q.12.32.21.63c.15.4.31.8.47,1.2h0c12.21,30.57,40,48.18,67.81,48.42,19.41.15,38.84.35,58.24-.05,31.39-.65,56.62-21.56,66.67-47.61l.45-1.19a4.18,4.18,0,0,1,.15-.61,14.88,14.88,0,0,1,2.4-4.28,1.53,1.53,0,0,0,.18-.18,12.85,12.85,0,0,0,2.27-4h0a6.27,6.27,0,0,0,.25-1.52c4.12-6.35,8.44-12.57,11.14-19.67h0c.49-1.24.91-2.52,1.28-3.82l.36-1.26v0a15.37,15.37,0,0,0,.8-5,103.5,103.5,0,0,0,.95-31.57,16.26,16.26,0,0,1,.19-5.9,8.75,8.75,0,0,1,.85-1.92c.08-.13.16-.27.25-.4a23.4,23.4,0,0,1,4-4.3c15-13.76,25.53-30.49,33.45-49.05.08-.21.18-.41.26-.62a.06.06,0,0,0,0,0,34.16,34.16,0,0,0,1.25-3.32s0,0,0,0a17.64,17.64,0,0,0,.82-4.1c16.21-50.79,7-96.77-26.17-138.21-2.28-2.85-5.07-5.24-7.59-7.88-1.48-1.55-3.1-3-3.49-5.31,0-.13,0-.25.07-.38s.05-.27.08-.4c1-4.62,4.89-7,8.44-9.37,3.93-2.59,7.05-5.14,6.68-10.43-.13-1.89.68-3.84,3.14-4.07l.18,0,.07.06c3.67,2.94,3.84,7.72,6,11.47l.12.21.33.81a103.5,103.5,0,0,0,5.9,12.57c.13.25.27.49.42.73s.27.47.41.7a266.63,266.63,0,0,0,16.71,26.09c1.21,1.68,2.83,3.24,2.61,5.61v0l-.24.25c-2,2.07-3.61,0-4.47-1.29-4.34-6.62-10.63-7.17-18-6.09,1.15,2.66,3.07,4.69,4.51,7,10.73,17.18,16.5,36.18,20.14,55.88.91,4.95,2.54,8.87,6.52,12.28,30,25.74,53,57,71.11,92A14.1,14.1,0,0,1,506.54,334Z"/><path class="cls-2" d="M506.54,69.12v64.52c-1.81,0-3.46-.94-5.1-1.57A141.33,141.33,0,0,0,480.6,126a15.35,15.35,0,0,0-6.84-.27l-.11,0-.39-.15c-3.14-1.35-3.2-4.78-4.33-7.35C464,107,456.7,97.84,446.23,91.46c-3.65-2.22-7.5-4.08-11.78-4.44h0a16.67,16.67,0,0,0-2.35,0l-.72,0c-12.59-1.29-23.58,2.6-33.38,10.32l-.22.14a9.11,9.11,0,0,0-1,.71c-3.18,2.64-3.34,6.42-3,10.38.13,1.8,1.25,3.64,0,5.42,0,.08-.11.15-.17.23-2.56,1.74-1.8,4.44-1.74,6.79A6.5,6.5,0,0,1,388,127.7a35.25,35.25,0,0,0-12.24,10.5l-.52,0c-3.5,0-5.42-2.88-7.81-4.74-17.31-13.36-36.33-22.92-58-26.81-2.73-.49-5.65-.73-7.6-3.18a5.8,5.8,0,0,1-.19-.59,1.89,1.89,0,0,1-.07-.57,1.36,1.36,0,0,1,.06-.29c8.64-26.06,17.85-51.81,35.92-73.27,3.45-4.09,8.07-7.59,8.31-13.74a2.85,2.85,0,0,1,2.64-2.66c5-.17,7.82-3.82,11.43-6.39,2.47-1.77,4.47-4.18,6.92-6h91.6l-.22.3c-1.06,1.35-2.72,1.85-4.22,2.56a432.6,432.6,0,0,0-47.39,26.38c-24.64,15.56-41,37.86-52.92,63.86-2.49,5.43-4.89,10.9-7.19,16.86a181.63,181.63,0,0,1,23.6-17c8.51-5.25,17.65-9.19,26.9-12.9a257.82,257.82,0,0,1,27.82-9.42c9.44-2.61,18.92-5.18,28.68-6.26A143,143,0,0,1,503.83,68,8.31,8.31,0,0,1,506.54,69.12Z"/><path class="cls-1" d="M506.54,0V70.75a125.74,125.74,0,0,0-57.91-3.83,256.26,256.26,0,0,0-65.68,21c-14.36,6.7-27.23,15.78-39.25,26.76-.34-2.66.95-4.51,1.69-6.49.82-2.18,1.65-4.35,2.57-6.48,9-20.67,19.31-40.54,35.69-56.44,13-12.58,28.32-21.86,43.91-30.77C436.81,9.23,446.47,4.76,456,0Z"/><path class="cls-2" d="M506.54,224V336.7c-4.81-7.51-8.42-15.7-13-23.33A312.46,312.46,0,0,0,441.17,248c-2.88-2.73-5.69-5.67-9-7.82s-4.47-4.87-5.08-8.49C423,207.56,416,184.59,401,164.77a5.93,5.93,0,0,1-.43-1.42c8.37-.22,17.05-2.67,22.23,7.06.49.93,1.26,2.53,3,1.87h0a2.41,2.41,0,0,1,.43-.1c2-.35,2.82,1.54,3.86,2.65,3.26,3.48,7.34,6.24,9.51,10.69a.78.78,0,0,1,.05.14c.13.33.22.68.32,1a4.18,4.18,0,0,0,1,2c7.7,7.48,15.22,15.16,23.3,23.12,1.76-5.06,1.74-9.72,2.63-14.2,1.37-6.9,3.25-7.78,8.78-3.74a161.76,161.76,0,0,1,29.8,28.42A9,9,0,0,1,506.54,224Z"/><path class="cls-2" d="M463.39,437.93c-1.39,23.46-5.49,46.52-14,68.6H414.73c9.53-26.28,16.81-53.11,20.11-81A233,233,0,0,0,423,319.33a14.66,14.66,0,0,1,.36-11.86A158.79,158.79,0,0,0,432,283.4c2.23,4.45,4.55,8.85,6.66,13.35a257.62,257.62,0,0,1,22.79,81A352.39,352.39,0,0,1,463.39,437.93Z"/><path class="cls-2" d="M97.29,506.53H62.72a225,225,0,0,1-11.49-46.32c-2.3-17.94-3.53-35.92-1.78-54,.79-8.08.23-16.21,1.12-24.33a269.69,269.69,0,0,1,18.57-73.93c2.72-6.59,6-12.95,9.1-19.37.68-1.4,1-3.2,2.86-4a151.92,151.92,0,0,0,9.32,26.63c1.17,2.46.37,4.46-.44,6.63-8,21.59-11.84,43.92-13.54,66.89C73.38,425.86,83.34,464.59,96,503,96.43,504.17,97,505.33,97.29,506.53Z"/><path class="cls-2" d="M418.48,339.26A509.86,509.86,0,0,1,409.12,400a595.84,595.84,0,0,1-30.22,96.21c-1.41,3.44-3.25,6.72-4.36,10.28H344c18.85-25.08,32.27-53.06,42.3-82.63,7.89-23.23,14.14-47,13.47-71.92,0-1.47-.28-3,.69-4.33a218.47,218.47,0,0,0,18.14-29.34C420,326.2,419.12,332.85,418.48,339.26Z"/><path class="cls-2" d="M168.16,506.53H137.41c-7.38-18.34-14.64-36.74-20.58-55.62-9.31-29.6-16.57-59.62-20.49-90.48-1.51-11.84-2.31-23.7-3.42-35.56-.15-1.54.32-2.93,1.31-5,2.56,4.46,4.32,9,7.3,12.48,9.31,10.93,11,23.78,12.21,37.53,2.57,29.68,12,57.62,24.27,84.68C146.32,472.93,155.8,490.56,168.16,506.53Z"/><path class="cls-1" d="M506.54,132.28v93.66c-5-5.28-9.35-11.21-14.68-16.26C486,204.09,479.72,199,473.33,194c-3.33-2.59-4.19-1.27-4.67,1.92-.7,4.73-1.39,9.46-2,14.19-.2,1.48-.24,3-1.8,4.4-9-8.51-17.71-17.21-26-26.37a1.58,1.58,0,0,1-.28-2.22,2.25,2.25,0,0,1,1.11-.29,2.83,2.83,0,0,1,1.23.28c.19.08.37.17.56.27l.14.08c13.66,9.65,19.28,4.43,24.58-7.22,7.07-15.53,10.89-31.57,6.95-48.7-.37-1.62-1-3.33.14-4.87a2.39,2.39,0,0,1,.25-.33c.5-2.37,2.3-2.1,3.91-1.74C487.36,125.63,497.21,128.12,506.54,132.28Z"/><path class="cls-3" d="M302.13,103c9.48,2.7,19.27,4.15,28.54,7.74a150.08,150.08,0,0,1,45,27.49c19.15,18.22,32.9,39.78,40.3,65.25a144.12,144.12,0,0,1,.78,79.06c-.76,2.82-2,5.52-3,8.27-8.86,19.6-25.32,30.75-44,39.39-3.53,1.63-7.13,3.45-11,3.34,6.95,4.84,12.49,12.3,14.05,19.11.81,11.52,2.12,23.05.1,34.57-.31,1.78-.79,3.53-1.19,5.3-5.41,16.1-16.6,25.89-32.93,29.93-7,1.73-13.85.55-20.32-2.47-4.81-2.24-5.19-4.4-2.71-8.95,3.69-6.77,8.28-13.22,8.67-21.34-1.38-11.9-5.16-15.76-17.16-17.5a6.91,6.91,0,0,1-3.23-1.06c-1.53-1.55-1.42-3.64-1.78-5.57-3.82-20.9-10.12-40.9-21.26-59.19-4.82-7.91-11.18-14.44-18-20.5-5.82-5.16-10.63-5-16.9.25-9.3,7.8-16.11,17.56-21.79,28.2-8.21,15.4-13,31.93-16.44,48.93-.52,2.58-.54,5.31-2.17,7.58-1.3,1.2-3,1.3-4.6,1.46-7.59.77-12.93,4.45-15.38,11.86-1.95,4.35-.6,8.52,1,12.53a76.87,76.87,0,0,0,7.65,14.45c2.57,3.87,2.14,6.14-2,8.48a29.73,29.73,0,0,1-22.2,2.75c-14.09-3.47-23.93-12.25-30.18-25.23-.56-1.15-.57-2.59-1.74-3.42-3-11.58-3-23.3-1.64-35.08-.75-10.78,6.2-17.6,13-24.87-7.62-2.82-15.05-5.53-21.87-9.69-9.61-5.87-17.64-13.51-25.13-21.77-3.26-3.6-5.14-8.06-7-12.49-6.37-17-8.24-34.67-7.44-52.69.92-20.81,6.57-40.38,15.58-59.06-.42-4.56,3.1-7.42,4.83-11a52.62,52.62,0,0,1,2.89-4.59c7-9.67,14.1-19.23,23.54-26.76a135.06,135.06,0,0,1,62.19-32c6-1.34,12-2.41,18-3.93,7.84-.88,15.59-2.73,23.56-2.09,10.29.18,20.58.38,30.87-.14a216.84,216.84,0,0,1,28.3,3.16A6.6,6.6,0,0,1,302.13,103Z"/><path class="cls-2" d="M112.56,163.16q-4.43,7.43-8.84,14.87l-.2.17c-3.14,2.6-4.2,6.47-5.73,10A194.46,194.46,0,0,0,85,233a12.4,12.4,0,0,1-4.73,7.75c-27.62,23.67-49.8,51.7-67.32,83.54C8.27,332.72,4,341.38,0,350.16v-118a37.06,37.06,0,0,1,3.18-4.71c9.73-12.48,20.51-23.89,33.47-33.09,5.73-4.07,7.5-3.34,8.88,3.45.95,4.67.63,9.57,2.67,14.79C54,206.91,59.51,201.71,64.54,196c9-10.18,18.74-19.68,27.27-30.3,3.45-4.29,13.59-5.52,19.51-3.13A8.25,8.25,0,0,1,112.56,163.16Z"/><path class="cls-4" d="M353,431c-1.59,9.37-7.23,16.59-12.92,23.67-12.9,16-30,25-50.17,27.21-10.18,1.12-20.56.3-30.85.34s-20.81.2-31.21,0c-29.13-.56-50.79-14-65.79-38.67-2.48-4.09-5-8.21-5.53-13.14,2-.77,3.22.56,4.3,1.71,6.58,7,14.81,11.71,23,16.45,2.59,2.41,3.8,5.81,6.12,8.44,5.26,5.95,9.58,6.36,15.55,1.3a5.39,5.39,0,0,1,3.48-1.75c15.22.73,29.59-2.17,42.85-9.91a5.49,5.49,0,0,1,5.7-.24c13.4,7.77,27.93,10.8,43.28,10.47.66,0-.17,0,.49,0a9.06,9.06,0,0,1,4.34,2.27c4.8,3.65,8.55,3.32,13.18-1,3.11-2.86,4.42-7,7.43-9.94A103.76,103.76,0,0,0,348.63,433C349.83,431.87,351.05,430.63,353,431Z"/><path class="cls-3" d="M473.51,125.17c6,20.24,1.87,39.21-7.07,57.64-6.89,14.19-17,12.61-26.05,4.09,2.55-5,6.54-9.29,8.14-14.85,7.12-15.63,2.18-37.84-10.87-48.75-9.14-7.64-22.17-7.72-32.27-.33-2,1.49-3.57,4.17-6.77,3.42l-5-12.17c-2-6.49-3.79-12.94,3.19-17.82,1.72,1.26,1.47,3.21,1.73,5,.76,5.27,3.17,7.58,8.4,8.06a20,20,0,0,0,7.82-1.1c13.39-4.13,25.21-.83,35.69,7.94A56.14,56.14,0,0,1,463.89,133c1.67-4.32,2-7.93,1-11.66-4.06-15.16-13.69-25.4-27.86-31.68-2.11-.94-5.13-.9-5.33-4.27,9.18.16,16.39,4.77,23,10.46C463.88,103.73,469.54,113.92,473.51,125.17Z"/><path class="cls-5" d="M325.88,389.37c0,8.78-4.72,15.74-9.2,22.62-2.1,3.24-1.5,4.47,1.47,6.07,11.63,6.25,28.78,3.2,39.67-7,5.78-5.4,10-11.87,14-18.6a58.46,58.46,0,0,1-14,28.86,21.38,21.38,0,0,1-6.17,7.55,181.66,181.66,0,0,1-23.89,16.43,103.6,103.6,0,0,1-30.34,6.14c-9.45-.26-18.95.14-28.23-2.14-2.56-.63-5.26-.91-7.44-2.62-6.08-9.84-.1-20.59,11.85-20.66a57.94,57.94,0,0,0,32-9.31c6.28-4.07,11.47-9,14-16.26,2.12-3.4,3.13-7.31,4.95-10.85A1.24,1.24,0,0,1,325.88,389.37Z"/><path class="cls-5" d="M138.24,393.68c4.58,6.67,9.37,13.13,15.44,18.61,9.79,8.84,25.34,11.75,36.66,6.55,5.3-2.44,5.29-3,2.19-7.81-3.78-5.85-7.29-11.91-8.72-18.85-.59-2.88-1.29-5.87.4-8.69,1.35.78,1.62,2.1,1.77,3.48-.13,5.34,2.2,9.87,4.71,14.34,3.78,8.92,10.93,14.47,19.23,18.61,7.46,3.74,15.31,6.35,23.87,6a22,22,0,0,1,6.39.65c9.71,2.52,13,11.63,7.22,20-6.05,3.71-13,3.87-19.69,4.53a101.91,101.91,0,0,1-14.93,0c-10.89-.2-21.53-1.54-31.26-6.94-11.06-5.9-22.12-11.8-29.21-22.8C144.94,413.56,140.56,404.14,138.24,393.68Z"/><path class="cls-6" d="M449.67,173.18c-1.9,5.38-4,10.6-9.28,13.72-.61-.32-1.22-.64-1.84-1L425.8,172.27c-7.18-10.07-14.63-20-20.06-31.18.59-7.5,8.56-14.31,17.51-14.51s16.07,4,21.12,11.14c6.25,8.9,8.78,18.79,6.37,29.67C450.31,169.3,450.39,171.32,449.67,173.18Z"/><path class="cls-5" d="M95.58,289.78a101.48,101.48,0,0,0,36.57,35c6.47,3.63,13.52,5.92,20.94,8.35-8.38,7.07-14.73,14.84-16.49,25.5.65-4.15-1.16-7-4.19-9.81-16-14.91-27.51-32.92-35.32-53.31C96.39,293.64,95.39,291.86,95.58,289.78Z"/><path class="cls-5" d="M372.87,352.62c-4.78-6.64-8.71-14-16.17-19.23,9.11-3.3,17.37-6.16,24.84-10.82a102.28,102.28,0,0,0,32.25-31.79c-2.16,10.54-7.43,19.72-12.81,28.8A122.21,122.21,0,0,1,372.87,352.62Z"/><path class="cls-5" d="M449.67,173.18c.61-8.77,1.36-17.49-2-26-4.45-11.2-13.12-18.56-22.81-18.89-9.5-.33-14.84,5.4-19.09,12.83a63,63,0,0,1-7.12-14.7c5-4.1,9.65-8.7,16.31-10,12.09-2.41,22.13,1.45,29.37,11.11C454.8,141.5,455.26,157.07,449.67,173.18Z"/><path class="cls-7" d="M152.31,421.46c8.85,8.26,18.32,15.65,29.09,21.27,1.41,2,3.48,3.74,1.77,6.54a66.31,66.31,0,0,1-22.69-15.21c-1.27-1.27-2.66-2.42-4-3.62C155,427.49,151.27,425.59,152.31,421.46Z"/><path class="cls-8" d="M328.34,443.91a11.86,11.86,0,0,1,2.4-2.4c10-5.46,18.67-12.62,27.08-20.16.4,4.25-3.38,6.39-4.86,9.69-7.89,7.25-15.9,14.33-26.12,18.24C325.32,446.93,326.17,445.23,328.34,443.91Z"/><path class="cls-2" d="M368.76,0a5.82,5.82,0,0,1-2.13,2.78c-3.37,2.87-6.71,6.6-10.29,8.23-5.88,2.68-8.12,7.28-11.85,11.73C326.78,43.88,313.45,67,307,93.88c-.85,3.56-3.36,6-4.88,9.09l-.55-.07-1.68-.21q-12-1.51-24.08-3c-1.39-.17-2.78-.29-4.16-.42l-1.17-.11h0c-10.15-.88-20.3-.12-30.44-.4a3.63,3.63,0,0,1-.82-.36h0l0,0a3,3,0,0,1-.91-.76c-1-1.24-1-3.06-1.21-4.6-.95-7-1.66-14.13-2.47-21.2-2.7-23.78-8.46-46.55-21.18-67.17-.87-1.42-2-2.9-1.67-4.65Z"/><path class="cls-9" d="M431.7,85.39c1.05,1.16,2.5,1.52,3.91,2,16.76,6.3,27.54,18,31.35,35.61,1,4.67-.17,9.3-2.76,14.63a54.31,54.31,0,0,0-13.71-19.14c-10.41-9.33-22.17-12.89-35.78-8.39a20.91,20.91,0,0,1-8.32,1.08c-6.32-.5-9.5-3.94-9.59-10.35,0-1.49,0-3,0-4.48C406.78,87.48,418.38,83.7,431.7,85.39Z"/><path class="cls-2" d="M214.15,101.41c-11.08,3-22.5,4.73-33.35,8.72a146.87,146.87,0,0,0-45.35,26.92c-.49-.19-1-.39-1.44-.61-4.77-2.18-8.63-5.8-12.94-8.69-2.07-1.39-2-4-2.26-6.27-.33-3.49-.35-7-1.61-10.34-.1-.28-.22-.56-.34-.84s-.25-.54-.39-.8c-1.17-3.36.26-7.64-2.71-10.36a6.48,6.48,0,0,0-1.22-.88l-.1-.06C103.06,89.21,91.71,86.1,79,87l-.83-.11A13.65,13.65,0,0,0,74.8,87a26.73,26.73,0,0,0-6.28,2c-13.35,5.7-21.61,16.25-27.54,29-1.1,2.35-1.65,5-3.85,6.73h0a5.15,5.15,0,0,1-.45.32l-.31.08c-11.55,3-23.13,5.8-34,10.75a6.79,6.79,0,0,1-2.31.66v-65a9.22,9.22,0,0,1,2.09-1,139.51,139.51,0,0,1,30.68-6.11c32.77-2.83,62.52,7.78,91.94,20a148.52,148.52,0,0,1,40.79,25.64C152.33,73.54,131.16,43.5,96.66,23.9c-13-7.39-26-14.73-39.5-21.16C55.66,2,53.74,1.66,53,0H150.9c8.73,4.87,15.43,12.19,22,19.56a172.53,172.53,0,0,1,40,77.58c.23,1,.67,2,1,2.93A7.48,7.48,0,0,1,214.15,101.41Z"/><path class="cls-1" d="M168.47,113.83c-.21,0-.41-.12-.61-.18-3.83-1.27-5.74-4.34-8.31-6.38-24.24-19.14-52.44-29.38-81.89-36.95-10-2.57-20.1-4.76-30.34-4.69-15.24.11-30.46,1.37-45,6.68A16.57,16.57,0,0,1,0,73V0H55.41c14.15,7,28,14.37,41.75,22.18C128,39.76,149,65.58,162.49,98c2,4.88,4.57,9.58,5.88,15.41C168.41,113.55,168.44,113.69,168.47,113.83Z"/><path class="cls-1" d="M135.45,137.05a177.11,177.11,0,0,0-22.89,26.11H111c-1.79,0-3.58,0-5.37,0-6.39-.18-11.35,1.61-15.76,7a513.52,513.52,0,0,1-39.5,42.64c-.91.89-1.72,2.61-3.06,2.19-1.58-.51-1.35-2.42-1.55-3.87-.64-4.74-1.34-9.48-2-14.22s-1.2-5-5.34-2A163.39,163.39,0,0,0,0,234.7V135.29c11.72-5.3,23.68-9.78,36.64-11.06a4,4,0,0,1,.48.57h0c.95,1.44.29,3,0,4.56-4.22,18.86-.44,36.48,8.44,53.24,5.29,10,11.09,11.26,20.56,4.92.69-.46,1.4-.89,2.06-1.38l.17-.13.57-.46c11.94-9.67,20-22.49,28.2-35.18,1.89-2.92,3.61-6,5.36-9,.28-.43.54-.86.8-1.29s.53-.92.79-1.39c2.11-3.85,3.7-7.95,5.49-12,.14-.32.28-.64.43-1l.23-.5c2.38-4.92,3.15-10.62,6.67-15,.26-.33.55-.66.85-1,2.52,3.9,2.85,8.32,2.8,12.75a5.91,5.91,0,0,0,3.4,5.91c3.87,2.2,7.82,4.43,10.7,8Q135,136.48,135.45,137.05Z"/><path class="cls-1" d="M239.25,98.34l0,.06h0c-.27.56-.85.61-1.38.75l-23.68,2.26a2.84,2.84,0,0,1-2.1-.92,3.85,3.85,0,0,1-.77-1.8c-7.19-34.42-24.07-63.44-49.1-87.91C158.22,6.92,153.45,4,149.62,0H213c5.19,9.58,10.72,19,14.28,29.37a191.66,191.66,0,0,1,9,41.46q1.45,13.41,2.93,26.83C239.2,97.89,239.23,98.11,239.25,98.34Z"/><path class="cls-1" d="M364,0a124.58,124.58,0,0,0-16,12.41q-1.1,1-2.16,2c-23,22-38.13,52.61-45.72,87-.09.43-.19.86-.28,1.3q-12-1.51-24.08-3c-1.39-.17-2.78-.29-4.16-.42,0-.55,0-1.11,0-1.68C272.26,71,279.41,29.22,298.39,0Z"/><path class="cls-9" d="M205.33,370.36c1.25-13.79,5.18-26.95,9.93-39.83,6.07-16.48,14.57-31.52,27.47-43.8,8.79-8.38,15-8.24,23.87-.12,19.15,17.61,28.14,40.49,34.39,64.85,1.59,6.19,3.68,12.35,3.11,18.92-.59,1.35-1.86,1.81-3.1,2.18-7.22,2.14-14,5.38-21.26,7.52-1,.39-2,.81-3.06,1.23a72.09,72.09,0,0,1-38.35,1.37c-2.79-1-5.58-1.93-8.45-2.66-7.56-2.27-14.62-6-22.35-7.83A3,3,0,0,1,205.33,370.36Z"/><path class="cls-5" d="M183.47,325.93c-3.34,3.78-8.09,3.38-12.34,3.63-27.47,1.61-49.27-19.07-54.43-45-3.94-19.76.64-37.48,15.52-51.88a29.8,29.8,0,0,1,7.66-5.47c2.91-1.41,3.61-3.09,2.58-6.33a24.33,24.33,0,0,1,.1-16.09c1.52-4.08,4-5.35,8.54-3.85,18.64,6.21,35.12,16.27,50.68,28,2,1.52,3.95,3.31,6.36,3.76,10.84,2,13.45,10.48,14.92,19.32,1.24,7.42-.27,14.62-5.88,20.25-2.07,2.08-1.75,4.49-1.84,7-.15,4.68.57,9.53-2.69,13.6-3.11-3.23-.75-6.94-.91-10.43.19-4.43-2-6.19-6.34-5.86a18.56,18.56,0,0,1-7.77-1.27c-13.54-5.29-25.56-12.79-35.1-23.95-2.44-3.36-5.8-5.91-8.2-9.31-2-2.81-4.37-2.83-7.39-1.5-15.6,6.88-25.44,24.26-23.53,41.88,3.3,30.6,31.37,47.32,54.9,42.93C180,325,181.92,324.34,183.47,325.93Z"/><path class="cls-5" d="M296.22,290.87a26.38,26.38,0,0,1-2.1-12.51,10.71,10.71,0,0,0-2.87-8.05c-7.58-8.92-5.4-27.61,3.74-34.87.27-.21.49-.52.79-.61,13.79-4.21,23.23-15.65,35.93-21.68,8.39-4,16.32-9,25.3-11.63,7.13-2.13,11.25.75,11.85,8.32a31.11,31.11,0,0,1-1.71,12.23c-.7,2.12-.45,3.11,1.55,4.34,15.14,9.27,23.42,22.66,25.33,40.49,2.88,27-14.43,54.38-39.66,61-9.24,2.43-18.55,3.39-27.49-1.42,1.84-1.82,4-.92,6.11-.77,17.11,1.22,31.56-4,42.46-17.66,13.37-14.54,13.74-38.07,5.07-52a42.3,42.3,0,0,0-16.67-15.29c-3.36-1.77-6.09-1.71-8.7,1.57a106.94,106.94,0,0,1-8.23,9.34c-9.71,10.49-21,18.68-34.54,23.53a19.81,19.81,0,0,1-8.76,1.47c-4.12-.24-5.57,1.81-5.68,5.69C297.86,285.24,298.67,288.42,296.22,290.87Z"/><path d="M279.13,378.8c8.39-2.61,16-7.42,25-8.42,6.66-.15,12.93.73,17.73,6.08,3.34,3.72,4.37,8.08,4.05,12.9a1.29,1.29,0,0,0-.79.16C320,403.88,309,411.71,295.35,416.68c-6.92,2.54-14.3,2.77-21.48,4-11.84,2.1-23.48,3.18-35.44.46-7.4-1.69-15.19-1.64-22.5-4.07-12.3-4.1-23-10.33-29-22.55a60.38,60.38,0,0,1-2.44-7l-.27-4c3.36-10.29,11.19-13.4,21.12-13.13,9,.88,16.68,5.56,25,8.36-1.31,3.33-4.05,2.16-6.32,1.81-6.07-.94-12.08-2.24-18.27-2.21a25.67,25.67,0,0,0-4.47.23c-3.74.69-4.48,2.49-2.2,5.45a24.67,24.67,0,0,0,6.82,5.76c26.13,16,53.47,19.85,82.35,8.12,7.58-3.08,14.88-6.63,20.83-12.4,1.36-1.32,3.72-2.49,2.81-4.79s-3.5-2.15-5.64-2.31c-7.05-.54-13.85,1.27-20.75,2.16C283.23,380.83,280.5,382.1,279.13,378.8Z"/><path class="cls-9" d="M226.24,199c2.69,5.39,3.43,11.33,4.8,17.09.67,2.82-.65,3.76-3.45,3.91-9.05.48-17-2.82-24.44-7.26-18.87-11.31-30.62-27.9-35.17-49.49-1-4.77,0-6,4.82-6.15,10-.26,20-.71,28.53,5.94,4.18,13.59,10.09,26.14,21.31,35.51C223.73,199.48,224.71,201.54,226.24,199Z"/><path class="cls-9" d="M308,163.87a28.42,28.42,0,0,1,17.69-6.73c3.31-.06,6.63,0,9.94,0,6.09,0,7.55,1.47,6.16,7.47-5.89,25.39-25.34,48.87-51.87,54.71-11.23,2.48-12.3,1.33-9.68-9.74.45-1.87.45-4,1.83-5.56a42.35,42.35,0,0,1,5.21-5.25c7.41-6.18,12.28-14.19,16-23C304.91,171.85,306.32,167.81,308,163.87Z"/><path class="cls-10" d="M183.47,325.93c-26.12,8-55.71-10.65-60.94-38.43-4.08-21.72,6.12-41.57,25.21-49.38,3-1.22,5-1.35,7.09,1.71,2.59,3.81,5.84,7.17,8.8,10.72-.6,1.71-2.21,1.84-3.6,2.2-9.73,2.55-16.84,8-20.16,17.84a6.14,6.14,0,0,1-1.9,2.84c-4.9,2.14-8.12,5.14-5.91,11.12a2.67,2.67,0,0,1-1,3.12c-3.26,2.31-2.18,5.18-1.11,8,5,13.18,15.26,20.4,28.19,24.45a47.56,47.56,0,0,0,7.78,1.62c12.64,1.81,26.37-6.39,31-18.3,1.24-3.22,1.42-6.07-1.17-8.67a4.81,4.81,0,0,1-.31-2.31c1.11-3.88.32-8.2,2.71-11.78,5.08.22,10.24-.56,15.21,1.12,1.08,3.75-.45,7.35-.63,11l-.51,3c-.31.59,0-.17-.21.45a50.11,50.11,0,0,1-23.57,27.32Z"/><path class="cls-10" d="M376.74,308.73c-8.35,13-29,21.56-45,18.61-1.63-.3-3.27-.56-4.9-.84-12.93-4.6-22.92-12.42-27.8-25.69-1.18-3.23-1.92-6.62-2.86-9.94,0-4.29-.4-8.57.41-12.85.41-2.17,1.29-3.1,3.59-2.94,4.31.31,8.54-.54,12.75-1.38,1.33,1.46.7,2.83-.18,4.19-1.11,1.27-2.78,1.69-4.11,2.62-1.95,1.37-3.59,3-3.31,5.62s2,4,4.36,4.78c1.24.41,2.56.63,3.51,1.67a2.75,2.75,0,0,1,.26,1.41c-3.08,5.34-1.06,10,2.21,14.25,10.6,13.77,21.71,17,38.19,11.16a53,53,0,0,0,15.29-8.24c1.68-1.32,3.21-3,5.5-3.28A2.63,2.63,0,0,1,376.74,308.73Z"/><path class="cls-11" d="M308,163.87a1.41,1.41,0,0,1,.69,1.68c-4.66,14.76-11.2,28.31-24.4,37.51a11.6,11.6,0,0,1-2.22.95C285.55,187.3,292,172.5,308,163.87Z"/><path class="cls-11" d="M226.24,199v4.14a57.07,57.07,0,0,1-17.52-18.5,88,88,0,0,1-8-18.61c-.36-1.1-.84-2.24.59-3C215.66,170.88,222,184.24,226.24,199Z"/><path class="cls-12" d="M224.06,282.3c6.24,12.9-2.26,28.93-14.14,40.41A307.86,307.86,0,0,0,224.06,282.3Z"/><path class="cls-13" d="M285.69,282.05a278.33,278.33,0,0,0,14.25,39.77C288.94,314,279.77,295.7,285.69,282.05Z"/><path class="cls-10" d="M188.36,323.57c.45-4.25,5-3.56,7.24-5.92,5.51-5.75,11.14-11.22,14.11-18.84.45-1.14,1.6-2,2.43-3C208.78,309,201.63,318.89,188.36,323.57Z"/><path class="cls-14" d="M212.22,449.71c9.67-.37,19.41,0,28.9-2.4,2.06-.53,4.07-1.26,6.1-1.9,6.71-4.36,9-4.34,14.85.12,9.51,3.05,19.32,4,29.25,4,2.14,0,4.28.24,6.42.38,3.37,1.69,4.91,4.33,4.22,8.12a69.26,69.26,0,0,1-44.26-9.78c-2.56-1.55-4-.75-6.18.48a70.54,70.54,0,0,1-41.42,9.49,6.9,6.9,0,0,1-1.84-.66C207.25,453.77,209,451.39,212.22,449.71Z"/><path class="cls-15" d="M212.22,449.71l-4,7.86c-7.73,8.55-14.2,8.11-21.08-1.56-1.51-2.12-2.68-4.49-4-6.74l-1.77-6.54C191.15,447.37,201.59,449,212.22,449.71Z"/><path class="cls-15" d="M302,458l-4.21-8.12c9.95-1.27,20-2.25,29.26-6.47.31-.14.88.29,1.32.46q-.74,2.68-1.49,5.37c-1.66,2.65-3.11,5.45-5,7.92C315.48,465.48,309.27,465.68,302,458Z"/><path class="cls-16" d="M184.48,387.52c4.12,9.31,10.17,16.8,19,22.2,8.46,5.15,17.69,7.29,27.23,8.69,4.9.73,10.06.55,14.69,2,8.41,2.7,16.31,0,24.38-1,9.82-1.3,19.79-1.79,29.08-5.85a52.84,52.84,0,0,0,26.2-24c.15,4.22-2.19,7.5-4.07,11-9.95,17.27-26.55,23.22-44.83,25.74-6.06.84-11.73,2-16.81,5.42-3,2-6,2.17-8.8,0-5.58-4.21-12.14-4.89-18.73-5.72-17.54-2.21-32.43-9.18-42.7-24.25C186.91,397.2,184.2,392.86,184.48,387.52Z"/><path class="cls-17" d="M189.15,401.7c5.78,5.87,11.73,11.41,19.21,15.27,10.18,5.26,21.15,7.45,32.23,9.41,1,.17,2,.25,2.95.4,4.36.7,7.69,5.13,11.61,4.94s7.19-4.09,11.64-4.93c8.1-1.51,16.31-2.57,24.18-5.37,12-4.26,22.34-10.65,30-20.94-3.06,9.95-10.78,15.66-19.18,20.55s-17.94,6.5-27.76,6.54-14.15,5.34-12.81,15.09a23.16,23.16,0,0,0,.8,2.87c-4.93-2.42-9.89-1.37-14.85-.12,4.05-11.24-.3-17.86-12.33-17.85-16.14,0-29.66-5.56-40.5-17.54A23,23,0,0,1,189.15,401.7Z"/><path class="cls-3" d="M117.71,109.32a102.87,102.87,0,0,1-6.25,16.84c-2.55,1.64-4.17-.33-5.53-1.77-10.39-10.93-31.58-9.4-41.22,7.07-7.22,12.34-8.6,25.44-3.85,39,1.61,6.16,5.74,11,8.78,16.35a45.54,45.54,0,0,1-4.27,3.38c-7.43,4.6-14.94,4.88-20.1-4.37-10.84-19.44-15.13-39.78-8.63-61.63,4.44-12,10.81-22.73,21.19-30.6C64,89,70.58,85.27,78.64,85.34c-.15,2.89-2.71,3-4.54,3.76-10.21,4.3-18.65,10.68-24.4,20.33a33.74,33.74,0,0,0-5.2,16.92,11.34,11.34,0,0,0,1.44,6.53c2.1-2.85,3.45-5.68,5.29-8.19,11.24-15.35,27.12-20.92,45.45-15.87,8.62,2.38,13.09-.2,15.32-8.84.29-1.13.5-2.29,1.67-2.91C118.65,100,117.6,104.83,117.71,109.32Z"/><path class="cls-9" d="M113.67,97.07c1.14,13.38-8.81,16.56-19.34,12.7-13-4.78-31,1.57-40.2,13.81-2.57,3.42-5.16,6.86-6.7,10.94-.32.86-.57,2.14-1.84,2s-1.36-1.34-1.65-2.26c-2.35-7.34-1.23-14.42,1.93-21.23,5.8-12.51,15.57-20.73,28.28-25.69,1.52-.6,3-1.31,4.49-2C92.14,83.82,103.84,87.65,113.67,97.07Z"/><path class="cls-6" d="M69.64,186.85c-6.09-3.48-8.22-9.41-9.7-15.74a36.88,36.88,0,0,1,11.83-39.82,21,21,0,0,1,30.16,3.5c1.6,2,2.74,4.16,2.08,6.86-8.37,14.94-17.63,29.24-29.82,41.42C72.8,184.45,71.16,185.6,69.64,186.85Z"/><path class="cls-5" d="M104,141.65c-7.41-16.11-24.68-18.28-36-4.38a36.28,36.28,0,0,0-8.39,24.88c.11,3,.19,6,.29,9-3.13-2.41-2.12-6.14-2.77-9.26C54,146.5,61,128.3,72.88,120.41c11.31-7.52,24.71-6.31,34.55,3.12,1.17,1.12,2.1,2.65,4,2.63A101.18,101.18,0,0,1,104,141.65Z"/><path class="cls-18" d="M279.13,378.8c5.86,1.37,11.32-1.2,17-1.83a83.06,83.06,0,0,1,12.9-.33c2.39.1,4.75,1.09,5.62,3.47s-1.18,3.84-2.75,5.33c-12.27,11.65-27.48,17.13-43.66,19.88-24.48,4.16-46.56-2.67-66.67-16.5-2.91-2-7.34-4.35-5.95-8.86,1.45-4.7,6.26-3.3,9.9-3.43,6.66-.25,13.13,1.31,19.64,2.47,1.78.32,3.54,1.07,5.21-.28l7.88,2.18c-1.47,3.54-4.87.63-7.33,2.35,4.38,3.44,9.63,4.24,14.55,5.77,11.12,3.45,21.29-.28,31.4-4.27,3.93-1.56-.22-3.41.16-5.11Z"/><path class="cls-19" d="M252.79,337.7c3.58,6.5,5.1,13.12,7,19.59,1.59,5.56,2.6,11.28,4.07,16.88,1.05,4-.47,5.61-4.4,5.52-2.15,0-4.31.06-6.46.06-8.1,0-8.12,0-7.45-7.86.87-10.24,1.93-20.44,5.55-30.16C251.49,340.54,252.05,339.41,252.79,337.7Z"/><path class="cls-20" d="M277,379.64c.85,1,2.18.69,3.18,1.19,2.26,1.12,2.61,2.84.21,3.95-10.87,5-21.92,9.46-34.29,6.16a91.73,91.73,0,0,1-15.48-5.28c-1.33-.62-3.11-1.4-2.74-3.09.42-1.93,2.44-1.88,4.1-1.93,2.09-.07,4.09,1.79,6.23.26C251.26,384,264.16,382.87,277,379.64Z"/><path class="cls-21" d="M137.59,272.79c3.6-13.37,12.38-20.65,26-22.24a100.14,100.14,0,0,0,33.25,23.18c2.54,1.92,3.5,4.19,1.53,7.08-.22,4.07.09,8.24-2.06,12-4.42-.21-7.09-3.23-9.86-6.09a6.16,6.16,0,0,1-.17-4.45c1.38-2.48,4.69-5.24-1-6.7a4.65,4.65,0,0,1-1.07-.9c-3.42-4.88-6.89-9.69-13.49-10.47-8.55-1.93-15.17.66-19.7,8.29a7.37,7.37,0,0,1-3,3.21C144.2,276.19,140.26,276.79,137.59,272.79Z"/><path class="cls-10" d="M198.41,280.81q-.76-3.54-1.52-7.08A80.21,80.21,0,0,0,210,275.2c5,.08,2.71,4.12,3.25,6.6C208.23,282.82,203.15,284.28,198.41,280.81Z"/><path class="cls-10" d="M376.74,308.73h-1.88c-1-1.76.08-3.17.85-4.59.87-1.58,1.88-3.1,2.66-4.74,4-8.43,3.73-9.19-4.51-13.26a4.19,4.19,0,0,1-2.48-4c-.1-8.75-2.17-16.64-8.94-22.9-4.1-3.79-9-5.48-14.14-6.83-1-.29-2-.65-2.36-1.84,3.33-3.92,6.79-7.73,9.91-11.8,1.63-2.12,3.16-1.75,5.17-1,14.8,5.86,23.86,16.73,26.52,32.24C390,284.38,386.7,297.6,376.74,308.73Z"/><path class="cls-22" d="M345.94,250.54l2.95.53c-.64,5.41-5,8.11-8.37,11.52a13.5,13.5,0,0,1-2.46,1.31,19,19,0,0,0-12.17,10.86c-.94,1.62-1.79,3.29-3.59,4.16-3.49.86-7,1.73-10-1.25.22-1.33.44-2.65.65-4C325.48,268.14,336.83,260.93,345.94,250.54Z"/><path class="cls-23" d="M137.59,272.79a40,40,0,0,0,10.79,2c7-1.75,12.33,1.06,12.82,6.81-2.8,4.49-7.69,4.5-12.07,5.6-9.41,1.94-9.62,2.56-3.94,10.61,10.1,14.28,34.59,18.21,46.61,1.19,1.2-1.7,2.12-3.85,4.59-4.26,3.69.8,4.26,2.94,3,6.27-6.58,17.85-22.34,27.92-43.81,20.13-14.05-5.09-24.84-13.69-28.52-29.12-.31-1.3-1.07-3.26.13-3.65,4.7-1.53,2.74-4.54,2.37-7.57C129,276.2,131.57,273.87,137.59,272.79Z"/><path class="cls-24" d="M196.39,294.77c-5.8,11.66-15,18-28.22,17.22s-22.41-8-28.34-19.7c-1.73-3.42-1.6-5.52,3-5.58a45.46,45.46,0,0,0,5.87-.8c2.12,1,2.87,3.1,4.1,4.83,5.69,8,15,10.89,23.5,7.41,4.89-2,7-6.25,9.31-10.48a2.51,2.51,0,0,1,1.91-.95c3.34,1.45,6.08,3.78,8.85,6.07C196.36,293.45,196.37,294.11,196.39,294.77Z"/><path class="cls-25" d="M372.44,284.6c11.48,2.13,12.2,3.61,8,14.29-1.42,3.59-4.1,6.34-5.55,9.84-10.65,9.38-22.74,15.12-37.24,15a21.14,21.14,0,0,1-15.57-6.47c-4.58-4.7-10.09-8.7-11.62-15.71-.68-3.15-.74-5.94,2.51-7.75,2,.5,2.9,2.16,3.85,3.67,6.72,10.81,16.86,14.28,28.72,12.27,11.24-1.89,18.84-9.08,23.55-19.39C370,288.31,369.79,285.61,372.44,284.6Z"/><path class="cls-24" d="M372.44,284.6c-4.58,18.24-18.87,29.12-36,27.26-11.44-1.25-18.78-8-23.48-18.08a1.58,1.58,0,0,0,.22-.95c2.33-4.51,6.29-4.58,10.53-3.88a6.06,6.06,0,0,1,2.43,2.41c8.34,13.31,26.79,9.61,32.43-3.48a32.81,32.81,0,0,0,2-6.12,3.59,3.59,0,0,1,.93-1.9c4-.58,7.4,1.86,11.24,2C372.61,282.76,372.52,283.68,372.44,284.6Z"/><path class="cls-26" d="M323.86,289.84c-3.89-.16-7.33,1.29-10.7,3-3.55.08-7-.25-8.86-3.86-2.7-5.15.68-9.87,8-11.3h10.61c5.55-2.15,10.9-.3,13.75,4.74C334.94,288.4,330.33,291.06,323.86,289.84Z"/><path class="cls-27" d="M187.5,286.72l-.88,1.2c-7.7-2.07-15.24-4.94-23.43-4.59a3.13,3.13,0,0,1-2.85-1.64c.42-3.06-1.81-3.92-4-4.63-2.62-.85-5.3-1.5-8-2.24,4.2-10.87,13.2-15.58,23-12.05,5.07,3.06,9.2,7.29,13.69,11.06a.82.82,0,0,1,.33.68,6.36,6.36,0,0,0,1.94,7.31Z"/><path class="cls-28" d="M187.37,281.82c-2-.11-3.94-.41-4.53-2.7s.92-3.52,2.59-4.61c2.18-.13,4.62-.45,5.48,2.17C191.89,279.66,189.32,280.63,187.37,281.82Z"/><path class="cls-29" d="M185.1,273.83c-5.95-2-10-6.31-13.69-11.06C178.13,263.78,182.2,268.09,185.1,273.83Z"/><path class="cls-30" d="M372.69,281.84c-4.25,3-7.35.09-10.61-2.06-2.52-1.87-2.26-4.84-3-7.43.72-7.13,2.55-7.31-6-6.85-4.15-2.06-9.28-.7-13.14-3.75l8.93-10.68C364.54,253.83,373.6,265.53,372.69,281.84Z"/><path class="cls-27" d="M340,261.75c5-.26,9.89-.25,14.08,3.09-.72,4.51,1.34,6.54,5.75,6.49,1.85,2.52,2.12,5.47,2.29,8.45-.11.68-.22,1.36-.34,2.05-8.57,1-17.11,2.87-25.79.95-3-5.14-8.6-3.6-13-5.1a7.07,7.07,0,0,1,2-3.87c4.14-3.92,8.1-8.06,13-11.07Z"/><path class="cls-31" d="M337.94,262.74c-3.65,4.49-7.22,9.09-13,11.07A17.55,17.55,0,0,1,337.94,262.74Z"/><path class="cls-32" d="M160.34,281.69c7.72-.08,15.4.08,22.62,3.4,1.45.67,3.28.81,3.66,2.83-2.25,8.05-7.66,12.53-16.3,13.48-7.26.81-16-4.16-20-11.39a41,41,0,0,1-1.69-4.1C152.55,284.46,157,284.58,160.34,281.69Z"/><path class="cls-32" d="M336,282.78c8.57-1.17,17.1-3.11,25.79-.95-.38,10.6-10,18.41-18.65,19.42a18.06,18.06,0,0,1-19.23-11.41C328.36,288.29,333.66,288.1,336,282.78Z"/><path class="cls-33" d="M359.79,271.33c-2.46,1.08-5,2.33-7.18-.37-1.94-2.46.23-4.24,1.43-6.11,2.27-1.35,4.67-3.25,7-.5S361.57,269.24,359.79,271.33Z"/></g></g></svg>
