<svg xmlns="http://www.w3.org/2000/svg" viewBox="0 0 505.68 505.68" width="100" height="100"><defs><style>.cls-1{fill:#d00014;}.cls-2{fill:#cdb086;}.cls-3{fill:#7d000c;}.cls-4{fill:#b19874;}.cls-5{fill:#010101;}.cls-6{fill:#010100;}.cls-7{fill:#020101;}.cls-8{fill:#dbbe93;}.cls-9{fill:#f6d3c6;}.cls-10{fill:#dac090;}.cls-11{fill:#a58f71;}.cls-12{fill:#f9c02a;}.cls-13{fill:#efdec4;}.cls-14{fill:#96774b;}.cls-15{fill:#050e1b;}.cls-16{fill:#4e0805;}.cls-17{fill:#2b0303;}.cls-18{fill:#cfa798;}.cls-19{fill:#c5aa83;}.cls-20{fill:#b8870a;}.cls-21{fill:#b9870a;}.cls-22{fill:#bc8c14;}.cls-23{fill:#c1921c;}.cls-24{fill:#e8d1b0;}.cls-25{fill:#a58f70;}.cls-26{fill:#760800;}.cls-27{fill:#b5a287;}.cls-28{fill:#b5a388;}.cls-29{fill:#e8e4e4;}.cls-30{fill:#e8e3e3;}.cls-31{fill:#e8e2e2;}.cls-32{fill:#fdfdfd;}.cls-33{fill:#fefefe;}.cls-34{fill:#b19f84;}.cls-35{fill:#c9ad85;}.cls-36{fill:#790d05;}.cls-37{fill:#770b04;}.cls-38{fill:#0a254d;}.cls-39{fill:#fdfdfc;}.cls-40{fill:#0c1420;}.cls-41{fill:#fcfcfb;}.cls-42{fill:#88120c;}.cls-43{fill:#f31000;}.cls-44{fill:#003683;}.cls-45{fill:#f83b28;}.cls-46{fill:#7a1008;}</style></defs><g id="Calque_2" data-name="Calque 2"><g id="Calque_8" data-name="Calque 8"><path class="cls-1" d="M505.68,0V505.68H311.78a11.2,11.2,0,0,1,.86-1.05c3.75-4.2,7.6-8.3,11.37-12.5A158.84,158.84,0,0,0,342.31,468a27.56,27.56,0,0,1,6.5-7.44c14.16-11.3,26.29-24.64,38.84-37.63,9.25-9.58,17.44-19.88,25.63-30.26l.17-.18a4,4,0,0,0,.48-.54,10.59,10.59,0,0,0,1.22-2.08h0c.06-.1.1-.21.15-.31.24-.89.51-1.75.81-2.61h0c2.73-8.14,7.6-15.29,11.14-23.06a224.14,224.14,0,0,0,20-103.14c-.49-12.27-2-24.49-5.64-36.32a43,43,0,0,1-1.48-13.72c.27-14.25.55-28.51-.4-42.79-.89-13.63-1.87-27.23-4.27-40.67a.09.09,0,0,0,0,0c-.25-1.41-.51-2.82-.8-4.23-1.2-6-2.42-12-5-17.57-.41-.9-.86-1.8-1.36-2.68-1.67-2.36-2.29-5.13-3.11-7.83C421.46,82.5,415.84,71.22,407,61.55c-9-9.84-20.06-12.57-32.61-10.12-22.29,4.34-42.22,13.72-59.29,28.87a19.4,19.4,0,0,1-2.33,1.93,4.68,4.68,0,0,1-.73.4A4.57,4.57,0,0,1,311,83c-2.1.24-3.87-.74-5.68-1.55-18.13-8.08-37.19-11-56.85-9.63A163.2,163.2,0,0,0,195.67,84.5a9.92,9.92,0,0,1-4.25,1.28,10.93,10.93,0,0,1-1.14-.39h0a10,10,0,0,1-1.46-.74h0c-2.32-1.39-4.13-3.46-6.21-5.15a120.62,120.62,0,0,0-62-26.43c-9.08-1.16-17,1.77-23.72,8.09-9,8.55-14.78,19.06-18.9,30.67-3.85,10.84-5.47,22.25-8.84,33.21q-.86,2.92-1.54,5.86v0A162,162,0,0,0,64,154.07h0c-.48,5.19-.78,10.4-1,15.62-.53,13.46-.09,26.91,2.67,40.17a13.59,13.59,0,0,1-.8,8.31c-7.75,17.87-10.2,36.68-9.93,56a17.75,17.75,0,0,1-.52,5.43,7.62,7.62,0,0,1-.39.81,4.13,4.13,0,0,1-.32.49c-2.09,2.94-6.17,2.95-8.85,5.19,2.58-.36,5.13-1.36,7.62-.19a2.39,2.39,0,0,1,.44.24h0a1.74,1.74,0,0,1,.26.15c2.4,3.09,2.46,6.83,2.6,10.42.82,21.42,5.7,42,13.21,61.94a14.7,14.7,0,0,1,1.37,5.75.58.58,0,0,1,0,.14h0a4,4,0,0,1-.15.69h0c-.84,3.36-3.49,5.63-5.46,8.31-4.51,6.15-9,12.31-8.48,20.66,2.54-6.59,6.32-12.43,10.39-18.08,1.61-2.25,3.06-4.83,6.31-5.12l0,0h0l.18.08c2.13.85,2.8,2.94,3.74,4.75,7.64,14.89,18,27.77,29.19,40.09a350.87,350.87,0,0,0,27.44,27.51h0c.87.77,1.74,1.53,2.63,2.27h0l1.42,1.21c.26.19.52.39.76.59a13.05,13.05,0,0,1,1.44,1.44c.14.14.26.3.39.45,12.67,8.59,21.22,21.37,32.13,31.76,7.82,7.44,15.66,14.83,23.71,22a11.45,11.45,0,0,1,2.36,2.46H0V0Z"/><path class="cls-2" d="M191.05,85c38.85-16.48,78-22,118-3.7a12.05,12.05,0,0,0,2.35.58c3.64,1.1,6.65,0,9.7-2.14A113.85,113.85,0,0,1,359.76,62c.48-.12.95-.3,1.43-.41,1.79-.41,4.06-1.17,5,.74s-1.24,3.21-2.71,4.16a105.14,105.14,0,0,0-25.78,23.14c-4.17,5.31-4.23,5.28.69,9.89,1.94,1.81,3.78,3.73,5.67,5.59,2.71,2.95,5.73,5.6,8.3,8.68,13.29,15.76,25,32.64,33.87,51.23,3.46,7.24,7.54,12.64,15,16,6.33,2.88,11.34,8,15.86,13.34a91,91,0,0,1,18.72,48.08c-1.25,13.52-8.41,24.32-16,34.92-4.75.84-9.09-1.34-13.64-2-17.16-2.48-34-.26-50.87,2.58-8.17,1.37-16.18,3.51-24.21,5.54-1.91.49-3.8,1.21-5.84.8-9-5.09-18.69-6.35-28.79-5.67-6.82.47-13.29,2.81-20,3.84a5.8,5.8,0,0,1-2.19-.74c-2.6-2.14-6.71-2.27-8.07-6.06-.32-8.14-5-14.76-7.78-22-.72-1.88-2.52-3.71-.27-5.74,4.16-1.53,8.54-.83,12.81-1.28,2.38.38,4,2.37,6.37,2.88,8,1.81,15.56-1,23.27-2.21,16.5-4,30.62-12.93,44.95-21.44a92,92,0,0,0,29.13-28c3.91-5.36,3.95-6.89-.91-11.94-22.81-23.7-61.87-26.77-85.49,4.61-3.09,4.1-5.63,8.62-9.25,12.34-8.77,6.53-18.23,11.79-29.17,13.19-17.6,2.25-34-1.06-48.22-12.33-2.1-1.76-3-4.28-4.31-6.6-8.19-14.93-20-25.83-36.76-29.64-18.92-4.3-37.13-1.38-52.95,10.22-10.33,7.58-8.86,7.53,0,18,9.08,9.53,18.5,18.68,29.42,26.15,12.93,8.61,27.19,14.43,41.67,19.77,7.48,2.6,15.07,4.58,23,4.84,3.47,1.75,7.18-.76,10.67.57,2.16,1.92.62,3.67-.48,5.17-2.67,3.65-4.17,7.84-6,11.87a6.49,6.49,0,0,0,.22,6.57c-1.26,3.79-5.62,2-7.72,4.31a3.66,3.66,0,0,1-2,.93c-13.74-9.68-27.79-8.49-42.05-1.27a20.16,20.16,0,0,0-8.46,7.82c-9.74.47-19.09-2.32-28.64-3.37-16.07-1.77-32.11-2.64-48.15.18-2.27.4-4.59,1-6.84-.18-2.9-4-2.49-8.83-2.77-13.4-1.23-20.66,2.89-40.33,11.14-59.21,3.36-6.51,6.57-13.11,9.81-19.7,4.72-4.87,8.36-10.67,13.39-15.32,4-3.65,8-7,13-8.93a13,13,0,0,0,7.5-7.43c6.64-14.69,16.44-27.21,27.17-39.07a19.67,19.67,0,0,1,3.34-3c3.51-2.28,5.88-5.87,9.34-8.21,4.94-3.83,10.27-7.09,15.4-10.65,3.93-2.19,7.73-4.6,11.82-6.5C184.55,86.58,187.17,83.56,191.05,85Z"/><path class="cls-3" d="M414.27,393.44c-5.46,5.62-8.51,13-14.07,18.6-6.31,6.32-12.49,12.77-18.45,19.41a301.64,301.64,0,0,1-33.24,31.29c-5.59,4.59-8,11.69-12.43,17.28-7.08,9-14.71,17.43-22.61,25.66H196.41c-11.94-10.84-24-21.56-34.84-33.54-7.07-7.82-14-15.72-22.61-21.91l-.57-2.68c-2-9.58-3.75-19.19-3.17-29.05.3-5.06.14-10.22,2.34-15a4.83,4.83,0,0,1,1.5-.71,3,3,0,0,1,.58-.09c2-.19,3.56,1.28,5,2.43a192.54,192.54,0,0,0,24.95,16h0l1.57.86,1.21.67c1.7,1.48,2.38,3.55,3.27,5.52,3.78,8.34,7.8,16.55,13.65,23.69,11.12,13.56,25.7,20.49,42.86,22.82,10.61,1.44,20.84-.43,31-2.82,15.51-3.64,26.77-13.49,36.34-25.59,4.65-5.86,7.5-12.91,12-18.93.43-.31.86-.62,1.3-.91.2-.15.41-.29.62-.42,5.18-3.41,10.93-5.84,16.15-9.18,1-.64,2.18-1.35,3.37-.92h0a1.09,1.09,0,0,1,.23.09,3,3,0,0,1,.9.68c2.09,8-.79,15.71-1.78,23.52a5.82,5.82,0,0,1-.27,1.08c4.56-8.65,5.29-19,6.35-29.31a5.43,5.43,0,0,1,1.16-1.57,7.17,7.17,0,0,1,1-.81c.88-.61,1.85-1.1,2.75-1.67a221.68,221.68,0,0,0,47.22-41c1.07-1.23,2.09-2.51,3.64-3a4.54,4.54,0,0,1,.66-.16,4,4,0,0,1,.5-.06,3.9,3.9,0,0,1,2.68,1.16c7.26,7.89,13.31,16.48,15.88,27C414.05,392.45,414.17,392.94,414.27,393.44Z"/><path d="M139,403.33c-2.47,9.23-2.57,18.61-1.51,28,.56,4.93,1.54,9.81,2.22,14.72.19,1.41.69,3-.76,4.17l-1.89-2.08c-5.22-5.27-6.6-12.09-7.35-19a94.06,94.06,0,0,1,1.52-30.53c1.09-14.37,5.36-27.86,11.38-40.86,2-4,4-8,6.34-11.8,1.85-2.93,3.33-6.14,5.63-8.73,2.93-3.28,3.23-6.29,1-10.24-2.9-5.14-3.57-10.64.53-15.76,2.52-1.8,3.57-.37,4.1,1.95a30.23,30.23,0,0,0,2,6.64c2.18,4.51,3.4,4.86,7.49,2.17.69-.45,1.29-1,2-1.49,2.48-1.6,5-3.18,7.94-3.69,1.16-.2,2.43-.24,3.12.83s0,2.19-.72,3.11a20.2,20.2,0,0,1-4.36,3.89,14.53,14.53,0,0,0-1.84,1.67c-2.31,2.22-1.83,3.69,1.19,4.4,7.8,1.81,15.65,3.17,23.67,1.76,10.75-1.89,21-5.22,29.56-12.27,3-2.42,5.06-1.94,7.61.72,7,7.32,13.78,14.91,23.17,19.36,10.88,5.17,22.24,7.64,34.29,6.15,1.57-.19,3.86.05,4.39-1.67.58-1.88-1.77-2.5-2.89-3.6-.59-.58-1.3-1-1.9-1.62-2.9-3.17-6.19-6-9-9.2-.85-1-2-2.18-1.28-3.49.92-1.64,2.65-1,4-.52,5.74,1.95,10.31,5.85,15.17,9.25,7.19,6.53,7.78,6.56,15.23-.2,3.05-2.77,5.92-5.72,8.68-8.78,1.05-1.16,1.93-2.84,4-2.05,1.7,2.45.47,4.78-.39,7.07-2.22,5.9-6.45,10.34-11,14.51-2,1.82-2.84,3.54-.8,5.92,4.12,4.8,6.94,10.46,10.14,15.87a14.31,14.31,0,0,1,1.22,2.81c5.59,11.06,8.05,23,9.88,35.11a7.7,7.7,0,0,1-1.13,5.68c-.21,8.94-1,17.79-4.25,26.24a22.93,22.93,0,0,1-5,8.24c.3-10.58,3.7-20,2.81-29.69-2.18-2.79-1.8-6.24-2.31-9.42-1.43-8.94-3.13-17.8-6.31-26.31-2.85-8.91-8-16.54-13.38-24.05-1.73-2.39-3.65-3.17-6.3-1.65-3.45,1.77-2.67,5.07-2.71,7.93a288.72,288.72,0,0,1-5.22,50c-2.07,10.88-5.73,21.19-13.57,29.45-18.24,19.23-43.89,24.71-69,15.32-15.66-5.85-25.62-16.29-29.85-32.63-6.43-24.88-12.54-49.79-15.1-75.44-.37-3.77,1.12-8.17-2.74-11.12-2.23-.79-2.9,1.1-3.81,2.34A107.28,107.28,0,0,0,155.83,352a82.25,82.25,0,0,0-4.05,8.41,139.26,139.26,0,0,0-10.74,38C140.82,400.19,140.58,402.07,139,403.33Z"/><path class="cls-4" d="M343.39,106.1c-3.78-2.42-6.12-6.51-10.09-8.75-1.84-1-1.12-2.33-.17-3.7a95.78,95.78,0,0,1,15.61-17.81c5.34-4.65,11.24-8.5,17.28-12.91-2.55-1.28-4.26.16-6,.6a113.34,113.34,0,0,0-40.56,19.15c-3.09,2.28-5.63,2.28-8.05-.76,11.43-12,25.67-19.66,40.86-25.69,10.21-4.06,20.62-7,31.79-7.13,8.57-.07,15.29,3.36,21.4,8.92,11.32,10.32,17.29,23.65,21.72,37.89.54,1.73,1.13,3.45,1.7,5.17,4.3,10.8,6.13,22.18,7.74,33.57,3.58,25.42-.94,50.11-7.12,74.62-.43,1.72-.71,3.63-2.57,4.6-2.25-7.12-7.41-12.6-10.76-19.1-.6-1.65-.19-3.24.15-4.89,5.87-28.51,5-56.69-4.26-84.45A49.2,49.2,0,0,0,399.45,86c-6.39-6.39-14.11-4.9-21.43-2.93-9.76,2.63-17.91,8.33-25.23,15.29C349.86,101.12,347.74,105,343.39,106.1Z"/><path class="cls-4" d="M169.86,95.16c-4.34,4.51-10.28,6.84-14.91,11-2.23-.47-3.67-2.1-5.29-3.51-9.45-8.24-19.72-14.89-32.34-17.36a16.09,16.09,0,0,0-11.43,1.61c-7.84,4.56-12.8,11.53-15.87,19.8a131.76,131.76,0,0,0-8.11,42.83c-.25,10.42-.75,20.9.73,31.3.31,2.15.17,4.34-1.48,6.08-1.8,7-5.27,13.12-9.25,19-2.84-.8-2.87-3.4-3.34-5.55-5.1-23.28-6.76-46.65-1.48-70.16.47-2.07.16-4.27,1.12-6.24,3.67-16.1,6.71-32.36,14.73-47.14A68.5,68.5,0,0,1,97.45,58.64c9.19-8.36,20.27-8.41,31.44-6,23.66,5.07,44.75,15.26,62.16,32.42l-9.19,4.12c-3.7-1.33-6.31-4.2-9.17-6.67a153.24,153.24,0,0,0-33.14-21.62c12.47,7.82,21.2,19.19,29.45,31A4.21,4.21,0,0,1,169.86,95.16Z"/><path class="cls-3" d="M426.91,213.87c1.84-10.42,4.53-20.67,6.46-31.09,4.89-26.29,2.21-52.09-3.78-77.79-.3-1.29-.49-2.6-.73-3.91,3.58,3.64,4,8.58,5.28,13.11,4.63,16.84,6.1,34.1,7.23,51.48.9,13.78,1.43,27.6.39,41.25-.83,10.87,3.09,20.47,4.67,30.64a224.4,224.4,0,0,1-.15,69.17c-3.79,24.57-12.16,47.39-23.06,69.47-2.47,5-5.78,9.61-6.93,15.21a2.27,2.27,0,0,1-1.14-1.54c-1.17-10.35-7.26-18.14-13.41-25.91-1.4-1.77-3.23-3.38-3.16-6,.45-2.39,2.07-4.13,3.39-6,15.6-22.36,26.62-46.63,30.93-73.73a17.19,17.19,0,0,0,.37-2.46c.08-11.06.67-22.11,1-33.16C433.6,232.59,430.76,223.1,426.91,213.87Z"/><path class="cls-3" d="M132.67,398.34c-1.74,12.92-3.12,25.82.25,38.74,1,3.86,3,7.3,4.15,11.07-9-6.85-16.92-14.86-24.59-23.09-10.82-11.62-21.7-23.23-30.12-36.84a124.41,124.41,0,0,1-9.24-17c-1.17-1.6-.15-2.88.82-3.92,4.24-4.55,8.69-8.91,12.7-13.69a3.48,3.48,0,0,1,3.49-1.38c8.14,11.5,16.93,22.43,27.25,32.1a112.81,112.81,0,0,0,11,9.29A14,14,0,0,1,132.67,398.34Z"/><path class="cls-3" d="M69.36,365.6c-3-10.28-7.22-20.15-9.64-30.63-2.94-12.72-5.3-25.47-5.67-38.56-.09-3.37-.12-6.89-2-10,2.84-3.93,6.81-4.06,11.05-3.28a3.68,3.68,0,0,1,1.37,2.54c2.86,22,10.78,42.12,22,61.09a1.4,1.4,0,0,1,.09.48C85.58,351.23,73.24,364.38,69.36,365.6Z"/><path class="cls-5" d="M399.22,358.45c3.8,5,8,9.61,11.36,14.92,3.49,5.54,6.08,11.31,5.71,18a3.38,3.38,0,0,1-2,2c-2.49-2.43-2.8-5.93-4.32-8.84-3.91-7.52-8.26-14.74-14.75-20.4-2.52-.34-4-2.25-5.52-3.9a124,124,0,0,0-22.27-18.61,155.06,155.06,0,0,0-19.77-10.89c-4.69-2.52-9.76-4.15-14.62-6.28-1.72-1.41-4-.88-5.9-1.67-11-3.78-22.45-4.31-33.83-5.5-2.06-.22-5.24.19-5.45-2.23s2.92-2.67,5-3.07c6.33-1.23,12.66-2.65,19.19-1.81,5,1.09,10.12,1.69,15.08,3.08s10.12,3.19,15.09,5.07q2.29,1.11,4.65,2.12c9.16,3.68,17.62,8.68,26,13.88,8.2,5.83,16.27,11.82,23.17,19.22C397.31,355.06,398.78,356.4,399.22,358.45Z"/><path class="cls-6" d="M69.36,365.6l16.57-18c1.77-4.57,5.8-7.11,9.25-10.16,1.48-1.32,3-2.62,4.57-3.86a170.33,170.33,0,0,1,32.73-20.48c7.2-3.78,14.28-7.8,22.22-9.95s15.8-1.38,23.56.92c1.57.46,3.66,1.11,3.5,3s-2.41,2-4,2.11c-5.3.38-10.64-.22-15.89.79-1.5.38-3.13-.39-4.58.47a150.94,150.94,0,0,0-23.46,11.35,120.79,120.79,0,0,0-25.95,16.63c-4.73,3.9-9.14,8.17-13.94,12-1.28,1-2.4,2.35-4.26,2.32-5.46,6.21-11.83,11.62-16.55,18.49-6.56,6.06-11,13.5-14.25,21.72-.75,1.86-1.18,5.37-3.2,4.87-3-.75-1.79-4.17-1.43-6.48,1.21-7.79,5.74-13.94,10.37-20C66.12,369.35,67.77,367.51,69.36,365.6Z"/><path class="cls-3" d="M68.21,123.94c-.61,11.71-3.43,23.24-2.9,35,.7,15.85,2.2,31.6,6.6,46.93.3,3.32-1.56,6-2.71,8.88-8.3,20.62-9.16,42-7,63.79-2.5,3-5.44,4.06-9.06,2-.28-18.44.55-36.74,6.78-54.36.5-1.41,1-2.83,1.57-4.19,2-4.73,3-9.17,2-14.72-4.79-27.27-2.35-54.36,3.66-81.21A10.56,10.56,0,0,1,68.21,123.94Z"/><path class="cls-7" d="M53.15,280.6l9.06-2c27.84-5.78,55.32-1.64,82.79,2.94a10.72,10.72,0,0,0,2,0c1.73-1.55,3.72-1,5.65-.68a93.57,93.57,0,0,1,18.59,5.09,11.29,11.29,0,0,1,2.67,1.27c1.07.76,2.41,1.6,1.91,3.12s-2.12,1.53-3.36,1.24c-4.35-1-8.81-1.17-13.16-2a12.46,12.46,0,0,0-3.44-.26c-3.42-.32-6.81-.89-10.22-1.31-13.51-1.22-26.94-3.16-40.44-4.52-13.31-1.34-26.45-.49-39.6,1.38a4.61,4.61,0,0,1-2.5-1,45.87,45.87,0,0,0-11,2.67L40.8,288.17C44,283,49.11,282.69,53.15,280.6Z"/><path class="cls-8" d="M220.06,129.79c-16.87.66-33.28-1.67-47.42-11.43-13-9-11.22-13.43,0-20.38,20.69-12.82,43-21.63,67.67-23.92,16.35-1.52,32.37-1.2,48.05,4a102.16,102.16,0,0,1,30.31,15.65c3.89,3,4.07,5.43,0,8.69-8.65,6.91-18.62,11.38-29.17,14.56A392.57,392.57,0,0,1,234,129.69C229.42,130.36,224.7,129.79,220.06,129.79Z"/><path class="cls-9" d="M400.2,84.29c12,10.54,15.66,25,18.48,39.77a176,176,0,0,1,.48,61.8c-.5,3-2,5.95-3,8.91-7.42-6.89-15.1-13.39-24.62-17.29-1.43-.59-2.1-2.07-2.71-3.45a233.38,233.38,0,0,0-36.53-57.7,8.29,8.29,0,0,1-1-2.23,3.54,3.54,0,0,1,.73-3.27c9.42-13.66,20.89-24.46,38-27.53C393.61,82.67,397,82.64,400.2,84.29Z"/><path class="cls-9" d="M81.16,186.86a312.15,312.15,0,0,1-1-37.82,136.08,136.08,0,0,1,8.19-42.78c3.37-9,8.36-17,17.71-21.16,5.34-1.74,10.09.05,14.68,2.53a71.07,71.07,0,0,1,23.9,20.64c1.26,1.72,2.8,3.44,1.37,5.83A140,140,0,0,0,116,155c-2.06,4.34-4.52,7.43-9.37,9.31C97.93,167.73,92,174.86,86.33,182,84.87,183.88,84.31,186.8,81.16,186.86Z"/><path class="cls-10" d="M290.36,255.74c4.92-1.24,9.87-2.43,14.78-3.73a178.24,178.24,0,0,0,61.91-29.73c5.53-4.14,10.21-9.36,14.89-14.5s11.26-4.2,17.24-3.53c2.78.31,3,3.56,3.07,6.13.2,11.09-5.78,19.34-12.4,27.38-12.61,15.31-30.45,18.9-48.55,22-10.88,1.84-21.86.91-32.78.91C302.3,260.62,296.14,259.44,290.36,255.74Z"/><path class="cls-11" d="M399.22,358.45a199.24,199.24,0,0,0-27-22.86c3.11-4.32,7.18-7.76,11-11.38,13.38-12.7,23.21-27.95,32.09-43.91,3.31-1.16,6.37.67,9.67.8-1.15-2-4.88-1.23-4.75-4.46,3.56-7.1,7-14.26,10.73-21.26,2.14-4,3.69-8.12,3.36-12.75,1.65,14.38,1.95,28.73-1.06,43C427.57,312.54,415.8,336.62,399.22,358.45Z"/><path class="cls-12" d="M276.31,250.77c-2.56.53-3.38-1.62-4.67-3-4.11-4.89-2.65-10.6-2.41-16.13C274,208,288.43,192,310,183.2c20.56-8.39,41.15-7.64,59.9,6.17,1.73,1.27,3.45,2.61,4.05,4.86.27,2.08-1,3.45-2.35,4.66-6.52,5.66-13.14,11.19-20.05,16.36-1.57,1.18-3.14,2.58-5.4,1.74-2.41-2.85-2.36-6.72-4.09-9.86,0-2.76,2.59-3.1,4.14-4.42,1.15-1,2.47-2,1.55-3.69-.75-1.37-2.2-1.22-3.55-1-1.92.4-3.67,1.57-5.74,1.3-1.72-.48-2.81-1.85-4.13-2.9-7.31-5.86-15-6.67-23-1.86C300,201.52,294,211.85,293,225.15a29.2,29.2,0,0,0,4.85,17.18c1,1.48,1.95,3.11.72,5A48.31,48.31,0,0,1,276.31,250.77Z"/><path class="cls-11" d="M270.64,230.78c0,5.67-.33,11.36,1,16.95-4.57,1.61-9.32.86-14,1-3.79-.33-5.17-3.79-7.47-5.95-5.58-5.24-11.73-8-19.43-5.85-4.81,1.35-8.23,4.77-11.73,8.09-1.67,1.59-3.1,4.2-6.21,2.8-3.67,0-7.34,2.22-11,0a12.74,12.74,0,0,1,1.21-2.69c2.39-5,2-10.39,2.25-15.71.07-7.12-1.94-13.87-3.59-20.69-.49-2-1.72-4.05.21-6a73.65,73.65,0,0,0,26.52,11.32c16.51,3.3,31.3-.16,45.13-9.18,1.65-1.08,3.37-2.06,5.07-3.08,1.66,2.4,0,4.47-.85,6.48C274.54,215.56,271.58,222.85,270.64,230.78Z"/><path class="cls-10" d="M168.26,242.84c-1.29,1.59-3.07.87-4.59.88-10.95.07-21.92.5-32.84-.08-14.4-.75-28.56-2.56-40.78-11.72C82.13,226,80,218.44,81.25,209.29a5.94,5.94,0,0,1,3.32-4.67A37.33,37.33,0,0,1,94.85,201c2.92-.53,5.82-.45,8.17,2.24,16.66,19.07,38,30.45,61.91,37.7C166.09,241.31,167.57,241.35,168.26,242.84Z"/><path class="cls-8" d="M212.8,247.85c3.58-1,5.39-4.23,7.85-6.57,9.37-8.87,20.69-9,29.9-.09,2.48,2.41,4.73,5,7.09,7.57a186.23,186.23,0,0,1,9.81,23.06c.39,1.2,2.23,3.16-.79,3.84-1.53,1.23-3.2.78-4.71.16-16.06-6.66-32.81-4.17-49.4-3.76-2.29.06-4.64.65-6.54-1.24-3.48-.15-3.44-2-2.53-4.69C205.68,259.56,209.11,253.65,212.8,247.85Z"/><path class="cls-13" d="M275.35,281.52c6.67-1.66,13.26-3.6,20.16-4.37,9.74-1.09,18.95.82,28,4.13,1.15.42,1.56,1.1.91,2.24-1,2.31-3.28,2.66-5.27,3.33-6.93,2.32-13.73,5-18.75,6.87,5.23-2.07,12.8-2.8,20-5a4.26,4.26,0,0,1,4.64.95c1.81,3.85.75,7-2.17,9.85-15,14.8-37.73,16.81-56.71,7.5a6.18,6.18,0,0,1-3-2.58c-.84-4.76,3.22-7.86,4.09-12.05C269.72,288.6,271,284,275.35,281.52Z"/><path class="cls-14" d="M270.64,230.78c0-8.62,2.75-16.56,6.14-24.34.66-1.5,1.2-3.06,1.8-4.59,6.26-9.18,12.34-18.45,21.58-25.13,19.07-13.81,40.3-13.5,60.44-2.86a51,51,0,0,1,15.09,12c5.17,6.07,5.21,7-.25,13-1.93-.67-1.59-2.55-2.1-4-8.23-9.8-19.42-13.76-31.54-14.87-25.87-2.38-46.1,8.27-61.53,28.56C275.32,215.13,272.77,222.92,270.64,230.78Z"/><path class="cls-14" d="M201.86,202.79c1.39,6.45,2.63,12.94,4.24,19.33a30.44,30.44,0,0,1,.59,7.88c-3.16-.95-2.68-3.92-3.15-6.16C200,207,191.37,193.63,176.28,185.25,157.42,174.78,138,174.59,118.56,184c-3.49,1.68-6.27,4.33-9,7-1.83,1.54-1.16,4.13-2.48,5.89-3.5-2.16-5.26-5.87-7.86-8.83-2-2.29-.75-4.09,1-6,9.42-10,21.44-14.84,34.55-17,18.33-2.95,35.14.75,49.56,13.14C192.26,185.05,197.2,193.81,201.86,202.79Z"/><path class="cls-15" d="M178.39,243.38c-14.71-5.82-29.54-11.42-42.57-20.71-1.89-3.14-1.75-6.55-1.4-10,.56-7.18,4.05-13,8.54-18.35,1.26-1.49,2.72-2.88,4.91-2.88,4.25,1.91,6.93,5.57,9.81,9,1.9,2.24,1,4.66-.2,7a21.37,21.37,0,0,0-2.61,12,12.55,12.55,0,0,0,2,6.1c1.14,1.66,2.46,3.48,4.72,3.07,2.5-.46,2.4-2.83,2.68-4.78.45-3.1-.82-7,3.71-8.26,7.13.4,14,1.44,19.29,7,.94,6.64-1.24,12.55-4.3,18.26A6.5,6.5,0,0,1,178.39,243.38Z"/><path class="cls-15" d="M343.22,206.26c2.23,3.16,2.32,7,3.28,10.54,2.71,3.34,1.83,6.67-.05,10-14.12,9.11-28.51,17.66-45,21.84-.86-.67-2.65-.09-2.61-1.95-4.7-6.53-8.37-13.4-7.23-21.86,4.32-4.63,10.38-6.34,15.75-9.17,2.95-1.55,4.29.61,4,3.49-.3,3.66-.4,7.29.91,10.79.95,2.54,2.19,5.25,5.42,4.9s3.66-3.43,4-6.07.12-5.62.21-8.43c.08-2.6.62-5,3-6.42,4.35-2.37,8.87-4.39,13.15-6.91C339.66,206.09,341.33,205.19,343.22,206.26Z"/><path class="cls-13" d="M155.92,287.66a144.19,144.19,0,0,1,19.68,2.64c-8.79-5.47-18.76-7-28.64-8.83-2.41-1.53-.77-2.65.43-3.72a39.25,39.25,0,0,1,23.23-9.93c6.93-.65,13.84-.31,20.32,2.89,2.41,1.19,4.63,2.41,5.79,5,1.57.41,2.1,1.63,2.42,3a18.91,18.91,0,0,0,2.32,9.75,7.26,7.26,0,0,1,1.09,5.11c-.88,2.26-2.91,2.73-4.9,2.68-11.91-.29-23.91,0-35.52-3.35C159.44,292.14,156,291.74,155.92,287.66Z"/><path class="cls-16" d="M206,270.82c10.08-1,20.19-1.4,30.33-1.63,10.69-.25,20.59,2.55,30.32,6.47,2.35,2.1,5.79,2.51,7.85,5.06a5.16,5.16,0,0,1-1.61,2.47c-10.72,6.43-20.81,14.64-34.65,12.34-2.94-.49-5.92-.71-8.88-1-14.3-1.63-24.27-9.83-32.48-20.85C199.56,271.49,203.19,272.46,206,270.82Z"/><path class="cls-17" d="M196.89,273.63c2.08-.12,3.19,1.05,4.34,2.68,8.42,11.9,20.82,15.31,34.52,17.59,15.79,2.63,26.63-6.57,38.76-13.18l.84.8c-1.61,4.08-4.68,7.24-6.85,11-4.57,7.9-12.07,11.6-20.38,14-2.82.8-5.41,1.47-6.53,4.6a4.08,4.08,0,0,1-2.48,2.32c-4.32,1.74-15.06-2.5-16.63-6.9a11.7,11.7,0,0,0-7.07-7.15c-9.28-4-15.41-10.71-17.48-20.81l-1.2-2.81C196.78,275,196.84,274.32,196.89,273.63Z"/><path class="cls-5" d="M324.46,289.72c-9,2.06-18,4.1-27,6.19-1.59.37-3.1,1.17-5.54.51,10.55-6.09,21.71-9.05,32.5-12.9,14.4-3.73,28.81-7.22,43.61-9.3,17.64-2.49,35-2.15,52.18,2.42,2.85,2.16,7.19,2.26,9.23,6.86l-14.23-2.72c-1.29,1.1-2.83.92-4.28.63-22.77-4.57-45-.45-67.11,4.46-2.75.61-5.48,1.36-8.25,1.88-2.5.56-5,1.07-7.47,1.86A4.41,4.41,0,0,1,324.46,289.72Z"/><path class="cls-8" d="M336.71,150.61c-24.67,2.3-42.5,17.12-60.69,32.72-.23-6.3,2.93-10.34,5.64-14.24,8.74-12.57,19.52-22.64,35.53-24.71C324.31,143.46,330.72,146.11,336.71,150.61Z"/><path class="cls-8" d="M145.41,148.14c22-9.25,59.08,10.73,58.62,31C187,164.48,168.49,153.39,145.41,148.14Z"/><path class="cls-18" d="M400.2,84.29c-20.16-.81-34,9.79-45.3,25l-3.56,4.77a39.65,39.65,0,0,1-7.95-8c10.05-11.85,21.5-21.87,37.11-25.32C387.24,79.29,394.41,78.8,400.2,84.29Z"/><path class="cls-19" d="M169.86,95.16c-5.77-7.62-11.23-15.49-17.9-22.4-4.26-4.42-9.28-7.91-14.14-11.6-.86-.65-2.12-1-1.84-3.23a139.22,139.22,0,0,1,45.88,31.23C177.6,90.64,174.33,94.09,169.86,95.16Z"/><path class="cls-18" d="M146,114.1c-1.68-5.46-5.85-9.1-9.64-12.94a61.32,61.32,0,0,0-20.22-14A22.2,22.2,0,0,0,106,85.1c5.36-3.14,10.88-1.91,16.23-.26A69.7,69.7,0,0,1,155,106.11Z"/><path class="cls-20" d="M135.79,211.81l0,10.86a138.9,138.9,0,0,1-28.69-25.74c-.57-2.19-1.48-4.44,1.09-6.06a3.26,3.26,0,0,1,3.25.74C119.49,198.44,128.48,204.11,135.79,211.81Z"/><path class="cls-21" d="M346.45,226.79q0-5,.05-10a179.89,179.89,0,0,0,26.84-21.86,6.4,6.4,0,0,1,2.09,4A82,82,0,0,1,346.45,226.79Z"/><path class="cls-22" d="M178.39,243.38l3.21-2.87c7.54,1.71,15.1,3.36,22.26,6.42l-2.08.93C193.65,248.11,186.06,245.55,178.39,243.38Z"/><path class="cls-23" d="M298.83,246.68l2.61,1.95c-8.3,1.55-16.49,4.49-25.12,2.14C284,250.38,291.42,248.59,298.83,246.68Z"/><path class="cls-24" d="M155,351.48c2.27-5.58,5.78-10.38,9.49-15.05.38-.48,1-.9,1.54-.09a7.21,7.21,0,0,1,1.49,4.15c1.06,19.63,6.24,38.53,10.3,57.62a266.53,266.53,0,0,0,9.2,33.47c5.05,14.28,15.42,22.88,29.4,27.45,17.72,5.78,35.19,4.22,51.84-3.68a49.58,49.58,0,0,0,24.56-25.76c6.5-15.08,9.46-31,11.11-47.32.83-8.26,1.57-16.52.37-24.81a5.36,5.36,0,0,1,1.13-4.2c2.28-1.81,4.06-1.86,6,.83,5.65,7.92,11.23,15.84,14.12,25.28.83,1.21.57,2.61.43,3.87-1.79,15.75-5.51,30.93-13.57,44.8-5,8.78-9.62,17.71-16.45,25.38-25.58,28.73-73.29,30.18-99.47,8.07-10.78-9.1-17-21.1-22.59-33.55-.69-1.5-1.4-3-2.1-4.49a13,13,0,0,1-3.85-5.69c-5.78-18-10.68-36.17-12.46-55.05C155.5,359,154.54,355.25,155,351.48Z"/><path class="cls-11" d="M368.27,340.72A112.51,112.51,0,0,1,395.2,364.2,228,228,0,0,1,344.46,409c-1.52,1-2.87,2.27-4.78,2.52a126.6,126.6,0,0,0-10.21-41.07c10.11-7.14,20.14-14.4,29.6-22.42C362,345.48,364.1,341.74,368.27,340.72Z"/><path class="cls-11" d="M156.8,362.52a283.47,283.47,0,0,0,14.94,60.93c-9.92-4.23-18.76-10.22-27.32-16.67-1.71-1.29-3.61-2.31-5.41-3.45a118.63,118.63,0,0,1,11.86-44C153.5,359.19,155.32,360.54,156.8,362.52Z"/><path class="cls-25" d="M312.35,428c3.5-11.35,8.16-22.35,10.41-34.08.93-4.86,1.82-9.72,2.73-14.59,5.1,11.78,7.23,24.17,7.75,36.91Z"/><path class="cls-26" d="M286.53,377.14a86.11,86.11,0,0,1-9,40.22c-3.42-.61-3.66-3.23-3.77-5.94a4.63,4.63,0,0,1,.23-1c4.44-10.94,4.5-11.55-4.52-19.41-9.91-8.63-22-12.56-34.65-15.14-6.72-1.36-13.42-1.63-20.13.36-10.23,3-16.52,10-20.25,19.63a7.42,7.42,0,0,0,.93,7.06c1.48,2.37,3.6,4.37,4.32,7.21-.19,2.4-.38,4.79-3.71,4.7-7.64-17.44-11.12-35.95-14.12-54.59,4.09.84,5,5,7.54,7.39,1.52,1.45,2.53,4.47,4.66,4,2.56-.6,1.92-3.85,2.37-6a48.59,48.59,0,0,0,.2-15.83c-.41-3.49-1.58-7.24,1.28-10.4L202.7,338c3.15,2.2,5.37,5.35,8.13,8s4.95,2.51,7.74.09c7.09-6.15,18.33-5.36,24.93,1.56,1.14,1.19,2.34,2.33,3.55,3.45,3,2.77,6,3,9.42.7,1.9-1.29,3.74-2.75,6.07-3.27l7.73,1.71c1.27,2.5.9,5.2.86,7.83-.11,6.78,1.68,13.15,4.18,19.32,2.08,5.12,3.58,5.33,7.88,1.61C284.17,378.13,285,377,286.53,377.14Z"/><path class="cls-24" d="M324.46,289.72c1-.3,1.69-1.56,3-1.11,9.53-.64,12.69,5.89,15,13.36a64,64,0,0,1,2.95,13.57c.2,2.25.51,5.1-3.43,4.16l-14.65-4.83c-3.49-3.37-7.82-3.63-12.27-3.19-1,.09-1.9.55-2.86,0a61.89,61.89,0,0,0-24.11,3.58c13.62,1.17,27.33,1.43,40.28,6.44a2.3,2.3,0,0,1-.87,2.63c-6,5-12.12,9.64-19.5,12.39a7,7,0,0,1-4.83,0c-5.72-3.76-11-8.27-18.87-10.39l11.53,12.1a4.12,4.12,0,0,1-3.5,1.53c-18.38,1.09-35.33-1.76-48-17-3.9-4.67-3.93-5.58,1.54-8.11,5-2.32,9.3-5.66,13.55-9.09,1.25-1,2.19-2.59,4.16-2.3,19.52,10.59,38.32,11.82,55.76-3C323,297.38,325.34,294.55,324.46,289.72Z"/><path class="cls-24" d="M155.92,287.66c4.78,4.9,11.38,4.95,17.37,5.76,8,1.07,16.08.9,24.14,1.17,1.68.06,3.82.66,4.38-2a2.61,2.61,0,0,1,2.66.95,155.57,155.57,0,0,0,16.26,14.62c3.4,2.6,3.24,5.14.41,8.59-6.12,7.47-14.55,10.16-23.71,11.09a50.23,50.23,0,0,1-17.33-.74c-1.7-.42-4.36-.36-3.22-3.53l6.42-5.89c-4.77,0-7.82,2.51-11.21,4a2.69,2.69,0,0,1-3.22-.15c-3.7-3.59-7.64-7.08-7.9-12.81,6.39-1.9,12.94-1.72,19.52-1.75a39.32,39.32,0,0,0-26.3-2c-7.89,2.14-14.68,6.69-22.19,9.64-1.62-1.32-1.74-3.19-1.62-5a49.84,49.84,0,0,1,6.12-20.35c2.14-4,6-3.42,9.7-2.81Z"/><path class="cls-27" d="M176.88,323.59c.91,3.34,4,2,5.89,2.29,11,1.49,21.83,1,31.67-5.12.28-.17.59-.32.86-.51,8.71-6.31,8.67-8.3-.08-14.41-5.2-3.65-9.33-8.42-13.41-13.23-2.17-4.46-4.79-8.8-3.88-14.11,4.66,9.73,10.9,17.8,21.84,21a5,5,0,0,1,3.44,4.53c.52,4.47,3.34,6.07,7.25,6.77,2,.35,3.87.94,5.79,1.43,2.29.59,4,.13,4.33-2.53.38-3.3,2.35-4.06,5.42-4.43,9.21-1.11,15.83-7.07,22.5-12.81-.5,4.19-3.24,7.38-4.91,11a49.41,49.41,0,0,1-21.27,14.52c7.64,10.18,17,17.23,29.78,19.49,7.9,1.4,15.82.84,23.75.92a33.28,33.28,0,0,1,8,7.58,59.94,59.94,0,0,1-44.19-4.74c-9.33-4.76-16.62-12-23.37-19.86-1.85-2.14-2.77-2.15-4.94-.3-15.7,13.41-42.65,17.23-60.63,8.78A29,29,0,0,1,176.88,323.59Z"/><path class="cls-11" d="M89.67,352.71A224.06,224.06,0,0,1,107,337.48a122.31,122.31,0,0,0,34.39,18.1,4.18,4.18,0,0,1,2.72,2c-5.55,13.11-10,26.53-11.47,40.78-15.23-10-27.41-23.15-38.1-37.73C92.75,358.13,90.24,356,89.67,352.71Z"/><path class="cls-28" d="M305.39,353.26c3,23.48-1,46.18-7.88,68.5-6.16,19.95-18.89,33.33-39.35,39.21-17.15,4.93-33.65,3.92-49.86-3.45-12.35-5.61-19.27-15.61-23.61-28-6.75-19.3-10.07-39.43-14.62-59.25-2.54-11.08-4.85-22.34-4.08-33.89,2.48.9,4.79,1.51,4.95,5.13,1.17,26.17,6.66,51.6,13.65,76.75a33.51,33.51,0,0,1,.93,3.36c3.62,21.65,18.06,32.21,38.06,36.9,17.53,4.11,33.79,1.28,49-8.72,15.35-10.12,21.19-25.43,23.85-42.42,2.56-16.4,4.72-32.89,4-49.56C300.25,353.73,302.81,353.74,305.39,353.26Z"/><path class="cls-24" d="M333.5,323.51a75.28,75.28,0,0,1,14.87,6.18,6.9,6.9,0,0,1,1.55,5.1c-1,12.36-5.3,23.19-14.9,31.41-1.71,1.47-3.55,3.82-6.49,2.22-3.67-5.87-6.89-12.06-11.53-17.24-2.06-2.31-1.37-3.29.77-4.85a35,35,0,0,0,12.49-15.65,10.84,10.84,0,0,0,1-5.8C331.16,323,332.06,322.83,333.5,323.51Z"/><path class="cls-2" d="M144.14,357.56c-13.18-2.94-24.56-9.62-35.56-17.1a3.58,3.58,0,0,1-1.55-3,100,100,0,0,1,26-16.82,6.46,6.46,0,0,1,2.72,3.43,65.66,65.66,0,0,0,12.71,19.41,5.05,5.05,0,0,1,1.57,3Z"/><path class="cls-29" d="M262.54,348.52c-1.69,2.88-4.72,4-7.33,5.74s-5.27,1.52-7.63-.77c-.94-.92-2.3-1.59-2.89-2.68-4.1-7.6-12.37-5.7-18.65-8.29-1.73-.72-2.58,1.09-3.62,2.06-7.75,7.26-8.89,7.24-16.06-.85-1.49-1.68-3.5-3.12-3.65-5.7,9.92-1.77,19.83-3.66,29-8a3.57,3.57,0,0,1,4.77.87A70.39,70.39,0,0,0,262.54,348.52Z"/><path class="cls-24" d="M150,346.53c-8.46-6.79-13.49-15.83-17-25.87,7.67-4.3,15.07-9.19,23.89-11a1.23,1.23,0,0,1,0,1.91c-3.52,6.21-2.58,12.1,1.62,17.5,1.6,2.05,1.68,3.32,0,5.41C155.48,338.32,152.82,342.49,150,346.53Z"/><path class="cls-2" d="M328.53,368.42c11.15-5.33,16-15.19,18.76-26.43a38.54,38.54,0,0,0,1.08-12.3c7.13,2.78,13.59,6.77,19.9,11-10.55,11.48-23,20.59-36,29.12-.75.49-1.88.4-2.84.58C329.16,369.75,328.84,369.09,328.53,368.42Z"/><path class="cls-29" d="M256.26,436.83c1.82,12.66,1.68,13.09-11,14.76-9.07,1.18-18.23,1.17-27.16-1.35-7.52-2.12-8.85-4.88-6.12-12l3-7.85a3.79,3.79,0,0,1,1.73-3.92c2.38-1,3.42.08,3.73,2.35-.16,3.14-.92,6.23-1.06,9.37s1.06,5.18,4.47,5.27c6.46.15,12.94.53,19.37-.23,5.63-.66,7-2.57,6.65-8.29-.16-2.77-1.34-5.56.21-8.28,1.47-1.38,2.25,0,3.16.8C254.83,430.37,256.74,433.21,256.26,436.83Z"/><path class="cls-30" d="M197.92,339.39c-.25,9.41,1.78,18.83-.11,28.23-.54,2.7-.27,6.6-2.94,7.39s-3.83-3-5.46-4.93c-2.67-3.13-5-6.52-7.54-9.79a75.32,75.32,0,0,1-8-23.46l5.35,1.5c.14,1-2.07.18-1.3,1.48,4.63,7.84,8,16.35,13.4,24.32,0-4.54-.12-8.68,0-12.81.14-3.81-1.48-6.19-4.85-7.88-2.2-1.11-5.28-1.49-5.63-4.85Z"/><path class="cls-30" d="M274.54,411.81l3,5.55.9,4.93c-2.49.44-3.43-1.56-4.72-3s-2.24-3.73-5.35-4.16c.89,7.89.53,15.62,2,23.25.48,2.43,1.09,4.93-.69,7.17-4.2.08-6.16-3.24-8.57-5.78a48.24,48.24,0,0,1-3.48-4.63c-2.92-3.11-.85-6.48-.51-9.75A50.74,50.74,0,0,1,260.56,411c1.06-2.9,1.82-6.26,5.79-6.53C269.47,404.28,273.28,407.81,274.54,411.81Z"/><path class="cls-30" d="M286.53,377.14c-2.61,2.63-4.56,7.42-8.39,6.82-4.05-.62-4.14-5.88-5.46-9.31a52.57,52.57,0,0,1-3.42-20.34c0-1.4-.53-3,1-4.08l13.56,4.1c-8.23,2.38-7.14,8.83-6.47,15,.15,1.39,0,3,1.53,4.24,3.88-4.21,6.05-9.37,8.59-14.32,1-1.88-1.1-3-.92-4.62,8.86.25,8.54-1.31,5.66,7.73C290.62,367.39,288.44,372.23,286.53,377.14Z"/><path class="cls-31" d="M196,414.87c1-1.4,2.07-2.81,3.11-4.22.71-4.85,4.5-6.71,8.41-7.95,3.53-1.13,5.29,1.45,5.58,4.5.52,5.7,1.89,11.35,1.21,17.14-.14,1.48-.13,3-1.49,4.05-1.09,6.07-6,9.6-9.53,14-1.33,1.65-3.3.29-4.65-1.05,1.32-7.47,4.25-14.51,5.81-21.91.46-2.19,1.47-4.35.76-7.21-2.89,1.76-4.73,4.31-7,6.28-1.54,1.33-2.7,3.5-5.33,2.8C193,418.73,195.3,417.19,196,414.87Z"/><path class="cls-32" d="M192.84,421.29c3.47-3.3,6.91-6.64,10.43-9.88,1.06-1,2.46-2.31,3.88-1.35,1.22.82.21,2.39,0,3.68-1.05,7.89-4.26,15.23-5.81,23a7.26,7.26,0,0,1-2.75,4.59C190.66,436,189.27,431.23,192.84,421.29Z"/><path class="cls-32" d="M269.71,445.55c-1-9-2.09-17.91-2.95-26.89-.21-2.19-1.23-5.72.65-6.39,2.3-.82,4.44,2,6.11,3.94s2.5,4.68,4.92,6.08C281.42,432.24,279.32,436.64,269.71,445.55Z"/><path class="cls-32" d="M180.85,338.59c12.67,3.57,13.21,13.23,12,23.82a54.06,54.06,0,0,0,0,5.61c-3.74-2.68-4.81-6.4-6.57-9.57-3.14-5.66-6-11.49-9.05-17.18-1.39-2.55.25-2.69,2-2.94Z"/><path class="cls-33" d="M286.56,354.65c3.6,1,4.38,2.4,2.11,6-3,4.74-5.26,9.9-8.55,14.46-.64.89-1.31,2.17-2.71,1.61-1.12-.44-.63-1.71-.84-2.62a47.52,47.52,0,0,1-1-11.29c.08-8,0-8,8.27-8.51Z"/><path class="cls-27" d="M333.5,323.51c-.89.24-1.83.4-2.28,1.37-4.75,5.32-9.45,10.62-15.26,14.93-3.94,2.92-7.09,3.76-10.32-.62a22.58,22.58,0,0,0-2.45-2.44c9.84-2.6,17.62-8.68,25.2-15.06A11.12,11.12,0,0,1,333.5,323.51Z"/><path class="cls-34" d="M156.91,311.57c0-.63,0-1.27,0-1.91a7.35,7.35,0,0,1,4.08-.92c2.15,3.24,4.24,6.53,6.48,9.7,1.12,1.59,2.45,3.09,4.64,3.26-2.45,1.37-4.55,5.5-7.09,4.05-3.9-2.23-5.39-6.86-6.11-11.45C158.74,313.33,160.75,310.07,156.91,311.57Z"/><path class="cls-35" d="M156.8,362.52c-2.18-.67-4.36-1.35-5.93-3.16a23.8,23.8,0,0,1,4.09-7.88C157.49,354.84,156.84,358.73,156.8,362.52Z"/><path class="cls-36" d="M258.45,425.3q-.39,4.92-.79,9.84l-1.4,1.69q-1.9-4.53-3.8-9.05C253.73,425.21,255.55,424,258.45,425.3Z"/><path class="cls-37" d="M212.81,428.39c0-1.37,0-2.73,0-4.1,2.44-.69,3.83.26,4.24,2.73l-2.09,3.36Z"/><path class="cls-25" d="M63.06,283.77l2.12,0C70,288.86,72.55,295.4,76,301.4c6,10.54,12.14,20.85,21.9,28.48,1.44,1.12,3.29,2.5,2.3,4.95L85.93,347.61c-9.73-13.33-15.44-28.48-19.66-44.25C64.56,297,63.13,290.46,63.06,283.77Z"/><path class="cls-2" d="M334.44,286.68c14.72-4.81,30-6.9,45.27-8.54a97.88,97.88,0,0,1,35.5,2.64c1.05,1.56.1,2.84-.62,4.11a197.8,197.8,0,0,1-39.33,49.26,5.07,5.07,0,0,1-3.06,1.44,265.88,265.88,0,0,0-25.83-14,81.15,81.15,0,0,0-3.22-18.36,34.71,34.71,0,0,0-7-12.83C335.15,289.33,333.72,288.49,334.44,286.68Z"/><path class="cls-24" d="M334.44,286.68c9.2,8.68,12.15,19.92,13.25,32,.13,1.44.58,2.6-1.32,2.94A8.73,8.73,0,0,1,342,319.7c1.51-.22,2.62-1,2.26-2.61-1.65-7.51-2.22-15.32-6.56-22.06-1.84-2.85-3.37-5.71-7.63-4.52-1.16.33-2.08-.79-2.62-1.9A16.26,16.26,0,0,1,334.44,286.68Z"/><path class="cls-24" d="M312.22,311.67c3.36-2.27,7-1.57,10.63-1,2.26.38,4.52,1.13,4.5,4.16Z"/><path class="cls-2" d="M100.15,334.83c-2.79-5.28-8.29-7.91-12.09-12.33-6.59-7.66-11-16.53-15.91-25.1-2.54-4.42-5.78-8.55-7-13.68,7.46-2.36,15.2-2.81,22.9-2.81,19.54,0,38.81,3,58.12,5.59-6.23-.92-8.71,2.81-10.4,8-2.14,6.58-4.55,13.06-3.8,20.17A233.94,233.94,0,0,0,100.15,334.83Z"/><path class="cls-38" d="M325.37,215.07c-2.23,1.38-1.85,3.59-1.93,5.72-.15,4.09.7,8.26-.91,12.26-1.83,4.58-6,5.59-9.25,1.93-3.93-4.39-4.12-9.85-3.49-15.37.13-1.09,1.21-2.35,0-3.15-1.08-.7-2.19.34-3.14.93a77.18,77.18,0,0,1-15,7.43c-.05-13.08,9.89-28.25,21.87-33.07,8.08-3.25,15.55-2.16,22.11,3.82.77,2.71-1.29,3.89-2.94,5.1-2.53,1.85-4.64,4.16-7.13,6a3.63,3.63,0,0,0-1.42,4.71C324.28,212.7,325.13,213.78,325.37,215.07Z"/><path class="cls-39" d="M325.37,215.07c-2.18-.09-2.74-1.25-2.1-3.19,1.58-6,9.25-12.74,15.4-13.44a63.18,63.18,0,0,1,6.05-2c2-.47,4.07,0,5.09,2,1.11,2.25-.49,3.78-2,5a39.3,39.3,0,0,1-4.58,2.82Z"/><path class="cls-40" d="M338.67,198.44a43.39,43.39,0,0,0-15.4,13.43c-2.77-2.77-1-4.62,1.25-6.46,3.84-3.1,8.14-5.69,11.06-9.84C337,196.1,337.79,197.33,338.67,198.44Z"/><path class="cls-12" d="M203.86,246.93c-7.93-.38-15.46-2.14-22.26-6.42A41.18,41.18,0,0,0,186.38,223c4.42-3.43,4.43-3.44.22-7.09a4.64,4.64,0,0,1-1.46-1.93c-1.29-9-4.28-16.93-12.34-22.18-6.55-4.26-13.26-4.5-20.23-1.34-1.49.68-2.85,1.71-4.62,1.5-6.89,4.9-10.45,11.84-12.16,19.9-6.36-2.72-10.75-8.13-16.28-12-3.93-2.74-7.54-5.95-11.29-8.95,6-8.45,15-12,24.49-13.69,19.87-3.62,38.12-.15,53.89,13.45,11.29,9.74,16.46,22.48,19.23,36.59a27.84,27.84,0,0,0,.86,2.78C206.51,235.77,207.32,241.71,203.86,246.93Z"/><path class="cls-38" d="M148,191.91c11.92-10.11,29-5.29,35.8,10.2a26.79,26.79,0,0,1,2.57,12c-1.94,1.43-3.82.26-5.67-.22a45.84,45.84,0,0,0-9.77-1.53c-3.61-.13-4.24,1.32-2.87,4.31-2.21.48-2.09,2.2-2.12,3.9a32.76,32.76,0,0,1-.33,6.44c-.93,4.05-4.27,5-7.54,2.36-5.51-4.47-7-13.89-2.44-21.43,2.53-4.19,2.06-6.66-1.5-9.53C151.78,196.56,150,194.1,148,191.91Z"/><path class="cls-41" d="M168,216.67c-1.24-1.33-4.59-.83-4-3.49s3.41-2.1,5.46-2.3c5.91-.56,11.35,1.44,16.83,3.23.42.22.83.45,1.26.65,2.44,1.13,5.08,2.65,4.78,5.48-.36,3.32-3.88,1.93-6,2.71C181,218.82,174.49,217.73,168,216.67Z"/><path class="cls-42" d="M213.26,274.53c14.8,1.12,29.38-2.32,43.36,3.5C246.92,288.31,221,285.86,213.26,274.53Z"/><path class="cls-43" d="M217,427l-4.24-2.73c-.39-5.61-.86-11.22-1.13-16.85-.19-4.2-2.06-4.67-5.35-2.81-2.78,1.57-4.88,3.92-7.21,6-2.47-4.14-7.77-7.34-6.69-12.68a29.41,29.41,0,0,1,14.36-20.05c9.81-5.76,20.35-5.42,30.91-3,12.86,3,25.21,7.3,34.94,16.82,8.11,7.94,8.28,10.22,1.92,20-9.33-9.21-9.78-9.13-13.75,3.42-1,3.28-1.57,6.71-2.34,10.07l-6,2.49-1.77-1.55c-3.37.58-4.88,3.91-7.74,5.27-7.66,2.79-14.83.39-22-2.07a3,3,0,0,1-1.19-1.11C219.49,426.57,218.35,426.6,217,427Z"/><path class="cls-33" d="M243.48,430.32c1-1.34,1.8-2.75,2.86-4,1.34-1.61,2.86-2.31,4.35-.09.32,3.78.93,7.55.88,11.32-.06,3.58-1,6.37-5.77,7-8,1.12-15.86.39-23.77.56-3.35.08-4.77-2.58-4.59-5.37.25-3.87.32-7.89,2.33-11.44l.44-.07c2.93,3,5.24,6.23,10.42,6.3S240.14,434.67,243.48,430.32Z"/><path class="cls-44" d="M310.53,215c1.12-4.56,1.82-7.84,5.65-8.9,1.32-.36,2.73-.44,3.58.84,1.08,1.63-.35,2.29-1.45,3Z"/><path class="cls-44" d="M167.91,205.47c-.36.92.51,3.07-1.27,2.46-2.55-.88-5.5-2.05-6.27-5-.4-1.55,1.43-2,2.81-2C166.22,200.88,167.7,202.52,167.91,205.47Z"/><path class="cls-45" d="M223.89,376.55c11-.55,20,3.38,29,7a3.26,3.26,0,0,1,2.31,3.86c-.94,5.7-10.61,14.34-16.21,13.87a39,39,0,0,1-25.51-11.75c-4.06-4.17-3.47-7.32,1.62-10.29C218.09,377.49,221.16,375.87,223.89,376.55Z"/><path class="cls-46" d="M243.48,430.32c-.72,4.61-3.36,6.49-8,5.77a17.93,17.93,0,0,0-5.45-.3c-6,.95-8.89-2-9.84-7.53C227.91,429.65,235.47,432.47,243.48,430.32Z"/></g></g></svg>
