<svg xmlns="http://www.w3.org/2000/svg" viewBox="0 0 506.84 506.84" width="100" height="100"><defs><style>.cls-1{fill:#454545;}.cls-2{fill:#d4b47a;}.cls-3{fill:#907753;}.cls-4{fill:#5d4b34;}.cls-5{fill:#e9d29c;}.cls-6{fill:#786449;}.cls-7{fill:#917753;}.cls-8{fill:#f6e47d;}.cls-9{fill:#e8d19c;}.cls-10{fill:#f6e47e;}.cls-11{fill:#bc9d19;}.cls-12{fill:#f0a82a;}.cls-13{fill:#faf4d1;}.cls-14{fill:#fdd02e;}.cls-15{fill:#faf4d0;}.cls-16{fill:#bb9c19;}.cls-17{fill:#e6d158;}.cls-18{fill:#bb9d1a;}.cls-19{fill:#f9f3d0;}.cls-20{fill:#faf3d0;}.cls-21{fill:#f5e37d;}.cls-22{fill:#060502;}.cls-23{fill:#fdfcfa;}.cls-24{fill:#e7d09a;}.cls-25{fill:#f8f0cb;}.cls-26{fill:#e5d059;}.cls-27{fill:#f7dd65;}.cls-28{fill:#d4b67d;}.cls-29{fill:#e9d29d;}.cls-30{fill:#010000;}.cls-31{fill:#020101;}.cls-32{fill:#e8d19b;}.cls-33{fill:#e9d29b;}.cls-34{fill:#907652;}.cls-35{fill:#8f7652;}.cls-36{fill:#942616;}.cls-37{fill:#f1a82a;}.cls-38{fill:#63442e;}.cls-39{fill:#b9941b;}.cls-40{fill:#f8efc8;}.cls-41{fill:#f3e2bf;}.cls-42{fill:#d5b57a;}.cls-43{fill:#d6b67c;}.cls-44{fill:#d5b67b;}.cls-45{fill:#51150c;}.cls-46{fill:#52160d;}.cls-47{fill:#52160c;}.cls-48{fill:#bb9b1a;}.cls-49{fill:#f5e37c;}.cls-50{fill:#bc9d1a;}.cls-51{fill:#bc9c1a;}.cls-52{fill:#e6d159;}.cls-53{fill:#bb9c1a;}.cls-54{fill:#bb9c1b;}.cls-55{fill:#ba9a1a;}.cls-56{fill:#b99b21;}.cls-57{fill:#bb9a1a;}.cls-58{fill:#f4e7bc;}.cls-59{fill:#ecd875;}.cls-60{fill:#f3e1be;}.cls-61{fill:#f3e1bd;}.cls-62{fill:#53170d;}.cls-63{fill:#e9d460;}.cls-64{fill:#f6efc8;}.cls-65{fill:#fbf4d0;}.cls-66{fill:#e5d057;}.cls-67{fill:#53180d;}.cls-68{fill:#54190e;}.cls-69{fill:#e5cf56;}.cls-70{fill:#faf4d2;}.cls-71{fill:#e6d057;}.cls-72{fill:#f4e27b;}.cls-73{fill:#faf3cf;}.cls-74{fill:#e5d058;}.cls-75{fill:#e4ce58;}.cls-76{fill:#f3e5be;}.cls-77{fill:#faf2cb;}.cls-78{fill:#fed02e;}.cls-79{fill:#fee365;}.cls-80{fill:#e6d15b;}.cls-81{fill:#e2cc56;}.cls-82{fill:#e4ce57;}.cls-83{fill:#f8f1cd;}.cls-84{fill:#f2e080;}.cls-85{fill:#f1e8c2;}.cls-86{fill:#f4e27a;}.cls-87{fill:#f8f1cc;}.cls-88{fill:#444;}.cls-89{fill:#fefdfd;}.cls-90{fill:#fee366;}.cls-91{fill:#1b263e;}</style></defs><g id="Calque_2" data-name="Calque 2"><g id="Calque_8" data-name="Calque 8"><path class="cls-1" d="M506.84,0V506.84h-9.4a12.08,12.08,0,0,1-1.06-1c-13.57-13.84-28.08-26.73-39.49-42.67-10.13-14.15-18.92-28.91-24.32-45.42-6.6-20.16-7.78-40.79-5-61.88,2.58-19.53,5.17-39.08,7.64-58.63,1.19-9.44,2.19-19,4.94-28.15h0c.11-.38.23-.76.35-1.14.28-2.79.48-5.59.66-8.39.46-6.76.9-13.52,2.41-20.17,0-.41.05-.83.07-1.24.07-1.13.15-2.25.22-3.37v0c.24-3.36.47-6.7.43-10.06v0c0-1.29-.06-2.58-.16-3.87-.07-1-.18-1.9-.32-2.85a73.6,73.6,0,0,1,.43-8.14c0-.08,0-.16,0-.24,0-.65,0-1.3-.07-2h0a311.21,311.21,0,0,0-3.77-39.14,12.37,12.37,0,0,1,0-2.58h0c0-.29,0-.57,0-.86,0-.13-.08-.25-.11-.38-.64-2.27-.72-4.68-1.35-7a11.09,11.09,0,0,0-.38-1.2c0-.15-.07-.3-.11-.45-3.32-13.27-8.86-25.61-15.54-37.47l-.79-1.4a1.34,1.34,0,0,1-.11-.14c-1.24-1.47-2-3.31-3.1-4.84a7.62,7.62,0,0,0-1.12-1.22.76.76,0,0,0-.09-.09A138.05,138.05,0,0,0,394.51,82.7c-2.65-2.47-5.09-5.14-7.54-7.8a0,0,0,0,0,0,0c-.78-.85-1.55-1.69-2.34-2.53l0,0-.42-.42a12.51,12.51,0,0,0-1.64-1.45,4.13,4.13,0,0,0-.49-.32c-3.61-1.93-6.44-4.9-9.72-7.29h0l-.57-.41-.46-.31-.4-.26c-.16-.11-.33-.21-.5-.31-2.17-.85-3.31-2.91-4.95-4.38a6.81,6.81,0,0,0-1.38-1l0,0C358.56,50.68,353.22,45,346,41.79c-.4-.18-.8-.35-1.21-.51l-.91-.38c-7.31-2.88-14.75-2.66-22.21-.54-4.12,1.17-8.29,2.33-12,4.53-3.13,1.83-6.1,1.59-9.45.25a113,113,0,0,0-54-7.3,89.47,89.47,0,0,0-15.94,3.33c-2,.58-3.88.83-5.69-.43-.24-.15-.47-.31-.71-.48h0c-.35-.24-.69-.5-1-.76-3.1-2.34-5.89-5.15-9.8-6.38-7.25-2.27-14-1-20.57,1.39h0l-2,.75h0c-1,.38-1.89.79-2.84,1.2-5.49.61-9.07,4.45-13,7.67-1.54,1.25-2.9,2.73-4.48,3.93l-.33.32c-.33.32-.65.65-1,1-.47.51-.93,1-1.36,1.59-.27.34-.53.69-.77,1.06a14.36,14.36,0,0,0-.78,1.24c-3.74,4-6.36,8.77-10,12.84l-.09.07c-.28.21-.55.43-.82.65a14.6,14.6,0,0,1-3.54,2.51l0,0a18,18,0,0,0-3.27,2.55,0,0,0,0,0,0,0c-1.62,1.53-3.09,3.23-4.78,4.65h0c-.21.19-.41.35-.62.51a14.35,14.35,0,0,1-2.23,1.43c-3.73,2-7,4.32-8.17,8.46a10.7,10.7,0,0,0-.27,1.18c0,.2-.06.4-.09.61a5.36,5.36,0,0,1-2.39,2.69,19.88,19.88,0,0,0-2,.81,18.53,18.53,0,0,0-5.27,3.55h0a26.17,26.17,0,0,0-5.72,8.89s0,0,0,0c-1,2.32-1.78,4.74-2.61,7.17,0,0,0,0,0,0-.26.82-.54,1.65-.83,2.46a15.05,15.05,0,0,0-.21,2c-.08.23-.15.47-.21.71,0,0,0,0,0,0-.15.58-.27,1.18-.43,1.76h0a6.53,6.53,0,0,1-.69,1.69c-3.15,5.25-8.63,8.22-12.53,12.75l-.18.2A17.78,17.78,0,0,0,97,134.79c-4.48,3.71-7.08,9-10.27,13.69-11.41,16.75-19.68,34.9-23.06,55.09-.85,5.06-2.92,10-3,15.1-.06,5.29-1.07,11.07,3.62,15.34a8.89,8.89,0,0,0,1.54,1.42,6.64,6.64,0,0,0,2.36,1.14s0,0,0,0a6.89,6.89,0,0,0,1.15.23c2.47.27,4.88,1,6.56,3.06L76,240a4.54,4.54,0,0,1,.21.45,4.1,4.1,0,0,1,.22.78s0,.05,0,.07a3.45,3.45,0,0,0,.1.56,21.15,21.15,0,0,1,.88,3.57c.31,1.22.65,2.41,1,3.58h0a54.66,54.66,0,0,0,4.82,10.65,1.19,1.19,0,0,1,.09.15c4.31,7.26,10.16,13.48,16.8,19.13,1.38,1.17,3.81,4.34,5.9.24,0-.29-.1-.57-.16-.85a11.94,11.94,0,0,0-.71-2.14h0c-1.17-2.75-3.12-5.13-4.21-7.91-.86-2.2-2.23-4.2-2.7-6.58l0-.15a28.88,28.88,0,0,0-.77-3.08s0,0,0,0a96.15,96.15,0,0,0-3.45-9c-.86-2.11-1.77-4.26-.73-6.41a5.84,5.84,0,0,1,.65-1,5.5,5.5,0,0,1,5.71-.5l.3.16a3.64,3.64,0,0,1,.88.68,6.43,6.43,0,0,1,1,1.41c0,.12.08.25.13.37.42,1.26.88,2.5,1.36,3.73a.36.36,0,0,0,0,.09,85.34,85.34,0,0,0,4.55,9.74,6.88,6.88,0,0,0,.35.65q1.55,2.79,3.3,5.48l0,.07.43.65a14.72,14.72,0,0,0,3,3.74,4.67,4.67,0,0,0,3.16,1l.29,0,.26-.06a1.69,1.69,0,0,0,1.14-.78,2.62,2.62,0,0,0,.19-1.43v0c0-.22,0-.45-.07-.69a12.52,12.52,0,0,0-.47-2.12h0a14.57,14.57,0,0,1-.68-2.92h0a1.64,1.64,0,0,1,0-.22c0-1-.13-1.9-.23-2.85h0a46.05,46.05,0,0,0-1.83-8.6,5.18,5.18,0,0,1,.51-4.81l.17-.25.22-.18a3.44,3.44,0,0,1,2.94-.54l.38.17a5.39,5.39,0,0,1,.67.4,5.59,5.59,0,0,1,1.61,2c.23.44.42.9.61,1.37a12,12,0,0,0,1.66,3.29c1,3.64,3.33,6.85,3.79,10.68,0,.12,0,.23,0,.35,0,.54-.06,1.07-.11,1.6-1,13.79-4.52,27-9.57,39.79l0,.1c-.1.62-.23,1.22-.38,1.83h0a47.57,47.57,0,0,1-1.83,5.52c-.12.13-.23.27-.34.41a7.44,7.44,0,0,0-.84,1.48c-1.27,2.87-1.27,6.49-4.65,8.13a2,2,0,0,1-.54,0,.65.65,0,0,1-.2,0,3.36,3.36,0,0,1-1.9-1.34h0a8.2,8.2,0,0,0-.67-.65l-.2-.15a2,2,0,0,0-.92-.37.91.91,0,0,0-.22.11c-2.16,1-1.68,3.15-1.91,4.94-.52,4.09.69,8.12.55,12.21v.06c-.14.51-.29,1-.44,1.52a34.37,34.37,0,0,1-3.82,8.95c-1.22,1.91-2.48,3.8-5.08,3.73H96a5.86,5.86,0,0,1-2.54-2.7,17.84,17.84,0,0,1-1.16-4v0a15.06,15.06,0,0,0-.76-2.5,3.55,3.55,0,0,0-1-2.43,2.14,2.14,0,0,0-.56-.31,4.59,4.59,0,0,0-1.72.19h0c-1.86.63-2.52,2.56-3.09,4.36a35.87,35.87,0,0,0-1.66,8.86,32.44,32.44,0,0,0-.06,3.27v.06a38.79,38.79,0,0,0,.59,5.76l.12.72a0,0,0,0,0,0,0c.2,1.38.33,2.75.47,4.13a3.85,3.85,0,0,1-.24,1.47,7.41,7.41,0,0,1-.55,1.09,12.53,12.53,0,0,1-4.7,4c-10.26,6-11.92,16.07-6.86,25.44,12.41,23,36.36,37,64.47,26.16,21-8.05,39.9-19.58,57.6-33.21,11.14-8.59,22.61-16.38,37-18.39,3.22-.45,6.48-1.72,9.77-.17.26.22.49.44.72.67a6.59,6.59,0,0,1,.78,1c1.89,2.84,1.2,6.3.88,9.46C242.1,396,239.34,408.91,234,421.2c-6.23,14.37-13.25,28.31-22.49,41l-.17.24c-.17.28-.34.56-.52.84a205.45,205.45,0,0,1-23.4,30.29c-3.34,3.68-6.49,7.55-10,11.07-.75.75-1.51,1.5-2.31,2.18H0V0Z"/><path class="cls-2" d="M63,235.82c-5.62-4.17-5-10.63-4.39-16,3.88-32.46,15.18-61.89,37.31-86.56a15,15,0,0,1,1.9-1.56c2.13,1.83,1,4,.47,6a44.38,44.38,0,0,0-.49,23.12c3.51,14,8.66,15.28,20.25,12.19,15.81-4.22,30.29-11.85,41.58-24.36a27.58,27.58,0,0,0,3.65-5.32c6-10.85,14.55-18.52,26-23.66,12.86-5.77,25.79-11.42,38.4-17.78a84.64,84.64,0,0,0,27.64-22.41c7.94-9.7,16.57-18.55,26.75-25.89,1.95-1.4,4.92-2.76,4.4-5.48s-3.86-2.85-6.15-3.39C264,40.83,247.62,39.14,231.16,44,217.33,48.08,205.64,55.77,195,65.33c-11.58,10.45-23.14,20.93-35.17,30.86-6,5-13,8.65-20.12,11.86-5.29,2.38-10.86,4.12-16,6.82-1.75.91-3.66,1.73-5.68.53-1.27-3.05,1.28-4.17,3-5.44A92.84,92.84,0,0,1,133,102.73c2.51-1.32,4.4-3,4.51-6,.54-2.5.91-5.11,4-5.93,2.42.35,1.39,4.24,3.62,4.07,2.64-.2,4.81-2.14,7-3.71,4.64-3.4,5.44-6,3.46-10.6-1.11-2.59-2.5-4-5.11-1.42-1.26,1.27-2.45,2.85-4.65,2.2-1.85-3.34.47-5.85,1.81-8.49.87-1.71,2.6-2.9,3.26-4.79l4.11-2.78c3.73,3.69,6.08,8.29,7.9,13.07,1.27,3.35,2.84,3.31,4.94,1.25,4.47-4.38,9.22-8.3,13-13.58a40.12,40.12,0,0,1,17.16-13.2c7.17-3,7.38-4,2.07-9.9a41.74,41.74,0,0,1-3.38-3.66c-.54-1.3-2-2.64-.68-4s3.1-.35,4.5.48a28.39,28.39,0,0,1,7.09,6.09c2.49,3,5,3.06,8.2,1.19,2.81-1.66,5.59-3.55,9-3.82,1.58,1.36,3.21,1,5.09.53,25.16-6.71,49.9-6,73.95,4.69,2.12.94,3.43,0,5-.74,10.35-5.14,21.13-7.78,32.73-5.48a10.34,10.34,0,0,1,5,2c-1.55,3.63-1.14,7.46-1.15,11.24a19.7,19.7,0,0,1-1.29,8.29c-.63,1.4-1.54,2.83-3.24,2.6s-2.16-1.94-2.36-3.42a55.42,55.42,0,0,1-.2-8.45c.06-6.84-2.17-9.31-8.82-8.55s-13.4,2.4-19.21,6.13c-3.78,2.41-3.83,3.75-.6,6.95,4.3,4.26,8.06,8.82,9.7,14.78.56,2,1.83,2.63,3.75,2.07,1.28-.37,2.57-.69,3.83-1.09,7.24-2.31,14.24-3.06,20.58,2.5,1.33,1.18,3.24,1.58,5,2.16,3.51,1.16,5.82-.09,7.25-3.28a35.83,35.83,0,0,0,3.45-11.86c.16-2,.05-4,2.16-5.22l5.72,5.41a1.85,1.85,0,0,1,.6,1.21c.63,5.77-2.42,10.21-5.49,14.56-1.61,2.28-2.78,4.32.05,6.34s5.92,4.05,9.57,2.59c1.7-.69,1.25-2.88,1.4-4.51.22-2.41-.4-5.1,2.19-6.75,3.88,2.29,5.16,5.58,4.26,11-.59,3.56-3.87,6.54-8,7.15a17,17,0,0,1-13.11-3.65c-22.39-17.23-58.19-6.26-72.36,14.57-1.49,2.19-3.16,4.26-4.47,6.59a4.17,4.17,0,0,1-1.24,1.09c-6.88,2.36-13.88,3.59-21.15,2.42-2.22-2.12-.13-3.21,1.18-4.25,2.57-2,1.74-3.5-.52-5a25.74,25.74,0,0,0-5.32-2.61c-6.08-2.15-10.82.84-11.79,7.24-.28,1.85.6,2.39,2.13,2.52a29.62,29.62,0,0,0,6.9-.47c2.44-.36,5-.74,6.74,1.79-.82,3.87-4.36,3.71-7,4.43-17.13,4.64-33.43,11.34-48,21.39-21.81,15-39.05,33.93-47.68,59.6a39.82,39.82,0,0,1-1.69,3.82c5.39-9.4,12.75-17.36,19.33-25.89,8.72-11.31,19.7-20.14,31.64-27.84a14.81,14.81,0,0,1,1.26-.79c2.2-1.15,4.5-2.88,7-1.32,2.64,1.69,1.38,4.51,1.08,6.89-1.49,12-1.94,23.85,4.36,34.88a16.79,16.79,0,0,0,8.74,7.8c1.06.4,2.39,1,3.19-.16s-.18-2.25-.87-3.13a80.58,80.58,0,0,0-5.83-6.15c-12.38-12.68-11.26-29.44-3.63-43.31,1.84-3.34,5.22-5,8.7-6.34a67.69,67.69,0,0,1,10-3c6.45-1.41,8.24.44,6.18,6.64a82.09,82.09,0,0,0-3.89,24.46c-.23,10.88,5.29,18.47,12.69,25.32.36.33.83.54,1.23.84,6.67,4.86,6.51,6.61-1.1,10.38-9.67,4.79-19.32,9.62-25.39,13.52,13-6.53,30.16-11.36,47.89-14.56a238.89,238.89,0,0,1,27.61-3.59c6.39-.39,12.83-.77,19.25-.88,5.31-.08,10.62-.18,15.92-.25C364,194.76,384,196.91,402.4,207a33,33,0,0,1,6,4.5c-3.91-14.41-18.09-25.34-32.89-25.6-3.2-.05-7.44,1.35-9.13-2.15s2.33-5.4,4.16-7.8c8.51-11.22,12.42-24.07,13.59-37.9.08-1,0-2,.11-3,.6-4.54,3.14-5.93,6.86-3.26a43.86,43.86,0,0,1,12.6,13.91c7.26,12.87,13.85,26.18,16.62,40.82,4,20.91,5.88,41.9-3.53,62.07-5.65,12.11-13.57,22.81-22.18,33a146,146,0,0,1-11,12.18A221.52,221.52,0,0,1,277.64,350c-11.33,2.5-23.11,3.43-33.89,7.84-17.23,7.05-33.84,15.33-48.05,27.8-19.72,17.32-43.32,26.25-68.85,30.29A59.58,59.58,0,0,1,97.37,413c-5.09-1.81-9.73-4.4-12.48-9.36-1.35-2.42-1.91-5-.25-7.56,1.51-2.29,3.84-2.35,6.24-2,15.25,2.28,30-.64,44.73-4.13,1.9.05,3.4-1.42,5.29-1.4,9.6-2.65,19.72-3.28,28.09-10.08,7.83-6.37,17.17-10.73,25.35-16.7,7.51-5.47,14.69-11.38,22.56-16.36,2.93-1.86,4.61-5.23,7-7.65,16.19-16,32.44-31.93,52.25-43.63a72.12,72.12,0,0,1,15.16-6.23c19-6,38.11-11.69,56.55-19.29,15.28-6.31,28-15.83,35.93-30.82a11.51,11.51,0,0,1,6.25-5.39c3.53-1.43,4-3.44,2-6.67a18.12,18.12,0,0,0-9.44-7,71.68,71.68,0,0,0-20.93-4,245.32,245.32,0,0,0-44.18,1.34,378.87,378.87,0,0,0-50.69,9.77c-18.76,5-37,11.58-55.32,18.08-14.91,5.31-29.83,4.59-45.09,1.88-17.37-3.08-33.59-10.31-51-13.28a87.34,87.34,0,0,0-41.72,2.82C70.13,236.45,66.67,237.35,63,235.82Z"/><path class="cls-3" d="M500.09,506.84H474.53c-3.56-2.43-6.24-5.91-9.14-9C442.3,473,424.76,445,416.83,411.63a139,139,0,0,1-3.85-31c-.2-19.78.61-39.46,4-59,.43-2.47,1.46-4.76,1.68-6.74a47.1,47.1,0,0,1-4,10.26C392.79,370,378.3,417.36,367.87,466a233,233,0,0,0-4.5,37,11.39,11.39,0,0,1-.6,3.83H277.16c.12-2,1.82-3.43,3.06-4.94,13.73-16.66,27.71-33.12,40-50.91,5.35-7.76,10.81-15.46,16.09-23.29q3.86-5.7,7.53-11.53h0l.36-.57a25.52,25.52,0,0,0,2.62-5.35c12.53-18.57,23.85-37.9,35.47-57.05,14.12-23.28,22.78-48.58,30-74.55,1.45-5.24,2.75-10.53,4.31-15.31a92,92,0,0,1-9.12,16.2c-7.59,10.89-15,21.88-24.23,31.54-17.11,17.95-37.66,30.86-60,41.14a244.69,244.69,0,0,1-63,19.59c-4.74.78-9.52,1.39-14.32,1.72a10.37,10.37,0,0,1-3.27-.21,6.38,6.38,0,0,1-2-.85c-19.18,1-34.3,10.7-48.88,22.12A214.74,214.74,0,0,1,138.35,425c-29.36,11.68-55.08-2.37-68.1-27.17C64.52,387,66.93,376,78.48,369.76c1.73-.93,3.7-1.58,4.82-3.4a4.72,4.72,0,0,1,1.08.35c2.27,1.08,2.54,3.68,3.23,5.72,1.74,5.12,4.3,8.83,10.31,9.16,2.62.14,4.57,2,5.85,4.24a6,6,0,0,0,6.66,3.19,6.46,6.46,0,0,0,2.14,0,5.64,5.64,0,0,0,2.05-.73h0c1.85-1.06,3.19-3,4.78-4.53l.46-.43.13-.11c1.88-.9,3.77-1.63,5.8-.63l.27.15a1.51,1.51,0,0,1,.23.21.75.75,0,0,1,.16.15,3.49,3.49,0,0,1,.47.62c.44.7.71,1.51,1.11,2.24.66,3.87,4.25,2.94,6.59,4.05a.56.56,0,0,1,.17.09l.19.1a3.33,3.33,0,0,1,.39.36,2.85,2.85,0,0,1,.46.75c-15,4.71-30.28,7-46,4.7-3.92-.57-5.13.78-4.12,4.61,1.07,4,4.08,6.39,7.51,8.21a51.14,51.14,0,0,0,32.48,5c20.23-3.25,40-8.63,56.91-21.08,5-3.63,9.85-7.34,14.65-11.17,23-18.33,49.05-29.13,78.17-33.43,25.9-3.82,48.76-15.74,71.18-28.66,27.31-15.74,48-37.83,64.45-64.4,10.13-16.42,11.2-34.36,9.7-52.89-1.54-18.9-8.11-36.19-16.67-52.82a45.25,45.25,0,0,0-13.92-16c-1.05-.75-2.16-2.16-3.42-1.23-.64.47-.5,2.14-.52,3.26-.32,14.66-4.29,28.16-12.89,40.13-1.83,2.57-4,4.89-6.86,8.28l-.22.26.34,0c15.44-1.81,27.62,2.42,37.12,13.65a34.28,34.28,0,0,1,8.13,19.31c-3.27-2.66-6.1-5.32-9.26-7.48-9.43-6.47-20.34-9.19-31.36-10.54-42.59-5.22-84.42-1.57-125.23,12.1-7.64,2.56-14.93,6-22.44,9.05a81.46,81.46,0,0,1,18.64-13.7c6.84-3.59,13.83-6.92,21.24-10.61C238,180,241.12,157.81,248.9,134.16a75.7,75.7,0,0,0-19.1,5.68,7.32,7.32,0,0,0-3.58,3.36c-7.13,14.05-8.78,30.11,5,42.87a51.55,51.55,0,0,1,5.41,5.84c1.17,1.48,2.81,3.14,1,5.27-1.61,1.9-3.56,1.26-5.5.66a19.19,19.19,0,0,1-11.17-9.36c-6.45-11.32-6.09-23.52-4.65-35.85.21-1.8.72-3.56,1.08-5.35,0-.13-.1-.3-.16-.45C205,148,177,176,156.3,207.87c-.84-2.56-.27-4.65.32-6.79,6.14-22.29,19.62-39.69,36.59-54.7,18.58-16.43,40.61-26.13,64.35-32.4,1.72-.46,3.37-1.21,5-1.83l0,0h0c7.29-1,14.68-1.29,21.86-3a3.71,3.71,0,0,1,.62,1c.7,1.74-.33,3.34-1.11,4.94-10.53,21.77-8.35,42.5,6.75,61.07,14,17.19,40.87,26,65.08,7.57A50.07,50.07,0,0,0,371,165.14v0a54.57,54.57,0,0,0,3.47-9.51c.18-.68.34-1.37.46-2.06h0a12.36,12.36,0,0,0,0-4.81c.62-6.08,2.08-12,1.9-18.23C376.2,111,364,94.73,345.33,89.35c-7.05-2-14.29-1.74-21.45-.11a21.09,21.09,0,0,0-4.33-.18,28.85,28.85,0,0,0-11.36,3.3c-.69.34-1.38.71-2.06,1.08,0,0,0,0,0,0a54.64,54.64,0,0,0-16.33,12.89c-1.08,1.3-2.12,2.87-3.91,2.92a3.6,3.6,0,0,1-1.35-.21c9.79-17.69,24.34-28.52,44.7-30.95,12.86-1.53,24.78.62,35.12,9a11.19,11.19,0,0,0,2.18,1.19c5.95,2.87,10.85,2.65,13.85-.63s2.75-7.66-1-13.68l-.09-.06a17.4,17.4,0,0,1-7.54-10.14c-.17-.53-.33-1.08-.46-1.63-.07-.28-.14-.57-.2-.86v-.9l12.09,8.79c.37.91.7,1.83,1,2.75.16.45.31.92.43,1.37v0c.12.38.23.75.32,1.13h0a53.21,53.21,0,0,1,1.74,15.62,99.41,99.41,0,0,0,2.51,26.14A39.56,39.56,0,0,0,400,135c5.42,5.43,9.06,11.9,12.27,18.58a303.67,303.67,0,0,1,28,95.95c.41,3.37.77,6.73.89,10.09a58.32,58.32,0,0,1-.06,6.2,3.4,3.4,0,0,0,.84,2.77c-3.1,16.61-5.26,33.37-7.35,50.13-2.46,19.71-6.43,39.3-6.34,59.27.14,30.87,11.52,57.67,29.28,82.54C469.88,477.79,485.64,491.66,500.09,506.84Z"/><path class="cls-4" d="M240.62,372.46c20.28-2.45,40.34-6,59.55-13.18,20.41-7.62,39.78-17,57.85-29.56,27-18.86,45.16-44.37,59.64-73.16.67-1.33,1.33-2.67,2-4,.14-.26.45-.44,1-.91,1.1,2.47-.19,4.6-.72,6.59-5.05,19.25-10.77,38.3-16.93,57.23-4.82,14.82-13.06,27.94-20.64,41.35-10.54,18.63-21.54,37-34.05,54.41-5.41,7.53-10.63,15.24-16.81,22.15-10.17,11.38-23.14,18.48-37.28,24-20.39,7.93-41.53,9.68-63.06,8.65-4.61-.22-9.24-.65-13.86-1-2.68-.23-5.74-.2-7.61-2.88,9.18-14.78,17.87-29.79,24.09-46.12a127,127,0,0,0,7.81-37.71A9.88,9.88,0,0,0,240.62,372.46Z"/><path class="cls-5" d="M117.91,115.06c21.75-8.18,41.5-19.24,58.51-35.64C189.32,67,202.27,54.26,219,46.34c17-8.05,34.51-8.48,52.49-5.58,4.9.79,9.85,1.55,14.48,3.48s5.27,4.08,1.44,7.46C282,56.52,276,60.79,270.59,65.63c-8.43,7.53-14.53,17.22-22.83,24.93a74.08,74.08,0,0,1-15.7,11.27c-14.36,7.67-29.36,14-44.19,20.64-8.92,4-16.35,10.15-20.82,18.59-7.5,14.14-19.87,22-33.54,28.31-7.43,3.45-14.81,7.18-23.66,6.73-5.45-.29-8.79-2.51-11.1-6.82-5.6-10.39-4.93-21.32-2.3-32.34.42-1.76.94-3.5,1.41-5.25,3.42-4.57,8.43-7.44,12.28-11.54C112.59,118.23,113.2,113.52,117.91,115.06Z"/><path class="cls-6" d="M348.31,411.24c-1.05,3.75-3.61,6.7-5.64,9.87-16.14,25.12-33.37,49.45-52.79,72.2-3.78,4.42-7.88,8.64-11.11,13.53H172.59c13.31-14.12,26.16-28.64,37.1-44.75l1.83.13c10.77.79,21.5,1.87,32.33,2A136.63,136.63,0,0,0,309.74,448c12.11-6.38,21.09-16.38,29.67-26.77,1.41-1.71,2.89-3.37,4.39-5h0C345.31,414.52,346.83,412.89,348.31,411.24Z"/><path class="cls-7" d="M63,235.82c6.69-.53,12.6-3.91,19.14-5.14,19.52-3.66,38.27-.59,56.79,5.56,10.08,3.35,20.21,6.57,30.7,8.43,17.67,3.12,34.45.2,51.2-6.07,29.42-11,59.67-19.33,90.88-23.54,20.27-2.73,40.67-3.84,61.05-1.2,7.46,1,14.7,3.09,20,9,5.09,5.68,4,9.64-3.38,11.67a4.15,4.15,0,0,0-2.93,2.36c-9.48,20.25-27.19,30.33-47,37.41q-23.91,8.54-48.29,15.78C276.59,294.5,265,303.56,253.66,313,241.3,323.38,230.33,335.29,218.3,346s-25.41,19.7-39.08,28.27C168.49,381,158,388,145.06,389.72c-1.47.19-2.95.41-4.42.61-.26-4,2.59-7,3.67-10.57a5.62,5.62,0,0,1,5.22-1.56,6.26,6.26,0,0,1,2.62,1.61c3.67,2.79,7.21,2.74,10.64,0a25.4,25.4,0,0,0,7-10c4.86-4.36,10.53-7.41,16.37-10.19,3.06-.35,6-.95,8.59-2.86,3.73-1.79,4.41-5.5,5.61-8.89a10.59,10.59,0,0,1,6.12-6.21c3.2-.5,6.34,1.45,9.56.2,3-.93,2.26-3.53,2.38-5.64.1-1.6-1-3.06-.93-4.71.52-4.27,3.35-6.95,6.52-9.38a3.69,3.69,0,0,1,2.73-.12,4.33,4.33,0,0,0,4.17-.28c3-1.71.67-5,2.09-7.17,14.34-15.72,30.39-28.68,52-33,10.08-2,19.88-5.23,29.92-7.42,23.85-5.73,42.51-19.26,57.52-38.29,7.95-10.08,7.06-12.81-5.29-16-4.32-1.14-8.83-1.34-13.09-2.8a98,98,0,0,0-18.36-.67c-2.79.36-5.57.86-8.37,1.18-5.63-.43-11.23-.58-16.63,1.48-4.24,1.07-8.58,1.68-12.88,2.45a128.61,128.61,0,0,0-15.36,3c-13.55,3.7-26.63,8.87-40.17,12.6-2.14.59-3.82,1.91-5.79,2.72-1.14.54-2.18,1.38-3.52,1.44-5.66,3.15-12.35,3.51-18,6.72-1.25.41-2.31,1.34-3.7,1.34-5.18,2.26-10.8,2-16.24,2.79-1.93.27-3.9.22-5.73,1a29.72,29.72,0,0,1-12.7.09c-4.23-.44-7.48-3.18-11.18-4.87s-6.88-2-10.08.66c-1.38.86-2.13,2.5-3.71,3.12-5.68-.57-5.67-.56-5.81,5.26-.06,2.29.2,4.68-1.79,6.45a2.1,2.1,0,0,1-1.42,0c-2.65-3.88-2.21-8.49-3-12.82-1.31-7.59-10.87-11.91-17.11-7.7a3.06,3.06,0,0,1-1.68,1.34l-2.89,0c-2.42.21-3.79-1.69-5.59-2.75-3.35-2-6.77-3.56-10.47-.74a3.28,3.28,0,0,1-2.12,1.53l-5.78,0c-.43.27-1,.51-1.39.26-5.46-3.56-11.39-3.51-17.47-2.33C71.4,238.44,66.43,239.13,63,235.82Z"/><path class="cls-2" d="M442,268.56c-2.39,2.2-1.76-.27-1.85-1.26-1.14-12.7-2.43-25.4-5.05-37.89-6.17-29.5-15.07-58-29.8-84.57-2.57-4.63-6.6-7.85-9.82-11.82a45.51,45.51,0,0,1-10.1-28c-.36-11.42.44-22.9-2.82-34.08-.13-.47.43-1.15.67-1.74l2.05,1.93c3.44,6.31,4.22,13.14,4.07,20.18-.24,11.9,5.13,20.17,16.07,25,6.19,2.71,8,2.3,11.32-3.38.66-1.14,1.1-2.45,2.52-2.92l3.91,6.09a6.11,6.11,0,0,1-1,4.24c-4.34,5.47-3.48,11.49-1.53,17.41,2.06,6.26,4.55,12.39,6.79,18.6,2,5.44,5,6,9.07,1.8,1-1,1.69-2.57,3.56-2.17l1.94,8c-5.69,6.8-5.64,14.48-3.57,22.53,1.4,5.46,3.22,10.8,4.08,16.41a11.14,11.14,0,0,0,3.59,7l0,8c-2,7.28-3.74,14.57-.74,22Q443.58,254.21,442,268.56Z"/><path class="cls-5" d="M365.37,55a36.75,36.75,0,0,1-3.3,17.43c-2.42,5.46-5,6.72-10.62,4.88-1.42-.46-3.08-.8-4.09-1.75-7.25-6.82-15.19-4.82-23-1.77-4.64,1.8-6.29.82-7.23-4.21-1.16-6.28-5.82-10.83-10.64-14.63-3.69-2.91-2.38-5.43.19-7,8.48-5.15,17.74-8.47,27.83-7.49,4.65.45,5.54,4.8,5.8,8.72s.05,7.87.54,11.83c3.52-5.15,2.8-10.94,2.18-16.48-.37-3.35.8-4.18,3.55-4.39C354.51,42.92,359.84,49.07,365.37,55Z"/><path class="cls-5" d="M197.81,38.19a27.94,27.94,0,0,1,7.8,8.92c1.54,2.55,1,4.74-1.88,5.43-8.3,2-13.84,8.19-20.5,12.68a3.85,3.85,0,0,0-1.47,1.88c-3.13,7.89-10.5,11.63-16.52,16.67-1.05.88-3.08,1.79-3.26-.82-.34-4.94-3.16-8.66-5.67-12.54a8.34,8.34,0,0,1-1.41-5.16,54.51,54.51,0,0,1,9.68-13.19c3.3-2.13,6-1.16,8.35,1.49-1.47-2-5.16-2.58-4.16-6.35,4.95-5.36,10.34-10.09,17.6-12.08C191.09,32.76,194.56,35.09,197.81,38.19Z"/><path class="cls-5" d="M419.21,109.94c-.91,9.57-5.85,12.22-14.57,8.35C392.72,113,386.72,104.12,387.26,91a54.24,54.24,0,0,0-1.85-15.21c-.36-1.47-1.6-3.09-.18-4.7C398.42,82.42,410.16,95,419.21,109.94Z"/><path class="cls-5" d="M440,155.91c-2,3-2.62,7.34-7.8,7.1-3.2-.16-5.23-1.09-6.33-4.32-2.44-7.2-5.45-14.21-7.7-21.47-2.46-7.87-1.89-15.35,5-21.19A104.1,104.1,0,0,1,440,155.91Z"/><path class="cls-3" d="M118,303.68c3.85-12.42,7.39-24.91,9.37-37.79.23-1.46.37-2.93.55-4.4,2.93-.24,3.54,2.4,4.95,4,2.62,3,4.5,6.82,8.91,7.77a3.46,3.46,0,0,1,1.81,1.45c.77,7.62-1.23,14.61-4.9,21.21A4.81,4.81,0,0,1,136,297.2c-1.89.23-2.11,1.06-1.91,3,.26,2.42,2.79,3.81,2.34,6.35-1.1,2.38-1.6,5.17-4.32,6.47-5,.39-7.38-3.83-10.83-6.16A10.17,10.17,0,0,1,118,303.68Z"/><path class="cls-8" d="M111,391.23c-4.36.65-7.85-.15-9.22-5.07a3.8,3.8,0,0,0-4.2-2.79c-6.7.47-9.82-3.35-11.5-9.17-.77-2.66-1.84-5.23-2.77-7.84a1.73,1.73,0,0,1,0-.9c-.09-4.42.09-8.84.12-13.25,0-5,2.26-9.22,4.38-13.48a4,4,0,0,1,4-2.37,4,4,0,0,1,1,3.17c.78,11.59,1.69,23.15,7.71,34,1.84-3.47,2.15-7.08,4.29-9.87.79-1,1.69-1.85,3.13-1.54,2,2,1,4.32.6,6.55-.65,3.52-2.12,7-.72,10.7a105,105,0,0,1,4.78-19.5c.76-2,1.15-4.22,3.52-5.1a2.42,2.42,0,0,1,2.6,1.4c.65,4.13-1.91,7.48-2.79,11.25-1.37,5.8-2.14,11.56-.54,17.42C115.9,388.35,113.28,389.67,111,391.23Z"/><path class="cls-5" d="M197.81,38.19c-3.91-.66-7.05-4.2-11.44-3.07,4.79-2.09,9.51-4.31,14.79-5.08,9.61-1.39,17.44,1.61,23.56,9.12-3.36,4.43-8.66,5.61-13.32,7.82-1.65.78-2.58-.92-3.58-2A47.12,47.12,0,0,0,197,35.63C196.19,36.93,197.66,37.33,197.81,38.19Z"/><path class="cls-9" d="M446,209.77c-2.48.1-4.46-1-4.83-3.4-1.73-11.06-7.09-21.44-6.13-33a10.38,10.38,0,0,1,6.86-9.47C444.25,179.09,446.63,194.29,446,209.77Z"/><path class="cls-7" d="M107.94,362.16l-1.87,2.63c-6-1-11.22-9-10-15.33,4.2-3.81,5.89-9,8-14.06,2.93-.33,3,2.58,4.38,3.92,2.3,3.44,6.13,5.17,9,8,.79,3-.84,5.11-2.35,7.32C113,357.42,111.35,360.64,107.94,362.16Z"/><path class="cls-10" d="M76,245.61c-1-1.14-.79-2.49-.61-3.82,4.88-2.44,10.33-.59,14.85,5,2,8.09,6.76,14.92,10.39,22.26,1,2,2.62,3.9,1.73,6.44-3.19,2.23-5.33-.24-7.36-1.92-7.69-6.34-12.56-14.77-16.91-23.55C77.35,248.58,77.07,246.91,76,245.61Z"/><path class="cls-11" d="M96.1,349.46c2.44,5.68,4.79,11.42,10,15.32-1.52,4.52-3,9-4.93,14.59-7.34-12.88-11-25.64-8.25-39.84Z"/><path class="cls-12" d="M117.91,115.06l-7.77,5.09c.27-1.21.55-2.42.82-3.62a68.4,68.4,0,0,1,6.92-14.14c1-1.65,2.21-3.34,4.4-3.72,3.67-.75,7.2-2.11,10.92-2.62,2.07-.29,4.25-1,5.89,1.08.45,3.93-1.71,5.86-5,7.52C128.34,107.54,122.59,110.5,117.91,115.06Z"/><path class="cls-13" d="M76,245.61c4.8,6,7.82,13.18,12.94,18.95,3.83,4.31,7.3,9,13.06,11.06,3.46-.69,4.56,2,6,4.19,1.26,3.32-.23,4.31-3.31,3.85a11.16,11.16,0,0,1-5.3-2.63C87.88,271.7,79.52,260.24,76,245.61Z"/><path class="cls-14" d="M139.09,97.13c-5.81.55-11.3,3.09-17.24,2.91-1.19-5.85,3.7-7.36,7.08-9.93l2-2c3.66-3.22,7.16-6.74,12.6-6.56,2.7,4.06,2.37,5.84-1.69,9.25C140,92.54,140.44,95.22,139.09,97.13Z"/><path class="cls-10" d="M99.87,242.76l.33-3.16c8.29-.5,12.88,4.42,16.22,11.14.81,4.38,1.25,8.84,3,13a6.93,6.93,0,0,1,.28,5.33c-2.84,2.25-4.24-.42-5.54-2-4.21-4.94-7-10.79-9.65-16.65-1-2.07-1.51-4.4-3.58-5.79Z"/><path class="cls-15" d="M140.79,274.32c-3.65.68-5.27-2.23-7.07-4.34a92.6,92.6,0,0,1-5.79-8.49c-1.26-3.15-3.37-5.94-4-9.36-.23-2.3-2.45-5.38.44-6.66,3.29-1.46,4.72,2.12,6.25,4.32,3,4.33,3.42,10.06,7.42,13.87C139.72,267,144.07,269.7,140.79,274.32Z"/><path class="cls-16" d="M89,247.73a19.72,19.72,0,0,0-13.6-5.94c-.05-.38-.1-.75-.14-1.13,5.47-4.72,13.38-3.85,18.86,2.07q3,9.45,6,18.89c-2.82.8-3.71-1.44-4.85-3.16C92.91,255,91.44,251.08,89,247.73Z"/><path class="cls-7" d="M111,320.48l4.77-10.06c3.37,1.28,2.7,5,4.42,7.29,1.77,3.71,5.54,6.06,6.93,10.05a6.6,6.6,0,0,1-2.92,6.26C117.08,334.36,109.52,326.62,111,320.48Z"/><path class="cls-17" d="M89,247.73c4,2.34,5.54,6.67,8.14,10.13,1,1.28,1.32,3,2.94,3.76,2.85,6,6.42,11.64,8,18.19q-3-2.1-6-4.19C97.54,268,93.2,260.28,90.14,252,89.64,250.58,89.36,249.14,89,247.73Z"/><path class="cls-16" d="M111,320.48c1.77,6.81,6.83,10.36,12.85,13,2-.16,3.08.94,3.48,2.82.76,4.31-.92,7.54-4.41,10a3.6,3.6,0,0,1-3.67.73c-2.17-2.35-2.15-5.72-3.86-8.3-2.08-5.39-4.63-10.56-7-15.82a14,14,0,0,1-1.49-5.2,3.5,3.5,0,0,1,1-2C110.93,315.94,109.34,319.25,111,320.48Z"/><path class="cls-18" d="M114.93,250.68a26.51,26.51,0,0,0-14.74-11.08c7.94-3.3,12.22-2.07,17.86,5.12.09,5.75,2.22,11.17,2.78,16.85-2.65.43-2.87-1.84-3.48-3.38C116.4,255.75,116,253.11,114.93,250.68Z"/><path class="cls-19" d="M91.86,336.36c-5.6,7.15-7.11,15.6-7.7,24.32-.11,1.63.16,3.31-.81,4.78-1.9-8-2.42-16.06-.28-24.07C84.43,336.33,87.89,334.55,91.86,336.36Z"/><path class="cls-20" d="M100.92,244.71c2.06-1.43,2.72-.19,3.52,1.58a137.38,137.38,0,0,0,9.83,18.33,15.19,15.19,0,0,0,4.6,5.09c.66.47.59,1.08.35,1.73-3.09.47-5-1.56-6.66-3.54A55.32,55.32,0,0,1,100.92,244.71Z"/><path class="cls-21" d="M136.77,264.79c-3.46-4.05-5.29-9-7.77-13.63-1-1.81-1.86-5-3.8-4.62-2.49.5-.77,3.66-1.26,5.59-1.88-2.13-1.57-5.13-3-7.44.07-.62.13-1.24.2-1.86,5.59-2.62,12.38.95,15.23,8,.11,2.84,1.12,5.48,1.87,8.18C138.86,261.22,138.89,263.28,136.77,264.79Z"/><path class="cls-13" d="M107.86,315.63l.27,1.84a63.93,63.93,0,0,0,1.74,9.09,49.19,49.19,0,0,0,0,8.32c.26,2.19.38,4.76-2.72,5.5l-3.12-5a35.34,35.34,0,0,1-1.15-14.13C103.35,318.39,104.2,315.75,107.86,315.63Z"/><path class="cls-22" d="M128.93,90.11c-2,3.56-5.53,6-7.08,9.93-4.32,5-7.22,11-10.89,16.48,1-9,6-16.34,10.75-23.7C123.27,90.39,126.47,90.9,128.93,90.11Z"/><path class="cls-23" d="M143,82.2c-4.06,1.94-7,6.17-12.1,6-.82-5.09,2.86-9.4,9.85-11.54,1.62-.26,3.25-.56,4,1.48C145,79.82,144.82,81.35,143,82.2Z"/><path class="cls-24" d="M445.23,239.85a11.26,11.26,0,0,1-3.44-12.57c1-3.28,2-6.65,4.18-9.46C446.14,225.17,446.82,232.55,445.23,239.85Z"/><path class="cls-25" d="M118.72,318.63c-2-2.38-2.24-5.38-3-8.21a16.43,16.43,0,0,1,2.26-6.74c1.78-.51,3.4-.59,4.09,1.63a13.65,13.65,0,0,1,.73,2.27c-.38,1.89.12,3.78,0,5.68C122,315.42,122.91,319,118.72,318.63Z"/><path class="cls-26" d="M119.22,271.44c-.11-.58-.23-1.15-.34-1.73-1.29-6.35-3.46-12.52-3.95-19,2.87,3.15,2.9,7.82,5.9,10.89C121.38,265,124.27,268.89,119.22,271.44Z"/><path class="cls-27" d="M144.27,78.2c-.78-1.41-2.31-1.13-3.51-1.58,3.75-2.39,5.72-6.86,10-8.59,1.65,2-.19,3.28-1,4.72-1.54,2.7-3.19,5.32-4,8.36C143.26,81.19,144.91,79.1,144.27,78.2Z"/><path class="cls-28" d="M168.77,47.2c2.76,3.65,6.43,6.57,9.1,11.75-4.68-3.27-7.8-7.64-13.29-6.89A14.84,14.84,0,0,1,168.77,47.2Z"/><path class="cls-2" d="M476.86,506.84H454a26.06,26.06,0,0,1-3.65-5.67c-7.21-12.8-15.57-24.68-26.33-34.82-10.48-9.87-24-8.87-32,3.07-6.23,9.24-9.31,19.74-10.79,30.74-.3,2.25-.32,4.66-1.39,6.68H361.23c.45-27.76,6.78-54.49,14.07-81.09,10.69-39,24.53-76.8,42.79-112.92.72-1.41,1-3.18,3.25-4.49-1.3,8.14-2.7,15.71-3.7,23.33-5.45,41.52-4.38,82.12,16.71,120a233.74,233.74,0,0,0,36.55,48.9A69.27,69.27,0,0,1,476.86,506.84Z"/><path class="cls-5" d="M455.94,506.84H378.31a90.78,90.78,0,0,1,9.4-34.68c8.49-16.73,26.3-19.12,38.8-6.49C438.61,477.9,447.61,492.08,455.94,506.84Z"/><path class="cls-29" d="M293.84,92.86a31.77,31.77,0,0,1-.36-3.26c.2-7.62-3.15-12.9-10.12-16.07-4.33-2-4.94-4.34-2.32-8.13a42.86,42.86,0,0,1,5.34-6.5c5.21-5,10.12-5.23,16.07-1.38a41.79,41.79,0,0,1,8.4,7.68,10.21,10.21,0,0,1-.49,14.32C305.37,84.06,299.87,88,293.84,92.86Z"/><path class="cls-5" d="M273.92,77.14a22.53,22.53,0,0,1,13.82,8c4.63,6-2.22,21.65-9.74,22.79-1.35.2-2.81.25-3.76-.79A49.89,49.89,0,0,0,257.47,95c-1.55-.69-2-2.12-1.71-3.77C256.47,86.74,267.84,77.08,273.92,77.14Z"/><path class="cls-5" d="M296.55,311.77c15.71-7.45,31.37-15,47.13-22.33s27.35-21.08,42.79-29.25a47,47,0,0,1-13.06,19.5c-9.22,8.07-20,13.69-31.47,17.75-14.25,5-28.66,9.61-43,14.37a18.81,18.81,0,0,1-2.25.51Z"/><path class="cls-30" d="M117,196.86c.66-1.32,1.33-2.63,2-3.94,3.09-6.76,7.09-12.83,13.67-16.65,8.33-4.83,19.76,1.23,20.1,10.51.15,3.87-1.29,5.34-4.92,5-18.58-1.56-28,9.71-35.08,24.8v-3.77c-2.78-4.34-.72-8.23,1.27-12A25.42,25.42,0,0,1,117,196.86Z"/><path class="cls-31" d="M94.84,186l.12,9.83c1.55,6,1.51,11.65-3.73,16.08-1.4-.22-1.44-.22-1.5-.9-.54-5.6-.9-11.23-1.66-16.81a27.19,27.19,0,0,0-2.26-7.57c-1.66-3.63-4.35-5.87-8.73-4.67-.48,0-1.06.07-1.31-.44-1.84-3.76.72-10.94,4.58-12.92s9.23-.3,11.75,3.54C94.89,176.39,94,181.37,94.84,186Z"/><path class="cls-7" d="M91.23,211.91,95,195.83c4.88,5.6,16.23,5.45,22.06,1-1.29,5.36-4,10.36-4.24,16C105.59,212.64,98.3,215,91.23,211.91Z"/><path class="cls-5" d="M371.09,61.28c3.13,4,6.36,7.92,8.29,12.69-.06,3.16,0,6.31-.19,9.46-.2,3.56-2.32,5.09-5.71,4.43a25.29,25.29,0,0,1-6.59-2.19c-5.49-2.79-6.1-5.72-2.27-10.54C367.89,71,369.48,66.15,371.09,61.28Z"/><path class="cls-32" d="M141.39,231.11c-21.14-7.72-42.89-8.94-65-6.53,6.73-4.28,14.08-5.62,21.55-6.92,9.53-1.67,17.89,1.5,26.31,5,5.79,2.41,11.64,4.68,17.46,7Z"/><path class="cls-5" d="M262.65,112.13c-4.93.29-9.86.69-14.8.85-3.58.12-4.77-1.39-3.27-5,4.52-10.9,8.25-12.35,18.84-7,.74.38,1.48.74,2.21,1.14,1.83,1,3.31,2.55,3.42,4.6.14,2.42-2.18,3-3.9,3.94-.86.47-1.7,1-2.55,1.44Z"/><path class="cls-33" d="M144.27,78.2c.5,1,1,1.94,1.52,2.91,1.69-.67,2.17-2.43,3.24-3.66,3.45-3.92,5.69-3.62,8,1.15,3.06,6.34,2.19,9.83-3.52,14a31.64,31.64,0,0,1-3.74,2.45c-9.91,5.23-7.7,3.92-7.92-4.24-.21-3,3.29-5.42,1.19-8.65C143.44,80.87,143.85,79.53,144.27,78.2Z"/><path class="cls-5" d="M404.6,220.85c.26,1.53-.66,1.92-1.73,1.47a13.86,13.86,0,0,1-3.79-2.31c-7.28-6.53-16.07-9.53-25.48-11.19a37.92,37.92,0,0,1-4.33-1c-1.83-.54-4.61-.67-4.26-3.15s3.16-1.62,5-1.81c12.64-1.32,23,3.08,31.31,12.57A18.45,18.45,0,0,1,404.6,220.85Z"/><path class="cls-34" d="M147.86,191.82c4.28.3,3.85-2.86,3.54-5.33-1-8.29-11.8-12.69-18.94-8-5.64,3.74-9.38,9.2-13.45,14.38,1.23-9.19,12.37-21.26,21.18-22.94,6.24-1.19,10.3.81,12.61,6.78a18.57,18.57,0,0,1-.2,14.48C151.35,194.13,149.74,194.11,147.86,191.82Z"/><path class="cls-16" d="M144.92,380.35c.73,4.24-1.37,7.28-4.28,10l-4.8,1a9,9,0,0,1-.91-.08c-1.13-2.67,1-4.44,1.79-6.59,1.36-5,.39-10.16.66-15.23.23-4.42-.52-8.89.74-13.26a4.19,4.19,0,0,1,1.71-2,3,3,0,0,1,3.15,1.91C145.8,364,147.41,372,144.92,380.35Z"/><path class="cls-35" d="M94.84,186c-1.27-3.73-1.11-7.83-3-11.4-2.4-4.59-7.31-6.27-11.71-4-4,2.1-5.22,6.51-3.06,11.33-2.29,1.6-3,.34-3-1.77.05-6.13,2.27-11.35,7.32-14.95,2.86-2,5.83-1.68,8.55.88C95.91,171.73,95.24,178.88,94.84,186Z"/><path class="cls-36" d="M144.92,380.35c-1.79-7-.84-14.37-2.83-21.35-.44-1.57-.45-3.28-2.08-4.23-9.26,4.8-12.33,13-12.63,22.79-.07,2,.79,4.37-1.59,5.78l-5.76.89c-3-1.78-2.27-4.88-2.52-7.51-.48-5.06.25-10.11.89-15.13.07-1.57,0-3.15,0-4.72-.51-4.37,1.59-7.93,3.61-11.51,2-2.61,4.13-5.2,4.09-8.77,2-4.37,5.77-7.74,7.08-12.5a7.61,7.61,0,0,1,1.5-2.38c3.53-5.08,7.27-10,11.12-14.86a170.07,170.07,0,0,1,15.89-17.52c1.19-1.12,2.17-2.5,3.77-3.13,2.86-.26,3.86,2.12,5.31,3.82,2.11,2.47,3.52,5.66,7,6.74a3.39,3.39,0,0,0,3-.18c1.93-2.56.33-5.06-.14-7.55-.73-3.85-2.77-7.54-1.34-11.64a42.27,42.27,0,0,1,16-8.47,5.23,5.23,0,0,1,4,1.24,9.12,9.12,0,0,0,1.67,1.17c2.84.75,4.51-.21,4.73-3.24.15-2,.47-3.95,2.49-5,4.51-1,8.87-2.71,13.57-2.88a7.17,7.17,0,0,1,2.11.34c5.28,3.65,5.44,3.63,9.94-1.3a4.68,4.68,0,0,1,1.65-1.08c1.12-.73,2.31-1.62,3.63-1.4,7.85,1.3,15.76-1.39,23.58.41a6.11,6.11,0,0,1,3.12.87c1.36.75,1.91,3.06,3.77,2.61,2.17-.53,1.73-2.74,2.12-4.42s.37-4.13,3.34-3.52c1.53,3.09,4.27,4.15,7.44,4.91a82.59,82.59,0,0,1,28.72,12.7c2,1.4,4.33,2.59,4.39,5.54-9.59,2.55-19.07,5.78-28.81,7.48-15.52,2.7-28.08,10.55-39.76,20.38-4.57,3.84-8.95,7.9-13.41,11.87-2.2,2.3-4.52-.92-6.74.16-2.19,1.83-.3,4.88-2.07,6.82-.9,3.84-4.91,5.39-6.42,8.78-4.26,2.22-6.5-1-9-3.41-1.21-1.17-1.64-3.39-4.06-2.63-4.71,4.69-1.46,8.9.79,13.16.78,1.22,1.45,2.46.66,3.94l-5.29,5.85c-3,1.92-4.7-.41-6.06-2.27-3-4.15-5.72-8.54-6.52-13.77-.8-1.85,1-4.53-1.85-5.71-4.38.84-4.09,4.63-4.91,7.72-2.36,7.37.38,14.05,2.89,20.73.69,1.84,2.06,3.46,1.68,5.62-4.74,4-10.33,6.58-15.63,9.64-2.57-1.51-2.5-4.34-2.6-6.59-.29-6.28-.6-12.61.26-18.88.25-2.79,2.93-5.51.23-8.38a4.15,4.15,0,0,0-1.66-.84c-8.15,5.65-13.06,13.23-13.93,23.24-.31,5.13-1.21,10.19-1.45,15.32-.09,2-.1,4-2.19,5.2Z"/><path class="cls-37" d="M323.36,87.92c27.57-6.36,52.17,11.64,55,40A58.88,58.88,0,0,1,376.45,149c-1.33,11.64-7.18,20.75-16,28.1-15.08,12.6-31.9,16.48-50.55,9.2-16.58-6.47-28-24.15-28.58-42-.57-18.39,5.29-33.92,18.88-46.28C306.7,92.06,314.38,88.34,323.36,87.92Z"/><path class="cls-38" d="M323.36,87.92c-30.56,7.81-48.28,42.37-36.74,71.66s47.94,37.48,72.43,16.17A55.26,55.26,0,0,0,376.45,149c1.15,5.68-1.33,10.65-3.31,15.62-7,17.6-25.88,31-43.7,31.21-24.5.32-45.49-15.88-51.78-39.94-4-15.29-2.35-29.85,5.61-43.61a21.76,21.76,0,0,0,1.24-3.21h0c5.17-5.33,9.8-11.19,16.41-15a56.9,56.9,0,0,1,18.63-6.7A4.42,4.42,0,0,1,323.36,87.92Z"/><path class="cls-2" d="M293.15,187.21c-1.28.38-1.6.46-1.9.57-11.4,4.11-21.62-1.51-31.92-4.48s-14.06-11.62-11.46-23.3a55.89,55.89,0,0,1,13.3-25.28c3.13-3.51,6.87-3,10.53-2.5,3,.44,1.68,3.08,1.3,4.87-2,9.45-1.81,18.7,1.59,27.89C278.07,174.37,284.34,181.35,293.15,187.21Z"/><path class="cls-8" d="M137.94,386.35c-.1,2.19-2.07,3.23-3,4.91-3.39-.34-8.07,2.05-8.74-4.11.61-6,0-12.11,1.8-18a19.81,19.81,0,0,1,4.36-8.17c1.36-1.43,2.81-2.9,5-1.35,1.19,4.11-.27,8.2-.06,12.33C137.54,376.76,137.4,381.57,137.94,386.35Z"/><path class="cls-39" d="M119.69,360.44c-.14,7.93-1.24,15.88.34,23.79-.51,5.58-5.09,5.89-9,7,1.22-1.84,3-3.4,3-5.85.36-7.18.48-14.41,3.07-21.27C117.62,362.71,117.35,360.61,119.69,360.44Z"/><path class="cls-40" d="M136.87,359.33c-8.61,5.39-8.84,14.39-9.87,23-.2,1.61.2,3.32-.81,4.79-.13-1.27-.26-2.54-.4-3.81,0-7.6.09-15.21,4.13-22.06,2.26-3.83,5.17-6.75,10.09-6.51,0,.54-.07,1.07-.11,1.61C138.93,357.4,138.54,359,136.87,359.33Z"/><path class="cls-41" d="M159.06,109.28c-12.32,11.82-19.41,26-30.06,37.41-4.14,4.42-8.24,9-14.6,10.62-3.19.79-4.42-.4-4.41-3.37,0-6.69,3.12-12,7.37-16.9,8.69-9.93,19.88-16.45,31.19-22.77C151.52,112.62,154.13,110.16,159.06,109.28Z"/><path class="cls-42" d="M217.81,92.17c2.26.52,4.47,1.14,5.22,3.41.65,2-.78,3.45-2.11,4.68-2.82,2.61-6.48,3.15-10,3.38-1.86.12-3.16-1.66-3.86-3.41-.6-1.51,0-2.85,1.07-4.06C210.71,93.19,214.42,93,217.81,92.17Z"/><path class="cls-43" d="M227.18,82.51a5.49,5.49,0,0,1-5,3.31c-1.75.06-3.5-1.21-2.94-3,.71-2.26,3.11-2.63,5.29-2.59C226,80.23,227.14,80.73,227.18,82.51Z"/><path class="cls-44" d="M192.1,114c-1.38-.13-3-.37-2.8-2a4.39,4.39,0,0,1,4.43-3.76c1.66-.08,3,.86,2.66,2.66C196,113.13,194.22,113.94,192.1,114Z"/><path class="cls-45" d="M315.57,275.83c-11.4-8.53-23.84-14.84-38-17.09-4.39-.7-2.36-4-3.22-6.06-3.73-4.41-.4-8.63.34-12.93,1.53-2.41,1.63-5.32,2.66-7.91.75-1.85,1.32-3.75,3.49-4.44,2.75.45,3,3,4.16,4.87.89,1.45.92,3.52,3.05,4,1.81.88,2.83.47,3.63-1.54s.67-4.4,1.27-6.55c1.3-2.87.37-6.91,4.35-8.39a41.47,41.47,0,0,1,13.07-2.18c1.57.58,1.52,2.27,2.29,3.39.7,2.06,1.07,4.3,3.18,5.55,1.91,1.81,3.42,1.48,4.52-.86.7-1.45,1.08-3,1.72-4.52,1.32-2.37,2.72-4.65,5.61-5.39,2.42-1.36,5.07-.84,7.64-.94a5.31,5.31,0,0,1,1.29,1.65c.5,2.91,1.09,5.78,3,8.16,2.19,2.8,4.14,1.91,6-.39,1-1.29,1.61-2.86,2.6-4.18,2-2,3.53-4.74,7-4.39,7.57,1,15,2.34,22.12,5.39,3,1.28,3.56,3.16,2.63,5.89a16.33,16.33,0,0,1-1.66,3.6C363.23,253.74,342.83,269.55,315.57,275.83Z"/><path class="cls-45" d="M165.94,286.79c-.63,2.57-2.82,3.95-4.49,5.69-4.84,5-9.79,10-14.69,14.95l-.57-.37c-1.84-2.11-.86-5.89-4.24-7.09-1.91-1.05-3.61-2.27-3.95-4.66,1.47-7,3.84-13.75,4.56-20.89.46-3.6-2.8-7.6,1.19-10.81,0-3.25-.06-6.52.18-9.76.13-1.65-1.44-4,.6-4.82a6.24,6.24,0,0,1,6.3,1.52,7.31,7.31,0,0,1,.88,1.17c1.6.68,1.87,2.37,2.74,3.61a156.43,156.43,0,0,0,10.63,25.93C166,283,167.11,284.72,165.94,286.79Z"/><path class="cls-8" d="M168.89,333.75l.94.75c1.95,4.75-1,8.64-2.3,12.8-3,9.55-5,19.19-2.69,29.24-3,5.64-6.3,6.83-13.94,5.06l-1.15-2.34c.76-7.3-.07-14.74,2-21.91,2-5.63,4.87-10.75,9.53-14.62C164.36,340.16,165.51,336,168.89,333.75Z"/><path class="cls-16" d="M297.3,219.8c-1.89,2.66-1.39,6-2.64,8.89-1.85,0-2.64-2.19-4.5-2.15-1.61.3-3.36-.44-4.87.65a3.65,3.65,0,0,1-3.73.78c-3.12,3.3-2.54,8.15-4.95,11.75-2.48.35-3.47-2-5.28-2.88-.6-.28-1.22-.51-1.82-.76-6.52-2.67-7.45-2.37-11.63,3.73-2.76-.92-2.2,2.8-4.16,3-2.57.89-4.75-.25-6.93-1.32-1.95-.15-3.9-.74-5.86-.08-1.56.71-3.1,1.51-4.81.44-.92-1-1.39-2.12-.43-3.39,12.51-5.82,25.63-9.91,38.85-13.71C282,222.59,289.48,220.36,297.3,219.8Z"/><path class="cls-17" d="M180.1,277.69c1.1,4.45,2.39,8.86,3.22,13.35.52,2.81,2.06,6.32-2.51,7.6-4.44-2.22-5.86-6.55-7.39-10.74-2.59-7.1-3-14.6-3.63-22-.86-9.9-3.73-13.63-13.44-16.37a3.76,3.76,0,0,1-2.72-2c5.41-3.65,10.69-1.87,15.88.51,2.22,1,4.27,2.43,6.4,3.66.41.28,1.06.48,1.18.86C179.57,260.77,182.18,269,180.1,277.69Z"/><path class="cls-45" d="M180.1,277.69c-2.07-8.55-2.91-17.3-4.19-26l13.51,0a2.4,2.4,0,0,1,1.63,1.56c1.68,3.91,2.87,8,4.43,12,.6,1.52,1.4,3,.34,4.68A124.84,124.84,0,0,1,180.1,277.69Z"/><path class="cls-10" d="M153.63,247.55c12.17.35,17.2,5.9,18.32,18.31.78,8.59.51,17.53,4.66,25.56,1.28,2.47,2.79,4.81,4.2,7.22-1,.46-2.05,1.68-3.16.12-7.24-7.71-10.83-17.26-13.64-27.17-1-3.65-1.92-7.35-3.08-11-1.71-5.3-2.74-5.93-8.2-5.11l-1-3.79C152,250.17,151.29,248.15,153.63,247.55Z"/><path class="cls-46" d="M235.69,238.45l1.11,3.66c3.42,1.79,3,6.15,5.66,8.44.86.71,1.65,1.51,2.47,2.26,3.53,1.88,4.65-.51,5.46-3.18s.64-5.92,3.27-7.93a24.24,24.24,0,0,1,1.15-2.66c.35-.61.35-1.9,1.39-1.52.52.19.69,1.34,1,2,1.73.57,2.21,2.17,3,3.56,1,3.29,2,6.58,3.33,9.78.72,1.8,1.68,3.67.2,5.58-9.64.68-19.36-.68-29,1.08-4.27-1.93-3.43-5.86-3.66-9.37s-1.72-7.37,1.52-10.46Z"/><path class="cls-8" d="M186.72,360.55c-5.69-4.66-6.25-11.35-6.8-17.91-.26-3.05-.58-6.25.57-9.28,2.95,2.18-.14,4.86.63,6.65-.06,1.24,1,.22.44.5-.21.1-.37-.06-.27-.4,1-3.49-.89-8.29,4.37-9.93a3.63,3.63,0,0,1,2,3.28,27.88,27.88,0,0,0,9.13,21.15,3.77,3.77,0,0,1-1.31,3.77C193,360.81,190.21,362.16,186.72,360.55Z"/><path class="cls-11" d="M135,250.54a18.93,18.93,0,0,0-13.86-7.71c1.22-4.35,4.88-3.08,7.71-3.08,7.77,0,12.79,5.21,13.09,12.9.15,3.61.71,7.19,1.08,10.79-2.71.82-3.15-1.52-4-3C137.35,257.27,136.75,253.66,135,250.54Z"/><path class="cls-47" d="M222,261.54c-3.59.95-7.18,1.87-10.75,2.89-1.16.33-2.19.75-2.78-.76-1.83-1.56-1.86-3.58-1.53-5.71,1.57-3.41.2-8.16,4.64-10.28l2.78-.82c1.78.38,1.77,2.14,2.55,3.28C217.83,254.29,221.88,257.05,222,261.54Z"/><path class="cls-48" d="M150.9,381.6c4.9-.32,10.1.12,13-5.17A195.56,195.56,0,0,0,166,353.36c.1-3.66.08-8.06,4.59-10a73,73,0,0,0,.5,26.84c-2,8-8.65,13.44-15.78,13.15C153.6,383.27,152,383.16,150.9,381.6Z"/><path class="cls-49" d="M206.78,342.38l-1.92-2.91c-1-5.25-3.48-10.54.38-15.66,1.51-1.39,2.07.1,2.49,1,1.9,4.09,4.7,7.52,7.47,11,1.71,2.16,3.66,4.48,1.74,7.57C213.28,345.77,210,344.45,206.78,342.38Z"/><path class="cls-50" d="M216.94,343.4c-.24-1.46-.3-3-1.53-4.08-4.85-4.22-7.52-9.78-9.7-15.65-.4.18-.65.06-.73-.38,2.65-1.81,3.46.66,4.62,2.06,2.35,2.86,4.85,5.43,8.76,6C222.1,336.36,221.64,340.28,216.94,343.4Z"/><path class="cls-51" d="M195.43,358.38c.1-1.33.2-2.65.29-4-4-5-7-10.42-7.61-16.91-.22-2.37-.86-5.08,2.5-6,1.21,7.16,4.29,13.11,10.89,16.78C202.19,353.23,199.21,356.05,195.43,358.38Z"/><path class="cls-52" d="M135,250.54c4.42,3.21,5,8.84,8,12.9a6,6,0,0,0,.73.17c-.86,3.55,2.23,7.54-1.19,10.81l-1.77-.1c.9-4.12-3.18-6.14-4-9.53C137.38,259.89,134.74,255.4,135,250.54Z"/><path class="cls-53" d="M215.56,250.49c-1.06-1-.79-2.42-1.19-3.63,5.7-3.36,12-5.09,18.26-7.12l-.27,11c-1.43.74-2.61-.35-3.92-.53-2.33-.6-4.4-2.7-7.08-1.21a32.2,32.2,0,0,1-3.51,1A9.43,9.43,0,0,1,215.56,250.49Z"/><path class="cls-54" d="M211.59,247.68c-1.83,3.09-1.56,6.76-2.71,10-1.79.29-3-1.08-4.45-1.66a25.51,25.51,0,0,0-8.06-1.65c-2.19.31-4.41,1.39-6.52-.26-.14-.82-.28-1.63-.43-2.45Z"/><path class="cls-55" d="M311.16,221.35c-1-1.08-.58-2.47-.79-3.73,5.58-2.36,11.47-1.94,17.32-1.83-1.35,2-2.69,4-4,6-3.08-.42-6.1-1.55-9.28-.81A7.15,7.15,0,0,1,311.16,221.35Z"/><path class="cls-56" d="M335.5,216.92c-.05-.69-.11-1.38-.17-2.07,6.63.35,13.33-1.1,19.89.85l-5.78,5.15c-2.28,0-3.27-2.87-5.71-2.46-1.15,0-2.29-.15-3.44,0a6.21,6.21,0,0,1-2.9-.24A4.71,4.71,0,0,1,335.5,216.92Z"/><path class="cls-57" d="M225.46,313.73c3.26-1.86,5.26,1.92,8.13,1.83,1.59,3.11,1.5,5.85-1.75,7.89-2.55-.9-3.15-3.83-5.34-5.1A5.38,5.38,0,0,1,225.46,313.73Z"/><path class="cls-58" d="M225.46,313.73c.69,1.28,1.39,2.56,2.09,3.84,1.35,2.24,2.66,4.47-.75,6.12l-2-1.15C223.37,319.48,223.21,316.51,225.46,313.73Z"/><path class="cls-59" d="M226.8,323.69c1.49-1.89.63-4.06.75-6.12a9.34,9.34,0,0,1,4.29,5.88C230.2,324.36,228.54,325,226.8,323.69Z"/><path class="cls-60" d="M310.54,51.35c6.11-7.3,17.13-10.83,24.15-8.48,1.37.46,3.26.65,3.2,2.57-.08,2.22-2.1,1.77-3.46,1.72C326.59,46.92,319.11,49,310.54,51.35Z"/><path class="cls-61" d="M174.08,52.05c3.49-10.69,9-14.55,18.7-13.21C186.3,43.18,180.21,46.46,174.08,52.05Z"/><path class="cls-62" d="M146.76,307.43c-2.92,5.59-6.87,10.44-10.95,15.2-1.85-3.19-4.52-6.07-3.86-10.21,1.49-1.84.59-5.29,3.94-5.89l.66,0c3.17,2.69,6.86-.46,10.15.89Z"/><path class="cls-16" d="M132,312.42c2.5,2.94,5.23,5.8,3.86,10.21-.3.5-.61,1-.92,1.5-1.25,1.72-1.64,4.55-4.85,3.77a2.33,2.33,0,0,1-.89-1.16c.72-5.13-1.61-9.23-4.54-13.08-1.42-1.87-2.87-3.67-2.71-6.2.06-.71.13-1.43.2-2.14A27.17,27.17,0,0,0,132,312.42Z"/><path class="cls-63" d="M138,295.31c2,.56,3.31,2,4.68,3.43,2.35,5.63.86,8.33-4.66,8.47-2.73-3.43-5.79-6.78-3.2-11.67Z"/><path class="cls-64" d="M134.82,295.54c.42,3.85,1.85,7.42,3.06,11a1.36,1.36,0,0,1-1.71.19l-.28-.25c-1.58-2.23-3.46-4.32-3.87-7.17C131.73,297.23,131.85,295.32,134.82,295.54Z"/><path class="cls-65" d="M107.94,362.16c1.16-3.28,2.86-6.14,6.06-7.85,1-.62,1.69-.48,1.94.77-2,8.69-5.29,17.1-5.94,26.11-.1,1.42-.3,3.4-2.18,3.4s-1.7-2.09-2.13-3.44c-1.42-4.52,0-8.85,1-13.2Q107.3,365.05,107.94,362.16Z"/><path class="cls-66" d="M119.69,360.44q-2.85,12.46-5.68,24.94c-3-10.22.59-19.56,3.89-28.94.39-.33.7-.29.93.19Z"/><path class="cls-67" d="M118.83,356.63a3.28,3.28,0,0,0-.93-.19,2.35,2.35,0,0,0-2-1.36l-2-.77,3-6.77c.22-1,.78-1.49,1.85-1.18l3.21-1C123.06,349.71,120.43,353,118.83,356.63Z"/><path class="cls-21" d="M118.85,346.36,117,347.54c-5-.06-7.31-3.73-9.82-7.16,2-4.53.16-9.31.89-13.92,2-.34,2.5,1.22,3.07,2.49a60.59,60.59,0,0,0,5.81,9.49C118.61,340.83,121.14,343,118.85,346.36Z"/><path class="cls-49" d="M129.94,326.51c-.05.32-.09.63-.12.95-1.26,1.28-2.56,1.11-3.89.12-3-2.49-5.72-5.23-7.21-8.95,2.8-1.27,2-3.94,2.38-6.15C125.23,314.38,130.28,322.38,129.94,326.51Z"/><path class="cls-68" d="M125.93,327.58l3.9-.12c2.5.14,3.36-2.24,5.06-3.33-1,4.68-4.2,8.15-6.54,12.1-.51.86-1.39.7-2.2.35-.22-1.45-1.44-2.17-2.32-3.14Z"/><path class="cls-17" d="M117,338.44c-4.29-3-6.6-7.48-8.88-12l.06-9Z"/><path class="cls-17" d="M129.94,326.51c-.1-1.13.1-2.6-1-3.15-4.52-2.31-5.62-7-7.85-10.88-.09-1.73-.46-3.5.8-5,2.7,3.46,6.2,6.35,7.8,10.62C130.74,320.87,131.77,323.65,129.94,326.51Z"/><path class="cls-5" d="M398.22,452.17c-6.72,0-8.63-3-6.51-8.78,2.72-7.44,12.51-12.1,20.09-9.46,3.65,1.27,6.34,3.45,6.34,7.81s-2.87,6.81-6.38,7.86C407.07,451,402.11,451.47,398.22,452.17Z"/><path class="cls-5" d="M403.81,425.2c-3.38,0-5.51-1.13-5.51-4.25,0-3.55,2.19-5.4,5.64-5.67s5.07,1.82,5,4.81C408.87,423.4,406.47,424.9,403.81,425.2Z"/><path class="cls-69" d="M136.87,359.33l3-2.95c-2.05,7.5-.65,15.15-1,22.71-.13,2.44.57,5-.94,7.26-3.76-7-1.8-14.4-1.63-21.67C136.35,362.89,136.68,361.11,136.87,359.33Z"/><path class="cls-70" d="M152.73,255.51c2.56-4.17,4.44-4.44,7.43-1.13a13.83,13.83,0,0,1,3,6.68c2.85,13.33,8.28,25.66,14.49,37.7-5.52-2.42-8.15-7.65-11.71-12C160.36,276.86,155.28,266.72,152.73,255.51Z"/><path class="cls-71" d="M170.59,343.35c-2.53,3.55-2.73,7.62-2.82,11.78-.11,5.57.8,11.23-1.23,16.65-.62,1.68-.95,3.55-2.61,4.65-3.73-6.2-2.29-12.76-1.17-19.23,1.35-7.87,6.06-14.71,7.07-22.7C173.11,337.19,171.6,340.29,170.59,343.35Z"/><path class="cls-13" d="M263.72,258.49c-2.07-4.74-4.65-9.29-5.27-14.54-.73-1.75-.27-3.58-.38-5.37-.13-2.13.21-4,2.83-4.37s4.09,1.09,5,3.19a29.93,29.93,0,0,1,2.3,10c.2,3.91,2.46,7.59,1.17,11.61-1.16,1.6-2.59,1.46-4.13.65Z"/><path class="cls-17" d="M190.61,331.45c-1.53,6,.38,11.33,3,16.53,1,2,2.55,3.9,2.09,6.42-7.41-3.54-9-10.4-9.91-17.58a54.93,54.93,0,0,1-.08-6.42c-2-2.92.24-4.36,2.08-5.93C192.38,325.34,190.39,328.83,190.61,331.45Z"/><path class="cls-72" d="M220.58,247.57a8.56,8.56,0,0,1,9,1.24c2.86,3.1,2.65,7.11,2.52,10.77-.14,4-3.43,4.74-8.81,2.27l-1.27-.31c-2.66-3.39-5.24-6.82-6.45-11.05.27-.66.25-1.51,1.15-1.75,2.81,1.12,3.46,4.16,5.52,6.3C222.38,252.23,220.41,250.13,220.58,247.57Z"/><path class="cls-52" d="M265.21,259.7a3.58,3.58,0,0,0,3.39-1c1-4.72-.64-9.42-.08-14.12.39-3.31,0-7.06,4-8.8a11.44,11.44,0,0,1,4.11,4c-.85,4.3-2.49,8.47-2.26,13-.19,1.45-.49,2.9-.55,4.36-.1,2.56-.36,5.48-2.89,6.34C268.22,264.3,266.5,261.92,265.21,259.7Z"/><path class="cls-8" d="M196.66,252.77c3.23-.41,6.3-.16,8.92,2.08,2.67,5.37.08,10.6-.69,15.81-.33,2.21-2.82,3-5.24,2l-1.17-.9c.19-4.66-3.18-8.44-3.22-13.1C195.24,256.51,194.85,254.43,196.66,252.77Z"/><path class="cls-73" d="M168.89,333.75a10.63,10.63,0,0,1-3.13,7.06,96.24,96.24,0,0,0-14,16.54,40.46,40.46,0,0,1,10.24-21C163.77,334.31,165.85,332.61,168.89,333.75Z"/><path class="cls-20" d="M196.66,252.77c.57,4.9.8,9.86,3.24,14.35,1.06,2,1.41,3.82-1.42,4.65l-2.66-1.87a39.77,39.77,0,0,1-6-15.75C192,253.24,194.22,252.42,196.66,252.77Z"/><path class="cls-74" d="M199.65,272.67c2.87,0,4.14-1.44,4.06-4.28-.12-4.61,1.07-9.06,1.87-13.54,1.56.43,2.43,1.65,3.3,2.87-.13,2-.27,4-.4,5.94-.29,1.75-.5,3.51-.88,5.23C206.71,272.89,203.9,274.2,199.65,272.67Z"/><path class="cls-75" d="M223.28,261.85c6.72,1,7.39.39,7.38-6.77a21.72,21.72,0,0,0-1.09-6.27l2.79,1.9a26.82,26.82,0,0,0,2.41,8.87C233.07,266.09,228.9,266.92,223.28,261.85Z"/><path class="cls-76" d="M187.81,324.47c-.69,2-1.39,3.95-2.08,5.93-2.61,3.43-3.49,7.55-4.83,11.6q-.19-4.32-.41-8.64C181.5,326.45,183,324.65,187.81,324.47Z"/><path class="cls-77" d="M205,323.29a2.82,2.82,0,0,0,.73.38c-1.23,5.21-.19,10.55-.85,15.8-2.37-3.75-4.43-7.59-3.23-12.27A5.59,5.59,0,0,1,205,323.29Z"/><path class="cls-78" d="M326.24,164.92c-1.15,2.4-2.54,3.3-5.47,2.22-17.39-6.4-28.3-22.61-27.28-40.92.95-17.22,14.07-32.83,31.66-36.38,8-1.63,16.5-2.31,24.18,2.31-2,2.38-4.57,1.33-7,.95-8.89-1.42-20.3,5.53-23.69,14.49-3.66,9.67-.13,20.55,8.44,25.74a31,31,0,0,1,6.06,4.31,3.94,3.94,0,0,1,.59,1.51c.67,8.38-2.15,16-5,23.69A3.34,3.34,0,0,1,326.24,164.92Z"/><path class="cls-79" d="M332.19,137.9c-13.09-4.38-19.7-16.05-16.3-28.75,3.17-11.83,16.31-20,28.56-17.8,1.62.29,3.25.53,4.88.8l5.91,2.95c2,1.12,3.44,3,5.28,4.35,1.46,1.08,2.08,2.51,1,4.25a14.5,14.5,0,0,1-11.47,3c-2.29-1-3.22-3.21-4.57-5-2.23-3-4.58-6-8.92-4.36-3.22,1.19-4.54,4.86-3.59,9.84,1.58,8.31,1.7,16.7,1.49,25.11C334.36,134.39,334.53,136.66,332.19,137.9Z"/><path class="cls-78" d="M361.27,103.11c-.62-3.72-4.44-5-6-8,10.33,5,15.65,13.82,18.39,24.51,4.19,16.38-3,34.07-16.79,42.85-1.92,1.23-3.84,3.36-6.67,2.24-1.84-1.84-1.12-4-.59-6a107.38,107.38,0,0,0,2.85-14,47.4,47.4,0,0,0,1.67-10.31c5.19-5.69,9.27-11.91,9.62-19.94C364.69,110.27,361.94,106.91,361.27,103.11Z"/><path d="M354.5,144.73c-.42,6.88-2.72,13.35-4.33,20-1.82,3.28-2.88,6.94-5.27,9.93-3.61,4.51-8.19,6.37-12.45,4.91s-6.5-5.63-6.28-11.67c0-1,.05-2,.07-3,2.71-8.53,5.19-17.12,6.26-26,1.53-1.92,3.69-2,5.88-2a38.33,38.33,0,0,0,11.29-1.47c4-1.19,5.07-.25,5.11,3.91C354.8,141.11,355.08,143,354.5,144.73Z"/><path class="cls-80" d="M313.31,219.59c3.77-.78,7.78-2.72,10.34,2.19-.44,1.56-.77,3.17-1.36,4.68-2,5-4,5.4-8,1.41C313.32,225.18,312.61,222.47,313.31,219.59Z"/><path class="cls-81" d="M344.26,216.86c2.93-.23,4.49,1.31,5.18,4-3.15,8.31-6.16,9.64-11.13,4.9C341.6,223.66,341.47,219.28,344.26,216.86Z"/><path class="cls-82" d="M290.41,224.87c2.46.12,4.06,1.19,4.25,3.82-.34,2.23-.51,4.51-1.07,6.69-.95,3.67-3.15,4.63-6.43,2.43a3.76,3.76,0,0,1,.13-3C290,232,287,227.44,290.41,224.87Z"/><path class="cls-83" d="M288.51,235.73l-1.35,2.09c-3.78-2.2-4.88-5.92-5.6-9.85l2.92-2.28c2.67-.93,3.36.88,3.95,2.84C289.15,230.93,288.56,233.33,288.51,235.73Z"/><path class="cls-84" d="M344.26,216.86c-.84,3.72-.35,8.35-5.95,8.89a11.56,11.56,0,0,1-2.81-8.83l2,.05c1,1.57,1.89,1.46,2.7-.15Z"/><path class="cls-85" d="M313.31,219.59c2.28,2.54,1.07,5.47.94,8.28-2.08-1.67-2.41-4.17-3.09-6.52A2,2,0,0,1,313.31,219.59Z"/><path class="cls-54" d="M136.17,306.78l1.71-.19c6,.05,3.27-5.19,4.8-7.85,5.19,1.1,4.36,5,4,8.65C143,310,139.46,310.69,136.17,306.78Z"/><path class="cls-21" d="M272.5,235.74a34.91,34.91,0,0,0-2,13c.12,3.45-.19,6.84-1.93,9.94-1.38-6.44-2.7-12.9-4.17-19.33-.47-2-.93-4.71-3.82-4.24-2.62.42-2.05,3-2.13,4.9-.06,1.31,0,2.64,0,4-1.12-1.26-.8-2.92-1.22-4.38.43-2.25-.43-5,3-6C264.72,232.28,268.89,232.17,272.5,235.74Z"/><path class="cls-17" d="M253.66,241.7c-.46,2.9-.85,5.81-1.38,8.69-1.19,6.39-3.31,7.2-8.83,3.42.46-2.39,1-4.8.48-7.23-.64-2.92.48-5.06,2.64-6.85Z"/><path class="cls-86" d="M246.57,239.73c-.5,3.27-1.24,6.52-1,9.87a4.17,4.17,0,0,1-2.11,4.21,3.37,3.37,0,0,1-2-2c0-2.17-.94-4.07-1.61-6.06a5.91,5.91,0,0,1,.76-6C242.59,238.23,244.58,239.3,246.57,239.73Z"/><path class="cls-87" d="M240.6,239.75c-.23,4.05,3.75,7.81.85,12.05a17.67,17.67,0,0,1-4.65-9.69Z"/><path class="cls-21" d="M288.51,235.73c-2.12-3-.39-7.61-4-10,1.82-1.4,3.91-.9,5.93-.82C290.48,228.61,291,232.43,288.51,235.73Z"/><path class="cls-65" d="M220.58,247.57c4.35,2,3.22,6.67,4.79,10,.12.27-.56,1.18-1.05,1.43-1,.55-1.93-.16-2.53-.91-2.28-2.8-4.29-5.76-5.08-9.38A7.09,7.09,0,0,1,220.58,247.57Z"/><path class="cls-65" d="M340.22,216.82c.13.47.21,1,.38,1.41.53,1.44.81,2.88-.43,4.07a2,2,0,0,1-1.68.5c-1.68-.83-1.08-2.5-1.15-3.89a12.84,12.84,0,0,1,.18-1.94Z"/><path class="cls-88" d="M354.5,144.73c-.8-2.67,1.44-6.35-.89-7.94-2-1.35-4.71,1.56-7.3,2-4.6.74-9.21.19-13.81.11l-.31-1c.53-10.24.59-20.46-1.4-30.59a15.65,15.65,0,0,1-.21-5.41c.54-3.24,2.1-5.92,5.48-7,3.16-1,5.87,0,8.21,2.07a24.9,24.9,0,0,1,6,9c.16,1.86-1.17,2.89-2.18,4.17-2.38,3-1.88,4.69,1.69,6.28,1.76.78,3.84.93,5.22,2.53,1.56,5,4.15,10,.3,15.09C355,137.58,356,141.25,354.5,144.73Z"/><path class="cls-89" d="M353.62,118.79c-1.48-.09-3-.13-4.43-.28a5.28,5.28,0,0,1-5-4.07c-.72-2.63.46-4.47,2.44-6,1.18-.9,2.43-1.7,3.65-2.55a41.1,41.1,0,0,1,11-2.82c3.87,2.73,5.86,6.15,4.05,11C362.06,119.46,359.65,120.43,353.62,118.79Z"/><path class="cls-90" d="M353.62,118.79c4.13-1,8.34-1.78,11.7-4.7,0,8.32-2.34,15.46-10,19.91C354.64,128.94,355.06,123.76,353.62,118.79Z"/><path class="cls-91" d="M345.2,161a25.49,25.49,0,0,1-3.52,11.7,5.72,5.72,0,0,1-7.23,2.82c-3-1-4.4-3.34-4.07-6.59a25.14,25.14,0,0,1,5-12.27c1.49-2.07,3.88-3.47,6.5-2.28S345.66,158,345.2,161Z"/></g></g></svg>
