<svg xmlns="http://www.w3.org/2000/svg" viewBox="0 0 506.1 506.09" width="100" height="100"><defs><style>.cls-1{fill:#11a8fe;}.cls-2{fill:none;}.cls-3{fill:#005dd7;}.cls-4{fill:#87b8dd;}.cls-5{fill:#fefefe;}.cls-6{fill:#a0d5f1;}.cls-7{fill:#fcfdfe;}.cls-8{fill:#fdfdfe;}.cls-9{fill:#fdfefe;}.cls-10{fill:#fafdfe;}.cls-11{fill:#fbfdfe;}.cls-12{fill:#f7fcfe;}.cls-13{fill:#d1edfd;}.cls-14{fill:#fbfcfe;}.cls-15{fill:#f8fafd;}.cls-16{fill:#3982e1;}.cls-17{fill:#c0d9ec;}.cls-18{fill:#4d88b4;}.cls-19{fill:#004189;}.cls-20{fill:#d4ecf9;}.cls-21{fill:#346e97;}.cls-22{fill:#254c6b;}.cls-23{fill:#264c6b;}.cls-24{fill:#37709a;}.cls-25{fill:#37719b;}.cls-26{fill:#254c6c;}.cls-27{fill:#254b6a;}.cls-28{fill:#010203;}.cls-29{fill:#356e97;}.cls-30{fill:#356d96;}.cls-31{fill:#9ab1c3;}.cls-32{fill:#c2e8f8;}.cls-33{fill:#fdfdfd;}.cls-34{fill:#f15fad;}.cls-35{fill:#97aec1;}.cls-36{fill:#e7f2fa;}.cls-37{fill:#de1e80;}.cls-38{fill:#c6d1c3;}.cls-39{fill:#c6d2c3;}.cls-40{fill:#e4e7e4;}.cls-41{fill:#e6e9e6;}.cls-42{fill:#e7eae7;}.cls-43{fill:#de2081;}.cls-44{fill:#e7ebe7;}.cls-45{fill:#fc9bcd;}.cls-46{fill:#e6eae6;}.cls-47{fill:#c6d1c4;}.cls-48{fill:#c5d0c2;}.cls-49{fill:#c7d1c4;}.cls-50{fill:#c7d2c3;}.cls-51{fill:#fdfcfc;}.cls-52{fill:#de2181;}.cls-53{fill:#e5e8e5;}.cls-54{fill:#df2382;}.cls-55{fill:#df2483;}.cls-56{fill:#de2583;}.cls-57{fill:#e7eae6;}.cls-58{fill:#de2382;}.cls-59{fill:#e6e8e5;}.cls-60{fill:#de2784;}.cls-61{fill:#e02483;}.cls-62{fill:#df2383;}.cls-63{fill:#d72882;}.cls-64{fill:#dc2482;}.cls-65{fill:#fe9acd;}.cls-66{fill:#e12685;}.cls-67{fill:#e02584;}.cls-68{fill:#280c45;}.cls-69{fill:#19092b;}.cls-70{fill:#f74fa6;}.cls-71{fill:#fa4fa6;}.cls-72{fill:#e5e9e5;}.cls-73{fill:#fcfcfc;}.cls-74{fill:#e0e4e1;}.cls-75{fill:#e3e6e2;}.cls-76{fill:#e4e6e3;}.cls-77{fill:#e3e6e3;}.cls-78{fill:#fcfcfd;}.cls-79{fill:#e5e6e4;}.cls-80{fill:#fbfbfb;}</style></defs><g id="Calque_2" data-name="Calque 2"><g id="Calque_8" data-name="Calque 8"><path class="cls-1" d="M0,0V332.83a5.48,5.48,0,0,0,1.37-1.2c3.33-4,7.69-7.25,9.67-12.3.07-.16.13-.33.19-.5,0,0,0,0,0-.05-1.75-7.49-5.51-14.3-7.28-21.77,3.53,6.08,5.71,13.1,12.23,17.08l.13,0,.21-.06c1.71-.53,2.77-2,4-3.15,4-4,8.1-7.86,11.94-12,2.65-2.84,4.08-2.35,5.72,1,9.36,19,22.41,35,38.12,49.21a335.75,335.75,0,0,0,54.89,40.19c1.78,1,3.58,2.59,6,1.5a1.59,1.59,0,0,0,.06-.3c0-.09,0-.17,0-.25h0c.28-2.29-1.77-3.32-3-4.69-5.75-6.14-12.21-11.61-17.45-18.24l-.08-.09-.46-.5a40.26,40.26,0,0,1-5.66-7.08,44.52,44.52,0,0,0,5.7,7.05l.47.48.71.73c7.42,8.47,16.57,14.68,26.36,20,22.61,12.38,47.34,16.73,72.59,18.83,5.67.48,11.56,1.1,17.23-.77,0-.19,0-.37,0-.53v-.07c0-2.86-2.78-2.16-4.3-2.47-28.58-5.9-56.08-14.84-81.94-28.54-17.89-9.48-33.6-21.91-47.91-36.06a242.46,242.46,0,0,1-23.42-27.64h0l-1.13-1.53-1-1.29a16.15,16.15,0,0,0-4-2.88c-10.06-5.45-18.55-12.84-26.26-21.2C31.09,270.12,26,253.83,27,235.65c.33-5.8.86-11.6.7-17.4a103.66,103.66,0,0,1,4-31c6.6-23.48,20.09-41.29,42.65-51.64,5.54-2.55,11.5-3.93,17.09-6.28l.14-.06a3.61,3.61,0,0,0,.15-3.71c-1.53-1.51-3.14-.45-4.66-.08a162.29,162.29,0,0,0-19.91,6.35c-13.77,5.26-26.85,11.7-37.85,21.24a135.22,135.22,0,0,1,33.81-25.42c9.3-5,19.35-7.79,29.31-10.94a5.61,5.61,0,0,0,1.78-2.33c5.89-12.75,14.55-22.32,29-25.16a3,3,0,0,0,1.21-.72l0,0a21.4,21.4,0,0,0,1.91-3.36,6.54,6.54,0,0,1,.4-.52h0c5-6.67,12-10.77,19.43-14.07,26-11.52,53.54-17,81.65-18.43a420.3,420.3,0,0,1,58.73.57C310.07,54.7,333,59,355,67.61c9.66,3.8,19.27,8,26.08,16.45l.13.16c.95,1.36,1.36,3.08,2.64,4.23.11.1.24.2.37.3,15.18,3.38,24.8,13,30.22,27.18a2.76,2.76,0,0,0,1.64,1.73,39.07,39.07,0,0,1,5.88,1c22.63,6.09,41.23,18.5,57.4,34.71-.91-.81-1.86-1.58-2.85-2.32-16.41-12.36-35-20.13-54.65-25.42-1.75-.47-3.61-.93-5,.9a2.89,2.89,0,0,0,.19,2.68,1.42,1.42,0,0,0,.14.23,9.59,9.59,0,0,0,3.66,1.48c34,10.19,52.43,33.76,58.15,68.08,2.69,16.08,1.44,32.34,1.83,48.53a21.1,21.1,0,0,1-.48,3.44c-2.58,17.77-12.58,31-25.59,42.55-6.38,5.64-14,9.51-21,14.23l-1.08,1.54h0c-.34.49-.69,1-1,1.45A214.47,214.47,0,0,1,394.43,351a233.8,233.8,0,0,1-43.5,28.56c-5.74,2.93-12.09,4.52-17.55,8l.08.11.07.09c3.28,4.43,14.26,7.32,20.13,4.95,15.68-6.33,29.28-15.57,40.21-28.4a186.36,186.36,0,0,1-20.8,22c-1.32,1.15-3.15,2-2.71,4.3v0c4.47,1.13,7.54-2,10.8-3.9a311.85,311.85,0,0,0,48.91-35.9c14.91-13.33,28.22-28.15,37.49-46.14,4.45-8.64,4.17-8.39,11.47-2.1,4.21,3.65,7.57,8.49,13.05,10.55l.25.1.13.05c5.91-3.74,8.33-9.81,10.83-14.89-.61,3.75-2.25,8.24-3.84,12.74-1,2.76-3.25,5.09-2.88,8.32v0l.14.22c2.13,3.43,5.11,6.15,7.64,9.25.58.71,1.1,1.59,1.75,2.31V0ZM26.05,156c-.81.79-1.62,1.6-2.41,2.43A13.18,13.18,0,0,1,26.05,156ZM3.53,296.51a.18.18,0,0,1,.19.06.21.21,0,0,0-.19,0l-.06,0C3.11,296.84,3.31,296.54,3.53,296.51Z"/><path class="cls-2" d="M506.1,506.09H0V0H506.1Z"/><path class="cls-3" d="M506.1,329.3v61.62c-.63.22-1.29.4-1.93.61A133.82,133.82,0,0,1,472,397.67c-3.91.31-5.43,1.92-6,5.64a337.52,337.52,0,0,1-7.86,38.52c-.65,2.3-1.17,4.64-3,6.28a5.37,5.37,0,0,1-.69.55l-.11.07a50.5,50.5,0,0,0-8.14,6.19c-3.7,3.36-3.07,5.86,1.64,7.22a6.4,6.4,0,0,1,2.59,1l.13.13a3.51,3.51,0,0,1,.29.36c1,2.17.17,4.21-.49,6.24-3.93,12-8.66,23.82-13.22,35.64l-.23.6H71.21c-.26-.55-.48-1.13-.7-1.69a459.71,459.71,0,0,1-26-86.67c-.44-2.26-1-4.62,1-6.56a2.49,2.49,0,0,1,.33-.16h0a3,3,0,0,1,.47-.17c1.54-.41,3,.38,4.45.78,2.94.79,5.84.73,7.5-2.16s.16-5.53-2-7.57c-3.28-3.11-7.27-5.23-11.2-7.37-1.9-1-3.88-.54-5.62.75a13,13,0,0,1-2.9,2,1.76,1.76,0,0,1-.3.1,3.21,3.21,0,0,1-.63.14,126.39,126.39,0,0,1-32.81-6.26,18.53,18.53,0,0,1-2.82-1V331.32A95.44,95.44,0,0,0,10.56,318.6a6.36,6.36,0,0,1,.66.18c2.69.93,3.46,3.7,4.87,5.75,8,11.74,17.45,22.11,29.38,30,6.61,4.35,13.8,7.28,22,6.83,3.12-.18,6.18-.65,8.6-3.42-1.88-1.78-4.12-1.89-6.08-2.52-8.88-2.84-16.86-6.79-21.78-15.34-1.38-2.4-3.63-4.34-5.07-6.75s-3-3.16-5.71-2.58a11,11,0,0,1-11.14-3.84c-2.18-2.5-4.78-4.61-6.94-7.13-1.4-1.64-3.22-3.17-3-5.67a1.71,1.71,0,0,1,0-.31c5.93-6,11.88-12.06,17.78-18.12,2.83-2.91,3.24.2,3.93,1.67a149.64,149.64,0,0,0,17.62,28.21c10.83,14,23.91,25.68,37.74,36.57a304.69,304.69,0,0,0,37.29,25.5c2.06,1.17,4,2.71,6.48,2.85h.3c2.47-.42,4,1.26,5.69,2.57,22,17.17,46.62,28.13,74.55,30.72a544.7,544.7,0,0,0,56.7,2.33c2.64,0,5.34-.4,7.87.76a1.51,1.51,0,0,1,.58.57s0,0,0,0a1.57,1.57,0,0,1,.22.65.06.06,0,0,0,0,0,.42.42,0,0,0,0,.1c-2.43,6.28-1.15,8.26,5.92,8.78a66.14,66.14,0,0,0,29.55-4.88,10.64,10.64,0,0,0,2.19-1.15c1.83-1.26,3.53-2.74,3-5.21s-2.73-2.55-4.68-2.89c-.81-.14-1.65-.14-2.46-.3a4.82,4.82,0,0,1-1.36-.53,2,2,0,0,1-.41-.35,1.74,1.74,0,0,1-.4-.75.75.75,0,0,1-.05-.16l.06-.12c1.12-2.13,3.37-2.41,5.31-3,16.59-5.26,31.42-13.73,45.09-24.38,1.59-1.23,3-3.19,5.51-2.65h0c8.42-2.87,15.57-8,22.8-13,14.09-9.61,27.7-19.84,40.17-31.54,15.86-14.9,29.15-31.67,38.1-52.11l20.79,18.88a2.29,2.29,0,0,1,.07.36,4.37,4.37,0,0,1-1.8,4c-3.48,3.1-6.92,6.8-11.53,7.58-5.28.9-7.59,4-10.06,8.21-7.22,12.37-19.25,18.31-32.23,22.73-1.39.47-3,.43-4.44,1.84,2.11,2.72,5.12,3.37,8.19,3.61,7.6.6,14.41-1.78,20.74-5.8,13-8.25,23-19.43,31.61-32.05,1-1.52,1.6-3.55,3.76-3.93l.32,0C500.66,322.08,503.25,325.81,506.1,329.3Z"/><path class="cls-1" d="M506.1,389.55V506.09H435.9c4-11.07,8.09-22.13,12-33.25,1.07-3.06,2.61-6.07,2.44-9.48a2.17,2.17,0,0,1,.07-.24c.46-1.46,1.86-2,3-2.75,6.64-4.72,6.95-7.52.94-11.64q-.42-.3-.9-.6c4.44-4.2,4.29-10.24,5.57-15.48,2.65-10.86,4.37-22,6.14-33,.44-2.75,1.61-3,3.86-3.16A146.86,146.86,0,0,0,506.1,389.55Z"/><path class="cls-4" d="M382.63,84.2c.55,1.34,1.09,2.68,1.63,4-5.93,2.91-6.16,9.42-9,14.3a74.22,74.22,0,0,1-8.85,14.37c-3.42,4.32-4,8.46-1.29,13.24.89,1.56,1.36,3.37,2.25,5,7.5,12.68,16.82,23.54,31.25,28.38,9.8,3.29,17.69-2.73,18.43-13.14.25-3.41-.87-7,1.1-10.2,1.42-.49,2.24.5,2.78,1.44,3.51,6.06,7.8,11.73,9.57,18.68.19,2-.09,4,.29,6,2.17,10.86-.58,20.33-8.26,28.87,3.23,1.71,5.16.39,6.62-2.07,2.1-3.52,2.55-7.44,2.86-11.46.38-4.77-1.19-9.51,0-14.27,3.07-.65,3,2.21,4.12,3.7,3,8.16,6.54,16.16,8.28,24.75a34.28,34.28,0,0,1-1.64,9.21c-1.82,6.33-5.13,11.43-11.84,13.52a3.8,3.8,0,0,0-2.13,1.15,1.32,1.32,0,0,0-.14.45c4.09,3.17,7.84,2.72,11.41-1.4,2.48-2.87,3.18-6.44,3.84-10,.31-1.69-.23-3.74,1.8-4.82,3.49,2.92,2.67,7.32,3.82,11-.16,3.18.79,6.23,1.06,9.35-.55,9.24-3.19,17.16-13.35,20.24,1.71,3.94,5.33,3.59,8.33,4.44a3.6,3.6,0,0,1,.08,3.8c-3.18,6.2-6.41,12.37-10.87,17.78a3.76,3.76,0,0,1-2.94,1.65c-1.75-.84-2-2.6-2.33-4.17-2.75-12.7-7-24.92-11.46-37.08a5.3,5.3,0,0,1-.35-1.2c2.32,7.11,5.14,14.53,7.19,22.18,2.27,8.51,4.74,17,3.43,26-.83,1.8-1.66,3.6-4.21,3a9.54,9.54,0,0,1-1.83-5.09c-3.17-22.31-11.41-42.92-20.54-63.33a217.67,217.67,0,0,0-18.88-34.44c-11.83-17.27-28.33-20.66-46.78-14.81-22,7-44.34,12.11-67.66,13.61-32.94,2.12-64.45-3.47-95.51-13.4-8.56-2.74-17.09-3.74-26-1.79-9.66,2.1-16.17,8.29-21.29,16.11-20.35,31.08-34.73,64.56-40.13,101.58a5.54,5.54,0,0,1-.8,2.33c-4,.92-4-2.6-5.38-4.68-1.06-8,1.56-15.43,3.44-22.94a176.8,176.8,0,0,1,7.42-23.29A254.62,254.62,0,0,0,78.44,269a4.45,4.45,0,0,1-1.74,2.92c-1.57.63-2.57-.34-3.34-1.39a116.32,116.32,0,0,1-10.22-16.33,4.46,4.46,0,0,1-.25-4.27,3.77,3.77,0,0,1,1.63-1c2.18-.75,5.12-1.28,5.47-3.65s-2.91-2-4.38-3.11c-5.54-4.28-7.46-10.22-8.1-16.83.22-3.88.89-7.69,1.43-11.53,1.15-3.69.21-8.12,3.83-10.94,2.37,1.11,1.68,3.35,1.76,5.19a19,19,0,0,0,2.56,9.44c3.07,5,8.33,6,13.23,2.09-12.66-3-15.4-12.78-16.64-23.56,1.68-8.77,5.48-16.86,8.06-25.35.86-1.54,1.51-3.45,3.94-2.29,1.46,2.84.85,5.8.45,8.74a28.71,28.71,0,0,0,2.48,15.46c1.28,3,3.51,4.08,7.21,2.63-10.76-10.47-9.74-23.11-7.85-35.93,1.61-6,5.06-11,8.24-16.14.67-1.08,1.44-2.27,3.05-2.08,1.57,1.62,1.2,3.7,1.2,5.64a25.35,25.35,0,0,0,1.69,9.21c2.74,7.08,9.15,10.15,16.38,8a37.53,37.53,0,0,0,16.77-10.11c5.33-5.61,11.5-10.5,14.92-17.71.76-1.47,1.43-3,2.22-4.44,3.16-5.75,2.73-10.81-1.73-15.94-3.57-4.12-6-9.17-8.4-14.07A23.43,23.43,0,0,1,130,96.16c-.76-3.62-3-6-5.93-7.92.08-1.07,0-2.2,1-2.93,5-2.59,10.36-1.39,15.54-.91,7.3.66,14.2,3,21,5.65,11.28,4.3,22.18,9.6,33.85,12.89,13.35,3.48,26.75,6.68,40.65,6.92,9.11.91,18.22-.28,27.32,0,16.59.85,32.58-2.56,48.45-6.8,12.76-3.64,24.78-9.25,37.12-14A72,72,0,0,1,382.63,84.2Z"/><path class="cls-5" d="M435.21,171.07l-2.81-4c-1.52-1-2.09-2.26-1.31-4,1.63-1.13,3.25-.43,4.75.19,18,7.58,31.88,19.57,40,37.63a11.43,11.43,0,0,1,1.16,3.79c-.86-26.42-20.62-53.4-47.68-64.69-3.06-1.28-6.18-2.44-9.24-3.74-2.07-.88-3.9-2-3.88-4.62a3.32,3.32,0,0,1,1.23-2.8c34,8.27,53.94,30.19,61.64,63.77,2.49,10.84,3.78,21.88,2.35,33.09-.28,2.23.49,4.59.72,6.89,2.56,25.67-7.58,45.84-26.81,62.13-6.49,5.49-13.76,9.74-21.06,14-5,4.78-11.77,6-17.95,8.23-7.5,2.7-15.35,4.29-23.16,5.83a16.2,16.2,0,0,0-9.07,4.67,188.68,188.68,0,0,1-38.27,30.89c-26,15.75-53.58,26.15-84.59,25.7-16.62-.25-33.22.16-49.48-4.06-25.84-6.7-48.63-19.3-69.49-35.72A110.5,110.5,0,0,1,128.11,331a26.47,26.47,0,0,0-16.58-9c-9.7-1.48-19-4.62-28.23-8-3.56-1.31-7.18-2.64-9.91-5.49C62,302.19,51.55,294.68,42.81,284.88c-13.66-15.29-19.09-33-16.74-53.28a58,58,0,0,0,.25-8.44c-.79-25.7,4.53-49.56,21.62-69.6,11.27-13.21,25.93-20.94,42.79-24.66,2.06.94,1.59,2.68,1.39,4.34-1.22,2.87-4.1,3.15-6.53,4A82.07,82.07,0,0,0,45.2,166.63C37.51,177,32.05,188.49,31.49,201.77c0,1.29,0,2.68-.68,3.67,3.81-14.09,13.33-24.25,24.69-32.87,4.86-3.68,10.06-7.07,16-8.94,1.73-.54,3.74-2,5.36.36a3.53,3.53,0,0,1-1.59,4.07l-3.06,2.76a4.73,4.73,0,0,1-1.94,2.78C57.53,182.77,51.47,196,48.41,210.73c-2.83,13.68-3.42,27.49.06,41.21,4.78,16.41,14.06,29.75,26.73,41.16,11.34,10.2,24.33,17.15,38.65,22.27-.49-1.73-1.87-3.09-1.73-4.94.58-4.3,2.67-2.85,4.8-1.27,11.66,12.2,24.54,22.79,39.41,31a24.18,24.18,0,0,0,13.77,3.17,10.3,10.3,0,0,1,9.18,3.85,29.36,29.36,0,0,0,12.39,8.1,184.28,184.28,0,0,0,47.57,10.2A176.9,176.9,0,0,0,308.11,358c31.5-9.77,60.54-24,83.3-48.76,1.07-1.09,2-2.44,3.89-1.87,2.49,3.46.09,5.78-1.86,8.42,31.2-11.7,55.37-30.58,66.08-63.53,5.25-27.7,3-53.61-17.68-75.21C439.78,174.92,437.09,173.45,435.21,171.07Z"/><path class="cls-3" d="M73.39,308.43A193.06,193.06,0,0,0,119,322.07c2.55.42,4,2.16,5.59,3.83,24.84,25.76,54.17,44,89,53,15.46,4,31.24,3.51,47,3.65,41.84.37,76.72-16.83,108.2-42.66a38.1,38.1,0,0,0,5.93-5.3c7.26-9.08,16.45-14,28.09-15.57,11-1.51,21.23-6.25,31.53-10.38a123.48,123.48,0,0,1-16.75,22.1c-19.19,20.8-41.09,38.14-66.9,50.15-5.54,2.57-11,5.42-17,6.84-2.29.6-3.82-.79-5.25-2.15-1.76-1.68-3.51-1.85-5.25-.21-10.15,9.54-23.36,12.2-36.06,15.8-15.55,4.4-31.42,6.82-47.67,5.68-1.94-.14-4,.29-5.56-1.47-14.64-3.84-29.49-6.82-43.9-11.62-26.11-8.72-50.73-20.24-72.28-37.54C100.59,342.51,85.52,326.8,73.39,308.43Z"/><path class="cls-6" d="M382.63,84.2A2.84,2.84,0,0,1,380,85.3c-16.65-1.42-31.3,5.23-46.15,11.27-7,2.84-13.89,6-21.31,7.65-10.06.76-20.1-.71-30.16-.43-7.29.2-14.61-.6-21.86-.63-17.55-.06-35.13.35-52.67,1.37-4.33.24-8.52-.94-12.79-.33-9.81-2.42-18.95-6.72-28.18-10.64-13.42-5.71-27.11-9.28-41.78-8.25,1.34-4.48,5.05-6.87,8.58-9.25,16-10.8,34.34-15.4,52.81-19.71,31.23-7.28,63-7.18,94.63-5.55,27.87,1.43,55.27,6.68,81,18.33a70,70,0,0,1,15.75,9.47C379.79,80.16,381.91,81.61,382.63,84.2Z"/><path class="cls-5" d="M233.85,405.39c27.31,2.09,53.19-3.93,78.36-13.9,4.23-1.67,7.35-5,10.75-7.88,2.4-2,4.11-3,6,.55a8.22,8.22,0,0,0,4.64,3.58c8,4.62,16.12,6,24.9,1.64a116.17,116.17,0,0,0,34.23-25.17,44.37,44.37,0,0,1,5.37-5.15c-7.21,12.29-17.7,21.73-27.74,31.55-16.64,13.59-35,24-55.7,30-.33.37-.62.88-1.07,1-10.1,3-20.16,6.29-30.92,5.8-13.45-.24-26.9-.75-40.34-.68-39.26.19-74.61-10.7-104.9-36.3-7.19-7.52-15.42-14.05-21.44-22.67-.24-1.06.18-1.46,1.23-1.25,24.79,24.78,56.12,34.11,89.76,38A165.84,165.84,0,0,0,233.85,405.39Z"/><path d="M417.46,128.8l-.54,4.9c0,1.35.83,2.65.32,4.06a33.48,33.48,0,0,1-7,13c-4.72,5.36-10.6,6.7-17.12,5.28-9.23-2-16.84-6.72-21.9-15,1.34-2.61,3.07-1,4.51-.25,3.11,1.54,6.13,3.26,9.61,3.82,10,1.6,16.76-3.67,17.67-13.8a35.19,35.19,0,0,0-2.05-15.08c.7-9.4-2.45-14.5-9.68-16.72-4.52-1.39-7.48,1.4-10.94,3.06-1.95.38-3.89,1.14-5.86.13a81,81,0,0,0,3-8.31c.93-3.68,2.85-5.77,6.78-5.67C401.35,90.53,410.2,102,416,116.83c2.68,2.68,3.3,5.7,1.5,9.12C417.47,126.9,417.46,127.85,417.46,128.8Z"/><path d="M91.06,134.18l-.33-5.28c0-1.07-.06-2.13-.08-3.2-1.54-3.53-1.16-6.77,1.5-9.65A53.21,53.21,0,0,1,105,96.79a31.65,31.65,0,0,1,19.11-8.55c3.49.16,5.64,1.6,6.36,5.37.51,2.69,2,5.19,3,7.78-1.65,1.46-3.56,1.25-5.49.87-5.53-4.45-11.1-4.55-16.7-.12-4.08,3.22-5.44,7.36-4.16,12.38-1.12,5.8-3.22,11.31-1.81,17.59,2.68,11.87,10,14.69,20.79,11.8,3.09-.82,5.61-2.81,8.3-4.46,1.2-.74,2.55-2.66,4.14-.39-5.35,9.56-13.86,14.93-24.23,17.1-8.05,1.69-14.57-1.34-19-8.53a31.13,31.13,0,0,1-4.6-11.94A2.77,2.77,0,0,1,91.06,134.18Z"/><path class="cls-5" d="M496.89,319.43c-9.39,14.64-20.31,27.84-35.26,37.2-6.32,4-13.13,6.31-20.69,5.88a32.46,32.46,0,0,1-4.89-.75c-2.72-.57-5.8-1.85-5.94-4.51-.12-2.49,3.42-1.72,5.26-2.29,13.84-4.31,26.14-10.83,33.39-24,2.15-3.92,3.73-6.3,8.86-7,6.21-.89,11.07-5.57,14.64-11,4.85-4.79,7.87-10.87,11.73-16.48C504.42,305,500.07,312,496.89,319.43Z"/><path class="cls-5" d="M16.33,313.75c3.65,5.39,8.46,9.73,13.05,14.25,2.8,2.76,6.35,2.38,9.3,1.27,2.39-.89,3-.31,4.18,1.43,1.62,2.49,3.8,4.64,5.27,7.21,6,10.54,16,14.86,27,17.66,1.08.28,2.67,0,3,1.32s-1,2.42-2.12,3.09c-6.52,4-13.39,3-20.17,1-7.42-2.25-13.61-6.71-19.46-11.68C26,340.51,17.87,329.9,10.56,318.6c-2.73-7.48-7.21-14.42-7.07-24.08C7.83,301.79,11.18,308.4,16.33,313.75Z"/><path class="cls-7" d="M417.48,126l-1.5-9.12a2.29,2.29,0,0,1,2.31-.49c27.77,7.09,50.55,21.95,68.63,44.11.16.2.05.62.09,1.44C467.35,142.61,443.47,132.21,417.48,126Z"/><path class="cls-8" d="M92.15,116.05l-1.5,9.65C70.33,131,50.86,138.31,33.83,151c-4.48,3.33-8.62,7.11-13.11,10.53A92.12,92.12,0,0,1,36.21,144.7C52.44,130.44,70.86,120.44,92.15,116.05Z"/><path class="cls-9" d="M442.52,105.25a48.18,48.18,0,0,1-13.23-4.44,5,5,0,0,1-2.71-5.88,5.68,5.68,0,0,1,4.77-4.52A24.41,24.41,0,0,1,447.2,93.2c2.76,1.54,4.58,4.07,3.55,7.44S446.91,105.41,442.52,105.25Z"/><path class="cls-9" d="M88.59,345.62c-5.09-1.09-10.44-2.67-15-6.09-2.42-1.79-3.27-4.22-2.1-7s3.6-3.48,6.2-2.95a51.12,51.12,0,0,1,14.86,5.2c2.75,1.53,4.79,4,3.55,7.34C94.92,345.21,92,345.67,88.59,345.62Z"/><path class="cls-7" d="M42.56,119.26a6.37,6.37,0,0,1-2.74,5.06,43,43,0,0,1-12.77,6.36,4.89,4.89,0,0,1-5.68-2,5.15,5.15,0,0,1-.37-5.61c2-4.46,11.83-10.12,16.55-9.43C40.67,114.12,42.74,115.74,42.56,119.26Z"/><path class="cls-10" d="M496.08,181.41c3.73.14,9.3,5.62,9.08,8.81a3.73,3.73,0,0,1-4.18,3.86c-2.7,0-8.72-6.52-8.69-9.3C492.32,182.15,494.17,181.6,496.08,181.41Z"/><path class="cls-11" d="M486.18,286.81a3.62,3.62,0,0,1-3.88-3.8c-.1-2.5,6.3-8.8,8.76-8.7a3.47,3.47,0,0,1,3.59,3.42C495,280.91,489.84,286.62,486.18,286.81Z"/><path class="cls-12" d="M85.5,90.44c-1.92-.32-4.29.08-4.87-1.93C80,86.1,83,86.94,83.89,85.73a2.91,2.91,0,0,1,.37-.33c2.07-1.78,4.27-3.26,7-1.57a2.59,2.59,0,0,1,.76,3.54C90.61,90,88.06,90.53,85.5,90.44Z"/><path class="cls-13" d="M117.26,366.52,116,367.77a25.54,25.54,0,0,1-7.12-10.85Z"/><path class="cls-1" d="M72.51,506.09H0V389a172.41,172.41,0,0,0,36.37,7.54c.06.25.12.5.19.75a19.8,19.8,0,0,0,9.1,12.32,1.41,1.41,0,0,1,.65,1.27,1.82,1.82,0,0,1-.06.46C44,417,46.93,422.24,48,427.52,53.61,454.51,62.33,480.53,72.51,506.09Z"/><path class="cls-1" d="M152.92,486.3c-17.47-1.33-33.49-7.38-48.71-15.68-10.8-5.88-20.9-12.85-29.2-22.06-3.88-4.31-7.35-8.95-9.08-14.66a6.48,6.48,0,0,1,0-4.8c1-2.29,1.91-3,4.38-1.24,20.49,14.88,43.56,23.53,68.46,27.31,6.51,1,13.19.89,19.8,1.12,7.14.24,14.53,6.49,15.36,13.18.87,7.07-3.52,13.18-11.25,15.4C159.56,485.78,156.34,486.68,152.92,486.3Z"/><path class="cls-1" d="M355,486.28a27.69,27.69,0,0,1-10.7-1.94c-7.43-2.56-11-8.6-9.64-16.31,1-5.92,7.92-11.69,14.31-11.69,30.83,0,59-8.86,84.77-25.59.56-.36,1.15-.66,1.69-1.05,1.67-1.21,3.42-3.89,5.35-2.54,2.52,1.78,2.18,5.3,1.13,7.86a49.37,49.37,0,0,1-13.32,18.37A141.69,141.69,0,0,1,372,483.51,75.86,75.86,0,0,1,355,486.28Z"/><path class="cls-1" d="M279.47,473.32c6.77,0,11.59.05,16.4,0,3.87-.05,7.07,1.3,8.24,5.09a11.21,11.21,0,0,1-2.38,11.42,19,19,0,0,1-13.28,6.13c-12.27.17-24.15,4.44-36.49,3.22-11.65-1.14-23.3-2.34-34.91-3.8-3.62-.45-6.78-2.32-9.7-4.71-4.6-3.74-4.47-8.36.68-11.42a21.48,21.48,0,0,1,9.44-2.82c10.55-.79,21.11-1.77,31.68-1.94C259.92,474.29,270.63,472.49,279.47,473.32Z"/><path class="cls-9" d="M316.84,421.61c3.39.17,7.65-.68,8.72,3.72s-2.75,6.55-6.1,7.85c-11.24,4.38-22.81,6.75-34.94,4.38-2.25-.44-4.18-1.35-4.8-3.71-.7-2.64.56-4.46,2.94-5.59,6.22-2.21,12.91-2,19.25-3.81C306.77,423.08,311.69,421.63,316.84,421.61Z"/><path class="cls-9" d="M170,437.52c-5.82-.72-11.39-2.62-15.68-7.16-2.68-2.84-3.16-6.24-.73-9.49s5.87-3.51,9.37-2,7.16,3.4,10.66,5.24c3.19,1.68,6.29,3.81,5.26,8S174.05,437.06,170,437.52Z"/><path class="cls-9" d="M46.25,411.3c-5.16-3.69-11.13-6.83-9.88-14.8,4.3-5,6.67-5.35,12.2-1.63a98.27,98.27,0,0,1,8.11,5.63c3.11,2.57,5.27,6,3,9.93-2.19,3.74-6,3.47-9.7,2.21C48.71,412.21,47.48,411.75,46.25,411.3Z"/><path class="cls-14" d="M411.71,392.21a5.54,5.54,0,0,1-4.91-3.12,4.6,4.6,0,0,1,1.29-5.87c3.57-2.71,7.46-5.06,12-5.59,4.29-.51,6.15,2.19,4.61,6.23C423.06,388.16,416.84,392.28,411.71,392.21Z"/><path class="cls-7" d="M453.41,448.13c2.5-.08,5-.21,6.19,2.73s0,5.08-1.68,7.22c-2,2.53-4.84,3.83-7.59,5.28-1,0-2,0-2.95.07-2.15.12-4-.49-4.88-2.57a4.6,4.6,0,0,1,1.44-5.76C447,452.7,449.79,449.82,453.41,448.13Z"/><path class="cls-15" d="M258.62,454.53c.49,0,1-.14,1.47-.15,2.71,0,6.44-1.18,7.19,2.38s-2.83,4.77-5.63,5.72a19,19,0,0,1-12.13-.24,3.58,3.58,0,0,1-2.76-4.13c.28-1.94,1.68-2.66,3.5-2.82,2.79-.24,5.57-.54,8.35-.82Z"/><path class="cls-16" d="M316.84,421.61a202.81,202.81,0,0,1-34.18,6.65,3,3,0,0,1,0-.84l32-6.81Z"/><path class="cls-17" d="M84.2,281.86c.24-13.05,3.73-25.46,7.89-37.66C98.51,225.38,106.18,207,116,189.74c5-8.69,10.16-17.47,18.38-23.79,8.9-6.86,19.12-8.11,29.66-6.18,12.49,2.28,24.28,7.37,36.77,9.9a357.73,357.73,0,0,0,38.62,5.74c12.84,1.17,25.52.37,38.16-.59,17.3-1.3,34.15-5.61,50.76-10.71,7.68-2.35,15.17-5.24,23.58-5.13,13.28.18,22.87,6.08,30.67,16.35,14.54,19.15,22.65,41.46,31.5,63.39,5.45,13.52,8.38,27.78,10.32,42.22-.6,4.27-3.77,6.85-6.6,9.48-4.82,4.48-9.52,9.14-15,12.8-1.56,1-3.06,2.75-5.32,1.53-.89-1.93.25-3.54.89-5.18,5.89-14.9,4.27-29.79,0-44.67-3.18-10.76-6.38-21.51-11-31.77-5.86-15.9-13.73-30.55-25.87-42.66-6.6-6.59-13.86-8.18-22.72-4.69-18.28,7.2-37.26,12.14-56.37,16.62-26.26,6.16-52,4.54-77.53-4.05q-16.77-5.65-33.7-10.83a25.61,25.61,0,0,0-24.46,4.63,44.06,44.06,0,0,0-9.46,9.53c-6.4,9.5-12.7,19.11-16,30.28-4.1,10-8.65,19.82-11.26,30.36-3.19,12.08-5.07,24.24-3.38,36.79.7,5.16,3.34,9.69,4.15,14.76-.8,2.11-2.33,1.57-3.58.74-8.63-5.81-16-13-22.76-20.88A1.86,1.86,0,0,1,84.2,281.86Z"/><path class="cls-3" d="M84.2,281.86c7.73,8.78,15.87,17.08,26,23.19,3.67.61,2,3.71,2.68,5.73l4.22,7.05c-11.43-4-22.1-8.23-31.52-15-17.75-12.76-32-28.28-38-50,.34-13.11,5.18-25,10.08-36.85.41-1,1-2.15,2.54-1.83L58.41,225.6a36.59,36.59,0,0,0,3,17.49c.88,2.11,2.15,4.19,1.52,6.66a70.55,70.55,0,0,0,13.37,22.07c2.37.85,2.73,3.26,3.91,5Z"/><path class="cls-3" d="M398.36,304.79a108.44,108.44,0,0,0,26.08-23.85l3.12-3.33c.61-2.64,1.82-4.79,4.63-5.63,5.11-7.21,10.58-14.2,13.1-22.89-.15-3.1,1.41-5.74,2.33-8.55,1.66-5.07,2.68-10.19,1.8-15.54q-.57-5-1.16-10c1.48-.32,2.2.73,2.6,1.75,4.56,11.74,9.76,23.33,9.52,36.33-2.76,11.35-8.6,21.1-16,29.89-14,16.61-31.5,28-52.88,34.48,1.15-3.54,4.95-5.81,3.89-9.77C395,305.25,397,305.35,398.36,304.79Z"/><path class="cls-18" d="M254.13,170.12c-17.09-.22-34-1.46-50.08-8.13-4.43-1.85-8.86-3.88-11.35-8.42-.83-1.5-1.47-3.31-.26-4.65,1.06-1.18,2.38.35,3.57.71a189.64,189.64,0,0,0,44.79,7.63,218.5,218.5,0,0,0,62.93-5.18c3.21-.76,6.31-2,9.5-2.9,1-.27,2.18-1.54,3.08-.09.65,1,.2,2.25-.35,3.32a17.86,17.86,0,0,1-7.74,7.48c-10.7,5.73-22.38,7.85-34.25,9.22A120.71,120.71,0,0,1,254.13,170.12Z"/><path class="cls-19" d="M127.25,101.12l6.19.27c3,4.91,5.6,10.16,9.16,14.62,3.82,4.8,4.51,9.29,1.51,14.52-1.06,1.85-2,3.79-3,5.69-1.27.67-.79,3.2-3,2.85-3.13.56-5.12,3.13-7.85,4.46-6.41,3.1-13.14,4.68-19.3.61-7.13-4.71-7.84-12.55-7.34-20.37a29.66,29.66,0,0,1,2.7-9.47c7.37,2.54,12-3.63,17.78-5.86C127.13,107.29,125.6,103.33,127.25,101.12Z"/><path class="cls-19" d="M401.29,115c4.92,7.67,4.28,20.25-1.53,27-4.54,5.26-10.54,4.89-16.52,3.66a26.86,26.86,0,0,1-9-4.14c-.84-.54-1.67-2-2.85-.41-3.17-.64-3-4.19-5.06-5.8-.42-.71-.83-1.43-1.26-2.13-3.87-6.46-4.27-12.38,1.3-18.46,3.29-3.6,5.4-8.27,8-12.46a15.35,15.35,0,0,1,6-1.22C383.72,111.13,392,113.83,401.29,115Z"/><path class="cls-1" d="M416.43,137.13c.16-1.15.33-2.31.49-3.44,12.24,4.31,24,9.49,33.95,18.12,16.75,14.58,26.79,32.5,27.08,55.37-9.16-21.49-24-36.78-46.55-43.84-1.7-.42-1.18-2.31-2.12-3.24a84.29,84.29,0,0,0-10.8-19.73C417,139.79,416.93,138.32,416.43,137.13Z"/><path class="cls-1" d="M91.06,134.18l.29,1a4.67,4.67,0,0,1-2.1,5.9,75,75,0,0,0-10.17,18.24c-.83,1.34-.41,3.34-2.19,4.18-16,4.14-27.87,14.13-37.5,27.1-3.67,4.94-6.2,10.53-8.79,16.27-.49-4.43-.73-8.81.47-13.22C39.6,162.25,60.59,143.44,91.06,134.18Z"/><path class="cls-1" d="M60.15,214.19C54,225.61,51,238.06,48.32,250.61a18.94,18.94,0,0,1-.79,2.26c-3.88-10.59-3-21.55-2.09-32.4,1.14-13.18,5-25.59,12.74-36.54a43.51,43.51,0,0,1,14-13.11c1.44,1.24.17,2.48-.19,3.53-2.44,7.25-5,14.45-7.58,21.66-.61,2.31,1,5.12-1.59,7Q61.49,208.58,60.15,214.19Z"/><path class="cls-1" d="M460.38,253.08c-2.53-11.82-5.45-23.53-10.14-34.72-.51-1.21-.82-2.53-2-3.36-1.3-3.55-1-7.54-2.88-10.93-2.59-2.23-.82-5.54-2-8.11q-4.07-12.45-8.15-24.89c6.31,2.07,10.26,7,14,12,9.56,12.76,13.23,27.6,13.9,43.2C463.49,235.27,464.17,244.44,460.38,253.08Z"/><path class="cls-20" d="M195.06,104.2c5.18-2,10.77-1.41,16-1.64,15.38-.68,30.82-1.15,46.19-1,13.4.15,26.85.13,40.22.94,5,.3,10.2-.25,15,1.7-16,4.5-32.05,8-48.79,7-2.22-2.54-5.52-2.38-8.18-2.24-5.7.28-11.43.42-17.13,1a3.33,3.33,0,0,0-2.58,1.23C221.85,111.26,208.46,107.71,195.06,104.2Z"/><path class="cls-6" d="M113.7,183.63c-1.27-3.17.7-5.24,1.62-7.3,6.53-14.73,16.17-26.47,32.25-31.41,10.12-3.1,19.41-1.45,29,6.35C148.42,149.69,127.21,159.26,113.7,183.63Z"/><path class="cls-6" d="M333.18,150.67c5.35-4.92,11.58-7.55,18.4-7.33,22.3.73,39.78,22.95,43.11,40.28C381.3,159.37,360,150,333.18,150.67Z"/><path class="cls-21" d="M416.43,137.13a4,4,0,0,1,2.05,3.23c0,3.32,0,6.64-.12,9.95-.5,11.21-9.37,17.79-20,14.57-10.94-3.31-18.54-11.29-25.68-19.64-2.54-3-5.34-5.93-6.27-10,2.59,1.15,2.85,4.33,5.06,5.8,5.08,5.23,10.44,9.95,17.53,12.46,11.45,4,19.08,1.21,24.54-9.59C414.61,141.72,415.46,139.4,416.43,137.13Z"/><path class="cls-21" d="M89.25,141.08c.36-2.09,2.24-3.64,2.1-5.91,1.39,4.21,2.63,8.44,5.21,12.17,5.07,7.35,11.57,9.69,20.2,7a42.33,42.33,0,0,0,21.37-15.27c1.31-.64,1.41-2.56,3-2.85-8.08,14-18.62,25.26-34.79,29.48C97.71,168,89.88,159.93,89.3,149,89.16,146.37,89.26,143.72,89.25,141.08Z"/><path class="cls-22" d="M443.36,196c1.83,2.41,1.82,5.29,2,8.11-.08,4.86-.64,9.64-3.1,13.94-4.22,7.33-12.53,7.66-16.85.35C439.43,217.26,441.54,206.72,443.36,196Z"/><path class="cls-22" d="M62.84,203c.5-2.33.26-4.83,1.59-7,.66,2.72,1.21,5.46,2,8.13,2.77,9.44,6.35,12.58,16.24,14.31-1,3.63-4,5-7.11,5.18-4,.2-7.27-1.85-9.54-5.28C62.91,213.64,63.34,208.22,62.84,203Z"/><path class="cls-23" d="M76.89,163.5l2.19-4.18a70.33,70.33,0,0,0-.76,18.26c.79,7.32,3.72,13.61,10.43,17.64-6.79,4.05-10.2,2.91-12.42-4.14a39.51,39.51,0,0,1-1.25-17.6,46.52,46.52,0,0,0,.18-5.42Q76.09,165.78,76.89,163.5Z"/><path class="cls-23" d="M429.28,160.1l2.13,3.23,1,3.7c.83,7.58,1.75,15.16-.17,22.72-2,7.93-5.49,9.56-12.62,5.69,9.76-7.63,11.85-17.82,10-29.37A51.44,51.44,0,0,1,429.28,160.1Z"/><path class="cls-24" d="M80.17,276.85c-2-1.1-3-3.05-3.91-5,3.44-14.81,7.53-29.42,14-43.26a30.92,30.92,0,0,1,2.59-4.79C88.18,241.39,80.94,258.35,80.17,276.85Z"/><path class="cls-25" d="M432.19,272l-4.63,5.64c.23-17.5-6.89-33.39-10.81-50a131.73,131.73,0,0,1,10.55,26.35C429.08,259.91,430.57,266,432.19,272Z"/><path class="cls-26" d="M62.89,249.75c-2.79-6.24-6.08-12.33-5.59-19.51.12-1.61-.19-3.31,1.11-4.64.43,1.92.73,3.88,1.31,5.75,2.05,6.58,5.71,11.5,14,11.82C70.62,247.39,68,250.61,62.89,249.75Z"/><path class="cls-27" d="M449.42,225c3.29,8.83-.23,16.49-4.13,24.09-4.58,1.29-7.62-.39-10.17-5.64C444.6,241.18,448.35,236.34,449.42,225Z"/><path class="cls-28" d="M165,123.22c8.9-.64,13.05,2.16,16.17,10.91.45,2.79-1.17,4.48-3.44,5.24-2.62.89-3.25-1.65-4.17-3.27a38.55,38.55,0,0,0-6.22-8.31C166.15,126.56,164.48,125.43,165,123.22Z"/><path class="cls-28" d="M326.77,136c1.26-9.28,7.14-13.78,16.52-12.63.52,1.92-1.18,2.56-2.15,3.5a33.3,33.3,0,0,0-6.37,8.76C332,141.15,330.4,141.21,326.77,136Z"/><path class="cls-29" d="M326.77,136c4.54,4,4.65,4.05,7.17-1.3,2.17-4.6,5.63-8,9.35-11.33,2.33.66,2.63,2.39,1.84,4.24A21.72,21.72,0,0,1,332.9,139.8C329.82,141,327,140.26,326.77,136Z"/><path class="cls-30" d="M165,123.22c4,4.29,8.24,8.44,10.4,14.13.3.79.71,2.2,2,1.6a6.05,6.05,0,0,0,3.77-4.82c.64,4.94-2.11,7.62-6.31,5.69a23.41,23.41,0,0,1-11.45-11.25C162.52,126.64,162.22,124.32,165,123.22Z"/><path class="cls-7" d="M235.86,111.16c-1-3.38,2.4-2.68,3.24-2.65,7.47.28,14.91-1.93,22.4-.28,1.79.39,3.44.49,2.25,3C254.45,111.52,245.15,112.26,235.86,111.16Z"/><path class="cls-3" d="M392.38,309.62c-17,18.91-37.85,31.8-61.22,41.54-31.3,13-63.48,18.83-97.25,15.34a167.59,167.59,0,0,1-44.82-10.84,30.52,30.52,0,0,1-11.89-8.8c-1.08-1.26-1.88-2.79-3.94-2.38-11.71,2.35-20.41-4.35-29.14-10.19a150.83,150.83,0,0,1-28.58-24.7c2.28-1.45,4.16,0,6,1,5.5,2.73,11,5.51,16.87,7.32a41.65,41.65,0,0,1,11.84,6.31c19.82,14.07,42.51,20.84,65.84,26,9.94,2.21,20,2.59,30.13,3.28,30.41,2,59-5.16,87-15.6,7.35-2.74,13.82-7.23,20.47-11.31,4.53-2.78,8.95-5.75,13.91-7.77,7-2.56,13.76-5.54,20.47-8.73C389.34,309.49,390.72,307.24,392.38,309.62Z"/><path class="cls-31" d="M138.12,319.11c-8-2.12-14.84-6.85-22.58-9.52-.63-.44-1.36-1.34-1.86-1.22-1.23.26-.37,1.63-.82,2.41-1.21-1.76-.44-4.45-2.68-5.73-2-6.23-4.86-12.11-5.25-18.91-.69-11.76.31-23.18,4.22-34.31,1.43,1.31,1.26,3,.93,4.63-.72,3.62-.26,7.29-.62,10.9-1.78,18,7.91,30.49,20,41.84,2.15,2,4.53,3.87,6.82,5.79C137.45,316,139,317.07,138.12,319.11Z"/><path class="cls-31" d="M392.38,309.62c-6.51,2.86-13,5.74-19.53,8.54a47.57,47.57,0,0,1-4.61,1.47c.36-3.29,3.35-4.34,5.41-6.08a111.93,111.93,0,0,0,15.69-15.85c8.63-10.95,10.88-23.51,9.37-37-.26-2.27-1.14-4.56.44-6.7,3.54,5.87,3.42,12.63,4.07,19,1,10.29.3,20.56-4.88,30-.33.59-.58,1.21,0,1.8l-3,2.89C393.86,307.53,393.58,309.29,392.38,309.62Z"/><path class="cls-32" d="M207.91,55.4c5.83-2.82,12.32-2.47,18.37-2.72,19.14-.79,38.3-1.34,57.46.57,9.38.93,18.71,1.83,27.87,4.11A36.9,36.9,0,0,1,320.82,61c3.67,2.06,3.57,4.06-.3,6.37-6.26,3.74-13.37,4.79-20.36,5.88a306.84,306.84,0,0,1-62.42,2.9c-17.07-.84-34.35-1.33-50.69-7.61-2.32-.89-4.56-2-4.8-4.47-.27-2.85,2.77-3.64,4.69-4.42,2.85-1.16,5.76-2.71,9.07-2.19a2,2,0,0,1-.67,1.76c-3.84,4.26-3.27,6.41,2.27,7.36s11.22,1,16.63-1.09c1.88-.74,3.77-1.86,3.69-4.19s-2.14-3.08-4-3.81S209.56,57.08,207.91,55.4Z"/><path class="cls-5" d="M207.91,55.4a28.3,28.3,0,0,1,6.33.81c2.87.61,5.15,1.94,5.49,4.83.36,3.1-2.2,4.74-4.68,5.64-6.84,2.51-13.86,2.28-20.84.55A4,4,0,0,1,191,63.35a3.68,3.68,0,0,1,2.16-4A26.47,26.47,0,0,0,196,57.48Z"/><path class="cls-33" d="M401.29,115c-3.61,2.07-6.92,1.6-10.06-1.06-1.12-1-2.34-2.22-3.68-2.45-6.13-1.08-7.61-5-7.07-10.5,7.79-6.27,19-2.68,22.06,7C403.38,110.61,402.47,112.78,401.29,115Z"/><path class="cls-33" d="M127.25,101.12c.79,6.39-.2,8.11-6.24,10.14a15.1,15.1,0,0,0-4.49,2.91c-3.4,2.71-6.75,3-10.19.13-2.15-5.6,0-10.79,5.88-14.52S122.75,96.47,127.25,101.12Z"/><path class="cls-34" d="M399.15,254c.92,7.07,1.7,14.13.91,21.3C398.23,292,387.62,303,375.93,313.39c-2.47,2.18-5.12,4.17-7.68,6.24-5.82,3.5-11.58,7.1-17.46,10.48-27.53,15.88-57.36,23.27-89,24.94-29.06,1.53-56.57-4.69-83.6-14.3C167.66,337,158.34,330.92,149,324.9a67.47,67.47,0,0,0-10.91-5.8c-2-3.78-6-5.49-8.93-8.27-9.25-8.71-17.74-17.94-20.33-30.91-1.49-7.49-1-15.12-.25-22.7.18-1.8.36-3.59.55-5.39,2-10.52,6.48-20.15,11-29.76a113.24,113.24,0,0,1,25.09-34.28c7.42-6.85,16.17-7.74,25.49-4.27,22,10.85,45,17.77,69.67,18a106.5,106.5,0,0,0,27.69,0c18.09.11,35.21-4.63,52.12-10.41a108.8,108.8,0,0,0,17.67-7.74c10.73-4,20.21-1.33,27.73,6.67,9.22,9.81,17.32,20.56,22.84,33C393.53,232.85,396.54,243.34,399.15,254Z"/><path class="cls-35" d="M388.44,223.07c-6.35-9.69-12.74-19.37-20.15-28.3-8.48-10.21-16.86-14.16-29.7-10.66a408.91,408.91,0,0,1-47.11,15.17c-7.49,1.95-15.23,2.25-22.78,3.72-9.61,1-19.21,1.63-28.82,0-24.4-2.3-47.39-9.84-70-18.88-12.53-3.53-22.6.7-31.73,12.54-6.35,8.24-11.89,17-18,25.41.8-5.35,3.36-10,5.89-14.65,5.8-10.62,11.72-21.26,22.3-28,7.89-5.06,16.29-5.54,25.19-2.54,17.55,5.9,35,12.47,53.16,16,22,4.25,44,1.92,65.66-4.07,16.26-4.51,32.56-8.76,48.26-15.06,10.4-4.17,17.64,1.36,24.37,8.43,10.6,11.13,17,24.71,23.14,38.51A8.84,8.84,0,0,1,388.44,223.07Z"/><path class="cls-36" d="M215.49,175.2c22.88,2.57,45.67,4.94,68.58.92C271.59,190.77,226.27,188.65,215.49,175.2Z"/><path class="cls-9" d="M302.77,70.08c-1.69-.67-4.25-.24-4.79-2.68-.6-2.7,1.9-3.17,3.66-3.86,2.3-.91,4.77-1.39,7.05-2.34s3.57-.23,4.51,1.61.12,3.46-1.38,4.81C309.22,70,305.77,68.94,302.77,70.08Z"/><path class="cls-33" d="M322.65,334.63c-.06,2.29-.65,4.37-3.15,5-3,.75-5.41-.47-7.64-2.5-1.33-1.21-1.41-4.06-4.23-3.42-.55,1.28-1-2.36-1.52,0-1.06,4.85-4.66,7.65-9.11,7a8.85,8.85,0,0,1-7.4-9.13,15.45,15.45,0,0,1,.72-3.89c2-6.88.67-13.39-2.05-19.79-.94-2.22-2.44-4.6.55-6.55a3,3,0,0,1,2.83.5,42.87,42.87,0,0,1,13.47,18.36c.88-14.09,2-29.86.13-45.65.29-10.65-2.1-21.06-2.87-31.61.63-4.31,2.59-3.13,4.75-1.14,1.56,1.85,4.63,2.29,5,5.27a28.2,28.2,0,0,1-.71,4.66c-.58,9.07-1,18.14.32,27.19.63,4.42.11,8.94,1.07,13.35.38,1.76.32,3.68,2.15,4.77a3.4,3.4,0,0,1,1.29,3.51c-1.21,8.94,1.79,17.28,3.64,25.78a10.22,10.22,0,0,0,2.7,5.18C323.63,332.5,324.4,333.56,322.65,334.63Z"/><path class="cls-37" d="M126,293.72a69.14,69.14,0,0,1-5.2-36.68c1.38-11.61,3.81-22.81,9.37-33.16a64.89,64.89,0,0,1,14.42-18.82c.71-.63,1.27-2.33,2.72-.87a3.27,3.27,0,0,1,.44,2.26c-.67,3-.16,6.15-.47,9.22a16.83,16.83,0,0,1-5.72,9.1c-6.6,7-8.21,16.07-9.95,24.95-2.17,11.12-1.24,22.37-.39,33.58C129.85,287,129.06,290.9,126,293.72Z"/><path class="cls-37" d="M360.36,203c13.84,10.32,21.21,24.64,24.87,41,3.61,16.22,3.53,32.42-1.91,48.34a6.82,6.82,0,0,1-1.11,1.57c-3.21-3.2-4.28-7.45-5.68-11.56a85.22,85.22,0,0,0-4.83-49.09c-1.13-2.77-2.34-5.47-4.59-7.54a25.08,25.08,0,0,1-6.3-9.89c.17-2.62.84-5.25-.2-7.85C360.31,206.38,359.24,204.75,360.36,203Z"/><path class="cls-5" d="M271.76,208.91c2.65.37,5.48-.69,8,1,3.53,4.91,2.57,10.58,2.22,15.93a75.68,75.68,0,0,1-4.72,21.3c-.66,1.81-1.16,4.31-3.67,4-2.31-.29-2.06-2.72-2.19-4.46a71,71,0,0,0-5.29-22.18c-2.25-5.36-2.09-10.36,2.52-14.57A3.28,3.28,0,0,1,271.76,208.91Z"/><path class="cls-5" d="M228.06,210.09c2.36-1.89,5.21-.77,7.79-1.27a3.63,3.63,0,0,1,3.14,1.05c4.63,3.61,5.08,8.36,3.29,13.45-2.69,7.67-5.67,15.23-5.21,23.61.1,1.65-.43,3.58-2.35,4-2.28.45-3.17-1.56-3.77-3.22a72.36,72.36,0,0,1-4.29-17.32c-.37-3.78-1.07-7.55-1.08-11.35C225.56,215.83,226,212.72,228.06,210.09Z"/><path class="cls-5" d="M299.63,201.32c4.08-.79,7.5.21,10.05,3.64,5.29,10.61,5.1,21.75,3.15,33-.23,1.35-.88,2.71-2.36,2.91s-2.29-1.21-2.79-2.42c-2.79-6.81-6.89-12.87-10.62-19.16C293.9,214,295.1,206.82,299.63,201.32Z"/><path class="cls-5" d="M197.82,205.76c2.77-4,6.25-6,11.15-3.86,4.43,6.28,4.69,13.77.53,20A117.14,117.14,0,0,0,200.58,238c-.62,1.33-1.28,3-3,2.88s-2.38-1.93-2.45-3.3C194.51,226.83,192.83,216,197.82,205.76Z"/><path class="cls-5" d="M323.53,195.2c5.15-4.4,8-4.21,14.05,1,5.32,5.81,5,13.4,6.23,20.45a31.17,31.17,0,0,1,0,8.41c-.14,1.5-.41,3.06-2.22,3.46s-2.87-.72-3.59-2.06c-2.9-5.39-6.24-10.51-9.54-15.65a71.3,71.3,0,0,1-4.68-7.59C322.49,200.57,321.73,197.92,323.53,195.2Z"/><path class="cls-5" d="M169.94,196.88c5.7-6,10.1-6.34,15.13-1,1.23,2.08.85,4.11-.15,6.14-4.25,8.62-10.6,16-15,24.5a2.87,2.87,0,0,1-3.25,1.75c-1.31-.32-1.73-1.54-1.8-2.71C164.31,215.62,164.36,205.76,169.94,196.88Z"/><path class="cls-38" d="M209,346.36c-8.49-1.71-8.39-8.22-8.25-14.75-1.63-2.56-.65-4.79.88-6.95a1.38,1.38,0,0,1,1.52.07c1.76,2.52.7,5.51,1.33,8.22.73,3.16,2.77,5,6,4.94,3.51-.09,5.39-2.71,4.82-5.71-2.05-10.65.19-20.73,3.19-30.8,2.46-2.67,4.33-1.84,5.85,1,0,6.32-1.51,12.43-2.62,18.6-.47,2.64-.59,5.17.7,7.71,4.23,8.28,1.19,14.61-8,16.81C212.63,345.92,210.81,346.1,209,346.36Z"/><path class="cls-38" d="M288.71,301.65c-1.52,2.05-.11,3.72.69,5.47,3.18,7,4.29,14.08,2.16,21.61-1.62,5.72.55,9.92,5.23,10.83,4.34.85,7.78-2.21,8.79-7.84.11-.64.12-1.29.21-2.42,1.45,1.45.29,3.53,1.84,4.41-.25,5.78-1.48,10.92-8.1,12.61-4.31-.48-8.56-1-12.15-3.84-4.64-3.65-5.54-7.75-2.21-12.45a9,9,0,0,0,1.53-8,63.66,63.66,0,0,1-2.36-20.69C285.91,299.61,287.42,298.86,288.71,301.65Z"/><path class="cls-38" d="M228.06,210.09c-2.39,14.16.45,27.46,5.7,40.72,2-1.18,2.09-2.37,2-3.52-.61-7.8,1.37-15.06,4.49-22.08,2.5-5.63,2.45-10.81-2.37-15.29,3.28-1.66,4.93.5,6.55,2.77,3.27,5.6,2.74,11.18.48,17.06-2.67,6.94-4,14.28-5.11,21.62-.59,3.82-2.19,6.26-6.61,4.89-6.43-7.79-8.8-17.09-9.65-26.86a87.72,87.72,0,0,1,0-11.35c.36-2.51.35-5.16,2.61-7Z"/><path class="cls-38" d="M269.77,209.93c-4.73,4.84-4.35,10.16-1.71,15.85,3.58,7.74,4.61,16.05,4.85,24.68,5.83-4.61,9.75-28.85,6.83-40.57,1.71.39,1.77,2.24,2.83,3.2,2.39,2.15.94,5.32,2.09,7.81.86,11.6-2.29,22.32-7.33,32.6a5.39,5.39,0,0,1-2.78,2.74c-4.42,1.29-5.72-1.66-6.27-5a147.27,147.27,0,0,0-4.77-20.84,10.79,10.79,0,0,0-.55-1.91c-3.43-6.21-2.11-11.78,2.21-17C266.34,210,267.65,208.77,269.77,209.93Z"/><path class="cls-38" d="M197.82,205.76a120.93,120.93,0,0,0-1.93,28.11,16.38,16.38,0,0,0,1.83,7.14,124.54,124.54,0,0,1,12.14-22.25c2.33-3.42,1.28-7.71.58-11.62A51.71,51.71,0,0,0,209,201.9l2,.78c1.28,1.74,3.09,3,4.37,4.73,3.83,5.2,3.77,8.75-.34,13.82-3.45,3.71-5.85,8.14-8.38,12.47-1.73,3-2.49,6.38-4.39,9.24-1.53,2.31-3,4.76-6.48,4.07-4-3.71-3.51-8.87-4-13.49-.68-6.92-.8-13.94.77-20.84.6-2.79,1.21-5.58,4.36-6.72C197.22,205.9,197.52,205.84,197.82,205.76Z"/><path class="cls-38" d="M299.63,201.32c-.86,2.66-1.87,5.29-2.54,8s-1.12,5.73.45,8.23c4.62,7.38,9.45,14.62,12.86,24.19,4.15-13.34,1.76-25.06-.72-36.77l1.77,1.25c3.79,1.29,3.18,5,4.32,7.79.41,9.24,1.19,18.51-.73,27.67-.4,1.92,0,4.92-3.48,4.91l-4.88-3.68c-5.28-8.17-8.95-17.34-15.65-24.63-2-2.18-1.85-4.9-.33-7.39a45.4,45.4,0,0,1,6-7.9A5,5,0,0,1,299.63,201.32Z"/><path class="cls-38" d="M155.77,323.84c-7-1.65-10.31-6-10.8-14.16-1.71-4.19,1.1-7.43,2.3-11,1.48-1.51,1.89-4.51,5.06-3.72,1,2.77-.67,5.15-1.16,7.69a11.06,11.06,0,0,0,4.92,11.53c2.24,1.34,3.79.7,4.82-1.51a19.56,19.56,0,0,0,1.69-6.72,82.54,82.54,0,0,1,4.74-20.79c.56-1,.95-2.45,2.28-2.26s1.47,1.63,1.6,2.79c.35,2.88-.66,5.59-1.16,8.34-1.39,7.61-4.09,15-3,23,.41,3-1.55,5-4.43,5.8A34.44,34.44,0,0,1,155.77,323.84Z"/><path class="cls-38" d="M362.61,307.79c.07,10.06-2.33,13.9-9.95,16a21,21,0,0,1-6.88-.94c-2.84-1-5.3-2.86-4.88-6.13,1.08-8.51-1.91-16.42-3.17-24.57-.54-3.45-1.23-6.89.42-10.25,1.26-1,2.47-1.09,3.58.24a14.63,14.63,0,0,0,.67,8.21c2,5.47,2.55,11.28,3.38,17a19.85,19.85,0,0,0,.72,3.9c1.5,4.23,4.26,4.84,7.39,1.52a10.84,10.84,0,0,0,2.83-10.54c-.49-2-1.7-4.05-.55-6.25,2.44-1.07,3,1.15,4.21,2.36C361.47,301.4,364.43,304,362.61,307.79Z"/><path class="cls-38" d="M181.14,334.73c-6.63-1.62-6.5-6.79-6.3-12-1.87-2.69-.17-5.27.24-7.89,1.12-1.88.61-5.15,4.18-4.95,1.11,1.78.35,3.54-.12,5.28a19.91,19.91,0,0,0-.67,6.91c.19,2.25,1.21,3.82,3.64,3.95,2.61.14,4-1.24,4.32-3.78a22.42,22.42,0,0,0-.1-7.45c-1.43-6.13-.12-11.85,2-17.53,2-2,4-2.25,6,.06.81,9.38-1,18.67-1.09,28-.1,6.47-5.26,8.06-10.41,9.3A2.2,2.2,0,0,1,181.14,334.73Z"/><path class="cls-39" d="M169.94,196.88c-2.74,9-4.75,18.17-4,27.7.09,1.07-.45,2.59,1.07,2.93,1.07.25,1.67-.85,2.08-1.77,3.39-7.6,8.7-14,13-21.07,1.62-2.7,3.13-5.46,3-8.77l2.77,2.19a2.74,2.74,0,0,1,1.75,2.16,8.18,8.18,0,0,1-2.25,7.71c-4.3,4.62-7.57,10-10.81,15.38-2.77,4.61-5.71,9.6-12.51,8.69-4.16-6.15-2.05-12.95-1.94-19.52,0-1.94.86-3.84.62-5.84.07-2.87,3.16-4.55,3-7.53a2.42,2.42,0,0,1,2.44-1Z"/><path class="cls-38" d="M323.53,195.2c-1,7.08,4.12,11.68,7.31,16.89,2.68,4.36,5.5,8.62,7.85,13.18.57,1.1,1,2.85,2.69,2.39s1.08-2.2,1.15-3.44c.54-9.73-1.5-19-4.95-28.05l1.8,1c1.75.18,2.24,1.64,2.92,2.89.55,2.38,2.65,4.09,2.85,6.63.27,4.12,1.56,8.13,1.62,12.23.07,4.65.8,9.62-3.35,13.27-3.66.34-6.37-1.4-8.51-4.11-5.4-6.87-9-15-15.24-21.33-2.37-2.41-1.34-5.57.9-8A5.38,5.38,0,0,1,323.53,195.2Z"/><path class="cls-38" d="M322.65,334.63c-5.85-9.48-7.23-20.1-8.13-30.89-.17-2.06,1.83-4.12-.09-6.09,2.63-3.44,4.66-1.75,6.62.75,1,7,1.4,14.07.11,21.14a5.75,5.75,0,0,0,1.17,5.14,4.62,4.62,0,0,0,5,1.14c2.08-.6,2.66-2.2,2.79-4.17.16-2.58-1.42-5.2.14-7.75.88-.64,1.47-.12,2.05.51,1.43,3.29,2.89,6.58,1.31,10.26C333.2,332.69,331.39,334.33,322.65,334.63Z"/><path class="cls-38" d="M126,293.72a38,38,0,0,1,4.16-9.93,1,1,0,0,1,1.27.2c.85,2.13-.28,4.27,0,6.4.19,1.36.4,2.74,1.91,3.2s2.56-.35,3.57-1.27c1.59-1.47,1.77-3.49,2.16-5.44,1.14-5.76,2.84-11.26,7.18-15.56,1.42-.36,2.63-.27,3.16,1.4-1,5.21-3.45,10-4.54,15.21-.33,1.61-1.22,3.32-1.08,4.81.75,7.61-3,10.91-10.12,11.45a4.12,4.12,0,0,1-4.51-2.58A9.26,9.26,0,0,1,126,293.72Z"/><path class="cls-38" d="M377.4,282.89A41.54,41.54,0,0,1,382.22,294c.56,2.44-1.23,4.2-1.8,6.31-1.05,2.29-2.68,3.8-5.33,3.92-7.77-.23-10.44-4.76-11.1-12A47.47,47.47,0,0,0,358.17,274c.11-2,1.15-2.83,3.1-2.61A21.52,21.52,0,0,1,368,282.71c.55,2.09,1.05,4.19,1.55,6.3.65,2.77,1.78,5.55,5.19,4.62s2.21-3.89,1.7-6.3c-.3-1.44-1-2.85-.29-4.36A.85.85,0,0,1,377.4,282.89Z"/><path class="cls-40" d="M284.88,301.81a225.1,225.1,0,0,0,3.78,23.79c.39,1.76-.61,3.09-1.75,4.43-4,4.65-3,9.54,2.57,12.34,3.2,1.6,6.69,2.65,10,3.95l-5.95.43c-2.52.82-4.9,0-7.16-.89-6.14-2.37-7.51-5.52-6-13,2-6.12.39-12.4.77-18.59.18-2.94-.23-5.95.67-8.8C282.38,304,282.15,301.59,284.88,301.81Z"/><path class="cls-41" d="M338.54,282c-.61,7.86,1.53,15.35,3.3,22.84a24,24,0,0,1,.51,10.28c-.92,4.52,1.18,5.81,4.83,6.8,1.84.49,4,.32,5.48,1.9-2.87,1.82-6.13.38-9.13,1.08-5.58,1.07-8.33-1.08-8.26-6.4,0-2.32,1-4.52.81-6.87.05-7.45.29-14.9-1.53-22.23a8.24,8.24,0,0,1,.92-6.72C336.33,281.68,337.23,280.91,338.54,282Z"/><path class="cls-42" d="M155.77,323.84c1.86-1.55,4.11-1.88,6.41-2.2,2.75-.37,4.45-2.29,3.71-4.84-1.93-6.63.92-12.61,1.93-18.85.75-4.67,2.59-9.18,2.11-14.1-1.4.07-.82,1.75-1.82,2-1.29-1-2.49-2.08-2.13-4,2.6-2,4.79-1.38,6.7,1.05,1.88,5.64-.25,11.14-.73,16.68-.35,4-.67,7.91.09,11.85.32,2.41.84,4.81.93,7.23.18,4.66-2.94,7-7.93,6.12C162,324.22,158.72,325.52,155.77,323.84Z"/><path class="cls-43" d="M269.77,209.93a5,5,0,0,0-4,2c-3.75,3.63-5.35,8.7-8.53,12.73a10.18,10.18,0,0,1-7,0c-2.81-3.55-3.48-8.3-6.56-11.7-1.62-1.64-3.3-3.18-5.85-3.06l-2-1.1c-1.34-1.5-3.44-.42-5.73-1.39,8.41-1.6,14.86.8,19.86,6.4,3.34,3.73,5.58,3.4,8.65-.16,4.71-5.47,10.79-7.73,18.33-6.41-1.69,1.42-3.95-.08-5.2,1.65Z"/><path class="cls-44" d="M209,346.36c3.66-1.8,7.81-2.53,11.1-5.23,4.36-3.58,5-6.55,1.63-10.94-1.17-1.52-2.11-2.92-1.87-4.88a202.86,202.86,0,0,1,4-22.56c2.79,1.42,2.38,4.11,2.45,6.51.16,5.77,0,11.55.11,17.32a24.59,24.59,0,0,0,1.22,6.29c2,10.38-1.83,14.11-13.86,13.64Z"/><path class="cls-45" d="M268.7,203c8-1.7,16.13-3,24-5.21,12.36-3.51,24.53-7.7,36.81-11.52,3-.92,5.81-2.51,9.09-2.16-12.39,7.62-26.22,11.29-40.12,14.84A133.72,133.72,0,0,1,268.7,203Z"/><path class="cls-45" d="M169.9,184.12c10.95,2.52,21.43,6.59,32.14,9.9a217.57,217.57,0,0,0,35.62,8.09,9.29,9.29,0,0,1,2.22.89c-24.24-.42-46.83-7.36-68.61-17.48C170.72,185.27,170.36,184.6,169.9,184.12Z"/><path class="cls-46" d="M320.57,198.74c-1.71,4.37-.71,7.77,3,10.83,4.14,3.43,6.11,8.54,8.83,13,2.52,4.17,5.63,7.57,10.21,9.46-1.18,2.91-3.2,1.48-4.84.77-5-2.17-8.85-5.84-12.3-9.88a81.57,81.57,0,0,1-8.79-12c-2.13-4.74-1.36-8.76,3-11.87A4.92,4.92,0,0,0,320.57,198.74Z"/><path class="cls-47" d="M275.87,335.65c-.25,8.73-2.29,10.78-10.93,11.06-3.35-1.42-5.47-4.08-3.92-7.45,2.78-6,3-12.52,4.89-18.66,1.76-2.24,3.12-1.51,4.29.58.62,4.57,1.17,9.13.1,13.75-.35,1.5-.84,4,1,4.33,2.27.43,1.81-2.15,2.14-3.62a6.88,6.88,0,0,1,.93-2.79c1.53-.84,1.71.33,2,1.33A2.21,2.21,0,0,1,275.87,335.65Z"/><path class="cls-41" d="M296.67,203c-.15,3.45-3,5.35-4.64,7.94-1.75,2.8-1.8,5,.51,7.48,6.54,7.08,10.93,15.46,14.14,24.5-1.34,1.15-1.41-4.21-3.23-.63-2.75-1.23-2.88-4.24-4.26-6.39-3.92-6.13-8.33-11.89-12.68-17.71-2.15-7.26-.3-10.5,8.61-15.12Z"/><path class="cls-48" d="M242.81,346.8a12.35,12.35,0,0,1-11-5.13c-1.61-2.05-1.57-4.25-.61-6.53a1.42,1.42,0,0,1,1.28-.76c1.19.53,1.39,1.75,1.89,2.77s1,2.79,2.74,2.17c1.48-.54,1.38-2.19,1.14-3.46-.92-4.73-.7-9.53-.91-14.31,1.19-2.17,2.59-3.51,4.89-1.23.94,6,1.87,11.87,4.24,17.53C248.09,341.65,246.63,344.88,242.81,346.8Z"/><path class="cls-49" d="M361.55,208c1.46,2.73,1.15,5.45-.08,8.16-2,1.32-3.27.34-4.37-1.29-1.25-3.34-4.39-4.91-7-6.72-4.7-3.27-7.52-7.2-7.08-13.09.61-1.62,1.33-3.12,3.46-3l1,.16a21.18,21.18,0,0,0,7,9.64c3.09,2.51,5,6,6.58,9.56.32.53.77-.48.21-.12-.24.15-.3,0-.42-.25A2.4,2.4,0,0,1,361.55,208Z"/><path class="cls-50" d="M146.41,216.05c-.57-3.38-1.13-6.76.59-10,.91.64,1.08,1.6,1.19,3.64,2.45-7.88,10.68-10.23,12.79-17.38l2,.79a2.62,2.62,0,0,1,.94,1c2.07,4.38.7,7.68-2.62,11-3.72,3.75-8.94,5.76-11.79,10.44C148.58,216.67,147.59,217,146.41,216.05Z"/><path class="cls-51" d="M361.55,208c-.12,1.4-.23,2.81-.49,5.85a37,37,0,0,0-12.39-15.52c-2-1.46-.95-4-1.16-6.08,4.75-.12,7.16,3.38,9.79,6.45a49.37,49.37,0,0,1,3.06,4.36C360.76,204.67,361.15,206.32,361.55,208Z"/><path class="cls-51" d="M161,192.31c.06,2.15.34,4.42-1.68,5.92a34.89,34.89,0,0,0-11.39,13.66c-1.45-2.3-.49-4.15-.91-5.84.11-.62.21-1.24.32-1.85,2.27-3.81,4.4-7.72,8.2-10.3C157.17,192.77,158.84,191.72,161,192.31Z"/><path class="cls-52" d="M181.14,334.73a2.56,2.56,0,0,0,.85-.27c2.27-1,4.79-1,7.16-1.78,4.17-1.33,6.1-3.67,5.21-8.08a3.82,3.82,0,0,1,.39-2.89c3.32-.78,5.72.35,7.16,3.47l-1.14,6.43C194.8,336.26,188.37,338.05,181.14,334.73Z"/><path class="cls-53" d="M242.81,346.8c3.36-3.49,3.9-7.18,1.42-11.51-2.57-4.49-2.83-9.52-2.42-14.58,2.55-.38,3,1.71,3.58,3.32,1.3,3.41,2.37,6.91,3.56,10.37.4,2.72,2.89,5.25.8,8.22C248.05,345,246.38,347.5,242.81,346.8Z"/><path class="cls-54" d="M249.75,342.62c.37-2.94-1.91-5.28-1.86-8.15,4.09-2.08,8.42-1.23,12.7-1.09,1.73,3.83-.28,7-1.8,10.27C255.9,342.24,253,341.33,249.75,342.62Z"/><path class="cls-55" d="M375.4,303.5l5-3.22c-2.09,6.66-13.21,11.34-17.81,7.51-.23-3.24-2.09-5.93-3-8.94a2.91,2.91,0,0,1,4-1.31c1.61,6,1.62,6,7.93,5.67A12.76,12.76,0,0,1,375.4,303.5Z"/><path class="cls-56" d="M129.19,301.61l3.93,2a3.69,3.69,0,0,1,2.37-.27c5,1,8.37-.59,9.57-5.82a2.45,2.45,0,0,1,3.39,1.43c-1.43,3.5-2.92,7-3.48,10.76a19.08,19.08,0,0,1-15.57-6.08C128.84,303,128.16,302.39,129.19,301.61Z"/><path class="cls-57" d="M258.79,343.65c-1.09-3.51,1.3-6.4,1.72-9.64-.65-5.88,2-11.53,6.22-13.39-1.05,6.06-.87,12.37-4.29,17.92-2.13,3.44.53,5.78,2.5,8.16C262,347.4,260.39,345.57,258.79,343.65Z"/><path class="cls-58" d="M232.1,334.68c-.09,2.33-.17,4.66-.26,7-4.45,3.32-8.78,6.94-15,6-1.15-.17-2.33-.07-3.09-1.17,1.62-1.72,3.77-.32,5.6-1,6.42-2.32,9.59-4.53,7-11.85C228.63,332,230.54,332.34,232.1,334.68Z"/><path class="cls-59" d="M213.85,220.91c4.23-5.27,4.3-7.86.07-13.26a13.62,13.62,0,0,1-3-5l3,1.2c7,3.12,9.74,8.16,7.67,14.13-2.19,2.1-2.91,5.83-6.72,6.18C213.81,223.35,213.83,222.13,213.85,220.91Z"/><path class="cls-54" d="M275.87,335.65v-1.12c1.53-2.29,3.46-2.44,5.68-1.08-1.52,8.42,1.17,11.38,12,13.3C284.71,349.64,279,346,275.87,335.65Z"/><path class="cls-60" d="M337.38,311.86a26.05,26.05,0,0,1-.2,3.44c-1.48,7.51-1.07,8.14,6.35,9.56.87,1.74-.21,1.76-1.51,1.83-3,.17-5.57-1.45-8.38-2-.63-3.28-1.27-6.55-1.9-9.83C332.86,312.41,334.7,311.33,337.38,311.86Z"/><path class="cls-58" d="M165,324.83c6.86-1.62,7.1-2,6-8.87a32,32,0,0,1-.16-3.92c2.91-1.18,4.24.48,5.17,2.87-.41,2.61-.82,5.21-1.24,7.82-2.08,3.69-5.79,3.61-9.27,3.85C164.29,326.67,164.8,325.56,165,324.83Z"/><path class="cls-61" d="M220.76,217.79c2.62-7-2.66-10.18-6.78-13.91,3.77-1,5.54,2.27,8.06,3.87,1.47.94,2.32,2.72,4.1,3.34-.47,2.37-.95,4.74-1.42,7.1C223.29,219.14,222,219.15,220.76,217.79Z"/><path class="cls-62" d="M295.12,203.05c-2,1.77-4,3.41-5.85,5.32-2.59,2.73-3.57,5.91-1.76,9.52a8.86,8.86,0,0,1-4.21,2.62c-.24-2.48-.49-4.95-.73-7.42A16.8,16.8,0,0,1,295.12,203.05Z"/><path class="cls-63" d="M319.66,199.06c-2.09,3.73-4.86,7.36-1.89,11.9a3.33,3.33,0,0,1-3.61,1.84c-.62-2.31-1.14-4.67-2.71-6.59C312.94,202.4,315.43,199.73,319.66,199.06Z"/><path class="cls-64" d="M188.78,200.05c-.32-.65-.63-1.31-.94-2,4.28,1.18,6.44,4.8,9.07,7.87l-3.09,5.78c-1.46,1.66-2.64.49-3.86-.37A22.3,22.3,0,0,0,188.78,200.05Z"/><path class="cls-65" d="M158,185.05c2,0,3.7.22,3.84,2.36.13,1.83-1.23,2.49-2.87,2.61-.49,0-1,.11-1.47.12-1.72.06-2.83,2.76-4.79,1.29-1-.77-.76-2.19-.08-3.14C153.94,186.41,155.48,184.68,158,185.05Z"/><path class="cls-65" d="M356.19,189.65c0,1.34-.95,2.54-1.72,2-2.47-1.69-6.79-.23-7.71-4.16-.4-1.75,1.36-2.39,3-2.44C353.19,185,354.56,187.54,356.19,189.65Z"/><path class="cls-66" d="M346.49,192.05c-1,.89-2.26,1.62-2.66,3.06-.2,1.88-.41,3.76-2.45,4.67-.67-.85-1.33-1.71-2-2.57C341.59,195.27,342.24,191.18,346.49,192.05Z"/><path class="cls-67" d="M163.09,193.87a1.3,1.3,0,0,0-.16-.77c3.19-.42,3.46-.16,5.21,5a1.77,1.77,0,0,1-2.06,1C164.35,197.79,164.19,195.56,163.09,193.87Z"/><path class="cls-68" d="M176.08,314.91c-1.62-1.15-3.12-2.5-5.17-2.87-1.95-6.53-.42-13,.55-19.42.49-3.27,1-6.46.4-9.74,5.7-4.47,12.79-5.13,19.41-7,4-1.13,8.16-3,12.57-1.53,2.67,4.15,1.23,8.3-.09,12.41-.83,2.58-1.89,5.13.73,7.3a3,3,0,0,0,4.11,0c2.4-2.09,2.1-4.76,1.16-7.36a47.88,47.88,0,0,1-2.69-10.09c-.25-1.9-.89-4,1.58-5.15,7.49.63,14.83-1.06,22.25-1.53a328.16,328.16,0,0,1,69.76,2.64c2.12.32,4.28.65,6,2.22a277.48,277.48,0,0,1-.78,49.35c-4.59-9.41-8.76-17.62-17.11-22.53-1.33-1.24-2.62-1.46-3.83.16-3.44,5.75-1.69,12.1-2,18.19-.24,4.51,1.36,9.18-1.32,13.45a13,13,0,0,0-5.68,1.08l-1-2a30,30,0,0,1-4.78-11c-.95-.91-1.83-2.06-3.32-.85-4.6,3.28-3.91,9-6.22,13.38-4.17,1.06-8.4.46-12.62.47-2.56-4.35-2.07-10.05-6.08-13.76-1.73-1.28-2.93-.44-4,1-1.27,4.45-2.28,9-5.14,12.83a1,1,0,0,0-.59.16,8.23,8.23,0,0,0-5.72-1c-3.15-8.11-.4-16.55-1.43-24.78-.25-2.08.36-4.29-1.07-6.16-1.19-2.72-3-2.47-5-1-.25,1.59-1.4,2.6-2.47,3.59a49.08,49.08,0,0,0-11.9,16.82,4.19,4.19,0,0,1-1.74,2.33l-.89.66-6.49-3.35c-2.69-1.69-2.14-4.46-1.69-6.72,1.16-5.8.76-11.54.15-17.31-1.63-2-3.27-1.47-4.93-.05-3.89,3.49-6.55,8-10,11.88C177.11,310.92,177.61,313.46,176.08,314.91Z"/><path class="cls-69" d="M314.16,212.8c.81-1.37,2.32-1.39,3.61-1.84,5,6.73,9.77,13.64,16.63,18.62,2.3,1.67,4.61,4.57,8.21,2.48,4-5,2.4-10.83,2.42-16.45,0-3.29-2.56-6.43-.48-9.79,1.88-1.12,3,.36,4.23,1.31,2.86,2.3,6.26,4,8.5,7a5.24,5.24,0,0,0,4.19,2q3,4.45,5.92,8.92c5.67,7.69,7.74,16.75,9.36,25.87a101.24,101.24,0,0,1,1.12,22.29c-.1,2.43.23,5.07-2.23,6.74a2.72,2.72,0,0,1-3.1-1c-3.07-3.35-7-5.37-11-7.16-1.48-.06-2.62.37-2.88,2,2.28,6.14,4.51,12.3,5.61,18.78.31,1.86,1.1,3.93-1.07,5.33l-3.56.88-3-3.18c-5-4.27-9.74-8.83-14.79-13-.88-1.21-2.08-.86-3.24-.67l-2.17.84a3,3,0,0,1-2.31.76c-7.28-1.69-14.37-4.08-21.55-6.12a3.2,3.2,0,0,1-2.35-3.43c.22-7.8-.47-15.6.36-23.39a4,4,0,0,1,1-4c2.56-2.54,2.52-6,2.82-9.16A103.47,103.47,0,0,0,314.16,212.8Z"/><path class="cls-69" d="M306.6,274.83c-11.29-1.27-22.56-2.9-33.89-3.7-8.93-.63-17.93-.24-26.9-.29a198.07,198.07,0,0,0-33.52,2.8,3.93,3.93,0,0,1-4.19-1.8c-1.75-1.08-2.21-2.88-2.37-4.7a84.34,84.34,0,0,1,5.47-38.57c.72-1.85,1.74-3.61,3.86-4.29l5.7-6.49,4,.4a67.6,67.6,0,0,0,6,32.68c.82,1.78,1.37,3.72,3.13,4.89,4.42,2,4.93,2,6.15-2.57,2.13-7.94,4.27-15.88,6.79-23.7.67-2.09.81-4.64,3.35-5.7l7.51,0c2.37.93,2.54,3.27,3.24,5.21,2.93,8,4.93,16.35,7.23,24.58.93,3.31,2.65,4.27,5.7,2.53,5.33-6.27,6.93-14.09,8.65-21.75a42.7,42.7,0,0,0,.79-13.83c.14-2.91,2.4-2.4,4.21-2.62,6.24,7.52,12.36,15.12,15.94,24.38C304.91,253.08,307,263.83,306.6,274.83Z"/><path class="cls-68" d="M310.52,250.62c.05,7.14.13,14.28.15,21.41,0,1.93,0,4,2.32,4.35,8,1.32,15.44,4.81,23.38,6.42-1.64,4,.07,7.86.6,11.74.79,5.77,1.32,11.52.41,17.32l-5.64,3-1-1.33c-2.78-5.32-6.93-9.72-9.88-14.93-2-1.45-3.88-3.28-6.41-.93s-2.49.11-2.67-1.49c-1.53-13.67-2.54-27.37-1.73-41.14C310.11,253.55,310.35,252.09,310.52,250.62Z"/><path class="cls-69" d="M204.05,274.89c-9.5.87-18.5,3.79-27.5,6.71-1.55.51-3,1.37-4.69,1.28-1.94-1.31-3.89-1.65-5.87-.08-4.85,3.76-8.65,8.74-13.9,12l-3.65,4.08-3.28-1c-2.42-2.81-1.13-5.88-.62-8.89.92-5.51,4-10.43,4.29-16.11-.53-1.25-1.58-1.3-2.7-1.17a39.11,39.11,0,0,0-10.75,7.86c-1,1-2.51,2.62-4.09.37-1.7-18.53-1.17-36.72,8.13-53.57a6.37,6.37,0,0,1,1.81-2.34l5.17-8c1.06,0,2.14.1,2.81-1,3.31-3.76,8-5.82,11.53-9.29a1.74,1.74,0,0,1,2.29.1c2.31.16,1.41,1.66,1.14,2.83A59.58,59.58,0,0,0,163,225.46c.14,2.26.06,4.65,2.08,6.32,3.64.89,6-1.44,8.28-3.55,4.47-4.17,9-8.37,12.54-13.4,1.1-1.56,1.94-3.58,4.27-3.84l3.63.75c-.89,9.23-1.54,18.47.18,27.67.49,2.63.2,5.68,2.95,7.47a5.47,5.47,0,0,0,4.91-2.62c.66-1.08,1.41-2.65,2.89-2.17,1.3.43,1.38,2.08,1.53,3.4a189.69,189.69,0,0,0-.09,24.08C206.31,271.63,206.82,274,204.05,274.89Z"/><path class="cls-70" d="M141.23,224.06c-9,17.89-10.44,37-9.09,56.54.83,1.39,0,2.23-1,3a7.51,7.51,0,0,0-.94.21,112.79,112.79,0,0,1,0-34c1.47-9,4.07-17.63,9.2-25.32C139.83,223.81,140.34,223.05,141.23,224.06Z"/><path class="cls-71" d="M375,280.22c1.65-1.56,1.32-3.63,1.41-5.58.83-17.23-1.68-33.85-9-49.6,2,.89,2.76,1.24,4.28,4.79,7.33,17.08,10.31,34.68,5.73,53.06a7,7,0,0,0-.9-.22C375.3,282.28,374.23,281.82,375,280.22Z"/><path class="cls-5" d="M202.8,324.52c2.87-9.35,8-17.08,16.11-22.74,1.43,1.24,1.06,2.66.36,4.06-3.78,7.59-4.28,15.43-2.52,23.69.85,4,.45,8.25-4.47,9.8-3.95,1.25-7-.73-8.73-4S203.3,328.12,202.8,324.52Z"/><path class="cls-72" d="M250.18,223.79c-3.39,9.94-6.44,20-8.9,30.2-.45,1.86-.95,4.11-3.22,4.58-2.09.43-3.23-1.19-4.17-2.81,3.08.16,4.3-1.63,4.62-4.38a113.69,113.69,0,0,1,7-27.68c1.59-4.12-2-7-1.76-10.72A14.3,14.3,0,0,1,250.18,223.79Z"/><path class="cls-46" d="M273.86,256.09c-3.58,3.69-5.57,3.39-6.9-1.65-2.43-9.24-5-18.43-8-27.48-.37-1.08-.85-2.13-1.28-3.19.77-5.26,3.67-9.06,8.1-11.8-4.4,5.89-3.71,11.92-1.07,18.37,2.8,6.84,3.91,14.18,5,21.47C270.07,254.44,271.51,255.6,273.86,256.09Z"/><path class="cls-73" d="M204.05,274.89c1.48-8.32.51-16.72.81-25.07l.21-5.91c-.54-3.72-.92-7.43.82-11,2.2-4.31,4.54-8.52,8-12,1.27.81,1,2.19,1.21,3.37-7.52,15.09-10.48,30.85-7,47.56a35.19,35.19,0,0,0,3,14.37,13.59,13.59,0,0,1,1.17,4.25,5.33,5.33,0,0,1-3.21,5.6,4.94,4.94,0,0,1-5.55-.65c-2-1.53-3-3.62-2.06-6.1C203.2,284.66,204.42,279.93,204.05,274.89Z"/><path class="cls-74" d="M205.89,232.93c-.27,3.66-.55,7.32-.82,11-.43-1.9-.75-1.74-1.48-.06-1.26,2.92-3,5.09-6.64,3C202.31,243.76,202.58,237.36,205.89,232.93Z"/><path class="cls-5" d="M152.09,294.84c3.86-4.91,7.81-9.71,13.9-12,2,.14,2,1.63,2.12,3.09-2.53,8.19-3.77,16.63-5.15,25.06-.37,2.2-1,4.77-3.45,5.6-2.85,1-4.53-1.29-6.28-3-3.41-3.41-5-7.28-3.16-12.09C150.87,299.28,151.42,297,152.09,294.84Z"/><path class="cls-5" d="M341.78,282.63c6.5,2.56,10.82,7.61,14.79,13-.34,2.09.82,3.84,1.36,5.73.84,3,1,5.83-.5,8.65-1.85,3.47-4.15,7.27-8.44,6.38-3.8-.8-4-5-4.49-8.52-.92-6.85-1.67-13.73-4.36-20.22C339.33,285.75,338.46,283.41,341.78,282.63Z"/><path class="cls-33" d="M178.93,309.63c2.13-5,4.61-9.67,10-11.88-2.66,8.05-1.19,16.26-1,24.41.11,3.7-1.5,5.5-5.25,5.56s-5.61-1.49-5.93-5.52C176.46,317.74,178.67,313.88,178.93,309.63Z"/><path class="cls-53" d="M193.88,297.8c2.72,2.85,1.89,6.45,1.93,9.8,0,4.74-1,9.46-.39,14.22,1.32,10.3-1.8,13.24-13.43,12.64.33-.37.62-1,1-1.07,8.5-1.24,9-7,9.23-14.12S192.07,304.85,193.88,297.8Z"/><path class="cls-46" d="M190.19,211c-5,7-10.05,14.07-17.22,19.1-2.23,1.57-4.59,4.26-7.87,1.69,7.42-1.94,10.19-8.41,13.44-14.21a46.49,46.49,0,0,1,6.78-9.12c2.37-2.53,3.77-5,3.46-8.4C191.17,203.45,193.34,206.88,190.19,211Z"/><path class="cls-75" d="M163,205.89c-4.9,2.62-8.53,7.15-13.82,9.19-1.17-2.33,1.18-2.72,2.19-3.61,2-1.74,4.34-3,6.34-4.74,3.89-3.36,8-6.72,5.35-12.86a9.22,9.22,0,0,1,3,5.25C167.94,202.67,165.12,204.12,163,205.89Z"/><path class="cls-76" d="M357.28,214.14c-4.91-1.76-7.85-6.52-12.73-8.32a7,7,0,0,1-3.17-6l2.45-4.67c-.22,7.72,5.68,11,10.72,14.95C355.78,211,358.57,211.34,357.28,214.14Z"/><path class="cls-33" d="M320.84,298.58c5.21,3.71,8.13,8.94,9.88,14.93-.67,2.88.93,5.48.95,8.34,0,4.16-2.11,5.66-5.77,5.82s-6.19-1.41-6.18-5.41c0-5.46,1.17-10.84,1-16.34C320.66,303.51,317.82,300.94,320.84,298.58Z"/><path class="cls-33" d="M131.11,283.58c.34-1,.68-2,1-3,2.41-2.21,4.73-4.53,7.26-6.59,1.9-1.54,4-3,6.73-2.27-2.85,6.25-5.8,12.38-6.62,19.43-.3,2.67-3.38,4.78-6.48,4.22s-3.19-3.43-2.92-6C130.31,287.44,130.77,285.51,131.11,283.58Z"/><path class="cls-77" d="M148.83,272.91c2.34,2.53.49,5-.3,7.32-1.94,5.75-4.14,11.42-3.37,17.68-.07,7.65-2.26,8.68-12,5.67.84-.5,1.71-1.49,2.51-1.44,5.7.36,6.24-2.69,6.7-7.61A55.24,55.24,0,0,1,148.83,272.91Z"/><path class="cls-78" d="M375,280.22l1.53,2.45c.63,2.22,1.4,4.41,1.85,6.67.59,2.94-.21,5.51-3.5,6.06-2.91.48-5.76-1-6.11-3.82-.9-7.22-3.77-13.57-7.24-19.76C368.24,271,371,276.52,375,280.22Z"/><path class="cls-79" d="M363.16,298c.28-5.91-1.32-11.45-3.37-16.91-.86-2.3-2-4.6-1.17-7.2,5.08,4.81,5.78,11.58,6.58,17.72.87,6.82,3.1,11.08,10.2,11.92a49,49,0,0,1-5.29,1.26C363.74,305.58,362.38,304.2,363.16,298Z"/><path class="cls-73" d="M270.05,321.47c2.92,3.11,4.07,7,4.78,11a57,57,0,0,1-.53,6.82,2.84,2.84,0,0,1-3.29,2.33c-1.07-.09-2.17-.44-2.11-1.6C269.21,333.86,269.65,327.67,270.05,321.47Z"/><path class="cls-80" d="M232.69,334.52c.9-4.6,2-9.14,5.14-12.83,1.87,5.51.75,11.35,1.89,16.95a2.5,2.5,0,0,1-2.12,2.93,3.22,3.22,0,0,1-3.72-1.77C232.87,338.15,233,336.3,232.69,334.52Z"/></g></g></svg>
