<svg xmlns="http://www.w3.org/2000/svg" viewBox="0 0 507.1 507.1" width="100" height="100"><defs><style>.cls-1{fill:#914d21;}.cls-2{fill:#00b7ee;}.cls-3{fill:#cc6a2a;}.cls-4{fill:#aa5823;}.cls-5{fill:#4e2d18;}.cls-6{fill:#ce6a29;}.cls-7{fill:#a95823;}.cls-8{fill:#c99471;}.cls-9{fill:#c99472;}.cls-10{fill:#442615;}.cls-11{fill:#cd6a29;}.cls-12{fill:#a85723;}.cls-13{fill:#4f2d18;}.cls-14{fill:#b6673f;}.cls-15{fill:#fefefe;}.cls-16{fill:#dcd9d9;}.cls-17{fill:#101f47;}.cls-18{fill:#c11523;}.cls-19{fill:#b76740;}.cls-20{fill:#0f1e43;}.cls-21{fill:#192d63;}.cls-22{fill:#d8a27f;}.cls-23{fill:#101e45;}.cls-24{fill:#27489b;}.cls-25{fill:#0e1b3d;}.cls-26{fill:#fdfdfd;}.cls-27{fill:#fe1327;}.cls-28{fill:#bc6f48;}.cls-29{fill:#ba6a43;}.cls-30{fill:#bd714b;}.cls-31{fill:#ba6b43;}.cls-32{fill:#b96a42;}.cls-33{fill:#bb6d46;}.cls-34{fill:#bb6d45;}.cls-35{fill:#f3f4f7;}.cls-36{fill:#eef0f5;}.cls-37{fill:#f6f7f9;}.cls-38{fill:#f3f5f8;}</style></defs><g id="Calque_2" data-name="Calque 2"><g id="Calque_8" data-name="Calque 8"><path class="cls-1" d="M507.1,263.43V507.1H0v-232c.45-.61,1-1.21,1.44-1.8,9.34-11.37,20.63-20.67,31.89-30,1.26-1,2.86-1.7,3.83-3.38-4.49-.87-9-1.35-13.06-3.33-6.5-3.15-7.78-8.51-3.19-14.18a42.38,42.38,0,0,1,16.58-12.08,31.11,31.11,0,0,1-10.17.18c-.29-.07-.57-.15-.83-.24a6.46,6.46,0,0,1-1.82-.92h0c-2-1.5-2.17-4-.1-6.6,4-5,9.84-7.21,15.43-9.75,1.46-.66,3-1.16,4.44-1.85h0c.34-.16.68-.34,1-.53,1-.58.56-1.21,0-1.8l-.16-.17c-26-22.17-34.92-50.77-31.82-84a90,90,0,0,1,9.7-33.29c.91-1.77,1.71-3.61,3.33-4.9A23,23,0,0,0,29,64.62c2.64-2.23,4.84-4.93,7.31-7.34l0,0a33.64,33.64,0,0,1,2.6-2.32c23.27-18.47,49.53-24.6,78.66-19.38,19.27,3.45,36.8,11.13,53.33,21.35,6.5,4,6.59,4.13,11.24-1.72,10-12.62,21.27-23.73,36.21-30.51a36.67,36.67,0,0,1,9.93-3.18c1.81-.27,3.87-.51,4.89,1.44a2.65,2.65,0,0,1,.14,2.24h0a6.71,6.71,0,0,1-1.52,2.19c-.38.39-.74.81-1.1,1.24h0a17.36,17.36,0,0,1-4.7,4.52c2.57-.58,5-1.22,7.44-1.63h0c1-.17,2-.3,3.08-.37h.1c.54,0,1.08-.05,1.62,0,2.63,0,5.67-.77,7.21,2,1.63,2.95-1.22,4.78-2.67,6.86,14.21-2.79,28.43-5.11,43-4.82H286a19,19,0,0,1,2.83.07h0a2.79,2.79,0,0,1,2.44,2.06c.78,2.48-1.37,3.91-3.09,5.18C283,46.29,277.17,49.14,271,53a125.37,125.37,0,0,1,19.2.09h0A113.92,113.92,0,0,1,313,57.38h0c.79.23,1.57.47,2.36.72,8.39,2.66,14.56.75,21.79-2.92,18.45-9.38,37.91-16.18,58.6-18.65,29.37-3.49,55.7,3.62,78,23.58A47.49,47.49,0,0,1,480,67L480,67s0,0,0,0c2.4,3.2,4.54,6.6,6.77,9.94.05.08.11.16.15.24s0,0,0,0a11.58,11.58,0,0,0,2.53,3.29,12.73,12.73,0,0,1,2.76,5.78c6.38,26.29,5.82,51.94-7.17,76.41a77,77,0,0,1-13.83,18.74c-1.47,1.45-3.6,2.85-1.58,5.37a10.46,10.46,0,0,0,1.53,1.52h0a55.37,55.37,0,0,0,5,3.18h0l.28.18c4.93,3.3,5.1,6.63.5,10.14-5.73,4.38-5.8,4.44-.7,9.55l.14.14s0,0,0,0a31.5,31.5,0,0,1,4.13,5.41l.06.09c.76,1.2,1.47,2.43,2.19,3.66,1,1.66,2.27,3.72.42,5.45-1.61,1.49-3.43.21-5.07-.53a12.09,12.09,0,0,1-1.79-1.12c1.25,3.15,2.65,6.14,2.51,9.56a9,9,0,0,1-1.21,4.28,11.61,11.61,0,0,1-1.56,2.11,23,23,0,0,1-2.37,2.22c-2.84,2.36-1.1,4.5,1.39,5.8,4.26,2.22,8.77,3.92,13.12,6,5.3,2.48,10.7,4.75,15.95,7.36h0c.25.11.49.24.74.36A14,14,0,0,1,507.1,263.43Z"/><path class="cls-2" d="M507.1,0V263.84a24.29,24.29,0,0,1-2.55-1.82l-.29-.19h0c-8.38-5.49-16.59-11.22-25-16.66-1.75-1.13-3.32-2.36-3.23-3.95a.14.14,0,0,1,0-.09,2.17,2.17,0,0,1,.14-.64,5.54,5.54,0,0,1,1.56-2.11l.13-.12c1.72-1.54,1.14-3.74,1.07-5.68-.12-3.32-.19-4.94.67-5.45l.17-.08c.86-.33,2.5.19,5.53,1.14-.06-4.49-2.21-7.92-4.62-11.11l-.06-.09c-.59-.79-1.2-1.56-1.79-2.33-.91-1.18-1.69-2.2-2.34-3.08,0,0,0,0,0,0a11,11,0,0,1-2.1-3.76,2.13,2.13,0,0,1,.28-1.66c.79-1.28,3-2.42,6.9-4.43,1.47-.76,3.22-1.46,3.4-3.33.21-2.14-1.58-3.16-3.14-4.09a52.12,52.12,0,0,0-5.56-2.74h0a39.6,39.6,0,0,1-6.76-3.55c-1.14-1.31-3.37-.35-4.51-2.38,10-9.28,18.07-20.13,23-33,8.59-22.56,8-45.45,1.95-68.46a13.44,13.44,0,0,0-1.33-2.58,146.73,146.73,0,0,0-8.5-14.47s0,0,0,0L480,67c-7.65-11.37-17-21.26-29.14-28.78a91.86,91.86,0,0,0-46.19-13.88c-13.8-.48-27.16,1.15-40,6.29-3.38,1.35-6.92,2.44-10.69,1.65-1.83-.38-3.17.63-4.59,1.5-1.26.78-3.15,2-4,1l0-.05,0,0c-3.09-3.83-3.91-.05-5.17,1.42a70,70,0,0,0-4.51,6.57c-3.62,5.34-3.93,5.35-8,.1-1.88,3.44-1.73,7.08-2.06,10.64-.45,4.77-1.89,5.57-6,3.24-1.74-1-3-1.67-4.72.12a2.13,2.13,0,0,1-1.66.66h0a11.15,11.15,0,0,1-2.61-.56,161.38,161.38,0,0,0-20.21-3.71h0l-6.62-.87c-1.72-.22-4.22.07-4.43-2.2-.2-2.09,2.18-2.67,3.81-3.38,3.95-1.74,8.09-3.09,11.66-5.58,1.46-1,3.72-2,3.3-4-.47-2.25-3-1.68-4.68-1.75l-4.36-.16h0L286,35.14h-.26a157.53,157.53,0,0,0-24.84,1.15c-1.31.18-2.65.23-4,.32s-3,.31-3.63-1c-.83-1.82,1.1-2.45,2.2-3.34.63-.5,1.49-.78,1.67-2.19-2.8-1.11-5.74-.79-8.64-.41-4,.53-7.93,1-11.9,1.46h-.1l-2.33.3c-.25,0-.51.06-.75.07h0a2.49,2.49,0,0,1-2.26-.78,2,2,0,0,1-.22-.32,1.71,1.71,0,0,1-.14-.27,2.1,2.1,0,0,1-.12-1.52h0a4,4,0,0,1,1.1-1.57,8.91,8.91,0,0,0,1.52-1.86h0c1-1.57,1.59-3.35,2.41-5s1.82-3.46.49-5.15-3.58-1.53-5.55-1.12a45.69,45.69,0,0,0-15.24,5.93c-10,6.32-17.7,15-24.86,24.2-2,2.62-4,5.29-6,7.95s-4.4,3-6.78.73c-3.92-3.79-8.5-7-11-12.1a9,9,0,0,0-3.14-3.8,16.61,16.61,0,0,1-5.89-7.23c-1.13-2.36-2.22-5-5.93-3.1-2.27,1.17-3.15-1.13-4.11-2.58-1.81-2.73-2.66-6.09-5.63-8.43-1.39,1.44-.78,3.13-.85,4.65-.08,1.89-.34,3-.95,3.48a1.08,1.08,0,0,1-.3.16c-.74.27-1.86-.16-3.57-1.21-2.76-1.72-5.13-4.28-8.78-4.19.06,6.73.06,6.69-6.44,6.19-27.58-2.14-52.86,3.4-74.33,22a116,116,0,0,0-10.57,10.7l0,0c-3.06,3.42-6,6.9-9.13,10.26-10.81,18.1-13.4,37.87-12,58.49,1.74,25.24,13.07,45.56,31.68,62.2a3.19,3.19,0,0,1-2.4,2.86h0c-.76.27-1.6.44-2.33.71a67.88,67.88,0,0,0-18,9.49c-4.57,3.47-4.42,5.55.51,8h0l.13.07c.64.31,1.21.59,1.69.85a6.82,6.82,0,0,1,1.92,1.27l.11.12c.77,1-.25,2-2.9,4.54-3,2.87-5.91,5.84-7.4,9.85-2.46,6.67-.44,11,6.08,13.37,2.1.78,5.46.5,6.14,2.71a1.55,1.55,0,0,1,.07.31.8.8,0,0,1,0,.15c.35,2.84-3.1,4-5.25,5.41-7.33,4.85-14.48,10-21.76,14.88-1,.66-2.36,2-3.53,1.8V0Z"/><path class="cls-3" d="M507.1,262.34V265l-32.52-14.87c-2.13-1-4.06-1.86-4.19-4.87s1.52-3.55,3.71-4.77c3.92-2.19,3.73-6.18,2.92-10.15-.69-3.41-3.32-5.94-4.53-9.79,4.14,1.23,6.22,5,10.72,5.2-1.23-4.7-4-8.28-6.62-11.89a25.65,25.65,0,0,0-2.77-2.85c-5.58-5.61-5.58-5.61,1.33-9.69,5.3-3.14,5.29-4.86.49-8.46-2.08-1.56-5.27-1.78-6.16-4.85.59.11,1.18.23,1.76.37h0A45.64,45.64,0,0,1,482.93,193c2.16,1.19,4.69,2.41,4.5,5.36s-2.82,3.92-5.05,4.9c-2.44,1.07-5,1.93-7.73,2.93l-1.42.52,1.14,1.14c4.77,4.82,9,9.83,11.73,15.94a18.71,18.71,0,0,1,1.36,3.7c.24,1.16,1.48,2.59-.21,3.54-1.19.66-2.22-.23-3.17-.88-1.31-.88-2.58-1.82-4.32-3l-.18-.13a1.48,1.48,0,0,0,0,.21c.18,5.2,3.67,10.81-3.57,14l-.09,0,.08.05C486.89,248.15,497.21,255,507.1,262.34Z"/><path class="cls-4" d="M253.26,61.52a204.21,204.21,0,0,1,91.21,19.7c23.07,10.77,44.11,24.24,62,42.47,2.2,2.25,4.89,4.38,3.84,8.06-1.09,3.85-4.17,5.21-7.86,5.89-8.92,1.67-17.92,2.77-26.57,6-9.92,3.67-17.74,10.26-25.61,16.82a270.27,270.27,0,0,0-47.1,50.85c-3.3,4.62-8.38,5.52-13.11,2.23-11.51-8-18.4-19.45-22.71-32.43-1.48-4.45-.21-9.23,2.69-13.24.84-1.15,2.6-2.2,1.36-3.79s-2.77-.48-4.14,0a86.31,86.31,0,0,0-39,29.79c-4.2,5.61-7,12-10.84,17.81-4.95,7.4-9.92,7.31-14.93,0-13.59-19.85-29.1-37.75-50.22-50.1-19.15-11.2-39.35-16.29-61.46-11.54-2.12.46-4.5.91-6-1.12-1.71-2.31.43-4.11,1.53-5.73A164.85,164.85,0,0,1,140,93.11a226.57,226.57,0,0,1,67-25.94C223.14,63.69,239.34,60.33,253.26,61.52Z"/><path class="cls-5" d="M325.93,244.1c-1.5-1.74-3.13-.51-4.58,0a16.72,16.72,0,0,1-13-.95c-16.13-7.81-31.42-16.61-40.85-32.74-3.79-6.47-6.84-13.23-8.15-20.68-.43-2.41-.65-5.12,1.88-6s3,2.08,3.82,3.69c5.58,11,11.86,21.49,21.32,29.71a27.86,27.86,0,0,0,2.18,2c3.53,2.43,6.8,7,10.7,6.69s4.34-6.14,6.52-9.41a242.54,242.54,0,0,1,42.18-48c6.26-5.47,13.13-10.08,19.59-15.24A26.73,26.73,0,0,1,388,147.32c5.76.62,12.53,6.27,13.43,12.32s1.17,12.43-3.4,17.48c-3.29,3.62-1.08,4.3,2.1,5.45,13.08,4.72,25,11.46,34.77,21.52a33.13,33.13,0,0,1,7.78,12,46.25,46.25,0,0,1-4.56,13.54c-1,1.91-2,3.88-4.53,4.1-2.28-.38-3.07-2.33-4.11-4-15.09-23.92-44-29.05-66.17-11.53-7.79,6.17-12.45,14.46-14.71,24.13-.63,2.7-.58,5.66-2.71,7.86C338.33,251.12,332.19,247.42,325.93,244.1Z"/><path class="cls-6" d="M27.14,67.54C40.84,44.62,61.19,30.89,86.85,24.7c13.22-3.19,26.59-2.94,40.2-1-.18-.67-.27-1.1-.41-1.5-.65-1.93-3.65-3.72-1.87-5.65,2-2.13,4.63-.07,6.83.9,3.06,1.34,5.56,3.55,8.84,6.76a25.88,25.88,0,0,1-1.11-8.59c.06-1.18.09-2.52,1.27-3,1.53-.69,2.43.65,3.27,1.61,3.11,3.55,4.75,7.94,6.71,12.2,3.12-4.7,5.1-4.73,7.75.23,5.27,9.86,13.19,17.45,20.83,25.35,2.33,2.41,3.07.89,4.29-.91,7.59-11.17,16-21.6,26.92-29.8,6.44-4.86,13.43-8.59,21.7-9.07,7-.4,8.72,2.1,5.44,8.22-1.84,3.45-4.3,6.58-6.86,10.42C238,29.45,244.6,28,251.41,28.09c1.66,0,3.33-.09,5,.08s3.87-.32,4.39,1.45c.68,2.34-2,2.61-3.38,3.58-1.06.74-2.32,1.21-3.45,2.06a249,249,0,0,1,38.3-1.75c3.14.06,7.59-1,8.46,3.12.74,3.59-3.36,4.91-6,6.33-4.53,2.39-9.22,4.45-14.71,7.06a227.83,227.83,0,0,1,32.52,5.89c.83.2,1.65.5,1.55-.91-.4-5.31,2.35-2.49,4.08-1.45a57.52,57.52,0,0,1,5.12,4c.47-4.26.88-8.11,1.36-11.94a12.83,12.83,0,0,1,.79-3.37c.56-1.33,1-3.29,2.62-3.28,1.87,0,1.75,2.05,2.12,3.43.3,1.12.57,2.25.93,3.73,4.59-6.06,7.58-13,13.95-17.27,2,2.06-1,3.86.27,5.85,1.59-1.22,3.13-2.45,4.71-3.61,2-1.5,1.89-.7,4.38-.14a12.56,12.56,0,0,0,7.12-1,100.3,100.3,0,0,1,55.59-6.35c33.56,5.42,62.17,29.6,71.51,57.91-3.88-3.48-5.7-8.42-8.92-12.42C467,53.44,450.42,44.35,431.2,39.78c-18.68-4.45-37.26-2.56-55.52,2.48C359,46.86,342.88,53,328,62.07c-1.17.72-2.13,1.34-3.63.71-17.35-7.26-35.62-8.57-54.13-8.26-1.07,0-2.3.49-3.6-1,6.16-3.68,12.2-7.29,18.23-10.91a39,39,0,0,0,3.33-2.19c1-.76,2.64-1.34,2-3-.51-1.34-2-.81-3.12-.86C277,36.18,267,37.85,257,39.21c-6.33.86-12.58,2.21-20.19,3.58,2.46-2.15,4-3.31,5.32-4.69s3.43-2.25,2.49-4.4c-.82-1.85-2.94-1-4.51-1.11-6.59-.45-12.61,2.24-19.76,3.82,4.14-4.9,9.75-7.41,12.38-13.39-5.1-.53-9.29,1.2-13.38,3-14.93,6.73-26.21,17.83-36.12,30.53a11.68,11.68,0,0,0-1.47,2c-2.36,4.92-5.58,4-9.2,1.52A158.5,158.5,0,0,0,145.82,45.8C127.67,38,108.73,34,89.08,35.82,68.33,37.74,50.2,46.31,34.94,60.7,32.43,63.07,30.48,66.11,27.14,67.54Z"/><path class="cls-5" d="M58.69,219.18c8.45-19.81,23.56-32,43.87-38.1,3.55-1.08,6.46-1.35,5.23-7.2-2.33-11.1,8.3-19.17,19.86-15.95,13.75,3.84,25.27,11.64,35.72,21,13.16,11.81,24,25.6,33.62,40.45a37.43,37.43,0,0,1,4.37,8.91c3.49,10.91-4,18.75-15.73,15.42-5.52-1.57-6.83-.52-6.54,4.62,0,.56-.56,1.15-.86,1.72-5.12,3.94-11.53,5.14-17.1,8.12a3.42,3.42,0,0,1-1.1-2c.35-11.94-2.06-23.05-9.38-32.87-19.55-26.24-59.76-25.3-78,1.9-1.1,1.65-1.86,3.55-3.42,4.87a2.44,2.44,0,0,1-1.38.42C63.54,227.78,61.54,223.14,58.69,219.18Z"/><path class="cls-7" d="M324,398c.77,3.73-1.72,7.94-4.32,11.65-10.83,15.49-24.8,27.33-43.48,31.69-21.55,5-40.84-1-57.74-15-5-4.1-9.5-8.63-12.31-14.65a22.38,22.38,0,0,1-1.88-12.61c.42-3.14,2.53-4.81,5.46-6.73,7.73-5.07,13.22.5,19.16,2.85,25.59,10.13,50.17,8.54,73.83-5.51,5-3,10.13-4.62,15.89-3.61,3,.53,4.25,3,5,5.62C324,393.33,323.86,395.06,324,398Z"/><path class="cls-8" d="M105.56,58.5c15.06.1,25.88,4.32,35.68,11.36,4,2.86,3.88,4.23-.51,6.7a199,199,0,0,0-40.4,29.77,188.56,188.56,0,0,0-33.77,44.18c-2.7,4.78-4.28,5-7.31.67-16.71-23.92-15.09-52.4,4.07-73.26C75,65.24,90.93,59.39,105.56,58.5Z"/><path d="M214,266.13c2.51-10.48,10.79-14.79,19.84-17.66a65.7,65.7,0,0,1,44.87,1.37c6.35,2.47,11.64,6.29,15,12.4,3.49,3.94,3.46,8.66-.41,13.85-4.2,5.64-10.09,9.07-16.6,11.28a55.42,55.42,0,0,1-15.47,3.26c-2.19.1-5.65-1.26-6.53,2.67.67,3.69,3.68,2.7,6,2.86,13.85,1,27.31,3.51,39.73,10.11,7.12,3.78,13.33,8.64,17.86,15.45,1.24,1.86,2.37,3.88,2,6-1.63,9.07-5.26,17-13.36,22.25-3.45.57-6.5-1-9.61-2-14.11-4.62-28.39-6.08-43-2.68a49.17,49.17,0,0,0-20.71,10.22c-1.9,1.59-3.71,3.35-6.39,3.55-6-.77-10.86-3.94-15.45-7.47-3.07-2.37-3.86-6.09-4-9.82-.14-3.14,0-6.29,0-9.43.31-11.74,6-20.34,15.62-26.6,2.06-1.35,4-2.85,6.2-4.06,4.59-1.88,9.61-2.31,14.21-4.22,2.12-.88,4.11-1.59,3.56-4.46-.68-2.52-2.92-2.42-4.79-2.74a59.65,59.65,0,0,1-16.38-5.43c-6.18-3.07-10.73-7.55-13.12-14.11C212.52,269,213.24,267.57,214,266.13Z"/><path class="cls-8" d="M457.66,117.86C458,130.12,454,141,447.54,151.18c-2.57,4-4.39,4-6.64,0-17.61-31.91-42.48-56.54-74.2-74.38-5.19-2.93-5.12-3.94-.15-7.43,19.36-13.6,39.52-13.86,60-3.1C447.3,77.1,457.19,94.71,457.66,117.86Z"/><path class="cls-7" d="M396.29,345.87a64.58,64.58,0,0,1-22.42-3.19c-8.85-3-13.8-12.06-11.21-19.92,2.09-6.35,7.82-9.47,14.39-8.64,24.57,3.13,46.77-1.74,64.81-20L445,291c4.33-4.25,9.42-3.23,11.45,2.58,2.43,7,1.22,13.84-2,20.25-8.76,17.56-23.31,27.32-42.32,31.1C407.41,345.86,402.65,345.75,396.29,345.87Z"/><path class="cls-9" d="M306.58,349.38a50.26,50.26,0,0,0,11.59-18.32,8.06,8.06,0,0,0-.67-7.54,42.24,42.24,0,0,0-16.72-15.19,86.07,86.07,0,0,0-42.56-10.05c-4.44.09-5.71-1.31-5.15-5.3,2.16-2.31,5.19-2.11,7.86-2.35,16.13-1.45,29.24-8.3,39.2-21.13,1-1.24,1.75-2.92,3.83-2.6,19.82,13.17,32.56,31.29,35.46,55,1.86,15.17-4.76,28.35-15.44,38.92-13.7,13.55-30.59,20.58-49.81,22-1.28.5-2.56,1-3.39-.7,1.54-2.8,4.45-2.58,7-3,6.25-1,12.4-2.34,18.09-5.26a11.12,11.12,0,0,0,4.33-3.26c2.41-3.45,1.2-6.5-2.93-7.39a11.73,11.73,0,0,0-6.35.76c-12.58,4.28-25.43,6.18-38.7,4.56a18.52,18.52,0,0,0-3-.07c-2.6.1-5.28.43-5.75,3.56s1.91,4.35,4.29,5.36a32,32,0,0,0,7.75,1.73c2.07.32,4.43.42,4.72,3.35-2,1.42-4.19.88-6.34.36A30.66,30.66,0,0,1,242,381a47.34,47.34,0,0,0-13.47-5.91c-5.32-1.42-9.66-4.92-14.07-8.09-13.29-9.56-21.41-22.71-26.22-38.12-2.79-18.82,0-36.17,13.16-50.88,2.35-1.27,4.12-3.5,6.86-4.14,3.29-.53,5.12,2.09,7.54,3.46,1.47,1.63,2.71,3.32,1.62,5.66-1.46,1-2.92.4-4.27-.14-5.31-2.14-9.41-.11-12.87,3.76-4.35,4.85-6.5,10.72-7.61,17a49.72,49.72,0,0,0,1.15,23.16,17.89,17.89,0,0,0,1.8,4.62c1.69,2.66,3.51,6.25,6.81,5.8s2.46-4.61,2.9-7.16a40.74,40.74,0,0,1,16.44-26.9,22,22,0,0,0,2.71-2.19c3.05-3.2,3-5.36-.13-8.45-1.61-1.58-3.92-2.74-3.42-5.61,4.71-1.68,7.54,1.58,10.68,4.05,1.49,3.42,4.63,3.24,7.59,3.44a2.62,2.62,0,0,1,1.26,1.7c-.19,2.16-1.73,2.85-3.55,3.33a14.15,14.15,0,0,0-6.82,3.38c-4.38,4.45-10.59,6.43-14.36,12A42.1,42.1,0,0,0,209,331.9c0,4.74-1.63,9.38-.83,14.15a9.67,9.67,0,0,0,4.47,6.72,80.25,80.25,0,0,0,16.8,8.35c4.18,1.63,8.42,2.88,12.92,1.21,4.27.27,8.47,1.19,12.73,1.53,15.75,1.23,30.31-2.62,44-10.1a14.94,14.94,0,0,1,1.18-.92C302.5,351.85,304,349.7,306.58,349.38Z"/><path class="cls-7" d="M102.84,345c-23.94-.24-42.37-8.36-56.61-25.13-4.24-5-6.45-11.15-4.76-18C43.63,293,52,290.1,59,296c15.11,12.69,33.07,17.54,52.09,20,5.3.68,10.57.6,15.84,1,4,.31,8.3,1.45,9.93,5.56,1.71,4.3.15,8.47-2.77,12a20.18,20.18,0,0,1-11.18,7.07C115.69,343.33,108.48,345.55,102.84,345Z"/><path class="cls-10" d="M433.42,233.16c3.55-2.69,4.33-6.89,5.9-10.67.93-2.23.77-5,3.34-6.41,10.48,18,11.17,36.78,3.38,55.77-7.62,18.61-21.77,30.57-41.22,34.82-25.5,5.57-45.67-4.5-61.64-24.16a80.51,80.51,0,0,1-16.7-34c-.31-1.44-.37-2.93-.55-4.4,7,.59,13.05,4.42,19.76,6l.65.43c1.73,2.64,1.35,5.77,2,8.66,3.56,17,13.19,29.25,29.88,34.21,31.54,9.36,56.75-14.35,56.7-40.09,0-5.86-.28-11.61-2.31-17.17A3.29,3.29,0,0,1,433.42,233.16Z"/><path class="cls-10" d="M161.53,258.06c3.95-6.05,10.82-6,16.7-8-3.25,15.85-10.14,29.68-22.2,40.75-13.94,12.8-30.71,16.47-48.89,14.64-11.69-1.18-23-4.6-31.8-12.75-12.07-11.09-20.08-24.37-20.9-41.43-.54-11.05.31-21.73,4.25-32.09,4.82,2.12,6.35,6.92,8.86,10.93,1.81,2.53.08,4.82-.66,7.06C58,264.28,75.35,292,99.75,297.9c28,6.78,50.91-9,58.49-32.86C159,262.59,158.89,259.65,161.53,258.06Z"/><path class="cls-7" d="M237.45,223.49c.14-.29.4-.58.39-.87-.06-2.19-2.18-5.28.35-6.31s4.24,2.26,5.33,4.18c2.38,4.18,5.38,5.48,10.28,5.92A60.54,60.54,0,0,1,285.21,239a18.42,18.42,0,0,1,2.5,2.42c1.66,1.85,2.73,3.84.91,6.2s-3.76,1.34-5.8.43a87.43,87.43,0,0,0-22.12-7.11c-15.88-2.53-30.16,1.28-43.56,9.57a43,43,0,0,1-4.66,2.84c-2.55,1.16-5.09,1.28-7.38-.84s-2.36-4.67-1.37-7.3c2.63-7,8.76-10.1,14.93-13,3.2-1.5,7.27-2.19,2.73-6.72-.63-.63-1.27-1.76-.49-2.69s1.86-.65,2.77-.23c1.65.76,3.24,1.65,4.85,2.51.71.38,1.33,1,2.18.17C234,222.23,234,222.25,237.45,223.49Z"/><path class="cls-11" d="M47.5,191.42c-7.06,3.58-15.14,5.28-20.85,11.3-1.14,1.21-3.4,2.14-2.21,4.44,1,1.85,2.87,2,4.77,2,4.46.11,8.89,0,13.53-.34-3.52,2-7,4.12-10.58,6.07a35.89,35.89,0,0,0-10.56,9c-3.46,4.23-2.41,8.52,2.47,10.95,5.15,2.56,10.74,3.19,16.34,3.43.83,1.37-.31,2-1,2.47-14.17,10.74-27.5,22.39-39,36a3.05,3.05,0,0,1-.45.43V263.37l30.51-21,.42-.29-.49,0a23.8,23.8,0,0,1-7.25-1.37c-7.44-2.6-9.58-7.15-7-14.65,2.19-6.21,7.21-10,12.28-14.45l.1-.08-.21,0c-1.93-.43-3.41-.69-4.84-1.1-2-.58-4.46-.6-5-3.26-.57-2.86,1.16-4.84,3.19-6.29,6.21-4.43,12.71-8.34,20-10.71,1.25-.41,2.47-.9,3.69-1.38l1.36-.53c1.11.13,2.63-.22,2.95,1.22C50.16,191.11,48.44,190.94,47.5,191.42Z"/><path class="cls-12" d="M153.33,307.12c.06-10.89,11.31-20.6,21.25-19.13.8.12,1.77,0,2.06,1s-.41,1.55-1,2.07c-1.15.93-2.38,1.77-3.55,2.68-7.53,5.87-10.73,13.51-9.85,23.06.2,2.2,1.5,6.05-1.32,6.53-3.09.53-3.86-3.39-4.84-5.92A40.41,40.41,0,0,1,153.33,307.12Z"/><path class="cls-13" d="M185,289.37c-8.83,12.19-12.45,25.72-14.14,40.41C160.69,314.16,167.8,295.42,185,289.37Z"/><path class="cls-8" d="M188.27,328.88c3.22,3.29,4.4,7.72,6.2,11.72,6.66,14.77,18.55,24.35,31.87,32.33,3.61,2.17,8.74,1.45,12.38,4.53,1.26,1.07,2.79,1.8,3.31,3.54-26.12-6.56-45.41-20.74-53.17-47.74A30.16,30.16,0,0,1,188.27,328.88Z"/><path class="cls-14" d="M304,266.9c-11.9,18.58-30.23,24.59-50.89,26.08-1.69-3.51.83-3.51,3.06-3.58a64.89,64.89,0,0,0,20-3.39,36.62,36.62,0,0,0,12.48-6.95c5.12-4.55,7.57-9.94,5.17-16.82C298.08,261.75,300.92,264.54,304,266.9Z"/><path class="cls-8" d="M208.18,275c-2.12,1.29-4,3.15-6.75,3A39.38,39.38,0,0,1,214,266.13c.08,1.55.17,3.1.26,4.65a11.17,11.17,0,0,1,.71,4.28c-.8,2-1.91,1.25-2.95.28C210.82,274.2,209.58,273.8,208.18,275Z"/><path class="cls-8" d="M271,381.75c.82,1.05,2,1,3.16,1a47.07,47.07,0,0,1-20.29,0c2.05-.36,4.34.64,6.16-1.05Q265.53,377.53,271,381.75Z"/><path class="cls-15" d="M433.42,233.16c.15,1,.31,1.92.46,2.87-2.79,4.62-5.55,9.25-11.55,10.25-2.36-1.86-2.8-4.8-4.07-7.26-8.19-15.89-27.48-20.27-41.65-9.41-.76.58-1.74,1-1.8,2.34,1.88,1.34,4.41,1,6.39,2.21,5.59,4.11,5.57,6.83-.07,11a21.78,21.78,0,0,1-11.24,2.34c-1.27-.08-2.61-.33-3.57.89a8.74,8.74,0,0,0-1.31,3.72c-.3,1.62-1.33,2.95-3,2.86-5.75-.3-11.62-.39-16.05-5l-.3.13c2.55-26.69,22.15-45,47.77-43.83,16.61.73,29.17,8.81,37.72,23.08C431.94,230.63,432.68,231.9,433.42,233.16Z"/><path class="cls-16" d="M161.53,258.06c-3.87,22.22-17.9,37.5-38.77,42.21a48.82,48.82,0,0,1-51-20.06c-9.8-14.2-11.52-29.66-5.7-45.93.5-1.39,1-2.78,1.49-4.17a1.85,1.85,0,0,1,.78-.29c6.45,3.64,11.23,9.14,16.15,14.5.7,4.39-.39,8.8.71,13.28,3.09,12.65,13.07,22.47,24.57,23.56,15.51,1.48,27.21-5.1,32.9-18.46.83-1.94,1.2-4.2,3.32-5.35,3.33-1,6.79-1.44,10.17-2.24,1.81-.43,3.62-.52,5.12.93C161.36,256.71,161.44,257.39,161.53,258.06Z"/><path class="cls-15" d="M161.27,256c-4.14.78-8.29,1.52-12.42,2.38-1,.22-1.9.33-2.63-.57-2-1.83-1.47-4.29-1.55-6.54-.47-14.07-8.81-25.55-22.34-28.9-10.48-2.6-20.29-.35-28.8,7.85,2.77,1.39,5.52,1.54,7.75,2.92,6.47,4.85,6,8.25-1.77,12.43-3.62,1.52-7.41,1.48-11.22,1.22-1.87-.13-3.6-.63-4.49-2.55a70.36,70.36,0,0,1-15.47-14.46c9.19-20.88,35.07-32.18,58.14-25.38C148.84,211,164.69,234.54,161.27,256Z"/><path class="cls-17" d="M237.09,250.06c13.24-4.59,26.31-3.82,39,1.72,3.4,1.48,6.87,3.8,6.81,8.34s-3.51,6.82-6.93,8.27c-14.9,6.3-29.92,6.26-44.69-.45-3.32-1.51-6.63-4.32-5.92-8.38.86-5,4.56-7.86,9.68-8.6.68,1.33-.38,2.11-1,3s-1.69,1.8-.63,3a2.58,2.58,0,0,0,2.76.48c3-.75,5.93-1.63,7.95-4.33C242.24,250.68,238.73,252.56,237.09,250.06Z"/><path class="cls-16" d="M217,328.71a27.44,27.44,0,0,1,11.78-12.45c20.39-11.18,41.85-14.47,64.4-7.5,6.81,2.1,6.79,2.25,5.67,9.4A22.81,22.81,0,0,1,291.58,332c-5.49,5-9.24,4-11.74-3-.55-1.54-1-3.14-1.55-5.07-4,2.19-8,3.94-9.48-2.77-2.1,1.72-3,4.95-6,4.65-2.83-.28-3.18-3.6-5.12-5.1-3.71,6.52-5.89,6.9-11,1.95-4.07,10.17-4.33,10.24-13.09,3.71.68,4.47,1.51,8.82,2,13.21.49,4.69-2,6.84-6.64,5.89a21.69,21.69,0,0,1-11.45-6.63c-3.21-3.34-4.23-6.58-.42-10.12,2.42,2,2.35,5.37,4.44,7.55,1.13,1.18,1.94,2.7,3.4,3.53s2.8,1.07,4.11-.15,1.26-2.51.64-4.05c-1.8-4.5-5.41-6.75-10.35-6.34C218.4,329.3,217.59,329.46,217,328.71Z"/><path class="cls-18" d="M301.06,353.86c-8.63,6.81-19.08,8.73-29.44,10.82-9.85,2-19.64.76-29.39-1-4.12-.05-8.13-.51-11.88-2.45-1.33-.69-2.8-1.11-2.82-3,21.07-19.81,45.42-19.84,71.09-11.73,2.69.85,5.32,1.88,8,2.83-1.45,2-3,3.86-5.58,4.52-17-6.29-34-8.47-50.85.49-1.84,1-3.85,1.9-5.26,4.39a75,75,0,0,0,19.72,1.93c10.6-.37,21.16-1.74,30.91-6.57C297.24,353.29,299.13,352.15,301.06,353.86Z"/><path class="cls-19" d="M214.11,276l.18-5.21c6.35,13,18.51,16.1,31.2,18.1,2.71.43,4.65.7,3.63,4.08a4.46,4.46,0,0,1-4,2.49c-2.3.27-4.31-.77-6.41-1.41-2.75.23-5.62.88-7.55-2a31.21,31.21,0,0,0-10-5.14,4.17,4.17,0,0,1-3.94-3.94l-2.13-5C214.53,277.44,213.52,277.11,214.11,276Z"/><path class="cls-8" d="M227.53,358.28c4.47,3,9.91,3.32,14.7,5.44-10.45,2.28-18.73-3.12-27.32-7.6-5.34-2.77-9.85-6.32-8.49-12.85A109.81,109.81,0,0,1,209,331.9c-2.12,14.08,4.69,22.1,17.61,26C226.93,358,227.23,358.15,227.53,358.28Z"/><path class="cls-20" d="M258.9,302.64c-18.16,1.82-33.1,9.41-44.54,24.1-2-2.41-1-4.18.22-6,5.76-8.44,14.51-12.54,23.7-15.57C244.83,303.06,251.69,301.55,258.9,302.64Z"/><path class="cls-21" d="M237.09,250.06c2.16,0,4.32,0,6.47.15,1.31.12,2.76.54,3.16,2,.49,1.78-.88,2.81-2.17,3.5-2.62,1.4-5.17,2.89-8.18,3.53-2.39.51-4.29.53-5.49-1.85-1.3-2.57,1.09-3.44,2.36-4.8.56-.59,1.22-1.09,1.83-1.64Z"/><path class="cls-8" d="M245.05,294l4.07-1.08c.6,4-.85,5.4-5.13,6.38-4.6,1.06-9.26,2.25-13.87,3.48.56-3.3,3.57-3.61,5.87-4.59,1.48-.63,3.3-.46,4.1-2.28C241.34,294.26,243.69,295.42,245.05,294Z"/><path class="cls-22" d="M268.64,293.72c7.51-1.52,13.63-3.39,19.19-6.7a45.43,45.43,0,0,0,13.34-12.49c1.65-2.26,3.45-3.09,5.87-1.42,12.55,8.7,22.24,19.66,27.17,34.4.93,2.78.37,5.6.66,8.39.46,4.28-1.38,7.13-5.28,8.5-4.17,1.47-7.53-.18-10-3.52a57.91,57.91,0,0,0-14.66-14C295.81,301,285.7,298,275.2,296A16.13,16.13,0,0,1,268.64,293.72Z"/><path class="cls-22" d="M217.23,283a12.77,12.77,0,0,1,3.94,3.94,11.84,11.84,0,0,0,4.13,4.19c4.86,3.51,5.11,8.34-.06,11.64-12.21,7.82-17.76,19.2-19,33.16-.14,1.53-.22,3.09-1.95,3.66a5.11,5.11,0,0,1-5.06-1.18c-5.33-4.24-7.14-10.11-8.2-16.48-1.85-11.12-.78-21.75,4.65-31.8C201,280.2,207.15,278.14,217.23,283Z"/><path class="cls-22" d="M271,381.75H260c-3.34-1.83-7.27-.38-10.67-1.93-1.5-.68-3.13-1.07-4.62-1.77a5.75,5.75,0,0,1-3.43-7c.76-3.05,3.28-4.56,6.36-4.64a54,54,0,0,1,8.43.4c11.06,1.47,21.66-.56,32.11-4a41.53,41.53,0,0,1,5.76-1.55c3.79-.65,7.55-.35,9.1,3.82s-.8,7.19-4.45,9.29C290.08,379.33,280.57,380.61,271,381.75Z"/><path class="cls-8" d="M231.12,292c2.54,1.3,5.31.73,8,1a1.34,1.34,0,0,1,0,1.95C235.76,295.85,232.43,296.7,231.12,292Z"/><path class="cls-8" d="M239.1,295V293l6,1c-1.07,2.13-3.06,1.91-5,1.91Z"/><path class="cls-8" d="M214.11,276l1,2c-2.68-.14-3.91-3.62-6.92-3C210.9,270.84,212.14,275.61,214.11,276Z"/><path class="cls-16" d="M422.74,246.05c4.2-2.79,6.76-7.41,11.14-10,10.25,22.23-3.42,50.86-28.24,59.12-30.12,10-61.33-13.62-59.65-45.16,4.34,1,8.75,1.88,13,3.2,3.44,1.07,5.05.51,4.63-3.4a4.31,4.31,0,0,1,1-3.73c2.28,1.63,1.78,4.13,1.87,6.38.56,14,9.37,24.05,23.19,26.4,12.3,2.09,24.95-5.43,29.73-17.61a27,27,0,0,0,1.49-9.29C421,249.84,420.61,247.54,422.74,246.05Z"/><path class="cls-23" d="M422.74,246.05c1.1,17.48-7,30.19-21.74,33.92a29,29,0,0,1-36.53-29c0-1.66.1-3.31.15-5,.86-1.68,2.29-.91,3.42-.62,4.5,1.15,8.69-.18,12.9-1.44,2.69.16,3.17,2.63,4.41,4.27,3.56,4.7,9.5,7,14.92,5.52,5.58-1.57,9.17-5.22,10.13-11,1-6.07-1.62-10.69-6.48-14-5.34-3.69-13.16-2.16-17.89,3.18-1.44,1.63-2.27,4.34-5.36,3.46a24.11,24.11,0,0,0-9.79-1.39c6.21-10.83,22.45-15,34.9-9.28C415,228.94,420.27,236.4,422.74,246.05Z"/><path class="cls-24" d="M380.67,235.36c1.72-.35,2.16-1.89,3-3.12,4.26-6.4,11-8.81,18.19-6.54,6.09,1.91,10.93,8.82,10.69,15.26A15.74,15.74,0,0,1,400,255.71c-6.68,1.51-13.58-1.85-17.05-8.26-.63-1.16-1.31-2.3-2-3.45C385.3,240.17,385.27,239.05,380.67,235.36Z"/><path class="cls-25" d="M83.8,244.28c5.34,1.72,10.63,1.08,15.92-.27,2.37-.86,3.46.76,4.57,2.35a11.37,11.37,0,0,0,4.15,5c9.13,5.62,18.73,3.73,23.14-4.57A15.13,15.13,0,0,0,108,228.53a42.54,42.54,0,0,0-3.59,4.12c-.93,1.1-1.81,2.55-3.66,1.52A46.16,46.16,0,0,0,89.45,232c7.35-8.6,16.1-12.79,26.89-12.17,12.28.71,21.2,6.83,26.94,17.66,3.4,6.44,3.53,13.36,2.94,20.38-4.19,14.37-13.05,23.72-28.4,25.35C95.87,285.53,78.82,265.85,83.8,244.28Z"/><path class="cls-24" d="M103.4,247.1c-1.2-1.06-1.6-3.08-3.69-3.09,6.14-4,6.31-5.56,1-9.84,1.73-.37,2-2,2.83-3.19,4.21-6.61,11-9.42,18.73-7.84,6.45,1.31,12,7.55,13,14.67.86,6.13-3.11,13.43-9.16,16.85s-12.9,2.45-18.77-2.38a3.18,3.18,0,0,1,1.05-1.57c1.13-1.12,2.64-2.18,1.23-4-1.18-1.53-2.58-.78-3.9-.17A4.73,4.73,0,0,1,103.4,247.1Z"/><path class="cls-15" d="M280.87,322.91c.21-3.18-.05-5.32.72-7.44.9-2.49,1.89-4.83,5.07-4.39,2.93.41,5.58,1.6,6.07,5,.61,4.17-.33,8.25-1.75,12.12-.79,2.16-2.27,4.23-5.2,3.63a5.83,5.83,0,0,1-4.86-5A18.14,18.14,0,0,1,280.87,322.91Z"/><path class="cls-26" d="M217,328.71c6-3.21,14.27,1.19,15.1,8,.31,2.49-1,4.12-2.89,5.34-2.19,1.43-4.61.31-5.87-1.07-3.14-3.47-6.82-6.89-6.32-12.31Z"/><path class="cls-26" d="M278,316.06c.14,3.36-1.17,6.4-4.57,6.46s-3.5-3.26-3.43-6c0-.82,0-1.65,0-2.47-.05-2.39.72-4.59,3.25-4.77s4,2,4.6,4.33A11.79,11.79,0,0,1,278,316.06Z"/><path class="cls-26" d="M237.39,315c3.78.86,4.93,4,5.52,7.27.45,2.52-1,4.13-3.53,4.49s-6-4-6.15-7.41C233.09,316.54,235.07,315.73,237.39,315Z"/><path class="cls-26" d="M255,317.32c-.14,3-1.48,5.4-4.34,5.22-3.84-.24-4.09-3.89-4.47-6.75s1.25-4.82,4.28-4.84C255,310.92,253.69,315.16,255,317.32Z"/><path class="cls-26" d="M259,316.25c0-3.41.48-6.87,4.56-6,3.92.82,2.61,5.14,3.15,7.92.39,2-1.48,3.74-3.78,3.58C259.52,321.48,259,318.88,259,316.25Z"/><path class="cls-27" d="M301.06,353.86c-7.51,2.94-14.89,6.22-23,7.44a101.58,101.58,0,0,1-37.83-1.57A43.82,43.82,0,0,1,268,346.92a73.45,73.45,0,0,1,29.79,3.76c1.52.5,4,.27,3.19,3.22Z"/><path class="cls-28" d="M312.05,288.29c1.39,0,1.8.81,1.77,1.92a2.31,2.31,0,0,1-1.89,2.49c-1.2.23-1.86-.47-1.91-1.62A2.44,2.44,0,0,1,312.05,288.29Z"/><path class="cls-29" d="M300.79,291.24a2.2,2.2,0,0,1-1.87,2.46c-1.18.22-1.82-.5-1.88-1.63-.07-1.41.35-2.66,2-2.71C300.18,289.32,300.66,290.22,300.79,291.24Z"/><path class="cls-30" d="M313.21,303.6c-1.43-.19-2.08-.9-1.88-2a2.65,2.65,0,0,1,2.22-2.27,1.55,1.55,0,0,1,1.87,1.68C315.35,302.5,314.21,303.13,313.21,303.6Z"/><path class="cls-31" d="M308.53,280a2.07,2.07,0,0,1-2.39,1.88,1.52,1.52,0,0,1-1.62-1.51c.05-1.2.6-2.3,2.08-2.26A1.88,1.88,0,0,1,308.53,280Z"/><path class="cls-32" d="M206,288.45a2.21,2.21,0,0,1-2.1,2.31,1.4,1.4,0,0,1-1.62-1.46,1.86,1.86,0,0,1,1.51-2.22C204.85,286.88,205.78,287.15,206,288.45Z"/><path class="cls-33" d="M208.42,298.75a1.69,1.69,0,0,1-1.73-1.87,1.76,1.76,0,0,1,2-1.73c1,0,1.43.69,1.46,1.6C210.16,297.85,209.76,298.67,208.42,298.75Z"/><path class="cls-32" d="M198.48,301.08c1.11.19,1.62.72,1.52,1.67a2.06,2.06,0,0,1-2.24,2,1.34,1.34,0,0,1-1.34-1.62A2.27,2.27,0,0,1,198.48,301.08Z"/><path class="cls-34" d="M207,310.8c-.22,1.09-.85,1.88-2,1.74a1.54,1.54,0,0,1-1.42-1.73,1.82,1.82,0,0,1,2.05-1.69A1.38,1.38,0,0,1,207,310.8Z"/><path class="cls-35" d="M395.75,239.94c-.11,1.93-1.06,3.12-3,3.17a2.74,2.74,0,0,1-3-2.62,2.8,2.8,0,0,1,2.72-3.4C394.36,236.91,395.45,238,395.75,239.94Z"/><path class="cls-36" d="M399.15,233a1.69,1.69,0,0,1-2.38,1.1,1.43,1.43,0,0,1-.93-1.94,1.58,1.58,0,0,1,2.31-1A1.54,1.54,0,0,1,399.15,233Z"/><path class="cls-37" d="M103.4,247.1c1.25-2.36,2.9-4.15,5.87-3.31a3.89,3.89,0,0,1,3,4.07c-.13,3.06-2.16,4.23-5,4.42A5.4,5.4,0,0,1,103.4,247.1Z"/><path class="cls-38" d="M116.89,231c2.26.22,3.64,1.41,3.55,3.77a3.17,3.17,0,0,1-3.45,3.32,3.24,3.24,0,0,1-3.58-3.68C113.46,232.32,114.8,231.25,116.89,231Z"/></g></g></svg>
