<svg xmlns="http://www.w3.org/2000/svg" viewBox="0 0 116.97 128.86"><defs><style>.cls-1{fill:#027a50;}.cls-2{fill:#514139;}.cls-3{fill:#b29e88;}.cls-4{fill:#382d27;}.cls-5{fill:#d8d8d8;}.cls-6{fill:#fefefe;}.cls-7{fill:#73594b;}.cls-8{fill:#cca561;}.cls-9{fill:#b2b2b2;}.cls-10{fill:#d1d1d1;}.cls-11{fill:#d0d1d1;}.cls-12{fill:#826d57;}.cls-13{fill:#e1c781;}.cls-14{fill:#836c57;}.cls-15{fill:#836d58;}.cls-16{fill:#826d58;}.cls-17{fill:#80725c;}.cls-18{fill:#7d715a;}.cls-19{fill:#856b56;}.cls-20{fill:#73584b;}.cls-21{fill:#73584a;}.cls-22{fill:#72584a;}.cls-23{fill:#6f5548;}.cls-24{fill:#866c56;}.cls-25{fill:#856c56;}.cls-26{fill:#cfbea9;}.cls-27{fill:#939393;}.cls-28{fill:#010100;}.cls-29{fill:#949494;}.cls-30{fill:#856c57;}.cls-31{fill:#cebda8;}.cls-32{fill:#846d58;}.cls-33{fill:#846e59;}.cls-34{fill:#866f5a;}.cls-35{fill:#89725c;}.cls-36{fill:#b1b1b1;}.cls-37{fill:#715749;}.cls-38{fill:#010101;}.cls-39{fill:#030201;}.cls-40{fill:#936f30;}.cls-41{fill:#937031;}.cls-42{fill:#152134;}.cls-43{fill:#fafafa;}.cls-44{fill:none;stroke:#211917;stroke-miterlimit:10;stroke-width:6px;}</style></defs><g id="Calque_2" data-name="Calque 2"><g id="Calque_8" data-name="Calque 8"><path class="cls-1" d="M3.42,90.36a39.49,39.49,0,0,0,2.79,6.19A16.77,16.77,0,0,1,3.42,90.36Z"/><path class="cls-1" d="M35.54,107.77a8.49,8.49,0,0,1-4.68.26c-11.12-1.42-19.15-7.35-24.5-17A34.24,34.24,0,0,1,3,82.22v-40a17.08,17.08,0,0,1,8.53-14.78l18.88-10.9,1-.59a20.78,20.78,0,0,0-5.06,11.44,14.74,14.74,0,0,0,1.3,9.11l.06.11.19.16a4.3,4.3,0,0,1,1.48,3.06,6,6,0,0,0,1.92,3.73c.3.27.62.57,1.05.31s.27-.61.24-1a15.35,15.35,0,0,1-.25-2.71c0-.29.1-.62.4-.67s.45.26.55.52A17.55,17.55,0,0,0,35,43.6a7.92,7.92,0,0,0,3.33,3.13,1.69,1.69,0,0,1,1,.83,5.53,5.53,0,0,0,2.79,2.88h0l0,0a.43.43,0,0,0,0,0,1.62,1.62,0,0,1,.1.56,4.76,4.76,0,0,1-.5,1.62c0,.1-.07.18-.1.28h0a.43.43,0,0,0,0,.05,47.38,47.38,0,0,0-1.9,8.49,4.08,4.08,0,0,0-.17.83h0a2.66,2.66,0,0,0,0,.28v.27c0,.75.11,1.5.12,2.25v.4A24.56,24.56,0,0,0,42.57,75a62.56,62.56,0,0,0,3.91,5.66l.17.24h0l.12.13a9.28,9.28,0,0,1,.68.87l.09.15.05.08c.34.56.68,1.13.33,1.77h0a.88.88,0,0,1-.12.17l-.05.07a24.41,24.41,0,0,1-10.37,4.12,25.66,25.66,0,0,1-8.25,0A3.43,3.43,0,0,1,28,88h0a1.53,1.53,0,0,1-.27-.17,1.43,1.43,0,0,1-.23-.2,7.14,7.14,0,0,1-.35-3.6c.43-3.91.75-7.83,1.34-11.71a7,7,0,0,0,0-1v0a2.79,2.79,0,0,1,0-.5,7.62,7.62,0,0,1,.14-.94c0-.08,0-.16,0-.25s0-.31.07-.46q0-6,0-12.08h0V57a2.17,2.17,0,0,1,0-.26V56.2a1.93,1.93,0,0,0-.06-.41,1.19,1.19,0,0,0-.08-.2,39.93,39.93,0,0,0-.94-4.85,13.67,13.67,0,0,0-2.18-4.43l-.06-.08-.1-.12h0c-.28-.35-.54-.72-.85-1.05a2.5,2.5,0,0,0-.33-.32h0a2.16,2.16,0,0,0-.33-.27c-2.09-1.92-4.37-3.4-7.36-3.33a2.09,2.09,0,0,1-1-.21h0a1,1,0,0,1-.25-.13l-.07-.06c-1.84-1.53-3.4-.55-4.69.77l0,0L10,42a2.27,2.27,0,0,0-.29.48l-.12.23a13.63,13.63,0,0,0-1.39,9.43,4,4,0,0,0,2.34,3.11l.09,0a1,1,0,0,0,.21.11h0a3.65,3.65,0,0,0,2.64.2,8.89,8.89,0,0,1,2.71-.3,3.22,3.22,0,0,1,3.33,2.51,20,20,0,0,1,.63,6c.1,5.29-.79,10.5-1.23,15.74-.11,1.3.21,2.63-.26,3.9a2,2,0,0,1-.26.2l-.12.05c-.54.2-1-.32-1.36-.61a28.13,28.13,0,0,1-7.78-8.75A31.22,31.22,0,0,1,4.69,58.94a3.19,3.19,0,0,0-.06-.53v0a4.51,4.51,0,0,0-.28-.88v0h0a1.89,1.89,0,0,0-.09-.21c-.86-.05-.62.64-.65,1a27.65,27.65,0,0,0,.28,5.82,37.37,37.37,0,0,0,11,22.44c1.18,1.14,2.51,2.09,3.8,3.11l.38.3,0,0,.13.1A3.89,3.89,0,0,1,20.1,92,21.91,21.91,0,0,0,29.58,105a14.8,14.8,0,0,0,5,2.07c.38.09.94,0,.94.63,0,0,0,.06,0,.09Z"/><path class="cls-1" d="M46.73,8.61a36.28,36.28,0,0,0-3.92.8l1.31-.75L50,5.29a17,17,0,0,1,2.95-1.35h6.64a6.36,6.36,0,0,1-.7.33,26.15,26.15,0,0,0-5.62,3.4,2.17,2.17,0,0,1-.53.3h0a5.92,5.92,0,0,1-1.84.22C49.46,8.28,48.09,8.41,46.73,8.61Z"/><path class="cls-1" d="M64.61,101.15c-2,4.22-4.13,8.31-7.48,11.67A63.51,63.51,0,0,1,49.94,119c-1.13.84-2.2,1.73-3.27,2.64l-.4-.23-10-5.79-.82-.48a31.55,31.55,0,0,0,20.63-6.92,37.13,37.13,0,0,0,7.2-7.4c.34-.46.59-1.06,1.3-1.11l0,0,0,0C65.05,100.25,64.8,100.73,64.61,101.15Z"/><path class="cls-2" d="M105.33,28.23c-1.14-.15-2.3-.15-3.52-.41.26.38.63.46.9.67.44.32,1.1.54,1,1.2s-.7.7-1.18.87c-.82.3-1.65.57-2.49.8a21.27,21.27,0,0,1-11.3-.21c.59.86,1.26,1.51,1.74,2.3.19.3.41.64.18,1s-.71.28-1.07.13a16.52,16.52,0,0,0-3.78-1,3.81,3.81,0,0,0-1,0,1.64,1.64,0,0,0-.32,0l-.2,0a52.19,52.19,0,0,0-5.71-.91,11.63,11.63,0,0,0-2.28-.08,3,3,0,0,0-.5.1s0,0,0,.06h0c-.12.51.37.56.64.77s.76.45.57.91-.62.42-1,.41c-1,0-2-.28-3-.35-.85-.06-1.67-.3-2.52-.31h0a4.11,4.11,0,0,0-.78.07h-.06a8.83,8.83,0,0,1-4.13-1.55s-.06-.08-.08-.08c-.17,0,0,.1,0,.15s0,.05,0,.07a2.83,2.83,0,0,0,.12.44h0a9.88,9.88,0,0,0,2.09,2.93c.44.53,1.34,1,.86,1.76v0s0,0,0,0c-.5.64-1.28,0-1.88-.25a9.34,9.34,0,0,1-2.59-1.42c.84,1,1.68,2.13,2.58,3.22.3.36.64.75.38,1.29l0,0h0c-.45.2-.8-.09-1.11-.34A63.48,63.48,0,0,1,59,34.24a19.58,19.58,0,0,0,2,3.46c.27.39.67.77.44,1.32l0,.07h0c-.88.07-1.24-.06-2-1A22,22,0,0,0,62,41.2c.39.37.88.75.6,1.42l0,0h0c-.57.2-.89-.25-1.25-.55a13.77,13.77,0,0,1-1.43-1.78c.11.34.71.6.35,1.13l0,0a0,0,0,0,0,0,0A1.26,1.26,0,0,1,58.75,41c-1.32-1.52-2.78-2.92-4-4.62A21.72,21.72,0,0,0,57,43.7c.27.46.61,1,.28,1.56h-.08c-.69.16-1-.39-1.35-.82a18.51,18.51,0,0,1-2.38-3.67,10.64,10.64,0,0,1-.61-1.7h0s0-.06,0-.09v.06c0,.18,0,.57,0,.86V40s0,0,0,0,0,.16,0,.21v.1a.62.62,0,0,1-.51-.25c.65,2.3,1,4.94,1.78,7.51a1.09,1.09,0,0,1-.18,1l-.09,0h0c-.49.15-.74-.24-.92-.57a35.4,35.4,0,0,1-2.86-6.61c-.14-.45-.27-.89-.38-1.35,0-.14-.08-.29-.11-.44a2.11,2.11,0,0,1,0-.36c-.13,0-.07.18-.16.24l0,0h0c-.06,0-.12,0-.15,0s-.24-.23-.33-.12,0,0,0,0a0,0,0,0,0,0,0l-.06.1a.86.86,0,0,1-.32-.22c-.26-.3-.15-.74-.16-1.12a6.42,6.42,0,0,0-.11-1.39v0A1.93,1.93,0,0,0,48,36.3c-.64-3.67.17-7.32.24-11A34.65,34.65,0,0,0,46.28,32a7.16,7.16,0,0,1-.35,1.38c-.14.34-.34.69-.75.65s-.62-.42-.67-.85a30.07,30.07,0,0,1,0-5.45c.16-2.17.63-4.3.82-6.47h0s0-.05,0-.08,0-.13,0-.19c-.33-1.24-.39-1.23-1.85-.95a.72.72,0,0,1-.48,0l0,0h0l0,0a1.65,1.65,0,0,1,.21-1.58c.53-1.16,1.1-2.29,1.74-3.47-2.39,1.58-4.61,3.24-5.89,5.85-.17.35-.44.78-.89.63s-.38-.67-.28-1c1.17-4.48,3-8.56,7.25-11a9.1,9.1,0,0,1,1.73-.76,12.77,12.77,0,0,1,4.45-.52,2.21,2.21,0,0,0,2-.78A18.7,18.7,0,0,1,58.5,4l.11-.06h5.46a17,17,0,0,1,3,1.35l38.43,22.18.7.43c.3.19.58.39.86.6Q106.17,28.35,105.33,28.23Z"/><path class="cls-3" d="M18.37,83.56c-.09-4.78.7-9.48,1.06-14.22A38.69,38.69,0,0,0,19.32,59c-.26-1.35-.46-2.86-2.16-3.22A5.71,5.71,0,0,0,14,56a3.68,3.68,0,0,1-3.71-.44c1.17-1.58,1.76-1.8,3.6-1.33,2.36.6,3.82-.52,3.82-2.94a9,9,0,0,0-1.53-4.56,3.28,3.28,0,0,1-.76-1.84,10.83,10.83,0,0,0-.27-3,1.32,1.32,0,0,1,.18-1.42,1.69,1.69,0,0,0,1,.25c3.2-.09,5.66,1.43,7.81,3.6a3.28,3.28,0,0,1,.39,1.23c0,.92.42,1,1,.4,1.88,2,2.58,4.53,3.07,7.13a8.14,8.14,0,0,1,.24,2.46c0,.49-.05,1-.74,1a2.49,2.49,0,0,1-.6-1.63,19.29,19.29,0,0,0-1.75-5.28c-.18-.35-.29-.87-.69-.91s-.58.56-.85.88a1,1,0,0,0-.12,1.29A15.92,15.92,0,0,1,26.69,58c.48-.41.67-1,1.3-1.18.36.07.69-.22,1.06-.11.15,4.2.23,8.4,0,12.6-.17.34-.31.78-.83.38a3.37,3.37,0,0,1-.28-1.85c0-2.76,0-5.52,0-8.38-.49.12-.71.59-1.15.62-1.05-.47-1.42.61-2,.89.62-.15.88-1.47,1.95-.75a23,23,0,0,1,.47,4.68c.06,1.53,0,3.07,0,4.6,0,.54.09.86.72.66.7,0,.44.88.94,1.07q-.39,6.21-1.19,12.4a25.55,25.55,0,0,0,.05,4c.63.6.64,1.45.9,2.2a7.58,7.58,0,0,0,.78,2.26,10.82,10.82,0,0,0,1.72,2.74c.43.75,1.31,1.14,1.62,2a13.39,13.39,0,0,1,.16,3.12c.12-.8,0-1.81,1-2.41a1.19,1.19,0,0,1,.81.09,9.67,9.67,0,0,0,8.29.23,1.08,1.08,0,0,1,.36-.05c.75.1,1.4.35,1.58,1.21-.11.63-.6.9-1.13,1.11a7.8,7.8,0,0,1-4.52.67,1.56,1.56,0,0,0-1.41.16c.24.55.73.54,1.18.55a13.91,13.91,0,0,0,5.64-1.28c.63-.25.41-.64.3-1a11.69,11.69,0,0,0,.29-2.5,2.2,2.2,0,0,1,.79-1,6.1,6.1,0,0,0,2-3.6,13.38,13.38,0,0,1,.76-2.94,1.18,1.18,0,0,1,.25-.25,7.18,7.18,0,0,1,1.51-.44,2,2,0,0,1-1.7-.8,4.65,4.65,0,0,1-.37-1.51c-.09-.84-.68-1.51-.81-2.34.36-.71-.43-1.06-.5-1.63a.78.78,0,0,1,.57-.39,6,6,0,0,0,3.67-2.52c-1.4,1-3,2.13-5.21,1.72-2.74-3.32-5.15-6.82-6.26-11.07a18.79,18.79,0,0,1-.69-4.21c-.09-.94.51-.49.79-.32.88.52,1.75,1,2.67,1.49.72.36,1.26.5,1.18-.62,0-.16.15-.27.28-.36a1.12,1.12,0,0,1,.7,0c1.59.25,1.59.25,2-1.37a54.8,54.8,0,0,1,2.71-7.24C50.49,55,50.49,55,48.13,55c-.24,0-.48,0-.71,0-1.87-.14-1.92-.13-2.44,1.73a17.74,17.74,0,0,0-.7,7.28,2.87,2.87,0,0,1-.08,2,.77.77,0,0,1-.53.24c-1.94,0-4.48-2.76-4.35-4.7a32,32,0,0,1,2-8.63c.38-.3.76-.12,1.13,0a14.65,14.65,0,0,0,1.44.54c.43.12,1,.48,1.26-.08s-.54-.54-.85-.79c-.8-.66-1.95-1-2-2.29a1.39,1.39,0,0,1,.57-.9,1.81,1.81,0,0,1,2.27.2c.79.69,1.85.79,2.68,1.38.13.46-.23.72-.46,1-.41.55-.23.83.39,1,1.15.29,2.38.16,3.48.69.23.15.48.36.76.29a7.41,7.41,0,0,1,3,.28,4.78,4.78,0,0,0,2.28.31c.84,0,1.12-.5,1.26-1.27.21-1.23.47-1.4,1.69-1.1a17.69,17.69,0,0,0,6.36.42,2.51,2.51,0,0,1,1.93.72A22.65,22.65,0,0,0,73,56.46a6.86,6.86,0,0,0,6,.17,3.7,3.7,0,0,1,1.67-.54c.2.19.26.13.4-.11,1.66-2.88,3.36-5.73,5.16-8.52a9.84,9.84,0,0,1,10-4.79c.4,0,1,.26,1.16-.25s-.31-.67-.53-1-.75-.54-.41-1.09a1.85,1.85,0,0,1,1.81.15A9,9,0,0,1,102.31,44a18.66,18.66,0,0,1,2.39,13.85,25.13,25.13,0,0,1-1.53,4.88,36.59,36.59,0,0,0-2.34,9.33,36.22,36.22,0,0,1-1.63,6.82c-1.82,5.1-5.37,8.37-10.7,9.27-4.12.69-7.65-.93-10.39-4a18.43,18.43,0,0,1-3.53-6.29c-.32-.72-.49-1.5-.77-2.17a19.09,19.09,0,0,1-.32,5.42,21.26,21.26,0,0,1-1.63,5.45,5.12,5.12,0,0,1-1.22,1.75,2.07,2.07,0,0,1-2.3.5,60.15,60.15,0,0,0-6.18-1.71c-.2-.06-.3-.17-.42.12a12.19,12.19,0,0,0-1,2.14c-.52,2.36-2,4.27-3.27,6.26a16.77,16.77,0,0,0-1.59,2.5,10.17,10.17,0,0,1-3,3.12A31.1,31.1,0,0,1,37.21,108c-.61.08-1.27.27-1.75-.35a17.48,17.48,0,0,1-8.69-4.25,22.86,22.86,0,0,1-7.18-11.62,4.55,4.55,0,0,0-.49-1.44,5.56,5.56,0,0,1-.84-2.66c.11-.7-.42-1.33-.25-2C18,84.92,17.71,84.16,18.37,83.56Z"/><path class="cls-4" d="M113,36.57a16.91,16.91,0,0,1,1,5.68V66.57c-.26-.19-.53-.36-.81-.53a10.58,10.58,0,0,0-2-1h0a6.62,6.62,0,0,0-1.35-.3h-.09a6.3,6.3,0,0,1-1.2-.11,4.2,4.2,0,0,1,.62.74v0l1,1h0a.46.46,0,0,1,.07.07,22.44,22.44,0,0,1,3.29,4.25c.19.35.38.7.56,1.06V86.62a14.86,14.86,0,0,1-.14,2.11h0c0,.4-.11.79-.18,1.18a61.2,61.2,0,0,0-1.73-6.68s0,0,0-.06A44.49,44.49,0,0,0,110,78.34l-.18-.37a.15.15,0,0,0,0-.07A19.32,19.32,0,0,0,106.68,73l0,0-.42-.43,0,0h-.06c-.21,0,0,.15,0,.24l.07.16,0,.1s0,0,0,.07a20.24,20.24,0,0,1,.73,2.69.13.13,0,0,1,0,.06,31,31,0,0,1,.53,4.34c.19,2.93.24,5.85.25,8.78,0,.58.13,1.43-.5,1.58s-.91-.71-1.16-1.26c-1.31-2.77-1.42-5.85-2.29-8.76a42.68,42.68,0,0,1-7.38,13.28,10.51,10.51,0,0,1-5.84,3.65,19.42,19.42,0,0,1-6.19,1c-.73-.06-1,.39-1.3,1-.66,1.62-1.41,3.2-2.2,4.75a12.84,12.84,0,0,1-2,3.12,8.2,8.2,0,0,0-2.09,4.7,24.36,24.36,0,0,1-2.34,7.36l-.71.41h0L67,123.58a17,17,0,0,1-3,1.34H52.91A17,17,0,0,1,50,123.58l-3.29-1.9-.4-.23c1.54-1.29,3.11-2.53,4.73-3.72a39.1,39.1,0,0,0,13.16-16.54c.19-.44.31-.91.47-1.37a.24.24,0,0,1,0-.08h0a1.13,1.13,0,0,1-.08-.39,2.33,2.33,0,0,1,.5-1.14,45,45,0,0,0,2.39-4.5c.06-.09.12-.17.17-.26h0a5.45,5.45,0,0,0,.25-.55h0c.23-.53.39-1.08.63-1.61a4.16,4.16,0,0,1,.53-.92,1.21,1.21,0,0,1,.16-.16,1.09,1.09,0,0,1,.17-.13,6,6,0,0,0,3.56-4,32.81,32.81,0,0,0,1.49-6.93A2.41,2.41,0,0,1,74.64,78h0a1,1,0,0,1,.24-.26,30.77,30.77,0,0,0,2.75,5.08c3,4.21,8,6.08,12.5,4.57a13.18,13.18,0,0,0,8.57-8.31,54.28,54.28,0,0,0,2.16-9.85A31.63,31.63,0,0,1,103,62a19,19,0,0,0-.35-16.66,8.34,8.34,0,0,0-6.28-4.91h0a10.33,10.33,0,0,1-2.92.39c-4.58.74-7.58,3.4-9.45,7.51a26.6,26.6,0,0,0-1.27,3.71,7.77,7.77,0,0,1-.87,2.08l-.14.17h0a2.19,2.19,0,0,1-.2.22h0c-1.42,1.48-3.19,1.53-5.11.9A3.88,3.88,0,0,0,74,55.33a3.71,3.71,0,0,1-3-.68,14.12,14.12,0,0,1-4.52-5.56,4.81,4.81,0,0,0-2.25-2.33,6.63,6.63,0,0,1-.59-.31,3.31,3.31,0,0,1,.58.66,1.93,1.93,0,0,1,.26,2,1.75,1.75,0,0,1-1.76,1,4,4,0,0,0-3,.57c-.49.37-1.15.06-1.69-.22a5.57,5.57,0,0,1-1.57-1.1c.44,1.09,1,2.21,1.5,3.38A2,2,0,0,1,58.21,54h0c-.09.33-.4.6-1,1a3.4,3.4,0,0,1-2.35-.47A3.43,3.43,0,0,1,54,54h0a4.91,4.91,0,0,1-1.07-1.24,26.31,26.31,0,0,1-2.76-5.64s0,0,0,0c-.21-.58-.39-1.17-.57-1.76a.24.24,0,0,1,0-.08c-.35-1.22-.64-2.46-.89-3.72v0l0-.18a2.85,2.85,0,0,1-.09-1.09,0,0,0,0,1,0,0,1.08,1.08,0,0,1,.38-.66.38.38,0,0,1,0-.1c0-.2,0-.4.05-.66l.43.75v0a2.79,2.79,0,0,1,.34.53,6.94,6.94,0,0,1,.38,1.35l.12.52c.58,2.18,1.05,4.39,1.81,6.53a8.68,8.68,0,0,0,2,3.33,1.86,1.86,0,0,0,1.29.7c0-.86-.64-1.35-1-2s-1-1.12-.5-1.92v0c-.51-2.3-1-4.61-1.53-6.93a6.38,6.38,0,0,1-.29-2.84l.83,1.38,0,.06a1.08,1.08,0,0,1,.56.53c.11.23.18.48.29.7a18.68,18.68,0,0,0,2.56,4.27A5.1,5.1,0,0,0,58,47.09c-.26-.68-1-1-.76-1.81h0A8.84,8.84,0,0,0,56.17,43a24.13,24.13,0,0,1-1.91-7.8C55.55,36.91,57,38.4,58.41,40a4.81,4.81,0,0,0,1.69,1.45h0c.56,0,.81.51,1.12.88a11.82,11.82,0,0,0,4.19,3.22,19,19,0,0,1-2.32-1.67c-.36-.32-.83-.62-.66-1.23v0c-.48-1.33-1.82-1.94-2.56-3.07-.57-.86-1-1.79-1.53-2.69,1,.76,1.69,1.78,2.9,2.17l.09,0c.62-.12.93.4,1.3.74A7.68,7.68,0,0,0,67.38,42c-.28-.3-.77-.47-.61-1v0c-.7-1.57-2.11-2.63-3-4.07a6.93,6.93,0,0,1-.68-1.2,22.88,22.88,0,0,0,5.26,2.42l.06,0s0,0,0-.06c-.58-1.26-1.71-1.84-2.23-2.86-.4-.76-1.32-1.28-1.07-2.34a.88.88,0,0,1,.24,0c.45.11.69.51,1,.82A23.7,23.7,0,0,0,69.62,37c2.82,2.08,6,2.45,9.41,2,.33,0,.76-.06.91-.45s-.23-.73-.49-1a6.21,6.21,0,0,0-2.9-1.55c-1.8-.52-3.68-.66-5.49-1.1a2.87,2.87,0,0,1-1.45-.53,1.46,1.46,0,0,1-.2-.27c1.21-.53,2.37.13,3.56.15s2.51.53,4,.24c-.61-.46-1.11-.81-1.57-1.21-.23-.2-.64-.43-.23-.84h0a1.8,1.8,0,0,1,1.12.27c.2.1.4.23.6.35a14.75,14.75,0,0,0,7.84,2.35c.27,0,.62.09.77-.17s-.15-.57-.34-.8-.54-.46-.68-.78a.71.71,0,0,1-.06-.25c1.75-.62,3.31.16,4.92.68.36.12.65.46,1.21.35a34.74,34.74,0,0,0-2.86-3.81c5.41,1.51,10.69,1.53,16-.94l-3.41-2.16a20.38,20.38,0,0,1,4.65.3c.42,0,.84.09,1.25.15s.58.39.86.6h0a15.71,15.71,0,0,1,3,2.82l0,0A16.82,16.82,0,0,1,113,36.57Z"/><path class="cls-4" d="M114.73,77.78a.2.2,0,0,0-.08,0l-.06-.18A1.85,1.85,0,0,0,114.73,77.78Z"/><path class="cls-4" d="M53.18,7.31A2.08,2.08,0,0,1,52.7,8h0a1.65,1.65,0,0,1-1.21.34c-6-.38-10.34,3.54-12.33,8.94a12.09,12.09,0,0,0-1,4c1.54-3.39,4.31-5.42,7.67-7.34-1.07,2.23-2.28,4-2.85,6.08v0a1.37,1.37,0,0,1-.36.94c-2.1,2.69-2.78,5.92-3.48,9.14a26.82,26.82,0,0,0,.37,11.53c-.43-6.35.33-13,4.23-19,.41-.63.78-1.37,1.57-1.58A1.61,1.61,0,0,1,45.6,21c.53.95,0,1.87-.16,2.77a52.88,52.88,0,0,0-.59,9.32c0,.31-.05.76.35.78s.32-.46.38-.75A41.17,41.17,0,0,1,47.43,26c.27-.68.6-1.34.9-2l.3.07c0,1.08.08,2.17,0,3.24a65.42,65.42,0,0,0-.42,6.85c0,.78.35,1.55,0,2.33a8,8,0,0,1,.27,2.91,7.68,7.68,0,0,0,0,.83.48.48,0,0,0,0,.12c0,.4.07.79.11,1.18v0a13.65,13.65,0,0,0,.89,3.72c.05.13.1.25.16.38s0,.15.08.22a5.79,5.79,0,0,1,.35,1.24s0,0,0,0a1.81,1.81,0,0,1-.85,1.9,2.61,2.61,0,0,1-3.34-.6A10.55,10.55,0,0,1,43,42.81c.22,1.68,0,3.39.36,5.07a2,2,0,0,1-.17,1.26,1.69,1.69,0,0,1-.24.41l-.52.69c-.07.08-.11.2-.19.25a.21.21,0,0,1-.14,0l-.1,0a2.91,2.91,0,0,1-2.78-2.2A2.06,2.06,0,0,0,38,47c-2.15-1-3.3-2.88-4.28-4.9-.35-.73-.58-1.53-.93-2.47a11.91,11.91,0,0,0,.3,3.24c.06.61.2,1.25-.47,1.56s-1.13-.08-1.58-.53A6.47,6.47,0,0,1,29,40a3.85,3.85,0,0,0-1.55-3.08c.08-.12.15-.26.23-.39.33-.55.72-1.11,1.34-1s.52,1.13.68,1.75a13.33,13.33,0,0,0,.73,2.63c.17.35.34.81.84.69s.5-.66.41-1.08a34.34,34.34,0,0,1-.38-6.16c-.13-4.85,1.43-9.26,3.19-13.11a54.71,54.71,0,0,0-3.22,4.81c-.56,1-1.07,2-1.53,3.09-.17.37-.27,1-.81.85s-.43-.7-.46-1.12a6.36,6.36,0,0,1,0-1.31,19.3,19.3,0,0,1,6.79-12.81l2.53-1.46,5-2.89,1.31-.75a28.16,28.16,0,0,1,7.29-.8A3.92,3.92,0,0,0,53.18,7.31Z"/><path class="cls-5" d="M6.72,94.46a34.82,34.82,0,0,0,5.07,7.08l-.26-.15-.94-.58A17.09,17.09,0,0,1,6.24,96.6s0,0,0,0A17,17,0,0,1,3,86.62V84.87A41.34,41.34,0,0,0,6.72,94.46Z"/><path class="cls-5" d="M67.88,92.87h0a4,4,0,0,1-.13,1,44.58,44.58,0,0,1-3.1,5.83h0l-.05.06a42.29,42.29,0,0,1-7.93,8.54,33.15,33.15,0,0,1-20.43,7.32l-.82-.48-4.81-2.77-1-.58a30.41,30.41,0,0,0,17.6-1.92c7.85-3.16,13.42-8.87,17.31-16.3.42-.81.8-1.64,1.22-2.45.18-.35.37-.76.84-.75s.72.43.92.83A3.64,3.64,0,0,1,67.88,92.87Z"/><path class="cls-6" d="M2.6,83.2c.09.39.18.78.28,1.17-.1-.35-.18-.7-.26-1.06A.43.43,0,0,1,2.6,83.2Z"/><path class="cls-6" d="M64.15,90.45c-5.17,10.92-13.39,18-25.54,19.9a29.15,29.15,0,0,1-13.15-.92l-2.26-1.3a29.62,29.62,0,0,1-8.1-4.68l-2-1.13a31.61,31.61,0,0,1-6.41-7.86,36.62,36.62,0,0,1-3.72-9v-.57a4.54,4.54,0,0,1-.12-.5,3.74,3.74,0,0,0,.12.45V80c2.18,12.31,10.5,22.65,21.92,26.32a28.1,28.1,0,0,0,10.54,1.32h.09a25.87,25.87,0,0,0,9.76-2.33,29.17,29.17,0,0,0,10.27-7.27c.81-1.3,1.88-2.41,2.71-3.69q1-1.59,1.92-3.27a.21.21,0,0,0,0-.07c.3-.56.59-1.13.86-1.7A3.12,3.12,0,0,1,62,88l.23-.08a1.68,1.68,0,0,1,.58-.07h0a1.68,1.68,0,0,1,.58.13,2.42,2.42,0,0,1,.72.49l.12.12C64.83,89.15,64.43,89.86,64.15,90.45Z"/><path class="cls-7" d="M28.94,28.72a31.66,31.66,0,0,1,6.58-9.91c-.62,1.5-1.26,3-1.86,4.51a29.59,29.59,0,0,0-1.52,16.1c.11.67.3,1.45-.54,1.74S30.23,40.78,30,40A18.41,18.41,0,0,1,29,35.55a3,3,0,0,1-1.1,1.25,1.21,1.21,0,0,1-.48.12,9.13,9.13,0,0,1-1.56-5.5c-.23-5.62,1-10.68,4.52-14.85l1-.59,3.84-2.22,2.53-1.46C32.34,16.16,28.88,21.31,28.94,28.72Z"/><path class="cls-8" d="M15.76,45c.5,1.37,1.55,2.46,2,3.89.53,1.84.9,3.6-.62,5.2-1.08,1.12-2.34.83-3.52.44-.88-.3-1.54-.43-2.14.41a1.71,1.71,0,0,1-1.15.58C8.43,55.1,8,53.53,7.71,52c-.55-3.36-.37-6.68,1.59-9.66.38-.09.57-.41.83-.64a3.1,3.1,0,0,1,5.31,1.65A10.67,10.67,0,0,0,15.76,45Z"/><path class="cls-9" d="M18.63,87.66a7.88,7.88,0,0,1,.47,2.68,31.38,31.38,0,0,1-10-10.19,39.31,39.31,0,0,1-6-21.78,2.49,2.49,0,0,1,.34-1.59c.41-.53.83-.64,1.11.13A38.52,38.52,0,0,0,5.39,65a11,11,0,0,1,.2,1.4,6,6,0,0,0,.4,3A34.37,34.37,0,0,0,14.67,84a29,29,0,0,0,2.82,2.37A3.68,3.68,0,0,1,18.63,87.66Z"/><path class="cls-10" d="M47.74,83.82A2.75,2.75,0,0,1,48.89,86a2.52,2.52,0,0,1-1.24,1.23,27.89,27.89,0,0,1-17.77,3.46A1.86,1.86,0,0,1,28.41,90a4.14,4.14,0,0,1-.7-2.38A26.6,26.6,0,0,0,47.74,83.82Z"/><path class="cls-11" d="M5.27,66.72a34.88,34.88,0,0,1-.93-8.58c0-.42-.12-.88.25-1.23.7,1.6.42,3.34.68,5,1.33,8.72,5.25,15.91,12.4,21.21a6.25,6.25,0,0,0,.7.43c0,.72,0,1.45,0,2.18-.8.31-1.26-.31-1.77-.7A30.07,30.07,0,0,1,6.26,70.68,11.1,11.1,0,0,1,5.27,66.72Z"/><path class="cls-12" d="M39.32,61.48c.34,2.22,2.08,3.19,3.78,4.18a4.8,4.8,0,0,0,1,.34h0c.11.59.69,1.34.25,1.72s-1.16-.2-1.72-.45a12.71,12.71,0,0,1-2.74-1.59c-.22-.18-.42-.44-.58,0A11.41,11.41,0,0,1,39.32,61.48Z"/><path class="cls-13" d="M15.76,45c-.27-.61-.53-1.22-.79-1.83-.9-2.12-2.7-2.6-4.57-1.23-.33.24-.56.72-1.1.44.94-1.5,2-2.8,4-2.88a2.12,2.12,0,0,1,2,.93A13.83,13.83,0,0,1,15.76,45Z"/><path class="cls-14" d="M42,50.48l.42-.24c.49,1.25,1.67,1.69,2.69,2.34.3.19,1,.15.7.82a1,1,0,0,1-1.23.64c-1.12-.36-2.22-.79-3.33-1.19Z"/><path class="cls-15" d="M46.27,81a11.44,11.44,0,0,0,6.15-2.93,5.71,5.71,0,0,1-5.18,4.12Z"/><path class="cls-16" d="M25.56,45.9A2.59,2.59,0,0,1,25,47.2c-1.22-.71-.91-1.86-.89-2.93A3.93,3.93,0,0,1,25.56,45.9Z"/><path class="cls-17" d="M28.85,71.24c-1.42.52-.36-.72-.69-1-.11-.27,0-.39.26-.46l.63-.49C29,70,28.92,70.6,28.85,71.24Z"/><path class="cls-18" d="M28.19,56.48l.68-1a1.57,1.57,0,0,1,.18,1.23,4.86,4.86,0,0,0-.38.41c-.11.15-.19.4-.39.29s-.11-.33-.16-.51A.3.3,0,0,1,28.19,56.48Z"/><path class="cls-7" d="M69.4,34c2.4.49,4.81.94,7.19,1.47a6.19,6.19,0,0,1,3.55,2c.81,1,.62,1.54-.63,1.78-5.69,1.11-10.15-.89-13.63-5.38l-.8-1-.64-1A20.74,20.74,0,0,0,69.4,34Z"/><path class="cls-7" d="M45.59,21c-3.53,3.95-5,8.71-5.53,13.86A51.07,51.07,0,0,0,40,43.75a12.06,12.06,0,0,1-1.56-5,29.32,29.32,0,0,1,2.19-15.55A8.81,8.81,0,0,1,42.93,20l.4-.26C45,18.8,45.76,19.53,45.59,21Z"/><path class="cls-19" d="M43,49.55c.05-2.33-.48-4.65-.25-7,0-.45-.13-1,.32-1.48.14.61.28,1.11.37,1.62A12,12,0,0,0,46,47.88a3.1,3.1,0,0,0,1.69,1,1.59,1.59,0,0,0,1.73-.49,1.53,1.53,0,0,0,.32-1.65,21,21,0,0,1-1.3-3.56,40.32,40.32,0,0,1-.19-6.77c.61-.2.4.29.43.54.12.84-.19,1.73.24,2.54a25.47,25.47,0,0,0,6,15,11.35,11.35,0,0,0-3.29-.24c-.31.05-.5-.14-.54-.46a.55.55,0,0,1,.64-.25c-1.42-.63-2.34-2.16-4-2.6A3.65,3.65,0,0,1,45,50,1.86,1.86,0,0,0,43,49.55Z"/><path class="cls-7" d="M82,17.58c-.68-1.31-1.9-2.2-2.65-3.46-.13-.21-.51-.37-.23-.68s.45-.11.68,0c3.12,1.19,6.24,2.4,7.93,5.62.13.2.23.41.36.61A1.14,1.14,0,0,1,88,21a1,1,0,0,1-1.27.33,5.44,5.44,0,0,1-2-1A17,17,0,0,1,82,17.58Z"/><path class="cls-20" d="M84.41,33.33a3.91,3.91,0,0,1,1.48,1.16c.23.3.51.64.22,1.06s-.59.25-1,.25a17,17,0,0,1-10-3.43,5.46,5.46,0,0,1,3-.18A25.59,25.59,0,0,1,84.41,33.33Z"/><path class="cls-21" d="M53.89,48.59a12.26,12.26,0,0,0,1.75,3.09c.25.39.66.86.23,1.27s-1,.12-1.41-.19a6.61,6.61,0,0,1-2.17-2.63,46.27,46.27,0,0,1-2.91-10.6l0-.9a76.07,76.07,0,0,0,3.73,8.93C53.35,47.93,53.47,48.37,53.89,48.59Z"/><path class="cls-21" d="M66.77,41l1.59,1.34a6.06,6.06,0,0,1-4.62-1.18A31.92,31.92,0,0,1,61.3,39a41.21,41.21,0,0,1-2.51-4.25,5.46,5.46,0,0,1-.56-2C61,35.82,63.6,38.72,66.77,41Z"/><path class="cls-4" d="M82,17.58c1.38,1.15,2.44,2.73,4.35,3.15.44.1.88.58,1.31.22s.27-.94.12-1.44a2.42,2.42,0,0,1,0-.47,8.61,8.61,0,0,1,3.12,4.34c.07.23.26.46.09.67s-.51,0-.75,0a12.48,12.48,0,0,1-5-3C84,20,82.69,19.08,82,17.58Z"/><path class="cls-22" d="M57.22,45.26a6.14,6.14,0,0,0,1.31,1.68c.13.14.33.29.23.5s-.41.24-.62.19a3.27,3.27,0,0,1-1.56-1,16,16,0,0,1-3.65-6.33l-.18-1.39C54.2,41.21,55.25,43.57,57.22,45.26Z"/><path class="cls-23" d="M62.48,42.63c1,1.38,2.57,2.06,3.88,3.11-1.63.46-3.55-.87-6.27-4.3-.1-.7-.78-1.16-.85-2.08A21.35,21.35,0,0,0,62.48,42.63Z"/><path class="cls-2" d="M114.59,77.64l.06.18a.2.2,0,0,1,.08,0A1.85,1.85,0,0,1,114.59,77.64Zm-4.53-11.71c-.3-.24-.57-.6-1-.57a.83.83,0,0,0-.36.13,2.36,2.36,0,0,0,.35.48,19.49,19.49,0,0,1,4.9,6.79V70A25.65,25.65,0,0,0,110.06,65.93Zm-4,5.85c-.17-.18-.39-.33-.63-.16s-.2.47,0,.72l.45.54a.38.38,0,0,1,.29,0,.55.55,0,0,1,.25.23,1.16,1.16,0,0,0-.22-.13,1.4,1.4,0,0,0-.32-.06,43.34,43.34,0,0,1,1.18,5.31c.3,3.72.23,7.44.23,11.17,0,.3.18.69-.22.94-2-3.43-1.93-7.4-3.21-11.17-.17.34-.28.5-.34.67A39.39,39.39,0,0,1,99.26,89c-1.45,2.32-2.85,4.75-5.13,6.31a16.31,16.31,0,0,1-9.8,2.63A1.46,1.46,0,0,0,82.7,99a29.15,29.15,0,0,1-4.53,8.44,7.81,7.81,0,0,0-1.63,3.6,29.36,29.36,0,0,1-2.23,7.6c-.18.35-.36.7-.55,1l.71-.41,2.35-1.36,5.42-3.13,9.39-5.42,0,0,6.7-3.87,1.72-1,5.37-3.1a17.45,17.45,0,0,0,2.22-1.53,14.59,14.59,0,0,0,1.17-1,17,17,0,0,0,4.82-8.89c.07-.39.14-.78.18-1.18h0c-1.26-5.47-3-10.77-6.34-15.39A16.34,16.34,0,0,0,106.05,71.78Zm5.52,11.9a1.18,1.18,0,0,1-.39,1.39,1.4,1.4,0,0,1-1.58,0,2.41,2.41,0,0,1-1.14-2c0-.91-.19-1.81-.29-2.72a28.48,28.48,0,0,0-1.24-6.06c-.06-.17-.1-.37-.16-.56.65,1.07,1.41,2.07,2,3.17A26.41,26.41,0,0,1,111.57,83.68Zm-1.81-18.94c.19.32.61.4.94.55a14.13,14.13,0,0,1,3.28,2V66.13a9.74,9.74,0,0,0-4.32-1.8A.83.83,0,0,0,109.76,64.74ZM80.13,118.17l-.25.24A.28.28,0,0,0,80.13,118.17Z"/><path class="cls-7" d="M114.73,77.78a.2.2,0,0,0-.08,0l-.06-.18A1.85,1.85,0,0,0,114.73,77.78Z"/><path class="cls-24" d="M89.35,84c-4.2.53-6.2-.49-8.35-4.11-3.1-5.22-2.17-10.51.45-15.54,2.14-4.11,4.45-8.11,6.19-12.44,1.24-3.1,3.36-5.6,7.16-6a6.48,6.48,0,0,1,5.69,2.33,12.43,12.43,0,0,1,3.09,6.58c.17.95-.36,1.35-1.14,1.44A2.45,2.45,0,0,1,100,55.12a24.47,24.47,0,0,0-2-2.82c-2.39-2.66-6.3-2.3-8.51.73a13,13,0,0,0-1.93,4.2c-.43,1.52-.83,3.05-1.25,4.58a5.36,5.36,0,0,1-.9,1.66,23.77,23.77,0,0,0-4.16,8.74c-1.21,5.53,3,10.53,7.3,11.47C88.79,83.74,89,83.85,89.35,84Z"/><path class="cls-25" d="M57.22,55c.93-.74.66-1.59.23-2.45a22.09,22.09,0,0,1-1.8-4.48,10.3,10.3,0,0,0,2.54,2.08c.85.42,1.67.65,2.21-.45.18-.37.44-.41.79-.25a3.63,3.63,0,0,0,.79.25c.86.15,1.72.16,2.19-.73s0-1.56-.68-2.06a7,7,0,0,1-2.3-2.9,15.35,15.35,0,0,0,4.58,3.07c.32.12.49.69.68,1.08,1.18,2.31,2.44,4.55,4.65,6.06,1.1.75,2.22,1.26,3.52.45.32-.2.6,0,.89.09a9.59,9.59,0,0,0,2.17.61,3.86,3.86,0,0,0,3.84-1.32c.66,1-.28,1.49-.71,2.14-4.3,2.61-7.36,1.7-11.45-1.57-.55-.44-1.09-.91-1.62-1.38a1.06,1.06,0,0,0-1-.32,14.78,14.78,0,0,1-7-.47c-.57-.17-.87-.14-.86.59A1.8,1.8,0,0,1,57.22,55Z"/><path class="cls-26" d="M44.11,66a19.81,19.81,0,0,1,.76-10.49c.34-1,.87-1.39,2-1.08a10.33,10.33,0,0,0,3.19.1c.83,0,.9.25.69,1-.6,2.1-1.6,4-2.38,6.07a19.69,19.69,0,0,0-1.18,4.09c-.14.91-.56,1.24-1.46.87-.51-.21-1-.36-1.57-.53Z"/><path class="cls-26" d="M70.12,72.84a6,6,0,0,1-1.89,4.1c-1.69,1.61-2.56,3.69-3.59,5.69-.41.8-.84,1.61-1.29,2.4-.21.37-.45.83-1,.67s-.54-.69-.6-1.17A19,19,0,0,1,62,81.34a14.9,14.9,0,0,1,3.39-8.56,4.25,4.25,0,0,1,3.46-1.51C69.77,71.27,70.14,72,70.12,72.84Z"/><path class="cls-1" d="M48.4,92.21c-.1,2-1.42,3.32-2.86,4.51a2.22,2.22,0,0,1-2.1,1.39c-3.26,1.69-6.44,1.27-9.56-.39-.83.22-1.09-.43-1.43-1a7.78,7.78,0,0,1-1.65-1.69A1.26,1.26,0,0,1,32,94.71a29.63,29.63,0,0,0,14.84-2.28C47.32,92.22,47.83,91.92,48.4,92.21Z"/><path class="cls-9" d="M48.4,92.21a29,29,0,0,1-17,2.86,5.86,5.86,0,0,0-.59,0,7,7,0,0,1-1.68-2.88c.5-.52,1.13-.28,1.69-.21a28,28,0,0,0,13.41-1.45c1.15-.43,2.22-1,3.34-1.51.51-.21,1.08-.65,1.56.09C48.8,90.13,48.93,91.25,48.4,92.21Z"/><path class="cls-26" d="M80.81,56.19c.2-.73.73-1.34.71-2.14.84-2,1.26-4.07,2.09-6a12.39,12.39,0,0,1,11.54-7.67,11.63,11.63,0,0,1,1.17.13c.44.4.88.8,1.31,1.21a.85.85,0,0,1,.2,1.17c-.24.4-.59.38-1,.31a10,10,0,0,0-7.26,1.32,14,14,0,0,0-4,4.76c-1.33,2.19-2.66,4.39-4,6.56C81.37,56,81.32,56.57,80.81,56.19Z"/><path class="cls-27" d="M49.12,89.12c-.48-.32-.84,0-1.2.24a28.07,28.07,0,0,1-15.53,3.3c-1.09-.07-2.18-.3-3.27-.46A2.63,2.63,0,0,1,28.41,90c1.45.16,2.9.42,4.36.45a27.64,27.64,0,0,0,15.07-3.93c.34-.2.7-.38,1-.57a5.34,5.34,0,0,1,.26,1.73c.29.45.45.89,0,1.34Z"/><path class="cls-24" d="M62.07,88.19a32.94,32.94,0,0,1-6.5,9.86c0-.44.29-.72.52-1a34.87,34.87,0,0,0,4-6.61,4.37,4.37,0,0,0,.45-2.07c0-.19-.13-.5.08-.53,1.2-.17.8-1,.68-2A3,3,0,0,0,63.64,87,19.46,19.46,0,0,1,68,88.2c1.61.58,2.34.33,3.16-1.23a21.6,21.6,0,0,0,2.07-6.9,58.49,58.49,0,0,0,.26-5.95,10.93,10.93,0,0,1,1.4,3.59,25.6,25.6,0,0,1-2,9.58,4.39,4.39,0,0,1-3.5,3,2.37,2.37,0,0,1-1.68-.38c-1.28-.7-2.7-1.07-4-1.67A1.48,1.48,0,0,0,62.07,88.19Z"/><path class="cls-26" d="M62.54,69.48c-.37.77-1.15.82-1.81.92-3.44.51-5.65-.25-6.68-3.65A6.71,6.71,0,0,1,54,63.57c.18-1,.67-1.81,1.83-1.87s1.75.75,2.1,1.73c.19.52.26,1.08.42,1.61C59.19,67.93,59.74,68.51,62.54,69.48Z"/><path class="cls-28" d="M61.56,65c-1.3-3.07-.21-5.8,2.64-6.49a4.41,4.41,0,0,1,4.68,1.79c1.49,2.32,1.1,4.94-1.1,6.18C65.76,67.6,62.84,67.82,61.56,65Z"/><path class="cls-26" d="M18.84,42.62c1.36,0,4.56,2.19,5,3.29a6.66,6.66,0,0,1-1.09,3.43.47.47,0,0,1-.64-.06,30.3,30.3,0,0,1-3.9-3.43,2.25,2.25,0,0,1-.57-2.27C17.83,42.78,18.21,42.54,18.84,42.62Z"/><path class="cls-26" d="M28.19,56.48c0,.14,0,.29-.07.43-.68.53-.83,1.53-1.78,2a19.07,19.07,0,0,0-.88-4.51,10.24,10.24,0,0,0-1.86-3.55c-.39-.45-.45-.78,0-1.19a3.55,3.55,0,0,0,.52-.64c.3-.44.46-1.24,1-1.17.36.06.67.81.92,1.29A21.2,21.2,0,0,1,28.19,56.48Z"/><path class="cls-24" d="M74.91,62.26a8.06,8.06,0,0,1-1.8,4.4,1.41,1.41,0,0,1-1.92.36c-.72-.45-.27-1.07,0-1.66a8.84,8.84,0,0,0,.57-4c0-.85-.23-1.84,1.06-2,1.06-.14,1.58.35,1.87,1.77C74.8,61.49,74.85,61.92,74.91,62.26Z"/><path class="cls-26" d="M28.42,69.81l-.26.46c-.5.21-.71.84-1.44,1,.08-3.8,0-7.53-.23-11.26h0c.78-.35,1-1.33,1.93-1.81Z"/><path class="cls-29" d="M5.27,66.72a31,31,0,0,0,13.11,19,9.62,9.62,0,0,1,.25,1.92A32.22,32.22,0,0,1,6.48,71.88a32.1,32.1,0,0,1-1.3-4.18C5.1,67.36,4.94,67,5.27,66.72Z"/><path class="cls-30" d="M61.56,65a4.52,4.52,0,0,0,4.12,1.87,4.24,4.24,0,0,0,3.47-5.79l-.27-.78a4.54,4.54,0,0,1,1,4.69,4.31,4.31,0,0,1-4.4,2.38,8.11,8.11,0,0,0,3.59,1.41A5.68,5.68,0,0,1,61.56,65Z"/><path class="cls-26" d="M45.08,99.1l1.16.83a14.38,14.38,0,0,1-7.8,2c-.62,0-1.23-.26-1.19-1s.83-.65,1.28-.58a8.4,8.4,0,0,0,4.55-.34,7,7,0,0,0,1.79-.91A.15.15,0,0,1,45.08,99.1Z"/><path class="cls-26" d="M50.47,95.48c0,1.28-2.1,3.73-3.33,4-.45.09-.62-.28-.86-.52a.45.45,0,0,1,0-.72,13.71,13.71,0,0,0,2.89-3.59c.13-.25.41-.58.77-.39S50.3,95.1,50.47,95.48Z"/><path class="cls-31" d="M47.71,51a1.87,1.87,0,0,1,2.15.7,17.91,17.91,0,0,0,2.36,2.07L51,53.83c-1.2-.17-2.4-.3-3.59-.5s-1.42-.52-.6-1.56A7.19,7.19,0,0,1,47.71,51Z"/><path class="cls-31" d="M26.78,72.68,28.14,72c-.11,1.09-.18,2-.31,3A18.23,18.23,0,0,1,27.36,77c-.08.28-.15.73-.54.66s-.36-.51-.29-.81a16.81,16.81,0,0,0,.18-4C26.65,72.78,26.68,72.71,26.78,72.68Z"/><path class="cls-31" d="M46.75,68.13v4a10,10,0,0,1-1.81-3.4c-.14-.42.13-.57.51-.58Z"/><path class="cls-32" d="M46.75,68.13c-.09-.93.33-1.24,1.25-1.22a14.8,14.8,0,0,0,3.76-.1,7.21,7.21,0,0,1-5,1.32Z"/><path class="cls-32" d="M32.45,96.77l1.43,1a13.47,13.47,0,0,0-.83,3.39C32.13,99.68,32.56,98.19,32.45,96.77Z"/><path class="cls-33" d="M45.08,99.1l-.21,0a3.58,3.58,0,0,0-1.43-1l2.1-1.39C45.32,97.5,46.36,98.52,45.08,99.1Z"/><path class="cls-32" d="M49.16,89.05c0-.44,0-.89,0-1.34a8.9,8.9,0,0,0,2.9.52A4.56,4.56,0,0,1,49.16,89.05Z"/><path class="cls-34" d="M26.78,72.68a1.46,1.46,0,0,1-.07.19,12.09,12.09,0,0,1-3.28,1c1-.64,1.79-1.11,2.54-1.66S26.78,72.06,26.78,72.68Z"/><path class="cls-35" d="M26.49,60a5.9,5.9,0,0,1-2.9,1.52,18.84,18.84,0,0,0,2.37-2c.55-.44.5.13.53.46Z"/><path class="cls-36" d="M2.6,83.2c.09.39.18.78.28,1.17-.1-.35-.18-.7-.26-1.06A.43.43,0,0,1,2.6,83.2Z"/><path class="cls-36" d="M15.1,103.45l-2-1.13-1.34-.78-.26-.15-.94-.58A37.77,37.77,0,0,1,3,86.18V84.87a4.54,4.54,0,0,1-.12-.5,3.74,3.74,0,0,0,.12.45A35,35,0,0,0,9.76,98.13,34.42,34.42,0,0,0,15.1,103.45Z"/><path class="cls-36" d="M69.41,90.3c-.67,1.14-.85,2.52-1.66,3.6a3.45,3.45,0,0,1-.12-.46,7.26,7.26,0,0,0-.6-2.28c-.12-.2-.16-.49-.44-.5s-.3.33-.4.52a41.68,41.68,0,0,1-5.83,9.49,32.27,32.27,0,0,1-18,11.26,31.7,31.7,0,0,1-11.75.48l-1-.58-4.15-2.4-2.26-1.3a30.12,30.12,0,0,0,5.21,1.49c9.69,1.9,18.29-.56,25.89-6.74a34.18,34.18,0,0,0,9.38-12.43c.84-1.83.5-2.3-1.61-2.26a.7.7,0,0,1,.17-.31.55.55,0,0,1,.58-.07h0l.3.08.28,0a19,19,0,0,1,5.77,2.23Z"/><path class="cls-7" d="M75.14,111.64a44.4,44.4,0,0,1-3.71,8.7,3,3,0,0,1-2.59,1.39,1.67,1.67,0,0,1-1.68-.66,1.8,1.8,0,0,1,.21-2,38.25,38.25,0,0,1,4-4.09C72.54,113.81,73.86,112.75,75.14,111.64Z"/><path class="cls-7" d="M77.36,99.81c-1,3.17-1.76,6.07-3.75,8.44A3.78,3.78,0,0,1,70,109.78c-.51-.09-1.23-.24-.69-1.07a35.26,35.26,0,0,1,7.4-8.48C76.78,100.14,76.92,100.07,77.36,99.81Z"/><path class="cls-20" d="M114,66.74v3.9a33.71,33.71,0,0,0-3.85-4.16.46.46,0,0,0-.07-.07l-.52-.45a1.56,1.56,0,0,0-.81-.47l-1.16-1.33,2.09.17,1.45.71h0A16,16,0,0,1,114,66.74Z"/><path class="cls-20" d="M72.46,46a16.47,16.47,0,0,1,4.65,1.42,4.7,4.7,0,0,1,2,4c-.18.84-.68.83-1.33.55C75.13,50.88,73.65,48.72,72.46,46Z"/><path class="cls-20" d="M113,36.57c-3.36-1.45-4.75-5-7.26-7.26a11.36,11.36,0,0,1,4.27,2l0,0A16.82,16.82,0,0,1,113,36.57Z"/><path class="cls-37" d="M58.68,42a9.9,9.9,0,0,1,3.24,4.69C60.59,46.32,60,45.44,58.68,42Z"/><path class="cls-7" d="M36.18,21.46a24.61,24.61,0,0,0-1,9,38.35,38.35,0,0,1,5-9.59c-.68,2-1.49,4-2.14,6.07a28.86,28.86,0,0,0,0,16.72c.11.4.46.93.13,1.2s-.9-.11-1.27-.38c-2.24-1.56-3.18-3.94-3.64-6.45A25.06,25.06,0,0,1,35,23.77,6.87,6.87,0,0,1,36.18,21.46Z"/><path class="cls-22" d="M44.22,33.19a57.45,57.45,0,0,0,2.14,13c.07.23.22.49,0,.65s-.45-.07-.65-.19a1.89,1.89,0,0,1-.74-.91A17.51,17.51,0,0,1,44.22,33.19Z"/><path class="cls-38" d="M12.89,52a12.68,12.68,0,0,1-.83-7.71.9.9,0,0,1,.87-.83c.53,0,.66.47.85.87s0,.88.25,1.25c.38,1.67.88,3.32,1.33,5a2,2,0,0,1-.09,1.4C14.79,52.92,13.85,52.93,12.89,52Z"/><path class="cls-39" d="M8.66,50.21a12.59,12.59,0,0,1,.59-5c.16-.41.29-1.06.88-.94s.35.72.36,1.13c0,1.07,0,2.14.08,3.2a8.65,8.65,0,0,0,.49,2.31,5.16,5.16,0,0,1,.24,1.28,1,1,0,0,1-.8,1.17,1.09,1.09,0,0,1-1.35-.69A9.62,9.62,0,0,1,8.66,50.21Z"/><path class="cls-40" d="M12.89,52c.59.25,1.16.83,1.83.23s.41-1.24.24-1.89A18,18,0,0,1,14,45.53a22.71,22.71,0,0,1,1.75,5.8c.08.83,0,1.73-.94,1.93A1.64,1.64,0,0,1,12.89,52Z"/><path class="cls-41" d="M8.66,50.21c.22.67.42,1.34.65,2,.17.5.38,1,1,.88s.67-.74.61-1.26c-.08-.77-.26-1.54-.38-2.32a7.35,7.35,0,0,1,0-.94c.36,1.16.74,2.31,1.07,3.48a1.37,1.37,0,0,1-.88,1.9c-.93.31-1.42-.31-1.78-1A4.6,4.6,0,0,1,8.66,50.21Z"/><path class="cls-7" d="M79.88,118.41l.25-.24A.28.28,0,0,1,79.88,118.41Z"/><path class="cls-7" d="M83.38,106.56c-.14,2.81-.16,5.66-1.14,8.23l-5.42,3.13a20.4,20.4,0,0,1,2.2-4.5C80.49,111.15,81.87,108.82,83.38,106.56Z"/><path class="cls-7" d="M108.84,98.81a14.59,14.59,0,0,1-1.17,1L107,96.78l.31-.14A8.58,8.58,0,0,1,108.84,98.81Z"/><path class="cls-7" d="M105.87,72.88c.12-1.17.57-.25.7-.06.89,1.26,1.81,2.51,2.57,3.85A27.59,27.59,0,0,1,112,83.56c.2.8.23,1.49-.57,2a1.91,1.91,0,0,1-2.23-.15A3.15,3.15,0,0,1,108,82.89a35.07,35.07,0,0,0-1.6-9,2.06,2.06,0,0,0-.52-1Z"/><path class="cls-4" d="M80.13,118.17a.28.28,0,0,1-.25.24Z"/><path class="cls-20" d="M87.7,98.91a40.49,40.49,0,0,1,1.49,10.48,2.23,2.23,0,0,1-1.31,2c-.75.48-1.5-.09-1.57-1.1a33.31,33.31,0,0,1,.6-6.83C87.13,101.91,87.43,100.41,87.7,98.91Z"/><path class="cls-20" d="M100.08,104.49l-1.72,1c.14-.75.24-1.5.35-2.26a22.55,22.55,0,0,0,.2-5.13,14.79,14.79,0,0,1,.86,3.82C99.91,102.77,100,103.63,100.08,104.49Z"/><path class="cls-4" d="M91.66,109.25v.1l0,0Z"/><path class="cls-42" d="M67,60.74a18.32,18.32,0,0,1,.89,2.51,2.71,2.71,0,0,1-1.88,3.15,2.87,2.87,0,0,1-3.33-1.61,2.64,2.64,0,0,1,1.34-3.4l.31-.18a.53.53,0,0,1,.12,0C66,62,66,62,67,60.74Z"/><path class="cls-43" d="M67,60.74c0,.63.15,1.33-.73,1.5s-1.65,0-1.94-1C64.91,59.7,65.91,59.52,67,60.74Z"/><path class="cls-44" d="M114,86.62V42.24a17.06,17.06,0,0,0-8.53-14.77L67,5.29A17,17,0,0,0,50,5.29L11.53,27.47A17.06,17.06,0,0,0,3,42.24V86.62a17.06,17.06,0,0,0,8.53,14.77L50,123.58a17.1,17.1,0,0,0,17.06,0l38.42-22.19A17.06,17.06,0,0,0,114,86.62Z"/></g></g></svg>