<svg xmlns="http://www.w3.org/2000/svg" viewBox="0 0 116.97 128.86"><defs><style>.cls-1{fill:#11a8fe;}.cls-2,.cls-80{fill:none;}.cls-3{fill:#005dd7;}.cls-4{fill:#87b8dd;}.cls-5{fill:#fefefe;}.cls-6{fill:#a0d5f1;}.cls-7{fill:#fcfdfe;}.cls-8{fill:#fdfdfe;}.cls-9{fill:#fdfefe;}.cls-10{fill:#fbfdfe;}.cls-11{fill:#f7fcfe;}.cls-12{fill:#d1edfd;}.cls-13{fill:#fbfcfe;}.cls-14{fill:#f8fafd;}.cls-15{fill:#3982e1;}.cls-16{fill:#c0d9ec;}.cls-17{fill:#4d88b4;}.cls-18{fill:#004189;}.cls-19{fill:#d4ecf9;}.cls-20{fill:#346e97;}.cls-21{fill:#254c6b;}.cls-22{fill:#264c6b;}.cls-23{fill:#37709a;}.cls-24{fill:#37719b;}.cls-25{fill:#254c6c;}.cls-26{fill:#254b6a;}.cls-27{fill:#010203;}.cls-28{fill:#356e97;}.cls-29{fill:#356d96;}.cls-30{fill:#9ab1c3;}.cls-31{fill:#c2e8f8;}.cls-32{fill:#fdfdfd;}.cls-33{fill:#f15fad;}.cls-34{fill:#97aec1;}.cls-35{fill:#e7f2fa;}.cls-36{fill:#de1e80;}.cls-37{fill:#c6d1c3;}.cls-38{fill:#c6d2c3;}.cls-39{fill:#e4e7e4;}.cls-40{fill:#e6e9e6;}.cls-41{fill:#e7eae7;}.cls-42{fill:#de2081;}.cls-43{fill:#e7ebe7;}.cls-44{fill:#fc9bcd;}.cls-45{fill:#e6eae6;}.cls-46{fill:#c6d1c4;}.cls-47{fill:#c5d0c2;}.cls-48{fill:#c7d1c4;}.cls-49{fill:#c7d2c3;}.cls-50{fill:#fdfcfc;}.cls-51{fill:#de2181;}.cls-52{fill:#e5e8e5;}.cls-53{fill:#df2382;}.cls-54{fill:#df2483;}.cls-55{fill:#de2583;}.cls-56{fill:#e7eae6;}.cls-57{fill:#de2382;}.cls-58{fill:#e6e8e5;}.cls-59{fill:#de2784;}.cls-60{fill:#e02483;}.cls-61{fill:#df2383;}.cls-62{fill:#d72882;}.cls-63{fill:#dc2482;}.cls-64{fill:#fe9acd;}.cls-65{fill:#e12685;}.cls-66{fill:#e02584;}.cls-67{fill:#280c45;}.cls-68{fill:#19092b;}.cls-69{fill:#f74fa6;}.cls-70{fill:#fa4fa6;}.cls-71{fill:#e5e9e5;}.cls-72{fill:#fcfcfc;}.cls-73{fill:#e0e4e1;}.cls-74{fill:#e3e6e2;}.cls-75{fill:#e4e6e3;}.cls-76{fill:#e3e6e3;}.cls-77{fill:#fcfcfd;}.cls-78{fill:#e5e6e4;}.cls-79{fill:#fbfbfb;}.cls-80{stroke:#003aad;stroke-miterlimit:10;stroke-width:6px;}</style></defs><g id="Calque_2" data-name="Calque 2"><g id="Calque_8" data-name="Calque 8"><path class="cls-1" d="M114,41.8a4.64,4.64,0,0,0,0-.53A17,17,0,0,0,106,27.82a6.53,6.53,0,0,0-.56-.35l-3.77-2.17L67,5.29A16.8,16.8,0,0,0,63,3.6H54a16.8,16.8,0,0,0-4,1.69L11.53,27.47A17,17,0,0,0,3,41.88l-.38.54L3,42.13V77.91c.83-.82,1.66-1.62,2.44-2.47.64-.68,1-.56,1.38.24A39.35,39.35,0,0,0,16,87.51a81,81,0,0,0,13.2,9.66c.42.25.86.62,1.43.36a.17.17,0,0,0,0-.07.13.13,0,0,0,0-.06h0c.07-.55-.42-.79-.73-1.12-1.38-1.48-2.93-2.79-4.19-4.39,0,0,0,0,0,0l-.11-.12A9.23,9.23,0,0,1,24.22,90a10.13,10.13,0,0,0,1.37,1.69l.11.12c.06.06.11.12.17.17a22.48,22.48,0,0,0,6.34,4.82c5.43,3,11.38,4,17.45,4.53a10.34,10.34,0,0,0,4.14-.19.53.53,0,0,0,0-.12v0c0-.68-.67-.51-1-.58a73.32,73.32,0,0,1-19.7-6.87,49,49,0,0,1-11.52-8.66,58.56,58.56,0,0,1-5.63-6.65v0c-.09-.11-.17-.23-.26-.35h0l-.23-.3a4.14,4.14,0,0,0-1-.69,24.48,24.48,0,0,1-6.31-5.1,15.13,15.13,0,0,1-4-11.55c.08-1.4.21-2.79.17-4.18a25.07,25.07,0,0,1,1-7.46C6.86,43,10.1,38.69,15.52,36.2c1.28-.59,2.66-.92,3.95-1.45l.15-.06h0l0,0a.86.86,0,0,0,0-.89.75.75,0,0,0-.23-.15.23.23,0,0,0-.11,0,2.17,2.17,0,0,0-.78.16,40.41,40.41,0,0,0-4.79,1.53,29.75,29.75,0,0,0-9.1,5.11,32.36,32.36,0,0,1,8.13-6.11,38.5,38.5,0,0,1,6.78-2.55h0l.16,0,.1,0a1.42,1.42,0,0,0,.43-.57c1.41-3.06,3.49-5.36,7-6a.71.71,0,0,0,.28-.18h0a.08.08,0,0,0,0,0A5.2,5.2,0,0,0,28,24.1s0,0,0,0l.09-.13a11.37,11.37,0,0,1,4.67-3.38,55.1,55.1,0,0,1,19.63-4.43,100.86,100.86,0,0,1,14.12.13A58.85,58.85,0,0,1,83,19.85c2.32.91,4.63,1.92,6.27,4l0,0a1.18,1.18,0,0,1,.11.19,3,3,0,0,0,.49.78l0,.05a0,0,0,0,0,0,0,.28.28,0,0,0,.08.06,9.75,9.75,0,0,1,7.26,6.54.64.64,0,0,0,.39.41h0l.15,0h0a8.73,8.73,0,0,1,1.24.23,30.53,30.53,0,0,1,13.8,8.34c-.22-.19-.45-.38-.69-.56A37.61,37.61,0,0,0,99.05,33.8a1.1,1.1,0,0,0-1,.06h0a.56.56,0,0,0-.16.15.69.69,0,0,0,.05.64s0,0,0,.06l0,0a2.35,2.35,0,0,0,.83.32c8.18,2.45,12.61,8.12,14,16.37.65,3.87.35,7.77.44,11.67a4.51,4.51,0,0,1-.12.82c-.62,4.28-3,7.47-6.15,10.23a45,45,0,0,1-5,3.42l-.26.37h0l-.24.34h0A51.75,51.75,0,0,1,92.47,88,55.8,55.8,0,0,1,82,94.83c-1.38.71-2.9,1.09-4.22,1.94l0,0,0,0A5.1,5.1,0,0,0,82.67,98a24.54,24.54,0,0,0,9.66-6.83,44.6,44.6,0,0,1-5,5.29c-.31.27-.75.48-.65,1h0c1.08.27,1.82-.48,2.6-.94A75.31,75.31,0,0,0,101,87.94a39.13,39.13,0,0,0,9-11.09c1.07-2.08,1-2,2.76-.51.4.35.77.75,1.16,1.13V42.24A3.17,3.17,0,0,0,114,41.8Zm-110-.69-.58.58A3.53,3.53,0,0,1,3.91,41.11Z"/><path class="cls-2" d="M114,41.8a4.64,4.64,0,0,0,0-.53A17,17,0,0,0,106,27.82a6.53,6.53,0,0,0-.56-.35l-3.77-2.17L67,5.29A16.8,16.8,0,0,0,63,3.6H54a16.8,16.8,0,0,0-4,1.69L11.53,27.47A17,17,0,0,0,3,41.88l-.38.54L3,42.13V86.62A17,17,0,0,0,7.4,98a2.81,2.81,0,0,0,.29.31,16.83,16.83,0,0,0,3.84,3l.29.17.36.21,19.67,11.35,7.59,4.39L50,123.58a17.17,17.17,0,0,0,4,1.68h9A17.17,17.17,0,0,0,67,123.58l11-6.37,7.07-4.08,20.32-11.74A17.06,17.06,0,0,0,114,86.62V42.24A3.17,3.17,0,0,0,114,41.8Z"/><path class="cls-3" d="M114,77v4.23a3.13,3.13,0,0,1-1.17.47,3.32,3.32,0,0,0-2.42,2c-1.73,3-4.63,4.4-7.75,5.46a2.38,2.38,0,0,0-1.06.44,2.51,2.51,0,0,0,2,.87,8,8,0,0,0,5-1.39A23.48,23.48,0,0,0,114,84.19v2.43a17.06,17.06,0,0,1-8.53,14.77L85.12,113.13l-7.07,4.08-11,6.37A17.17,17.17,0,0,1,63,125.26H54a17.17,17.17,0,0,1-4-1.68l-10.51-6.07-7.59-4.39L12.18,101.77l-.36-.21a1.69,1.69,0,0,0-.64-1.35,12.64,12.64,0,0,0-2.69-1.77,1,1,0,0,0-.8-.09A2.81,2.81,0,0,1,7.4,98,17,17,0,0,1,3,86.62v-3a24.2,24.2,0,0,0,5.58,5.19,8.66,8.66,0,0,0,5.28,1.64,2.69,2.69,0,0,0,2.06-.83,3.27,3.27,0,0,0-1.46-.6c-2.13-.68-4.05-1.63-5.23-3.69-.34-.58-.88-1-1.22-1.62a1.13,1.13,0,0,0-1.38-.62A2.62,2.62,0,0,1,4,82.18c-.3-.35-.64-.66-1-1V77.57l2.85-2.9c.68-.7.78,0,.94.4A36,36,0,0,0,11,81.85a51.7,51.7,0,0,0,9.07,8.79,72.11,72.11,0,0,0,9,6.13,3.68,3.68,0,0,0,1.55.69h.08c.59-.1,1,.3,1.36.62A33.77,33.77,0,0,0,50,105.46a129.1,129.1,0,0,0,13.63.56,4.34,4.34,0,0,1,1.89.19.35.35,0,0,1,.14.13h0a.44.44,0,0,1,.06.16h0s0,0,0,0c-.58,1.51-.27,2,1.43,2.11a15.83,15.83,0,0,0,7.1-1.17,2.25,2.25,0,0,0,.53-.28c.44-.3.85-.66.73-1.25s-.66-.61-1.13-.69c-.19,0-.39,0-.59-.08a1.18,1.18,0,0,1-.33-.12h0a.34.34,0,0,1-.08-.09.35.35,0,0,1-.1-.18h0a0,0,0,0,1,0,0s0,0,0,0c.27-.51.81-.57,1.28-.72a34.76,34.76,0,0,0,10.84-5.86c.38-.3.72-.77,1.32-.64h0a22.81,22.81,0,0,0,5.48-3.11,79.38,79.38,0,0,0,9.66-7.58A38.29,38.29,0,0,0,111,74.28Z"/><path class="cls-4" d="M89.64,23.84l.39,1c-1.43.7-1.48,2.26-2.16,3.43a17.78,17.78,0,0,1-2.13,3.46,2.59,2.59,0,0,0-.31,3.18c.22.38.33.81.54,1.2,1.81,3.05,4,5.65,7.52,6.82,2.35.79,4.25-.66,4.43-3.16.06-.82-.21-1.68.26-2.45.34-.12.54.12.67.34a18.5,18.5,0,0,1,2.3,4.49c0,.48,0,1,.07,1.44a7.61,7.61,0,0,1-2,6.94,1.07,1.07,0,0,0,1.6-.5,6.12,6.12,0,0,0,.68-2.76c.09-1.14-.28-2.28,0-3.43.74-.15.72.53,1,.89a40.34,40.34,0,0,1,2,5.95,8,8,0,0,1-.39,2.22,4.3,4.3,0,0,1-2.85,3.25.94.94,0,0,0-.51.27.35.35,0,0,0,0,.11,1.77,1.77,0,0,0,2.74-.34,4.67,4.67,0,0,0,.92-2.41c.08-.41,0-.9.44-1.16.84.7.64,1.76.92,2.66a16.87,16.87,0,0,0,.25,2.24c-.13,2.23-.77,4.13-3.21,4.87.41,1,1.28.86,2,1.07a.86.86,0,0,1,0,.91,23.11,23.11,0,0,1-2.61,4.28.93.93,0,0,1-.71.39c-.42-.2-.47-.62-.56-1a68.07,68.07,0,0,0-2.75-8.92,1.88,1.88,0,0,1-.09-.28c.56,1.71,1.24,3.49,1.73,5.33a15.42,15.42,0,0,1,.83,6.25c-.2.43-.4.86-1,.71a2.35,2.35,0,0,1-.44-1.23c-.76-5.36-2.74-10.31-4.93-15.22a53.23,53.23,0,0,0-4.54-8.28c-2.85-4.15-6.81-5-11.25-3.56a67.91,67.91,0,0,1-16.26,3.27,61.58,61.58,0,0,1-23-3.22A11.76,11.76,0,0,0,33,42.43a8.15,8.15,0,0,0-5.12,3.87A60.11,60.11,0,0,0,18.2,70.72a1.38,1.38,0,0,1-.19.56c-1,.22-1-.62-1.3-1.12-.25-1.92.38-3.71.83-5.52A45.15,45.15,0,0,1,19.32,59a61.66,61.66,0,0,0-2.81,9.22,1.07,1.07,0,0,1-.42.71c-.38.15-.62-.09-.8-.34a27.43,27.43,0,0,1-2.46-3.92,1.11,1.11,0,0,1-.06-1,.9.9,0,0,1,.39-.25c.53-.18,1.23-.31,1.32-.88s-.7-.47-1.06-.75a5.39,5.39,0,0,1-1.94-4c0-.94.21-1.85.34-2.78s0-1.95.92-2.63c.57.27.41.81.42,1.25a4.71,4.71,0,0,0,.62,2.27,2,2,0,0,0,3.18.5c-3-.72-3.7-3.07-4-5.66a59,59,0,0,1,1.94-6.09c.21-.38.36-.83.95-.55a3.35,3.35,0,0,1,.1,2.1,6.85,6.85,0,0,0,.6,3.71,1.17,1.17,0,0,0,1.73.64C15.7,48,15.94,45,16.4,41.88a14.51,14.51,0,0,1,2-3.88c.16-.26.34-.55.73-.5.38.39.29.89.29,1.35a6.19,6.19,0,0,0,.4,2.22A3,3,0,0,0,23.74,43a9.14,9.14,0,0,0,4-2.43c1.28-1.35,2.76-2.52,3.58-4.26.19-.35.35-.72.54-1.07a3.05,3.05,0,0,0-.42-3.83,15.76,15.76,0,0,1-2-3.38,5.86,5.86,0,0,1-.56-1.29,3,3,0,0,0-1.42-1.91c0-.26,0-.53.25-.7,1.21-.63,2.49-.34,3.73-.22a19,19,0,0,1,5.06,1.36c2.71,1,5.33,2.3,8.14,3.1A42.07,42.07,0,0,0,54.43,30c2.19.22,4.38-.07,6.57,0a37.62,37.62,0,0,0,11.64-1.64c3.07-.87,6-2.22,8.93-3.36A17.24,17.24,0,0,1,89.64,23.84Z"/><path class="cls-5" d="M102.28,44.72l-.68-1a.69.69,0,0,1-.31-1,1.11,1.11,0,0,1,1.14.05,17.42,17.42,0,0,1,9.62,9,2.84,2.84,0,0,1,.28.91c-.21-6.35-5-12.84-11.46-15.56-.74-.3-1.49-.58-2.22-.89-.5-.22-.94-.48-.93-1.12a.79.79,0,0,1,.29-.67c8.17,2,13,7.26,14.82,15.33a22.43,22.43,0,0,1,.56,8,7.86,7.86,0,0,0,.18,1.65c.61,6.18-1.83,11-6.45,14.94a34.71,34.71,0,0,1-5.06,3.36c-1.21,1.15-2.83,1.44-4.32,2a37.83,37.83,0,0,1-5.57,1.4A3.92,3.92,0,0,0,90,82.3a45.63,45.63,0,0,1-9.19,7.43C74.55,93.51,67.92,96,60.46,95.9c-4-.05-8,0-11.9-1a45.2,45.2,0,0,1-16.7-8.59,26.37,26.37,0,0,1-3.41-3.18,6.38,6.38,0,0,0-4-2.17,34.94,34.94,0,0,1-6.78-1.93,5.77,5.77,0,0,1-2.38-1.32,26.81,26.81,0,0,1-7.36-5.66,15.65,15.65,0,0,1-4-12.81,13.64,13.64,0,0,0,.06-2c-.19-6.18,1.09-11.92,5.2-16.74a18.23,18.23,0,0,1,10.28-5.92c.5.22.39.64.34,1-.29.69-1,.76-1.57.95a19.73,19.73,0,0,0-9.71,7.08,15.14,15.14,0,0,0-3.3,8.45,1.6,1.6,0,0,1-.16.88C6,49.6,8.26,47.16,11,45.09a12.81,12.81,0,0,1,3.85-2.16c.41-.13.9-.48,1.29.09a.86.86,0,0,1-.38,1l-.74.66a1.12,1.12,0,0,1-.47.67c-3.06,2.21-4.51,5.39-5.25,8.93a21.82,21.82,0,0,0,0,9.91,21,21,0,0,0,6.42,9.89A27.4,27.4,0,0,0,25,79.41c-.12-.41-.45-.74-.41-1.18.14-1,.64-.69,1.15-.31a39.56,39.56,0,0,0,9.47,7.45,5.84,5.84,0,0,0,3.31.76,2.48,2.48,0,0,1,2.21.93,7.14,7.14,0,0,0,3,2,44.57,44.57,0,0,0,11.44,2.45,42.47,42.47,0,0,0,16.55-1.79c7.58-2.35,14.56-5.76,20-11.72.26-.26.48-.59.93-.45.6.83,0,1.39-.45,2,7.51-2.81,13.32-7.35,15.89-15.27,1.26-6.66.71-12.89-4.25-18.08C103.38,45.65,102.73,45.3,102.28,44.72Z"/><path class="cls-3" d="M15.3,77.74a46.06,46.06,0,0,0,11,3.28,2.48,2.48,0,0,1,1.35.92A45,45,0,0,0,49,94.69c3.72,1,7.51.84,11.3.88,10.06.09,18.44-4,26-10.26A9.62,9.62,0,0,0,87.73,84a9.91,9.91,0,0,1,6.75-3.75,32.69,32.69,0,0,0,7.58-2.49,29.83,29.83,0,0,1-4,5.31A51.47,51.47,0,0,1,82,95.17a21.31,21.31,0,0,1-4.09,1.64,1.29,1.29,0,0,1-1.26-.51.81.81,0,0,0-1.26-.06c-2.44,2.3-5.62,2.94-8.67,3.8a33.4,33.4,0,0,1-11.46,1.37c-.47,0-1,.07-1.34-.36-3.52-.92-7.09-1.63-10.55-2.79a55,55,0,0,1-17.38-9A50.15,50.15,0,0,1,15.3,77.74Z"/><path class="cls-6" d="M89.64,23.84a.67.67,0,0,1-.64.26c-4-.34-7.52,1.26-11.09,2.71a32.22,32.22,0,0,1-5.12,1.84c-2.42.19-4.83-.17-7.25-.1-1.76.05-3.51-.14-5.26-.15-4.22,0-8.44.08-12.66.33-1,.06-2-.23-3.07-.08a45.4,45.4,0,0,1-6.78-2.56,21.52,21.52,0,0,0-10-2,4.35,4.35,0,0,1,2.06-2.23c3.85-2.59,8.25-3.7,12.69-4.73,7.51-1.76,15.15-1.73,22.75-1.34a53.41,53.41,0,0,1,19.48,4.41,16.93,16.93,0,0,1,3.79,2.27A2.89,2.89,0,0,1,89.64,23.84Z"/><path class="cls-5" d="M53.87,101.05c6.57.51,12.79-.94,18.84-3.34a9.75,9.75,0,0,0,2.58-1.89c.58-.49,1-.72,1.46.13a2,2,0,0,0,1.11.86,6,6,0,0,0,6,.4,28,28,0,0,0,8.22-6.06,11.66,11.66,0,0,1,1.3-1.23c-1.74,3-4.26,5.22-6.67,7.58a37.37,37.37,0,0,1-13.39,7.21c-.08.09-.15.22-.26.25a22.48,22.48,0,0,1-7.43,1.39c-3.24-.06-6.47-.18-9.7-.16-9.44,0-17.94-2.58-25.22-8.73C29,95.65,27,94.08,25.55,92c-.06-.25,0-.35.29-.3,6,6,13.49,8.2,21.58,9.13A38.61,38.61,0,0,0,53.87,101.05Z"/><path d="M98,34.56l-.13,1.18c0,.33.2.64.08,1a8.13,8.13,0,0,1-1.69,3.12,4,4,0,0,1-4.12,1.27,7.86,7.86,0,0,1-5.26-3.61c.32-.62.74-.23,1.08-.06a8.21,8.21,0,0,0,2.31.92,3.38,3.38,0,0,0,4.25-3.31A8.45,8.45,0,0,0,94,31.42c.17-2.26-.59-3.49-2.33-4-1.09-.33-1.8.34-2.63.74a2.07,2.07,0,0,1-1.41,0,19.24,19.24,0,0,0,.73-2A1.51,1.51,0,0,1,90,24.81c4.11.55,6.23,3.31,7.62,6.87a1.71,1.71,0,0,1,.36,2.2Z"/><path d="M19.54,35.86c0-.43-.05-.85-.08-1.27,0-.26,0-.52,0-.77a2,2,0,0,1,.37-2.32,12.81,12.81,0,0,1,3.07-4.63,7.66,7.66,0,0,1,4.6-2.06A1.44,1.44,0,0,1,29,26.1,10.16,10.16,0,0,0,29.73,28a1.42,1.42,0,0,1-1.32.21,2.92,2.92,0,0,0-4,0,2.68,2.68,0,0,0-1,3c-.27,1.39-.78,2.72-.44,4.23.65,2.85,2.4,3.53,5,2.83a7.58,7.58,0,0,0,2-1.07c.29-.18.61-.64,1-.09a8.27,8.27,0,0,1-5.82,4.11,4,4,0,0,1-4.57-2,7.47,7.47,0,0,1-1.11-2.87A.74.74,0,0,1,19.54,35.86Z"/><path class="cls-5" d="M114,80.9v3.73a22.82,22.82,0,0,1-5.35,4.7,8.36,8.36,0,0,1-5,1.42,9.62,9.62,0,0,1-1.18-.18c-.65-.14-1.39-.45-1.42-1.09s.82-.41,1.26-.55c3.33-1,6.29-2.6,8-5.77a2.55,2.55,0,0,1,2.13-1.7A3.64,3.64,0,0,0,114,80.9Z"/><path class="cls-5" d="M16.42,89.4c.07.34-.24.58-.51.74a5.69,5.69,0,0,1-4.85.23,13.28,13.28,0,0,1-4.68-2.81A26.44,26.44,0,0,1,3,84.08V80.75c.55.58,1.14,1.14,1.71,1.7A2,2,0,0,0,7,82.76c.57-.22.73-.08,1,.34.39.6.92,1.11,1.27,1.73,1.44,2.54,3.84,3.57,6.49,4.25C16,89.14,16.35,89.07,16.42,89.4Z"/><path class="cls-7" d="M98,33.88h0l-.33-2,0-.2a.55.55,0,0,1,.56-.11,30.36,30.36,0,0,1,15.73,9.7,4.64,4.64,0,0,1,0,.53C109.38,37.61,103.92,35.3,98,33.88Z"/><path class="cls-8" d="M19.8,31.5l0,.19-.3,1.94,0,.19A39,39,0,0,0,5.78,39.89c-1,.71-1.84,1.5-2.78,2.24l-.37.29L3,41.88a24,24,0,0,1,3.34-3.5A29,29,0,0,1,19.8,31.5Z"/><path class="cls-9" d="M106,27.82c-.27.82-.92,1.12-2,1.08a11.58,11.58,0,0,1-3.18-1.07,1.19,1.19,0,0,1-.65-1.41,1.36,1.36,0,0,1,1.15-1.09l.32,0,3.77,2.17A6.53,6.53,0,0,1,106,27.82Z"/><path class="cls-9" d="M19,86.69a9.33,9.33,0,0,1-3.62-1.47,1.31,1.31,0,0,1-.5-1.68,1.23,1.23,0,0,1,1.49-.7,12.21,12.21,0,0,1,3.57,1.24,1.42,1.42,0,0,1,.85,1.77C20.47,86.59,19.77,86.7,19,86.69Z"/><path class="cls-7" d="M7.88,32.27a1.51,1.51,0,0,1-.66,1.21A9.4,9.4,0,0,1,4.7,34.82a17.13,17.13,0,0,1,2.48-3.76A1.12,1.12,0,0,1,7.88,32.27Z"/><path class="cls-10" d="M114,70.86v1.53a.9.9,0,0,1-.38-.76A1.46,1.46,0,0,1,114,70.86Z"/><path class="cls-11" d="M18.21,25.34c-.46-.08-1,0-1.17-.46s.57-.38.78-.67a.73.73,0,0,1,.09-.08c.5-.43,1-.79,1.69-.38a.62.62,0,0,1,.18.85A1.56,1.56,0,0,1,18.21,25.34Z"/><path class="cls-12" d="M25.84,91.71l-.29.3a6.12,6.12,0,0,1-1.72-2.61Z"/><path class="cls-1" d="M39.44,117.51l-7.59-4.39c1.3.14,2.62.13,3.93.17a4,4,0,0,1,3.69,3.17A3.67,3.67,0,0,1,39.44,117.51Z"/><path class="cls-1" d="M85.12,113.13l-7.07,4.08a3.74,3.74,0,0,1,0-1.1,3.78,3.78,0,0,1,3.44-2.81C82.75,113.3,83.94,113.24,85.12,113.13Z"/><path class="cls-1" d="M64.84,117.38c1.62,0,2.78,0,3.94,0a1.81,1.81,0,0,1,2,1.22,2.7,2.7,0,0,1-.57,2.75A4.56,4.56,0,0,1,67,122.82c-3,0-5.81,1.07-8.78.78-2.8-.28-5.6-.57-8.39-.92a4.59,4.59,0,0,1-2.33-1.13c-1.11-.9-1.07-2,.16-2.74a5.12,5.12,0,0,1,2.27-.68c2.54-.19,5.08-.43,7.62-.47S62.71,117.19,64.84,117.38Z"/><path class="cls-9" d="M73.82,105c.82,0,1.84-.16,2.1.9s-.66,1.57-1.47,1.88a14.84,14.84,0,0,1-8.4,1.06,1.3,1.3,0,0,1-1.15-.89,1.09,1.09,0,0,1,.7-1.35c1.5-.53,3.11-.48,4.63-.91A13.67,13.67,0,0,1,73.82,105Z"/><path class="cls-9" d="M38.53,108.78a6,6,0,0,1-3.77-1.72,1.66,1.66,0,0,1-.18-2.29,1.73,1.73,0,0,1,2.26-.47c.87.39,1.72.82,2.56,1.26s1.51.92,1.26,1.92S39.49,108.67,38.53,108.78Z"/><path class="cls-9" d="M12.18,101.77l-.36-.21-.29-.17a16.83,16.83,0,0,1-3.84-3A2.81,2.81,0,0,1,7.4,98c.55-.26,1.08-.08,1.93.49a21.66,21.66,0,0,1,1.94,1.35A2,2,0,0,1,12.18,101.77Z"/><path class="cls-13" d="M96.63,97.89a1.33,1.33,0,0,1-1.18-.76,1.11,1.11,0,0,1,.31-1.41,6,6,0,0,1,2.88-1.34c1-.12,1.48.53,1.11,1.5A3.7,3.7,0,0,1,96.63,97.89Z"/><path class="cls-14" d="M59.82,112.87c.12,0,.24,0,.36,0,.65,0,1.55-.28,1.73.57s-.68,1.15-1.36,1.38a4.6,4.6,0,0,1-2.91-.06.87.87,0,0,1-.67-1c.07-.47.41-.64.85-.68l2-.2Z"/><path class="cls-15" d="M73.82,105a48,48,0,0,1-8.22,1.6.68.68,0,0,1,0-.2l7.69-1.64Z"/><path class="cls-16" d="M17.89,71.36a29.9,29.9,0,0,1,1.9-9.06,77,77,0,0,1,5.75-13.09A18.22,18.22,0,0,1,30,43.49,8.61,8.61,0,0,1,37.09,42c3,.55,5.84,1.77,8.84,2.38a87.77,87.77,0,0,0,9.29,1.38,55,55,0,0,0,9.17-.14,56.18,56.18,0,0,0,12.2-2.58,18.43,18.43,0,0,1,5.67-1.23,8.93,8.93,0,0,1,7.37,3.93c3.5,4.6,5.45,10,7.58,15.24a42.08,42.08,0,0,1,2.48,10.15,4.07,4.07,0,0,1-1.59,2.28,30.18,30.18,0,0,1-3.61,3.07c-.38.25-.74.66-1.28.37-.22-.46.06-.85.21-1.24,1.42-3.59,1-7.17,0-10.74a58.93,58.93,0,0,0-2.64-7.64A27.63,27.63,0,0,0,84.55,47a4.64,4.64,0,0,0-5.46-1.12,97.93,97.93,0,0,1-13.55,4,33.43,33.43,0,0,1-18.64-1c-2.69-.91-5.39-1.77-8.1-2.61a6.15,6.15,0,0,0-5.88,1.12,10.27,10.27,0,0,0-2.27,2.29A26.31,26.31,0,0,0,26.81,57a52.4,52.4,0,0,0-2.71,7.3,22.37,22.37,0,0,0-.81,8.84c.16,1.24.8,2.33,1,3.55-.19.51-.56.38-.86.18a28.34,28.34,0,0,1-5.47-5A.48.48,0,0,1,17.89,71.36Z"/><path class="cls-3" d="M17.89,71.36a27.42,27.42,0,0,0,6.25,5.57c.88.15.48.9.64,1.38l1,1.7a29.43,29.43,0,0,1-7.58-3.61c-4.26-3.07-7.68-6.8-9.14-12,.08-3.15,1.25-6,2.42-8.86.1-.24.25-.52.61-.44l-.42,2.74A8.81,8.81,0,0,0,12.41,62a2.47,2.47,0,0,1,.36,1.6A16.94,16.94,0,0,0,16,68.94c.56.21.65.79.94,1.21Z"/><path class="cls-3" d="M93.42,76.87a25.91,25.91,0,0,0,6.27-5.73l.75-.8A1.62,1.62,0,0,1,101.55,69a18.59,18.59,0,0,0,3.15-5.5,5.69,5.69,0,0,1,.56-2.06,7.77,7.77,0,0,0,.43-3.73l-.27-2.41c.35-.07.52.18.62.43,1.1,2.82,2.35,5.6,2.29,8.73a17.63,17.63,0,0,1-3.85,7.19,26,26,0,0,1-12.71,8.28c.27-.85,1.19-1.39.93-2.34C92.6,77,93.09,77,93.42,76.87Z"/><path class="cls-17" d="M58.75,44.49c-4.11-.05-8.19-.35-12-2a4.94,4.94,0,0,1-2.73-2c-.2-.36-.36-.8-.07-1.12s.58.08.86.17A45.73,45.73,0,0,0,55.54,41.4a52.33,52.33,0,0,0,15.13-1.24c.77-.18,1.52-.49,2.28-.7.24-.06.53-.37.74,0a.8.8,0,0,1-.08.8A4.31,4.31,0,0,1,71.75,42a22.67,22.67,0,0,1-8.24,2.21A27,27,0,0,1,58.75,44.49Z"/><path class="cls-18" d="M28.24,27.91l1.49.06a37.14,37.14,0,0,0,2.2,3.52A2.81,2.81,0,0,1,32.3,35c-.26.44-.48.91-.71,1.37-.31.16-.19.77-.73.68-.75.14-1.23.75-1.89,1.07-1.54.75-3.16,1.13-4.64.15-1.71-1.13-1.88-3-1.76-4.9a7,7,0,0,1,.65-2.27c1.77.61,2.87-.88,4.27-1.41C28.22,29.39,27.85,28.44,28.24,27.91Z"/><path class="cls-18" d="M94.12,31.24a5.91,5.91,0,0,1-.36,6.48c-1.1,1.27-2.54,1.18-4,.88a6.56,6.56,0,0,1-2.15-1c-.2-.13-.4-.48-.69-.1-.76-.16-.72-1-1.21-1.4l-.3-.51a3.32,3.32,0,0,1,.31-4.44,20.11,20.11,0,0,0,1.93-3,3.8,3.8,0,0,1,1.45-.3C89.9,30.31,91.89,31,94.12,31.24Z"/><path class="cls-1" d="M97.76,36.56l.12-.82A24.35,24.35,0,0,1,106,40.09c4,3.51,6.44,7.82,6.51,13.31-2.2-5.16-5.77-8.84-11.19-10.54-.41-.1-.28-.55-.51-.77a20.47,20.47,0,0,0-2.59-4.75C97.9,37.2,97.88,36.85,97.76,36.56Z"/><path class="cls-1" d="M19.54,35.86l.07.23a1.12,1.12,0,0,1-.5,1.42,18.2,18.2,0,0,0-2.45,4.39c-.2.32-.1.8-.52,1a16.25,16.25,0,0,0-9,6.52A20.68,20.68,0,0,0,5,53.33a8.31,8.31,0,0,1,.11-3.18C7.17,42.6,12.22,38.08,19.54,35.86Z"/><path class="cls-1" d="M12.11,55.09a32.6,32.6,0,0,0-2.84,8.75,5.1,5.1,0,0,1-.19.55c-.93-2.55-.73-5.18-.5-7.79a17.38,17.38,0,0,1,3.06-8.78A10.5,10.5,0,0,1,15,44.66c.35.3,0,.6,0,.85-.58,1.75-1.21,3.48-1.82,5.21-.15.55.25,1.23-.38,1.67Z"/><path class="cls-1" d="M108.33,64.44a46.71,46.71,0,0,0-2.44-8.35,1.7,1.7,0,0,0-.47-.81,16.87,16.87,0,0,0-.7-2.62c-.62-.54-.19-1.34-.48-1.95-.66-2-1.31-4-2-6a7.23,7.23,0,0,1,3.36,2.89A18,18,0,0,1,109,58C109.08,60.16,109.24,62.36,108.33,64.44Z"/><path class="cls-19" d="M44.55,28.65a11.67,11.67,0,0,1,3.85-.4c3.7-.16,7.41-.27,11.11-.23,3.22,0,6.45,0,9.66.22a11.36,11.36,0,0,1,3.62.41,34.87,34.87,0,0,1-11.73,1.68,2.27,2.27,0,0,0-2-.54c-1.37.07-2.75.1-4.12.24a.81.81,0,0,0-.62.29A37.48,37.48,0,0,1,44.55,28.65Z"/><path class="cls-6" d="M25,47.74c-.31-.76.17-1.26.39-1.75,1.57-3.54,3.88-6.37,7.75-7.55a7,7,0,0,1,7,1.52C33.33,39.58,28.23,41.89,25,47.74Z"/><path class="cls-6" d="M77.75,39.82a6.13,6.13,0,0,1,4.42-1.76c5.36.17,9.57,5.51,10.37,9.68C89.32,41.91,84.21,39.65,77.75,39.82Z"/><path class="cls-20" d="M97.76,36.56a1,1,0,0,1,.5.78c0,.8,0,1.6,0,2.39a3.58,3.58,0,0,1-4.82,3.5c-2.63-.79-4.46-2.71-6.17-4.72a5.74,5.74,0,0,1-1.51-2.4c.62.28.68,1,1.21,1.4a11.19,11.19,0,0,0,4.22,3c2.75,1,4.59.29,5.9-2.3C97.32,37.67,97.53,37.11,97.76,36.56Z"/><path class="cls-20" d="M19.11,37.51c.08-.5.54-.87.5-1.42A11.33,11.33,0,0,0,20.87,39a3.9,3.9,0,0,0,4.85,1.68A10.17,10.17,0,0,0,30.86,37c.31-.15.34-.61.73-.68-1.95,3.36-4.48,6.07-8.37,7.08-2.08.54-4-1.38-4.1-4C19.09,38.79,19.11,38.15,19.11,37.51Z"/><path class="cls-21" d="M104.24,50.71a3.41,3.41,0,0,1,.48,1.95A6.8,6.8,0,0,1,104,56c-1,1.76-3,1.84-4,.08C103.29,55.83,103.8,53.29,104.24,50.71Z"/><path class="cls-21" d="M12.76,52.39a4.78,4.78,0,0,1,.38-1.67c.16.65.29,1.31.48,2,.67,2.27,1.53,3,3.91,3.44a1.72,1.72,0,0,1-1.71,1.25,2.56,2.56,0,0,1-2.3-1.27C12.78,55,12.88,53.65,12.76,52.39Z"/><path class="cls-22" d="M16.14,42.9l.52-1a17,17,0,0,0-.18,4.39A5.26,5.26,0,0,0,19,50.53c-1.63,1-2.45.7-3-1a9.64,9.64,0,0,1-.3-4.24c.06-.42,0-.87.05-1.3Z"/><path class="cls-22" d="M100.85,42.09l.51.77.24.89a15.23,15.23,0,0,1,0,5.47c-.48,1.9-1.32,2.29-3,1.36,2.34-1.83,2.85-4.28,2.39-7.06A13.56,13.56,0,0,1,100.85,42.09Z"/><path class="cls-23" d="M16.93,70.15A2.26,2.26,0,0,1,16,68.94a52.14,52.14,0,0,1,3.35-10.4A8,8,0,0,1,20,57.39C18.85,61.63,17.11,65.71,16.93,70.15Z"/><path class="cls-24" d="M101.55,69l-1.11,1.36c0-4.21-1.66-8-2.6-12a31.72,31.72,0,0,1,2.54,6.33C100.8,66.08,101.16,67.54,101.55,69Z"/><path class="cls-25" d="M12.77,63.64c-.67-1.5-1.46-3-1.34-4.69,0-.39,0-.8.26-1.12.11.46.18.93.32,1.38.49,1.59,1.37,2.77,3.36,2.85C14.63,63.07,14,63.85,12.77,63.64Z"/><path class="cls-26" d="M105.69,57.69c.79,2.12,0,4-1,5.79-1.1.31-1.83-.09-2.44-1.36C104.53,61.58,105.44,60.42,105.69,57.69Z"/><path class="cls-27" d="M37.33,33.22c2.14-.15,3.13.52,3.89,2.62a1.09,1.09,0,0,1-.83,1.26c-.63.22-.78-.39-1-.78a9.06,9.06,0,0,0-1.49-2C37.6,34,37.19,33.75,37.33,33.22Z"/><path class="cls-27" d="M76.21,36.29a3.21,3.21,0,0,1,4-3c.13.46-.28.61-.52.84a8.09,8.09,0,0,0-1.53,2.1C77.46,37.53,77.08,37.55,76.21,36.29Z"/><path class="cls-28" d="M76.21,36.29c1.09,1,1.12,1,1.72-.31a8.58,8.58,0,0,1,2.25-2.72c.56.16.63.57.44,1a5.23,5.23,0,0,1-2.94,2.93C76.94,37.5,76.25,37.32,76.21,36.29Z"/><path class="cls-29" d="M37.33,33.22a10.63,10.63,0,0,1,2.5,3.4c.07.19.17.53.48.38a1.45,1.45,0,0,0,.91-1.16c.15,1.19-.51,1.83-1.52,1.37A5.6,5.6,0,0,1,37,34.51C36.72,34,36.65,33.49,37.33,33.22Z"/><path class="cls-7" d="M54.35,30.32c-.25-.81.58-.64.78-.63,1.8.06,3.59-.47,5.39-.07.43.09.82.12.54.71A43,43,0,0,1,54.35,30.32Z"/><path class="cls-3" d="M92,78A39.67,39.67,0,0,1,77.26,88a47.36,47.36,0,0,1-23.37,3.69A40.45,40.45,0,0,1,43.11,89.1,7.39,7.39,0,0,1,40.25,87c-.26-.3-.45-.67-1-.57-2.81.57-4.9-1-7-2.45A36,36,0,0,1,25.43,78c.55-.34,1,0,1.45.23A26,26,0,0,0,30.93,80a9.9,9.9,0,0,1,2.85,1.52c4.76,3.38,10.22,5,15.83,6.26a47.29,47.29,0,0,0,7.24.78c7.31.5,14.18-1.23,20.92-3.75a28.41,28.41,0,0,0,4.92-2.71A22.39,22.39,0,0,1,86,80.24c1.67-.62,3.3-1.33,4.92-2.1C91.25,78,91.58,77.46,92,78Z"/><path class="cls-30" d="M30.86,80.31c-1.92-.51-3.57-1.64-5.43-2.29-.15-.1-.33-.32-.45-.29-.29.06-.09.39-.19.58-.3-.42-.11-1.07-.65-1.38a18,18,0,0,1-1.26-4.54,20.75,20.75,0,0,1,1-8.25,1.08,1.08,0,0,1,.23,1.11A23,23,0,0,0,24,67.87c-.43,4.33,1.9,7.33,4.79,10.06.52.49,1.09.93,1.64,1.39C30.7,79.57,31.06,79.82,30.86,80.31Z"/><path class="cls-30" d="M92,78c-1.56.69-3.12,1.38-4.69,2a11,11,0,0,1-1.11.36c.08-.79.8-1,1.3-1.46a26.69,26.69,0,0,0,3.77-3.82,11.58,11.58,0,0,0,2.25-8.89c-.06-.55-.27-1.1.11-1.61.85,1.41.82,3,1,4.57a12,12,0,0,1-1.18,7.21c-.07.14-.14.29,0,.43l-.72.7C92.34,77.53,92.27,78,92,78Z"/><path class="cls-31" d="M47.63,16.92a10.87,10.87,0,0,1,4.42-.66,97.94,97.94,0,0,1,13.81.14,45.67,45.67,0,0,1,6.7,1,8.72,8.72,0,0,1,2.22.88c.88.49.86,1-.07,1.53a13.21,13.21,0,0,1-4.9,1.41,73.83,73.83,0,0,1-15,.7c-4.11-.2-8.26-.32-12.19-1.83-.56-.21-1.1-.49-1.15-1.07s.66-.88,1.12-1.07a4,4,0,0,1,2.18-.52.46.46,0,0,1-.16.42c-.92,1-.78,1.54.55,1.77a7.37,7.37,0,0,0,4-.26c.45-.18.9-.45.88-1s-.51-.74-1-.92S48,17.32,47.63,16.92Z"/><path class="cls-5" d="M47.63,16.92a6.61,6.61,0,0,1,1.53.19c.69.15,1.23.47,1.32,1.16s-.53,1.14-1.13,1.36a8.39,8.39,0,0,1-5,.13,1,1,0,0,1-.78-.93.89.89,0,0,1,.52-1,6.2,6.2,0,0,0,.69-.44Z"/><path class="cls-32" d="M94.12,31.24A1.94,1.94,0,0,1,91.7,31a2.14,2.14,0,0,0-.88-.59c-1.47-.26-1.83-1.22-1.7-2.53a3.33,3.33,0,0,1,5.3,1.68A2,2,0,0,1,94.12,31.24Z"/><path class="cls-32" d="M28.24,27.91c.19,1.53,0,1.95-1.5,2.44a3.69,3.69,0,0,0-1.08.69,1.72,1.72,0,0,1-2.44,0,2.76,2.76,0,0,1,1.41-3.5A2.53,2.53,0,0,1,28.24,27.91Z"/><path class="cls-33" d="M93.61,64.66a21.38,21.38,0,0,1,.22,5.12c-.44,4-3,6.66-5.8,9.16-.6.52-1.23,1-1.85,1.5-1.4.84-2.78,1.7-4.2,2.52a47,47,0,0,1-21.39,6c-7,.37-13.6-1.13-20.1-3.43a34.77,34.77,0,0,1-7-3.82,16.87,16.87,0,0,0-2.62-1.39c-.49-.91-1.44-1.32-2.15-2-2.23-2.09-4.27-4.31-4.89-7.43a18.5,18.5,0,0,1-.06-5.46c0-.43.09-.86.13-1.29A31,31,0,0,1,26.53,57a27.42,27.42,0,0,1,6-8.24,5.56,5.56,0,0,1,6.12-1,38.55,38.55,0,0,0,16.75,4.33,25.6,25.6,0,0,0,6.66,0,37.87,37.87,0,0,0,12.53-2.5,26.36,26.36,0,0,0,4.25-1.87,5.81,5.81,0,0,1,6.66,1.61A28.43,28.43,0,0,1,91,57.22,32.64,32.64,0,0,1,93.61,64.66Z"/><path class="cls-34" d="M91,57.22a73.5,73.5,0,0,0-4.84-6.8c-2-2.45-4-3.4-7.14-2.56A97.66,97.66,0,0,1,67.72,51.5c-1.8.47-3.66.55-5.47.9a25.53,25.53,0,0,1-6.93,0A60.58,60.58,0,0,1,38.5,47.86c-3-.85-5.44.17-7.63,3C29.34,52.86,28,55,26.53,57A10.9,10.9,0,0,1,28,53.46c1.4-2.55,2.82-5.11,5.36-6.74a6.69,6.69,0,0,1,6.06-.61A98.79,98.79,0,0,0,52.15,50a34.31,34.31,0,0,0,15.78-1,106.69,106.69,0,0,0,11.6-3.62c2.5-1,4.24.33,5.86,2,2.55,2.67,4.1,5.94,5.56,9.26A1.85,1.85,0,0,1,91,57.22Z"/><path class="cls-35" d="M49.46,45.72c5.5.61,11,1.19,16.48.22C62.94,49.46,52.05,49,49.46,45.72Z"/><path class="cls-9" d="M70.44,20.45c-.41-.16-1-.06-1.15-.65s.45-.76.88-.93,1.14-.33,1.69-.56A.76.76,0,0,1,73,18.7a.9.9,0,0,1-.34,1.15C72,20.41,71.16,20.17,70.44,20.45Z"/><path class="cls-32" d="M75.22,84c0,.55-.16,1-.76,1.21a2,2,0,0,1-1.84-.6c-.32-.3-.34-1-1-.83-.13.31-.25-.56-.37,0a1.92,1.92,0,0,1-2.19,1.68,2.13,2.13,0,0,1-1.78-2.19,4.32,4.32,0,0,1,.17-.94A6.85,6.85,0,0,0,67,77.61c-.22-.54-.58-1.11.13-1.58a.74.74,0,0,1,.68.12A10.32,10.32,0,0,1,71,80.56a59.85,59.85,0,0,0,0-11c.08-2.56-.5-5.06-.69-7.6.16-1,.63-.75,1.15-.27s1.11.55,1.2,1.26a6.06,6.06,0,0,1-.17,1.12,31.76,31.76,0,0,0,.08,6.54c.15,1.06,0,2.15.26,3.21.09.42.07.88.51,1.15a.79.79,0,0,1,.31.84c-.29,2.15.43,4.16.88,6.2a2.33,2.33,0,0,0,.65,1.24C75.45,83.53,75.64,83.79,75.22,84Z"/><path class="cls-36" d="M28,74.21a16.54,16.54,0,0,1-1.25-8.82,21.9,21.9,0,0,1,2.25-8,15.78,15.78,0,0,1,3.46-4.53c.18-.15.31-.56.66-.2a.73.73,0,0,1,.1.54,20.5,20.5,0,0,0-.11,2.22,4.1,4.1,0,0,1-1.37,2.18c-1.59,1.69-2,3.87-2.4,6a30.28,30.28,0,0,0-.09,8.07A5.94,5.94,0,0,1,28,74.21Z"/><path class="cls-36" d="M84.28,52.41a16.05,16.05,0,0,1,6,9.86,21.08,21.08,0,0,1-.46,11.62,1.83,1.83,0,0,1-.26.38,6.6,6.6,0,0,1-1.37-2.78A20.45,20.45,0,0,0,87,59.69a4.67,4.67,0,0,0-1.1-1.81,6,6,0,0,1-1.52-2.38,4.16,4.16,0,0,0,0-1.89C84.27,53.21,84,52.82,84.28,52.41Z"/><path class="cls-5" d="M63,53.82c.64.09,1.32-.16,1.92.24.85,1.18.62,2.54.53,3.83A18.15,18.15,0,0,1,64.3,63c-.16.43-.28,1-.88,1s-.5-.66-.53-1.08a17,17,0,0,0-1.27-5.33,2.84,2.84,0,0,1,.6-3.5A.8.8,0,0,1,63,53.82Z"/><path class="cls-5" d="M52.48,54.11c.56-.46,1.25-.19,1.87-.31a.9.9,0,0,1,.76.25,2.63,2.63,0,0,1,.79,3.23A14.48,14.48,0,0,0,54.65,63c0,.4-.11.86-.57.95s-.76-.37-.91-.77a17.67,17.67,0,0,1-1-4.17c-.09-.91-.25-1.81-.26-2.72A3.27,3.27,0,0,1,52.48,54.11Z"/><path class="cls-5" d="M69.68,52a2.25,2.25,0,0,1,2.42.87,12.46,12.46,0,0,1,.76,7.94c-.06.33-.22.66-.57.7s-.55-.29-.67-.58a37.69,37.69,0,0,0-2.55-4.61A3.81,3.81,0,0,1,69.68,52Z"/><path class="cls-5" d="M45.21,53.06a2,2,0,0,1,2.68-.92A4.1,4.1,0,0,1,48,56.93a27.72,27.72,0,0,0-2.15,3.88c-.15.32-.31.71-.73.69s-.57-.47-.59-.8C44.41,58.13,44,55.52,45.21,53.06Z"/><path class="cls-5" d="M75.43,50.53c1.24-1.06,1.91-1,3.38.23C80.09,52.16,80,54,80.3,55.68a7.59,7.59,0,0,1,0,2c0,.36-.1.73-.54.83A.77.77,0,0,1,78.9,58c-.7-1.3-1.5-2.53-2.29-3.77a17.19,17.19,0,0,1-1.13-1.82A1.82,1.82,0,0,1,75.43,50.53Z"/><path class="cls-5" d="M38.51,50.93c1.37-1.46,2.42-1.52,3.63-.24a1.45,1.45,0,0,1,0,1.48c-1,2.07-2.55,3.83-3.6,5.89a.71.71,0,0,1-.79.42.64.64,0,0,1-.43-.65C37.15,55.43,37.17,53.06,38.51,50.93Z"/><path class="cls-37" d="M47.9,86.86c-2-.41-2-2-2-3.54a1.38,1.38,0,0,1,.21-1.67.32.32,0,0,1,.36,0c.43.61.17,1.33.32,2a1.37,1.37,0,0,0,1.44,1.19,1.12,1.12,0,0,0,1.16-1.38,15.38,15.38,0,0,1,.77-7.4c.59-.64,1-.44,1.41.24A25.87,25.87,0,0,1,51,80.76a2.78,2.78,0,0,0,.16,1.86c1,2,.29,3.51-1.93,4C48.77,86.76,48.33,86.8,47.9,86.86Z"/><path class="cls-37" d="M67.06,76.12c-.37.49,0,.89.16,1.31a7.25,7.25,0,0,1,.52,5.2C67.35,84,67.88,85,69,85.23s1.87-.53,2.11-1.89c0-.15,0-.31.06-.58.34.35.06.85.44,1.06-.06,1.39-.36,2.63-2,3a5.34,5.34,0,0,1-2.92-.92,2,2,0,0,1-.53-3A2.13,2.13,0,0,0,66.57,81a15.54,15.54,0,0,1-.56-5C66.39,75.62,66.75,75.44,67.06,76.12Z"/><path class="cls-37" d="M52.48,54.11a17.89,17.89,0,0,0,1.37,9.78.78.78,0,0,0,.48-.84,10.81,10.81,0,0,1,1.08-5.31,2.93,2.93,0,0,0-.57-3.68c.79-.4,1.19.12,1.57.67a4.46,4.46,0,0,1,.12,4.1A24.92,24.92,0,0,0,55.3,64c-.14.92-.53,1.5-1.59,1.17a11.34,11.34,0,0,1-2.32-6.45,20.72,20.72,0,0,1,0-2.73c.09-.61.08-1.24.63-1.67Z"/><path class="cls-37" d="M62.51,54.07a3.08,3.08,0,0,0-.42,3.81,14.87,14.87,0,0,1,1.17,5.93c1.4-1.11,2.34-6.94,1.64-9.75.41.09.43.53.68.77.58.51.23,1.28.51,1.87a15.16,15.16,0,0,1-1.77,7.84,1.27,1.27,0,0,1-.67.66c-1.06.31-1.37-.4-1.5-1.2A36,36,0,0,0,61,59a3.47,3.47,0,0,0-.13-.46,3.35,3.35,0,0,1,.53-4.08C61.68,54.08,62,53.79,62.51,54.07Z"/><path class="cls-37" d="M45.21,53.06a29.49,29.49,0,0,0-.47,6.76,4,4,0,0,0,.45,1.72,29.64,29.64,0,0,1,2.91-5.35,3.7,3.7,0,0,0,.14-2.8,11.67,11.67,0,0,0-.35-1.25l.48.18c.31.42.74.72,1.05,1.14a2.29,2.29,0,0,1-.08,3.32,16.43,16.43,0,0,0-2,3c-.41.71-.6,1.53-1,2.22s-.73,1.15-1.56,1c-1-.89-.85-2.13-1-3.24a15.61,15.61,0,0,1,.18-5c.15-.67.29-1.35,1.05-1.62Z"/><path class="cls-37" d="M69.68,52c-.2.64-.45,1.27-.61,1.92a2.49,2.49,0,0,0,.11,2,29,29,0,0,1,3.09,5.82c1-3.21.43-6-.17-8.84l.42.3c.92.31.77,1.21,1,1.87a26.51,26.51,0,0,1-.17,6.66c-.1.46,0,1.18-.84,1.18L71.38,62c-1.27-2-2.15-4.17-3.76-5.92a1.39,1.39,0,0,1-.08-1.78A11.39,11.39,0,0,1,69,52.39,1.17,1.17,0,0,1,69.68,52Z"/><path class="cls-37" d="M35.1,81.45c-1.68-.4-2.48-1.44-2.6-3.4-.41-1,.27-1.79.56-2.65.35-.37.45-1.09,1.21-.9.25.67-.16,1.24-.28,1.85a2.66,2.66,0,0,0,1.19,2.77.7.7,0,0,0,1.15-.36,4.55,4.55,0,0,0,.41-1.62,19.86,19.86,0,0,1,1.14-5c.14-.24.23-.59.55-.55s.35.4.38.67a6.47,6.47,0,0,1-.28,2c-.33,1.83-1,3.61-.71,5.53a1.27,1.27,0,0,1-1.07,1.39A8.33,8.33,0,0,1,35.1,81.45Z"/><path class="cls-37" d="M84.82,77.59c0,2.42-.56,3.34-2.39,3.85a5.11,5.11,0,0,1-1.65-.23c-.68-.25-1.27-.69-1.17-1.47.25-2-.46-3.95-.77-5.91a4,4,0,0,1,.1-2.46.55.55,0,0,1,.87,0,3.53,3.53,0,0,0,.15,2,19.51,19.51,0,0,1,.82,4.09,4.23,4.23,0,0,0,.17.93c.36,1,1,1.17,1.78.37a2.64,2.64,0,0,0,.68-2.54c-.12-.49-.41-1-.13-1.5.58-.25.73.28,1,.57C84.55,76.06,85.26,76.69,84.82,77.59Z"/><path class="cls-37" d="M41.2,84.07c-1.6-.39-1.56-1.64-1.51-2.89-.46-.64,0-1.26.05-1.89.27-.46.15-1.24,1-1.19a1.52,1.52,0,0,1,0,1.27A4.63,4.63,0,0,0,40.56,81c0,.54.29.92.87,1a.91.91,0,0,0,1-.91,5.37,5.37,0,0,0,0-1.79,7.1,7.1,0,0,1,.48-4.22.85.85,0,0,1,1.43,0,65.83,65.83,0,0,1-.26,6.73c0,1.56-1.26,1.94-2.5,2.24A.55.55,0,0,1,41.2,84.07Z"/><path class="cls-38" d="M38.51,50.93a17.74,17.74,0,0,0-1,6.66c0,.26-.1.62.26.7s.4-.2.5-.42a49.5,49.5,0,0,1,3.11-5.07,3.72,3.72,0,0,0,.72-2.11l.67.53a.66.66,0,0,1,.42.52,2,2,0,0,1-.54,1.85,21.78,21.78,0,0,0-2.6,3.7c-.66,1.11-1.37,2.31-3,2.09-1-1.48-.49-3.11-.46-4.7a9.22,9.22,0,0,0,.14-1.4c0-.69.76-1.09.73-1.81a.58.58,0,0,1,.58-.25Z"/><path class="cls-37" d="M75.43,50.53c-.23,1.7,1,2.8,1.76,4,.64,1.05,1.32,2.08,1.88,3.17.14.27.24.69.65.58s.26-.53.28-.83a16.2,16.2,0,0,0-1.19-6.74l.43.25c.42,0,.54.39.7.69.14.57.64,1,.69,1.6.06,1,.37,2,.39,2.94s.19,2.31-.81,3.19a2.25,2.25,0,0,1-2-1c-1.3-1.65-2.17-3.61-3.67-5.13-.57-.58-.32-1.34.22-1.93A1.26,1.26,0,0,1,75.43,50.53Z"/><path class="cls-37" d="M75.22,84a16.16,16.16,0,0,1-2-7.42c0-.5.44-1,0-1.47.63-.82,1.12-.42,1.59.18a15.8,15.8,0,0,1,0,5.09,1.38,1.38,0,0,0,.28,1.23,1.11,1.11,0,0,0,1.21.27c.5-.14.64-.52.67-1s-.34-1.25,0-1.86c.21-.15.36,0,.49.12a2.94,2.94,0,0,1,.32,2.47C77.75,83.58,77.32,84,75.22,84Z"/><path class="cls-37" d="M28,74.21a9,9,0,0,1,1-2.39.23.23,0,0,1,.3.05c.21.51-.07,1,0,1.54,0,.32.09.66.45.77a.89.89,0,0,0,.86-.31,2.11,2.11,0,0,0,.52-1.31,7,7,0,0,1,1.73-3.74c.34-.08.63-.06.76.34-.25,1.25-.83,2.41-1.09,3.66A4.21,4.21,0,0,0,32.23,74c.18,1.83-.73,2.63-2.43,2.76a1,1,0,0,1-1.09-.62A2.21,2.21,0,0,1,28,74.21Z"/><path class="cls-37" d="M88.38,71.61a9.86,9.86,0,0,1,1.16,2.66c.13.59-.3,1-.43,1.52a1.44,1.44,0,0,1-1.29.94c-1.86-.06-2.51-1.15-2.67-2.88a11.57,11.57,0,0,0-1.39-4.39.58.58,0,0,1,.74-.62,5.1,5.1,0,0,1,1.62,2.72c.13.51.26,1,.37,1.52s.43,1.33,1.25,1.11.53-.94.41-1.52a1.57,1.57,0,0,1-.07-1A.21.21,0,0,1,88.38,71.61Z"/><path class="cls-39" d="M66.14,76.15a52.76,52.76,0,0,0,.91,5.72,1.24,1.24,0,0,1-.42,1.07,1.74,1.74,0,0,0,.61,3,25.31,25.31,0,0,0,2.42.95L68.23,87a2.49,2.49,0,0,1-1.72-.22c-1.48-.57-1.81-1.32-1.43-3.12.48-1.48.09-3,.18-4.47A8.84,8.84,0,0,1,65.42,77C65.54,76.67,65.48,76.1,66.14,76.15Z"/><path class="cls-40" d="M79,71.38a17.88,17.88,0,0,0,.79,5.49A5.62,5.62,0,0,1,80,79.34c-.22,1.09.29,1.4,1.17,1.64.44.12.95.08,1.31.46-.69.43-1.47.09-2.19.25-1.35.26-2-.25-2-1.53a15.47,15.47,0,0,0,.2-1.65,21.31,21.31,0,0,0-.37-5.35,2,2,0,0,1,.22-1.61C78.51,71.31,78.72,71.13,79,71.38Z"/><path class="cls-41" d="M35.1,81.45a2.94,2.94,0,0,1,1.54-.53c.66-.09,1.07-.55.89-1.16-.46-1.6.22-3,.47-4.53a12.93,12.93,0,0,0,.5-3.39c-.33,0-.19.42-.43.49-.31-.25-.6-.5-.52-1a1,1,0,0,1,1.61.25c.46,1.36-.06,2.68-.17,4a10.46,10.46,0,0,0,0,2.85c.08.58.2,1.15.23,1.74,0,1.12-.71,1.68-1.91,1.47C36.59,81.54,35.81,81.85,35.1,81.45Z"/><path class="cls-42" d="M62.51,54.07a1.18,1.18,0,0,0-1,.49c-.9.87-1.29,2.09-2,3.06a2.49,2.49,0,0,1-1.68,0c-.67-.85-.83-2-1.57-2.81a1.84,1.84,0,0,0-1.41-.74l-.49-.26c-.32-.36-.82-.1-1.38-.34A4.79,4.79,0,0,1,57.75,55c.8.9,1.34.82,2.08,0a4.46,4.46,0,0,1,4.4-1.54c-.4.35-1,0-1.25.4Z"/><path class="cls-43" d="M47.9,86.86a12.25,12.25,0,0,0,2.67-1.25c1-.86,1.2-1.58.39-2.63a1.57,1.57,0,0,1-.45-1.18,50,50,0,0,1,1-5.42c.67.34.57,1,.59,1.56,0,1.39,0,2.78,0,4.17a5.94,5.94,0,0,0,.29,1.51c.47,2.5-.44,3.39-3.33,3.28Z"/><path class="cls-44" d="M62.25,52.4c1.92-.41,3.88-.72,5.76-1.25,3-.85,5.9-1.85,8.86-2.77a5.29,5.29,0,0,1,2.18-.52,34.19,34.19,0,0,1-9.65,3.57A32,32,0,0,1,62.25,52.4Z"/><path class="cls-44" d="M38.5,47.86c2.63.61,5.15,1.59,7.72,2.38a52.38,52.38,0,0,0,8.57,1.95,2.34,2.34,0,0,1,.53.21,40.57,40.57,0,0,1-16.49-4.2C38.69,48.14,38.61,48,38.5,47.86Z"/><path class="cls-45" d="M74.72,51.38a2.07,2.07,0,0,0,.72,2.6,11.23,11.23,0,0,1,2.12,3.13A5.28,5.28,0,0,0,80,59.39c-.29.69-.77.35-1.17.18a8.31,8.31,0,0,1-2.95-2.38,18.74,18.74,0,0,1-2.12-2.88,2.1,2.1,0,0,1,.72-2.86Z"/><path class="cls-46" d="M64,84.29c-.06,2.1-.55,2.59-2.63,2.66-.8-.34-1.31-1-.94-1.79.67-1.44.72-3,1.18-4.49.42-.54.75-.36,1,.14a9,9,0,0,1,0,3.31c-.08.36-.2.95.25,1s.43-.52.51-.87a1.53,1.53,0,0,1,.23-.67c.36-.21.41.08.48.32A.51.51,0,0,1,64,84.29Z"/><path class="cls-40" d="M69,52.39c0,.83-.72,1.29-1.11,1.91A1.29,1.29,0,0,0,68,56.1,16.88,16.88,0,0,1,71.38,62c-.32.28-.34-1-.78-.15-.66-.3-.69-1-1-1.54-.94-1.47-2-2.85-3-4.25-.52-1.75-.07-2.53,2.07-3.64Z"/><path class="cls-47" d="M56,87a3,3,0,0,1-2.63-1.23,1.45,1.45,0,0,1-.15-1.57.36.36,0,0,1,.31-.19c.28.13.33.42.45.67s.25.67.66.52.33-.52.27-.83a23.28,23.28,0,0,1-.21-3.44c.28-.52.62-.85,1.17-.3a18.05,18.05,0,0,0,1,4.22A1.57,1.57,0,0,1,56,87Z"/><path class="cls-48" d="M84.57,53.59a2.09,2.09,0,0,1,0,2c-.47.32-.79.09-1-.31-.3-.8-1.06-1.18-1.68-1.61a3.33,3.33,0,0,1-1.7-3.15c.14-.39.32-.75.83-.71l.24,0a5.12,5.12,0,0,0,1.7,2.31,6.12,6.12,0,0,1,1.58,2.3c.07.13.18-.11,0,0s-.08,0-.1-.06A.58.58,0,0,1,84.57,53.59Z"/><path class="cls-49" d="M32.85,55.54A3.63,3.63,0,0,1,33,53.13c.22.16.26.39.29.88.59-1.9,2.56-2.46,3.07-4.18l.47.19a.69.69,0,0,1,.23.25,2.13,2.13,0,0,1-.63,2.65c-.9.9-2.15,1.38-2.84,2.51A.46.46,0,0,1,32.85,55.54Z"/><path class="cls-50" d="M84.57,53.59,84.45,55a8.93,8.93,0,0,0-3-3.73c-.48-.35-.23-1-.28-1.46,1.15,0,1.73.81,2.36,1.55a9.8,9.8,0,0,1,.73,1Z"/><path class="cls-50" d="M36.35,49.83c0,.52.08,1.06-.4,1.42a8.44,8.44,0,0,0-2.74,3.29c-.35-.56-.12-1-.22-1.41,0-.15,0-.29.08-.44a7.11,7.11,0,0,1,2-2.48A1.54,1.54,0,0,1,36.35,49.83Z"/><path class="cls-51" d="M41.2,84.07a.48.48,0,0,0,.2-.07,17.29,17.29,0,0,1,1.72-.43c1-.32,1.47-.88,1.26-1.94a.89.89,0,0,1,.09-.69,1.36,1.36,0,0,1,1.72.83l-.27,1.55A4.28,4.28,0,0,1,41.2,84.07Z"/><path class="cls-52" d="M56,87a2.1,2.1,0,0,0,.35-2.77,6,6,0,0,1-.59-3.5c.62-.09.72.41.87.8.31.82.56,1.66.85,2.49.1.65.7,1.26.19,2S56.88,87.14,56,87Z"/><path class="cls-53" d="M57.69,86c.09-.7-.46-1.26-.44-1.95a5.86,5.86,0,0,1,3-.27c.42.92-.07,1.69-.43,2.47A2.58,2.58,0,0,0,57.69,86Z"/><path class="cls-54" d="M87.9,76.56c.4-.26.8-.52,1.21-.77-.51,1.6-3.18,2.72-4.29,1.8a9.71,9.71,0,0,0-.72-2.15.69.69,0,0,1,1-.31c.39,1.44.39,1.45,1.91,1.36A3,3,0,0,1,87.9,76.56Z"/><path class="cls-55" d="M28.71,76.11l.94.47a1,1,0,0,1,.57-.07,1.72,1.72,0,0,0,2.31-1.4.59.59,0,0,1,.81.35,11.71,11.71,0,0,0-.84,2.59,4.59,4.59,0,0,1-3.74-1.47C28.63,76.45,28.46,76.29,28.71,76.11Z"/><path class="cls-56" d="M59.87,86.21c-.27-.84.31-1.54.41-2.32a3.08,3.08,0,0,1,1.5-3.21c-.26,1.45-.21,3-1,4.3-.51.83.13,1.39.6,2C60.65,87.11,60.25,86.67,59.87,86.21Z"/><path class="cls-57" d="M53.45,84.05l-.06,1.69c-1.07.8-2.11,1.66-3.6,1.44-.28,0-.56,0-.74-.28.39-.41.9-.08,1.34-.23,1.55-.56,2.31-1.09,1.68-2.85A.85.85,0,0,1,53.45,84.05Z"/><path class="cls-58" d="M49.06,56.7c1-1.26,1-1.88,0-3.18a3.27,3.27,0,0,1-.71-1.2l.72.29c1.69.75,2.34,2,1.85,3.4-.53.5-.7,1.4-1.62,1.48C49.05,57.29,49.06,57,49.06,56.7Z"/><path class="cls-53" d="M64,84.29V84a.89.89,0,0,1,1.37-.26c-.37,2,.28,2.74,2.89,3.2C66.1,87.65,64.72,86.79,64,84.29Z"/><path class="cls-59" d="M78.76,78.57a7.55,7.55,0,0,1-.05.83c-.35,1.8-.26,1.95,1.53,2.29.21.42,0,.43-.37.45a7.77,7.77,0,0,1-2-.49c-.15-.79-.3-1.58-.46-2.36A1.12,1.12,0,0,1,78.76,78.57Z"/><path class="cls-57" d="M37.33,81.69c1.65-.39,1.71-.48,1.45-2.14a7.24,7.24,0,0,1,0-.94c.7-.28,1,.12,1.24.69-.1.63-.2,1.26-.29,1.88-.51.89-1.4.87-2.23.93C37.15,82.13,37.27,81.86,37.33,81.69Z"/><path class="cls-60" d="M50.72,56c.63-1.68-.64-2.44-1.63-3.34.91-.23,1.34.55,1.94.93.36.23.56.66,1,.81-.12.56-.23,1.13-.34,1.7A.66.66,0,0,1,50.72,56Z"/><path class="cls-61" d="M68.6,52.41c-.47.43-1,.82-1.41,1.28A1.87,1.87,0,0,0,66.77,56a2.14,2.14,0,0,1-1,.63l-.18-1.78A4,4,0,0,1,68.6,52.41Z"/><path class="cls-62" d="M74.5,51.45c-.5.9-1.17,1.77-.46,2.86a.8.8,0,0,1-.86.45,4,4,0,0,0-.66-1.59A2.48,2.48,0,0,1,74.5,51.45Z"/><path class="cls-63" d="M43,51.69l-.22-.47c1,.28,1.55,1.15,2.18,1.89l-.74,1.39c-.35.4-.64.12-.93-.09A5.37,5.37,0,0,0,43,51.69Z"/><path class="cls-64" d="M35.63,48.08c.47,0,.88.06.92.57s-.3.6-.69.63l-.35,0c-.42,0-.68.66-1.16.31a.56.56,0,0,1,0-.76C34.66,48.41,35,48,35.63,48.08Z"/><path class="cls-64" d="M83.28,49.19c0,.32-.23.61-.41.48-.6-.4-1.63-.05-1.86-1-.09-.42.33-.57.73-.58C82.56,48.06,82.89,48.68,83.28,49.19Z"/><path class="cls-65" d="M81,49.77a1.62,1.62,0,0,0-.64.73c0,.46-.1.91-.59,1.13L79.24,51C79.77,50.54,79.93,49.56,81,49.77Z"/><path class="cls-66" d="M36.86,50.21a.31.31,0,0,0,0-.19c.77-.1.83,0,1.25,1.2a.43.43,0,0,1-.49.25C37.16,51.15,37.12,50.61,36.86,50.21Z"/><path class="cls-67" d="M40,79.3a3.3,3.3,0,0,0-1.24-.69,10.52,10.52,0,0,1,.13-4.67A7.36,7.36,0,0,0,39,71.6c1.37-1.07,3.07-1.23,4.66-1.67a5.16,5.16,0,0,1,3-.37c.64,1,.29,2,0,3-.2.62-.45,1.24.18,1.76a.72.72,0,0,0,1,0,1.49,1.49,0,0,0,.28-1.77,11.33,11.33,0,0,1-.65-2.43c-.06-.45-.21-1,.38-1.23a36.91,36.91,0,0,0,5.35-.37,79.07,79.07,0,0,1,16.77.63,2.5,2.5,0,0,1,1.43.54,66.59,66.59,0,0,1-.19,11.86c-1.1-2.26-2.1-4.23-4.11-5.41-.32-.3-.63-.36-.92,0-.83,1.39-.41,2.91-.49,4.38-.05,1.08.33,2.2-.31,3.23A3.22,3.22,0,0,0,64,84l-.25-.48a7.25,7.25,0,0,1-1.15-2.66c-.22-.22-.44-.49-.79-.2-1.11.78-1,2.17-1.5,3.21a12.3,12.3,0,0,1-3,.12c-.62-1.05-.5-2.42-1.47-3.31-.41-.31-.7-.11-1,.23A9.12,9.12,0,0,1,53.59,84a.23.23,0,0,0-.14,0,2,2,0,0,0-1.38-.24c-.75-1.95-.09-4-.34-6-.06-.5.09-1-.26-1.48-.28-.65-.71-.59-1.19-.23a1.55,1.55,0,0,1-.6.86,12,12,0,0,0-2.86,4,1,1,0,0,1-.41.56l-.22.16L44.63,81c-.65-.41-.51-1.08-.4-1.62a13.81,13.81,0,0,0,0-4.16c-.39-.49-.79-.35-1.18,0A34.26,34.26,0,0,0,40.67,78C40.23,78.34,40.35,79,40,79.3Z"/><path class="cls-68" d="M73.18,54.76c.19-.33.56-.34.86-.45a19.65,19.65,0,0,0,4,4.48c.56.4,1.11,1.1,2,.6,1-1.21.57-2.61.58-4,0-.79-.62-1.54-.12-2.35.45-.27.73.08,1,.31a10,10,0,0,1,2,1.69,1.24,1.24,0,0,0,1,.47L86,57.7a14.25,14.25,0,0,1,2.25,6.22,24,24,0,0,1,.27,5.36c0,.58.06,1.21-.53,1.62a.67.67,0,0,1-.75-.23,7.75,7.75,0,0,0-2.65-1.73c-.36,0-.63.09-.69.49A25.5,25.5,0,0,1,85.21,74c.08.45.27.94-.25,1.28l-.86.21c-.24-.25-.48-.51-.73-.76-1.2-1-2.34-2.12-3.55-3.14-.21-.29-.5-.2-.78-.16l-.52.2a.75.75,0,0,1-.56.19c-1.75-.41-3.45-1-5.18-1.47a.77.77,0,0,1-.56-.83c0-1.87-.12-3.75.08-5.62a1,1,0,0,1,.25-1,3.22,3.22,0,0,0,.68-2.2A25.48,25.48,0,0,0,73.18,54.76Z"/><path class="cls-68" d="M71.36,69.67c-2.72-.31-5.42-.7-8.15-.89-2.14-.15-4.31-.06-6.47-.07a47.19,47.19,0,0,0-8.05.67,1,1,0,0,1-1-.43,1.35,1.35,0,0,1-.57-1.13,20.35,20.35,0,0,1,1.31-9.27,1.54,1.54,0,0,1,.93-1L50.72,56l1,.1a16.24,16.24,0,0,0,1.45,7.86,2.47,2.47,0,0,0,.75,1.17c1.06.49,1.18.48,1.48-.61.51-1.91,1-3.82,1.63-5.7.16-.51.2-1.12.8-1.37H59.6c.57.23.61.79.78,1.26.71,1.93,1.18,3.93,1.74,5.9.22.8.64,1,1.37.61a11.55,11.55,0,0,0,2.08-5.23,10.24,10.24,0,0,0,.19-3.32c0-.7.58-.58,1-.63a21.48,21.48,0,0,1,3.83,5.86A45.65,45.65,0,0,1,71.36,69.67Z"/><path class="cls-67" d="M72.3,63.85c0,1.71,0,3.43,0,5.15,0,.46,0,1,.56,1,1.93.32,3.71,1.16,5.62,1.54-.4,1,0,1.89.14,2.83a14.15,14.15,0,0,1,.1,4.16l-1.36.72L77.16,79c-.67-1.28-1.67-2.34-2.38-3.59-.47-.35-.93-.79-1.54-.23s-.6,0-.64-.36a58.23,58.23,0,0,1-.42-9.88C72.2,64.55,72.26,64.2,72.3,63.85Z"/><path class="cls-68" d="M46.71,69.68A30,30,0,0,0,40.1,71.3a3.21,3.21,0,0,1-1.13.3,1.1,1.1,0,0,0-1.41,0,44.06,44.06,0,0,1-3.35,2.9l-.87,1-.79-.24c-.58-.68-.27-1.42-.15-2.14.22-1.33,1-2.51,1-3.87-.12-.3-.38-.32-.65-.29a9.59,9.59,0,0,0-2.58,1.89c-.25.26-.61.64-1,.09-.41-4.45-.29-8.82,2-12.88a1.68,1.68,0,0,1,.43-.56l1.25-1.92c.25,0,.51,0,.67-.24.8-.9,1.92-1.39,2.77-2.23a.44.44,0,0,1,.56,0c.55,0,.33.4.27.69a14.27,14.27,0,0,0-.28,4,1.94,1.94,0,0,0,.5,1.52c.88.21,1.45-.35,2-.85a22.53,22.53,0,0,0,3-3.23c.26-.37.46-.86,1-.92l.88.18a23.52,23.52,0,0,0,0,6.65c.12.63.05,1.37.71,1.8a1.33,1.33,0,0,0,1.18-.63c.16-.26.34-.64.69-.52s.34.5.37.82a46.45,46.45,0,0,0,0,5.78C47.25,68.9,47.37,69.46,46.71,69.68Z"/><path class="cls-69" d="M31.6,57.46c-2.15,4.3-2.51,8.89-2.18,13.59.2.34,0,.54-.25.72l-.22,0a27.29,27.29,0,0,1,0-8.17,15.2,15.2,0,0,1,2.22-6.08C31.27,57.4,31.39,57.22,31.6,57.46Z"/><path class="cls-70" d="M87.8,71c.39-.37.31-.87.33-1.34A24.92,24.92,0,0,0,86,57.7c.49.21.67.3,1,1.15a19.63,19.63,0,0,1,1.38,12.76,1.41,1.41,0,0,0-.22-.06C87.88,71.46,87.62,71.35,87.8,71Z"/><path class="cls-5" d="M46.41,81.61a10,10,0,0,1,3.87-5.46c.34.29.25.64.09,1a8.43,8.43,0,0,0-.61,5.7c.2,1,.11,2-1.08,2.35a1.68,1.68,0,0,1-2.09-1C46.18,83.41,46.53,82.48,46.41,81.61Z"/><path class="cls-71" d="M57.79,57.4c-.81,2.39-1.54,4.8-2.13,7.26-.11.45-.23,1-.78,1.1s-.77-.29-1-.68c.74,0,1-.39,1.11-1a27.16,27.16,0,0,1,1.68-6.65c.38-1-.47-1.7-.42-2.58A3.39,3.39,0,0,1,57.79,57.4Z"/><path class="cls-45" d="M63.49,65.16c-.86.89-1.34.82-1.66-.4-.58-2.21-1.19-4.42-1.92-6.6-.09-.26-.21-.51-.31-.77a3.9,3.9,0,0,1,1.95-2.83c-1.06,1.41-.89,2.86-.26,4.41a22.25,22.25,0,0,1,1.2,5.16A1.1,1.1,0,0,0,63.49,65.16Z"/><path class="cls-72" d="M46.71,69.68a43.36,43.36,0,0,0,.19-6c0-.47,0-.94.05-1.42a4.35,4.35,0,0,1,.2-2.64,11.79,11.79,0,0,1,1.91-2.89c.31.2.24.53.29.82A17.1,17.1,0,0,0,47.68,69a8.53,8.53,0,0,0,.71,3.45,3.35,3.35,0,0,1,.28,1,1.27,1.27,0,0,1-.77,1.34,1.19,1.19,0,0,1-1.34-.16,1.21,1.21,0,0,1-.49-1.46A8.11,8.11,0,0,0,46.71,69.68Z"/><path class="cls-73" d="M47.15,59.59,47,62.23c-.1-.45-.18-.41-.35,0-.31.7-.73,1.22-1.6.73C46.29,62.2,46.35,60.66,47.15,59.59Z"/><path class="cls-5" d="M34.21,74.48a8.11,8.11,0,0,1,3.35-2.9c.48,0,.49.4.51.75a44.34,44.34,0,0,0-1.24,6c-.09.53-.24,1.15-.83,1.35s-1.09-.31-1.51-.73a2.57,2.57,0,0,1-.76-2.91C33.92,75.54,34.05,75,34.21,74.48Z"/><path class="cls-5" d="M79.82,71.54a8.3,8.3,0,0,1,3.55,3.14,3.11,3.11,0,0,0,.33,1.37,2.68,2.68,0,0,1-.12,2.08c-.45.84-1,1.75-2,1.54s-1-1.21-1.08-2a18.84,18.84,0,0,0-1-4.86C79.23,72.29,79,71.73,79.82,71.54Z"/><path class="cls-32" d="M40.67,78a4.68,4.68,0,0,1,2.41-2.85c-.64,1.93-.29,3.91-.23,5.87,0,.89-.36,1.32-1.27,1.33s-1.35-.36-1.42-1.32S40.6,79.06,40.67,78Z"/><path class="cls-52" d="M44.26,75.19c.65.68.46,1.55.46,2.36A29.92,29.92,0,0,0,44.63,81c.32,2.47-.43,3.18-3.23,3,.08-.09.15-.24.24-.26,2-.29,2.16-1.67,2.22-3.39A24.17,24.17,0,0,1,44.26,75.19Z"/><path class="cls-45" d="M43.37,54.32a18,18,0,0,1-4.14,4.59c-.53.38-1.1,1-1.89.41,1.79-.47,2.45-2,3.23-3.42a11.55,11.55,0,0,1,1.63-2.19,2.46,2.46,0,0,0,.83-2C43.61,52.51,44.13,53.33,43.37,54.32Z"/><path class="cls-74" d="M36.85,53.09c-1.18.63-2.06,1.72-3.33,2.21-.28-.56.29-.65.53-.86.47-.42,1-.73,1.52-1.14.94-.81,1.93-1.62,1.29-3.09a2.21,2.21,0,0,1,.72,1.26C38,52.32,37.35,52.67,36.85,53.09Z"/><path class="cls-75" d="M83.54,55.08c-1.18-.43-1.89-1.57-3.06-2a1.69,1.69,0,0,1-.76-1.45l.59-1.13c0,1.86,1.36,2.64,2.58,3.6C83.18,54.33,83.85,54.41,83.54,55.08Z"/><path class="cls-32" d="M74.78,75.38A6.4,6.4,0,0,1,77.16,79c-.16.69.22,1.31.23,2,0,1-.51,1.36-1.39,1.4s-1.49-.34-1.49-1.3c0-1.31.28-2.61.25-3.93C74.74,76.56,74.06,75.94,74.78,75.38Z"/><path class="cls-32" d="M29.17,71.77l.25-.72c.58-.53,1.14-1.09,1.75-1.58a1.78,1.78,0,0,1,1.61-.55,15.89,15.89,0,0,0-1.59,4.68,1.31,1.31,0,0,1-1.56,1c-.74-.13-.76-.82-.7-1.44C29,72.7,29.09,72.24,29.17,71.77Z"/><path class="cls-76" d="M33.43,69.21c.56.6.12,1.19-.07,1.76a9.4,9.4,0,0,0-.81,4.25c0,1.83-.54,2.08-2.89,1.36.2-.12.41-.36.6-.35,1.37.09,1.5-.64,1.61-1.83A13.18,13.18,0,0,1,33.43,69.21Z"/><path class="cls-77" d="M87.8,71l.36.59c.15.54.34,1.06.45,1.61.14.7,0,1.32-.84,1.45a1.19,1.19,0,0,1-1.47-.92,13.14,13.14,0,0,0-1.74-4.75C86.18,68.75,86.85,70.07,87.8,71Z"/><path class="cls-78" d="M85,75.23a10.29,10.29,0,0,0-.81-4.06,2.51,2.51,0,0,1-.28-1.74c1.22,1.16,1.39,2.79,1.58,4.26.21,1.65.74,2.67,2.45,2.87a11.67,11.67,0,0,1-1.27.3C85.1,77.06,84.77,76.73,85,75.23Z"/><path class="cls-72" d="M62.57,80.88a4.88,4.88,0,0,1,1.15,2.66,15.07,15.07,0,0,1-.12,1.64.7.7,0,0,1-.8.56c-.25,0-.52-.11-.5-.39C62.37,83.86,62.48,82.37,62.57,80.88Z"/><path class="cls-79" d="M53.59,84a6.35,6.35,0,0,1,1.24-3.09c.45,1.33.18,2.73.45,4.08a.59.59,0,0,1-.51.7.78.78,0,0,1-.89-.42A3.31,3.31,0,0,1,53.59,84Z"/><path class="cls-80" d="M114,86.62V42.24a17.06,17.06,0,0,0-8.53-14.77L67,5.29A17,17,0,0,0,50,5.29L11.53,27.47A17.06,17.06,0,0,0,3,42.24V86.62a17.06,17.06,0,0,0,8.53,14.77L50,123.58a17.1,17.1,0,0,0,17.06,0l38.42-22.19A17.06,17.06,0,0,0,114,86.62Z"/></g></g></svg>