<svg xmlns="http://www.w3.org/2000/svg" viewBox="0 0 116.97 128.86"><defs><style>.cls-1{fill:#d00014;}.cls-2{fill:#cdb086;}.cls-3{fill:#7d000c;}.cls-4{fill:#b19874;}.cls-5{fill:#010101;}.cls-6{fill:#010100;}.cls-7{fill:#020101;}.cls-8{fill:#dbbe93;}.cls-9{fill:#f6d3c6;}.cls-10{fill:#dac090;}.cls-11{fill:#a58f71;}.cls-12{fill:#f9c02a;}.cls-13{fill:#efdec4;}.cls-14{fill:#96774b;}.cls-15{fill:#050e1b;}.cls-16{fill:#4e0805;}.cls-17{fill:#2b0303;}.cls-18{fill:#cfa798;}.cls-19{fill:#c5aa83;}.cls-20{fill:#b8870a;}.cls-21{fill:#b9870a;}.cls-22{fill:#bc8c14;}.cls-23{fill:#c1921c;}.cls-24{fill:#e8d1b0;}.cls-25{fill:#a58f70;}.cls-26{fill:#760800;}.cls-27{fill:#b5a287;}.cls-28{fill:#b5a388;}.cls-29{fill:#e8e4e4;}.cls-30{fill:#e8e3e3;}.cls-31{fill:#e8e2e2;}.cls-32{fill:#fdfdfd;}.cls-33{fill:#fefefe;}.cls-34{fill:#b19f84;}.cls-35{fill:#c9ad85;}.cls-36{fill:#790d05;}.cls-37{fill:#770b04;}.cls-38{fill:#0a254d;}.cls-39{fill:#fdfdfc;}.cls-40{fill:#0c1420;}.cls-41{fill:#fcfcfb;}.cls-42{fill:#88120c;}.cls-43{fill:#f31000;}.cls-44{fill:#003683;}.cls-45{fill:#f83b28;}.cls-46{fill:#7a1008;}.cls-47{fill:none;stroke:#540010;stroke-miterlimit:10;stroke-width:6px;}</style></defs><g id="Calque_2" data-name="Calque 2"><g id="Calque_8" data-name="Calque 8"><path class="cls-1" d="M37.14,116.18l-1-.6L11.53,101.39A17,17,0,0,1,3,86.62V42.25a17.06,17.06,0,0,1,8.53-14.78l5.14-3h0l.51-.29c-.16.39-.31.78-.45,1.18-.92,2.59-1.31,5.32-2.12,7.93-.13.47-.25.93-.36,1.4h0a40,40,0,0,0-.86,5.44s0,.06,0,.09c-.11,1.24-.18,2.48-.23,3.73a39,39,0,0,0,.64,9.59,3.3,3.3,0,0,1-.19,2,31.88,31.88,0,0,0-2.37,13.37,4.42,4.42,0,0,1-.13,1.3l-.09.19-.08.12c-.5.7-1.47.7-2.11,1.24a3.06,3.06,0,0,1,1.82-.05l.1.06h0l.06,0a4.09,4.09,0,0,1,.62,2.49,46.91,46.91,0,0,0,3.15,14.8,3.41,3.41,0,0,1,.33,1.37,0,0,0,0,1,0,0h0a.9.9,0,0,1,0,.16h0a6.21,6.21,0,0,1-1.31,2c-1.07,1.47-2.14,2.94-2,4.93A19.39,19.39,0,0,1,14,93.3c.38-.54.73-1.16,1.51-1.23h.05c.51.2.67.7.9,1.13a44.57,44.57,0,0,0,7,9.58A84.59,84.59,0,0,0,30,109.38h0l.62.54h0c.11.1.22.2.34.29l.18.14a3.73,3.73,0,0,1,.34.35l.09.1A32.19,32.19,0,0,1,37.14,116.18Z"/><path class="cls-1" d="M85.79,16.13a28.86,28.86,0,0,0-12.44,6.51,5.93,5.93,0,0,1-.56.46h0a1.29,1.29,0,0,1-.16.09h0a1.06,1.06,0,0,1-.25.09A2.56,2.56,0,0,1,71,22.91a28.06,28.06,0,0,0-13.58-2.3,39.19,39.19,0,0,0-12.6,3,2.43,2.43,0,0,1-1,.31l-.27-.1a2.69,2.69,0,0,1-.34-.17h0a14.75,14.75,0,0,1-1.49-1.23,28.59,28.59,0,0,0-11.55-5.73l.47-.27L50,5.29a16.81,16.81,0,0,1,4.63-1.83h7.8A16.81,16.81,0,0,1,67,5.29L85.3,15.85Z"/><path class="cls-1" d="M114,42.25V86.62a17,17,0,0,1-8.53,14.77l-25.95,15-.59.33c.33-.48.65-1,.95-1.47a6.65,6.65,0,0,1,1.56-1.78,100.75,100.75,0,0,0,9.27-9,93.18,93.18,0,0,0,6.12-7.23l0,0h0a.67.67,0,0,0,.12-.12,2.82,2.82,0,0,0,.29-.5.3.3,0,0,1,0-.08c0-.2.12-.41.18-.6,0,0,0,0,0,0h0a57,57,0,0,1,2.66-5.51,53.52,53.52,0,0,0,4.78-24.64,34.06,34.06,0,0,0-1.34-8.67,10.34,10.34,0,0,1-.36-3.28c.07-3.4.13-6.81-.09-10.22a87.79,87.79,0,0,0-1-9.71v0c0-.33-.12-.66-.19-1a18.39,18.39,0,0,0-1.18-4.19,0,0,0,0,1,0,0c-.1-.21-.2-.43-.32-.64a6.32,6.32,0,0,1-.75-1.87,23.56,23.56,0,0,0-.91-2.52l.51.3h0l6.18,3.57A17.06,17.06,0,0,1,114,42.25Z"/><path class="cls-2" d="M43.73,23.77c9.28-3.94,18.64-5.27,28.18-.89a2.55,2.55,0,0,0,.56.14,2.52,2.52,0,0,0,2.32-.51A27.12,27.12,0,0,1,84,18.27l.35-.1c.42-.09,1-.28,1.18.18s-.29.77-.64,1a25.38,25.38,0,0,0-6.16,5.53c-1,1.27-1,1.26.17,2.36.46.44.9.9,1.35,1.34.65.7,1.37,1.34,2,2.07a57.85,57.85,0,0,1,8.09,12.24,7.18,7.18,0,0,0,3.58,3.83,11.24,11.24,0,0,1,3.79,3.18,19.6,19.6,0,0,1,2.76,4.69,19.3,19.3,0,0,1,1.71,6.8c-.29,3.23-2,5.81-3.83,8.34-1.13.2-2.17-.32-3.26-.48a39,39,0,0,0-12.15.62c-2,.33-3.86.84-5.78,1.32a3,3,0,0,1-1.39.19A12,12,0,0,0,68.89,70c-1.63.11-3.17.67-4.78.92a1.4,1.4,0,0,1-.52-.18c-.62-.51-1.6-.54-1.93-1.45-.07-1.94-1.19-3.52-1.85-5.26-.18-.45-.61-.88-.07-1.37a12.57,12.57,0,0,1,3.06-.3c.57.09,1,.56,1.52.68,1.91.44,3.72-.24,5.56-.52,3.94-.95,7.31-3.09,10.73-5.12a21.88,21.88,0,0,0,7-6.68c.94-1.28.94-1.65-.22-2.85-5.44-5.66-14.77-6.4-20.41,1.1a30.22,30.22,0,0,1-2.21,2.95,15,15,0,0,1-7,3.15,14.79,14.79,0,0,1-11.52-3,5.15,5.15,0,0,1-1-1.57c-2-3.57-4.76-6.17-8.78-7.08a15,15,0,0,0-12.64,2.44c-2.47,1.81-2.12,1.8,0,4.29a44.33,44.33,0,0,0,7,6.24,47.1,47.1,0,0,0,10,4.73,18.48,18.48,0,0,0,5.5,1.15c.83.42,1.71-.18,2.55.14.51.46.15.87-.12,1.23a16.83,16.83,0,0,0-1.44,2.84,1.55,1.55,0,0,0,.05,1.57c-.3.9-1.34.48-1.84,1a.93.93,0,0,1-.47.22c-3.28-2.31-6.64-2-10-.3a4.83,4.83,0,0,0-2,1.86c-2.32.11-4.55-.55-6.84-.8a40.28,40.28,0,0,0-11.5,0,2.4,2.4,0,0,1-1.63,0,5.67,5.67,0,0,1-.66-3.2A30.34,30.34,0,0,1,15,52.78c.8-1.55,1.57-3.13,2.34-4.7,1.13-1.16,2-2.55,3.2-3.66a9.84,9.84,0,0,1,3.12-2.13,3.11,3.11,0,0,0,1.79-1.78,36.92,36.92,0,0,1,6.49-9.33,5,5,0,0,1,.8-.71c.83-.54,1.4-1.4,2.23-2,1.18-.91,2.45-1.69,3.67-2.54.94-.52,1.85-1.1,2.83-1.55C42.17,24.13,42.8,23.41,43.73,23.77Z"/><path class="cls-3" d="M97,97.43c-1.3,1.34-2,3.11-3.36,4.44-1.51,1.51-3,3-4.41,4.64A71.91,71.91,0,0,1,81.33,114a8.82,8.82,0,0,0-1.84,2.4l-.59.33L67,123.58c-.42.24-.85.46-1.28.66H51.23c-.43-.2-.86-.42-1.28-.66l-12.81-7.4-1-.6A30.74,30.74,0,0,0,31.28,111c0-.21-.09-.42-.13-.64a25.68,25.68,0,0,1-.76-6.93A9.54,9.54,0,0,1,31,99.83a1.09,1.09,0,0,1,.35-.16h0a.5.5,0,0,1,.13,0h0a1.87,1.87,0,0,1,1.2.58,47.18,47.18,0,0,0,6,3.83h0a3,3,0,0,1,.35.19h0a2.69,2.69,0,0,0,.29.16,3.75,3.75,0,0,1,.78,1.32,24.93,24.93,0,0,0,3.26,5.66,15.27,15.27,0,0,0,10.23,5.45,20.39,20.39,0,0,0,7.42-.67c3.7-.87,6.39-3.23,8.68-6.12,1.11-1.39,1.79-3.08,2.86-4.52l.31-.21a.71.71,0,0,1,.14-.1h0c1.24-.81,2.6-1.39,3.85-2.19a1,1,0,0,1,.81-.22s0,0,0,0l0,0h0a.51.51,0,0,1,.21.16c.5,1.92-.19,3.75-.43,5.62a1.15,1.15,0,0,1-.06.25c1.09-2.06,1.26-4.54,1.52-7a1.14,1.14,0,0,1,.27-.37l.24-.2a0,0,0,0,0,0,0l.65-.38a53,53,0,0,0,11.28-9.79,2.09,2.09,0,0,1,.87-.72h0l.13,0h.13a.9.9,0,0,1,.64.28A14.78,14.78,0,0,1,97,97.08,3.59,3.59,0,0,1,97,97.43Z"/><path d="M31.3,99.79a17.73,17.73,0,0,0-.36,6.69c.13,1.18.37,2.34.53,3.51,0,.34.16.72-.18,1l-.45-.5A7.13,7.13,0,0,1,29.08,106a22.32,22.32,0,0,1,.36-7.29,28.1,28.1,0,0,1,2.72-9.76c.49-1,1-1.91,1.51-2.82A16.22,16.22,0,0,1,35,84a1.85,1.85,0,0,0,.24-2.44,3.15,3.15,0,0,1,.12-3.77c.61-.43.86-.09,1,.47a7.8,7.8,0,0,0,.48,1.58c.52,1.08.81,1.17,1.79.52L39.1,80a5,5,0,0,1,1.9-.88.67.67,0,0,1,.74.19c.18.27,0,.53-.17.75a4.85,4.85,0,0,1-1,.93,4.09,4.09,0,0,0-.44.39c-.55.53-.44.89.28,1.05a14.06,14.06,0,0,0,5.66.43,14.84,14.84,0,0,0,7.06-2.93c.7-.58,1.21-.47,1.81.17,1.67,1.74,3.3,3.56,5.54,4.62a14.51,14.51,0,0,0,8.19,1.47c.37,0,.92,0,1.05-.4s-.42-.59-.69-.86-.31-.25-.46-.38c-.69-.76-1.47-1.43-2.15-2.2-.2-.24-.48-.52-.3-.84s.63-.23,1-.12a15.14,15.14,0,0,1,3.63,2.21c1.72,1.56,1.86,1.56,3.64,0a29.33,29.33,0,0,0,2.07-2.1c.25-.27.46-.68,1-.49.4.59.11,1.15-.09,1.69a9.32,9.32,0,0,1-2.62,3.47c-.47.43-.68.85-.19,1.41a26.76,26.76,0,0,1,2.42,3.79,3.31,3.31,0,0,1,.29.67,27.64,27.64,0,0,1,2.36,8.39,1.87,1.87,0,0,1-.27,1.36,18.26,18.26,0,0,1-1,6.26,5.53,5.53,0,0,1-1.2,2c.07-2.53.88-4.76.67-7.09a4.44,4.44,0,0,1-.55-2.25,33,33,0,0,0-1.51-6.28,20.94,20.94,0,0,0-3.2-5.75,1,1,0,0,0-1.5-.39c-.82.42-.64,1.21-.65,1.89A68.2,68.2,0,0,1,69,102a13.53,13.53,0,0,1-3.25,7,14.84,14.84,0,0,1-16.48,3.66,10.73,10.73,0,0,1-7.13-7.8,118.91,118.91,0,0,1-3.61-18c-.09-.91.27-2-.66-2.66-.53-.19-.69.26-.91.56a26,26,0,0,0-1.68,2.71,19.53,19.53,0,0,0-1,2,33.41,33.41,0,0,0-2.57,9.08A1.62,1.62,0,0,1,31.3,99.79Z"/><path class="cls-4" d="M100.67,53.44a2.13,2.13,0,0,1-.32.86.87.87,0,0,1-.29.24c-.54-1.7-1.77-3-2.57-4.56a1.23,1.23,0,0,1-.07-.42,3.22,3.22,0,0,1,.1-.75,38.29,38.29,0,0,0-1-20.17,11.87,11.87,0,0,0-3-4.65,2.91,2.91,0,0,0-.48-.4,2.6,2.6,0,0,0-.48-.31,5.69,5.69,0,0,0-4.16,0,14.14,14.14,0,0,0-6,3.65c-.64.61-1.11,1.42-2,1.76l-.28.1c-.9-.58-1.46-1.56-2.41-2.09-.44-.24-.27-.56,0-.88a22.54,22.54,0,0,1,3.73-4.26c1.27-1.11,2.68-2,4.13-3.08-.61-.31-1,0-1.44.14a27,27,0,0,0-9.69,4.58c-.68.5-1.24.54-1.78,0L72.47,23a26.42,26.42,0,0,1,9.76-6.14,28.43,28.43,0,0,1,3.07-1l.49.28L98.74,23.6l.51.3h0c.32.8.6,1.63.86,2.47.13.41.27.82.4,1.23a28.6,28.6,0,0,1,1.58,6.21v0c.09.59.18,1.18.26,1.77C103.23,41.69,102.15,47.59,100.67,53.44Z"/><path class="cls-4" d="M43.72,23.77l-.18.08c-.67.3-1.34.61-2,.9a2.87,2.87,0,0,1-.4-.18,9.34,9.34,0,0,1-1.79-1.41A36.31,36.31,0,0,0,31.42,18c3,1.86,5.07,4.58,7,7.4a1.06,1.06,0,0,1,.21.53.77.77,0,0,1,0,.26c-1,1.07-2.45,1.63-3.56,2.61a2.12,2.12,0,0,1-.38-.13,5.37,5.37,0,0,1-.88-.71,16.67,16.67,0,0,0-7.72-4.14,4.56,4.56,0,0,0-.8-.09h0a3.38,3.38,0,0,0-.95.1h0a3.28,3.28,0,0,0-.95.37,8.82,8.82,0,0,0-3.79,4.73,31.43,31.43,0,0,0-1.93,10.23,45.6,45.6,0,0,0,.17,7.48,2.14,2.14,0,0,1,0,.91,1.35,1.35,0,0,1-.31.54,14.84,14.84,0,0,1-2.21,4.54.64.64,0,0,1-.19-.08c-.49-.24-.51-.78-.61-1.24a42.87,42.87,0,0,1-1.09-11.14,32,32,0,0,1,.74-5.62,6.31,6.31,0,0,1,.27-1.49,62.61,62.61,0,0,1,2.28-8.55h0l.51-.29,13-7.49.47-.27A28.72,28.72,0,0,1,43.72,23.77Z"/><path class="cls-3" d="M100.06,54.54c.44-2.49,1.08-4.94,1.55-7.43,1.16-6.28.52-12.44-.91-18.58-.07-.31-.11-.62-.17-.93a6.56,6.56,0,0,1,1.26,3.13A62,62,0,0,1,103.52,43a70.59,70.59,0,0,1,.09,9.86c-.2,2.59.74,4.88,1.11,7.31a53.59,53.59,0,0,1,0,16.53,57.35,57.35,0,0,1-5.51,16.59,15.49,15.49,0,0,0-1.66,3.63.56.56,0,0,1-.27-.37c-.28-2.47-1.73-4.33-3.2-6.19-.33-.42-.77-.8-.75-1.42a3.79,3.79,0,0,1,.8-1.44,42.09,42.09,0,0,0,7.39-17.61,3.88,3.88,0,0,0,.09-.58c0-2.65.16-5.29.25-7.93A21.77,21.77,0,0,0,100.06,54.54Z"/><path class="cls-3" d="M29.78,98.6c-.41,3.08-.74,6.16.06,9.25.25.92.71,1.74,1,2.64A47.18,47.18,0,0,1,25,105a58.4,58.4,0,0,1-7.19-8.8,30.21,30.21,0,0,1-2.21-4.07c-.28-.38,0-.68.2-.93,1-1.09,2.07-2.13,3-3.27a.82.82,0,0,1,.83-.33,50.14,50.14,0,0,0,6.51,7.66,25.31,25.31,0,0,0,2.63,2.22A3.28,3.28,0,0,1,29.78,98.6Z"/><path class="cls-3" d="M14.66,90.78c-.71-2.46-1.72-4.82-2.3-7.32A46.22,46.22,0,0,1,11,74.25a4.7,4.7,0,0,0-.48-2.38,2.37,2.37,0,0,1,2.64-.78.89.89,0,0,1,.33.6,38.1,38.1,0,0,0,5.25,14.59.25.25,0,0,1,0,.12C18.54,87.34,15.59,90.49,14.66,90.78Z"/><path class="cls-5" d="M93.45,89.07c.9,1.19,1.91,2.29,2.71,3.56a7.19,7.19,0,0,1,1.36,4.31.8.8,0,0,1-.48.49,7.31,7.31,0,0,1-1-2.12,16,16,0,0,0-3.52-4.87,2.28,2.28,0,0,1-1.32-.93,29.38,29.38,0,0,0-5.32-4.44,38.74,38.74,0,0,0-4.72-2.61c-1.12-.6-2.33-1-3.49-1.5-.42-.33-1-.21-1.41-.39a35.79,35.79,0,0,0-8.08-1.32c-.49,0-1.25,0-1.31-.53s.7-.64,1.19-.73a14.19,14.19,0,0,1,4.58-.44c1.2.26,2.42.41,3.61.74s2.42.76,3.6,1.21q.56.27,1.11.51a40.63,40.63,0,0,1,6.21,3.31,35.66,35.66,0,0,1,5.53,4.59A2.63,2.63,0,0,1,93.45,89.07Z"/><path class="cls-6" d="M14.66,90.78l4-4.3a6.78,6.78,0,0,1,2.21-2.43c.35-.31.72-.62,1.09-.92a40.54,40.54,0,0,1,7.82-4.89,26.93,26.93,0,0,1,5.31-2.38,10.14,10.14,0,0,1,5.62.22c.38.11.88.27.84.71s-.58.48-1,.51a32.22,32.22,0,0,0-3.8.18c-.35.1-.74-.09-1.09.12a35.67,35.67,0,0,0-5.6,2.71,28.43,28.43,0,0,0-6.2,4c-1.13.93-2.18,2-3.33,2.86-.3.24-.57.56-1,.56a50.11,50.11,0,0,0-4,4.41,13.82,13.82,0,0,0-3.4,5.19c-.18.44-.29,1.29-.77,1.16-.71-.17-.42-1-.34-1.54a10.72,10.72,0,0,1,2.48-4.78C13.89,91.67,14.28,91.23,14.66,90.78Z"/><path class="cls-3" d="M14.39,33.06c-.15,2.79-.82,5.55-.7,8.36a48.19,48.19,0,0,0,1.58,11.21,4.64,4.64,0,0,1-.64,2.12c-2,4.93-2.19,10-1.67,15.24a1.57,1.57,0,0,1-2.17.48c-.07-4.4.13-8.77,1.62-13,.12-.34.23-.67.37-1A5.82,5.82,0,0,0,13.27,53a49.12,49.12,0,0,1,.87-19.39A2.08,2.08,0,0,1,14.39,33.06Z"/><path class="cls-7" d="M10.79,70.47,13,70c6.64-1.38,13.21-.4,19.77.7a2.48,2.48,0,0,0,.47,0c.41-.37.89-.23,1.35-.16A22.32,22.32,0,0,1,39,71.74a2.66,2.66,0,0,1,.64.3c.25.18.57.38.45.74s-.51.37-.8.3c-1-.24-2.11-.28-3.15-.49a3.21,3.21,0,0,0-.82-.06c-.81-.07-1.62-.21-2.44-.31-3.23-.29-6.43-.76-9.66-1.08a38.8,38.8,0,0,0-9.45.33,1.1,1.1,0,0,1-.6-.24,11.35,11.35,0,0,0-2.63.64l-2.69.41C8.6,71,9.83,71,10.79,70.47Z"/><path class="cls-8" d="M50.66,34.45c-4,.16-7.95-.4-11.33-2.73-3.12-2.15-2.68-3.2,0-4.86a36.88,36.88,0,0,1,16.16-5.72A28,28,0,0,1,67,22.09a24.55,24.55,0,0,1,7.24,3.74c.93.71,1,1.3,0,2.08a20.54,20.54,0,0,1-7,3.47A94.19,94.19,0,0,1,54,34.43,23,23,0,0,1,50.66,34.45Z"/><path class="cls-9" d="M93.68,23.59c2.87,2.51,3.74,6,4.42,9.5a42.06,42.06,0,0,1,.11,14.76A12.61,12.61,0,0,1,97.49,50a20,20,0,0,0-5.88-4.13A1.36,1.36,0,0,1,91,45a56.19,56.19,0,0,0-8.73-13.78,2.12,2.12,0,0,1-.23-.53.87.87,0,0,1,.18-.79c2.25-3.26,5-5.84,9.08-6.57A3.63,3.63,0,0,1,93.68,23.59Z"/><path class="cls-9" d="M17.48,48.09a73.77,73.77,0,0,1-.24-9,32.49,32.49,0,0,1,2-10.22,8.26,8.26,0,0,1,4.23-5,4.31,4.31,0,0,1,3.51.6,17.12,17.12,0,0,1,5.7,4.93c.31.41.67.83.33,1.4a33.33,33.33,0,0,0-7.15,9.78,3.92,3.92,0,0,1-2.24,2.22c-2.08.8-3.5,2.51-4.86,4.22C18.37,47.37,18.23,48.07,17.48,48.09Z"/><path class="cls-10" d="M67.45,64.54c1.17-.3,2.35-.58,3.53-.89a42.72,42.72,0,0,0,14.79-7.1,27.05,27.05,0,0,0,3.55-3.47c1.15-1.26,2.69-1,4.12-.84.66.07.72.85.73,1.46,0,2.65-1.38,4.62-3,6.54-3,3.66-7.27,4.52-11.6,5.25a45.52,45.52,0,0,1-7.83.21A7.81,7.81,0,0,1,67.45,64.54Z"/><path class="cls-11" d="M93.45,89.07A48.1,48.1,0,0,0,87,83.61a21.13,21.13,0,0,1,2.63-2.72A42.32,42.32,0,0,0,97.29,70.4c.79-.28,1.52.16,2.31.19-.28-.47-1.17-.29-1.14-1.06.85-1.7,1.67-3.41,2.56-5.08a5.48,5.48,0,0,0,.81-3.05,31.88,31.88,0,0,1-.26,10.27A43.26,43.26,0,0,1,93.45,89.07Z"/><path class="cls-12" d="M64.09,63.35c-.61.13-.81-.39-1.11-.73-1-1.16-.64-2.53-.58-3.85a15.24,15.24,0,0,1,9.74-11.56c4.91-2,9.83-1.82,14.31,1.47a2.3,2.3,0,0,1,1,1.16A1.26,1.26,0,0,1,86.86,51c-1.56,1.35-3.14,2.67-4.79,3.91-.38.28-.75.61-1.29.41-.58-.68-.57-1.6-1-2.35,0-.66.62-.74,1-1.06s.59-.48.37-.88-.53-.29-.85-.23a3.8,3.8,0,0,1-1.37.31,3,3,0,0,1-1-.69,4.42,4.42,0,0,0-5.48-.44,8.75,8.75,0,0,0-4.38,7.29,7,7,0,0,0,1.16,4.1c.24.36.46.75.17,1.19A11.44,11.44,0,0,1,64.09,63.35Z"/><path class="cls-11" d="M62.74,58.58a16.58,16.58,0,0,0,.24,4,10.8,10.8,0,0,1-3.35.25c-.9-.08-1.23-.91-1.78-1.42a4.62,4.62,0,0,0-4.64-1.4A6.89,6.89,0,0,0,50.41,62c-.4.38-.74,1-1.49.67-.87,0-1.75.53-2.63,0a2.93,2.93,0,0,1,.29-.65,9.19,9.19,0,0,0,.54-3.75,20.72,20.72,0,0,0-.86-4.94c-.12-.48-.41-1,.05-1.43a17.47,17.47,0,0,0,6.33,2.7A13.92,13.92,0,0,0,63.42,52.4c.4-.26.81-.49,1.21-.73.4.57,0,1.06-.2,1.54A18.77,18.77,0,0,0,62.74,58.58Z"/><path class="cls-10" d="M38.28,61.46c-.3.37-.73.2-1.09.21-2.62,0-5.24.12-7.85,0-3.43-.18-6.82-.62-9.74-2.8a5.27,5.27,0,0,1-2.1-5.41,1.42,1.42,0,0,1,.79-1.11,8.9,8.9,0,0,1,2.46-.86A1.89,1.89,0,0,1,22.7,52c4,4.56,9.08,7.27,14.79,9C37.77,61.09,38.12,61.1,38.28,61.46Z"/><path class="cls-8" d="M48.92,62.65c.86-.24,1.29-1,1.88-1.57a4.8,4.8,0,0,1,7.14,0c.59.58,1.13,1.21,1.69,1.81A42.37,42.37,0,0,1,62,68.38c.1.28.54.75-.18.92a1.05,1.05,0,0,1-1.13,0c-3.83-1.59-7.83-1-11.8-.89-.55,0-1.1.15-1.56-.3-.83,0-.82-.48-.6-1.12A20,20,0,0,1,48.92,62.65Z"/><path class="cls-13" d="M63.86,70.7a36,36,0,0,1,4.82-1,14.51,14.51,0,0,1,6.68,1c.28.1.38.26.22.53-.23.55-.78.64-1.26.8-1.65.55-3.27,1.19-4.48,1.64,1.25-.5,3.06-.67,4.78-1.19a1,1,0,0,1,1.11.23A1.89,1.89,0,0,1,75.21,75a11.77,11.77,0,0,1-13.54,1.79,1.51,1.51,0,0,1-.71-.61c-.2-1.14.77-1.88,1-2.88C62.52,72.38,62.83,71.28,63.86,70.7Z"/><path class="cls-14" d="M62.74,58.58a14.54,14.54,0,0,1,1.46-5.82c.16-.36.29-.73.43-1.09a22.67,22.67,0,0,1,5.16-6c4.55-3.29,9.62-3.22,14.43-.68a12.09,12.09,0,0,1,3.61,2.88c1.23,1.45,1.24,1.66-.06,3.1-.46-.16-.38-.61-.5-.94a10.6,10.6,0,0,0-7.54-3.56c-6.18-.57-11,2-14.69,6.82A15.13,15.13,0,0,0,62.74,58.58Z"/><path class="cls-14" d="M46.31,51.89c.33,1.54.63,3.09,1,4.62a7,7,0,0,1,.14,1.88c-.75-.23-.64-.94-.75-1.47A13.06,13.06,0,0,0,40.2,47.7a14.26,14.26,0,0,0-13.79-.3,7.87,7.87,0,0,0-2.13,1.68c-.44.37-.28,1-.6,1.41a9.41,9.41,0,0,1-1.87-2.11c-.49-.55-.18-1,.24-1.43A14,14,0,0,1,30.3,42.9,13.94,13.94,0,0,1,42.14,46,18.47,18.47,0,0,1,46.31,51.89Z"/><path class="cls-15" d="M40.7,61.58c-3.51-1.39-7.05-2.72-10.16-4.94a3.67,3.67,0,0,1-.34-2.39,7.76,7.76,0,0,1,2-4.38,1.54,1.54,0,0,1,1.17-.69,7,7,0,0,1,2.35,2.14c.45.53.24,1.11,0,1.67a5.09,5.09,0,0,0-.62,2.86,3,3,0,0,0,.47,1.46c.28.4.59.83,1.13.73s.57-.67.64-1.14c.11-.74-.19-1.67.89-2a6.33,6.33,0,0,1,4.6,1.66,7,7,0,0,1-1,4.36A1.53,1.53,0,0,1,40.7,61.58Z"/><path class="cls-15" d="M80.07,52.72a7.21,7.21,0,0,1,.79,2.51,2,2,0,0,1,0,2.39,36.45,36.45,0,0,1-10.75,5.22c-.2-.16-.63,0-.62-.47a7.16,7.16,0,0,1-1.73-5.22c1-1.1,2.48-1.51,3.76-2.19.71-.37,1,.15,1,.83a5.91,5.91,0,0,0,.22,2.58c.23.61.52,1.26,1.29,1.17s.88-.82,1-1.45,0-1.34,0-2a1.67,1.67,0,0,1,.72-1.53c1-.57,2.12-1,3.14-1.65A1.13,1.13,0,0,1,80.07,52.72Z"/><path class="cls-13" d="M35.34,72.16a34.21,34.21,0,0,1,4.7.63c-2.1-1.31-4.48-1.67-6.84-2.11-.58-.36-.19-.63.1-.89a9.37,9.37,0,0,1,5.55-2.37,8.91,8.91,0,0,1,4.85.69,2.57,2.57,0,0,1,1.38,1.19.81.81,0,0,1,.58.73,4.56,4.56,0,0,0,.56,2.33,1.73,1.73,0,0,1,.26,1.22,1.09,1.09,0,0,1-1.17.64,33.19,33.19,0,0,1-8.49-.8C36.18,73.23,35.36,73.13,35.34,72.16Z"/><path class="cls-16" d="M47.3,68.14c2.41-.24,4.82-.34,7.24-.39a18,18,0,0,1,7.25,1.55c.56.5,1.38.59,1.87,1.2a1.17,1.17,0,0,1-.38.59c-2.56,1.54-5,3.5-8.28,3-.7-.12-1.41-.17-2.12-.25-3.41-.39-5.8-2.35-7.76-5C45.76,68.3,46.63,68.53,47.3,68.14Z"/><path class="cls-17" d="M45.12,68.81c.5,0,.76.25,1,.64,2,2.84,5,3.66,8.24,4.2,3.78.63,6.36-1.57,9.26-3.15l.2.2a20.71,20.71,0,0,1-1.63,2.61,7.6,7.6,0,0,1-4.87,3.34c-.68.19-1.29.35-1.56,1.09a1,1,0,0,1-.59.56c-1,.42-3.6-.6-4-1.65a2.79,2.79,0,0,0-1.68-1.71,6.63,6.63,0,0,1-4.18-5l-.29-.67Z"/><path class="cls-5" d="M75.59,72.65l-6.45,1.48a2.22,2.22,0,0,1-1.32.12,45.55,45.55,0,0,1,7.76-3.08A94.13,94.13,0,0,1,86,69a31.13,31.13,0,0,1,12.46.58c.68.51,1.72.54,2.21,1.64l-3.4-.65a1.13,1.13,0,0,1-1,.15c-5.44-1.09-10.75-.11-16,1.06-.66.15-1.31.33-2,.45s-1.2.26-1.79.45A1.06,1.06,0,0,1,75.59,72.65Z"/><path class="cls-8" d="M78.52,39.43c-5.9.55-10.15,4.09-14.5,7.81a5.33,5.33,0,0,1,1.35-3.4c2.09-3,4.66-5.41,8.49-5.9A6.29,6.29,0,0,1,78.52,39.43Z"/><path class="cls-8" d="M32.83,38.84c5.26-2.21,14.11,2.56,14,7.39A32,32,0,0,0,32.83,38.84Z"/><path class="cls-18" d="M93.68,23.59c-4.81-.2-8.12,2.34-10.82,6L82,30.71a9.55,9.55,0,0,1-1.9-1.91c2.4-2.83,5.14-5.23,8.87-6.05C90.59,22.39,92.3,22.27,93.68,23.59Z"/><path class="cls-19" d="M38.67,26.18a58,58,0,0,0-4.28-5.35A28.14,28.14,0,0,0,31,18.06c-.2-.15-.5-.24-.44-.77a33,33,0,0,1,11,7.46C40.52,25.1,39.73,25.93,38.67,26.18Z"/><path class="cls-18" d="M33,30.71a7.85,7.85,0,0,0-2.3-3.09,14.59,14.59,0,0,0-4.83-3.34,5.3,5.3,0,0,0-2.41-.5,4.58,4.58,0,0,1,3.88-.06,16.63,16.63,0,0,1,7.8,5.08Z"/><path class="cls-20" d="M30.53,54c0,.87,0,1.73,0,2.6a33.46,33.46,0,0,1-6.86-6.15c-.13-.52-.35-1.06.27-1.45a.77.77,0,0,1,.77.18A72.42,72.42,0,0,1,30.53,54Z"/><path class="cls-21" d="M80.84,57.62l0-2.39A43.31,43.31,0,0,0,87.27,50a1.55,1.55,0,0,1,.5.94A19.48,19.48,0,0,1,80.84,57.62Z"/><path class="cls-22" d="M40.7,61.58l.77-.68a30.79,30.79,0,0,1,5.32,1.53l-.5.23A18.78,18.78,0,0,1,40.7,61.58Z"/><path class="cls-23" d="M69.47,62.37l.62.47c-2,.37-3.93,1.07-6,.51A26.54,26.54,0,0,0,69.47,62.37Z"/><path class="cls-24" d="M35.11,87.4a14.89,14.89,0,0,1,2.26-3.59c.1-.11.24-.22.37,0a1.69,1.69,0,0,1,.36,1c.25,4.69,1.49,9.2,2.46,13.76a62.37,62.37,0,0,0,2.2,8,10.33,10.33,0,0,0,7,6.55,16.27,16.27,0,0,0,12.38-.88A11.77,11.77,0,0,0,68,106.06a37.57,37.57,0,0,0,2.66-11.3,24.52,24.52,0,0,0,.09-5.93,1.25,1.25,0,0,1,.27-1,.85.85,0,0,1,1.43.2,21.46,21.46,0,0,1,3.37,6,1.28,1.28,0,0,1,.1.92,27.06,27.06,0,0,1-3.24,10.7,33.79,33.79,0,0,1-3.93,6.06c-6.11,6.86-17.5,7.21-23.76,1.93-2.57-2.17-4-5-5.39-8-.17-.36-.34-.72-.5-1.08a3,3,0,0,1-.92-1.36,61,61,0,0,1-3-13.15C35.24,89.19,35,88.3,35.11,87.4Z"/><path class="cls-11" d="M86.06,84.83a27.13,27.13,0,0,1,6.43,5.61,54.17,54.17,0,0,1-12.12,10.69,2.81,2.81,0,0,1-1.14.61,30.22,30.22,0,0,0-2.44-9.81c2.41-1.71,4.81-3.44,7.07-5.36C84.57,86,85.06,85.08,86.06,84.83Z"/><path class="cls-11" d="M35.55,90a67.56,67.56,0,0,0,3.57,14.55,31.6,31.6,0,0,1-6.53-4c-.41-.31-.86-.55-1.29-.82a28.18,28.18,0,0,1,2.83-10.5A1.58,1.58,0,0,1,35.55,90Z"/><path class="cls-25" d="M72.7,105.69a77.18,77.18,0,0,0,2.49-8.14c.22-1.16.43-2.32.65-3.48a24.46,24.46,0,0,1,1.85,8.81Z"/><path class="cls-26" d="M66.53,93.53a20.51,20.51,0,0,1-2.14,9.61c-.82-.15-.88-.77-.9-1.42a.86.86,0,0,1,0-.23c1.06-2.61,1.07-2.76-1.08-4.63a17.33,17.33,0,0,0-8.28-3.62,9.75,9.75,0,0,0-4.8.08A7.24,7.24,0,0,0,44.54,98a1.76,1.76,0,0,0,.22,1.69,6.14,6.14,0,0,1,1,1.72c0,.57-.09,1.15-.88,1.12a52.86,52.86,0,0,1-3.38-13c1,.2,1.2,1.18,1.81,1.76.36.35.6,1.07,1.11,1s.46-.92.57-1.44a11.41,11.41,0,0,0,0-3.78c-.1-.83-.38-1.73.31-2.48l1.14-.33a19.34,19.34,0,0,1,1.94,1.9,1.18,1.18,0,0,0,1.85,0,4.38,4.38,0,0,1,6,.38l.85.82a1.63,1.63,0,0,0,2.25.17,4.34,4.34,0,0,1,1.45-.78l1.85.41a3.69,3.69,0,0,1,.2,1.86,12,12,0,0,0,1,4.62c.5,1.22.86,1.27,1.88.38C66,93.77,66.16,93.49,66.53,93.53Z"/><path class="cls-24" d="M75.59,72.65c.25-.07.4-.37.72-.26,2.27-.15,3,1.4,3.59,3.19a15,15,0,0,1,.7,3.24c.05.54.12,1.22-.82,1l-3.5-1.15a3.39,3.39,0,0,0-2.93-.76c-.23,0-.45.13-.68,0a14.67,14.67,0,0,0-5.76.85c3.25.28,6.53.34,9.62,1.54a.55.55,0,0,1-.21.63,16.33,16.33,0,0,1-4.66,3,1.74,1.74,0,0,1-1.15,0A15,15,0,0,0,66,81.4l2.76,2.89a1,1,0,0,1-.84.37c-4.39.26-8.43-.42-11.46-4-.94-1.12-.94-1.33.36-1.94a15.42,15.42,0,0,0,3.24-2.17c.3-.24.52-.62,1-.55,4.67,2.53,9.16,2.83,13.32-.73A2.55,2.55,0,0,0,75.59,72.65Z"/><path class="cls-24" d="M35.34,72.16c1.14,1.17,2.71,1.18,4.15,1.38,1.9.25,3.84.21,5.76.28.4,0,.91.15,1-.48a.61.61,0,0,1,.63.23,37.85,37.85,0,0,0,3.89,3.49c.81.62.77,1.23.09,2a7.84,7.84,0,0,1-5.66,2.65,12.26,12.26,0,0,1-4.14-.17c-.4-.11-1-.09-.77-.85l1.54-1.4a5.94,5.94,0,0,0-2.68,1,.64.64,0,0,1-.77,0c-.88-.86-1.82-1.7-1.89-3.06a15.93,15.93,0,0,1,4.67-.42,9.38,9.38,0,0,0-6.29-.47c-1.88.51-3.5,1.6-5.3,2.3a1.3,1.3,0,0,1-.38-1.19,11.93,11.93,0,0,1,1.46-4.87c.51-1,1.43-.81,2.31-.67Z"/><path class="cls-27" d="M40.34,80.74c.22.8.95.49,1.41.55a11,11,0,0,0,7.56-1.22l.21-.13c2.08-1.5,2.07-2,0-3.44a17.41,17.41,0,0,1-3.2-3.16A5.44,5.44,0,0,1,45.37,70c1.11,2.33,2.6,4.25,5.22,5a1.21,1.21,0,0,1,.82,1.09c.12,1.06.8,1.44,1.73,1.61.47.09.92.23,1.38.34s1,0,1-.6c.09-.79.56-1,1.29-1.06,2.2-.26,3.78-1.69,5.38-3.06A9.09,9.09,0,0,1,61.05,76,11.77,11.77,0,0,1,56,79.42a11.1,11.1,0,0,0,7.12,4.65,32.57,32.57,0,0,0,5.67.22,8.27,8.27,0,0,1,1.92,1.81A14.26,14.26,0,0,1,60.12,85a18.84,18.84,0,0,1-5.58-4.74c-.44-.51-.66-.51-1.18-.07-3.75,3.2-10.19,4.11-14.48,2.09A7,7,0,0,1,40.34,80.74Z"/><path class="cls-11" d="M19.51,87.7a53,53,0,0,1,4.15-3.64,29.34,29.34,0,0,0,8.21,4.32,1,1,0,0,1,.65.48,34.31,34.31,0,0,0-2.74,9.74,36.11,36.11,0,0,1-9.1-9A4.78,4.78,0,0,1,19.51,87.7Z"/><path class="cls-28" d="M71,87.83a38.49,38.49,0,0,1-1.89,16.36,13.15,13.15,0,0,1-9.39,9.37,16.72,16.72,0,0,1-11.91-.83c-3-1.34-4.6-3.73-5.64-6.7-1.61-4.61-2.41-9.41-3.49-14.15a27.91,27.91,0,0,1-1-8.09c.59.21,1.15.36,1.19,1.22a82.06,82.06,0,0,0,3.25,18.33,7.49,7.49,0,0,1,.23.81c.86,5.17,4.31,7.69,9.09,8.81a14.44,14.44,0,0,0,11.69-2.08c3.67-2.42,5.06-6.08,5.7-10.13a60.27,60.27,0,0,0,1-11.84C69.81,87.94,70.42,87.94,71,87.83Z"/><path class="cls-24" d="M77.75,80.72A18.11,18.11,0,0,1,81.3,82.2a1.6,1.6,0,0,1,.37,1.22,10.44,10.44,0,0,1-3.56,7.5c-.41.35-.84.91-1.55.53a28.41,28.41,0,0,0-2.75-4.12c-.49-.55-.33-.78.18-1.16a8.35,8.35,0,0,0,3-3.73,2.64,2.64,0,0,0,.23-1.39C77.19,80.61,77.41,80.56,77.75,80.72Z"/><path class="cls-2" d="M32.52,88.86A25,25,0,0,1,24,84.77a.85.85,0,0,1-.37-.71,24.09,24.09,0,0,1,6.2-4,1.55,1.55,0,0,1,.65.82,15.73,15.73,0,0,0,3,4.64,1.17,1.17,0,0,1,.37.72Z"/><path class="cls-29" d="M60.8,86.7a4.61,4.61,0,0,1-1.75,1.37,1.33,1.33,0,0,1-1.82-.19c-.23-.22-.55-.37-.69-.64-1-1.81-3-1.36-4.46-2-.41-.17-.61.26-.86.5-1.85,1.73-2.12,1.72-3.84-.21-.35-.4-.83-.74-.87-1.36a27,27,0,0,0,6.94-1.91.85.85,0,0,1,1.14.21A16.91,16.91,0,0,0,60.8,86.7Z"/><path class="cls-24" d="M33.92,86.22A13.15,13.15,0,0,1,29.86,80a20.27,20.27,0,0,1,5.71-2.62.29.29,0,0,1,0,.45A3.52,3.52,0,0,0,36,82.05a.86.86,0,0,1,0,1.29C35.23,84.26,34.6,85.26,33.92,86.22Z"/><path class="cls-2" d="M76.56,91.45c2.67-1.27,3.82-3.63,4.49-6.31a9.38,9.38,0,0,0,.25-2.94,24.53,24.53,0,0,1,4.76,2.63,44.92,44.92,0,0,1-8.59,7,2.05,2.05,0,0,1-.68.14Z"/><path class="cls-29" d="M59.3,107.79c.44,3,.41,3.13-2.63,3.52a16,16,0,0,1-6.49-.32c-1.8-.5-2.11-1.16-1.46-2.87.24-.62.47-1.25.71-1.87a.91.91,0,0,1,.42-.94c.57-.24.81,0,.89.56,0,.75-.22,1.49-.26,2.24s.26,1.24,1.07,1.26a32.51,32.51,0,0,0,4.63-.05c1.34-.16,1.67-.62,1.59-2,0-.66-.32-1.32,0-2,.35-.33.53,0,.75.19A3.54,3.54,0,0,1,59.3,107.79Z"/><path class="cls-30" d="M45.37,84.52c-.06,2.24.42,4.49,0,6.74-.13.64-.06,1.57-.7,1.76s-.91-.72-1.3-1.17c-.64-.75-1.21-1.56-1.81-2.34a18.07,18.07,0,0,1-1.91-5.61l1.27.36c0,.25-.49,0-.31.36,1.11,1.87,1.92,3.9,3.21,5.8,0-1.08,0-2.07,0-3a1.85,1.85,0,0,0-1.15-1.89c-.53-.26-1.27-.35-1.35-1.16Z"/><path class="cls-30" d="M63.67,101.81l.72,1.33.21,1.18c-.59.1-.82-.38-1.13-.72s-.53-.89-1.27-1c.21,1.88.12,3.73.48,5.55a1.89,1.89,0,0,1-.17,1.71c-1,0-1.47-.77-2-1.38a9.16,9.16,0,0,1-.83-1.11c-.7-.74-.21-1.54-.12-2.32a11.91,11.91,0,0,1,.81-3.44c.25-.69.44-1.49,1.38-1.55C62.46,100,63.37,100.86,63.67,101.81Z"/><path class="cls-30" d="M66.53,93.53c-.62.63-1.09,1.77-2,1.63s-1-1.4-1.3-2.22a12.41,12.41,0,0,1-.82-4.86c0-.33-.13-.72.24-1l3.24,1c-2,.57-1.71,2.11-1.55,3.59,0,.34,0,.72.37,1a14.71,14.71,0,0,0,2.05-3.42c.23-.45-.26-.72-.22-1.11,2.12.06,2-.31,1.35,1.85C67.51,91.2,67,92.36,66.53,93.53Z"/><path class="cls-31" d="M44.91,102.54l.74-1c.17-1.16,1.08-1.61,2-1.9s1.26.34,1.33,1.07a19.38,19.38,0,0,1,.29,4.1,1.16,1.16,0,0,1-.36,1c-.25,1.45-1.43,2.3-2.27,3.35-.32.39-.79.06-1.11-.26.31-1.78,1-3.46,1.39-5.23a3.42,3.42,0,0,0,.18-1.72,13,13,0,0,0-1.68,1.5c-.37.32-.65.83-1.28.67C44.2,103.47,44.74,103.1,44.91,102.54Z"/><path class="cls-32" d="M44.15,104.08c.83-.79,1.65-1.59,2.5-2.36.25-.23.58-.56.92-.33s0,.58,0,.88c-.25,1.89-1,3.64-1.39,5.5a1.69,1.69,0,0,1-.65,1.09C43.63,107.6,43.3,106.45,44.15,104.08Z"/><path class="cls-32" d="M62.51,109.87c-.23-2.14-.49-4.28-.7-6.42-.05-.52-.29-1.37.16-1.53s1.06.48,1.46.94S64,104,64.6,104.32C65.31,106.69,64.81,107.74,62.51,109.87Z"/><path class="cls-32" d="M41.29,84.32c3,.86,3.16,3.17,2.87,5.69a11.61,11.61,0,0,0,0,1.34,5.75,5.75,0,0,1-1.57-2.28c-.75-1.35-1.42-2.75-2.16-4.1-.33-.61.06-.65.47-.71Z"/><path class="cls-33" d="M66.54,88.16c.86.24,1,.57.5,1.44-.7,1.13-1.25,2.37-2,3.46-.15.21-.31.51-.65.38s-.15-.41-.2-.63a11.52,11.52,0,0,1-.24-2.69c0-1.91,0-1.91,2-2Z"/><path class="cls-27" d="M77.75,80.72c-.21.06-.44.1-.54.33a25.15,25.15,0,0,1-3.65,3.57c-.94.69-1.69.89-2.46-.15a5.39,5.39,0,0,0-.59-.58,16,16,0,0,0,6-3.6A2.67,2.67,0,0,1,77.75,80.72Z"/><path class="cls-34" d="M35.57,77.87v-.45a1.73,1.73,0,0,1,1-.22c.52.77,1,1.55,1.55,2.31a1.53,1.53,0,0,0,1.11.78c-.59.33-1.09,1.32-1.69,1a3.58,3.58,0,0,1-1.46-2.74C36,78.29,36.49,77.51,35.57,77.87Z"/><path class="cls-35" d="M35.55,90a2.88,2.88,0,0,1-1.42-.75,5.59,5.59,0,0,1,1-1.89A4,4,0,0,1,35.55,90Z"/><path class="cls-36" d="M59.83,105c-.07.78-.13,1.56-.19,2.34l-.34.41c-.3-.72-.6-1.44-.91-2.16C58.7,105,59.13,104.71,59.83,105Z"/><path class="cls-37" d="M48.92,105.77v-1c.58-.16.91.07,1,.66l-.5.8Z"/><path class="cls-25" d="M13.16,71.23h.5a20.75,20.75,0,0,1,2.58,4.22,21.58,21.58,0,0,0,5.23,6.8c.34.27.78.6.55,1.19l-3.4,3a31.19,31.19,0,0,1-4.69-10.57A18.54,18.54,0,0,1,13.16,71.23Z"/><path class="cls-2" d="M78,71.93a52.44,52.44,0,0,1,10.82-2,23.32,23.32,0,0,1,8.48.63c.25.37,0,.67-.15,1a47.28,47.28,0,0,1-9.39,11.76,1.25,1.25,0,0,1-.74.35,61.07,61.07,0,0,0-6.17-3.34,19.24,19.24,0,0,0-.77-4.39,8.12,8.12,0,0,0-1.68-3.06C78.15,72.56,77.8,72.36,78,71.93Z"/><path class="cls-24" d="M78,71.93c2.2,2.07,2.91,4.75,3.17,7.63,0,.35.14.62-.32.71a2.13,2.13,0,0,1-1-.46c.36,0,.63-.24.54-.62-.39-1.79-.53-3.66-1.57-5.27-.43-.68-.8-1.36-1.82-1.08-.27.08-.5-.19-.62-.45A3.72,3.72,0,0,1,78,71.93Z"/><path class="cls-24" d="M72.67,77.9a3.22,3.22,0,0,1,2.54-.23c.54.09,1.08.27,1.07,1Z"/><path class="cls-2" d="M22,83.43c-.67-1.26-2-1.89-2.89-3a37.34,37.34,0,0,1-3.8-6,12.63,12.63,0,0,1-1.67-3.27,18.12,18.12,0,0,1,5.47-.67A105.85,105.85,0,0,1,33,71.88c-1.48-.22-2.07.68-2.48,1.91a11.75,11.75,0,0,0-.91,4.82A55.7,55.7,0,0,0,22,83.43Z"/><path class="cls-38" d="M75.81,54.82c-.53.33-.44.86-.46,1.37a8.51,8.51,0,0,1-.22,2.93c-.44,1.09-1.43,1.33-2.21.46a4.41,4.41,0,0,1-.83-3.67c0-.26.29-.56,0-.76s-.52.09-.75.23a18.43,18.43,0,0,1-3.59,1.77A9.25,9.25,0,0,1,73,49.25a4.71,4.71,0,0,1,5.28.92c.18.64-.31.93-.7,1.21-.61.44-1.11,1-1.71,1.44A.88.88,0,0,0,75.5,54C75.55,54.26,75.75,54.52,75.81,54.82Z"/><path class="cls-39" d="M75.81,54.82c-.52,0-.65-.3-.5-.76A5.06,5.06,0,0,1,79,50.85c.48-.16,1-.37,1.44-.48a1,1,0,0,1,1.22.48c.26.53-.12.9-.48,1.19a8.78,8.78,0,0,1-1.1.68Z"/><path class="cls-40" d="M79,50.85a10.25,10.25,0,0,0-3.68,3.21c-.66-.66-.25-1.1.3-1.54a13.12,13.12,0,0,0,2.64-2.35A1.86,1.86,0,0,1,79,50.85Z"/><path class="cls-12" d="M46.79,62.43a10.7,10.7,0,0,1-5.32-1.53,9.94,9.94,0,0,0,1.14-4.2c1.06-.81,1.06-.82,0-1.69a1,1,0,0,1-.34-.46,7,7,0,0,0-3-5.3,4.76,4.76,0,0,0-4.83-.32,2.09,2.09,0,0,1-1.11.36A7.44,7.44,0,0,0,30.53,54C29,53.4,28,52.1,26.64,51.18c-.94-.66-1.8-1.42-2.7-2.14a8.69,8.69,0,0,1,5.85-3.27c4.75-.86,9.11,0,12.88,3.22,2.69,2.32,3.93,5.36,4.59,8.73a5.16,5.16,0,0,0,.2.67C47.42,59.77,47.61,61.19,46.79,62.43Z"/><path class="cls-38" d="M33.43,49.29C36.28,46.88,40.35,48,42,51.73a6.38,6.38,0,0,1,.62,2.86c-.47.34-.92.06-1.36-.05a10.1,10.1,0,0,0-2.33-.36c-.86,0-1,.31-.68,1-.53.12-.51.53-.51.94a7.77,7.77,0,0,1-.08,1.53c-.22,1-1,1.2-1.8.57a4,4,0,0,1-.58-5.12,1.48,1.48,0,0,0-.36-2.28A15.45,15.45,0,0,1,33.43,49.29Z"/><path class="cls-41" d="M38.23,55.2c-.3-.31-1.1-.19-1-.83s.82-.5,1.31-.55a10.09,10.09,0,0,1,4,.77l.3.16c.58.27,1.21.63,1.14,1.31s-.93.46-1.43.64A9.52,9.52,0,0,0,38.23,55.2Z"/><path class="cls-42" d="M49,69c3.54.26,7-.56,10.36.83C57.07,72.32,50.88,71.73,49,69Z"/><path class="cls-43" d="M49.93,105.45l-1-.66c-.09-1.34-.21-2.68-.27-4,0-1-.49-1.11-1.28-.67a10.27,10.27,0,0,0-1.72,1.44c-.59-1-1.85-1.76-1.6-3a7.05,7.05,0,0,1,3.43-4.79c2.34-1.38,4.86-1.29,7.39-.71,3.07.72,6,1.74,8.34,4,1.94,1.9,2,2.44.46,4.78-2.23-2.2-2.34-2.18-3.29.82-.24.78-.37,1.6-.55,2.41l-1.43.59-.43-.37c-.8.14-1.16.93-1.85,1.26-1.83.66-3.54.09-5.25-.5a.7.7,0,0,1-.28-.26C50.52,105.34,50.25,105.35,49.93,105.45Z"/><path class="cls-33" d="M56.25,106.24c.23-.33.43-.66.68-1s.69-.55,1,0a24.54,24.54,0,0,1,.21,2.7c0,.86-.24,1.52-1.38,1.68a46.67,46.67,0,0,1-5.67.13,1.08,1.08,0,0,1-1.1-1.28,6.16,6.16,0,0,1,.56-2.73l.1,0c.7.71,1.25,1.49,2.49,1.51S55.45,107.27,56.25,106.24Z"/><path class="cls-44" d="M72.26,54.81c.27-1.09.44-1.87,1.36-2.13a.72.72,0,0,1,.85.2c.26.39-.08.55-.35.72Z"/><path class="cls-44" d="M38.2,52.53c-.08.22.12.73-.3.59-.61-.21-1.32-.49-1.5-1.21-.09-.37.34-.46.67-.47A1,1,0,0,1,38.2,52.53Z"/><path class="cls-45" d="M51.57,93.39c2.63-.13,4.77.81,6.93,1.67a.8.8,0,0,1,.55.93c-.23,1.36-2.54,3.42-3.87,3.31a9.37,9.37,0,0,1-6.1-2.81c-1-1-.83-1.75.39-2.46A3.14,3.14,0,0,1,51.57,93.39Z"/><path class="cls-46" d="M56.25,106.24a1.46,1.46,0,0,1-1.91,1.37,4.38,4.38,0,0,0-1.3-.07c-1.44.23-2.12-.47-2.35-1.8C52.53,106.07,54.34,106.75,56.25,106.24Z"/><path class="cls-47" d="M114,86.62V42.24a17.06,17.06,0,0,0-8.53-14.77L67,5.29A17,17,0,0,0,50,5.29L11.53,27.47A17.06,17.06,0,0,0,3,42.24V86.62a17.06,17.06,0,0,0,8.53,14.77L50,123.58a17.1,17.1,0,0,0,17.06,0l38.42-22.19A17.06,17.06,0,0,0,114,86.62Z"/></g></g></svg>