<svg xmlns="http://www.w3.org/2000/svg" viewBox="0 0 116.97 128.86"><defs><style>.cls-1{fill:#454545;}.cls-2{fill:#d4b47a;}.cls-3{fill:#907753;}.cls-4{fill:#5d4b34;}.cls-5{fill:#e9d29c;}.cls-6{fill:#786449;}.cls-7{fill:#917753;}.cls-8{fill:#f6e47d;}.cls-9{fill:#e8d19c;}.cls-10{fill:#f6e47e;}.cls-11{fill:#bc9d19;}.cls-12{fill:#f0a82a;}.cls-13{fill:#faf4d1;}.cls-14{fill:#fdd02e;}.cls-15{fill:#faf4d0;}.cls-16{fill:#bb9c19;}.cls-17{fill:#e6d158;}.cls-18{fill:#bb9d1a;}.cls-19{fill:#f9f3d0;}.cls-20{fill:#faf3d0;}.cls-21{fill:#f5e37d;}.cls-22{fill:#060502;}.cls-23{fill:#fdfcfa;}.cls-24{fill:#e7d09a;}.cls-25{fill:#f8f0cb;}.cls-26{fill:#e5d059;}.cls-27{fill:#f7dd65;}.cls-28{fill:#d4b67d;}.cls-29{fill:#e9d29d;}.cls-30{fill:#010000;}.cls-31{fill:#020101;}.cls-32{fill:#e8d19b;}.cls-33{fill:#e9d29b;}.cls-34{fill:#907652;}.cls-35{fill:#8f7652;}.cls-36{fill:#942616;}.cls-37{fill:#f1a82a;}.cls-38{fill:#63442e;}.cls-39{fill:#b9941b;}.cls-40{fill:#f8efc8;}.cls-41{fill:#f3e2bf;}.cls-42{fill:#d5b57a;}.cls-43{fill:#d6b67c;}.cls-44{fill:#d5b67b;}.cls-45{fill:#51150c;}.cls-46{fill:#52160d;}.cls-47{fill:#52160c;}.cls-48{fill:#bb9b1a;}.cls-49{fill:#f5e37c;}.cls-50{fill:#bc9d1a;}.cls-51{fill:#bc9c1a;}.cls-52{fill:#e6d159;}.cls-53{fill:#bb9c1a;}.cls-54{fill:#bb9c1b;}.cls-55{fill:#ba9a1a;}.cls-56{fill:#b99b21;}.cls-57{fill:#bb9a1a;}.cls-58{fill:#f4e7bc;}.cls-59{fill:#ecd875;}.cls-60{fill:#f3e1be;}.cls-61{fill:#f3e1bd;}.cls-62{fill:#53170d;}.cls-63{fill:#e9d460;}.cls-64{fill:#f6efc8;}.cls-65{fill:#fbf4d0;}.cls-66{fill:#e5d057;}.cls-67{fill:#53180d;}.cls-68{fill:#54190e;}.cls-69{fill:#e5cf56;}.cls-70{fill:#faf4d2;}.cls-71{fill:#e6d057;}.cls-72{fill:#f4e27b;}.cls-73{fill:#faf3cf;}.cls-74{fill:#e5d058;}.cls-75{fill:#e4ce58;}.cls-76{fill:#f3e5be;}.cls-77{fill:#faf2cb;}.cls-78{fill:#fed02e;}.cls-79{fill:#fee365;}.cls-80{fill:#e6d15b;}.cls-81{fill:#e2cc56;}.cls-82{fill:#e4ce57;}.cls-83{fill:#f8f1cd;}.cls-84{fill:#f2e080;}.cls-85{fill:#f1e8c2;}.cls-86{fill:#f4e27a;}.cls-87{fill:#f8f1cc;}.cls-88{fill:#444;}.cls-89{fill:#fefdfd;}.cls-90{fill:#fee366;}.cls-91{fill:#1b263e;}.cls-92{fill:none;stroke:#222223;stroke-miterlimit:10;stroke-width:6px;}</style></defs><g id="Calque_2" data-name="Calque 2"><g id="Calque_8" data-name="Calque 8"><path class="cls-1" d="M114,42.24V86.61a17.08,17.08,0,0,1-8.53,14.78l-3.48,2-.48.28a33.08,33.08,0,0,1-1.12-14.61q.93-7,1.84-14.09a41,41,0,0,1,1.18-6.77h0a0,0,0,0,1,0,0h0a2.41,2.41,0,0,1,.08-.25c.07-.67.11-1.34.16-2a30.57,30.57,0,0,1,.58-4.85c0-.1,0-.2,0-.3l.06-.78s0,0,0,0c0-.75.1-1.49.1-2.24v-.19c0-.31,0-.62,0-.93a5.46,5.46,0,0,0-.08-.68c0-.66,0-1.31.11-2v-.06c0-.15,0-.31,0-.47a74.36,74.36,0,0,0-.91-9.41,3,3,0,0,1,0-.6s0,0,0,0v-.22l0-.09c-.15-.55-.17-1.13-.32-1.67l-.09-.29,0-.11h0a36.21,36.21,0,0,0-3.74-9l-.19-.34,0,0c-.3-.35-.47-.79-.75-1.16h0a2.27,2.27,0,0,0-.26-.28h0l0,0a33,33,0,0,0-5.57-6.78c-.64-.6-1.23-1.24-1.82-1.88L90,20.89h0l-.1-.11a3.17,3.17,0,0,0-.39-.34l-.12-.08a21.84,21.84,0,0,1-2.32-1.73l0,0a.71.71,0,0,0-.14-.1l-.11-.08-.09-.06-.12-.07c-.52-.21-.8-.7-1.19-1.06A2,2,0,0,0,85.1,17h0a14.88,14.88,0,0,0-4.35-3.46,2.52,2.52,0,0,0-.29-.12l-.21-.1h0a8.14,8.14,0,0,0-5.34-.12A12.43,12.43,0,0,0,72,14.28a2.39,2.39,0,0,1-2.28.06,27.12,27.12,0,0,0-13-1.75,21.14,21.14,0,0,0-3.84.8,1.51,1.51,0,0,1-1.37-.1l-.17-.12L51.11,13a8.11,8.11,0,0,0-2.35-1.54,7.42,7.42,0,0,0-4.95.34l-.47.18h0l-.67.29c-1.32.14-2.18,1.07-3.13,1.84-.37.3-.7.66-1.08,1l-.08.07-.23.24a3.9,3.9,0,0,0-.33.38h0a2.2,2.2,0,0,0-.17.25,2.9,2.9,0,0,0-.19.29c-.9.95-1.53,2.11-2.4,3.09,0,0,0,0,0,0l-.19.15h0a3.43,3.43,0,0,1-.85.6h0a4.25,4.25,0,0,0-.78.62h0c-.38.37-.74.78-1.14,1.12h0l-.15.12a2.66,2.66,0,0,1-.53.34,3.47,3.47,0,0,0-2,2,2.3,2.3,0,0,0-.06.28.77.77,0,0,0,0,.15,1.35,1.35,0,0,1-.58.65,4.14,4.14,0,0,0-.49.19A5,5,0,0,0,27,26.5l0,0h0a6.31,6.31,0,0,0-1.38,2.13h0s0,0,0,0,0,0,0,0c-.23.53-.41,1.11-.61,1.67,0,0,0,0,0,0-.06.19-.13.38-.2.58a3.39,3.39,0,0,0-.05.47l-.05.17h0c0,.14-.06.28-.1.42a1.62,1.62,0,0,1-.17.41c-.76,1.26-2.07,2-3,3.06h0l0,0a4.8,4.8,0,0,0-.43.32,14.69,14.69,0,0,0-2.47,3.29,33.34,33.34,0,0,0-5.55,13.25,24.24,24.24,0,0,0-.71,3.63c0,1.27-.26,2.66.87,3.69a2,2,0,0,0,.37.34,1.46,1.46,0,0,0,.54.28h0l.28,0a2.19,2.19,0,0,1,1.57.74.05.05,0,0,1,0,0l.05.1h0a.64.64,0,0,1,.06.18v0s0,.09,0,.13a5.17,5.17,0,0,1,.22.86c.07.3.15.58.24.86h0a13.81,13.81,0,0,0,1.16,2.56,16.27,16.27,0,0,0,1.07,1.54,19.82,19.82,0,0,0,3,3.09c.34.28.92,1.05,1.42.06a1.18,1.18,0,0,0,0-.2h0a2.35,2.35,0,0,0-.17-.51,0,0,0,0,1,0,0c-.27-.66-.74-1.21-1-1.88a9.64,9.64,0,0,1-.65-1.59,0,0,0,0,0,0,0,6,6,0,0,0-.18-.73h0c-.22-.74-.54-1.44-.83-2.16A1.83,1.83,0,0,1,20,61.94v0a.75.75,0,0,1,.09-.15l.06-.08a1.33,1.33,0,0,1,1.37-.12l.07,0h0a1.66,1.66,0,0,1,.21.16,3,3,0,0,1,.25.34.16.16,0,0,0,0,.09c.1.3.21.59.32.89s.17.43.27.64l.49,1.05c.17.35.35.69.54,1s.44.75.69,1.12v0l.11.16a3.44,3.44,0,0,0,.71.9,1.15,1.15,0,0,0,.76.23h.13a.42.42,0,0,0,.26-.16l0,0a.43.43,0,0,0,0-.28h0s0,0,0,0,0-.07,0-.1a.38.38,0,0,0,0-.1A2.1,2.1,0,0,0,26.3,67l0-.09a3.1,3.1,0,0,1-.13-.62s0,0,0,0c0-.23,0-.46-.05-.69h0a11.29,11.29,0,0,0-.44-2.06,1.23,1.23,0,0,1,.12-1.15,0,0,0,0,1,0,0l0,0,.05-.05a.89.89,0,0,1,.71-.13l.09,0a.56.56,0,0,1,.15.1h0a1.2,1.2,0,0,1,.39.48,2.52,2.52,0,0,1,.15.33,2.94,2.94,0,0,0,.4.79,17.4,17.4,0,0,1,.91,2.57h0s0,0,0,.07l0,.38a32.19,32.19,0,0,1-2.3,9.57s0,0,0,0a3.43,3.43,0,0,1-.09.44,10.89,10.89,0,0,1-.44,1.33l-.08.09a1.82,1.82,0,0,0-.2.36c-.31.69-.31,1.56-1.12,2h-.18a.83.83,0,0,1-.46-.32s0,0,0,0a1,1,0,0,0-.15-.14l-.05,0a.54.54,0,0,0-.22-.09l0,0c-.52.24-.41.76-.46,1.19A28.72,28.72,0,0,0,23,84.19v0c0,.12-.07.24-.11.36a8.33,8.33,0,0,1-.91,2.15c-.3.46-.6.92-1.23.9h-.06A1.5,1.5,0,0,1,20,87s0,0,0,0a4.25,4.25,0,0,1-.28-.94v0a3.92,3.92,0,0,0-.18-.61.88.88,0,0,0-.25-.58.27.27,0,0,0-.13-.07,1,1,0,0,0-.41,0h0c-.44.15-.6.62-.74,1a8.42,8.42,0,0,0-.38,1.9,3.29,3.29,0,0,0,0,.45h0a1.82,1.82,0,0,0,0,.33v.24a9.49,9.49,0,0,0,.14,1.39l0,.11v.06c.05.34.08.67.11,1a1,1,0,0,1-.06.35,2.1,2.1,0,0,1-.13.26h0a3.19,3.19,0,0,1-1.13,1A4.24,4.24,0,0,0,14.93,99c3,5.53,8.74,8.89,15.5,6.29a54.74,54.74,0,0,0,13.85-8c2.68-2.07,5.44-3.94,8.89-4.42a3.85,3.85,0,0,1,2.35,0,1.22,1.22,0,0,1,.17.15h0a1.08,1.08,0,0,1,.18.24,3.34,3.34,0,0,1,.22,2.27,31.07,31.07,0,0,1-2.28,9.24,51.38,51.38,0,0,1-5.4,9.87l-.05.06-.12.19h0a45.61,45.61,0,0,1-4,5.39l-.44-.25L11.53,101.39A17.08,17.08,0,0,1,3,86.61V42.24a17.08,17.08,0,0,1,8.53-14.77L50,5.28a16.86,16.86,0,0,1,4.5-1.79h8.06A16.86,16.86,0,0,1,67,5.28l12.87,7.43a2.15,2.15,0,0,1,1,.43,7.86,7.86,0,0,1,2.71,1.71h0l21.85,12.62A17.08,17.08,0,0,1,114,42.24Z"/><path class="cls-2" d="M97.78,63.26a35.94,35.94,0,0,1-5.34,7.93,36.68,36.68,0,0,1-2.65,2.93A53.33,53.33,0,0,1,64.31,87.65c-2.72.6-5.55.82-8.14,1.88a40.17,40.17,0,0,0-11.56,6.69,32,32,0,0,1-16.55,7.28,14.3,14.3,0,0,1-7.09-.7,5.2,5.2,0,0,1-3-2.25,1.67,1.67,0,0,1-.05-1.82,1.35,1.35,0,0,1,1.5-.48,25.32,25.32,0,0,0,9.26-.65l1.26-.29h0l.19,0h.07c.41,0,.76-.33,1.17-.34h0l.44-.11c2.18-.55,4.43-.78,6.32-2.31s4.13-2.58,6.09-4,3.54-2.74,5.43-3.93a12.41,12.41,0,0,0,1.7-1.84C55.3,80.86,59.21,77,64,74.22a17.45,17.45,0,0,1,3.64-1.5c4.57-1.45,9.17-2.81,13.6-4.64a16.32,16.32,0,0,0,8.64-7.41,2.75,2.75,0,0,1,1.5-1.3c.85-.34,1-.83.47-1.6a4.3,4.3,0,0,0-2.27-1.68,16.87,16.87,0,0,0-5-1,58.12,58.12,0,0,0-9.87.24h0l-.72.08-1,.14h0a90,90,0,0,0-11.17,2.21C57.2,59,52.8,60.58,48.41,62.14c-3.59,1.28-7.18,1.1-10.85.45-4.17-.74-8.07-2.48-12.26-3.19a20.92,20.92,0,0,0-10,.68,6.19,6.19,0,0,1-1.31.3h0a2.62,2.62,0,0,1-1.22-.18c-1.35-1-1.21-2.56-1.05-3.85.93-7.81,3.65-14.89,9-20.82a4,4,0,0,1,.45-.37.75.75,0,0,1,.26.38,1.85,1.85,0,0,1-.14,1.05,10.61,10.61,0,0,0-.12,5.56c.84,3.36,2.08,3.68,4.87,2.93a20.12,20.12,0,0,0,10-5.85A6.56,6.56,0,0,0,36.82,38a12.87,12.87,0,0,1,6.25-5.69c3.09-1.39,6.2-2.75,9.23-4.28A20.37,20.37,0,0,0,59,22.6a33.87,33.87,0,0,1,6.43-6.23c.47-.34,1.18-.66,1.06-1.32s-.93-.68-1.48-.81c-3.92-.93-7.86-1.34-11.82-.17a22.43,22.43,0,0,0-8.69,5.13c-2.78,2.51-5.56,5-8.46,7.42a21,21,0,0,1-4.83,2.85c-1.28.57-2.61,1-3.86,1.64a1.31,1.31,0,0,1-1.36.13.31.31,0,0,1,0-.08h0c-.23-.67.35-.93.75-1.23a23.82,23.82,0,0,1,2.87-1.74,1.68,1.68,0,0,0,1.06-1.28.88.88,0,0,0,0-.17,1,1,0,0,1,0-.17c.11-.54.25-1.08.92-1.25l.09,0h0c.45.17.26,1,.77,1a3.56,3.56,0,0,0,1.67-.9c1.11-.81,1.3-1.43.83-2.54-.27-.63-.6-1-1.23-.35-.3.31-.59.69-1.12.53l0-.05a1.34,1.34,0,0,1-.09-.26h0c-.17-.64.28-1.17.56-1.72a1.64,1.64,0,0,1,.14-.22,4,4,0,0,0,.64-.93l1-.67.21.22a8.82,8.82,0,0,1,1.69,2.92c.31.81.68.8,1.19.3A24.74,24.74,0,0,0,41,19.36a9.7,9.7,0,0,1,4.13-3.18c1.72-.73,1.77-1,.5-2.38a8.45,8.45,0,0,1-.81-.88c-.06-.13-.16-.27-.23-.4a.6.6,0,0,1-.07-.34h0a.48.48,0,0,1,.13-.21c.35-.35.75-.09,1.08.11a6.72,6.72,0,0,1,1.71,1.47,1.34,1.34,0,0,0,2,.28A7,7,0,0,1,51.11,13a2.41,2.41,0,0,1,.48-.08,1.21,1.21,0,0,0,1.22.12A26.08,26.08,0,0,1,70.6,14.16c.5.23.82,0,1.21-.18a12,12,0,0,1,7.87-1.31l.21,0a2.15,2.15,0,0,1,1,.43.56.56,0,0,0,0,.12,2.31,2.31,0,0,0-.1.28,8.85,8.85,0,0,0-.13,2.3,4.81,4.81,0,0,1-.31,2c-.16.34-.38.68-.78.63S79,18,79,17.64a12.55,12.55,0,0,1,0-2,3.67,3.67,0,0,0-.11-1.06h0a1.43,1.43,0,0,0-.28-.58,1.85,1.85,0,0,0-1.73-.41A10.68,10.68,0,0,0,72.16,15c-.91.58-.92.9-.14,1.67a8.08,8.08,0,0,1,2.33,3.56.63.63,0,0,0,.9.5c.31-.09.62-.17.92-.27,1.74-.55,3.43-.73,5,.61a3.23,3.23,0,0,0,1.2.51,1.27,1.27,0,0,0,1.74-.78A8.64,8.64,0,0,0,84.89,18a2,2,0,0,1,.2-1h0a.73.73,0,0,1,.31-.29L86.79,18a.44.44,0,0,1,.14.29s0,.08,0,.12v.09a1.6,1.6,0,0,1,0,.31,5.7,5.7,0,0,1-1.33,3c-.39.55-.67,1,0,1.53a2.36,2.36,0,0,0,2.3.62c.41-.17.3-.69.34-1.09,0-.57-.09-1.2.5-1.6h0s0,0,0,0a2.38,2.38,0,0,1-.9,4.36,4,4,0,0,1-3.15-.88c-5.39-4.14-14-1.5-17.4,3.51l-.07.09c-.32.47-.68.93-1,1.44l0,0a1.07,1.07,0,0,1-.14.16l-.16.1-.13,0a10.06,10.06,0,0,1-4.95.54,1,1,0,0,1-.17-.2h0c-.22-.37.19-.6.45-.81.62-.48.42-.84-.12-1.19a6.34,6.34,0,0,0-1.28-.63,2,2,0,0,0-2.84,1.75c-.06.44.15.57.52.6a7.05,7.05,0,0,0,1.65-.11c.58-.09,1.19-.18,1.6.4h0s0,0,0,0c-.19.93-1,.89-1.69,1.06a37.5,37.5,0,0,0-11.55,5.15C42.23,40.29,38.09,44.85,36,51a9.52,9.52,0,0,1-.41.92,57.62,57.62,0,0,1,4.65-6.23A29.67,29.67,0,0,1,47.86,39a2.49,2.49,0,0,1,.3-.19c.53-.28,1.08-.69,1.68-.32s.33,1.08.26,1.66c-.36,2.88-.47,5.73,1,8.39a4.12,4.12,0,0,0,2.1,1.87c.26.1.58.25.77,0s0-.54-.21-.75a19.48,19.48,0,0,0-1.4-1.48c-3-3-2.7-7.08-.87-10.41a3.66,3.66,0,0,1,2.09-1.53A16.67,16.67,0,0,1,56,35.51c1.55-.34,2,.11,1.49,1.6A19.5,19.5,0,0,0,56.58,43c0,2.61,1.27,4.44,3.05,6.09a3.13,3.13,0,0,0,.3.2c1.6,1.17,1.56,1.59-.27,2.49C57.34,52.93,55,54.09,53.56,55a43.68,43.68,0,0,1,11.51-3.5,57.74,57.74,0,0,1,6.64-.87c1.11-.06,2.22-.13,3.33-.17l1.3,0,2,0,1.85,0c4.91-.07,9.73.45,14.14,2.87a7.92,7.92,0,0,1,1.45,1.08,8.6,8.6,0,0,0-7.91-6.15c-.74,0-1.71.29-2.15-.43l0,0s0,0,0,0c-.39-.82.57-1.3,1-1.88a16.94,16.94,0,0,0,3.27-9.11c0-.24,0-.48,0-.72.14-1.09.75-1.43,1.65-.78a10.51,10.51,0,0,1,3,3.34,32.56,32.56,0,0,1,4,9.82C99.58,53.37,100,58.41,97.78,63.26Z"/><path class="cls-3" d="M102.06,80.12c-.59,4.74-1.55,9.45-1.53,14.26a29.83,29.83,0,0,0,1.44,9l-.48.28L99,105.09l-.45.26c-.3-.94-.57-1.9-.8-2.88A33.4,33.4,0,0,1,96.86,95a77.32,77.32,0,0,1,1-14.18c.1-.6.35-1.15.4-1.62a11.46,11.46,0,0,1-1,2.46,142.73,142.73,0,0,0-10.5,30.5l-.65.38h0L67,123.57a16.19,16.19,0,0,1-1.77.88c-.23.3-.45.6-.66.92H64.2a1.13,1.13,0,0,1,.23-.59h0c.14-.21.33-.4.49-.6,3.31-4,6.67-8,9.61-12.24,1.29-1.87,2.6-3.72,3.87-5.6l0-.06c.61-.9,1.2-1.8,1.77-2.72h0l.08-.14a5.64,5.64,0,0,0,.63-1.28c3-4.47,5.74-9.12,8.53-13.72a69.81,69.81,0,0,0,7.21-17.93c.34-1.26.66-2.53,1-3.68a22.1,22.1,0,0,1-2.19,3.9,62,62,0,0,1-5.83,7.58,46,46,0,0,1-14.42,9.89,58.39,58.39,0,0,1-15.16,4.71c-1.14.19-2.29.34-3.44.42a2.57,2.57,0,0,1-.79,0,1.51,1.51,0,0,1-.47-.21c-4.61.25-8.25,2.58-11.75,5.32a51.71,51.71,0,0,1-12.84,7.33c-7.06,2.81-13.24-.57-16.38-6.54-1.37-2.62-.79-5.26,2-6.76a2.63,2.63,0,0,0,1.16-.81.88.88,0,0,1,.26.08c.55.26.61.89.78,1.38.42,1.23,1,2.12,2.48,2.2a1.79,1.79,0,0,1,1.41,1,1.44,1.44,0,0,0,1.6.77,1.76,1.76,0,0,0,.51,0h0a1.33,1.33,0,0,0,.48-.18h0a7.34,7.34,0,0,0,1.15-1.09,1.14,1.14,0,0,1,.11-.11l0,0a1.5,1.5,0,0,1,1.39-.15l.07,0,.05,0h0s0,0,0,0,0,0,0,0a.83.83,0,0,1,.11.15c.11.17.17.36.27.54.16.93,1,.7,1.59,1l0,0,0,0a.39.39,0,0,1,.1.08,1.74,1.74,0,0,1,.11.18,24.48,24.48,0,0,1-11.07,1.13c-.94-.13-1.23.19-1,1.11a3.23,3.23,0,0,0,1.81,2,12.29,12.29,0,0,0,7.81,1.2c4.86-.78,9.61-2.07,13.68-5.07,1.19-.87,2.37-1.76,3.52-2.68a38.5,38.5,0,0,1,18.8-8C70,86.3,75.51,83.43,80.9,80.33A44,44,0,0,0,96.39,64.84c2.44-4,2.7-8.26,2.34-12.72a33.66,33.66,0,0,0-4-12.7,10.84,10.84,0,0,0-3.35-3.84c-.25-.19-.52-.52-.82-.3-.15.11-.12.51-.13.78a16.68,16.68,0,0,1-3.1,9.65c-.44.62-1,1.18-1.64,2h0l0,.06h.08c3.72-.44,6.65.58,8.93,3.28a8.19,8.19,0,0,1,2,4.64c-.78-.64-1.46-1.28-2.22-1.8a16.62,16.62,0,0,0-7.54-2.53A67.66,67.66,0,0,0,56.7,54.26c-1.83.61-3.59,1.44-5.39,2.18a19.49,19.49,0,0,1,4.48-3.3c1.64-.86,3.33-1.66,5.11-2.55-6.12-3.81-5.37-9.15-3.5-14.84a18.07,18.07,0,0,0-4.59,1.37,1.77,1.77,0,0,0-.86.8c-1.71,3.38-2.11,7.24,1.2,10.31a12.34,12.34,0,0,1,1.3,1.41c.28.35.68.75.24,1.26s-.86.31-1.32.16a4.58,4.58,0,0,1-2.69-2.25c-1.55-2.72-1.46-5.65-1.12-8.62,0-.43.18-.85.26-1.28,0,0,0-.08,0-.11-2.94.28-9.68,7-14.64,14.68a2.6,2.6,0,0,1,.07-1.64c1.48-5.36,4.72-9.54,8.8-13.15A37.09,37.09,0,0,1,59.49,30.9c.41-.11.81-.29,1.21-.44a0,0,0,0,0,0,0A46.87,46.87,0,0,0,66,29.71a1.16,1.16,0,0,1,.15.26c.16.41-.08.8-.27,1.18-2.53,5.24-2,10.22,1.62,14.69a11,11,0,0,0,15.65,1.82,12,12,0,0,0,3.64-4.46,13.26,13.26,0,0,0,.83-2.29,2.47,2.47,0,0,0,.11-.47s0,0,0,0a3,3,0,0,0,.06-.59,2.76,2.76,0,0,0-.06-.57,32,32,0,0,0,.45-4.38A10.39,10.39,0,0,0,80.59,25a10.25,10.25,0,0,0-5.16,0,4.55,4.55,0,0,0-1,0,6.86,6.86,0,0,0-2.73.79c-.17.08-.33.17-.49.26a2.25,2.25,0,0,0-.21.12,12.91,12.91,0,0,0-3.73,3c-.26.31-.51.69-.94.7a.76.76,0,0,1-.32-.05,13.59,13.59,0,0,1,10.75-7.44,10.77,10.77,0,0,1,8.44,2.16,3.29,3.29,0,0,0,.52.29c1.44.69,2.61.64,3.34-.15s.66-1.85-.24-3.29l0,0a4.2,4.2,0,0,1-1.82-2.44c0-.12-.07-.26-.11-.39s0-.13,0-.2V18l2.9,2.11q.14.33.24.66c0,.1.07.2.1.29v0h0c0,.09,0,.18.08.27s0,0,0,.05a12.57,12.57,0,0,1,.41,3.24c0,.16,0,.31,0,.47a23.67,23.67,0,0,0,.61,6.28A9.49,9.49,0,0,0,93.74,36a16,16,0,0,1,3,4.46,73,73,0,0,1,6.73,23.08c.1.81.19,1.61.22,2.42a12.32,12.32,0,0,1,0,1.49.83.83,0,0,0,.2.66h0C103.08,72.06,102.56,76.09,102.06,80.12Z"/><path class="cls-4" d="M55.41,93.06a62.17,62.17,0,0,0,14.32-3.17,62.13,62.13,0,0,0,13.91-7.11C90.14,78.24,94.5,72.11,98,65.19c.16-.32.32-.65.49-1,0-.07.11-.11.23-.22.26.59,0,1.1-.17,1.58-1.22,4.63-2.6,9.21-4.08,13.76-1.15,3.57-3.14,6.72-5,10a141.68,141.68,0,0,1-8.19,13.08,61.65,61.65,0,0,1-4,5.33,22.5,22.5,0,0,1-9,5.76,36.31,36.31,0,0,1-15.17,2.08c-1.11,0-2.22-.15-3.33-.25a2.18,2.18,0,0,1-1.83-.69,64.6,64.6,0,0,0,5.79-11.09,30.37,30.37,0,0,0,1.88-9.07A2.38,2.38,0,0,0,55.41,93.06Z"/><path class="cls-5" d="M25.9,31.16A40.18,40.18,0,0,0,40,22.59c3.1-3,6.22-6.05,10.24-7.95s8.3-2,12.63-1.35a15.63,15.63,0,0,1,3.48.84c1.14.47,1.26,1,.34,1.79-1.31,1.16-2.74,2.19-4,3.35-2,1.81-3.5,4.14-5.49,6A17.9,17.9,0,0,1,53.35,28c-3.45,1.84-7.06,3.36-10.63,5a10.25,10.25,0,0,0-5,4.47c-1.81,3.4-4.78,5.29-8.07,6.81-1.78.83-3.56,1.73-5.69,1.62a2.93,2.93,0,0,1-2.67-1.64c-1.34-2.5-1.18-5.13-.55-7.78.1-.42.23-.84.34-1.26a36.88,36.88,0,0,1,3-2.78C24.62,31.92,24.77,30.79,25.9,31.16Z"/><path class="cls-6" d="M81.31,102.38A9,9,0,0,1,80,104.75a158.41,158.41,0,0,1-12.69,17.36c-.67.78-1.37,1.53-2,2.34-.23.3-.45.6-.66.92H54.46a17.23,17.23,0,0,1-4.5-1.8l-5.68-3.28-.44-.25c1.46-1.74,2.85-3.54,4.14-5.43l.44,0c2.58.19,5.17.45,7.77.47A32.94,32.94,0,0,0,72,111.21c2.92-1.54,5.07-3.94,7.14-6.44.34-.41.69-.81,1-1.21h0Z"/><path class="cls-7" d="M12.71,60.2c1.6-.13,3-.94,4.6-1.24A26.88,26.88,0,0,1,31,60.3a53.86,53.86,0,0,0,7.39,2,23.09,23.09,0,0,0,12.31-1.46,100.48,100.48,0,0,1,21.85-5.66,55.52,55.52,0,0,1,14.68-.29A7.37,7.37,0,0,1,92,57.09c1.22,1.37.95,2.32-.82,2.81a1,1,0,0,0-.7.57c-2.28,4.86-6.54,7.29-11.31,9-3.83,1.37-7.71,2.63-11.61,3.8-3.51,1-6.3,3.23-9,5.51-3,2.48-5.61,5.35-8.5,7.92a69.57,69.57,0,0,1-9.4,6.79c-2.58,1.62-5.09,3.32-8.21,3.73l-1.06.14c-.07-1,.62-1.68.88-2.54a1.32,1.32,0,0,1,1.25-.37,1.5,1.5,0,0,1,.63.38,1.88,1.88,0,0,0,2.56,0,6.11,6.11,0,0,0,1.69-2.39A16.24,16.24,0,0,1,42.32,90a4.12,4.12,0,0,0,2.07-.69c.9-.43,1.06-1.32,1.35-2.14a2.54,2.54,0,0,1,1.47-1.49c.77-.12,1.52.35,2.3,0s.54-.85.57-1.36-.23-.74-.22-1.13A3.38,3.38,0,0,1,51.42,81a.94.94,0,0,1,.66,0,1,1,0,0,0,1-.06c.73-.41.16-1.2.5-1.73,3.45-3.78,7.31-6.89,12.51-7.92,2.43-.48,4.78-1.26,7.2-1.79a24.68,24.68,0,0,0,13.83-9.2c1.91-2.43,1.7-3.09-1.27-3.87-1-.27-2.13-.32-3.15-.67a24.18,24.18,0,0,0-4.42-.16c-.67.09-1.34.21-2,.28a9.19,9.19,0,0,0-4,.36c-1,.26-2.06.4-3.09.59a31,31,0,0,0-3.7.72c-3.26.89-6.4,2.14-9.66,3a12.67,12.67,0,0,0-1.39.66,2.17,2.17,0,0,1-.85.34c-1.36.76-3,.85-4.32,1.62a2.88,2.88,0,0,1-.89.32,14.07,14.07,0,0,1-3.91.67,5.34,5.34,0,0,0-1.37.25,7.18,7.18,0,0,1-3.06,0,8.6,8.6,0,0,1-2.69-1.17,2.11,2.11,0,0,0-2.42.16c-.33.21-.51.6-.89.75-1.37-.14-1.37-.14-1.4,1.27a1.87,1.87,0,0,1-.43,1.55.5.5,0,0,1-.34,0c-.64-.93-.53-2-.71-3.08A2.79,2.79,0,0,0,27,62a.71.71,0,0,1-.4.32h-.7c-.58,0-.91-.41-1.34-.66-.8-.48-1.63-.86-2.52-.18a.8.8,0,0,1-.51.37H20.17c-.1.07-.24.12-.33.06a5.47,5.47,0,0,0-4.2-.56C14.72,60.83,13.52,61,12.71,60.2Z"/><path class="cls-2" d="M103.82,68.07c-.57.53-.42-.06-.44-.3a79.42,79.42,0,0,0-1.22-9.11A71.44,71.44,0,0,0,95,38.32a20.28,20.28,0,0,0-2.37-2.84,10.93,10.93,0,0,1-2.42-6.74c-.09-2.75.1-5.51-.68-8.2,0-.11.1-.27.16-.41l.49.46a9.37,9.37,0,0,1,1,4.85,5.92,5.92,0,0,0,3.86,6c1.49.66,1.93.56,2.73-.81.16-.27.26-.59.6-.7l.94,1.46a1.4,1.4,0,0,1-.25,1c-1,1.32-.83,2.77-.37,4.19s1.1,3,1.64,4.47c.47,1.31,1.21,1.44,2.18.43.24-.24.4-.61.85-.52l.47,1.92c-1.37,1.63-1.36,3.48-.86,5.42a37.79,37.79,0,0,1,1,3.94,2.7,2.7,0,0,0,.87,1.67v1.94c-.48,1.75-.9,3.5-.18,5.3C104.35,63.47,104.08,65.77,103.82,68.07Z"/><path class="cls-5" d="M85.43,17.24a9,9,0,0,1-.81,3.66c-.58,1.31-1.2,1.62-2.56,1.17a2.56,2.56,0,0,1-1-.42c-1.74-1.64-3.65-1.16-5.54-.42-1.12.43-1.51.19-1.74-1a6.11,6.11,0,0,0-2.56-3.51c-.88-.7-.57-1.31.05-1.68A10.81,10.81,0,0,1,78,13.21c1.12.11,1.33,1.16,1.39,2.1s0,1.89.14,2.85a5.57,5.57,0,0,0,.52-4c0-.46,0-.72.21-.87a.94.94,0,0,1,.43-.16h0l.2,0a7.86,7.86,0,0,1,2.71,1.71h0c.63.58,1.22,1.23,1.81,1.86C85.42,16.89,85.43,17.07,85.43,17.24Z"/><path class="cls-5" d="M45.11,12.68A6.66,6.66,0,0,1,47,14.82c.37.61.25,1.14-.45,1.31-2,.47-3.33,2-4.93,3.05a.85.85,0,0,0-.36.45c-.75,1.89-2.52,2.79-4,4-.25.22-.74.44-.78-.19a6.37,6.37,0,0,0-1.37-3,2,2,0,0,1-.33-1.24A13.13,13.13,0,0,1,37.12,16a1.4,1.4,0,0,1,2,.36c-.35-.48-1.24-.62-1-1.53a9.14,9.14,0,0,1,4.23-2.9C43.5,11.37,44.33,11.93,45.11,12.68Z"/><path class="cls-5" d="M98.35,29.93c-.22,2.3-1.4,2.94-3.5,2a6.37,6.37,0,0,1-4.18-6.56,13.25,13.25,0,0,0-.44-3.66c-.09-.35-.39-.74,0-1.13A39,39,0,0,1,98.35,29.93Z"/><path class="cls-5" d="M103.34,41c-.48.72-.63,1.77-1.87,1.71a1.43,1.43,0,0,1-1.52-1c-.59-1.73-1.31-3.42-1.86-5.16-.59-1.89-.45-3.69,1.2-5.1A25,25,0,0,1,103.34,41Z"/><path class="cls-3" d="M25.92,76.52a63.22,63.22,0,0,0,2.26-9.09c.05-.35.09-.71.13-1.06.7-.06.85.58,1.19,1,.63.72,1.08,1.64,2.14,1.86a.85.85,0,0,1,.44.35,8.57,8.57,0,0,1-1.18,5.1,1.19,1.19,0,0,1-.66.31c-.45.05-.51.25-.46.72s.67.92.56,1.53c-.26.57-.38,1.24-1,1.56-1.2.09-1.77-.92-2.6-1.48A2.6,2.6,0,0,1,25.92,76.52Z"/><path class="cls-8" d="M24.24,97.57c-1,.16-1.89,0-2.22-1.22a.91.91,0,0,0-1-.67c-1.61.11-2.36-.81-2.77-2.21-.18-.64-.44-1.25-.66-1.88a.41.41,0,0,1,0-.22c0-1.06,0-2.12,0-3.18a7.42,7.42,0,0,1,1.05-3.25,1,1,0,0,1,1-.57,1,1,0,0,1,.24.77c.19,2.78.41,5.56,1.86,8.18a16.24,16.24,0,0,1,1-2.37.71.71,0,0,1,.75-.37c.5.48.25,1,.15,1.57a4.59,4.59,0,0,0-.18,2.57A25.8,25.8,0,0,1,24.64,90c.18-.49.28-1,.85-1.23a.59.59,0,0,1,.63.33c.15,1-.46,1.8-.68,2.71A8.38,8.38,0,0,0,25.31,96C25.42,96.88,24.79,97.19,24.24,97.57Z"/><path class="cls-5" d="M45.11,12.68c-.94-.16-1.69-1-2.75-.74a14,14,0,0,1,3.56-1.22,5.75,5.75,0,0,1,5.66,2.19c-.8,1.06-2.08,1.35-3.2,1.88-.4.19-.62-.22-.86-.49a11.22,11.22,0,0,0-2.61-2.24C44.72,12.37,45.08,12.47,45.11,12.68Z"/><path class="cls-9" d="M104.8,53.93a1,1,0,0,1-1.16-.81c-.42-2.66-1.71-5.16-1.48-7.94a2.49,2.49,0,0,1,1.65-2.28A57.51,57.51,0,0,1,104.8,53.93Z"/><path class="cls-7" d="M23.5,90.58l-.45.63a3.38,3.38,0,0,1-2.39-3.69,8.6,8.6,0,0,0,1.91-3.38c.7-.08.71.62,1.05,1A15.84,15.84,0,0,0,25.78,87a2.07,2.07,0,0,1-.57,1.76A4.84,4.84,0,0,1,23.5,90.58Z"/><path class="cls-10" d="M15.82,62.55a1.07,1.07,0,0,1-.15-.92c1.17-.58,2.48-.14,3.57,1.21a27.81,27.81,0,0,0,2.5,5.36c.24.48.63.94.42,1.55-.77.53-1.29-.06-1.77-.47a16.48,16.48,0,0,1-4.07-5.66A4.74,4.74,0,0,0,15.82,62.55Z"/><path class="cls-11" d="M20.66,87.52a8.33,8.33,0,0,0,2.39,3.69l-1.18,3.51c-1.77-3.1-2.66-6.17-2-9.58Z"/><path class="cls-12" d="M25.9,31.16,24,32.38l.2-.87a16.72,16.72,0,0,1,1.66-3.4A1.63,1.63,0,0,1,27,27.22c.88-.18,1.73-.51,2.63-.63.49-.07,1-.24,1.41.26.11.94-.41,1.41-1.2,1.81A14.94,14.94,0,0,0,25.9,31.16Z"/><path class="cls-13" d="M15.82,62.55C17,64,17.7,65.72,18.93,67.11a8,8,0,0,0,3.14,2.66c.83-.17,1.1.49,1.45,1,.31.79-.05,1-.79.92a2.66,2.66,0,0,1-1.28-.63A15.5,15.5,0,0,1,15.82,62.55Z"/><path class="cls-14" d="M31,26.85c-1.39.13-2.71.74-4.14.7-.29-1.41.89-1.77,1.7-2.39l.48-.47c.88-.77,1.72-1.62,3-1.58.65,1,.57,1.41-.41,2.23C31.21,25.74,31.32,26.39,31,26.85Z"/><path class="cls-10" d="M21.56,61.87l.08-.76c2-.12,3.1,1.06,3.9,2.68a15.44,15.44,0,0,0,.72,3.13,1.67,1.67,0,0,1,.07,1.28c-.68.54-1-.1-1.33-.47a16.31,16.31,0,0,1-2.32-4,2.93,2.93,0,0,0-.86-1.39Z"/><path class="cls-15" d="M31.4,69.46c-.87.16-1.26-.54-1.7-1a20.9,20.9,0,0,1-1.39-2,12.38,12.38,0,0,1-1-2.25c-.05-.55-.59-1.29.11-1.6s1.13.51,1.5,1c.72,1,.82,2.42,1.78,3.33C31.14,67.7,32.19,68.34,31.4,69.46Z"/><path class="cls-16" d="M18.94,63.06a4.8,4.8,0,0,0-3.27-1.43l0-.27a3.2,3.2,0,0,1,4.53.5l1.44,4.54c-.68.2-.9-.34-1.17-.76C19.89,64.81,19.54,63.87,18.94,63.06Z"/><path class="cls-7" d="M24.23,80.56l1.15-2.42c.81.31.65,1.2,1.06,1.75.43.89,1.34,1.46,1.67,2.42a1.59,1.59,0,0,1-.7,1.5C25.7,83.89,23.88,82,24.23,80.56Z"/><path class="cls-17" d="M18.94,63.06c1,.56,1.33,1.61,2,2.44.23.31.32.72.71.9a22.44,22.44,0,0,1,1.91,4.38l-1.45-1a36.88,36.88,0,0,1-2.85-5.69C19.1,63.75,19,63.4,18.94,63.06Z"/><path class="cls-16" d="M24.23,80.56a4.75,4.75,0,0,0,3.09,3.11.73.73,0,0,1,.84.68,2.27,2.27,0,0,1-1.06,2.4.88.88,0,0,1-.88.18c-.52-.57-.52-1.38-.93-2-.5-1.29-1.11-2.54-1.68-3.8a3.44,3.44,0,0,1-.35-1.25.82.82,0,0,1,.22-.49C24.22,79.46,23.84,80.26,24.23,80.56Z"/><path class="cls-18" d="M25.18,63.77a6.34,6.34,0,0,0-3.54-2.66c1.91-.8,2.94-.5,4.29,1.23,0,1.38.54,2.69.67,4-.64.1-.69-.44-.83-.81C25.54,65,25.44,64.36,25.18,63.77Z"/><path class="cls-19" d="M19.64,84.37a10.21,10.21,0,0,0-1.86,5.85,2.16,2.16,0,0,1-.19,1.15,11.7,11.7,0,0,1-.07-5.79C17.85,84.37,18.68,83.94,19.64,84.37Z"/><path class="cls-20" d="M21.82,62.34c.49-.35.65-.05.84.38A33.27,33.27,0,0,0,25,67.12a3.61,3.61,0,0,0,1.1,1.23c.16.11.14.26.09.41-.75.12-1.2-.37-1.61-.85A13.27,13.27,0,0,1,21.82,62.34Z"/><path class="cls-21" d="M30.44,67.16a16.56,16.56,0,0,1-1.87-3.27c-.24-.44-.45-1.21-.92-1.11s-.18.88-.3,1.34c-.45-.51-.38-1.23-.72-1.79l.05-.45c1.34-.63,3,.23,3.66,1.93a8.93,8.93,0,0,0,.45,2A1.13,1.13,0,0,1,30.44,67.16Z"/><path class="cls-13" d="M23.48,79.39l.07.44A14.85,14.85,0,0,0,24,82a11.13,11.13,0,0,0,0,2c.07.53.1,1.14-.65,1.32l-.75-1.2a8.62,8.62,0,0,1-.28-3.39C22.4,80.05,22.6,79.42,23.48,79.39Z"/><path class="cls-22" d="M28.55,25.16c-.48.86-1.33,1.45-1.7,2.39a39.88,39.88,0,0,0-2.62,4c.25-2.18,1.45-3.93,2.59-5.7C27.19,25.23,28,25.35,28.55,25.16Z"/><path class="cls-23" d="M31.94,23.26c-1,.46-1.68,1.48-2.91,1.43-.2-1.22.69-2.26,2.37-2.77.39-.07.78-.14,1,.35A.82.82,0,0,1,31.94,23.26Z"/><path class="cls-24" d="M104.61,61.17a2.71,2.71,0,0,1-.83-3,7.4,7.4,0,0,1,1-2.28A22.39,22.39,0,0,1,104.61,61.17Z"/><path class="cls-25" d="M26.1,80.11a4.65,4.65,0,0,1-.72-2,4.14,4.14,0,0,1,.54-1.62c.43-.13.82-.14,1,.39a2.81,2.81,0,0,1,.17.54,9,9,0,0,0,0,1.37C26.87,79.34,27.1,80.2,26.1,80.11Z"/><path class="cls-26" d="M26.22,68.76l-.09-.41a37.6,37.6,0,0,1-.95-4.58c.69.76.7,1.88,1.42,2.62C26.74,67.22,27.43,68.15,26.22,68.76Z"/><path class="cls-27" d="M32.24,22.3c-.19-.34-.56-.27-.84-.38.9-.58,1.37-1.65,2.41-2.07.39.48-.05.79-.25,1.14a8.64,8.64,0,0,0-1,2C32,23,32.39,22.51,32.24,22.3Z"/><path class="cls-28" d="M38.13,14.84a17.6,17.6,0,0,1,2.19,2.83c-1.13-.79-1.88-1.84-3.2-1.66A3.79,3.79,0,0,1,38.13,14.84Z"/><path class="cls-2" d="M99,105.09l-.45.26-4.31,2.49h0l-1.6.92-5.89,3.4-.65.38c.5-2.24,1.08-4.46,1.68-6.68A144.83,144.83,0,0,1,98.09,78.71a1.92,1.92,0,0,1,.78-1.08c-.31,2-.65,3.78-.89,5.61C97,90.71,96.9,98.05,99,105.09Z"/><path class="cls-29" d="M68.21,25.82c0-.41-.09-.6-.09-.78a3.82,3.82,0,0,0-2.44-3.87c-1-.47-1.18-1-.55-2a10.12,10.12,0,0,1,1.28-1.56,2.76,2.76,0,0,1,3.87-.34,10.46,10.46,0,0,1,2,1.85,2.46,2.46,0,0,1-.12,3.44C71,23.71,69.65,24.66,68.21,25.82Z"/><path class="cls-5" d="M63.41,22A5.43,5.43,0,0,1,66.74,24c1.11,1.43-.53,5.21-2.34,5.48a1,1,0,0,1-.91-.19,12.05,12.05,0,0,0-4-2.93.76.76,0,0,1-.41-.9C59.22,24.35,62,22,63.41,22Z"/><path class="cls-5" d="M68.86,78.46c3.77-1.79,7.54-3.61,11.33-5.37s6.58-5.07,10.29-7a11.31,11.31,0,0,1-3.14,4.69A22.86,22.86,0,0,1,79.77,75c-3.43,1.21-6.89,2.32-10.34,3.46a4.71,4.71,0,0,1-.54.12Z"/><path class="cls-30" d="M25.69,50.83l.48-.95a8.36,8.36,0,0,1,3.28-4,3.28,3.28,0,0,1,4.84,2.53c0,.93-.31,1.28-1.19,1.21-4.47-.38-6.74,2.33-8.43,6v-.9c-.67-1-.17-2,.3-2.9A6.42,6.42,0,0,1,25.69,50.83Z"/><path class="cls-31" d="M20.35,48.22l0,2.36c.37,1.45.36,2.8-.89,3.87-.34-.05-.35-.05-.37-.22-.13-1.35-.21-2.7-.39-4a6.83,6.83,0,0,0-.55-1.82,1.67,1.67,0,0,0-2.1-1.12c-.11,0-.25,0-.31-.11A2.8,2.8,0,0,1,16.87,44a2.31,2.31,0,0,1,2.82.85C20.36,45.91,20.15,47.1,20.35,48.22Z"/><path class="cls-7" d="M19.49,54.45l.89-3.87c1.18,1.35,3.9,1.31,5.31.25a20.42,20.42,0,0,0-1,3.85C22.94,54.62,21.18,55.18,19.49,54.45Z"/><path class="cls-5" d="M86.78,18.23a12.82,12.82,0,0,1,2,3.05c0,.76,0,1.52,0,2.27a1,1,0,0,1-1.37,1.07,6.2,6.2,0,0,1-1.59-.53c-1.32-.67-1.46-1.37-.54-2.53A10.55,10.55,0,0,0,86.78,18.23Z"/><path class="cls-32" d="M31.55,59.07A34.06,34.06,0,0,0,15.91,57.5a13.42,13.42,0,0,1,5.18-1.67c2.29-.4,4.3.36,6.32,1.2,1.4.58,2.8,1.13,4.2,1.69Z"/><path class="cls-5" d="M60.71,30.45c-1.19.08-2.38.17-3.56.21-.86,0-1.15-.33-.79-1.2,1.09-2.62,2-3,4.53-1.68l.53.27a1.44,1.44,0,0,1,.83,1.11c0,.58-.53.73-.94.95l-.62.34Z"/><path class="cls-33" d="M32.24,22.3l.36.7c.41-.17.53-.59.78-.88.83-.95,1.37-.87,1.92.27.74,1.53.53,2.37-.84,3.38a8.7,8.7,0,0,1-.9.59c-2.39,1.26-1.85.94-1.91-1,0-.71.79-1.31.29-2.08Z"/><path class="cls-5" d="M94.84,56.6c.06.37-.16.46-.42.35a3.51,3.51,0,0,1-.91-.55,11.83,11.83,0,0,0-6.13-2.69,9.88,9.88,0,0,1-1-.26c-.44-.13-1.11-.16-1-.76s.76-.38,1.2-.43a8.36,8.36,0,0,1,7.53,3A4.46,4.46,0,0,1,94.84,56.6Z"/><path class="cls-34" d="M33.1,49.62c1,.07.93-.69.85-1.28a3,3,0,0,0-4.55-1.92,14.54,14.54,0,0,0-3.23,3.46c.29-2.21,3-5.11,5.09-5.51a2.37,2.37,0,0,1,3,1.63,4.47,4.47,0,0,1,0,3.48C33.94,50.17,33.55,50.17,33.1,49.62Z"/><path class="cls-16" d="M32.4,95a2.58,2.58,0,0,1-1,2.4l-1.16.24H30c-.27-.64.24-1.07.43-1.59a16.61,16.61,0,0,0,.16-3.66,14.21,14.21,0,0,1,.18-3.19,1,1,0,0,1,.41-.49.72.72,0,0,1,.76.46A9.22,9.22,0,0,1,32.4,95Z"/><path class="cls-35" d="M20.35,48.22a16.25,16.25,0,0,0-.72-2.74,2,2,0,0,0-2.81-1,2,2,0,0,0-.74,2.73c-.55.38-.72.08-.71-.43a4.19,4.19,0,0,1,1.76-3.59,1.49,1.49,0,0,1,2.05.21C20.61,44.79,20.45,46.51,20.35,48.22Z"/><path class="cls-36" d="M32.4,95c-.44-1.68-.21-3.45-.68-5.13-.11-.38-.11-.79-.51-1-2.22,1.16-3,3.13-3,5.48,0,.48.19,1-.38,1.39l-1.39.22c-.71-.43-.55-1.18-.61-1.81A16.46,16.46,0,0,1,26,90.44c0-.38,0-.76,0-1.13a4.52,4.52,0,0,1,.87-2.77,3.38,3.38,0,0,0,1-2.11c.48-1.05,1.39-1.86,1.71-3a1.87,1.87,0,0,1,.35-.57c.85-1.22,1.75-2.41,2.68-3.57a41.22,41.22,0,0,1,3.82-4.21,3.18,3.18,0,0,1,.91-.76c.69-.06.92.51,1.27.92.51.59.85,1.36,1.68,1.62a.81.81,0,0,0,.71,0c.47-.62.08-1.22,0-1.82-.18-.92-.67-1.81-.32-2.8a10.16,10.16,0,0,1,3.84-2,1.23,1.23,0,0,1,1,.3,3.6,3.6,0,0,0,.4.28c.69.18,1.09,0,1.14-.78a1.3,1.3,0,0,1,.6-1.21,18.21,18.21,0,0,1,3.26-.7,2.17,2.17,0,0,1,.51.08c1.27.88,1.31.88,2.39-.31a1.2,1.2,0,0,1,.4-.26,1.28,1.28,0,0,1,.87-.33c1.89.31,3.79-.34,5.67.1a1.5,1.5,0,0,1,.75.2c.33.19.46.74.91.63s.41-.66.51-1.06.09-1,.8-.85a2.37,2.37,0,0,0,1.79,1.18,19.91,19.91,0,0,1,6.9,3.06c.48.33,1,.62,1.06,1.33-2.31.61-4.59,1.39-6.93,1.8a20.18,20.18,0,0,0-9.56,4.9c-1.1.92-2.15,1.9-3.22,2.85-.53.56-1.09-.22-1.62,0-.53.44-.08,1.18-.5,1.64-.22.92-1.18,1.3-1.54,2.11-1,.54-1.57-.24-2.16-.82-.29-.28-.4-.81-1-.63-1.13,1.13-.35,2.14.19,3.16a.88.88,0,0,1,.16.95L46,87.23c-.72.46-1.13-.1-1.46-.55A7.64,7.64,0,0,1,43,83.37c-.19-.44.25-1.09-.44-1.37-1.05.2-1,1.11-1.18,1.85-.57,1.78.09,3.38.69,5,.17.44.5.83.41,1.35a25.52,25.52,0,0,1-3.76,2.32c-.62-.36-.6-1-.63-1.59a24.48,24.48,0,0,1,.07-4.53c.06-.67.7-1.33,0-2a1,1,0,0,0-.4-.2,7.32,7.32,0,0,0-3.35,5.59c-.07,1.23-.29,2.45-.35,3.68,0,.48,0,1-.52,1.25Z"/><path class="cls-37" d="M75.3,24.63a10.63,10.63,0,0,1,13.24,9.62,14.19,14.19,0,0,1-.47,5.07,10.14,10.14,0,0,1-3.84,6.76c-3.63,3-7.67,4-12.16,2.21A11.43,11.43,0,0,1,65.2,38.18a13.69,13.69,0,0,1,4.54-11.13A8.73,8.73,0,0,1,75.3,24.63Z"/><path class="cls-38" d="M75.3,24.63a13.14,13.14,0,0,0-8.83,17.24c2.78,7.05,11.53,9,17.42,3.88a13.28,13.28,0,0,0,4.18-6.43,6.47,6.47,0,0,1-.8,3.76,12.23,12.23,0,0,1-10.5,7.5A12.63,12.63,0,0,1,64.32,41a13.41,13.41,0,0,1,1.34-10.48,5.12,5.12,0,0,0,.3-.77h0a19.14,19.14,0,0,1,4-3.62,13.6,13.6,0,0,1,4.48-1.61A1,1,0,0,1,75.3,24.63Z"/><path class="cls-2" d="M68,48.51l-.46.14c-2.74,1-5.2-.37-7.67-1.08s-3.38-2.8-2.76-5.6a13.5,13.5,0,0,1,3.2-6.08,2.47,2.47,0,0,1,2.53-.6c.72.1.41.74.31,1.17a11.78,11.78,0,0,0,.39,6.7A10.82,10.82,0,0,0,68,48.51Z"/><path class="cls-8" d="M30.72,96.39c0,.53-.5.78-.73,1.19-.81-.09-1.94.49-2.1-1a22.56,22.56,0,0,1,.44-4.33,4.77,4.77,0,0,1,1-2c.33-.34.68-.7,1.21-.33a11.81,11.81,0,0,1,0,3C30.62,94.09,30.59,95.25,30.72,96.39Z"/><path class="cls-39" d="M26.33,90.16a26.78,26.78,0,0,0,.08,5.73c-.12,1.34-1.22,1.41-2.17,1.68.29-.44.71-.82.72-1.41a16.68,16.68,0,0,1,.74-5.11C25.83,90.71,25.77,90.21,26.33,90.16Z"/><path class="cls-40" d="M30.46,89.9c-2.07,1.29-2.12,3.46-2.37,5.54a2.42,2.42,0,0,1-.2,1.15l-.09-.92a10.09,10.09,0,0,1,1-5.3,2.59,2.59,0,0,1,2.42-1.57c0,.13,0,.26,0,.39C31,89.43,30.86,89.82,30.46,89.9Z"/><path class="cls-41" d="M35.8,29.77c-3,2.84-4.67,6.26-7.23,9a7.44,7.44,0,0,1-3.51,2.55c-.77.19-1.07-.1-1.06-.81a6.07,6.07,0,0,1,1.77-4.06A27,27,0,0,1,33.27,31,6.94,6.94,0,0,1,35.8,29.77Z"/><path class="cls-42" d="M49.92,25.65c.55.13,1.08.28,1.26.83s-.19.83-.51,1.12a3.69,3.69,0,0,1-2.42.81c-.44,0-.76-.4-.92-.82a.9.9,0,0,1,.25-1A4,4,0,0,1,49.92,25.65Z"/><path class="cls-43" d="M52.18,23.33a1.33,1.33,0,0,1-1.2.8c-.42,0-.84-.29-.7-.73s.74-.63,1.27-.62C51.88,22.79,52.17,22.9,52.18,23.33Z"/><path class="cls-44" d="M43.74,30.9c-.33,0-.73-.09-.67-.48a1.05,1.05,0,0,1,1.06-.91c.4,0,.72.21.64.65S44.25,30.89,43.74,30.9Z"/><path class="cls-45" d="M73.43,69.82a20.58,20.58,0,0,0-9.14-4.11c-1.05-.17-.56-.95-.77-1.46-.9-1.06-.1-2.07.08-3.11a10.36,10.36,0,0,0,.64-1.9c.18-.44.32-.9.84-1.07.66.11.73.73,1,1.17s.22.85.73,1,.68.11.88-.37a14.64,14.64,0,0,0,.3-1.58c.32-.69.09-1.66,1.05-2a9.86,9.86,0,0,1,3.14-.53c.38.14.36.55.55.82.17.49.26,1,.76,1.33s.83.36,1.09-.2c.17-.35.26-.73.42-1.09a2.24,2.24,0,0,1,1.34-1.3,3.73,3.73,0,0,1,1.84-.22,1.07,1.07,0,0,1,.31.39,4.15,4.15,0,0,0,.73,2c.53.67,1,.45,1.44-.1.24-.31.38-.69.62-1,.48-.49.85-1.14,1.69-1.06a19.47,19.47,0,0,1,5.31,1.3,1,1,0,0,1,.64,1.41,4.57,4.57,0,0,1-.4.87A24,24,0,0,1,73.43,69.82Z"/><path class="cls-45" d="M37.45,72.45c-.15.62-.68,1-1.08,1.37-1.16,1.21-2.35,2.4-3.53,3.6l-.14-.09c-.44-.51-.21-1.42-1-1.71a1.52,1.52,0,0,1-.95-1.12,47.23,47.23,0,0,0,1.1-5c.11-.86-.68-1.83.28-2.6,0-.78,0-1.57,0-2.35,0-.39-.35-1,.14-1.16a1.52,1.52,0,0,1,1.52.37A2.92,2.92,0,0,1,34,64c.38.17.45.57.66.87a37.15,37.15,0,0,0,2.55,6.24C37.47,71.54,37.73,72,37.45,72.45Z"/><path class="cls-8" d="M38.16,83.75l.23.18c.47,1.14-.24,2.07-.56,3.08a13.05,13.05,0,0,0-.64,7c-.73,1.35-1.52,1.64-3.36,1.21l-.27-.56c.18-1.75,0-3.54.48-5.27a7.79,7.79,0,0,1,2.29-3.51C37.07,85.29,37.35,84.29,38.16,83.75Z"/><path class="cls-16" d="M69,56.35c-.46.64-.34,1.45-.64,2.13-.44,0-.63-.52-1.08-.51s-.81-.11-1.17.15a.88.88,0,0,1-.9.19c-.75.79-.61,2-1.19,2.83-.59.08-.83-.49-1.27-.7l-.44-.18c-1.56-.64-1.79-.57-2.79.9-.66-.22-.53.67-1,.72a2.1,2.1,0,0,1-1.67-.32,3.35,3.35,0,0,0-1.41,0c-.37.17-.74.36-1.15.11-.22-.25-.34-.51-.11-.82a64.45,64.45,0,0,1,9.35-3.3A26.81,26.81,0,0,1,69,56.35Z"/><path class="cls-17" d="M40.86,70.27c.26,1.07.57,2.13.77,3.21.12.67.5,1.52-.6,1.82a4,4,0,0,1-1.78-2.58,20.18,20.18,0,0,1-.87-5.29c-.21-2.38-.9-3.28-3.24-3.94a.92.92,0,0,1-.65-.47c1.3-.88,2.57-.45,3.82.12.53.25,1,.58,1.54.88.1.07.25.12.28.21C40.73,66.2,41.35,68.17,40.86,70.27Z"/><path class="cls-45" d="M40.86,70.27c-.5-2.06-.71-4.16-1-6.25H43.1a.58.58,0,0,1,.39.37c.4.94.69,1.93,1.06,2.88.15.36.34.73.08,1.12A30.1,30.1,0,0,1,40.86,70.27Z"/><path class="cls-10" d="M34.49,63c2.93.08,4.14,1.42,4.41,4.4.18,2.07.12,4.22,1.12,6.15.3.59.67,1.16,1,1.73-.25.12-.5.41-.76,0A15.26,15.26,0,0,1,37,68.8c-.24-.88-.46-1.77-.74-2.64-.41-1.27-.65-1.42-2-1.23L34,64C34.1,63.65,33.93,63.16,34.49,63Z"/><path class="cls-46" d="M54.22,60.83l.27.88c.82.43.72,1.48,1.36,2,.21.17.4.36.59.54.85.46,1.12-.12,1.32-.76s.15-1.42.78-1.91c.09-.21.17-.44.28-.64s.09-.45.33-.36.17.32.25.49c.42.14.53.52.71.86.25.79.49,1.58.8,2.35.18.43.41.88.05,1.34-2.32.16-4.65-.16-7,.26-1-.46-.82-1.41-.88-2.25s-.41-1.78.37-2.52Z"/><path class="cls-8" d="M42.45,90.19c-1.37-1.12-1.51-2.73-1.64-4.3A5,5,0,0,1,41,83.65c.71.53,0,1.17.15,1.6,0,.3.25,0,.11.12s-.09,0-.07-.09c.25-.84-.21-2,1-2.39a.87.87,0,0,1,.47.79,6.69,6.69,0,0,0,2.2,5.08.93.93,0,0,1-.32.91A1.73,1.73,0,0,1,42.45,90.19Z"/><path class="cls-11" d="M30,63.74a4.58,4.58,0,0,0-3.33-1.86c.29-1,1.17-.74,1.85-.74a3,3,0,0,1,3.15,3.11c0,.86.17,1.73.26,2.59-.65.2-.76-.36-1-.73C30.58,65.36,30.43,64.49,30,63.74Z"/><path class="cls-47" d="M50.93,66.38c-.86.23-1.72.45-2.58.7-.28.08-.53.18-.67-.19a1.35,1.35,0,0,1-.37-1.37c.38-.82,0-2,1.12-2.47l.67-.2c.42.09.42.52.61.79C49.93,64.64,50.9,65.3,50.93,66.38Z"/><path class="cls-48" d="M33.83,95.25c1.18-.07,2.43,0,3.14-1.24a46.7,46.7,0,0,0,.49-5.55c0-.88,0-1.94,1.11-2.4a17.49,17.49,0,0,0,.12,6.45,4,4,0,0,1-3.8,3.16A1.18,1.18,0,0,1,33.83,95.25Z"/><path class="cls-49" d="M47.27,85.82l-.46-.7c-.24-1.26-.84-2.53.09-3.76.36-.34.5,0,.6.24a13.6,13.6,0,0,0,1.8,2.65c.41.52.88,1.07.41,1.82A2.07,2.07,0,0,1,47.27,85.82Z"/><path class="cls-50" d="M49.71,86.07a1.45,1.45,0,0,0-.36-1A8.9,8.9,0,0,1,47,81.32c-.09.05-.15,0-.17-.09.63-.43.83.16,1.11.5a3.33,3.33,0,0,0,2.11,1.43C51,84.38,50.85,85.32,49.71,86.07Z"/><path class="cls-51" d="M44.54,89.67l.07-1a7.52,7.52,0,0,1-1.83-4.06c-.05-.57-.2-1.22.6-1.46a5.27,5.27,0,0,0,2.62,4A2.38,2.38,0,0,1,44.54,89.67Z"/><path class="cls-52" d="M30,63.74c1.06.77,1.19,2.12,1.93,3.1l.17,0c-.2.86.54,1.81-.28,2.6l-.43,0c.22-1-.76-1.48-1-2.3C30.58,66,30,64.91,30,63.74Z"/><path class="cls-53" d="M49.38,63.73c-.25-.24-.19-.59-.28-.88a21.49,21.49,0,0,1,4.39-1.71l-.07,2.64c-.34.18-.63-.09-.94-.13-.56-.14-1.06-.65-1.7-.29a6.36,6.36,0,0,1-.85.25A2.57,2.57,0,0,1,49.38,63.73Z"/><path class="cls-54" d="M48.43,63.05a11.76,11.76,0,0,0-.65,2.41c-.44.07-.72-.25-1.07-.39a5.89,5.89,0,0,0-1.94-.4c-.53.07-1.06.33-1.57-.06,0-.2-.07-.4-.1-.59Z"/><path class="cls-55" d="M72.37,56.72c-.24-.26-.14-.6-.19-.9a9.79,9.79,0,0,1,4.16-.44l-1,1.44a6,6,0,0,0-2.23-.19A1.69,1.69,0,0,1,72.37,56.72Z"/><path class="cls-56" d="M78.22,55.65c0-.16,0-.33,0-.49,1.6.08,3.21-.27,4.79.2l-1.4,1.24c-.54,0-.78-.69-1.37-.59a7.48,7.48,0,0,0-.82,0,1.51,1.51,0,0,1-.7-.06A1.12,1.12,0,0,1,78.22,55.65Z"/><path class="cls-57" d="M51.76,78.93c.79-.45,1.27.46,2,.44a1.28,1.28,0,0,1-.42,1.9c-.62-.22-.76-.92-1.29-1.23A1.3,1.3,0,0,1,51.76,78.93Z"/><path class="cls-58" d="M51.76,78.93l.51.93c.32.53.64,1.07-.19,1.47l-.48-.28A1.87,1.87,0,0,1,51.76,78.93Z"/><path class="cls-59" d="M52.08,81.33c.36-.46.16-1,.19-1.47a2.22,2.22,0,0,1,1,1.41A1.05,1.05,0,0,1,52.08,81.33Z"/><path class="cls-60" d="M72.22,15.84c1.47-1.76,4.12-2.6,5.81-2,.33.11.78.16.77.62s-.51.42-.83.41A19.63,19.63,0,0,0,72.22,15.84Z"/><path class="cls-61" d="M39.41,16c.84-2.57,2.17-3.5,4.49-3.18A34.72,34.72,0,0,0,39.41,16Z"/><path class="cls-62" d="M32.84,77.42a19.67,19.67,0,0,1-2.63,3.65c-.45-.76-1.09-1.46-.93-2.45.35-.45.14-1.27.94-1.42h.16c.77.65,1.65-.11,2.44.22Z"/><path class="cls-16" d="M29.28,78.62c.6.71,1.25,1.39.93,2.45l-.23.36c-.3.42-.39,1.1-1.16.91a.62.62,0,0,1-.22-.28,4.08,4.08,0,0,0-1.09-3.14,2.23,2.23,0,0,1-.65-1.49c0-.18,0-.35.05-.52A6.49,6.49,0,0,0,29.28,78.62Z"/><path class="cls-63" d="M30.73,74.5a2.67,2.67,0,0,1,1.13.83c.56,1.35.2,2-1.12,2-.66-.83-1.4-1.63-.77-2.81Z"/><path class="cls-64" d="M30,74.56a13.12,13.12,0,0,0,.73,2.66.33.33,0,0,1-.41,0l-.07-.06a4.13,4.13,0,0,1-.93-1.72C29.22,75,29.25,74.51,30,74.56Z"/><path class="cls-65" d="M23.5,90.58A3.18,3.18,0,0,1,25,88.69c.24-.15.41-.11.47.19A39.79,39.79,0,0,0,24,95.15c0,.35-.07.82-.52.82s-.41-.5-.52-.82A5.94,5.94,0,0,1,23.19,92C23.3,91.51,23.4,91,23.5,90.58Z"/><path class="cls-66" d="M26.33,90.16c-.46,2-.91,4-1.37,6-.72-2.45.15-4.7.94-7,.09-.08.17-.07.22,0Z"/><path class="cls-67" d="M26.12,89.25a.79.79,0,0,0-.22,0,.57.57,0,0,0-.47-.32L25,88.69l.72-1.63c.06-.24.19-.36.45-.28l.77-.24C27.14,87.58,26.51,88.38,26.12,89.25Z"/><path class="cls-21" d="M26.13,86.78l-.45.28c-1.19,0-1.76-.89-2.36-1.72.48-1.09,0-2.24.22-3.35.47-.08.6.3.73.6a13.93,13.93,0,0,0,1.4,2.28C26.07,85.45,26.68,86,26.13,86.78Z"/><path class="cls-49" d="M28.79,82a1.64,1.64,0,0,0,0,.23.65.65,0,0,1-.94,0,5.42,5.42,0,0,1-1.73-2.15c.67-.3.48-1,.57-1.48A4.67,4.67,0,0,1,28.79,82Z"/><path class="cls-68" d="M27.83,82.26l.94,0c.6,0,.81-.53,1.21-.8a9.77,9.77,0,0,1-1.57,2.91c-.12.21-.33.17-.53.09-.05-.35-.35-.52-.56-.76Z"/><path class="cls-17" d="M25.67,84.87A7.08,7.08,0,0,1,23.54,82c0-.72,0-1.44,0-2.16Z"/><path class="cls-17" d="M28.79,82c0-.28,0-.63-.23-.76-1.09-.56-1.36-1.68-1.89-2.62a1.58,1.58,0,0,1,.19-1.2A10.26,10.26,0,0,1,28.74,80,2.12,2.12,0,0,1,28.79,82Z"/><path class="cls-5" d="M94.26,107.85l-1.6.92A4.27,4.27,0,0,1,94.26,107.85Z"/><path class="cls-5" d="M94.65,105.74c-.81,0-1.33-.27-1.33-1a1.3,1.3,0,0,1,1.36-1.37,1,1,0,0,1,1.2,1.16A1.23,1.23,0,0,1,94.65,105.74Z"/><path class="cls-69" d="M30.46,89.9l.73-.71c-.49,1.8-.16,3.64-.25,5.46,0,.59.14,1.2-.22,1.74-.91-1.67-.44-3.46-.39-5.21C30.34,90.75,30.41,90.33,30.46,89.9Z"/><path class="cls-70" d="M34.27,64.93c.62-1,1.07-1.07,1.79-.27a3.23,3.23,0,0,1,.72,1.61,36.39,36.39,0,0,0,3.49,9.06c-1.33-.58-2-1.84-2.82-2.88A28.35,28.35,0,0,1,34.27,64.93Z"/><path class="cls-71" d="M38.57,86.06a4.75,4.75,0,0,0-.68,2.83,11.7,11.7,0,0,1-.3,4c-.15.41-.22.85-.62,1.12-.9-1.49-.55-3.07-.29-4.62.33-1.9,1.46-3.54,1.71-5.46C39.17,84.57,38.81,85.32,38.57,86.06Z"/><path class="cls-13" d="M61,65.65a12.74,12.74,0,0,1-1.26-3.5,3.74,3.74,0,0,1-.1-1.29c0-.51.06-1,.68-1a1.07,1.07,0,0,1,1.2.77A7.28,7.28,0,0,1,62,63c0,.94.6,1.83.28,2.79-.27.39-.62.35-1,.16Z"/><path class="cls-17" d="M43.38,83.19a5.5,5.5,0,0,0,.73,4,2.39,2.39,0,0,1,.5,1.54c-1.78-.85-2.16-2.5-2.38-4.22a13.33,13.33,0,0,1,0-1.55c-.48-.7.06-1,.5-1.43C43.81,81.72,43.33,82.57,43.38,83.19Z"/><path class="cls-72" d="M50.59,63a2.07,2.07,0,0,1,2.16.3,3.37,3.37,0,0,1,.61,2.59c0,1-.83,1.14-2.12.55l-.31-.08a7.87,7.87,0,0,1-1.55-2.65c.07-.16.06-.37.28-.42.68.26.83,1,1.33,1.51C51,64.14,50.55,63.64,50.59,63Z"/><path class="cls-52" d="M61.32,65.94a.86.86,0,0,0,.82-.25c.24-1.13-.16-2.27,0-3.4.09-.79,0-1.69,1-2.11a2.68,2.68,0,0,1,1,1,12.6,12.6,0,0,0-.54,3.11,9.41,9.41,0,0,0-.13,1c0,.62-.09,1.32-.7,1.53S61.63,66.47,61.32,65.94Z"/><path class="cls-8" d="M44.84,64.27a2.62,2.62,0,0,1,2.14.5c.64,1.3,0,2.55-.16,3.81-.08.53-.68.73-1.26.48l-.28-.22c0-1.12-.77-2-.78-3.15C44.5,65.17,44.4,64.67,44.84,64.27Z"/><path class="cls-73" d="M38.16,83.75a2.59,2.59,0,0,1-.75,1.69,23.68,23.68,0,0,0-3.37,4,9.73,9.73,0,0,1,2.46-5C36.93,83.88,37.43,83.47,38.16,83.75Z"/><path class="cls-20" d="M44.84,64.27a9.18,9.18,0,0,0,.78,3.46c.25.47.33.91-.34,1.11l-.65-.45a9.66,9.66,0,0,1-1.43-3.78A3.09,3.09,0,0,1,44.84,64.27Z"/><path class="cls-74" d="M45.56,69.06c.69,0,1-.35,1-1A16.3,16.3,0,0,1,47,64.77a1.55,1.55,0,0,1,.8.69l-.1,1.43c-.07.42-.12.85-.21,1.26C47.25,69.11,46.58,69.43,45.56,69.06Z"/><path class="cls-75" d="M51.24,66.46c1.62.25,1.78.09,1.77-1.63a5.09,5.09,0,0,0-.26-1.51l.67.46A6.37,6.37,0,0,0,54,65.91C53.59,67.48,52.59,67.68,51.24,66.46Z"/><path class="cls-76" d="M42.71,81.51c-.17.48-.33,1-.5,1.43a9,9,0,0,0-1.16,2.79c0-.69-.07-1.38-.1-2.08C41.19,82,41.55,81.56,42.71,81.51Z"/><path class="cls-77" d="M46.84,81.23a.56.56,0,0,0,.17.09,37.2,37.2,0,0,0-.2,3.8,3.65,3.65,0,0,1-.78-3A1.37,1.37,0,0,1,46.84,81.23Z"/><path class="cls-78" d="M76,43.15a.9.9,0,0,1-1.32.53,9.83,9.83,0,0,1-6.56-9.84,9.65,9.65,0,0,1,7.61-8.75,7.87,7.87,0,0,1,5.82.56c-.49.57-1.1.32-1.67.23a5.8,5.8,0,0,0-5.7,3.48,5.1,5.1,0,0,0,2,6.19,7.39,7.39,0,0,1,1.45,1,1,1,0,0,1,.15.36,13.47,13.47,0,0,1-1.19,5.7A.82.82,0,0,1,76,43.15Z"/><path class="cls-79" d="M77.43,36.65a5.57,5.57,0,0,1-3.92-6.91,6.18,6.18,0,0,1,6.87-4.28l1.17.19,1.42.71a11.6,11.6,0,0,1,1.27,1.05.69.69,0,0,1,.23,1,3.48,3.48,0,0,1-2.76.73c-.55-.24-.77-.77-1.1-1.22-.53-.72-1.1-1.43-2.14-1-.78.28-1.09,1.16-.87,2.36a28.43,28.43,0,0,1,.36,6C78,35.81,78,36.35,77.43,36.65Z"/><path class="cls-78" d="M84.42,28.29c-.15-.9-1.07-1.21-1.45-1.93a8.38,8.38,0,0,1,4.42,5.89,9.57,9.57,0,0,1-4,10.31c-.47.29-.93.81-1.61.54-.44-.45-.27-1-.14-1.45a25.78,25.78,0,0,0,.68-3.37,10.89,10.89,0,0,0,.41-2.48A7.59,7.59,0,0,0,85,31C85.24,30,84.58,29.2,84.42,28.29Z"/><path d="M82.79,38.3a27.21,27.21,0,0,1-1,4.8,15.53,15.53,0,0,1-1.27,2.38,2.7,2.7,0,0,1-3,1.18c-1-.35-1.56-1.35-1.51-2.8,0-.24,0-.47,0-.71a34.59,34.59,0,0,0,1.5-6.26,1.6,1.6,0,0,1,1.41-.49,9.28,9.28,0,0,0,2.72-.35c1-.29,1.22-.06,1.23.94A4.13,4.13,0,0,1,82.79,38.3Z"/><path class="cls-80" d="M72.89,56.3c.9-.19,1.87-.66,2.48.52A11.16,11.16,0,0,1,75.05,58c-.48,1.21-1,1.3-1.94.34A3.48,3.48,0,0,1,72.89,56.3Z"/><path class="cls-81" d="M80.33,55.64a1.09,1.09,0,0,1,1.24,1c-.75,2-1.48,2.32-2.67,1.18C79.69,57.27,79.66,56.22,80.33,55.64Z"/><path class="cls-82" d="M67.38,57.57a.91.91,0,0,1,1,.91,14.21,14.21,0,0,1-.26,1.61c-.22.88-.75,1.11-1.54.59a.93.93,0,0,1,0-.73C67.28,59.28,66.56,58.18,67.38,57.57Z"/><path class="cls-83" d="M66.92,60.18l-.32.5a3.1,3.1,0,0,1-1.35-2.37l.71-.55c.64-.22.8.21.94.69A5,5,0,0,1,66.92,60.18Z"/><path class="cls-84" d="M80.33,55.64c-.2.89-.08,2-1.43,2.14a2.79,2.79,0,0,1-.68-2.13l.49,0c.24.37.45.35.65,0Z"/><path class="cls-85" d="M72.89,56.3c.55.61.26,1.31.22,2a2.74,2.74,0,0,1-.74-1.57A.48.48,0,0,1,72.89,56.3Z"/><path class="cls-54" d="M30.29,77.26l.41,0c1.44,0,.79-1.25,1.16-1.89,1.24.26,1,1.2,1,2.08A1.65,1.65,0,0,1,30.29,77.26Z"/><path class="cls-21" d="M63.07,60.18a8.48,8.48,0,0,0-.47,3.12,4.39,4.39,0,0,1-.46,2.39c-.34-1.55-.65-3.1-1-4.65-.11-.48-.22-1.13-.92-1s-.49.72-.51,1.18,0,.64,0,.95c-.27-.3-.2-.7-.3-1,.1-.54-.1-1.2.71-1.43A2.73,2.73,0,0,1,63.07,60.18Z"/><path class="cls-17" d="M58.54,61.61c-.11.7-.2,1.4-.33,2.09-.28,1.54-.79,1.73-2.12.82a4.25,4.25,0,0,0,.11-1.74,1.57,1.57,0,0,1,.64-1.64Z"/><path class="cls-86" d="M56.84,61.14a11.16,11.16,0,0,0-.25,2.37,1,1,0,0,1-.5,1,.76.76,0,0,1-.48-.48,4.39,4.39,0,0,0-.39-1.46,1.42,1.42,0,0,1,.18-1.44C55.88,60.78,56.36,61,56.84,61.14Z"/><path class="cls-87" d="M55.4,61.14c0,1,.9,1.88.21,2.9a4.22,4.22,0,0,1-1.12-2.33Z"/><path class="cls-21" d="M66.92,60.18c-.5-.73-.09-1.83-1-2.42a2,2,0,0,1,1.42-.19A3.9,3.9,0,0,1,66.92,60.18Z"/><path class="cls-65" d="M50.59,63c1,.49.77,1.61,1.15,2.41,0,.07-.13.29-.25.35s-.46,0-.61-.22a5.38,5.38,0,0,1-1.22-2.25A1.7,1.7,0,0,1,50.59,63Z"/><path class="cls-65" d="M79.36,55.63c0,.11,0,.23.09.34a.84.84,0,0,1-.1,1,.51.51,0,0,1-.41.12c-.4-.2-.26-.6-.27-.94a2.38,2.38,0,0,1,0-.46Z"/><path class="cls-88" d="M82.79,38.3c-.19-.65.35-1.53-.21-1.91s-1.13.37-1.76.47a19.37,19.37,0,0,1-3.32,0c0-.08,0-.16-.07-.24a29.66,29.66,0,0,0-.34-7.35A3.8,3.8,0,0,1,77,28a2,2,0,0,1,1.32-1.7,1.9,1.9,0,0,1,2,.5A5.94,5.94,0,0,1,81.77,29c0,.45-.28.7-.52,1-.58.72-.45,1.12.4,1.51.43.19.93.22,1.26.61.37,1.2,1,2.4.07,3.62A7.53,7.53,0,0,1,82.79,38.3Z"/><path class="cls-89" d="M82.58,32.06c-.35,0-.71,0-1.07-.07a1.3,1.3,0,0,1-.62-2.41c.29-.22.59-.41.88-.62a9.74,9.74,0,0,1,2.65-.67,2.08,2.08,0,0,1,1,2.64C84.61,32.22,84,32.45,82.58,32.06Z"/><path class="cls-90" d="M82.58,32.06a6.24,6.24,0,0,0,2.81-1.13c0,2-.56,3.71-2.41,4.78A22.4,22.4,0,0,0,82.58,32.06Z"/><path class="cls-91" d="M80.56,42.22A6.22,6.22,0,0,1,79.71,45a1.38,1.38,0,0,1-1.74.68,1.39,1.39,0,0,1-1-1.59,6.08,6.08,0,0,1,1.19-2.95,1.26,1.26,0,0,1,1.57-.54A1.39,1.39,0,0,1,80.56,42.22Z"/><path class="cls-92" d="M114,86.62V42.24a17.06,17.06,0,0,0-8.53-14.77L67,5.29A17,17,0,0,0,50,5.29L11.53,27.47A17.06,17.06,0,0,0,3,42.24V86.62a17.06,17.06,0,0,0,8.53,14.77L50,123.58a17.1,17.1,0,0,0,17.06,0l38.42-22.19A17.06,17.06,0,0,0,114,86.62Z"/></g></g></svg>