<svg xmlns="http://www.w3.org/2000/svg" viewBox="0 0 116.97 128.86"><defs><style>.cls-1,.cls-176{fill:none;}.cls-2{fill:#00a672;}.cls-3{fill:#09463f;}.cls-4{fill:#052927;}.cls-5{fill:#016b45;}.cls-6{fill:#01a672;}.cls-7{fill:#052926;}.cls-8{fill:#02cba3;}.cls-9{fill:#03cba3;}.cls-10{fill:#01c195;}.cls-11{fill:#01c296;}.cls-12{fill:#01c297;}.cls-13{fill:#036843;}.cls-14{fill:#033026;}.cls-15{fill:#08453d;}.cls-16{fill:#058257;}.cls-17{fill:#008667;}.cls-18{fill:#016843;}.cls-19{fill:#69fba9;}.cls-20{fill:#07895f;}.cls-21{fill:#01a66a;}.cls-22{fill:#026844;}.cls-23{fill:#044d34;}.cls-24{fill:#06835a;}.cls-25{fill:#ae240c;}.cls-26{fill:#af220d;}.cls-27{fill:#c9518f;}.cls-28{fill:#078f67;}.cls-29{fill:#058258;}.cls-30{fill:#044e35;}.cls-31{fill:#14de8f;}.cls-32{fill:#67fda8;}.cls-33{fill:#68fca9;}.cls-34{fill:#03c295;}.cls-35{fill:#028566;}.cls-36{fill:#044e34;}.cls-37{fill:#6afbaa;}.cls-38{fill:#044d35;}.cls-39{fill:#049166;}.cls-40{fill:#f872b9;}.cls-41{fill:#c2528d;}.cls-42{fill:#bce0e9;}.cls-43{fill:#ae211b;}.cls-44{fill:#f873bc;}.cls-45{fill:#c95491;}.cls-46{fill:#bde3e7;}.cls-47{fill:#f9faf9;}.cls-48{fill:#e578b6;}.cls-49{fill:#00a66a;}.cls-50{fill:#03a66a;}.cls-51{fill:#02c296;}.cls-52{fill:#02c295;}.cls-53{fill:#046844;}.cls-54{fill:#66fcaa;}.cls-55{fill:#65fcaa;}.cls-56{fill:#63f9ad;}.cls-57{fill:#5afaae;}.cls-58{fill:#58f7b0;}.cls-59{fill:#058158;}.cls-60{fill:#67fea7;}.cls-61{fill:#741503;}.cls-62{fill:#028667;}.cls-63{fill:#028767;}.cls-64{fill:#b0260b;}.cls-65{fill:#b0260c;}.cls-66{fill:#018667;}.cls-67{fill:#751503;}.cls-68{fill:#fa72bb;}.cls-69{fill:#751303;}.cls-70{fill:#038464;}.cls-71{fill:#028565;}.cls-72{fill:#038564;}.cls-73{fill:#038465;}.cls-74{fill:#711606;}.cls-75{fill:#028464;}.cls-76{fill:#67fca8;}.cls-77{fill:#f03a15;}.cls-78{fill:#ad270e;}.cls-79{fill:#b1230c;}.cls-80{fill:#af240c;}.cls-81{fill:#038665;}.cls-82{fill:#f03b15;}.cls-83{fill:#b0250e;}.cls-84{fill:#038463;}.cls-85{fill:#fafbfb;}.cls-86{fill:#f672b7;}.cls-87{fill:#f972b9;}.cls-88{fill:#d13818;}.cls-89{fill:#f773ba;}.cls-90{fill:#d23a18;}.cls-91{fill:#d1391a;}.cls-92{fill:#f674ba;}.cls-93{fill:#f9fafa;}.cls-94{fill:#fafafa;}.cls-95{fill:#f9f9fa;}.cls-96{fill:#f8f9fa;}.cls-97{fill:#f8f9fb;}.cls-98{fill:#b9dee9;}.cls-99{fill:#c65390;}.cls-100{fill:#f972bb;}.cls-101{fill:#ea7ab8;}.cls-102{fill:#c8528f;}.cls-103{fill:#b7dce6;}.cls-104{fill:#c95290;}.cls-105{fill:#c4518d;}.cls-106{fill:#b9e1e9;}.cls-107{fill:#b6dfe7;}.cls-108{fill:#b3dee4;}.cls-109{fill:#b8dfe9;}.cls-110{fill:#b1dce2;}.cls-111{fill:#b7e0e8;}.cls-112{fill:#038863;}.cls-113{fill:#038563;}.cls-114{fill:#038662;}.cls-115{fill:#048462;}.cls-116{fill:#46ba80;}.cls-117{fill:#37c583;}.cls-118{fill:#ad230c;}.cls-119{fill:#751403;}.cls-120{fill:#06895f;}.cls-121{fill:#04855a;}.cls-122{fill:#fbfbfc;}.cls-123{fill:#fafafc;}.cls-124{fill:#b4d3e0;}.cls-125{fill:#f9f8fa;}.cls-126{fill:#c5508c;}.cls-127{fill:#b9dee8;}.cls-128{fill:#f774bc;}.cls-129{fill:#962115;}.cls-130{fill:#030202;}.cls-131{fill:#1e1e1e;}.cls-132{fill:#c95390;}.cls-133{fill:#fbfbfb;}.cls-134{fill:#b4dde7;}.cls-135{fill:#f9f9fb;}.cls-136{fill:#c7518e;}.cls-137{fill:#bce0ea;}.cls-138{fill:#b75882;}.cls-139{fill:#050304;}.cls-140{fill:#c3518d;}.cls-141{fill:#f875bc;}.cls-142{fill:#030404;}.cls-143{fill:#b5e1e8;}.cls-144{fill:#9e1b11;}.cls-145{fill:#b7dfe8;}.cls-146{fill:#9f2516;}.cls-147{fill:#64fba9;}.cls-148{fill:#f9fcfb;}.cls-149{fill:#fde311;}.cls-150{fill:#e0a802;}.cls-151{fill:#f9cb2f;}.cls-152{fill:#f9ca30;}.cls-153{fill:#f63b15;}.cls-154{fill:#ef3c18;}.cls-155{fill:#f13b1a;}.cls-156{fill:#b9e3eb;}.cls-157{fill:#f9fcfc;}.cls-158{fill:#fafafb;}.cls-159{fill:#b5dde9;}.cls-160{fill:#fbb4de;}.cls-161{fill:#b9dee5;}.cls-162{fill:#c9518e;}.cls-163{fill:#c7538e;}.cls-164{fill:#d25a98;}.cls-165{fill:#a62818;}.cls-166{fill:#c85191;}.cls-167{fill:#fa74bd;}.cls-168{fill:#9b2e33;}.cls-169{fill:#fcfdf9;}.cls-170{fill:#faf4b0;}.cls-171{fill:#4e0708;}.cls-172{fill:#9b2d32;}.cls-173{fill:#f8f2a6;}.cls-174{fill:#a9281b;}.cls-175{fill:#ac1d0e;}.cls-176{stroke:#052927;stroke-miterlimit:10;stroke-width:6px;}</style></defs><g id="Calque_2" data-name="Calque 2"><g id="Calque_8" data-name="Calque 8"><path class="cls-1" d="M55.15,91.68a.33.33,0,0,1,0,.06h.06A.33.33,0,0,0,55.15,91.68Z"/><polygon class="cls-1" points="84.57 25.98 84.56 25.98 84.56 25.99 84.57 25.98"/><path class="cls-1" d="M105.06,72.19h0Z"/><path class="cls-1" d="M50.69,93.57h0v0Z"/><path class="cls-1" d="M55.32,85.47h0a.15.15,0,0,1,0,.14h0a.22.22,0,0,1,0-.14Z"/><path class="cls-1" d="M68.41,60.93s0,0,0,0h0l-.08.06.09.06A.17.17,0,0,0,68.41,60.93Z"/><path class="cls-1" d="M64.28,64.12a.81.81,0,0,0-.09.1l.08.1a1.34,1.34,0,0,1,0-.2Z"/><path class="cls-2" d="M110.19,43.55c.29.42.55.85.83,1.27h0c.48.74,1,1.49,1.42,2.23h0c.57.82,1.07,1.67,1.55,2.53V46.46c-.26-.4-.52-.81-.76-1.22s-.55-.47-.21-1c.32.44.65.87,1,1.3V42.25a16.57,16.57,0,0,0-.11-1.86L113.6,40q-2.52-3.21-5-6.48c-.13-.17-.83-.51-.09-.87h0a6.65,6.65,0,0,1-1.64-2.64h0c0,.13,0,.34-.06.38-.22.12-.26-.12-.34-.24a25.13,25.13,0,0,1-1.75-3.12l-6.81-3.93A31.54,31.54,0,0,0,102.1,32C104.62,36,107.5,39.71,110.19,43.55Z"/><path class="cls-2" d="M106.75,72.27c-.94.5-.72,1.47-.78,2.23a14.94,14.94,0,0,1-.69,3.13,45.57,45.57,0,0,1-2.83,7.18,25.28,25.28,0,0,0,7.22-1.1A28.74,28.74,0,0,0,114,82.29V74.22l-.2.06a17.72,17.72,0,0,1-4.3.47c-.25,0-.58.26-.66-.15s.32-.26.51-.36c1.52-.78,3.2-1.3,4.65-2.18V68.75a4.12,4.12,0,0,1-1,.78A23,23,0,0,1,106.75,72.27Z"/><path class="cls-3" d="M88.84,93.94a42.9,42.9,0,0,0-4.45,2.46,39.29,39.29,0,0,1,2,5.69h0c.79,3,1.45,6,2.25,9l5-2.86c-1.43-3.43-2.41-7-3.55-10.56C89.68,96.42,89.26,95.18,88.84,93.94Z"/><path class="cls-4" d="M106.34,91a17.09,17.09,0,0,1-7.53,0h0a11.66,11.66,0,0,1-4.68-1l-4.67,3.54-.62.53h0c.42,1.24.84,2.48,1.24,3.73,1.14,3.53,2.12,7.13,3.55,10.56l3.71-2.14c-.71-2.54-1.06-5.15-1.52-7.74-.22-1.27.76-2.11,1.62-2.86a12.1,12.1,0,0,1,9.3-2.75c1.07.08.71.86.8,1.43a15.91,15.91,0,0,0,4.62.14,16.92,16.92,0,0,0,1.6-4.94A53.51,53.51,0,0,1,106.34,91Z"/><path class="cls-5" d="M107.54,94.17c-.09-.57.27-1.35-.8-1.43a12.1,12.1,0,0,0-9.3,2.75c-.86.75-1.84,1.59-1.62,2.86.46,2.59.81,5.2,1.52,7.74l2.23-1.29a25.46,25.46,0,0,1-.15-3.81,9.13,9.13,0,0,1,.8-2.61,27.92,27.92,0,0,0,2.44,4.64l2.8-1.62a16.22,16.22,0,0,0,2.44-1.72C107.85,97.84,107.66,96,107.54,94.17Z"/><path class="cls-2" d="M34,105.13c0-.16-.07-.32-.1-.49A1.38,1.38,0,0,0,34,105.13Z"/><path class="cls-2" d="M46.59,112.87a18.86,18.86,0,0,1-1-6.94c0-.43,0-.83.61-.81-.33-.38-.89,0-1.23-.38h0A46.94,46.94,0,0,1,34.53,99.9a3,3,0,0,0-.65-.23h0c0,.13,0,.26,0,.38h0a30.83,30.83,0,0,1,.18,5.08A45.91,45.91,0,0,0,35.85,112c.1.32.17.65.26,1h0a26.06,26.06,0,0,1,.93,3.1l2.75,1.59c-.18-.87-.41-1.74-.64-2.62a36.23,36.23,0,0,1-1.43-6.83c0-.44-.31-.83-.1-1.48.48.77.94,1.4,1.29,2.09,1.25,2.48,2.51,5,3.68,7.49a32.57,32.57,0,0,1,1.65,3.92l4.89,2.83a20.19,20.19,0,0,0-.5-3.36C48.06,117.42,47.37,115.12,46.59,112.87Z"/><path class="cls-4" d="M36.11,113h0c-.09-.32-.16-.65-.26-1A45.91,45.91,0,0,1,34,105.13a1.38,1.38,0,0,1-.1-.49,29.3,29.3,0,0,1-.08-4.59h0c0-.12,0-.25,0-.38h0c0-1.29.11-2.58.16-3.87l-.39-.22h0c-.35,0-.53.27-.79.42h0l-1.5,2.19h0c-1.63,4-2.09,8.2-2.59,12.41l-.09.69,6.85,3.95c.06-.19.11-.39.16-.59C35.83,114.1,36.19,113.61,36.11,113Z"/><path class="cls-3" d="M67.74,111a4.88,4.88,0,0,0-.84-3.15,1.64,1.64,0,0,0-1.44-.74,75.29,75.29,0,0,1-8.09-.2,14.64,14.64,0,0,1-1.58-.3c-1-.2-1.12-.08-.87.86.73,2.84,1.8,5.57,2.64,8.36a92.06,92.06,0,0,1,2.82,9.89A17,17,0,0,0,67,123.59l.71-.42C67.75,119.13,67.76,115.09,67.74,111Z"/><path class="cls-6" d="M80.18,104.85a15.12,15.12,0,0,1-3.49.87l-.42.2c.34.06.38.31.42.6.4,2.9.69,5.82,1.26,8.68a15.53,15.53,0,0,0,.48,1.81l3.87-2.24c-.37-1.15-.71-2.31-1-3.47-.42-1.53-.07-3.28-.07-5.11a6.59,6.59,0,0,1,1.56,2.57c.61,1.57,1.29,3.09,2,4.58l3.88-2.25c-.8-3-1.46-6-2.25-9C84.34,103,82.23,103.88,80.18,104.85Z"/><path class="cls-7" d="M57.56,115.87c-.84-2.79-1.91-5.52-2.64-8.36-.25-.94-.1-1.06.87-.86a14.64,14.64,0,0,0,1.58.3,75.29,75.29,0,0,0,8.09.2,1.64,1.64,0,0,1,1.44.74,4.88,4.88,0,0,1,.84,3.15c0,4,0,8.09,0,12.13l4.85-2.8a37.19,37.19,0,0,1-2-7.7c-.29-1.83-.55-3.66-.82-5.49a36,36,0,0,0-1.26-5.53,14.54,14.54,0,0,1-3.37,3.08,2.73,2.73,0,0,1-1.32.41h0a8.51,8.51,0,0,1-8.31,0c-1.09-.06-1.82-.91-2.78-1.23h0a22,22,0,0,0,.14,3.25h0c1,4.39,2.51,8.67,2.79,13.22.1,1.76.11,3.51.09,5.26a16.81,16.81,0,0,0,4.59.12A92.06,92.06,0,0,0,57.56,115.87Z"/><path class="cls-8" d="M50.65,106.49l.07.09-.06-.1Z"/><path class="cls-8" d="M55.7,120.38c-.28-4.55-1.78-8.83-2.79-13.22a16.83,16.83,0,0,0-2.19-.58,2.56,2.56,0,0,1-3.28-1h0a2.51,2.51,0,0,0-1.21-.42h0c-.59,0-.59.38-.61.81a18.86,18.86,0,0,0,1,6.94c.78,2.25,1.47,4.55,2,6.87a20.19,20.19,0,0,1,.5,3.36l.85.49a17,17,0,0,0,5.81,2C55.81,123.89,55.8,122.14,55.7,120.38Zm-2.32,1a2.34,2.34,0,0,1-3.5-1.61,24.06,24.06,0,0,1-.4-2.7,9.52,9.52,0,0,0-.29-2.29,2.11,2.11,0,0,1,1.13-2.28,2,2,0,0,1,2.58,1A17.34,17.34,0,0,1,54.36,119,2.43,2.43,0,0,1,53.38,121.34Z"/><path class="cls-8" d="M99.39,89.88a.46.46,0,0,1,.07.07l-.06-.07h0Z"/><path class="cls-8" d="M102.45,84.81l-.16,0h0a2,2,0,0,0,.22,2.27c.55.78-.36,2.26-1.46,2.58a13.85,13.85,0,0,1-1.59.25h0a1.24,1.24,0,0,0-.65,1h0a54.07,54.07,0,0,0,7.53,0h0a53.51,53.51,0,0,0,7.42-1.58,17.19,17.19,0,0,0,.21-2,11.25,11.25,0,0,1-3.35,1.16c-1.52,0-2.44-.53-2.66-1.33a2,2,0,0,1,1.26-2.45,21.4,21.4,0,0,1,4.47-1.82c.1,0,.2,0,.3-.06v-.54a28.74,28.74,0,0,1-4.32,1.42A25.28,25.28,0,0,1,102.45,84.81Z"/><path class="cls-9" d="M106.84,30.43c.07,0,0-.25.06-.38h0a2.1,2.1,0,0,1,0-1.65c-.46-.32-.92-.64-1.42-.92l-.71-.41a25.13,25.13,0,0,0,1.75,3.12C106.58,30.31,106.62,30.55,106.84,30.43Z"/><path class="cls-9" d="M76.69,106.52c0-.29-.08-.54-.42-.6h0c-.89.06-1.7.63-2.64.4h0l-.18,0a12.33,12.33,0,0,1-3.64.82c.27,1.83.53,3.66.82,5.49a37.19,37.19,0,0,0,2,7.7l1.89-1.09A2.18,2.18,0,0,1,73,117.79a12.69,12.69,0,0,1-.8-4.6c0-.31,0-.68,0-1a2.23,2.23,0,0,1,2-2.16,2.13,2.13,0,0,1,2.39,2,22.36,22.36,0,0,0,.64,4.88,2.12,2.12,0,0,1,0,.75l1.13-.65A15.53,15.53,0,0,1,78,115.2C77.38,112.34,77.09,109.42,76.69,106.52Z"/><path class="cls-10" d="M113.23,45.24c.24.41.5.82.76,1.22v-.89c-.32-.43-.65-.86-1-1.3C112.68,44.77,113.08,45,113.23,45.24Z"/><path class="cls-10" d="M108.83,74.6c.08.41.41.16.66.15a17.72,17.72,0,0,0,4.3-.47l.2-.06V72.06c-1.45.88-3.13,1.4-4.65,2.18C109.15,74.34,108.77,74.28,108.83,74.6Z"/><path class="cls-11" d="M81.19,106.19c0,1.83-.35,3.58.07,5.11.33,1.16.67,2.32,1,3.47l2.49-1.43c-.75-1.49-1.43-3-2-4.58A6.59,6.59,0,0,0,81.19,106.19Z"/><path class="cls-12" d="M38.91,108.86c-.35-.69-.81-1.32-1.29-2.09-.21.65.07,1,.1,1.48a36.23,36.23,0,0,0,1.43,6.83c.23.88.46,1.75.64,2.62l4.45,2.57a32.57,32.57,0,0,0-1.65-3.92C41.42,113.83,40.16,111.34,38.91,108.86Z"/><path class="cls-3" d="M36.11,113c.08.6-.28,1.09-.42,1.64,0,.2-.1.4-.16.59l1.51.87a26.06,26.06,0,0,0-.93-3.1Z"/><path class="cls-9" d="M108.54,32.69h0c-.74.36,0,.7.09.87q2.45,3.27,5,6.48l.28.35a17,17,0,0,0-3.16-8.17C110.43,33.44,109.85,33.53,108.54,32.69Z"/><path class="cls-4" d="M96.79,26.18a5.15,5.15,0,0,1-.73,2.6.92.92,0,0,1-1.51.32,41.66,41.66,0,0,1-7.13-5.47c-.13-.14-.23-.35-.53-.3-.23.93.15,1.93-.25,2.85h0a6.76,6.76,0,0,1-.17.78c-.53,1.46-.68,2.83.75,3.9,2,1.77,4.35,3,6.23,4.82l1.3,1.26c.68.16,1,.78,1.43,1.21h0c2.71,1.19,5.46,2.29,8.17,3.45a28.66,28.66,0,0,1,5.74,3c.23.17.49.69.93.25h0c-.28-.42-.54-.85-.83-1.27C107.5,39.71,104.62,36,102.1,32a31.54,31.54,0,0,1-4.16-8.9l-1.3-.75A25.19,25.19,0,0,1,96.79,26.18Z"/><path class="cls-5" d="M108.26,53a10.62,10.62,0,0,1-3.15.82h0c.27,1.34.5,2.69.8,4a33.25,33.25,0,0,1,.39,7.52c1.74.57,3.37,0,5-.52a10.49,10.49,0,0,0,2.7-1.4V52.56a5.21,5.21,0,0,0-3.61-1.42C109.59,51.63,109.08,52.45,108.26,53Z"/><path class="cls-3" d="M100.43,43.52a34.8,34.8,0,0,1,4.29,9.33,8.18,8.18,0,0,0,.39.92h0a10.62,10.62,0,0,0,3.15-.82c.82-.5,1.33-1.32,2.12-1.81l2.06-4.09h0c-.47-.74-.94-1.49-1.42-2.23h0c-.44.44-.7-.08-.93-.25a28.66,28.66,0,0,0-5.74-3c-2.71-1.16-5.46-2.26-8.17-3.45h0A48,48,0,0,1,100.43,43.52Z"/><path class="cls-7" d="M106.3,65.31a.41.41,0,0,1-.16,0h0c-.22,1.61-.43,3.23-.65,4.84.85.51,1.73.1,2.52-.07a16.71,16.71,0,0,0,5.91-2.51l.07,0V63.39a10.49,10.49,0,0,1-2.7,1.4C109.67,65.32,108,65.88,106.3,65.31Z"/><path class="cls-13" d="M102.17,79.72c-.9,1.63-1.92,3.18-3,4.71a12.77,12.77,0,0,0,3.08.42h0l.16,0a45.57,45.57,0,0,0,2.83-7.18A14.94,14.94,0,0,0,106,74.5c.06-.76-.16-1.73.78-2.23a1.34,1.34,0,0,0-.9.28.49.49,0,0,1-.79-.36h0A46.37,46.37,0,0,1,102.17,79.72Z"/><path class="cls-14" d="M112.44,47.05l-2.06,4.09A5.21,5.21,0,0,1,114,52.56v-3c-.48-.86-1-1.71-1.55-2.53Z"/><path class="cls-15" d="M108,70.11c-.79.17-1.67.58-2.52.07h0a8.51,8.51,0,0,0-.44,2h0a.49.49,0,0,0,.79.36,1.34,1.34,0,0,1,.9-.28A23,23,0,0,0,113,69.53a4.12,4.12,0,0,0,1-.78V67.56l-.07,0A16.71,16.71,0,0,1,108,70.11Z"/><path class="cls-16" d="M106.9,30.05h0a6.65,6.65,0,0,0,1.64,2.64h0c1.31.84,1.89.75,2.18-.47a17,17,0,0,0-3.84-3.82A2.1,2.1,0,0,0,106.9,30.05Z"/><path class="cls-17" d="M73.45,106.36c-2-.08-2.51-.54-2.89-2.6a7.63,7.63,0,0,0-.65-1.9c-.26-.55-.19-1,.55-1.07a18.38,18.38,0,0,0,2.65-.57c.81-.26,1.1.06,1.29.76s.49,1.2.61,1.82a3.27,3.27,0,0,1-1.38,3.52c.94.23,1.75-.34,2.64-.4h0l.42-.2a41.43,41.43,0,0,0-1.08-5.32c-.14-.45-.18-.8.38-.94a44.76,44.76,0,0,0,8-3,2.79,2.79,0,0,1,.39-.1,42.9,42.9,0,0,1,4.45-2.46h0l.62-.53c-.21-.38.18-.44.33-.59a55.82,55.82,0,0,0,15.36-25.16c.32-1.09.53-2.22.92-3.32,0,.33.05.66.07,1h0a.41.41,0,0,0,.16,0,33.25,33.25,0,0,0-.39-7.52c-.3-1.33-.53-2.68-.8-4h0a8.18,8.18,0,0,1-.39-.92,34.8,34.8,0,0,0-4.29-9.33,48,48,0,0,0-4.25-5.37h0c-.45-.43-.75-1-1.43-1.21a45.24,45.24,0,0,1,5.86,8,28.72,28.72,0,0,1,3.49,11.22C105,66.38,101,74.66,93.68,81.56a42.36,42.36,0,0,1-15.57,9.21,44.08,44.08,0,0,1-7.92,2h0a20.63,20.63,0,0,1-1.64,8.84h0a36,36,0,0,1,1.26,5.53A12.33,12.33,0,0,0,73.45,106.36Z"/><path class="cls-18" d="M84,96.5a44.76,44.76,0,0,1-8,3c-.56.14-.52.49-.38.94a41.43,41.43,0,0,1,1.08,5.32,15.12,15.12,0,0,0,3.49-.87c2-1,4.16-1.85,6.24-2.76h0a39.29,39.29,0,0,0-2-5.69A2.79,2.79,0,0,0,84,96.5Z"/><path class="cls-3" d="M107.54,94.17c.12,1.84.31,3.67.36,5.51a16.91,16.91,0,0,0,4.26-5.37A15.91,15.91,0,0,1,107.54,94.17Z"/><path class="cls-19" d="M106.07,64.34c-.39,1.1-.6,2.23-.92,3.32A55.82,55.82,0,0,1,89.79,92.82c-.15.15-.54.21-.33.59l4.67-3.54,1-1h0l3.26-3.46.8-1h0c1-1.53,2.06-3.08,3-4.71a46.37,46.37,0,0,0,2.88-7.53h0a8.51,8.51,0,0,1,.44-2h0c.22-1.61.43-3.23.65-4.84h0C106.12,65,106.1,64.67,106.07,64.34Z"/><path class="cls-20" d="M99.46,90a.46.46,0,0,0-.07-.07,8.56,8.56,0,0,1-3.48-.43c-.29-.09-.71-.08-.76-.54h0l-1,1a11.66,11.66,0,0,0,4.68,1h0a1.24,1.24,0,0,1,.65-1Z"/><path class="cls-20" d="M106.34,91h0a54.07,54.07,0,0,1-7.53,0A17.09,17.09,0,0,0,106.34,91Z"/><path class="cls-21" d="M99.42,101a25.46,25.46,0,0,0,.15,3.81l3.09-1.78a27.92,27.92,0,0,1-2.44-4.64A9.13,9.13,0,0,0,99.42,101Z"/><path class="cls-17" d="M47.5,105.47a23.35,23.35,0,0,1,0-3.74c.06-.88.43-1.28,1.39-1a2.08,2.08,0,0,0,1.57.14c0-.8-.59-1.43-.6-2.22-.31-.37,0-.9-.35-1.26-.17-2.42,0-4.83-.06-7.25h0A3.82,3.82,0,0,0,49.17,92c0,.89-.38.79-.91.68a58.94,58.94,0,0,1-7-1.93,44.74,44.74,0,0,1-11.59-5.94c-7.54-5.51-12.81-12.58-14.2-22-1.17-8,1-15.11,5.67-21.58a17.79,17.79,0,0,0,2-2.69,15.48,15.48,0,0,0-3.5,4.11A33.42,33.42,0,0,0,14.33,54a32.29,32.29,0,0,0-1,5.24h0A21.92,21.92,0,0,0,13.18,64h0c.64.47.45,1.23.59,1.85a52.6,52.6,0,0,0,8.14,18,50.07,50.07,0,0,0,7.42,8.82c.15.13.55.23.27.59h0c1.19,1.06,2.74,1.53,4,2.39h0l.39.22a49.84,49.84,0,0,0,6.73,2.87,33.48,33.48,0,0,0,4.71,1.39c.71.13.87.58.7,1.18a8.18,8.18,0,0,0-.36,2.78c0,.63-.32.74-.82.72h0c.34.37.9,0,1.23.38h0a2.51,2.51,0,0,1,1.21.42h0Z"/><path class="cls-22" d="M45.82,104a8.18,8.18,0,0,1,.36-2.78c.17-.6,0-1-.7-1.18a33.48,33.48,0,0,1-4.71-1.39A49.84,49.84,0,0,1,34,95.8c0,1.29-.11,2.58-.16,3.87h0a3,3,0,0,1,.65.23A46.94,46.94,0,0,0,45,104.74h0C45.5,104.76,45.87,104.65,45.82,104Z"/><path class="cls-22" d="M33.94,104.64c0,.17.06.33.1.49a30.83,30.83,0,0,0-.18-5.08h0A29.3,29.3,0,0,0,33.94,104.64Z"/><path class="cls-8" d="M31.36,98.19h0c-.32-.5-.7-.77-1.19-.21a1.46,1.46,0,0,1-1.87.51,1.84,1.84,0,0,1-1-1.94,4.15,4.15,0,0,1,.26-1.17l0-.19h0A24.81,24.81,0,0,1,25.32,93a19.18,19.18,0,0,0-1.87,6c-.17,1.41-.67,2.78-.87,4.22a27.54,27.54,0,0,1-.86,4.11l1.91,1.1a2.1,2.1,0,0,1,1.81-1.58,2.14,2.14,0,0,1,2.22,2,11.77,11.77,0,0,1,.12,1.21c-.05.22-.09.45-.12.67l1,.59.09-.69C29.27,106.39,29.73,102.17,31.36,98.19Z"/><path class="cls-23" d="M29.6,93.19h0l-.24-.11h0a8.14,8.14,0,0,0-1.81,2.11h0l0,.19,2.23,1.72A.94.94,0,0,0,31.14,97c.51-.41,1-1,1.72-1h0c.26-.15.44-.43.79-.42h0C32.34,94.72,30.79,94.25,29.6,93.19Z"/><path class="cls-24" d="M31.14,97a.94.94,0,0,1-1.33.07l-2.23-1.72a4.15,4.15,0,0,0-.26,1.17,1.84,1.84,0,0,0,1,1.94A1.46,1.46,0,0,0,30.17,98c.49-.56.87-.29,1.19.21h0L32.86,96h0C32.11,96,31.65,96.62,31.14,97Z"/><path class="cls-25" d="M70.19,92.81h0a9.08,9.08,0,0,0-.39-3.11h0l-.48,0-.4.42,0,1.83c.08,3.17.21,6.33-1.56,9.19a7.78,7.78,0,0,1-1.63,2c-.33,1-1.36,1.25-1.9,2h0a2.73,2.73,0,0,0,1.32-.41,14.54,14.54,0,0,0,3.37-3.08h0A20.63,20.63,0,0,0,70.19,92.81Z"/><path class="cls-26" d="M50.68,93.58h0Z"/><path class="cls-26" d="M53.55,103.09h0a11.46,11.46,0,0,1-3.08-9.31,5.36,5.36,0,0,1,.22-3.49l-.59-.6c-.2,0-.4-.14-.59,0h0c0,.14,0,.29-.07.44h0c0,2.42-.11,4.83.06,7.25.34.36,0,.89.35,1.26,0,.79.62,1.42.6,2.22h0l1.26,1.84h0a3.67,3.67,0,0,1,1.06,1.19h0c1,.32,1.69,1.17,2.78,1.23C55,104.39,53.93,104.06,53.55,103.09Z"/><path class="cls-27" d="M65.76,103.14a1.53,1.53,0,0,0-1.13.32,7.17,7.17,0,0,1-2.74.88h0a6.73,6.73,0,0,1-4.3,0,.44.44,0,0,0-.16-.06c-1.1.06-2-.6-2.92-1a2.33,2.33,0,0,0-1-.23c.38,1,1.4,1.3,2,2a8.51,8.51,0,0,0,8.31,0h0C64.4,104.39,65.43,104.09,65.76,103.14Z"/><path class="cls-28" d="M51.71,102.72a3.26,3.26,0,0,0,0,1.39,2.91,2.91,0,0,1-1.06,2.37l.06.1a16.83,16.83,0,0,1,2.19.58h0a22,22,0,0,1-.14-3.25h0A3.67,3.67,0,0,0,51.71,102.72Z"/><path class="cls-29" d="M50.32,112.46a2.11,2.11,0,0,0-1.13,2.28,9.52,9.52,0,0,1,.29,2.29,24.06,24.06,0,0,0,.4,2.7,2.34,2.34,0,0,0,3.5,1.61,2.43,2.43,0,0,0,1-2.33,17.34,17.34,0,0,0-1.46-5.53A2,2,0,0,0,50.32,112.46Z"/><path class="cls-28" d="M47.5,105.47h0l-.06.07h0a2.56,2.56,0,0,0,3.28,1l-.07-.09C49.46,106.59,48.53,105.89,47.5,105.47Z"/><path class="cls-16" d="M109.22,84.71A2,2,0,0,0,108,87.16c.22.8,1.14,1.34,2.66,1.33A11.25,11.25,0,0,0,114,87.33c0-.24,0-.47,0-.7v-3.8c-.1,0-.2,0-.3.06A21.4,21.4,0,0,0,109.22,84.71Z"/><path class="cls-20" d="M99.21,84.43h0l-.8,1a8.15,8.15,0,0,1,2.41.22c.74.2,1.07.6.55,1.31a16.28,16.28,0,0,1-2,2.9l.06.07h0a13.85,13.85,0,0,0,1.59-.25c1.1-.32,2-1.8,1.46-2.58a2,2,0,0,1-.22-2.27h0A12.77,12.77,0,0,1,99.21,84.43Z"/><path class="cls-29" d="M77.26,116.91a22.36,22.36,0,0,1-.64-4.88,2.13,2.13,0,0,0-2.39-2,2.23,2.23,0,0,0-2,2.16c0,.37,0,.74,0,1a12.69,12.69,0,0,0,.8,4.6,2.18,2.18,0,0,0,1.46,1.49l2.81-1.62A2.12,2.12,0,0,0,77.26,116.91Z"/><path class="cls-30" d="M75,102.8c-.12-.62-.44-1.2-.61-1.82s-.48-1-1.29-.76a18.38,18.38,0,0,1-2.65.57c-.74.12-.81.52-.55,1.07a7.63,7.63,0,0,1,.65,1.9c.38,2.06.88,2.52,2.89,2.6l.18,0h0A3.27,3.27,0,0,0,75,102.8Z"/><path class="cls-5" d="M12.57,40.18a52.31,52.31,0,0,0,9.29-9.1A30.09,30.09,0,0,0,27.41,20.3c.21-.76.38-1.52.52-2.27l-5,2.9A22.56,22.56,0,0,1,16.1,31.44c-.17.14-.29.39-.73.27a34,34,0,0,0,2.19-4.51,42.72,42.72,0,0,0,1.58-4.1l-4.59,2.65a43,43,0,0,1-8,7.63c-.54.41-1.09.78-1.65,1.14a17.09,17.09,0,0,0-1.76,6c2.28-1,4.54-2.11,6.81-3.17a6.44,6.44,0,0,1,.69-.22,16.48,16.48,0,0,1-5.2,4.67A27.21,27.21,0,0,1,3,43.21v2.55A9.21,9.21,0,0,0,4.73,45,45.46,45.46,0,0,0,12.57,40.18Z"/><path class="cls-6" d="M16.05,88.57a6.59,6.59,0,0,0,.14-1.71l-.38.43a26.38,26.38,0,0,0-2.29,7.4,53.16,53.16,0,0,0-.12,7.78l1.25.72c0-2.07-.1-4.14-.1-6.21A29.62,29.62,0,0,1,16.05,88.57Z"/><path class="cls-6" d="M8.35,62.58a44.06,44.06,0,0,0,.13-4.74h0a19.79,19.79,0,0,0-1.26-5.46h0a14.52,14.52,0,0,0-3.48-4.64A8.72,8.72,0,0,0,3,47.22v.93A8.05,8.05,0,0,1,4.2,49.42a.84.84,0,0,1,0,1.11c-.3.36-.59.06-.89-.09L3,50.29v2.25l.7.49a5.19,5.19,0,0,1,1.82,3.08,16.91,16.91,0,0,1-.13,8.36A24.27,24.27,0,0,1,3,70.19V74c.28-.45.56-.91.83-1.37A5.81,5.81,0,0,1,3,75.09l0,0V81.5c.65-2.62,1.66-5.12,2.43-7.7A83.23,83.23,0,0,0,8.35,62.58Z"/><path class="cls-6" d="M23.45,98.94a19.18,19.18,0,0,1,1.87-6l-.21-.39h0c-1.65-2.48-3.57-4.77-4.84-7.5-.09-.2-.29-.4-.05-.63h0l-1.53-2.22h0c-.14.85-.94,1.37-1.12,2.19h0c.39,0,.55.22.75.54,1,1.62,1.58,3.43,2.61,5a2,2,0,0,1,.13.89,31.48,31.48,0,0,1-1.31,9.44c-.42,1.69-.9,3.37-1.4,5l3.37,1.94a27.54,27.54,0,0,0,.86-4.11C22.78,101.72,23.28,100.35,23.45,98.94Z"/><path class="cls-31" d="M37.87,15a9.16,9.16,0,0,0-2.27,12.5,1.23,1.23,0,0,1,.09.29h0a55.48,55.48,0,0,1,9.73-4.45,27.85,27.85,0,0,1,3.71-1,1,1,0,0,0,1-1.23C50,15.7,51.21,10.52,52.61,5.37c.08-.29.06-.7.58-.83-.11,1.52-.26,3-.33,4.49a51.53,51.53,0,0,0,.25,11.51c.1.59.34.84.93.76a50.6,50.6,0,0,1,11.6-.4,1.51,1.51,0,0,0,.3,0h0c-.41-6.12-1.42-12.07-4.16-17.55A17,17,0,0,0,50,5.3l-.15.08-.43.4A106.73,106.73,0,0,1,37.87,15Zm.88,2.77a.91.91,0,0,1-.82-1c0-.55,1.07-1.39,1.86-1.36a.78.78,0,0,1,.72.87A2.68,2.68,0,0,1,38.75,17.76ZM41.62,19c-.28.06-.45-.16-.43-.42a.69.69,0,0,1,.64-.67c.26,0,.44.12.47.42A1,1,0,0,1,41.62,19Zm1-3.57c-.37,0-.64-.15-.6-.52a.74.74,0,0,1,.73-.69c.34,0,.62.14.58.51A.78.78,0,0,1,42.62,15.42Zm14-6.21c-.06.24-.15.48-.45.45s-.32-.23-.31-.45a.43.43,0,0,1,.46-.44C56.53,8.78,56.59,9,56.58,9.21Zm-2.24-4c0-.65.25-1.19.91-1.25s.7.42.73.95c-.25.56-.24,1.46-1.06,1.5C54.29,6.4,54.34,5.69,54.34,5.18Z"/><path class="cls-3" d="M14.55,25.75l-3,1.73a17.11,17.11,0,0,0-6.67,7c.56-.36,1.11-.73,1.65-1.14A43,43,0,0,0,14.55,25.75Z"/><path class="cls-3" d="M22.19,36.87a58,58,0,0,1-5.81,7.73,49,49,0,0,1-7.74,7.08,2.37,2.37,0,0,1-1.42.7h0a19.79,19.79,0,0,1,1.26,5.46c.93.35,2,.24,2.81,1h0c.7,0,1.31.52,2,.42h0a32.29,32.29,0,0,1,1-5.24,33.42,33.42,0,0,1,5.24-11.36,15.48,15.48,0,0,1,3.5-4.11,39.67,39.67,0,0,1,7.43-6.31c.61-.4,1.15-.92,1.72-1.38h0c.87-.79.63-1.45-.08-2.24a5.47,5.47,0,0,1-1.2-3c-.37-2.91-.36-5.78,1.29-8.38.26-.41.47-.91,1-1h0c.32-.48.65-.95,1-1.42h0a1.09,1.09,0,0,1-.16-.35l-4.51,2.6a31.5,31.5,0,0,1-1.76,8.13A48.34,48.34,0,0,1,22.19,36.87Z"/><path class="cls-4" d="M7.22,52.38h0a2.37,2.37,0,0,0,1.42-.7,49,49,0,0,0,7.74-7.08,58,58,0,0,0,5.81-7.73A48.34,48.34,0,0,0,27.82,25.2a31.5,31.5,0,0,0,1.76-8.13l-1.65,1c-.14.75-.31,1.51-.52,2.27a30.09,30.09,0,0,1-5.55,10.78,52.31,52.31,0,0,1-9.29,9.1A45.46,45.46,0,0,1,4.73,45,9.21,9.21,0,0,1,3,45.76v1.46a8.72,8.72,0,0,1,.72.52A14.52,14.52,0,0,1,7.22,52.38Z"/><path class="cls-5" d="M85.86,19.7h0c1,2.07.73,4.29.78,6.48h0c.4-.92,0-1.92.25-2.85.3,0,.4.16.53.3a41.66,41.66,0,0,0,7.13,5.47.92.92,0,0,0,1.51-.32,5.15,5.15,0,0,0,.73-2.6,25.19,25.19,0,0,0-.15-3.79l-12.46-7.2c0,.29,0,.58,0,.87A19.24,19.24,0,0,1,85.86,19.7Z"/><path class="cls-9" d="M5.54,56.11A5.19,5.19,0,0,0,3.72,53L3,52.54v1.62a4.87,4.87,0,0,1,1.39,3.38C4.37,58.41,3.84,59,3,59V70.19a24.27,24.27,0,0,0,2.39-5.72A16.91,16.91,0,0,0,5.54,56.11Z"/><path class="cls-32" d="M65.94,20.88l.17.06h0c.54-.11.43-.54.42-.89a70.88,70.88,0,0,0-.69-7.84,35.79,35.79,0,0,0-2-8.14,10.2,10.2,0,0,1,2.14,2,16.71,16.71,0,0,0,6.19,4.09A34.85,34.85,0,0,1,82,16.27a8,8,0,0,1,2.38,5.61,22.44,22.44,0,0,0,.16,4.1h0a10.53,10.53,0,0,0,1.22-5.19c0-.36,0-.73.07-1.09h0a19.24,19.24,0,0,0-1.72-3.64L82.47,14.2,67,5.3a16.88,16.88,0,0,0-5.26-2c2.74,5.48,3.75,11.43,4.16,17.55Z"/><path class="cls-33" d="M34.25,14.82h0c-.33.47-.66.94-1,1.42h0a13.33,13.33,0,0,0,1.36,11.32c.3.49.58.76,1.06.22h0a1.23,1.23,0,0,0-.09-.29A9.16,9.16,0,0,1,37.87,15,106.73,106.73,0,0,0,49.4,5.78l.43-.4L37,12.8A26.72,26.72,0,0,0,34.25,14.82Z"/><path class="cls-21" d="M84.14,16.06c0-.29,0-.58,0-.87l-1.71-1Z"/><path class="cls-4" d="M34.25,14.82a26.72,26.72,0,0,1,2.73-2l-2.89,1.67a1.09,1.09,0,0,0,.16.35Z"/><path class="cls-34" d="M4.24,50.53a.84.84,0,0,0,0-1.11A8.05,8.05,0,0,0,3,48.15v2.14l.33.15C3.65,50.59,3.94,50.89,4.24,50.53Z"/><path class="cls-31" d="M92.91,60.39l-.08.08.07,0s0-.06,0-.1Z"/><path class="cls-31" d="M92.63,44.94v0Z"/><path class="cls-31" d="M68.41,60.93l0-.07h0a0,0,0,0,1,0,0l0,.05h0S68.4,60.92,68.41,60.93Z"/><path class="cls-31" d="M15.44,62.81c1.39,9.44,6.66,16.51,14.2,22a44.74,44.74,0,0,0,11.59,5.94,58.94,58.94,0,0,0,7,1.93c.53.11,1,.21.91-.68a3.82,3.82,0,0,1,.27-1.87h0c0-.15,0-.3.07-.44h0L50,83.25h0c-.06-.55-.63-1.08-.1-1.67a1,1,0,0,1,.47-.74c0-1.5,0-3,0-4.51h0c-1.2-.19-1.56-1.07-.86-2.08a.8.8,0,0,1,.51-.64l-.06-3h0l0-.39h0c-.6-.59-1.14-1.19-.41-2l.15-.33-.09-1.65c.3-.45.14-1,.18-1.43s-.06-.73.18-1.05a1.83,1.83,0,0,1,.28-1c-.18-.42.18-.71.24-1.07h0a1.18,1.18,0,0,1,.49-.61h0c0-.11.05-.21.07-.32-.16-.59.31-1,.47-1.45h0a8.71,8.71,0,0,1,12.74-4.84A7.47,7.47,0,0,1,67.4,58a5,5,0,0,1,1.26,2.86h0c.43.29.25.74.31,1.13h0c.16.12.39.19.31.47h0a14.69,14.69,0,0,1,.46,5.28A2.88,2.88,0,0,1,70.17,69h0c.19.53-.27.8-.47,1.17,0,.34,0,.68,0,1h0c.19.81-.42,1.5-.33,2.3h0c.41.46,1,.83.83,1.59h0c.07.85-.27,1.31-1.18,1.21h0V80.8a.6.6,0,0,1,.37.39h0c.73.73.33,1.43-.06,2.13.12,2.13.57,4.23.48,6.38h0a9.08,9.08,0,0,1,.39,3.11h0a44.08,44.08,0,0,0,7.92-2,42.36,42.36,0,0,0,15.57-9.21C101,74.66,105,66.38,104.1,56.12a28.72,28.72,0,0,0-3.49-11.22,45.24,45.24,0,0,0-5.86-8l-1.3-1.26c-1.88-1.86-4.28-3-6.23-4.82a5.63,5.63,0,0,1-1.84-1A46.63,46.63,0,0,0,69.59,24a54.1,54.1,0,0,0-15.82-.55A51,51,0,0,0,35.56,29a26.08,26.08,0,0,1-3.34,1.89h0c-.57.46-1.11,1-1.72,1.38a39.67,39.67,0,0,0-7.43,6.31,17.79,17.79,0,0,1-2,2.69C16.47,47.7,14.27,54.86,15.44,62.81ZM23.92,42A9,9,0,0,1,32,38.92h0c2.37,0,3.85,1.54,5.31,3.09a7.64,7.64,0,0,1,2,3.92,10.27,10.27,0,0,1,.81,3.5h0c.48.48.29,1.13.4,1.7.16.81.2,1.64.35,2.46a57.54,57.54,0,0,1,.27,7.54,17.52,17.52,0,0,1-.67,4.26,11,11,0,0,1-.77,1.48h0a.17.17,0,0,1,0,.1,7.26,7.26,0,0,1-7.93,3.9c-5.55-1.15-8.91-4.87-11.09-9.78a24,24,0,0,1-2.12-10.54A4.65,4.65,0,0,1,19,48.7a28.94,28.94,0,0,0,.37,5.94,14,14,0,0,0,3.73,7c.16.17.33.37.6.17h0C19.91,57.48,19.3,52.35,19.92,47a5,5,0,0,1,1.92-3.37.81.81,0,0,1,.45-.17A6.53,6.53,0,0,0,23.92,42Zm3.21,40.2a30,30,0,0,1-5.44-6c-.08-.1-.2-.19-.06-.43,1.18,1.07,2,2.43,3.31,3.36l.17-.37a15.2,15.2,0,0,1-3-3.67h0a14.2,14.2,0,0,1-2.33-3.86A4.65,4.65,0,0,1,19,69a3.31,3.31,0,0,1,1.06,1.63,24.31,24.31,0,0,0,6.46,7,5.43,5.43,0,0,0,1.08.74h0c1.33.37,2.55,1,3.93,1.32a21.75,21.75,0,0,0,4.4.33c.84,0,1.69,0,2.53,0h0a18.9,18.9,0,0,0,3.27-1.22c.5-.42.75-.34.76.35a2,2,0,0,1-.28.93c-.6,1.41-1.94,1.88-3.2,2.31a9.09,9.09,0,0,1-4.14.53h0a10.28,10.28,0,0,1-6.93-1.93,1.47,1.47,0,0,0-.37-.13l-.47,0h0c3.31,2.93,10,4,13.71,1.35-.66,1.55-3.1,2.94-5,3.13C32.36,85.61,29.6,84.25,27.13,82.2Zm0-9.94-.42,0h0c3.92,3.49,10.37,4.61,14.73,1.78a6.17,6.17,0,0,1-2.27,2.21,8.72,8.72,0,0,1-8.53,0c-3.34-1.64-5.68-4.4-8-7.22-.17-.21-.59-.46-.2-.84h0l.22,0c-.4-1-1.44-1.7-1.73-2.82h0a7.76,7.76,0,0,1-1.58-2.78,8.22,8.22,0,0,1-1.1-2.69l.21-.12,1.32,2.36A28.18,28.18,0,0,0,24.76,68c.78.66,1.62,1.24,2.42,1.86h0c1.16.47,2.31.93,3.45,1.44a4.13,4.13,0,0,0,1,.22c.37.26.86.15,1.25.35a37.66,37.66,0,0,0,5.81.4h0c1.09-.49,2.31-.58,3.39-1.15.48-.26.54.2.52.55a3,3,0,0,1-2.23,2.55,13.46,13.46,0,0,1-6.29.82.45.45,0,0,1-.4-.26h0c-2.37.08-4.29-1.06-6.16-2.31a2.32,2.32,0,0,0-.36-.16Zm17-6.63A3.47,3.47,0,0,1,42.75,68a.4.4,0,0,1-.55.08.44.44,0,0,1-.11-.54,27.24,27.24,0,0,0,1.08-4.71c.26-1.58.47-3.18.7-4.81a.4.4,0,0,1,.31.45C44.19,60.85,44.22,63.24,44.17,65.63Zm-1.58-5.86c0,.25,0,.64-.33.63S42,60,42,59.75a79.86,79.86,0,0,0-.65-8.47,35.33,35.33,0,0,0-2-7.82A3.39,3.39,0,0,1,39.2,43l.23-.14a13.55,13.55,0,0,1,2.27,4.4A27.83,27.83,0,0,1,42.59,59.77Zm5.34,7c1.09,2,1.33,19.78.27,21.8C47.3,81.23,47.81,74.12,47.93,66.8Zm4.5-11.65a6.92,6.92,0,0,1,1.15-2.55c1.57-2.76,4.34-4.83,7.86-3.9A7.28,7.28,0,0,1,65,51.3a16.45,16.45,0,0,1,2.27,4.13C62.24,51.38,57.48,51.33,52.43,55.15Zm3.4-10.65a5.09,5.09,0,0,1,4.85-1.33c1.06.23,2.22.36,3,1.37a1.58,1.58,0,0,1-.76,2.58,5.74,5.74,0,0,1-2,.17c-1.39-.08-2.74-.13-4.08-.23a1.8,1.8,0,0,1-1.54-1.16C55,45.24,55.46,44.85,55.83,44.5Zm40.09-1.9a2.27,2.27,0,0,0,1.11.82h0c1.65.73,2.17,2.18,2.42,3.81a20.8,20.8,0,0,1,0,6,16.1,16.1,0,0,1-3.06,7.63c-.11.17-.18.35-.29.51A4.46,4.46,0,0,0,98.27,59a16.29,16.29,0,0,0,2.16-8.22V49.07c.52,1.36.6,2.4.17,5.1a24.31,24.31,0,0,1-3.33,9.58c-2.39,3.71-5.49,6.45-10,7.19A7.4,7.4,0,0,1,79.68,67h0a.31.31,0,0,1-.16-.37,3.23,3.23,0,0,1-.82-1.94c-.69-2.69-.45-5.44-.42-8.16a48.48,48.48,0,0,1,1.34-9.59c0-.16.14-.22.27-.27h0c.18-2.93,2.06-4.79,4.16-6.48a5.2,5.2,0,0,1,3.22-1.27A9.11,9.11,0,0,1,95.92,42.6Zm-7.47,42c-3.26,1.42-7.92.94-9.91-2.42,3.55,2.07,7.11,1.87,10.69.46,3.38-1.33,5.8-3.88,8.16-6.5.18-.2.29-.47.72-.58a26.85,26.85,0,0,1-3.24,4.18A18.21,18.21,0,0,1,88.45,84.58ZM76.86,79.19a.81.81,0,0,1,.16-.77c.3-.24.44.13.66.23a10.65,10.65,0,0,0,2.21.92c.21.11.47.11.65.28a1.82,1.82,0,0,1,1,.07,43.59,43.59,0,0,0,4.85,0c.53-.21,1.12-.13,1.65-.35,1.37-.09,2.51-.86,3.77-1.27h0A23.38,23.38,0,0,0,99.05,71l1-1.71a2.55,2.55,0,0,1-.56,2.14,10.94,10.94,0,0,1-2,3.38h0a15.85,15.85,0,0,1-4,4.67,15.21,15.21,0,0,1-5.81,3.16,8.22,8.22,0,0,1-3,.15h0a10.06,10.06,0,0,1-5.88-1.3A3.27,3.27,0,0,1,76.86,79.19Zm23.37-17.08a8.38,8.38,0,0,1-1.57,2.83h0c-.24,1.13-1.21,1.83-1.69,2.82a19.65,19.65,0,0,1-1.71,2h0A4.58,4.58,0,0,0,97,68h0l.57-.42a11.38,11.38,0,0,1-1.77,2.54,21.55,21.55,0,0,1-7.25,6.2,8.63,8.63,0,0,1-9.58-1,3.22,3.22,0,0,1-.78-1,12.39,12.39,0,0,0,12.73-.88,13.49,13.49,0,0,0,3-2.17c.38-.36.94-.58,1-1.2h0a15.06,15.06,0,0,1-4.48,3.32c-1.06.21-1.94.89-3,1.08a8.85,8.85,0,0,1-1.46.2h0A5.17,5.17,0,0,1,83,75a9.16,9.16,0,0,1-5-1.4,3.24,3.24,0,0,1-1.22-1.78c-.07-.25-.16-.54.12-.73s.44,0,.66.07a4.87,4.87,0,0,0,2.08.71h6a14.87,14.87,0,0,0,6.79-2.31,2.18,2.18,0,0,1,.45-.16,28.7,28.7,0,0,0,7-7.69c.31-.64.63-1.28,1-1.92A2.67,2.67,0,0,1,100.23,62.11ZM78,51.89a54.88,54.88,0,0,0-.53,7.25c0,.3,0,.61,0,.91s-.07.35-.27.36-.26-.16-.31-.33a11,11,0,0,1-.35-3,25.08,25.08,0,0,1,1.84-11.48,9.25,9.25,0,0,1,1.82-2.8A41.91,41.91,0,0,0,78,51.89Zm-.76,15.47c.08.24.27.53,0,.73s-.55-.08-.78-.26a4.22,4.22,0,0,1-1.31-3.37,24,24,0,0,1,.36-6.65c.18,1.69.45,3.36.77,5A33.61,33.61,0,0,0,77.25,67.36Zm-6-.36a121.36,121.36,0,0,1-.16,21.65A97.35,97.35,0,0,1,71.22,67ZM91.91,38a9.75,9.75,0,0,0-8.15.4,15.77,15.77,0,0,0-7.08,8.16A10.19,10.19,0,0,1,76,48.08a24.21,24.21,0,0,1,1.63-5.14,12,12,0,0,1,6.09-6.23C86.65,35.4,89.38,36.25,91.91,38Zm-8.49-6c.66.1,1.12.38,1.14,1s-.46.81-1,.8-1.18-.28-1.2-1S83,32.15,83.42,32Zm-2.13-2.2a.55.55,0,0,1,.64.49c0,.31-.19.51-.51.49a.59.59,0,0,1-.59-.56C80.81,30,81.05,29.85,81.29,29.84ZM78.58,30c.55,0,1.09.14,1.12.77s-.54.67-1,.68-1.11-.1-1.12-.73S78.05,30,78.58,30Zm-.8,2.07a2.29,2.29,0,0,1,2.36,1.56,3.15,3.15,0,0,1-.51,3.16c-2.78,4-5.32,8.17-6.64,13a35.57,35.57,0,0,1,.1-7.37,29.06,29.06,0,0,1,1.79-8.27A3.19,3.19,0,0,1,77.78,32.08Zm-4.85-2.56a2.43,2.43,0,0,1,.27,1.67,78.23,78.23,0,0,0-1.83,10.65c-.12,1.13-1.08,2-1.9,1.92A2.2,2.2,0,0,1,68,41.51V41a19.07,19.07,0,0,1,2.82-9.88c.4-.61.92-1.15,1.39-1.73C72.49,29,72.76,29.15,72.93,29.52Zm-25.74-.9a10.5,10.5,0,0,1,4.51-2.19c1.18-.29,2.39-.44,3.58-.65a28.88,28.88,0,0,1,4.55-.2,26.46,26.46,0,0,1,9.47,1.36,9.56,9.56,0,0,1,2.25,1.15c.39.26.59.54.13,1A14.32,14.32,0,0,0,67.9,35.3c-.84,2.43-4.85,5.06-7.43,5.08-2.24,0-4.44-.05-6.47-1.25a8,8,0,0,1-2.92-2.87c-1.25-2.12-2.35-4.34-4.27-6C46,29.55,46.72,29,47.19,28.62Zm-1.79,2c.37-.22.55.16.76.32a14.06,14.06,0,0,1,4.53,6.32,10,10,0,0,1,1,4.38c0,.41,0,.61,0,.81,0,1.16-.47,1.84-1.32,2A2,2,0,0,1,48.26,43a21.6,21.6,0,0,1-.55-3.28,35.7,35.7,0,0,0-2.42-7.25,3.33,3.33,0,0,1-.28-.86A.87.87,0,0,1,45.4,30.6ZM40.81,30c.52,0,1,.08,1,.73s-.61.68-1.06.73-1.06-.06-1.05-.6S40.2,30,40.81,30Zm-.19,2.25a2.53,2.53,0,0,1,2.58.31c1.54,1.09,1.8,2.79,2.2,4.41a39.56,39.56,0,0,1,1.06,10.74c0,.68,0,1.36,0,2.05-1.25-4.72-3.84-8.71-6.47-12.68a4.21,4.21,0,0,1-.88-2.63A2.33,2.33,0,0,1,40.62,32.26ZM38,29.86a.46.46,0,0,1,.54.44.51.51,0,0,1-.5.52.44.44,0,0,1-.48-.51A.46.46,0,0,1,38,29.86ZM36,32.08a1,1,0,0,1,1,.82,1.42,1.42,0,0,1-1.32,1,.78.78,0,0,1-.85-.91C34.91,32.26,35.43,32.08,36,32.08Zm-.9,4.42a11.73,11.73,0,0,1,7,7.24c.55,1.42,1,2.88,1.46,4.33l-.24.09A21.84,21.84,0,0,0,41,43.31,15.18,15.18,0,0,0,34.85,38a8.92,8.92,0,0,0-6.31-.27,1.14,1.14,0,0,1-.93.07C30,36.28,32.46,35.54,35.12,36.5Z"/><path class="cls-35" d="M35.56,29a51,51,0,0,1,18.21-5.48A54.1,54.1,0,0,1,69.59,24a46.63,46.63,0,0,1,15.79,5.81,5.63,5.63,0,0,0,1.84,1c-1.43-1.07-1.28-2.44-.75-3.9a6.76,6.76,0,0,0,.17-.78h0c0-2.19.22-4.41-.78-6.48h0c0,.36-.06.73-.07,1.09A10.53,10.53,0,0,1,84.57,26h0l-.43.69c-.4.67-.81.74-1.54.3a46.35,46.35,0,0,0-15.1-5.84c-.46-.09-.95.1-1.38-.2h0l-.17-.06h0a1.51,1.51,0,0,1-.3,0,50.6,50.6,0,0,0-11.6.4c-.59.08-.83-.17-.93-.76A51.53,51.53,0,0,1,52.86,9c.07-1.49.22-3,.33-4.49-.52.13-.5.54-.58.83C51.21,10.52,50,15.7,50.1,21.09a1,1,0,0,1-1,1.23,27.85,27.85,0,0,0-3.71,1,55.48,55.48,0,0,0-9.73,4.45h0c-.48.54-.76.27-1.06-.22a13.33,13.33,0,0,1-1.36-11.32h0c-.57.12-.78.62-1,1-1.65,2.6-1.66,5.47-1.29,8.38a5.47,5.47,0,0,0,1.2,3c.71.79,1,1.45.08,2.24h0A26.08,26.08,0,0,0,35.56,29Z"/><path class="cls-36" d="M95.91,89.45a8.56,8.56,0,0,0,3.48.43h0a16.28,16.28,0,0,0,2-2.9c.52-.71.19-1.11-.55-1.31a8.15,8.15,0,0,0-2.41-.22l-3.26,3.46h0C95.2,89.37,95.62,89.36,95.91,89.45Z"/><path class="cls-5" d="M13.2,66a9.62,9.62,0,0,1,0-2h0a21.92,21.92,0,0,1,.15-4.72h0c-.73.1-1.34-.41-2-.42h0c-1.52,1.88-2.12,4.16-2.8,6.4a28.42,28.42,0,0,0-.84,8.71.88.88,0,0,0,.69,1,27.8,27.8,0,0,1,6.29,2.71s.12,0,.25,0c-.1-.93-.23-1.86-.3-2.79,0-.38-.14-.81.19-1.16h0C14.05,71.14,13.74,68.53,13.2,66Z"/><path class="cls-37" d="M26.34,90.76l3,2.32.24.11h0c.28-.36-.12-.46-.27-.59a50.07,50.07,0,0,1-7.42-8.82,52.6,52.6,0,0,1-8.14-18c-.14-.62.05-1.38-.59-1.85h0a9.62,9.62,0,0,0,0,2c.54,2.55.85,5.16,1.57,7.67h0a33.85,33.85,0,0,0,3.92,8.56h0l1.53,2.22h0A43.61,43.61,0,0,0,26.34,90.76Z"/><path class="cls-38" d="M48.88,100.74c-1-.29-1.33.11-1.39,1a23.35,23.35,0,0,0,0,3.74h0c1,.42,2,1.12,3.15,1h0a2.91,2.91,0,0,0,1.06-2.37,3.26,3.26,0,0,1,0-1.39h0l-1.26-1.84h0A2.08,2.08,0,0,1,48.88,100.74Z"/><path class="cls-29" d="M27.66,108.82a2.14,2.14,0,0,0-2.22-2,2.1,2.1,0,0,0-1.81,1.58l4,2.33c0-.22.07-.45.12-.67A11.77,11.77,0,0,0,27.66,108.82Z"/><path class="cls-39" d="M29.36,93.08h0l-3-2.32a3.07,3.07,0,0,1-1.23,1.8h0l.21.39a24.81,24.81,0,0,0,2.23,2.24h0A8.14,8.14,0,0,1,29.36,93.08Z"/><path class="cls-40" d="M68.78,91.91h0v.9a4.27,4.27,0,0,0-.76-.6c-.41-.17-.33.14-.28.38.74.81,1.46,1.63.84,2.84l0,.34a2,2,0,0,1-2,1.58c-.44,0-.44.32-.67.46h0a13.54,13.54,0,0,1,.76,1.76,2.2,2.2,0,0,1-1.31,2.79h0c-1,.67-1.85.35-2.06-.78a8,8,0,0,1,0-1.1h0c-.54.22.12,1-.53,1.16a2.18,2.18,0,0,1-.85,2.65l0,0h0a7.17,7.17,0,0,0,2.74-.88,1.53,1.53,0,0,1,1.13-.32,7.78,7.78,0,0,0,1.63-2c1.77-2.86,1.64-6,1.56-9.19l-.17,0Z"/><path class="cls-41" d="M66.87,89.51a6.48,6.48,0,0,0-1.5-1.59h0a13.4,13.4,0,0,0,0,2.76c0,.28.08.52-.23.66h0l1.76.61h0c.13-.41,1.4-1.26,1.67-1.06s.12.67.18,1h0l.17,0,0-1.83C68,90.67,67.41,90.15,66.87,89.51Z"/><path class="cls-42" d="M69.37,89.37h0a2.11,2.11,0,0,1-2.6-.88,7,7,0,0,0-3.5-2.66c-.26,0-.53.1-.51.33,0,.41.54.42.79.66a4.55,4.55,0,0,1,1.82,1.1h0a6.48,6.48,0,0,1,1.5,1.59c.54.64,1.15,1.16,2,.59l.4-.42Z"/><path class="cls-43" d="M69.32,83.32h0l-.41.3h0a29.35,29.35,0,0,0-.16,3.25c.61.73,1.24,1.46.62,2.5h0l-.05.31.48,0h0C69.89,87.55,69.44,85.45,69.32,83.32Z"/><path class="cls-44" d="M56.56,102.09h0a1.08,1.08,0,0,1-1,.58c-.54,0-1.16.24-1.58-.34a2.3,2.3,0,0,1-1.11-3.22,14.51,14.51,0,0,1,.85-1.48h0c-.65-.26-1.41-.19-2-.64-.31-.24-.87-.41-.48-1h0c-.08-.26-.56-.21-.48-.6h0a6,6,0,0,1,0-1.8h0l-.21.2a11.46,11.46,0,0,0,3.08,9.31h0a2.33,2.33,0,0,1,1,.23c1,.35,1.82,1,2.92,1A2.43,2.43,0,0,1,56.56,102.09Z"/><path class="cls-45" d="M50.69,93.57h0a3.11,3.11,0,0,1-.18-1.48c.08-.42-.1-1.21.43-1.12s1.48,0,1.58,1l1.74-.61h0c-.48-.13-.28-.5-.3-.81a7.81,7.81,0,0,0,0-2.46h0c-.66.27-1,.87-1.39,1.4a1.65,1.65,0,0,1-1.87.83h0a5.36,5.36,0,0,0-.22,3.49l.21-.2Z"/><path class="cls-46" d="M52.56,89.46c.41-.53.73-1.13,1.39-1.4h0a3.57,3.57,0,0,1,1.82-1.2h0c.2-.12.41-.22.59-.35.53-.38.31-.56-.18-.67a6.75,6.75,0,0,0-3.57,2.62,2.44,2.44,0,0,1-2.48,1.06h0a.47.47,0,0,0,0,.17h0l.59.6h0A1.65,1.65,0,0,0,52.56,89.46Z"/><path class="cls-26" d="M50.13,89.52h0c-.52-1-.39-1.63.56-2.64h0l0-2.87-.07-.35h0L50,83.25l-.45,6.46h0c.19-.16.39-.07.59,0h0A.47.47,0,0,1,50.13,89.52Z"/><path class="cls-47" d="M58.35,99s-.12-.15-.18-.23l-1,1.07h0l-.21.62h0c-.15.53-.3,1.06-.44,1.6h0a2.43,2.43,0,0,0,.87,2.18.44.44,0,0,1,.16.06l.85,0C58.54,102.55,57.69,100.8,58.35,99Z"/><path class="cls-48" d="M61,104.32h0c-1-.11-1.15-.32-.85-1.81h0c-.31.08-.62.22-.92,0h0c0,.37,0,.74,0,1.11,0,.58-.27.78-.82.7h0l-.85,0a6.73,6.73,0,0,0,4.3,0h0l0,0Z"/><path class="cls-49" d="M15.37,31.71c.44.12.56-.13.73-.27a22.56,22.56,0,0,0,6.79-10.51L19.14,23.1a42.72,42.72,0,0,1-1.58,4.1A34,34,0,0,1,15.37,31.71Z"/><path class="cls-50" d="M10.62,37.15a6.44,6.44,0,0,0-.69.22c-2.27,1.06-4.53,2.15-6.81,3.17A16.34,16.34,0,0,0,3,42.25v1a27.21,27.21,0,0,0,2.4-1.39A16.48,16.48,0,0,0,10.62,37.15Z"/><path class="cls-3" d="M13.52,94.69a26.38,26.38,0,0,1,2.29-7.4c-1-.67-2.09-1.33-3.12-2C9.9,83.38,6.92,82,3.46,82c-.28,0-.4-.07-.44-.22v4.82a17.06,17.06,0,0,0,8.53,14.77l1.85,1.07A53.16,53.16,0,0,1,13.52,94.69Z"/><path class="cls-4" d="M3.46,82c3.46,0,6.44,1.35,9.23,3.24,1,.69,2.08,1.35,3.12,2l.38-.43a10.84,10.84,0,0,1,1.38-2.46h0c.18-.82,1-1.34,1.12-2.19h0a33.85,33.85,0,0,1-3.92-8.56h0c-.33.35-.21.78-.19,1.16.07.93.2,1.86.3,2.79-.13,0-.21,0-.25,0a27.8,27.8,0,0,0-6.29-2.71.88.88,0,0,1-.69-1,28.42,28.42,0,0,1,.84-8.71c.68-2.24,1.28-4.52,2.8-6.4h0c-.79-.75-1.88-.64-2.81-1h0a44.06,44.06,0,0,1-.13,4.74A83.23,83.23,0,0,1,5.45,73.8C4.68,76.38,3.67,78.88,3,81.5v.31C3.06,82,3.18,82,3.46,82Z"/><path class="cls-51" d="M21.06,90.85a2,2,0,0,0-.13-.89c-1-1.59-1.64-3.4-2.61-5-.2-.32-.36-.55-.75-.54h0a10.84,10.84,0,0,0-1.38,2.46,6.59,6.59,0,0,1-.14,1.71A29.62,29.62,0,0,0,14.55,97c0,2.07.08,4.14.1,6.21l3.7,2.14c.5-1.67,1-3.35,1.4-5A31.48,31.48,0,0,0,21.06,90.85Z"/><path class="cls-52" d="M3.85,72.59c-.27.46-.55.92-.83,1.37v1.17l0,0A5.81,5.81,0,0,0,3.85,72.59Z"/><path class="cls-53" d="M26.34,90.76a43.61,43.61,0,0,1-6.12-6.33h0c-.24.23,0,.43.05.63,1.27,2.73,3.19,5,4.84,7.5h0A3.07,3.07,0,0,0,26.34,90.76Z"/><path class="cls-54" d="M39.79,15.41c-.79,0-1.85.81-1.86,1.36a.91.91,0,0,0,.82,1,2.68,2.68,0,0,0,1.76-1.48A.78.78,0,0,0,39.79,15.41Z"/><path class="cls-55" d="M54.92,6.38c.82,0,.81-.94,1.06-1.5,0-.53-.21-1-.73-.95s-.92.6-.91,1.25S54.29,6.4,54.92,6.38Z"/><path class="cls-56" d="M42.75,14.21a.74.74,0,0,0-.73.69c0,.37.23.51.6.52a.78.78,0,0,0,.71-.7C43.37,14.35,43.09,14.19,42.75,14.21Z"/><path class="cls-57" d="M41.83,17.9a.69.69,0,0,0-.64.67c0,.26.15.48.43.42a1,1,0,0,0,.68-.67C42.27,18,42.09,17.87,41.83,17.9Z"/><path class="cls-58" d="M55.82,9.21c0,.22.08.43.31.45s.39-.21.45-.45,0-.43-.3-.44A.43.43,0,0,0,55.82,9.21Z"/><path class="cls-59" d="M4.41,57.54A4.87,4.87,0,0,0,3,54.16V59C3.84,59,4.37,58.41,4.41,57.54Z"/><path class="cls-31" d="M67.49,21.14A46.35,46.35,0,0,1,82.59,27c.73.44,1.14.37,1.54-.3l.43-.69h0a22.44,22.44,0,0,1-.16-4.1A8,8,0,0,0,82,16.27a34.85,34.85,0,0,0-9.84-6.09A16.71,16.71,0,0,1,66,6.09a10.2,10.2,0,0,0-2.14-2,35.79,35.79,0,0,1,2,8.14,70.88,70.88,0,0,1,.69,7.84c0,.35.12.78-.42.89h0C66.54,21.24,67,21.05,67.49,21.14Zm5.54-10c.73,0,1.6.51,1.62,1.05S74.48,13,74,13c-.71,0-1.79-.65-1.75-1.11A.74.74,0,0,1,73,11.19Z"/><path class="cls-60" d="M51.08,36.26A8,8,0,0,0,54,39.13c2,1.2,4.23,1.26,6.47,1.25,2.58,0,6.59-2.65,7.43-5.08a14.32,14.32,0,0,1,3.78-6.25c.46-.42.26-.7-.13-1a9.56,9.56,0,0,0-2.25-1.15,26.46,26.46,0,0,0-9.47-1.36,28.88,28.88,0,0,0-4.55.2c-1.19.21-2.4.36-3.58.65a10.5,10.5,0,0,0-4.51,2.19c-.47.41-1.21.93-.38,1.65C48.73,31.92,49.83,34.14,51.08,36.26Zm5.77-9.86a8.11,8.11,0,0,1,5.7,0,.9.9,0,0,1,.65.81,1,1,0,0,1-.74.87,7.13,7.13,0,0,1-2.86.33A5.67,5.67,0,0,1,56.9,28a.84.84,0,0,1-.57-.75A.8.8,0,0,1,56.85,26.4Z"/><path class="cls-61" d="M87.27,38.92l.8.12c-3.62,1.49-5.69,4.35-7.7,7.26-.11.16-.12.52-.48.37h0c-.13,0-.24.11-.27.27a48.48,48.48,0,0,0-1.34,9.59c0,2.72-.27,5.47.42,8.16a3.23,3.23,0,0,0,.82,1.94h0c0-.15,0-.4.26-.34,3.66,1,6.65-.71,9.63-2.42a12.49,12.49,0,0,0,3-2.62,1.33,1.33,0,0,0,.45-.76l-.07,0A13.78,13.78,0,0,1,85.28,65a2.68,2.68,0,0,1-.89.1,5.84,5.84,0,0,1-2.59.25,2.64,2.64,0,0,1-2.51-2,20.55,20.55,0,0,1-.4-8.19h0a16.14,16.14,0,0,1,3.91-10,7.84,7.84,0,0,1,7.29-2.85h0c2.91,0,6.41,1.79,6.27,5.89h0a28,28,0,0,1,0,4.49h0c0,.2,0,.39.09.69a2.81,2.81,0,0,0,.47-1.8A25.53,25.53,0,0,0,97,45a6.74,6.74,0,0,0-.3-.86c-.12-.36-.12-.68.37-.74a2.27,2.27,0,0,1-1.11-.82A9.11,9.11,0,0,0,87.27,38.92Z"/><path class="cls-62" d="M30,66.43a16.64,16.64,0,0,1-6.31-4.67c-.27.2-.44,0-.6-.17a14,14,0,0,1-3.73-7A28.94,28.94,0,0,1,19,48.7a4.65,4.65,0,0,0-.42,1.85,24,24,0,0,0,2.12,10.54c2.18,4.91,5.54,8.63,11.09,9.78A7.26,7.26,0,0,0,39.75,67,12.2,12.2,0,0,1,30,66.43Z"/><path class="cls-63" d="M90.42,65.92a27.48,27.48,0,0,1-4.58,1.57c-1.76.49-3.37-.13-5-.11-.42,0-.65-.5-1.11-.38h0a7.4,7.4,0,0,0,7.56,3.94c4.54-.74,7.64-3.48,10-7.19a24.31,24.31,0,0,0,3.33-9.58c.43-2.7.35-3.74-.17-5.1V50.8A16.29,16.29,0,0,1,98.27,59a4.46,4.46,0,0,1-2.18,2.35A16.57,16.57,0,0,1,90.42,65.92Z"/><path class="cls-64" d="M39.41,66.33a9.18,9.18,0,0,1-6.33-.78A18.59,18.59,0,0,1,27.59,62c-.25-.24-.63-.45-.44-.91a16.43,16.43,0,0,1-4-7.9h0c0,.19-.06.39-.08.58l-.18,0c-.19-1.12-.47-2.24-.55-3.37-.09-1.47,0-2.95,0-4.42a8.34,8.34,0,0,1,.47-1.94c.1-.45,0-.64-.44-.62h0a.81.81,0,0,0-.45.17A5,5,0,0,0,19.92,47c-.62,5.38,0,10.51,3.81,14.79h0A16.64,16.64,0,0,0,30,66.43a12.2,12.2,0,0,0,9.71.54.17.17,0,0,0,0-.1h0C39.64,66.68,39.89,66.18,39.41,66.33ZM21.79,54.07c-.46.16-.62-.29-.79-.6a8.39,8.39,0,0,1-.74-4.37,12.75,12.75,0,0,1,0-1.37c.05-.48.24-1,.8-1s.66.52.72.92a13.65,13.65,0,0,1,.08,2,13.53,13.53,0,0,0,.29,3.42C22.26,53.52,22.24,53.91,21.79,54.07ZM23.09,58c-.61-.13-.57-.77-.75-1.2-.1-.27.16-.41.45-.46a1.22,1.22,0,0,1,.69,1.11C23.51,57.74,23.46,58.08,23.09,58Z"/><path class="cls-65" d="M96.66,44.16A6.74,6.74,0,0,1,97,45a25.53,25.53,0,0,1,0,6.65,2.81,2.81,0,0,1-.47,1.8c0-.3-.07-.49-.09-.69a16.58,16.58,0,0,1-2.54,6.3l-.91,1.31s0,.06,0,.1a1.33,1.33,0,0,1-.45.76,12.49,12.49,0,0,1-3,2.62c-3,1.71-6,3.41-9.63,2.42-.24-.06-.22.19-.26.34h0a.31.31,0,0,0,.16.37h0c.46-.12.69.38,1.11.38,1.68,0,3.29.6,5,.11a27.48,27.48,0,0,0,4.58-1.57,16.57,16.57,0,0,0,5.67-4.55c.11-.16.18-.34.29-.51a16.1,16.1,0,0,0,3.06-7.63,20.8,20.8,0,0,0,0-6c-.25-1.63-.77-3.08-2.42-3.81h0C96.54,43.48,96.54,43.8,96.66,44.16Zm-.34,13.77c-.25.07-.38-.26-.34-.49.09-.44.09-1,.67-1.11.36-.07.3.26.34.53C96.84,57.23,96.84,57.77,96.32,57.93Zm2.11-11.31c.8.06.59,1.06.8,1.66-.45,1.63.14,3.39-.74,4.95-.2.37-.24,1-.81.83s-.42-.62-.36-1.09c.21-1.59-.09-3.23.27-4.81C97.73,47.56,97.48,46.54,98.43,46.62Z"/><path class="cls-17" d="M73,49.76c1.32-4.79,3.86-8.92,6.64-13a3.15,3.15,0,0,0,.51-3.16,2.29,2.29,0,0,0-2.36-1.56,3.19,3.19,0,0,0-2.9,2,29.06,29.06,0,0,0-1.79,8.27A35.57,35.57,0,0,0,73,49.76Z"/><path class="cls-66" d="M46.46,49.77c0-.69,0-1.37,0-2.05A39.56,39.56,0,0,0,45.4,37c-.4-1.62-.66-3.32-2.2-4.41a2.53,2.53,0,0,0-2.58-.31,2.33,2.33,0,0,0-1.51,2.2A4.21,4.21,0,0,0,40,37.09C42.62,41.06,45.21,45.05,46.46,49.77Z"/><path class="cls-67" d="M22.29,43.43c.46,0,.54.17.44.62A8.34,8.34,0,0,0,22.26,46c.06,1.47-.05,2.95,0,4.42.08,1.13.36,2.25.55,3.37l.18,0c0-.19,0-.39.08-.58h0a17.58,17.58,0,0,1-.14-4.1h0c.06-3.79,1.19-5.67,5.36-6.62a6.1,6.1,0,0,1,3.09-.07,7.71,7.71,0,0,1,5,2.64,15.75,15.75,0,0,1,3.35,5.71c.71-.25.26-.88.43-1.31h0a10.27,10.27,0,0,0-.81-3.5c0,.19,0,.38-.1.8a33.25,33.25,0,0,0-3.44-4.57A11.67,11.67,0,0,0,31.24,39l.76-.12h0A9,9,0,0,0,23.92,42a6.53,6.53,0,0,1-1.63,1.43Z"/><path class="cls-32" d="M45.29,32.43a35.7,35.7,0,0,1,2.42,7.25A21.6,21.6,0,0,0,48.26,43a2,2,0,0,0,2.14,1.47c.85-.16,1.3-.84,1.32-2,0-.2,0-.4,0-.81a10,10,0,0,0-1-4.38,14.06,14.06,0,0,0-4.53-6.32c-.21-.16-.39-.54-.76-.32a.87.87,0,0,0-.39,1A3.33,3.33,0,0,0,45.29,32.43Z"/><path class="cls-60" d="M68,41v.51a2.2,2.2,0,0,0,1.52,2.25c.82.1,1.78-.79,1.9-1.92A78.23,78.23,0,0,1,73.2,31.19a2.43,2.43,0,0,0-.27-1.67c-.17-.37-.44-.52-.77-.13-.47.58-1,1.12-1.39,1.73A19.07,19.07,0,0,0,68,41Z"/><path class="cls-60" d="M61.44,48.7c-3.52-.93-6.29,1.14-7.86,3.9a6.92,6.92,0,0,0-1.15,2.55c5-3.82,9.81-3.77,14.79.28A16.45,16.45,0,0,0,65,51.3,7.28,7.28,0,0,0,61.44,48.7Z"/><path class="cls-68" d="M53.76,61.45h0c.67-.46,1.17-1,.84-1.89a1,1,0,0,1,.16-1c0-.73.11-1.31,1-1.38a2,2,0,0,1,2.7.79l.29,0h0c.65-.24,1.31-.47,1.91.13h0l.43-.47h0a2,2,0,0,1,2.44-.5c1,0,1,.72,1,1.45.12,0,.37-.07.31.05-.54,1.17,0,2.06.68,3,1.22-1.39,1.79-1.55,2.79-.73l.08-.06,0-.05a12.79,12.79,0,0,0-1.25-2.37,11.4,11.4,0,0,0-5.27-3.57,8.43,8.43,0,0,0-7.69,1.71,10.15,10.15,0,0,0-2.08,2.06c-.18.25-.28.65-.72.61h0c-.16.48-.63.86-.47,1.45A2.2,2.2,0,0,1,53.76,61.45Zm4.41-6a4.24,4.24,0,0,1,3.15,0,.43.43,0,0,1,.29.48.47.47,0,0,1-.49.42c-.47,0-.94,0-1.41,0H58.39a.51.51,0,0,1-.53-.37A.44.44,0,0,1,58.17,55.47Z"/><path class="cls-69" d="M23.49,68.05c2.2,2.32,4.5,4.48,7.55,5.63a13.53,13.53,0,0,0,2.7.81s.08,0,.08.05-.09.15-.17.19h0a.45.45,0,0,0,.4.26,13.46,13.46,0,0,0,6.29-.82,3,3,0,0,0,2.23-2.55c0-.35,0-.81-.52-.55-1.08.57-2.3.66-3.39,1.15h0c.4.38,0,.39-.22.49A8.5,8.5,0,0,1,32.9,73a18.42,18.42,0,0,1-5.43-2.34c-.54-.35-.59-.44-.29-.81-.8-.62-1.64-1.2-2.42-1.86a28.18,28.18,0,0,1-4.94-5.84L18.5,59.75l-.21.12a8.22,8.22,0,0,0,1.1,2.69A7.76,7.76,0,0,0,21,65.34h0A14.72,14.72,0,0,1,23.49,68.05Z"/><path class="cls-69" d="M22.94,75.64c1.93,2,3.81,4.06,6.34,5.37a13.85,13.85,0,0,0,4.84,1.58c.27,0,.55,0,.74.24h0A9.09,9.09,0,0,0,39,82.3c1.26-.43,2.6-.9,3.2-2.31a2,2,0,0,0,.28-.93c0-.69-.26-.77-.76-.35a18.9,18.9,0,0,1-3.27,1.22h0c.16,0,.41,0,.46.13s-.11.28-.26.33a9.25,9.25,0,0,1-2.08.74A12,12,0,0,1,28,79c-.19-.13-.63-.24-.37-.67a5.43,5.43,0,0,1-1.08-.74,24.31,24.31,0,0,1-6.46-7A3.31,3.31,0,0,0,19,69a4.65,4.65,0,0,0,.83,2.27,14.2,14.2,0,0,0,2.33,3.86h0C22.6,75,22.72,75.41,22.94,75.64Z"/><path class="cls-60" d="M56.83,47.06c1.34.1,2.69.15,4.08.23a5.74,5.74,0,0,0,2-.17,1.58,1.58,0,0,0,.76-2.58c-.73-1-1.89-1.14-3-1.37a5.09,5.09,0,0,0-4.85,1.33c-.37.35-.85.74-.54,1.4A1.8,1.8,0,0,0,56.83,47.06Z"/><path class="cls-70" d="M97.39,76.12c-2.36,2.62-4.78,5.17-8.16,6.5-3.58,1.41-7.14,1.61-10.69-.46,2,3.36,6.65,3.84,9.91,2.42a18.21,18.21,0,0,0,6.42-4.86,26.85,26.85,0,0,0,3.24-4.18C97.68,75.65,97.57,75.92,97.39,76.12Z"/><path class="cls-71" d="M95,70.12h0c-.07.62-.63.84-1,1.2a13.49,13.49,0,0,1-3,2.17,12.39,12.39,0,0,1-12.73.88,3.22,3.22,0,0,0,.78,1,8.63,8.63,0,0,0,9.58,1,21.55,21.55,0,0,0,7.25-6.2,11.38,11.38,0,0,0,1.77-2.54L97,68h0a4.58,4.58,0,0,1-1.75,1.77h0C95,69.76,94.89,69.86,95,70.12Z"/><path class="cls-70" d="M40.79,82.15c-3.73,2.66-10.4,1.58-13.71-1.35h0a8,8,0,0,1-2.14-1.65h0c-1.28-.93-2.13-2.29-3.31-3.36-.14.24,0,.33.06.43a30,30,0,0,0,5.44,6c2.47,2,5.23,3.41,8.62,3.08C37.69,85.09,40.13,83.7,40.79,82.15Z"/><path class="cls-71" d="M22.48,68.2h0c-.39.38,0,.63.2.84,2.28,2.82,4.62,5.58,8,7.22a8.72,8.72,0,0,0,8.53,0,6.17,6.17,0,0,0,2.27-2.21c-4.36,2.83-10.81,1.71-14.73-1.78h0A18.45,18.45,0,0,1,22.48,68.2Z"/><path class="cls-72" d="M28.54,37.76a8.92,8.92,0,0,1,6.31.27A15.18,15.18,0,0,1,41,43.31a21.84,21.84,0,0,1,2.38,4.85l.24-.09c-.48-1.45-.91-2.91-1.46-4.33a11.73,11.73,0,0,0-7-7.24c-2.66-1-5.12-.22-7.51,1.33A1.14,1.14,0,0,0,28.54,37.76Z"/><path class="cls-73" d="M77.58,42.94A24.21,24.21,0,0,0,76,48.08a10.19,10.19,0,0,0,.73-1.53,15.77,15.77,0,0,1,7.08-8.16,9.75,9.75,0,0,1,8.15-.4c-2.53-1.74-5.26-2.59-8.24-1.28A12,12,0,0,0,77.58,42.94Z"/><path class="cls-74" d="M39.74,50.74a37.74,37.74,0,0,1,.92,6.43c0,.9-.06,1.81-.1,2.71h0A8.26,8.26,0,0,1,40,63.63a2.51,2.51,0,0,1-2.17,1.73,6.7,6.7,0,0,1-3-.23h0a12.25,12.25,0,0,1-7.15-3.49c-.19-.19-.38-.38-.58-.56h0c-.19.46.19.67.44.91a18.59,18.59,0,0,0,5.49,3.56,9.18,9.18,0,0,0,6.33.78c.48-.15.23.35.34.54h0a11,11,0,0,0,.77-1.48,17.52,17.52,0,0,0,.67-4.26,57.54,57.54,0,0,0-.27-7.54c-.15-.82-.19-1.65-.35-2.46-.11-.57.08-1.22-.4-1.7h0C40,49.86,40.45,50.49,39.74,50.74Z"/><path class="cls-75" d="M47.93,66.8c-.12,7.32-.63,14.43.27,21.8C49.26,86.58,49,68.84,47.93,66.8Z"/><path class="cls-75" d="M71.22,67a97.35,97.35,0,0,0-.16,21.65A121.36,121.36,0,0,0,71.22,67Z"/><path class="cls-76" d="M76.53,57.07a11,11,0,0,0,.35,3c.05.17.1.34.31.33s.26-.18.27-.36,0-.61,0-.91A54.88,54.88,0,0,1,78,51.89a41.91,41.91,0,0,1,2.18-9.1,9.25,9.25,0,0,0-1.82,2.8A25.08,25.08,0,0,0,76.53,57.07Z"/><path class="cls-33" d="M39.43,42.87,39.2,43a3.39,3.39,0,0,0,.15.45,35.33,35.33,0,0,1,2,7.82A79.86,79.86,0,0,1,42,59.75c0,.25-.08.64.28.65s.29-.38.33-.63a27.83,27.83,0,0,0-.89-12.5A13.55,13.55,0,0,0,39.43,42.87Z"/><path class="cls-77" d="M80.37,46.3c2-2.91,4.08-5.77,7.7-7.26l-.8-.12a5.2,5.2,0,0,0-3.22,1.27c-2.1,1.69-4,3.55-4.16,6.48h0C80.25,46.82,80.26,46.46,80.37,46.3Z"/><path class="cls-78" d="M28,79a12,12,0,0,0,8.61,2.13,9.25,9.25,0,0,0,2.08-.74c.15,0,.37-.14.26-.33s-.3-.09-.46-.13h0c-.84,0-1.69.06-2.53,0a21.75,21.75,0,0,1-4.4-.33c-1.38-.3-2.6-1-3.93-1.32h0C27.33,78.76,27.77,78.87,28,79Z"/><path class="cls-79" d="M27.47,70.62A18.42,18.42,0,0,0,32.9,73a8.5,8.5,0,0,0,5.54-.25c.22-.1.62-.11.22-.49h0a37.66,37.66,0,0,1-5.81-.4c-.39-.2-.88-.09-1.25-.35a4.13,4.13,0,0,1-1-.22c-1.14-.51-2.29-1-3.45-1.44h0C26.88,70.18,26.93,70.27,27.47,70.62Z"/><path class="cls-80" d="M80.58,72.22c2.39,1.16,4.8.8,7.17,0A19.7,19.7,0,0,0,92.4,69.9a1.94,1.94,0,0,0,.48-.51,2.18,2.18,0,0,0-.45.16,14.87,14.87,0,0,1-6.79,2.31h-6l.37.14A1.24,1.24,0,0,1,80.58,72.22Z"/><path class="cls-81" d="M75.48,57.81a24,24,0,0,0-.36,6.65,4.22,4.22,0,0,0,1.31,3.37c.23.18.44.49.78.26s.12-.49,0-.73a33.61,33.61,0,0,1-1-4.53C75.93,61.17,75.66,59.5,75.48,57.81Z"/><path class="cls-82" d="M35.82,42.16a33.25,33.25,0,0,1,3.44,4.57c.05-.42.08-.61.1-.8a7.64,7.64,0,0,0-2-3.92c-1.46-1.55-2.94-3.08-5.31-3.09h0l-.76.12A11.67,11.67,0,0,1,35.82,42.16Z"/><path class="cls-83" d="M84.81,80.85c2.4,0,4.48-1,6.57-2a.93.93,0,0,0,.46-.51h0c-1.26.41-2.4,1.18-3.77,1.27-.53.22-1.12.14-1.65.35a43.59,43.59,0,0,1-4.85,0,1.82,1.82,0,0,0-1-.07l0,0A6.58,6.58,0,0,0,84.81,80.85Z"/><path class="cls-84" d="M43.87,58c-.23,1.63-.44,3.23-.7,4.81a27.24,27.24,0,0,1-1.08,4.71.44.44,0,0,0,.11.54.4.4,0,0,0,.55-.08,3.47,3.47,0,0,0,1.42-2.36c0-2.39,0-4.78,0-7.17A.4.4,0,0,0,43.87,58Z"/><path class="cls-85" d="M53,63.59A21.61,21.61,0,0,0,55.08,65c0-.26.07-.48.11-.7h0c0-.49-.49-.85-.43-1.37h0c-.28-.12-.32-.39-.41-.64h0l-.58-.87h0a2.2,2.2,0,0,0-2.82-.73c0,.11,0,.21-.07.32h0C51.06,62.31,52.14,62.86,53,63.59Z"/><path class="cls-86" d="M52.92,80h0c-.14-.25,0-.52,0-.78a11.88,11.88,0,0,0-.19-2c-.22-1-1.13-.19-1.62-.56a4,4,0,0,0-.62-.3h-.18c0,1.5,0,3,0,4.51A5,5,0,0,1,52.92,80Z"/><path class="cls-87" d="M68.84,76.3h0a1.94,1.94,0,0,1-1.42.41c-.79-.1-.88.32-.9,1A5,5,0,0,1,66.33,80h0A5,5,0,0,1,69,80.8h0V76.31h-.17Z"/><path class="cls-88" d="M27.49,72.42c1.87,1.25,3.79,2.39,6.16,2.31h0c.08,0,.21,0,.17-.19s0,0-.08-.05a13.53,13.53,0,0,1-2.7-.81c-3.05-1.15-5.35-3.31-7.55-5.63A14.72,14.72,0,0,0,21,65.34h0c.29,1.12,1.33,1.78,1.73,2.82,1.21.85,2,2.11,3.18,3,.43.33,1,.54,1.25,1.08h0A2.32,2.32,0,0,1,27.49,72.42Z"/><path class="cls-89" d="M67.43,65.65c-.27.39.07,1.22.13,1.85h0a2.6,2.6,0,0,1,2.17.28,14.69,14.69,0,0,0-.46-5.28C68.37,63.37,68.14,64.64,67.43,65.65Z"/><path class="cls-90" d="M87.24,82.52c-.84.28-1.79,0-2.66.31a8.22,8.22,0,0,0,3-.15,15.21,15.21,0,0,0,5.81-3.16,15.85,15.85,0,0,0,4-4.67c-1,.93-1.76,2.1-2.74,3.08A18.39,18.39,0,0,1,87.24,82.52Z"/><path class="cls-88" d="M94.39,70a19,19,0,0,1-5.65,3.78c-.9.36-1.86.54-2.76.9a8.85,8.85,0,0,0,1.46-.2c1.08-.19,2-.87,3-1.08a15.06,15.06,0,0,0,4.48-3.32h0c-.06-.26,0-.36.31-.31h0a19.65,19.65,0,0,0,1.71-2c.48-1,1.45-1.69,1.69-2.82A27.14,27.14,0,0,1,94.39,70Z"/><path class="cls-91" d="M27.92,80.9a10.28,10.28,0,0,0,6.93,1.93h0c-.19-.26-.47-.21-.74-.24A13.85,13.85,0,0,1,29.28,81c-2.53-1.31-4.41-3.37-6.34-5.37-.22-.23-.34-.62-.79-.53h0a15.2,15.2,0,0,0,3,3.67l2.44,2A1.47,1.47,0,0,1,27.92,80.9Z"/><path class="cls-92" d="M51.7,67.39h0c.79-1.51-.31-2.58-.88-3.76-.16-.32-.19-.82-.68-.91a1.83,1.83,0,0,0-.28,1c-.24.32-.15.69-.18,1.05s.12,1-.18,1.43l.09,1.65C50.2,67.27,51,67.42,51.7,67.39Z"/><path class="cls-93" d="M67.57,67.5h0l-.76.08h0c-.74.35-1.61.48-2.1,1.26h0a21.06,21.06,0,0,0,3.46.38c.68,0,1.39.42,2-.21a2.88,2.88,0,0,0-.43-1.23A2.6,2.6,0,0,0,67.57,67.5Z"/><path class="cls-94" d="M50.86,69.28c1.3-.17,2.61-.22,3.92-.32h0c-.48-.89-1.44-1-2.24-1.4a1.09,1.09,0,0,1-.84-.17h0c-.73,0-1.5-.12-2.11.45l-.15.33h0C49.52,69.49,49.51,69.44,50.86,69.28Z"/><path class="cls-95" d="M51.35,82.27c.77-.32,1.45-.81,2.21-1.17A2.16,2.16,0,0,1,55.38,81h0c0-1-1-.64-1.44-1l-1,0h0a5,5,0,0,0-2.59.89,1,1,0,0,0-.47.74C50,82.43,50.44,82.64,51.35,82.27Z"/><path class="cls-95" d="M66.93,73.44l-1,.22h0c-.41.3-1,.42-1.28.85h0c1.85,0,3.58,1.1,5.49.59h0c.17-.76-.42-1.13-.83-1.59h0A4,4,0,0,0,66.93,73.44Z"/><path class="cls-96" d="M66.33,80h0l-1.12.15a1.24,1.24,0,0,0-.73.25h0c0,.19-.39.52-.09.51a6.47,6.47,0,0,1,3.4,1.28,1.58,1.58,0,0,0,1.53.15c.4-.2-.07-.73.06-1.11A.6.6,0,0,0,69,80.8h0A5,5,0,0,0,66.33,80Z"/><path class="cls-97" d="M50.5,75.24a20.28,20.28,0,0,1,4.3-.62h0c-.35-.51-.95-.66-1.43-1h0l-1-.24a3.55,3.55,0,0,0-2.4.21h0a.8.8,0,0,0-.51.64C49.34,75.24,49.53,75.5,50.5,75.24Z"/><path class="cls-98" d="M68.43,60.86l0,.07a.17.17,0,0,1,0,.07c.32.46,0,.73-.28,1a15,15,0,0,1-2.88,2.31,2.69,2.69,0,0,0-1,1.08c0-.5,0-.82.06-1.11l-.08-.1a1.71,1.71,0,0,0-.19.63c-.13.45-.28,1,.2,1.27s.64-.34.88-.63a2.75,2.75,0,0,1,.8-.56h0c0-.38.35-.5.6-.58A3.68,3.68,0,0,0,69,62h0c-.06-.39.12-.84-.31-1.13h0l-.22,0Z"/><path class="cls-99" d="M66.5,69.85h0c-.17,1.27-.35,2.54-.52,3.81h0l1-.22a4.73,4.73,0,0,0,.39-1.53,1.35,1.35,0,0,1,2.37-.7h0c0-.35,0-.69,0-1C68.58,70.57,67.59,69.72,66.5,69.85Z"/><path class="cls-100" d="M52.34,73.4a5.55,5.55,0,0,1-.16-.89c0-1.25-.51-1.89-1.83-1.72-.15,0-.31-.12-.47-.18l.06,3h0A3.55,3.55,0,0,1,52.34,73.4Z"/><path class="cls-101" d="M67.32,71.91a4.73,4.73,0,0,1-.39,1.53,4,4,0,0,1,2.43.07h0c-.09-.8.52-1.49.33-2.3h0A1.35,1.35,0,0,0,67.32,71.91Z"/><polygon class="cls-102" points="50.38 61.65 50.38 61.65 50.38 61.65 50.38 61.65"/><path class="cls-102" d="M50.82,63.63c.57,1.18,1.67,2.25.88,3.76h0a1.09,1.09,0,0,0,.84.17c.24-.93,0-2,1-2.66h0c-.06-.43-.46-.5-.73-.59a3.46,3.46,0,0,1-2.45-2.66c-.06.36-.42.65-.24,1.07C50.63,62.81,50.66,63.31,50.82,63.63Z"/><path class="cls-103" d="M52.83,64.31c.27.09.67.16.73.59h0a2.77,2.77,0,0,1,1,.86c.17.19.29.53.62.39s.37-.45.36-.77a2,2,0,0,0-.32-1h0c0,.22-.07.44-.11.7A21.61,21.61,0,0,1,53,63.59c-.83-.73-1.91-1.28-2.1-2.55h0a1.18,1.18,0,0,0-.49.61h0A3.46,3.46,0,0,0,52.83,64.31Z"/><path class="cls-104" d="M50.35,70.79c1.32-.17,1.85.47,1.83,1.72a5.55,5.55,0,0,0,.16.89l1,.24h0l-.44-3.81h0c-1.06-.08-2,.65-3.08.39h0l0,.39h0C50,70.67,50.2,70.81,50.35,70.79Z"/><path class="cls-105" d="M66.48,64.35c-.25.08-.59.2-.6.58h0a3.63,3.63,0,0,1,.93,2.65h0l.76-.08h0c-.06-.63-.4-1.46-.13-1.85.71-1,.94-2.28,1.85-3.15h0c.08-.28-.15-.35-.31-.47h0A3.68,3.68,0,0,1,66.48,64.35Z"/><path class="cls-106" d="M52.93,69.83h0a2.68,2.68,0,0,1,1.29,0c.32.09.69.3.91-.07s-.1-.6-.35-.83h0c-1.31.1-2.62.15-3.92.32s-1.34.21-1.42-1.11h0c-.73.86-.19,1.46.41,2h0C50.93,70.48,51.87,69.75,52.93,69.83Z"/><path class="cls-107" d="M69.32,82.3a1.58,1.58,0,0,1-1.53-.15,6.47,6.47,0,0,0-3.4-1.28c-.3,0,.12-.32.09-.51h0c-.34,0-.59.23-.56.56s.39.31.63.38a2.24,2.24,0,0,1,.83.3h0a4.13,4.13,0,0,1,2,1.25,1.91,1.91,0,0,0,1.54.77l.41-.3h0c.39-.7.79-1.4.06-2.13h0C69.25,81.57,69.72,82.1,69.32,82.3Z"/><path class="cls-108" d="M50.47,76.32h0a4.52,4.52,0,0,1,3-.85,1.88,1.88,0,0,1,1,0c.23,0,.51.11.62-.17s-.07-.49-.3-.65h0a20.28,20.28,0,0,0-4.3.62c-1,.26-1.16,0-1.07-1-.7,1-.34,1.89.86,2.08h.18Z"/><path class="cls-109" d="M68.17,69.22a21.06,21.06,0,0,1-3.46-.38h0c-.29.23-.66.52-.5.89s.63.19,1,.14a9.4,9.4,0,0,1,1.3,0h0c1.09-.13,2.08.72,3.2.33.2-.37.66-.64.47-1.17h0C69.56,69.64,68.85,69.27,68.17,69.22Z"/><path class="cls-110" d="M64.7,74.51h0c-.3.18-.56.43-.39.78s.46.17.72.14a1.72,1.72,0,0,1,.87,0h0a4.41,4.41,0,0,1,2.94.83H69c.91.1,1.25-.36,1.18-1.21h0C68.28,75.61,66.55,74.48,64.7,74.51Z"/><path class="cls-111" d="M50.64,83.66h0a3,3,0,0,0,1.56-1A4.21,4.21,0,0,1,54,81.6h0c.4-.38,1.07-.12,1.42-.61a2.16,2.16,0,0,0-1.82.11c-.76.36-1.44.85-2.21,1.17s-1.33.16-1.49-.69c-.53.59,0,1.12.1,1.67h0Z"/><path class="cls-112" d="M83.61,33.85c.49,0,1-.2,1-.8s-.48-.91-1.14-1c-.43.11-1,.19-1,.84S83,33.83,83.61,33.85Z"/><path class="cls-113" d="M35.71,33.85a1.42,1.42,0,0,0,1.32-1,1,1,0,0,0-1-.82c-.59,0-1.11.18-1.16.86A.78.78,0,0,0,35.71,33.85Z"/><path class="cls-114" d="M78.68,31.46c.48,0,1,0,1-.68S79.13,30,78.58,30s-1,.14-1,.72S78.13,31.48,78.68,31.46Z"/><path class="cls-115" d="M40.71,31.47c.45,0,1,0,1.06-.73s-.44-.73-1-.73-1.14.24-1.15.86S40.19,31.47,40.71,31.47Z"/><path class="cls-116" d="M25.88,71.18c-1.15-.91-2-2.17-3.18-3l-.22,0h0a18.45,18.45,0,0,0,4.23,4.09h0l.42,0h0C26.88,71.72,26.31,71.51,25.88,71.18Z"/><path class="cls-117" d="M27.08,80.8h0l.47,0-2.44-2-.17.37h0A8,8,0,0,0,27.08,80.8Z"/><path class="cls-118" d="M52.13,58.66a10.15,10.15,0,0,1,2.08-2.06,8.43,8.43,0,0,1,7.69-1.71,11.4,11.4,0,0,1,5.27,3.57,12.79,12.79,0,0,1,1.25,2.37,0,0,0,0,0,0,0h0l.22,0h0A5,5,0,0,0,67.4,58a7.47,7.47,0,0,0-3.25-3.61,8.71,8.71,0,0,0-12.74,4.84h0C51.85,59.31,52,58.91,52.13,58.66Z"/><path class="cls-119" d="M99.84,61.7a28.7,28.7,0,0,1-7,7.69,1.94,1.94,0,0,1-.48.51,19.7,19.7,0,0,1-4.65,2.34c-2.37.78-4.78,1.14-7.17,0a1.24,1.24,0,0,0-.52-.21l-.37-.14h0a4.87,4.87,0,0,1-2.08-.71c-.22-.11-.43-.23-.66-.07s-.19.48-.12.73A3.24,3.24,0,0,0,78,73.6,9.16,9.16,0,0,0,83,75a5.17,5.17,0,0,0,3-.28h0c.9-.36,1.86-.54,2.76-.9A19,19,0,0,0,94.39,70a27.14,27.14,0,0,0,4.27-5.1h0a8.38,8.38,0,0,0,1.57-2.83,2.67,2.67,0,0,0,.56-2.33C100.47,60.42,100.15,61.06,99.84,61.7Z"/><path class="cls-119" d="M84.57,82.84h0c.87-.26,1.82,0,2.66-.31a18.39,18.39,0,0,0,7.45-4.59c1-1,1.72-2.15,2.74-3.08h0a10.94,10.94,0,0,0,2-3.38,2.55,2.55,0,0,0,.56-2.14l-1,1.71a23.38,23.38,0,0,1-7.21,7.27h0a.93.93,0,0,1-.46.51c-2.09,1-4.17,2-6.57,2a6.58,6.58,0,0,1-4.23-1l0,0c-.18-.17-.44-.17-.65-.28a10.65,10.65,0,0,1-2.21-.92c-.22-.1-.36-.47-.66-.23a.81.81,0,0,0-.16.77,3.27,3.27,0,0,0,1.83,2.35A10.06,10.06,0,0,0,84.57,82.84Z"/><path class="cls-120" d="M81.42,30.82c.32,0,.48-.18.51-.49a.55.55,0,0,0-.64-.49c-.24,0-.48.13-.46.42A.59.59,0,0,0,81.42,30.82Z"/><path class="cls-121" d="M38,30.82a.51.51,0,0,0,.5-.52.49.49,0,0,0-1,0A.44.44,0,0,0,38,30.82Z"/><path class="cls-122" d="M64.92,96.64h0a6.36,6.36,0,0,0-1.66-1.25h0c-.18,0-.3.11-.16.34a8.2,8.2,0,0,1,1,4.17,2.63,2.63,0,0,0,1.28,2.46h0a2.2,2.2,0,0,0,1.31-2.79,13.54,13.54,0,0,0-.76-1.76Z"/><polygon class="cls-123" points="64.13 91.73 64.13 91.73 64.13 91.73 64.13 91.73"/><path class="cls-123" d="M64.13,91.73a1.54,1.54,0,0,1,1.57,1.68c0,.08,0,.16.08.23l.2.28h0c.44-.5.52,0,.67.24.46.71.94,1.37,1.93,1.27h0c.62-1.21-.1-2-.84-2.84a1.6,1.6,0,0,1-.81-.64h0l-1.76-.61h0C64.77,91.34,64.35,91.27,64.13,91.73Z"/><path class="cls-124" d="M64.08,99.9a8.2,8.2,0,0,0-1-4.17c-.14-.23,0-.29.16-.34h0l-.18-.22c-.41.09-1.22-.47-1,.62a8.15,8.15,0,0,1,1.07,3.13h0l.12,1.55h0a8,8,0,0,0,0,1.1c.21,1.13,1.09,1.45,2.06.78h0A2.63,2.63,0,0,1,64.08,99.9Z"/><path class="cls-125" d="M62.13,99.83a7.6,7.6,0,0,0-.8-1c-.23-.2-.5-.56-.9-.23,1.33,1,.82,2.37.7,3.63a5,5,0,0,0-.12,2.07l.85,0a2.18,2.18,0,0,0,.85-2.65C62.78,101,62.26,100.45,62.13,99.83Z"/><polygon class="cls-125" points="60.43 98.62 60.43 98.62 60.43 98.62 60.43 98.62"/><polygon class="cls-125" points="61.01 104.32 61.01 104.32 61.01 104.32 61.01 104.32"/><path class="cls-126" d="M66.24,94.78c-.1-.28-.17-.57-.26-.86h0l-.2-.28c-.14.78-.26,1.55-.42,2.32-.06.27,0,.63-.44.68h0l1,1.17h0c.23-.14.23-.47.67-.46a2,2,0,0,0,2-1.58C67.06,96.54,66.81,96.43,66.24,94.78Z"/><path class="cls-127" d="M66.65,94.16c-.15-.22-.23-.74-.67-.24h0c.09.29.16.58.26.86.57,1.65.82,1.76,2.31,1l0-.34h0C67.59,95.53,67.11,94.87,66.65,94.16Z"/><path class="cls-128" d="M67.74,92.59c0-.24-.13-.55.28-.38a4.27,4.27,0,0,1,.76.6v-.9h0c-.06-.35.17-.77-.18-1s-1.54.65-1.67,1.06h0A1.6,1.6,0,0,0,67.74,92.59Z"/><path class="cls-129" d="M63.13,98.93h0c-.1.56-.59.68-1,.9.13.62.65,1.12.58,1.81.65-.17,0-.94.53-1.16h0Z"/><path class="cls-130" d="M63.24,92a14,14,0,0,1-.74,2.09c-.31.68.29.76.58,1.06l.18.22h0a6.36,6.36,0,0,1,1.66,1.25h0c.42,0,.38-.41.44-.68.16-.77.28-1.54.42-2.32,0-.07,0-.15-.08-.23l-1.57-1.68h0c.22-.46.64-.39,1-.39h0c.31-.14.25-.38.23-.66a13.4,13.4,0,0,1,0-2.76h0a4.55,4.55,0,0,0-1.82-1.1l-.24.14C64.09,88.66,63.72,90.34,63.24,92Z"/><path class="cls-131" d="M63.32,85.66a5.62,5.62,0,0,0-3.91-1.45A3.85,3.85,0,0,0,56.7,85.3c-.49.49-1-.11-1.37.17a.22.22,0,0,0,0,.14,1.21,1.21,0,0,1,.86.23c.49.11.71.29.18.67-.18.13-.39.23-.59.35h0c.61.25,0,.53,0,.79a12.49,12.49,0,0,0,1,6.25c.34.66.28,1-.4,1.25.6,0,1.35-.22.84.85h0c.36-.14.33-.54.59-.94-.17,1.43.75,2.07,1.56,2.78a.48.48,0,0,0,.72,0c.74-.75,1.75-1.33,1.57-2.72l.4.67c-.2-1.09.61-.53,1-.62-.29-.3-.89-.38-.58-1.06A14,14,0,0,0,63.24,92c.48-1.68.85-3.36.07-5.06l.24-.14c-.25-.24-.75-.25-.79-.66,0-.23.25-.36.51-.33A.18.18,0,0,0,63.32,85.66Z"/><path class="cls-85" d="M68.54,86.69l-2.2-.83a21,21,0,0,0-2.74-.25h0l-.28,0a.18.18,0,0,1,0,.17,7,7,0,0,1,3.5,2.66,2.11,2.11,0,0,0,2.6.88h0c.62-1,0-1.77-.62-2.5l-.21-.18Z"/><path class="cls-132" d="M67.37,82.85a4.13,4.13,0,0,0-2-1.25h0c0,.94-.11,1.88-.06,2.81s-.1,1.29-1,1.1a.77.77,0,0,0-.67.1h0a21,21,0,0,1,2.74.25,2.29,2.29,0,0,0,.25-.13c-.36-1.23.37-1.39,1.34-1.52.51-.07.67,0,.65.47s0,1.34,0,2h0l.21.18a29.35,29.35,0,0,1,.16-3.25h0A1.91,1.91,0,0,1,67.37,82.85Z"/><path class="cls-133" d="M55.32,99.56c.21-1.35.18-2.75,1-4,0,0-.09-.16-.14-.24h0a5.49,5.49,0,0,0-1.68,1.27h0l-.8,1h0a14.51,14.51,0,0,0-.85,1.48A2.3,2.3,0,0,0,54,102.33C55.24,101.82,55.16,100.62,55.32,99.56Z"/><path class="cls-134" d="M56.19,100.48h0a2.81,2.81,0,0,1,.06-1.19,7.44,7.44,0,0,1,1-3.29h0c.51-1.07-.24-.88-.84-.85l-.21.22h0c0,.08.16.21.14.24-.81,1.2-.78,2.6-1,4-.16,1.06-.08,2.26-1.37,2.77.42.58,1,.29,1.58.34A3.08,3.08,0,0,0,56.19,100.48Z"/><path class="cls-135" d="M52.4,94.59a2.76,2.76,0,0,1,1.32-1.25h0l.21-.39h0c0-.8.38-1.22,1.19-1.21a.33.33,0,0,0,0-.06c-.15-.44-.52-.38-.87-.35h0l-1.74.61L50.7,93.55h0v0a6,6,0,0,0,0,1.8h0A1.52,1.52,0,0,0,52.4,94.59Z"/><path class="cls-136" d="M54.49,96.64h0c-.75-.38-.49-1.15-.67-1.75a7.87,7.87,0,0,1-.17-1.28c-.24.58-.47,1.17-.71,1.76-.34.84-.87,1.18-1.72.61h0c-.39.6.17.77.48,1,.58.45,1.34.38,2,.64h0Z"/><path class="cls-137" d="M52.94,95.37c.24-.59.47-1.18.71-1.76l.07-.27h0a2.76,2.76,0,0,0-1.32,1.25,1.52,1.52,0,0,1-1.66.79h0c-.08.39.4.34.48.6h0C52.07,96.55,52.6,96.21,52.94,95.37Z"/><path class="cls-138" d="M56.19,100.48h0a3.08,3.08,0,0,1-.66,2.19,1.08,1.08,0,0,0,1-.58h0c.14-.54.29-1.07.44-1.6h0C56.72,100.87,56.46,100.81,56.19,100.48Z"/><path class="cls-139" d="M55.15,91.68a.33.33,0,0,1,0,.06A3,3,0,0,1,53.93,93h0l-.21.39h0l-.07.27a7.87,7.87,0,0,0,.17,1.28c.18.6-.08,1.37.67,1.75h0a5.49,5.49,0,0,1,1.68-1.27h0l.21-.22c.68-.24.74-.59.4-1.25a12.49,12.49,0,0,1-1-6.25c0-.26.62-.54,0-.79h0A3.57,3.57,0,0,0,54,88.06h0a7.81,7.81,0,0,1,0,2.46c0,.31-.18.68.3.81h0C54.63,91.3,55,91.24,55.15,91.68Z"/><path class="cls-44" d="M52.53,91.94c-.1-1-1-.9-1.58-1s-.35.7-.43,1.12a3.11,3.11,0,0,0,.18,1.48h0Z"/><path class="cls-85" d="M55.32,85.61h0a18.56,18.56,0,0,0-2.35.26h0a12.19,12.19,0,0,0-2.24,1h0c-.95,1-1.08,1.6-.56,2.64h0a2.44,2.44,0,0,0,2.48-1.06,6.75,6.75,0,0,1,3.57-2.62A1.21,1.21,0,0,0,55.32,85.61Z"/><path class="cls-140" d="M52.93,85.87a18.56,18.56,0,0,1,2.35-.26.15.15,0,0,0,0-.14h0c-1,.24-1.35-.13-1.25-1.18A7.4,7.4,0,0,0,54,81.6h0a4.21,4.21,0,0,0-1.76,1.07,3,3,0,0,1-1.56,1h0l.07.35a.65.65,0,0,0,.19,0C52.11,84.07,52.94,84.5,52.93,85.87Z"/><path class="cls-141" d="M52.93,85.87h0c0-1.37-.82-1.8-2-1.82a.65.65,0,0,1-.19,0l0,2.87h0A12.19,12.19,0,0,1,52.93,85.87Z"/><path class="cls-142" d="M58.94,98.53c.34.16.14.46.11.71l-.09.6c.21,1,.93.53,1.5.48.22-.57-.39-1.12,0-1.7h0c.4-.33.67,0,.9.23a7.6,7.6,0,0,1,.8,1c.41-.22.9-.34,1-.9h0a8.15,8.15,0,0,0-1.07-3.13l-.4-.67c.18,1.39-.83,2-1.57,2.72a.48.48,0,0,1-.72,0c-.81-.71-1.73-1.35-1.56-2.78-.26.4-.23.8-.59.94h0a7.44,7.44,0,0,0-1,3.29l1,.58,1-1.07C58.37,98.54,58.63,98.37,58.94,98.53Z"/><path class="cls-143" d="M59,99.84h0l.09-.6c0-.25.23-.55-.11-.71s-.57,0-.77.27c.06.08.2.18.18.23-.66,1.77.19,3.52.09,5.28h0c.55.08.85-.12.82-.7,0-.37,0-.74,0-1.11h0A4.07,4.07,0,0,1,59,99.84Z"/><path class="cls-144" d="M56.25,99.29a2.81,2.81,0,0,0-.06,1.19h0c.27.33.53.39.81,0h0l.21-.62h0Z"/><path class="cls-145" d="M61.13,102.25c.12-1.26.63-2.64-.7-3.63h0c-.36.58.25,1.13,0,1.7a3.67,3.67,0,0,1-.3,2.19h0c-.3,1.49-.2,1.7.85,1.81h0A5,5,0,0,1,61.13,102.25Z"/><path class="cls-146" d="M60.46,100.32c-.57.05-1.29.56-1.5-.48h0a4.07,4.07,0,0,0,.28,2.66h0c.3.23.61.09.92,0h0A3.67,3.67,0,0,0,60.46,100.32Z"/><path class="cls-147" d="M74,13c.47,0,.65-.28.64-.72s-.89-1.1-1.62-1.05a.74.74,0,0,0-.77.66C72.22,12.31,73.3,13,74,13Z"/><path class="cls-148" d="M56.9,28a5.67,5.67,0,0,0,2.7.37,7.13,7.13,0,0,0,2.86-.33,1,1,0,0,0,.74-.87.9.9,0,0,0-.65-.81,8.11,8.11,0,0,0-5.7,0,.8.8,0,0,0-.52.89A.84.84,0,0,0,56.9,28Z"/><path class="cls-149" d="M92.5,45h.11v0a.32.32,0,0,1-.1-.13l0,.16Z"/><path class="cls-149" d="M79,59.51c0,.53-.17,1.48.94,1.37h0a2.34,2.34,0,0,1,1.87-1.67,12.26,12.26,0,0,0,7.61-6.09,13.17,13.17,0,0,0,1.71-5.57,3.18,3.18,0,0,1,1.43-2.76c-.21-1.41-1.31-1.9-2.43-2.39h0a7.84,7.84,0,0,0-7.29,2.85,16.14,16.14,0,0,0-3.91,10h0C78.9,56.64,78.85,58.08,79,59.51ZM81,55.57c-.38,0-.35-.34-.34-.59s0-.55.43-.56.44.24.43.52A.57.57,0,0,1,81,55.57Zm7.72-9.32a9,9,0,0,1-4.84,5c-.24.1-.37.42-.7.32-.42-.52-.2-1.06,0-1.6a10.33,10.33,0,0,1,3.67-5.27,1.59,1.59,0,0,1,1.63,0C89.13,45.08,89,45.72,88.75,46.25Z"/><path class="cls-150" d="M88.44,62.74a18,18,0,0,0,7-10.35c.34-1.36.47-2.76.87-4.1h0c.14-4.1-3.36-5.86-6.27-5.89h0c1.12.49,2.22,1,2.43,2.39a.32.32,0,0,0,.1.13v0a1.78,1.78,0,0,1,2.29,1.59A4.68,4.68,0,0,1,94,50.74c-2.79,3-4.89,6.6-7.57,9.73a14.55,14.55,0,0,1-2.37,2.2,3.87,3.87,0,0,1-2.89.61A1.74,1.74,0,0,1,80,61.08l-.06-.2h0C78.79,61,79,60,79,59.51c-.11-1.43-.06-2.87-.07-4.31h0a20.55,20.55,0,0,0,.4,8.19,2.64,2.64,0,0,0,2.51,2,5.84,5.84,0,0,0,2.59-.25C85.73,64.32,87.16,63.69,88.44,62.74Z"/><path class="cls-151" d="M92.91,60.39l.91-1.31a16.58,16.58,0,0,0,2.54-6.3h0a28,28,0,0,0,0-4.49h0c-.4,1.34-.53,2.74-.87,4.1a18,18,0,0,1-7,10.35c-1.28.95-2.71,1.58-4,2.4a2.68,2.68,0,0,0,.89-.1,13.78,13.78,0,0,0,7.55-4.57l.08-.08Z"/><path class="cls-152" d="M27.15,61.08c.2.18.39.37.58.56a12.25,12.25,0,0,0,7.15,3.49c-.84-.73-1.94-1-2.86-1.65a20.66,20.66,0,0,1-6.18-6.24,18.94,18.94,0,0,1-2.34-6.82c-.08-.5,0-1-.53-1.34a17.58,17.58,0,0,0,.14,4.1h0a16.43,16.43,0,0,0,4,7.9Z"/><path class="cls-153" d="M21.87,49.64a13.65,13.65,0,0,0-.08-2c-.06-.4-.11-1-.72-.92s-.75.55-.8,1a12.75,12.75,0,0,0,0,1.37A8.39,8.39,0,0,0,21,53.47c.17.31.33.76.79.6s.47-.55.37-1A13.53,13.53,0,0,1,21.87,49.64Z"/><path class="cls-154" d="M22.79,56.34c-.29,0-.55.19-.45.46.18.43.14,1.07.75,1.2.37.08.42-.26.39-.55A1.22,1.22,0,0,0,22.79,56.34Z"/><path class="cls-153" d="M97.32,53c-.06.47-.19,1,.36,1.09s.61-.46.81-.83c.88-1.56.29-3.32.74-4.95-.21-.6,0-1.6-.8-1.66-1-.08-.7.94-.84,1.54C97.23,49.74,97.53,51.38,97.32,53Z"/><path class="cls-155" d="M96.65,56.33c-.58.13-.58.67-.67,1.11,0,.23.09.56.34.49.52-.16.52-.7.67-1.07C97,56.59,97,56.26,96.65,56.33Z"/><path class="cls-149" d="M26.92,44.86h0L27,45c1.07.51,1.23,1.52,1.32,2.53A13.34,13.34,0,0,0,34.21,57.7a19.36,19.36,0,0,0,3.52,1.54c.86.36,1.68.76,1.76,1.86h.08c.66-.14.66-.82,1-1.22h0c0-.9.11-1.81.1-2.71a37.74,37.74,0,0,0-.92-6.43A15.75,15.75,0,0,0,36.39,45a7.71,7.71,0,0,0-5-2.64,16.14,16.14,0,0,0-2.5.23A2.94,2.94,0,0,0,26.92,44.86Zm8.34,6.29a10,10,0,0,1-4.47-4.46,2.26,2.26,0,0,1,0-1.87c.59-.82,1.34-.58,1.92-.11a9.85,9.85,0,0,1,3.43,5.17C36.49,51.2,36.37,51.36,35.26,51.15Zm3.22,4.43c-.42,0-.58-.33-.66-.61a.47.47,0,0,1,.45-.54c.36,0,.48.38.6.63S38.76,55.56,38.48,55.58Z"/><path class="cls-150" d="M23.5,50.42a18.94,18.94,0,0,0,2.34,6.82A20.66,20.66,0,0,0,32,63.48c.92.65,2,.92,2.86,1.65h0a6.7,6.7,0,0,0,3,.23A2.51,2.51,0,0,0,40,63.63a8.26,8.26,0,0,0,.53-3.75h0c-.33.4-.33,1.08-1,1.22-.08,2.25-1.51,2.63-3.48,2a7.62,7.62,0,0,1-3-2.39,76.16,76.16,0,0,1-4.76-6.28c-.9-1.17-1.91-2.26-2.85-3.41a5.11,5.11,0,0,1-1.16-4c.2-1.61.9-2.21,2.56-2.16h0a2.94,2.94,0,0,1,2-2.24,16.14,16.14,0,0,1,2.5-.23,6.1,6.1,0,0,0-3.09.07c-4.17.95-5.3,2.83-5.36,6.62h0C23.46,49.4,23.42,49.92,23.5,50.42Z"/><path class="cls-156" d="M60.46,58.46h0c-.08.74-.16,1.48-.25,2.22h0a7,7,0,0,0,.86,3.57c.16.29.4.64.74.61s.33-.51.39-.82a11.3,11.3,0,0,1,.71-2.41h0a2.43,2.43,0,0,1,.6-1.17h0l1-1.8h0c0-.73,0-1.45-1-1.45.38.79-.25,1.33-.49,2a32.07,32.07,0,0,0-1.61,3.91,10,10,0,0,1-.28-4.1,3.91,3.91,0,0,0-.06-1.28l-.43.47h0C60.59,58.28,60.52,58.37,60.46,58.46Z"/><path class="cls-157" d="M57.38,61.49c.31.79.26,1.74.95,2.37-.28-2,.2-3.89.12-5.84h0a2,2,0,0,0-2.7-.79C55.73,58.86,56.84,60.07,57.38,61.49Z"/><path class="cls-158" d="M65,62.53h0c-.12.24-.25.48-.38.72l-.3.87h0a1.34,1.34,0,0,0,0,.2c0,.29,0,.61-.06,1.11a2.69,2.69,0,0,1,1-1.08A15,15,0,0,0,68.12,62c.26-.31.6-.58.28-1l-.09-.06c-1-.82-1.57-.66-2.79.73Z"/><path class="cls-122" d="M61.14,59a10,10,0,0,0,.28,4.1A32.07,32.07,0,0,1,63,59.18c.24-.64.87-1.18.49-2a2,2,0,0,0-2.44.5h0A3.91,3.91,0,0,1,61.14,59Z"/><path class="cls-159" d="M55.93,60.49h0c.19.36.52.66.5,1.1a7.77,7.77,0,0,1,.74,2.29c.08.34-.12.9.34.95s.78-.41.92-.89l-.1-.08c-.69-.63-.64-1.58-.95-2.37-.54-1.42-1.65-2.63-1.63-4.26-.88.07-1,.65-1,1.38Z"/><path class="cls-160" d="M58.39,56.4h1.32c.47,0,.94,0,1.41,0a.47.47,0,0,0,.49-.42.43.43,0,0,0-.29-.48,4.24,4.24,0,0,0-3.15,0,.44.44,0,0,0-.31.56A.51.51,0,0,0,58.39,56.4Z"/><path class="cls-161" d="M58.33,63.86l.1.08a7.24,7.24,0,0,0,.82-3.35h0c0-.3,0-.6,0-.89s-.15-.55-.22-.82h0l-.24-.83h0l-.29,0h0C58.53,60,58.05,61.91,58.33,63.86Z"/><path class="cls-162" d="M55.93,60.49h0l-1.17-1.88a1,1,0,0,0-.16,1c.33.92-.17,1.43-.84,1.89h0l.58.87h0C55,61.82,55.17,60.9,55.93,60.49Z"/><path class="cls-163" d="M63.51,60.46h0A5.56,5.56,0,0,1,65,62.53h0l.56-.86c-.63-.9-1.22-1.79-.68-3,.06-.12-.19-.07-.31-.05h0Z"/><path class="cls-164" d="M59,58.88h0c.32-.75,1-.3,1.48-.42h0c.06-.09.13-.18.19-.28h0c-.6-.6-1.26-.37-1.91-.13h0Z"/><path d="M54.07,84.29c-.1,1,.24,1.42,1.25,1.18h0c.42-.28.88.32,1.37-.17a3.85,3.85,0,0,1,2.71-1.09,5.62,5.62,0,0,1,3.91,1.45l.28,0h0a.77.77,0,0,1,.67-.1c1,.19,1.1-.29,1-1.1s0-1.87.06-2.81h0a2.24,2.24,0,0,0-.83-.3c-.24-.07-.61-.07-.63-.38s.22-.53.56-.56h0a1.24,1.24,0,0,1,.73-.25c.43-1,.24-2,.46-3,.11-.52.16-1.06.23-1.59h0a1.72,1.72,0,0,0-.87,0c-.26,0-.59.15-.72-.14s.09-.6.39-.78h0c.33-.43.87-.55,1.28-.85h0c.17-1.27.35-2.54.52-3.81h0a9.4,9.4,0,0,0-1.3,0c-.36,0-.8.3-1-.14s.21-.66.5-.89h0c.49-.78,1.36-.91,2.1-1.26h0a3.63,3.63,0,0,0-.93-2.65h0a2.75,2.75,0,0,0-.8.56c-.24.29-.42.87-.88.63s-.33-.82-.2-1.27a1.71,1.71,0,0,1,.19-.63.81.81,0,0,1,.09-.1h0l.3-.87c-.49-.61-.85-1.36-1.67-1.62h0A11.3,11.3,0,0,0,62.2,64c-.06.31,0,.77-.39.82s-.58-.32-.74-.61a7,7,0,0,1-.86-3.57h0l-.2-.14a1,1,0,0,1-.75.06,7.24,7.24,0,0,1-.82,3.35c-.14.48-.4,1-.92.89s-.26-.61-.34-.95a7.77,7.77,0,0,0-.74-2.29c-.77.19-.94,1.13-1.67,1.37h0c-.06.52.38.88.43,1.37h0a2,2,0,0,1,.32,1c0,.32,0,.64-.36.77s-.45-.2-.62-.39a2.77,2.77,0,0,0-1-.86h0c-1,.63-.78,1.73-1,2.66.8.39,1.76.51,2.24,1.4h0c.25.23.56.47.35.83s-.59.16-.91.07a2.68,2.68,0,0,0-1.29,0h0l.44,3.81h0c.48.32,1.08.47,1.43,1h0c.23.16.41.37.3.65s-.39.18-.62.17a1.88,1.88,0,0,0-1,0,35.69,35.69,0,0,1,.43,4.5c.45.38,1.41,0,1.44,1h0c-.35.49-1,.23-1.42.61h0A7.4,7.4,0,0,1,54.07,84.29Z"/><path class="cls-165" d="M56.43,61.59c0-.44-.31-.74-.5-1.1h0c-.76.41-.94,1.33-1.59,1.83h0c.09.25.13.52.41.64h0C55.49,62.72,55.66,61.78,56.43,61.59Z"/><path class="cls-104" d="M53.51,75.47a4.52,4.52,0,0,0-3,.85h0a4,4,0,0,1,.62.3c.49.37,1.4-.39,1.62.56a11.88,11.88,0,0,1,.19,2c0,.26-.11.53,0,.78h0l1,0A35.69,35.69,0,0,0,53.51,75.47Z"/><path class="cls-166" d="M65.67,77.06c-.22,1,0,2.08-.46,3L66.33,80h0a5,5,0,0,0,.19-2.29c0-.64.11-1.06.9-1a1.94,1.94,0,0,0,1.42-.41h0a4.41,4.41,0,0,0-2.94-.83h0C65.83,76,65.78,76.54,65.67,77.06Z"/><path class="cls-127" d="M64.13,91.73h0l1.57,1.68A1.54,1.54,0,0,0,64.13,91.73Z"/><path class="cls-167" d="M68.54,86.69h0c0-.67,0-1.34,0-2s-.14-.54-.65-.47c-1,.13-1.7.29-1.34,1.52a2.29,2.29,0,0,1-.25.13Z"/><path class="cls-137" d="M55.18,91.74h-.06c-.81,0-1.18.41-1.19,1.21h0A3,3,0,0,0,55.18,91.74Z"/><path class="cls-168" d="M91.09,47.55a13.17,13.17,0,0,1-1.71,5.57,12.26,12.26,0,0,1-7.61,6.09,2.34,2.34,0,0,0-1.87,1.67h0l.06.2a3.29,3.29,0,0,0,2.77-.6,20.62,20.62,0,0,0,8.34-8.69A12.38,12.38,0,0,0,92.5,45h0l0-.16A3.18,3.18,0,0,0,91.09,47.55Z"/><path class="cls-169" d="M88.46,44.65a1.59,1.59,0,0,0-1.63,0,10.33,10.33,0,0,0-3.67,5.27c-.15.54-.37,1.08,0,1.6.33.1.46-.22.7-.32a9,9,0,0,0,4.84-5C89,45.72,89.13,45.08,88.46,44.65Z"/><path class="cls-170" d="M81.12,54.42c-.38,0-.41.3-.43.56s0,.55.34.59a.57.57,0,0,0,.52-.63C81.56,54.66,81.48,54.41,81.12,54.42Z"/><path class="cls-171" d="M92.5,45h0a12.38,12.38,0,0,1-1.43,6.84,20.62,20.62,0,0,1-8.34,8.69,3.29,3.29,0,0,1-2.77.6,1.74,1.74,0,0,0,1.24,2.2,3.87,3.87,0,0,0,2.89-.61,14.55,14.55,0,0,0,2.37-2.2c2.68-3.13,4.78-6.69,7.57-9.73a4.68,4.68,0,0,0,.89-4.21,1.78,1.78,0,0,0-2.29-1.59H92.5Z"/><path class="cls-171" d="M37.35,60.8A19.41,19.41,0,0,1,27.27,49,9,9,0,0,1,27,45h0l-.08-.16h0c-1.66,0-2.36.55-2.56,2.16a5.11,5.11,0,0,0,1.16,4c.94,1.15,1.95,2.24,2.85,3.41a76.16,76.16,0,0,0,4.76,6.28,7.62,7.62,0,0,0,3,2.39c2,.67,3.4.29,3.48-2h-.08A2.59,2.59,0,0,1,37.35,60.8Z"/><path class="cls-172" d="M27.27,49A19.41,19.41,0,0,0,37.35,60.8a2.59,2.59,0,0,0,2.14.3c-.08-1.1-.9-1.5-1.76-1.86a19.36,19.36,0,0,1-3.52-1.54,13.34,13.34,0,0,1-5.89-10.15c-.09-1-.25-2-1.32-2.53h0A9,9,0,0,0,27.27,49Z"/><path class="cls-169" d="M32.7,44.71c-.58-.47-1.33-.71-1.92.11a2.26,2.26,0,0,0,0,1.87,10,10,0,0,0,4.47,4.46c1.11.21,1.23.05.87-1.27A9.85,9.85,0,0,0,32.7,44.71Z"/><path class="cls-173" d="M38.27,54.43a.47.47,0,0,0-.45.54c.08.28.24.63.66.61s.41-.19.39-.52S38.63,54.45,38.27,54.43Z"/><path class="cls-174" d="M65,62.53a5.56,5.56,0,0,0-1.45-2.07h0a2.43,2.43,0,0,0-.6,1.17h0c.82.26,1.18,1,1.67,1.62.13-.24.26-.48.38-.72Z"/><path class="cls-175" d="M60.46,58.46h0c-.5.12-1.16-.33-1.48.42h0c.07.27.14.54.22.82s0,.59,0,.89h0a1,1,0,0,0,.75-.06l.2.14h0C60.3,59.94,60.38,59.2,60.46,58.46Z"/><path class="cls-176" d="M114,86.62V42.24a17.06,17.06,0,0,0-8.53-14.77L67,5.29A17,17,0,0,0,50,5.29L11.53,27.47A17.06,17.06,0,0,0,3,42.24V86.62a17.06,17.06,0,0,0,8.53,14.77L50,123.58a17.1,17.1,0,0,0,17.06,0l38.42-22.19A17.06,17.06,0,0,0,114,86.62Z"/></g></g></svg>