<svg xmlns="http://www.w3.org/2000/svg" viewBox="0 0 116.97 128.86"><defs><style>.cls-1{fill:#642412;}.cls-2{fill:#ae411f;}.cls-3{fill:#fed139;}.cls-4{fill:#7b6210;}.cls-5{fill:#c69e1e;}.cls-6{fill:#eabdce;}.cls-7{fill:#15243a;}.cls-8{fill:#14233a;}.cls-9{fill:#feec5d;}.cls-10{fill:#e1edf0;}.cls-11{fill:#fefefd;}.cls-12{fill:#c7a01f;}.cls-13{fill:#c79f1e;}.cls-14{fill:#13223b;}.cls-15{fill:#fdfdfd;}.cls-16{fill:#181b2a;}.cls-17{fill:#725a09;}.cls-18{fill:#292d45;}.cls-19{fill:#fefefe;}.cls-20{fill:#3a3f5f;}.cls-21{fill:#0a2029;}.cls-22{fill:#091419;}.cls-23{fill:#f7f9fa;}.cls-24{fill:#124253;}.cls-25{fill:#f6f9fa;}.cls-26{fill:#fdfefe;}.cls-27{fill:#0051dd;}.cls-28{fill:#eff3f8;}.cls-29{fill:#002dc5;}.cls-30{fill:#0b242f;}.cls-31{fill:#002bc3;}.cls-32{fill:#008af5;}.cls-33{fill:#f6f9fb;}.cls-34{fill:none;stroke:#441109;stroke-miterlimit:10;stroke-width:6px;}</style></defs><g id="Calque_2" data-name="Calque 2"><g id="Calque_8" data-name="Calque 8"><path class="cls-1" d="M114,74.56V86.62a17.06,17.06,0,0,1-5,12c-.18.18-.36.36-.55.53-.11-2.08-.17-4.17-.48-6.24a64.21,64.21,0,0,0-5.9-19.18,4.78,4.78,0,0,0-.4-.74s-.07,0-.15-.05a28.66,28.66,0,0,1-1.57,4.51,3.63,3.63,0,0,0-.09,2.89,56.25,56.25,0,0,1,2.83,12.49,58.26,58.26,0,0,1,.26,10l-.47.27-8.56,4.94-.51.3q1.62-5.56,2.72-11.29a86.49,86.49,0,0,0,1.8-14.26,9.59,9.59,0,0,1,.21-1.52A40.92,40.92,0,0,1,95,86.43a3.53,3.53,0,0,0-.79,2.2c.06,5.85-1.4,11.42-3.23,16.89q-.92,2.74-2,5.4l-.58.34L67,123.58a16.89,16.89,0,0,1-4.8,1.86H54.75a16.89,16.89,0,0,1-4.8-1.86L30.46,112.32l-.66-.38a75.75,75.75,0,0,1-4.39-13.39,39.53,39.53,0,0,1-1.24-9.86,2.85,2.85,0,0,0-.56-1.8,40.49,40.49,0,0,1-3.24-5.28A102.23,102.23,0,0,0,23.06,101c.64,2.79,1.36,5.55,2.18,8.29L24.7,109l-8.76-5.06-.51-.3q-.06-.78-.09-1.56A55.8,55.8,0,0,1,18.48,80.6a3.59,3.59,0,0,0,0-3,42.64,42.64,0,0,1-1.61-4.53,49.26,49.26,0,0,0-4.25,10.29,69.92,69.92,0,0,0-2.72,16.91,3.27,3.27,0,0,1-.37-.28A17,17,0,0,1,3,86.62V76.77a70.34,70.34,0,0,1,6.34-8.48,76.33,76.33,0,0,1,6.79-6.79,4.48,4.48,0,0,0,1.58-2.71,47.7,47.7,0,0,1,2.95-10.12,9.06,9.06,0,0,1,.92-1.81c.2-.29.42-.71.85-.46h0l.13.1a2.56,2.56,0,0,1-.45,1.7,35.36,35.36,0,0,0-2.87,11.21A33.82,33.82,0,0,0,20.84,73c.08.39.17.77.28,1.14,0,0,0,0,0,0a11.06,11.06,0,0,0,.43,1.22s0,0,0,0A35.59,35.59,0,0,0,23.92,80a27.63,27.63,0,0,0,5.36,6.86,5.06,5.06,0,0,1,1.21,1.56h0a3,3,0,0,1,.15.38,3.83,3.83,0,0,1,.16,1.09V90A23.94,23.94,0,0,0,31.15,98c.08.42.17.82.29,1.23h0c.08.28.16.55.26.82h0a13.16,13.16,0,0,0,2,3.65,4,4,0,0,1,.72,1.09,1.54,1.54,0,0,0,.06.43,1.33,1.33,0,0,0,.1.28c.24.56.7,1,.92,1.59l0,.15c0,.1.07.18.11.28h0a18.83,18.83,0,0,0,6.76,8.57A17.17,17.17,0,0,0,52,119.17c4.67,0,9.35.08,14,0a17.78,17.78,0,0,0,16-11.47c0-.09.07-.19.11-.28l0-.15a3.6,3.6,0,0,1,.58-1s0,0,0,0l.06-.08a2.59,2.59,0,0,0,.49-.89,1.43,1.43,0,0,0,.06-.36,25.77,25.77,0,0,0,2.68-4.74,0,0,0,0,0,0,0c.11-.29.21-.6.3-.9l.09-.31h0a4,4,0,0,0,.19-1.09v-.11a24.84,24.84,0,0,0,.23-7.6,3.77,3.77,0,0,1,0-1.42,2.37,2.37,0,0,1,.2-.46l.06-.1h0a6.24,6.24,0,0,1,1-1,33.47,33.47,0,0,0,8-11.81.94.94,0,0,0,.06-.15s0,0,0,0c.1-.25.2-.52.29-.78h0a4.61,4.61,0,0,0,.2-1c3.9-12.23,1.67-23.3-6.3-33.27-.55-.69-1.23-1.26-1.83-1.9a2.47,2.47,0,0,1-.84-1.28s0-.06,0-.09a.24.24,0,0,0,0-.09h0a3.9,3.9,0,0,1,2-2.25c.94-.62,1.69-1.24,1.6-2.51a.83.83,0,0,1,.76-1h0s0,0,0,0c.88.71.92,1.86,1.43,2.76l0,0a1.54,1.54,0,0,1,.08.19,25.35,25.35,0,0,0,1.42,3h0a1.4,1.4,0,0,0,.09.17,1.4,1.4,0,0,1,.1.16,64.55,64.55,0,0,0,4,6.29c.29.4.68.78.62,1.35h0l-.05.06c-.49.5-.87,0-1.08-.31-1-1.6-2.56-1.73-4.34-1.47a13.21,13.21,0,0,0,1.09,1.69,38.07,38.07,0,0,1,4.85,13.45,4.66,4.66,0,0,0,1.57,2.95A68.24,68.24,0,0,1,114,74.56Z"/><path class="cls-2" d="M99.39,24l.7.4a11,11,0,0,0-6.77,2.55l0,0-.23.16h0a2.69,2.69,0,0,0-.72,2.5c0,.44.3.88,0,1.31l0,0c-.62.42-.43,1.07-.42,1.64a1.57,1.57,0,0,1-.94,1.61,8.36,8.36,0,0,0-3,2.53h-.13c-.84,0-1.3-.69-1.88-1.14a31.71,31.71,0,0,0-14-6.45,2.69,2.69,0,0,1-1.83-.77.78.78,0,0,1,0-.14.3.3,0,0,1,0-.13h0a.17.17,0,0,1,0-.07c1.93-5.82,4-11.58,7.75-16.51l.38.22,9.21,5.32.39.22a41.24,41.24,0,0,0-5.19,8.6c-.6,1.31-1.18,2.62-1.73,4.06a43.32,43.32,0,0,1,5.68-4.09,41.36,41.36,0,0,1,6.47-3.11c.85-.34,1.7-.66,2.56-1l.45.26Z"/><path class="cls-2" d="M111.7,33.73l-.13,0h0l-.1,0c-.75-.33-.77-1.15-1-1.77l-.15-.32a14.24,14.24,0,0,1,1.07,1.51,2.85,2.85,0,0,1,.23.37Z"/><path class="cls-1" d="M96.08,22.07a65.11,65.11,0,0,0-6.38,2.6,37.5,37.5,0,0,0-9.45,6.44,3,3,0,0,1,.41-1.56c.2-.53.4-1.05.62-1.56a47.75,47.75,0,0,1,6.17-10.9l.39.22,7.79,4.5Z"/><path class="cls-2" d="M114,51.68V75.3a73.45,73.45,0,0,0-10.25-12.11,16.73,16.73,0,0,0-2.16-1.88,2.71,2.71,0,0,1-1.23-2c-1-5.81-2.67-11.34-6.29-16.11a1.16,1.16,0,0,1-.1-.34c2,0,4.1-.64,5.35,1.7.12.22.3.61.73.45l.1,0c.49-.09.68.37.93.63a11.25,11.25,0,0,1,2.29,2.58l0,0a2.33,2.33,0,0,1,.07.25,1,1,0,0,0,.24.48c1.85,1.8,3.66,3.65,5.61,5.57a22.25,22.25,0,0,0,.63-3.42c.33-1.66.78-1.87,2.12-.9C112.7,50.65,113.34,51.16,114,51.68Z"/><path class="cls-2" d="M109,98.67c-.18.18-.36.36-.55.53a16.78,16.78,0,0,1-3,2.19l-2.51,1.45-.47.27a56,56,0,0,0-3.12-22.74,3.54,3.54,0,0,1,.09-2.85,39.53,39.53,0,0,0,2.07-5.8c.54,1.07,1.09,2.13,1.6,3.22a61.91,61.91,0,0,1,5.49,19.51C108.75,95.85,108.88,97.26,109,98.67Z"/><path class="cls-2" d="M15.91,96.12a51,51,0,0,0,0,7.82l-.51-.3-3.9-2.25a15.61,15.61,0,0,1-1.67-1.11,3.27,3.27,0,0,1-.37-.28c.07-1.53,0-3,.19-4.57a65.07,65.07,0,0,1,4.47-17.8c.66-1.59,1.44-3.12,2.19-4.66.17-.34.23-.77.69-1a36.34,36.34,0,0,0,2.25,6.41,1.9,1.9,0,0,1-.11,1.6A58.12,58.12,0,0,0,15.91,96.12Z"/><path class="cls-2" d="M98.26,85.17A122.51,122.51,0,0,1,96,99.8q-.93,4.17-2.1,8.25l-.51.3-4.46,2.57-.58.34c.79-1.87,1.5-3.77,2.16-5.71,1.9-5.59,3.4-11.31,3.24-17.32a1.52,1.52,0,0,1,.17-1,53.06,53.06,0,0,0,4.36-7.06A17.27,17.27,0,0,1,98.26,85.17Z"/><path class="cls-2" d="M30.46,112.32l-.66-.38-4.56-2.63L24.7,109a121.43,121.43,0,0,1-4-18.73c-.36-2.85-.56-5.71-.82-8.56a2.14,2.14,0,0,1,.31-1.2,19.92,19.92,0,0,0,1.76,3c2.24,2.63,2.65,5.73,2.94,9A61.84,61.84,0,0,0,30.46,112.32Z"/><path class="cls-1" d="M114,42.25v10c-.82-.7-1.66-1.37-2.51-2s-1-.31-1.12.46c-.17,1.14-.34,2.28-.49,3.42a1.43,1.43,0,0,1-.43,1.06c-2.15-2-4.26-4.15-6.26-6.35a.38.38,0,0,1-.07-.54.54.54,0,0,1,.27-.07.73.73,0,0,1,.29.07l.13.06h0l0,0c3.29,2.33,4.64,1.07,5.92-1.73,1.7-3.74,2.62-7.6,1.67-11.73a1.37,1.37,0,0,1,0-1.17l.07-.08a.5.5,0,0,1,0-.13l.15.23A17.12,17.12,0,0,1,114,42.25Z"/><path class="cls-3" d="M70.25,28.28c2.28.65,4.64,1,6.87,1.87A36,36,0,0,1,88,36.76a34.9,34.9,0,0,1,9.89,34.75c-.18.68-.48,1.33-.72,2C95,78.22,91,80.9,86.55,83a6.24,6.24,0,0,1-2.65.81,8.43,8.43,0,0,1,3.38,4.6,34.06,34.06,0,0,1,0,8.32c-.07.43-.19.85-.28,1.27a10.5,10.5,0,0,1-7.93,7.21,7.26,7.26,0,0,1-4.89-.59c-1.16-.54-1.25-1.06-.66-2.16.89-1.63,2-3.18,2.09-5.14-.33-2.86-1.24-3.79-4.13-4.21a1.83,1.83,0,0,1-.78-.25,2.25,2.25,0,0,1-.42-1.35,41.31,41.31,0,0,0-5.12-14.25,22.21,22.21,0,0,0-4.34-4.93c-1.4-1.24-2.56-1.21-4.07.06a22.45,22.45,0,0,0-5.25,6.79,42.71,42.71,0,0,0-4,11.78A4.45,4.45,0,0,1,47,92.76a1.68,1.68,0,0,1-1.1.35A4,4,0,0,0,42.23,96a3.74,3.74,0,0,0,.24,3,18.69,18.69,0,0,0,1.84,3.48c.62.93.51,1.47-.49,2a7.16,7.16,0,0,1-5.34.66,10.65,10.65,0,0,1-7.27-6.07c-.13-.28-.14-.63-.42-.83a22.63,22.63,0,0,1-.39-8.44c-.18-2.6,1.49-4.24,3.12-6a29.92,29.92,0,0,1-5.26-2.33,27.87,27.87,0,0,1-6.05-5.25,10.09,10.09,0,0,1-1.69-3,31.85,31.85,0,0,1-1.79-12.69,36.14,36.14,0,0,1,3.75-14.22c-.1-1.09.75-1.78,1.16-2.66.19-.39.48-.73.7-1.1A31.35,31.35,0,0,1,30,36.15a32.51,32.51,0,0,1,15-7.7c1.44-.32,2.9-.58,4.33-.95A30,30,0,0,1,55,27c2.48.05,5,.09,7.43,0a51.93,51.93,0,0,1,6.82.76A1.6,1.6,0,0,1,70.25,28.28Z"/><path class="cls-2" d="M24.61,42.78l-2.13,3.58-.05,0a5.73,5.73,0,0,0-1.38,2.4A46.46,46.46,0,0,0,18,59.58a3,3,0,0,1-1.14,1.87A70.26,70.26,0,0,0,3,77.53V53a31.41,31.41,0,0,1,3.33-2.73c1.38-1,1.81-.81,2.14.83a18.88,18.88,0,0,0,.64,3.56c1.4-1.36,2.72-2.61,3.94-4,2.16-2.45,4.51-4.74,6.56-7.3.83-1,3.27-1.33,4.7-.75A2,2,0,0,1,24.61,42.78Z"/><path class="cls-4" d="M82.49,107.26c-.39,2.26-1.74,4-3.12,5.7a17.4,17.4,0,0,1-12.07,6.55,68.13,68.13,0,0,1-7.43.08c-2.5,0-5,0-7.51,0-7-.14-12.23-3.38-15.84-9.31a7.67,7.67,0,0,1-1.33-3.17c.47-.18.77.14,1,.41a23,23,0,0,0,5.54,4,23,23,0,0,1,1.47,2c1.27,1.43,2.31,1.53,3.75.31a1.28,1.28,0,0,1,.84-.42A18.23,18.23,0,0,0,58.13,111,1.35,1.35,0,0,1,59.5,111a19.5,19.5,0,0,0,10.42,2.52c.16,0,0,0,.12,0a2.22,2.22,0,0,1,1,.55,2.12,2.12,0,0,0,3.17-.23c.75-.69,1.06-1.69,1.79-2.39a24.92,24.92,0,0,0,5.39-3.7C81.73,107.47,82,107.17,82.49,107.26Z"/><path class="cls-3" d="M109.8,47.51c-1.65,3.41-4.08,3-6.27,1l.12-.23a17,17,0,0,0,1.84-3.34,8.83,8.83,0,0,0,.35-.9h0a9.67,9.67,0,0,0,.4-2,10.64,10.64,0,0,0-3.37-8.82,6.23,6.23,0,0,0-7.77-.08c-.39.3-.72.78-1.25.84a1,1,0,0,1-.37,0c-.41-1-.81-2-1.21-2.93,0,0,0,0,0-.06-.48-1.54-.87-3.07.79-4.23a.92.92,0,0,1,.23.26,2.5,2.5,0,0,1,.18.94,2,2,0,0,0,2,1.94,4.87,4.87,0,0,0,1.89-.26A8.69,8.69,0,0,1,106,31.49a13.52,13.52,0,0,1,3.24,4,4.31,4.31,0,0,0,.24-2.8,11.43,11.43,0,0,0-1.65-3.6,12.52,12.52,0,0,1,1.09,1,16.66,16.66,0,0,1,2.45,3c.07.17.13.33.19.5l0,.11C112.94,38.57,111.93,43.1,109.8,47.51Z"/><path class="cls-5" d="M76,97.23c0,2.12-1.14,3.79-2.22,5.45-.5.78-.36,1.08.36,1.46,2.8,1.51,6.92.77,9.55-1.68A19.32,19.32,0,0,0,87,98a14.11,14.11,0,0,1-3.36,7,5.16,5.16,0,0,1-1.49,1.82,43.47,43.47,0,0,1-5.75,4,24.69,24.69,0,0,1-7.31,1.47,31.53,31.53,0,0,1-6.79-.51,4.36,4.36,0,0,1-1.79-.63c-1.47-2.37,0-5,2.85-5a13.9,13.9,0,0,0,7.7-2.24,7.66,7.66,0,0,0,3.36-3.91c.51-.82.75-1.76,1.19-2.61A.31.31,0,0,1,76,97.23Z"/><path class="cls-5" d="M30.79,98.27a25,25,0,0,0,3.72,4.48,8.54,8.54,0,0,0,8.83,1.58c1.27-.59,1.27-.73.52-1.88a13.62,13.62,0,0,1-2.1-4.54,2.76,2.76,0,0,1,.1-2.09,1,1,0,0,1,.42.84,6.78,6.78,0,0,0,1.14,3.45,9,9,0,0,0,4.63,4.48A11.75,11.75,0,0,0,53.8,106a5.42,5.42,0,0,1,1.54.16A2.94,2.94,0,0,1,57.07,111a10.66,10.66,0,0,1-4.74,1.09,23.9,23.9,0,0,1-3.59,0,15.72,15.72,0,0,1-7.53-1.67c-2.66-1.42-5.32-2.84-7-5.49A14,14,0,0,1,30.79,98.27Z"/><path class="cls-6" d="M105.77,45.19a5.66,5.66,0,0,1-2.23,3.3l-.45-.23Q101.56,46.61,100,45a53.32,53.32,0,0,1-4.83-7.51A4.26,4.26,0,0,1,99.41,34a5.83,5.83,0,0,1,5.08,2.68A8.7,8.7,0,0,1,106,43.79,11.12,11.12,0,0,1,105.77,45.19Z"/><path class="cls-5" d="M20.52,73.26a24.52,24.52,0,0,0,8.81,8.42,28.18,28.18,0,0,0,5,2c-2,1.7-3.55,3.57-4,6.14a2.54,2.54,0,0,0-1-2.37,33.62,33.62,0,0,1-8.5-12.83A3.11,3.11,0,0,1,20.52,73.26Z"/><path class="cls-5" d="M87.28,88.39c-1.15-1.6-2.1-3.36-3.89-4.63a31.65,31.65,0,0,0,6-2.61,24.64,24.64,0,0,0,7.76-7.65,22.72,22.72,0,0,1-3.08,6.93A29.54,29.54,0,0,1,87.28,88.39Z"/><path class="cls-5" d="M105.77,45.19a13.75,13.75,0,0,0-.49-6.27c-1.07-2.7-3.16-4.47-5.49-4.55s-3.57,1.3-4.6,3.09a15,15,0,0,1-1.71-3.54c1.2-1,2.32-2.09,3.93-2.41a6.68,6.68,0,0,1,7.07,2.67C107,37.56,107.12,41.31,105.77,45.19Z"/><path class="cls-7" d="M34.18,105a32,32,0,0,0,7,5.12c.34.47.84.9.43,1.58A16.08,16.08,0,0,1,36.15,108c-.31-.3-.64-.58-1-.87C34.83,106.41,33.93,106,34.18,105Z"/><path class="cls-8" d="M76.56,110.36a2.84,2.84,0,0,1,.58-.57,35.56,35.56,0,0,0,6.52-4.86c.09,1-.82,1.54-1.17,2.33a20.13,20.13,0,0,1-6.29,4.4C75.83,111.09,76,110.68,76.56,110.36Z"/><path class="cls-2" d="M78.24,11.77A39.86,39.86,0,0,0,71.42,26.1a10.61,10.61,0,0,1-1.17,2.18h-.14l-.4-.05-5.8-.73-1-.1-.28,0c-1-.08-2-.11-3-.11-1.46,0-2.92,0-4.38,0a.61.61,0,0,1-.2-.09h0a.79.79,0,0,1-.22-.18,2.12,2.12,0,0,1-.29-1.11c-.23-1.7-.4-3.4-.6-5.1A39.28,39.28,0,0,0,49.45,5.58l.35-.21L50,5.29a17.23,17.23,0,0,1,4.5-1.8h8.06A17.23,17.23,0,0,1,67,5.29l1,.56,9.14,5.28.74.42Z"/><path class="cls-9" d="M109.26,36.64A13.13,13.13,0,0,0,106,32a8.29,8.29,0,0,0-8.61-2,4.89,4.89,0,0,1-2,.26A2.24,2.24,0,0,1,93,27.78c0-.22,0-.44,0-.66V26.7A10.19,10.19,0,0,1,99.39,24l.7.4,5.35,3.09a16.67,16.67,0,0,1,2.33,1.62v0a12.52,12.52,0,0,1,1.09,1,12.18,12.18,0,0,1,1.06,3A5.32,5.32,0,0,1,109.26,36.64Z"/><path class="cls-2" d="M7.58,30.63a13.28,13.28,0,0,1,1.13-1.12,19.35,19.35,0,0,0-1.34,2.41,3.75,3.75,0,0,1-.92,1.62h0l-.1.08-.08,0-1.08.28a3.18,3.18,0,0,1,.23-.4A16.79,16.79,0,0,1,7.58,30.63Z"/><path class="cls-2" d="M49.06,27.91c-2.66.73-5.41,1.14-8,2.1a35.37,35.37,0,0,0-10.91,6.48,3.68,3.68,0,0,1-.35-.15,22.34,22.34,0,0,1-3.12-2.09c-.49-.33-.49-1-.54-1.51a9.11,9.11,0,0,0-.39-2.49,1.67,1.67,0,0,0-.08-.2l-.09-.19c-.28-.81.06-1.84-.66-2.5a2.43,2.43,0,0,0-.29-.21h0a9.84,9.84,0,0,0-7.79-2.7h-.26l-.2,0a.78.78,0,0,0,.11-.38A11.45,11.45,0,0,1,17.6,24l3.64-2.11.47-.27c2,.69,3.89,1.46,5.82,2.26A35.61,35.61,0,0,1,37.35,30,42.06,42.06,0,0,0,30,16.83l.37-.21,10.33-6,.35-.21a41.57,41.57,0,0,1,7.74,16.43,6.44,6.44,0,0,0,.24.7h0A1.65,1.65,0,0,1,49.06,27.91Z"/><path class="cls-1" d="M38.07,30.9l-.15,0h0a6.82,6.82,0,0,1-2-1.54,46,46,0,0,0-14.68-7.46l.47-.27L30,16.83l.37-.21a39.34,39.34,0,0,1,6.3,10.47A20.74,20.74,0,0,1,38,30.8Z"/><path class="cls-1" d="M30.12,36.49a41.75,41.75,0,0,0-5.51,6.29H22.93a4.29,4.29,0,0,0-3.8,1.69A121.34,121.34,0,0,1,9.62,54.72c-.21.22-.41.63-.73.53s-.33-.58-.38-.93C8.36,53.18,8.19,52,8,50.9s-.29-1.21-1.29-.48A38.86,38.86,0,0,0,3,53.55V42.25a16.94,16.94,0,0,1,2.18-8.33,3.18,3.18,0,0,1,.23-.4c.3-.05.61-.09.92-.12a1.34,1.34,0,0,1,.11.14h0c.22.35.07.73,0,1.1a18.15,18.15,0,0,0,2,12.82c1.27,2.4,2.67,2.71,4.95,1.18.16-.11.34-.21.49-.33l.05,0,.13-.11c2.88-2.33,4.82-5.42,6.79-8.47.46-.71.87-1.44,1.29-2.16.07-.1.13-.21.19-.31h0l.18-.33h0c.5-.91.89-1.89,1.32-2.85h0c0-.07.06-.15.1-.23l.06-.12c.57-1.18.75-2.55,1.6-3.61a2.25,2.25,0,0,1,.21-.24,5.41,5.41,0,0,1,.67,3.07,1.43,1.43,0,0,0,.82,1.43,8.62,8.62,0,0,1,2.57,1.91Z"/><path class="cls-1" d="M55.11,27.17h0c-.07.14-.21.15-.34.18l-5.7.55a.69.69,0,0,1-.5-.22h0a1,1,0,0,1-.19-.43,39.87,39.87,0,0,0-7.71-16.59l.35-.21,8.44-4.87.35-.21a33.68,33.68,0,0,1,2.42,5.2,45.92,45.92,0,0,1,2.16,10c.24,2.15.47,4.29.71,6.45h0A1,1,0,0,0,55.11,27.17Z"/><path class="cls-1" d="M77.12,11.13A43.72,43.72,0,0,0,69.78,27.9h0c0,.11,0,.2-.07.31l-5.8-.73-1-.1V27C63,21.27,64.43,12.64,68,5.85Z"/><path class="cls-9" d="M46.94,92.66a38.08,38.08,0,0,1,2.39-9.59A27.21,27.21,0,0,1,56,72.52c2.11-2,3.62-2,5.74,0,4.62,4.24,6.78,9.75,8.29,15.62a13.52,13.52,0,0,1,.74,4.55,1,1,0,0,1-.74.53c-1.74.51-3.38,1.29-5.12,1.81l-.74.29a17.33,17.33,0,0,1-9.23.33c-.67-.23-1.34-.46-2-.64-1.83-.54-3.52-1.44-5.39-1.88A.76.76,0,0,1,46.94,92.66Z"/><path class="cls-5" d="M41.68,82c-.8.91-2,.81-3,.87-6.61.39-11.86-4.59-13.1-10.82a12.9,12.9,0,0,1,3.73-12.49,6.87,6.87,0,0,1,1.85-1.32,1.06,1.06,0,0,0,.62-1.53,5.84,5.84,0,0,1,0-3.87,1.41,1.41,0,0,1,2.06-.93,43.08,43.08,0,0,1,12.2,6.74,3.9,3.9,0,0,0,1.53.91c2.61.48,3.24,2.52,3.59,4.65A5.34,5.34,0,0,1,49.8,69a2.15,2.15,0,0,0-.44,1.68c0,1.12.13,2.29-.65,3.27-.75-.78-.18-1.67-.22-2.51,0-1.07-.48-1.49-1.53-1.41a4.29,4.29,0,0,1-1.87-.31A20.66,20.66,0,0,1,36.64,64c-.59-.81-1.4-1.43-2-2.24a1.26,1.26,0,0,0-1.78-.36,9.94,9.94,0,0,0-5.67,10.08A11.52,11.52,0,0,0,40.44,81.81C40.85,81.74,41.31,81.58,41.68,82Z"/><path class="cls-5" d="M68.83,73.52a6.25,6.25,0,0,1-.51-3,2.58,2.58,0,0,0-.69-1.94c-1.82-2.15-1.3-6.65.9-8.4a.62.62,0,0,1,.19-.14c3.32-1,5.59-3.77,8.65-5.22A43,43,0,0,1,83.46,52c1.72-.51,2.71.18,2.85,2a7.39,7.39,0,0,1-.41,3,.72.72,0,0,0,.38,1,12.31,12.31,0,0,1,6.09,9.75c.7,6.5-3.47,13.09-9.54,14.69-2.23.59-4.47.82-6.62-.34.44-.44,1-.22,1.47-.19A11.2,11.2,0,0,0,87.9,77.66a11,11,0,0,0,1.22-12.52,10.15,10.15,0,0,0-4-3.68,1.46,1.46,0,0,0-2.1.37,23.43,23.43,0,0,1-2,2.25,20.78,20.78,0,0,1-8.31,5.67,4.94,4.94,0,0,1-2.11.35c-1-.06-1.34.44-1.37,1.37C69.22,72.17,69.42,72.93,68.83,73.52Z"/><path d="M64.71,94.69c2-.63,3.86-1.79,6-2A5.09,5.09,0,0,1,75,94.13a4,4,0,0,1,1,3.1.31.31,0,0,0-.19,0c-1.22,3.46-3.89,5.34-7.16,6.54a29.44,29.44,0,0,1-5.17,1,21,21,0,0,1-8.54.11,52.92,52.92,0,0,1-5.41-1c-3-1-5.54-2.48-7-5.43a13,13,0,0,1-.58-1.69l-.07-1c.81-2.48,2.69-3.23,5.08-3.16,2.16.21,4,1.34,6,2-.32.8-1,.52-1.53.44a28.31,28.31,0,0,0-4.39-.54,6.46,6.46,0,0,0-1.08.06c-.9.16-1.08.6-.53,1.31a6.07,6.07,0,0,0,1.64,1.39c6.29,3.86,12.88,4.78,19.83,2a15.08,15.08,0,0,0,5-3c.33-.32.9-.6.68-1.15s-.84-.52-1.36-.56a24,24,0,0,0-5,.52C65.7,95.18,65,95.48,64.71,94.69Z"/><path class="cls-9" d="M52,51.41a18.5,18.5,0,0,1,1.16,4.11c.16.68-.16.91-.84.95a10.33,10.33,0,0,1-5.88-1.75A17.62,17.62,0,0,1,38,42.8c-.24-1.15,0-1.45,1.16-1.48,2.4-.06,4.82-.17,6.87,1.43,1,3.27,2.43,6.3,5.13,8.55C51.37,51.52,51.61,52,52,51.41Z"/><path class="cls-9" d="M71.66,43a6.82,6.82,0,0,1,4.26-1.63h2.39c1.47,0,1.82.36,1.48,1.8-1.41,6.11-6.1,11.76-12.48,13.17-2.71.6-3,.32-2.33-2.34a2.8,2.8,0,0,1,.44-1.34,10,10,0,0,1,1.25-1.27,13.91,13.91,0,0,0,3.85-5.53C70.92,44.86,71.26,43.89,71.66,43Z"/><path class="cls-10" d="M41.68,82C35.39,83.89,28.27,79.4,27,72.71c-1-5.23,1.47-10,6.07-11.89.72-.29,1.21-.32,1.71.41a30.56,30.56,0,0,0,2.12,2.58c-.15.41-.54.45-.87.53a6.45,6.45,0,0,0-4.85,4.3,1.5,1.5,0,0,1-.46.68c-1.18.52-2,1.24-1.43,2.68a.63.63,0,0,1-.24.75c-.79.56-.53,1.25-.27,1.93,1.21,3.17,3.67,4.91,6.79,5.88a11.71,11.71,0,0,0,1.87.39,7.24,7.24,0,0,0,7.45-4.4,1.76,1.76,0,0,0-.28-2.09,1.2,1.2,0,0,1-.08-.56c.27-.93.08-2,.66-2.83a12.52,12.52,0,0,1,3.66.27A7.87,7.87,0,0,1,48.71,74c0,.24-.08.48-.13.72s0,0,0,.1a12,12,0,0,1-5.67,6.58Z"/><path class="cls-10" d="M88.21,77.82c-2,3.13-7,5.19-10.82,4.48l-1.18-.2a10.22,10.22,0,0,1-6.69-6.19c-.29-.77-.47-1.59-.69-2.39a16,16,0,0,1,.09-3.09c.1-.53.32-.75.87-.71a11.75,11.75,0,0,0,3.07-.33c.32.35.17.68,0,1a4.93,4.93,0,0,1-1,.64,1.44,1.44,0,0,0-.8,1.35,1.35,1.35,0,0,0,1,1.15,1.73,1.73,0,0,1,.84.4.67.67,0,0,1,.07.34c-.74,1.29-.26,2.41.53,3.43,2.55,3.32,5.23,4.09,9.19,2.69a12.63,12.63,0,0,0,3.68-2,3,3,0,0,1,1.33-.79A.65.65,0,0,1,88.21,77.82Z"/><path class="cls-11" d="M71.66,43a.33.33,0,0,1,.17.4c-1.13,3.55-2.7,6.81-5.88,9a2.83,2.83,0,0,1-.53.23C66.26,48.59,67.81,45,71.66,43Z"/><path class="cls-11" d="M52,51.41v1A13.87,13.87,0,0,1,47.76,48a21.16,21.16,0,0,1-1.92-4.48c-.09-.26-.2-.54.14-.72C49.43,44.63,51,47.85,52,51.41Z"/><path class="cls-12" d="M51.45,71.46c1.51,3.1-.54,7-3.4,9.72A73.5,73.5,0,0,0,51.45,71.46Z"/><path class="cls-13" d="M66.29,71.4A67.37,67.37,0,0,0,69.72,81C67.07,79.09,64.87,74.68,66.29,71.4Z"/><path class="cls-10" d="M42.86,81.39c.11-1,1.2-.86,1.74-1.42A14.29,14.29,0,0,0,48,75.43a3.22,3.22,0,0,1,.58-.72C47.77,77.88,46.05,80.27,42.86,81.39Z"/><path class="cls-14" d="M48.6,111.76a33.11,33.11,0,0,0,7-.58c.5-.12,1-.3,1.47-.45,1.62-1,2.18-1,3.57,0a22.75,22.75,0,0,0,7.05,1c.51,0,1,.06,1.54.09a1.69,1.69,0,0,1,1,2,16.69,16.69,0,0,1-10.66-2.36c-.61-.37-1-.18-1.49.12a17,17,0,0,1-10,2.28,1.56,1.56,0,0,1-.44-.16A1.54,1.54,0,0,1,48.6,111.76Z"/><path class="cls-15" d="M48.6,111.76l-1,1.89c-1.86,2.06-3.42,2-5.07-.37-.37-.51-.65-1.08-1-1.62-.14-.53-.28-1-.43-1.58A20.21,20.21,0,0,0,48.6,111.76Z"/><path class="cls-15" d="M70.21,113.77l-1-2a23.7,23.7,0,0,0,7-1.56c.07,0,.21.07.32.11l-.36,1.3c-.4.63-.75,1.31-1.21,1.9C73.46,115.56,72,115.61,70.21,113.77Z"/><path class="cls-16" d="M41.93,96.79a11.39,11.39,0,0,0,4.58,5.34,17,17,0,0,0,6.55,2.1,22.85,22.85,0,0,1,3.54.48c2,.65,3.92,0,5.87-.24,2.36-.32,4.76-.43,7-1.41a12.75,12.75,0,0,0,6.31-5.79,5.25,5.25,0,0,1-1,2.64c-2.4,4.16-6.39,5.59-10.8,6.2a9.17,9.17,0,0,0-4,1.3,1.7,1.7,0,0,1-2.12,0A8.81,8.81,0,0,0,53.33,106c-4.22-.53-7.81-2.21-10.28-5.84A6.81,6.81,0,0,1,41.93,96.79Z"/><path class="cls-17" d="M43.05,100.2a18.33,18.33,0,0,0,4.62,3.68,26.71,26.71,0,0,0,7.76,2.26c.24,0,.48.06.71.1,1,.17,1.85,1.24,2.8,1.19s1.73-1,2.8-1.19A36.46,36.46,0,0,0,67.56,105a15,15,0,0,0,7.24-5c-.74,2.39-2.6,3.77-4.62,5a13.1,13.1,0,0,1-6.68,1.57c-2.37,0-3.41,1.29-3.09,3.63a5.41,5.41,0,0,0,.19.69,4.94,4.94,0,0,0-3.57,0c1-2.71-.07-4.3-3-4.3a12.53,12.53,0,0,1-9.75-4.22A5.56,5.56,0,0,1,43.05,100.2Z"/><path class="cls-3" d="M25.85,29.81c0,.15-.08.3-.13.44a23.27,23.27,0,0,1-1.38,3.62.83.83,0,0,1-.46.15c-.36,0-.63-.32-.87-.58-2.5-2.63-7.6-2.26-9.92,1.7a10.84,10.84,0,0,0-1.56,6.5v0a11.52,11.52,0,0,0,.38,2.05c.07.27.16.53.25.8a14.39,14.39,0,0,0,1.93,3.63l.18.31a12.93,12.93,0,0,1-1,.81c-1.79,1.11-3.6,1.18-4.84-1-2.57-4.61-3.62-9.43-2.15-14.6,0-.08,0-.16.07-.24a19.82,19.82,0,0,1,1.25-2.77,13.28,13.28,0,0,1,1.13-1.12c.33-.3.68-.58,1-.85a12.56,12.56,0,0,1,1.36-.93,10.73,10.73,0,0,0-1.64,2.11,8.1,8.1,0,0,0-1.25,4.07,2.69,2.69,0,0,0,.35,1.58c.5-.69.83-1.37,1.27-2a9.6,9.6,0,0,1,10.94-3.82c2.08.58,3.15-.05,3.69-2.13a2.8,2.8,0,0,1,.13-.41.58.58,0,0,1,.27-.29C26.07,27.56,25.82,28.73,25.85,29.81Z"/><path class="cls-9" d="M24.89,27.36c0,2.81-2.28,3.44-4.67,2.56-3.14-1.15-7.47.38-9.68,3.33a10.74,10.74,0,0,0-1.61,2.63c-.08.21-.14.52-.45.47s-.32-.32-.39-.54a6.82,6.82,0,0,1,.46-5.11,12,12,0,0,1,1.2-2,12.56,12.56,0,0,1,1.36-.93A12.8,12.8,0,0,1,15.35,25c.34-.15.78-.19,1-.53a.78.78,0,0,0,.11-.38A11.45,11.45,0,0,1,17.6,24a9.83,9.83,0,0,1,7.27,2.89A4.26,4.26,0,0,1,24.89,27.36Z"/><path class="cls-6" d="M14.28,48.48a5.32,5.32,0,0,1-2.34-3.79,8.89,8.89,0,0,1,2.85-9.59,5.06,5.06,0,0,1,7.26.84,1.86,1.86,0,0,1,.5,1.66,44.56,44.56,0,0,1-7.18,10C15,47.9,14.64,48.18,14.28,48.48Z"/><path class="cls-5" d="M22.55,37.6c-1.78-3.88-5.94-4.41-8.66-1.06a8.79,8.79,0,0,0-2,6c0,.72.05,1.44.07,2.16-.75-.58-.51-1.48-.67-2.23-.76-3.7.93-8.08,3.79-10a6.43,6.43,0,0,1,8.31.75c.29.27.51.64,1,.64A23.66,23.66,0,0,1,22.55,37.6Z"/><path class="cls-18" d="M64.71,94.69c1.41.33,2.73-.29,4.09-.44a18.92,18.92,0,0,1,3.1-.08,1.4,1.4,0,0,1,1.36.84c.21.58-.29.92-.67,1.28a19.42,19.42,0,0,1-10.51,4.78c-5.89,1-11.21-.64-16-4-.7-.48-1.77-1-1.43-2.13s1.51-.8,2.38-.83a22.2,22.2,0,0,1,4.73.6c.43.08.85.26,1.25-.07l1.9.53c-.35.85-1.17.15-1.76.56a10,10,0,0,0,3.5,1.39c2.68.83,5.13-.07,7.56-1,1-.37,0-.82,0-1.23Z"/><path class="cls-19" d="M58.37,84.8A21.09,21.09,0,0,1,60,89.51c.39,1.34.63,2.72,1,4.06.26,1-.11,1.35-1.06,1.33-.51,0-1,0-1.55,0-1.95,0-2,0-1.8-1.89A27.21,27.21,0,0,1,58,85.76C58.06,85.48,58.19,85.2,58.37,84.8Z"/><path class="cls-20" d="M64.2,94.89c.2.24.52.17.76.29.55.27.63.68.06.95-2.62,1.21-5.28,2.28-8.26,1.48A22.46,22.46,0,0,1,53,96.34c-.32-.15-.74-.34-.66-.74s.59-.46,1-.47,1,.43,1.5.07A19.55,19.55,0,0,0,64.2,94.89Z"/><path class="cls-21" d="M30.64,69.17a6.77,6.77,0,0,1,6.27-5.36,24,24,0,0,0,8,5.58,1.13,1.13,0,0,1,.37,1.71,6.06,6.06,0,0,1-.5,2.88,3.62,3.62,0,0,1-2.37-1.46,1.49,1.49,0,0,1,0-1.08c.33-.59,1.13-1.26-.24-1.61a1.33,1.33,0,0,1-.26-.21c-.82-1.18-1.65-2.34-3.24-2.53a4,4,0,0,0-4.75,2,1.76,1.76,0,0,1-.71.77C32.23,70,31.28,70.13,30.64,69.17Z"/><path class="cls-10" d="M45.28,71.1c-.12-.57-.25-1.14-.37-1.71a18.77,18.77,0,0,0,3.17.36c1.21,0,.65,1,.78,1.59C47.64,71.58,46.42,71.93,45.28,71.1Z"/><path class="cls-10" d="M88.21,77.82h-.45c-.24-.42,0-.76.2-1.1s.46-.75.64-1.15c1-2,.9-2.21-1.08-3.19a1.33,1.33,0,0,1-.38-.29,1.37,1.37,0,0,1-.22-.68,7.11,7.11,0,0,0-2.15-5.51,7.54,7.54,0,0,0-3.41-1.65c-.25-.07-.48-.15-.56-.44.8-.94,1.63-1.86,2.38-2.84.4-.51.76-.42,1.25-.23a9.72,9.72,0,0,1,6.38,7.76A10.68,10.68,0,0,1,88.21,77.82Z"/><path class="cls-22" d="M80.8,63.81l.71.13c-.16,1.3-1.2,2-2,2.77a3,3,0,0,1-.59.32A4.56,4.56,0,0,0,76,69.64a2.17,2.17,0,0,1-.87,1c-.83.21-1.68.42-2.4-.3l.16-1A22.45,22.45,0,0,0,80.8,63.81Z"/><path class="cls-23" d="M30.64,69.17a10,10,0,0,0,2.59.49c1.7-.43,3,.25,3.09,1.64-.67,1.08-1.85,1.08-2.91,1.34-2.26.47-2.31.62-.94,2.56,2.43,3.44,8.32,4.38,11.22.29.29-.42.51-.93,1.1-1,.89.19,1,.71.73,1.51-1.58,4.29-5.38,6.72-10.55,4.85-3.38-1.23-6-3.3-6.86-7-.08-.31-.26-.78,0-.88,1.13-.36.66-1.09.57-1.82C28.57,70,29.19,69.43,30.64,69.17Z"/><path class="cls-24" d="M44.79,74.46c-1.39,2.8-3.61,4.34-6.79,4.15a7.88,7.88,0,0,1-6.82-4.75c-.42-.82-.39-1.33.71-1.34a13.63,13.63,0,0,0,1.41-.19c.52.23.7.74,1,1.16A4.66,4.66,0,0,0,40,75.27a4.72,4.72,0,0,0,2.24-2.52.59.59,0,0,1,.46-.23A9.15,9.15,0,0,1,44.78,74Z"/><path class="cls-25" d="M87.18,72c2.76.51,2.93.87,1.92,3.44-.35.86-1,1.53-1.34,2.37a13.09,13.09,0,0,1-9,3.61,5.1,5.1,0,0,1-3.74-1.56c-1.11-1.13-2.43-2.1-2.8-3.78-.17-.76-.18-1.43.6-1.87.47.12.7.52.93.88a6.29,6.29,0,0,0,6.91,3,7.5,7.5,0,0,0,5.67-4.67C86.58,72.9,86.54,72.25,87.18,72Z"/><path class="cls-24" d="M87.18,72c-1.11,4.39-4.55,7-8.67,6.56a6.84,6.84,0,0,1-5.66-4.35.46.46,0,0,0,.06-.23c.56-1.08,1.51-1.1,2.53-.93a1.35,1.35,0,0,1,.58.58c2,3.2,6.45,2.31,7.81-.84a7.89,7.89,0,0,0,.48-1.47.86.86,0,0,1,.22-.46c1-.14,1.78.45,2.71.48Z"/><path class="cls-26" d="M75.48,73.27a5.16,5.16,0,0,0-2.57.72,2,2,0,0,1-2.14-.93c-.65-1.24.16-2.37,1.93-2.72h2.56a2.56,2.56,0,0,1,3.31,1.15A2.44,2.44,0,0,1,75.48,73.27Z"/><path class="cls-27" d="M42.65,72.52l-.21.29a18.39,18.39,0,0,0-5.64-1.1.78.78,0,0,1-.69-.4c.1-.74-.43-.94-1-1.12s-1.28-.36-1.92-.53c1-2.62,3.18-3.75,5.55-2.9a26.21,26.21,0,0,1,3.29,2.66.17.17,0,0,1,.08.16,1.54,1.54,0,0,0,.47,1.76Z"/><path class="cls-28" d="M42.62,71.34c-.48,0-.95-.1-1.09-.65s.22-.85.62-1.11c.53,0,1.12-.11,1.32.52S43.09,71.05,42.62,71.34Z"/><path class="cls-29" d="M42.07,69.42a7.16,7.16,0,0,1-3.29-2.66A4.31,4.31,0,0,1,42.07,69.42Z"/><path class="cls-30" d="M87.24,71.35c-1,.72-1.77,0-2.56-.5-.6-.45-.54-1.17-.71-1.79.17-1.72.61-1.76-1.45-1.65-1-.5-2.23-.17-3.16-.9.71-.86,1.43-1.71,2.15-2.57C85.28,64.6,87.46,67.42,87.24,71.35Z"/><path class="cls-27" d="M79.36,66.51a4.73,4.73,0,0,1,3.39.74c-.18,1.09.32,1.58,1.38,1.57a3.53,3.53,0,0,1,.55,2l-.08.49c-2.06.24-4.12.69-6.21.23-.72-1.24-2.07-.86-3.13-1.23a1.71,1.71,0,0,1,.48-.93,19.4,19.4,0,0,1,3.13-2.66Z"/><path class="cls-31" d="M78.87,66.75a7.29,7.29,0,0,1-3.13,2.66A4.23,4.23,0,0,1,78.87,66.75Z"/><path class="cls-32" d="M36.11,71.31a12.37,12.37,0,0,1,5.45.82c.35.16.79.19.88.68a4.2,4.2,0,0,1-3.93,3.25,5.32,5.32,0,0,1-4.8-2.75c-.17-.31-.27-.65-.41-1C34.24,72,35.31,72,36.11,71.31Z"/><path class="cls-32" d="M78.39,71.57c2.06-.28,4.12-.75,6.21-.23A5.19,5.19,0,0,1,80.11,76a4.35,4.35,0,0,1-4.63-2.75C76.56,72.9,77.84,72.85,78.39,71.57Z"/><path class="cls-33" d="M84.13,68.82c-.59.26-1.21.56-1.73-.09s.06-1,.35-1.48c.54-.32,1.12-.78,1.69-.12S84.56,68.31,84.13,68.82Z"/><path class="cls-34" d="M114,86.62V42.24a17.06,17.06,0,0,0-8.53-14.77L67,5.29A17,17,0,0,0,50,5.29L11.53,27.47A17.06,17.06,0,0,0,3,42.24V86.62a17.06,17.06,0,0,0,8.53,14.77L50,123.58a17.1,17.1,0,0,0,17.06,0l38.42-22.19A17.06,17.06,0,0,0,114,86.62Z"/></g></g></svg>