<svg xmlns="http://www.w3.org/2000/svg" viewBox="0 0 119.39 128.86"><defs><style>.cls-1{fill:#914d21;}.cls-2{fill:#00b7ee;}.cls-3{fill:#cc6a2a;}.cls-4{fill:#aa5823;}.cls-5{fill:#4e2d18;}.cls-6{fill:#ce6a29;}.cls-7{fill:#a95823;}.cls-8{fill:#c99471;}.cls-9{fill:#c99472;}.cls-10{fill:#442615;}.cls-11{fill:#cd6a29;}.cls-12{fill:#a85723;}.cls-13{fill:#4f2d18;}.cls-14{fill:#b6673f;}.cls-15{fill:#fefefe;}.cls-16{fill:#dcd9d9;}.cls-17{fill:#101f47;}.cls-18{fill:#c11523;}.cls-19{fill:#b76740;}.cls-20{fill:#0f1e43;}.cls-21{fill:#192d63;}.cls-22{fill:#d8a27f;}.cls-23{fill:#101e45;}.cls-24{fill:#27489b;}.cls-25{fill:#0e1b3d;}.cls-26{fill:#fdfdfd;}.cls-27{fill:#fe1327;}.cls-28{fill:#bc6f48;}.cls-29{fill:#ba6a43;}.cls-30{fill:#bd714b;}.cls-31{fill:#ba6b43;}.cls-32{fill:#b96a42;}.cls-33{fill:#bb6d46;}.cls-34{fill:#bb6d45;}.cls-35{fill:#f3f4f7;}.cls-36{fill:#eef0f5;}.cls-37{fill:#f6f7f9;}.cls-38{fill:#f3f5f8;}.cls-39{fill:none;stroke:#4e2d18;stroke-miterlimit:10;stroke-width:6px;}</style></defs><g id="Calque_2" data-name="Calque 2"><g id="Calque_8" data-name="Calque 8"><path class="cls-1" d="M114,41.87c0,.12,0,.25,0,.37v.48A18.58,18.58,0,0,1,110.79,47c-.36.34-.87.68-.38,1.29a3.06,3.06,0,0,0,.36.36h0a11.55,11.55,0,0,0,1.2.76l.07,0c1.18.79,1.22,1.59.12,2.43-1.38,1.06-1.4,1.07-.17,2.3l0,0h0a7.38,7.38,0,0,1,1,1.3v0l.53.88c.23.4.54.89.1,1.31s-.83,0-1.22-.13a3.39,3.39,0,0,1-.43-.27,5.5,5.5,0,0,1,.6,2.3,2.1,2.1,0,0,1-.29,1,3,3,0,0,1-.37.51,4.83,4.83,0,0,1-.57.53c-.69.57-.27,1.08.33,1.4s1.49.7,2.25,1V86.61a17.06,17.06,0,0,1-8.53,14.78L67,123.57a17,17,0,0,1-3.79,1.61H53.74A17,17,0,0,1,50,123.57L11.53,101.39A17.06,17.06,0,0,1,3,86.61V64c.85-.74,1.72-1.45,2.58-2.17.3-.25.69-.41.92-.82a11.81,11.81,0,0,1-3.13-.8A2.22,2.22,0,0,1,3,60V56.33a10.39,10.39,0,0,1,3.58-2.44,7.71,7.71,0,0,1-2.44,0l-.2-.06a1.86,1.86,0,0,1-.4-.19h0l0,0a.87.87,0,0,1-.38-.72,1.44,1.44,0,0,1,.35-.87,9.16,9.16,0,0,1,3.71-2.34c.35-.16.72-.28,1.07-.44h0l.24-.12c.24-.14.14-.29,0-.44l0,0A22,22,0,0,1,3,41.87c0-.3,0-.61,0-.91h0a17,17,0,0,1,6.2-11.89,15.75,15.75,0,0,1,2.28-1.59l16.13-9.32,5.86-3.38.44-.25A42,42,0,0,1,38.62,17c1.57,1,1.59,1,2.7-.41A23.81,23.81,0,0,1,50,9.3a8.79,8.79,0,0,1,2.39-.77c.43-.06.93-.12,1.17.35a.65.65,0,0,1,0,.54,1.7,1.7,0,0,1-.37.53,3.58,3.58,0,0,0-.26.29h0a4.32,4.32,0,0,1-1.13,1.08c.61-.14,1.2-.29,1.78-.39h0l.18,0,.56-.07h.41c.63,0,1.36-.19,1.73.48s-.29,1.15-.64,1.65a51.09,51.09,0,0,1,9.53-1.17H67a.69.69,0,0,1,.59.49c.18.6-.33.94-.75,1.25-1.25.92-2.64,1.61-4.14,2.54a29.64,29.64,0,0,1,4.62,0h0a28,28,0,0,1,5.48,1l.57.18a6.31,6.31,0,0,0,5.23-.7,48.72,48.72,0,0,1,4.55-2l.48.28,5.66,3.27,16.18,9.34a16.08,16.08,0,0,1,1.75,1.16A17.06,17.06,0,0,1,114,41.87Z"/><path class="cls-1" d="M119.39,66.65v.1a4.76,4.76,0,0,1-.61-.44.26.26,0,0,1,.1,0A4.27,4.27,0,0,1,119.39,66.65Z"/><path class="cls-2" d="M3.73,55.3c-.25.24-.5.48-.73.73V53.35a3.13,3.13,0,0,0,.5.3l0,0h0a3.8,3.8,0,0,1,.4.19,1.63,1.63,0,0,1,.46.31l0,0C4.61,54.45,4.37,54.7,3.73,55.3Z"/><path class="cls-2" d="M4.9,61.6s0,0,0,0c.09.68-.74,1-1.26,1.29L3,63.37V60.69a2.54,2.54,0,0,0,.41.18c.51.19,1.31.12,1.48.65A.22.22,0,0,1,4.9,61.6Z"/><path class="cls-2" d="M8.83,48.59a.76.76,0,0,1-.58.68h0c-.19.06-.39.1-.56.17a16.11,16.11,0,0,0-4.32,2.28A4.3,4.3,0,0,0,3,52v-9.8c0-.12,0-.25,0-.37,0-.3,0-.61,0-.91A23.29,23.29,0,0,0,8.83,48.59Z"/><path class="cls-2" d="M78.73,12.05l.36.2c-.34.43-.61.91-.91,1.36-.87,1.28-1,1.28-1.93,0a6.2,6.2,0,0,0-.49,2.56c-.11,1.15-.46,1.34-1.46.78-.42-.24-.72-.4-1.13,0a.48.48,0,0,1-.4.15,2.71,2.71,0,0,1-.63-.13,40.14,40.14,0,0,0-4.85-.89h0l-1.59-.21c-.42-.05-1,0-1.07-.53s.53-.64.92-.81a16,16,0,0,0,2.8-1.34c.35-.25.89-.47.79-1s-.71-.41-1.12-.42l-1.05,0H65.42a37.49,37.49,0,0,0-5.18.29c-.31,0-.63.05-1,.08s-.73.07-.87-.24.26-.59.53-.81.35-.18.4-.52a4.08,4.08,0,0,0-2.08-.1c-1,.13-1.9.23-2.86.35h0l-.56.07-.18,0h0a.6.6,0,0,1-.54-.19l-.05-.07h0a.09.09,0,0,1,0-.06.46.46,0,0,1,0-.36h0a.84.84,0,0,1,.26-.37,2.6,2.6,0,0,0,.37-.45c.23-.38.38-.81.57-1.2s.44-.83.12-1.24A1.23,1.23,0,0,0,53,6.71a11,11,0,0,0-3.66,1.42,23.76,23.76,0,0,0-6,5.82c-.49.63-1,1.27-1.45,1.91a1,1,0,0,1-1.63.17,11,11,0,0,1-2.63-2.9,2.5,2.5,0,0,0-.35-.54l.18-.1L50,5.28a16.89,16.89,0,0,1,5-1.91h7a16.89,16.89,0,0,1,5,1.91Z"/><path class="cls-2" d="M114,41.87c0,.12,0,.25,0,.37v8.35a1.71,1.71,0,0,0-.66-.55c-.42-.25-.88-.45-1.33-.66a9.36,9.36,0,0,1-1.63-.85c-.27-.31-.81-.08-1.08-.57A21.49,21.49,0,0,0,114,41.87Z"/><path class="cls-2" d="M113.25,51.83a1.81,1.81,0,0,0,.72-.52v5.83a5.56,5.56,0,0,0-.93-1.62v0l-.43-.56L112,54.2h0a2.45,2.45,0,0,1-.5-.9.55.55,0,0,1,.06-.4A4.75,4.75,0,0,1,113.25,51.83Z"/><path class="cls-2" d="M114,58.14v5l-1.27-.83c-.42-.27-.8-.56-.78-.94v0a.83.83,0,0,1,0-.15,1.34,1.34,0,0,1,.37-.51l0,0c.42-.37.28-.89.26-1.36,0-.8-.05-1.19.16-1.31l0,0C113,57.84,113.35,57.94,114,58.14Z"/><path class="cls-2" d="M119.39,66.65v.1a4.76,4.76,0,0,1-.61-.44.26.26,0,0,1,.1,0A4.27,4.27,0,0,1,119.39,66.65Z"/><path class="cls-3" d="M114,57.14a3.21,3.21,0,0,1,.18,1l-.18,0v.58l-.11-.08c-.32-.21-.62-.43-1-.73l0,0v0c0,1.25.88,2.6-.86,3.36h0l0,0,2,1.32v1.91l-2.39-1.1c-.51-.23-1-.44-1-1.17s.37-.85.89-1.14c.94-.53.9-1.49.7-2.44s-.79-1.43-1.09-2.35c1,.29,1.5,1.19,2.58,1.25a8.68,8.68,0,0,0-1.59-2.86,6.14,6.14,0,0,0-.67-.68c-1.34-1.35-1.34-1.35.32-2.33,1.28-.76,1.27-1.17.12-2-.5-.38-1.26-.43-1.48-1.17l.42.09h0a10.88,10.88,0,0,1,2.8,1.1A4,4,0,0,1,114,50v.64a.64.64,0,0,1,.1.44.63.63,0,0,1-.1.28v.63c-.17.1-.35.17-.52.25-.59.25-1.19.46-1.86.7l-.34.12.28.28A15,15,0,0,1,114,56.38Z"/><path class="cls-3" d="M119.39,66.65v.1a4.76,4.76,0,0,1-.61-.44.26.26,0,0,1,.1,0A4.27,4.27,0,0,1,119.39,66.65Z"/><path class="cls-4" d="M58.42,18.15a49.14,49.14,0,0,1,21.91,4.73A50.13,50.13,0,0,1,95.21,33.09c.53.54,1.18,1,.93,1.93a2.07,2.07,0,0,1-1.89,1.42,37.93,37.93,0,0,0-6.38,1.43,21.23,21.23,0,0,0-6.15,4A64.67,64.67,0,0,0,70.4,54.13a2.12,2.12,0,0,1-3.15.53,14.7,14.7,0,0,1-5.45-7.79,3.53,3.53,0,0,1,.64-3.18c.2-.28.63-.53.33-.91s-.67-.11-1,0A20.7,20.7,0,0,0,52.41,50c-1,1.34-1.68,2.89-2.61,4.28-1.18,1.77-2.38,1.75-3.58,0-3.27-4.76-7-9.06-12.06-12-4.61-2.69-9.46-3.92-14.77-2.77-.51.11-1.08.22-1.44-.27s.1-1,.37-1.38a39.59,39.59,0,0,1,12.9-12,54.32,54.32,0,0,1,16.09-6.23C51.18,18.67,55.07,17.87,58.42,18.15Z"/><path class="cls-5" d="M75.87,62c-.36-.42-.75-.12-1.1,0a4,4,0,0,1-3.12-.23c-3.87-1.87-7.55-4-9.81-7.86a14.93,14.93,0,0,1-2-5c-.1-.58-.16-1.23.45-1.44s.72.49.92.88a22.66,22.66,0,0,0,5.12,7.14c.18.15.33.35.52.49.85.58,1.64,1.67,2.57,1.6s1.05-1.47,1.57-2.26A58.92,58.92,0,0,1,81.16,43.81c1.51-1.31,3.16-2.42,4.71-3.66a6.45,6.45,0,0,1,4.91-1.39,4,4,0,0,1,3.23,3c.21,1.47.28,3-.82,4.2-.79.87-.26,1,.5,1.31a21.5,21.5,0,0,1,8.36,5.17,8,8,0,0,1,1.86,2.88,10.93,10.93,0,0,1-1.09,3.25c-.23.46-.48.93-1.09,1-.55-.09-.73-.56-1-1a10.48,10.48,0,0,0-15.89-2.77,10.07,10.07,0,0,0-3.53,5.8,3.67,3.67,0,0,1-.65,1.89C78.85,63.7,77.38,62.81,75.87,62Z"/><path class="cls-6" d="M83.6,14.86a40.13,40.13,0,0,0-7.23,3.42.86.86,0,0,1-.87.17c-4.17-1.74-8.55-2.06-13-2-.26,0-.55.12-.87-.23L66,13.62a7.39,7.39,0,0,0,.8-.53c.24-.18.64-.32.49-.71s-.49-.2-.75-.21a39.92,39.92,0,0,0-7.24.62c-1.52.21-3,.53-4.85.86.59-.52,1-.8,1.28-1.13s.82-.54.59-1-.7-.25-1.08-.27c-1.58-.11-3,.54-4.75.92,1-1.18,2.35-1.78,3-3.22a6.08,6.08,0,0,0-3.22.73A23.39,23.39,0,0,0,41.59,17a2.36,2.36,0,0,0-.35.48c-.57,1.18-1.35.95-2.21.36a37.92,37.92,0,0,0-5.51-3l.44-.25,3.33-1.93.18-.1c1,1.18,2.07,2.26,3.14,3.36.56.58.74.22,1-.21a29.26,29.26,0,0,1,6.47-7.16A9.51,9.51,0,0,1,53.32,6.3c1.68-.1,2.1.5,1.31,2a28.05,28.05,0,0,1-1.58,2.4h0l-.07.09.12,0A25.71,25.71,0,0,1,58,10.12a11.76,11.76,0,0,1,1.19,0c.38,0,.93-.08,1.06.35s-.49.62-.82.86-.55.29-.82.49a60.13,60.13,0,0,1,9.2-.42c.75,0,1.82-.25,2,.75s-.81,1.18-1.45,1.52c-1.09.57-2.22,1.07-3.53,1.7a55.45,55.45,0,0,1,7.81,1.41c.19.05.39.12.37-.22-.1-1.27.56-.6,1-.34a13.22,13.22,0,0,1,1.23,1c.11-1,.21-1.95.32-2.87a3.31,3.31,0,0,1,.2-.81c.13-.32.23-.79.62-.79s.43.5.51.83l.23.89c.59-.78,1.07-1.63,1.63-2.4l.36.2,4,2.33Z"/><path class="cls-5" d="M11.68,56a15.76,15.76,0,0,1,10.54-9.15c.85-.26,1.55-.32,1.25-1.73-.56-2.66,2-4.6,4.77-3.83a21.58,21.58,0,0,1,8.58,5,47.63,47.63,0,0,1,8.08,9.71A9.52,9.52,0,0,1,46,58.22c.84,2.62-1,4.5-3.78,3.7-1.33-.38-1.64-.13-1.57,1.11,0,.13-.14.27-.21.41-1.23,1-2.77,1.24-4.1,2a.78.78,0,0,1-.27-.47A12.05,12.05,0,0,0,33.77,57,11.53,11.53,0,0,0,15,57.48a4.75,4.75,0,0,1-.82,1.17.56.56,0,0,1-.33.1A8.83,8.83,0,0,1,11.68,56Z"/><path class="cls-7" d="M75.42,99a4.07,4.07,0,0,1-1,2.8c-2.6,3.72-6,6.56-10.45,7.61-5.17,1.21-9.81-.24-13.87-3.59a10.3,10.3,0,0,1-3-3.53,5.31,5.31,0,0,1-.45-3c.1-.75.6-1.15,1.31-1.61,1.85-1.22,3.17.12,4.6.68A19.17,19.17,0,0,0,70.3,97a5.49,5.49,0,0,1,3.82-.87c.72.13,1,.73,1.2,1.35A9,9,0,0,1,75.42,99Z"/><path class="cls-8" d="M31.38,21.76a47.93,47.93,0,0,0-9.7,7.15,45.17,45.17,0,0,0-8.12,10.62c-.64,1.15-1,1.2-1.75.16A14.07,14.07,0,0,1,9.25,29.06a15.75,15.75,0,0,1,2.28-1.59l16.13-9.32a14.18,14.18,0,0,1,3.84,2C32.46,20.84,32.44,21.17,31.38,21.76Z"/><path d="M49,67.3c.61-2.52,2.59-3.55,4.77-4.24a15.8,15.8,0,0,1,10.78.33,6.65,6.65,0,0,1,3.6,3c.84.94.83,2.08-.1,3.32a8,8,0,0,1-4,2.72,13.78,13.78,0,0,1-3.72.78c-.53,0-1.36-.3-1.57.64.16.88.89.65,1.43.69a23.66,23.66,0,0,1,9.55,2.42A11.4,11.4,0,0,1,74,80.66a2,2,0,0,1,.48,1.44,7.53,7.53,0,0,1-3.21,5.34A4.73,4.73,0,0,1,69,87a18.83,18.83,0,0,0-10.33-.64,11.82,11.82,0,0,0-5,2.45,2.69,2.69,0,0,1-1.53.85,7.67,7.67,0,0,1-3.71-1.79,3,3,0,0,1-1-2.36c0-.75,0-1.51,0-2.26a7.57,7.57,0,0,1,3.75-6.39c.5-.33,1-.69,1.49-1,1.11-.45,2.31-.55,3.42-1,.51-.21,1-.38.85-1.07s-.7-.58-1.15-.66A14,14,0,0,1,51.9,71.8a5.93,5.93,0,0,1-3.15-3.39A1.42,1.42,0,0,1,49,67.3Z"/><path class="cls-8" d="M107.51,31.68a14.07,14.07,0,0,1-2.43,8c-.62,1-1,1-1.59,0A45.21,45.21,0,0,0,85.66,21.81c-1.24-.7-1.23-.95,0-1.78a15.08,15.08,0,0,1,3.63-1.9l16.18,9.34a16.08,16.08,0,0,1,1.75,1.16A17.59,17.59,0,0,1,107.51,31.68Z"/><path class="cls-7" d="M92.77,86.46a15.62,15.62,0,0,1-5.38-.77A3.93,3.93,0,0,1,84.7,80.9a3,3,0,0,1,3.45-2.07c5.91.75,11.24-.42,15.57-4.8l.76-.76a1.53,1.53,0,0,1,2.75.62,6.07,6.07,0,0,1-.47,4.86,13.64,13.64,0,0,1-10.17,7.48A22.89,22.89,0,0,1,92.77,86.46Z"/><path class="cls-9" d="M71.22,87.3A12,12,0,0,0,74,82.9a1.94,1.94,0,0,0-.16-1.81,10.16,10.16,0,0,0-4-3.65A20.59,20.59,0,0,0,59.61,75c-1.07,0-1.37-.32-1.24-1.28a2.66,2.66,0,0,1,1.89-.56,12.9,12.9,0,0,0,9.42-5.08c.23-.29.41-.7.91-.62,4.77,3.16,7.83,7.51,8.52,13.2C79.56,84.34,78,87.5,75.4,90a18.37,18.37,0,0,1-12,5.29c-.31.12-.62.24-.81-.17.37-.67,1.06-.62,1.67-.72a14.27,14.27,0,0,0,4.34-1.27,2.58,2.58,0,0,0,1-.78,1,1,0,0,0-.7-1.78,2.81,2.81,0,0,0-1.52.19,20.86,20.86,0,0,1-9.3,1.09,4.33,4.33,0,0,0-.72,0c-.62,0-1.27.1-1.38.85s.46,1,1,1.29a7.46,7.46,0,0,0,1.86.41c.5.08,1.07.11,1.14.81a1.79,1.79,0,0,1-1.53.09,7.44,7.44,0,0,1-2.84-.43,11.18,11.18,0,0,0-3.24-1.42,10.92,10.92,0,0,1-3.38-2,17.11,17.11,0,0,1-6.3-9.15c-.67-4.52,0-8.69,3.17-12.23.56-.3,1-.84,1.64-1s1.23.5,1.82.83c.35.39.65.8.38,1.36a1,1,0,0,1-1,0,2.56,2.56,0,0,0-3.09.9,7.9,7.9,0,0,0-1.83,4.1,12,12,0,0,0,.27,5.56A4.43,4.43,0,0,0,44.58,83c.4.64.84,1.5,1.63,1.39s.59-1.1.7-1.72a9.78,9.78,0,0,1,4-6.46,4.7,4.7,0,0,0,.65-.53c.73-.76.72-1.28,0-2-.39-.37-.94-.65-.82-1.34,1.13-.41,1.81.38,2.56,1,.36.82,1.12.78,1.83.83a.61.61,0,0,1,.3.4c-.05.52-.42.69-.85.8a3.4,3.4,0,0,0-1.64.82c-1,1.06-2.55,1.54-3.45,2.88a10.14,10.14,0,0,0-1.62,4.1,20.36,20.36,0,0,0-.2,3.4,2.29,2.29,0,0,0,1.07,1.61,19.28,19.28,0,0,0,4,2,4.22,4.22,0,0,0,3.1.29c1,.07,2,.29,3.06.37a18.64,18.64,0,0,0,10.58-2.43l.28-.22C70.24,87.89,70.61,87.38,71.22,87.3Z"/><path class="cls-7" d="M22.28,86.24c-5.75-.06-10.17-2-13.6-6a4.77,4.77,0,0,1-1.14-4.33,2.47,2.47,0,0,1,4.22-1.39c3.62,3,7.94,4.22,12.51,4.8,1.27.17,2.54.15,3.8.24a2.52,2.52,0,0,1,2.39,1.34,2.83,2.83,0,0,1-.67,2.89,4.91,4.91,0,0,1-2.68,1.7A16.94,16.94,0,0,1,22.28,86.24Z"/><path class="cls-10" d="M101.69,59.38a5.37,5.37,0,0,0,1.42-2.56c.22-.54.19-1.21.8-1.54a14.49,14.49,0,0,1,.82,13.4A13.39,13.39,0,0,1,94.82,77c-6.12,1.34-11-1.08-14.8-5.8a19.21,19.21,0,0,1-4-8.17c-.08-.35-.09-.71-.14-1.06,1.69.14,3.14,1.06,4.75,1.45l.16.1a5.52,5.52,0,0,1,.46,2.08c.86,4.09,3.17,7,7.18,8.22A10.33,10.33,0,0,0,102,64.23a11.78,11.78,0,0,0-.55-4.13A.77.77,0,0,1,101.69,59.38Z"/><path class="cls-10" d="M36.38,65.36c.95-1.45,2.6-1.43,4-1.92a17.62,17.62,0,0,1-5.33,9.79c-3.35,3.08-7.38,4-11.74,3.52a12.9,12.9,0,0,1-7.64-3.06,14.11,14.11,0,0,1-5-10,18.67,18.67,0,0,1,1-7.71c1.16.51,1.52,1.67,2.13,2.63.43.61,0,1.16-.16,1.7A11.47,11.47,0,1,0,35.59,67C35.78,66.45,35.75,65.75,36.38,65.36Z"/><path class="cls-7" d="M54.62,57.06c0-.07.09-.14.09-.21,0-.53-.52-1.27.09-1.52s1,.55,1.28,1a2.7,2.7,0,0,0,2.47,1.42,14.42,14.42,0,0,1,7.54,3,4.1,4.1,0,0,1,.6.58c.4.44.66.92.22,1.49s-.9.32-1.39.1a20.93,20.93,0,0,0-5.32-1.71,14.84,14.84,0,0,0-10.46,2.3,8.57,8.57,0,0,1-1.12.68,1.48,1.48,0,0,1-1.77-.2,1.46,1.46,0,0,1-.33-1.75c.63-1.68,2.1-2.43,3.59-3.13.76-.36,1.74-.52.65-1.61a.48.48,0,0,1-.12-.65.54.54,0,0,1,.67-.05c.4.18.78.4,1.16.6.17.09.32.23.53,0C53.78,56.76,53.78,56.76,54.62,57.06Z"/><path class="cls-11" d="M7.28,60.6c.2.33-.07.47-.23.6Q5,62.78,3,64.48V62.91L4.9,61.6,5,61.53H4.89a5.51,5.51,0,0,1-1.74-.32L3,61.14V59.56a3.13,3.13,0,0,0,.36.22A9.67,9.67,0,0,0,7.28,60.6Z"/><path class="cls-11" d="M9.54,48.88c.09.4-.33.36-.55.47-1.7.86-3.64,1.27-5,2.72-.28.29-.82.51-.53,1.06s.69.48,1.14.49c1.07,0,2.14,0,3.25-.08C7,54,6.16,54.53,5.3,55A8.22,8.22,0,0,0,3,56.88v-1.4c.44-.44.94-.84,1.43-1.27l0,0h0c-.46-.11-.82-.17-1.16-.27L3,53.85V51.48a17.25,17.25,0,0,1,4.61-2.43c.3-.1.6-.22.89-.34l.33-.12C9.09,48.62,9.46,48.53,9.54,48.88Z"/><path class="cls-12" d="M34.41,77.15a4.86,4.86,0,0,1,5.11-4.6c.19,0,.42,0,.49.24s-.1.37-.25.49l-.85.65a5.9,5.9,0,0,0-2.37,5.54c.05.52.36,1.45-.31,1.56s-.93-.81-1.17-1.42A9.79,9.79,0,0,1,34.41,77.15Z"/><path class="cls-13" d="M42,72.88a19.81,19.81,0,0,0-3.4,9.71A6.39,6.39,0,0,1,42,72.88Z"/><path class="cls-8" d="M42.8,82.38a8.74,8.74,0,0,1,1.49,2.81C45.89,88.74,48.75,91,52,93c.87.52,2.1.35,3,1.09.31.25.67.43.8.85-6.28-1.58-10.91-5-12.77-11.47A7.38,7.38,0,0,1,42.8,82.38Z"/><path class="cls-14" d="M70.59,67.49C67.74,72,63.33,73.4,58.37,73.75c-.4-.84.2-.84.74-.86a15.63,15.63,0,0,0,4.79-.81,8.77,8.77,0,0,0,3-1.67,3.5,3.5,0,0,0,1.24-4A3.32,3.32,0,0,1,70.59,67.49Z"/><path class="cls-8" d="M47.59,69.43a2.76,2.76,0,0,1-1.62.72,9.56,9.56,0,0,1,3-2.85l.06,1.12a2.8,2.8,0,0,1,.18,1c-.2.48-.46.3-.71.07S47.92,69.15,47.59,69.43Z"/><path class="cls-8" d="M62.68,95.08c.2.25.48.23.76.25a11.43,11.43,0,0,1-4.87,0c.49-.09,1,.15,1.48-.26A2,2,0,0,1,62.68,95.08Z"/><path class="cls-15" d="M101.69,59.38l.11.69c-.67,1.11-1.33,2.22-2.77,2.46-.57-.44-.67-1.15-1-1.74a6.55,6.55,0,0,0-10-2.26c-.19.14-.42.25-.44.56.46.32,1.06.25,1.54.53,1.34,1,1.34,1.64,0,2.65a5.24,5.24,0,0,1-2.7.56c-.3,0-.63-.08-.86.21a2.2,2.2,0,0,0-.31.9c-.07.39-.32.71-.71.68-1.38-.07-2.79-.09-3.86-1.19l-.07,0c.61-6.41,5.32-10.8,11.48-10.53a10.67,10.67,0,0,1,9.06,5.54Z"/><path class="cls-16" d="M36.38,65.36c-.93,5.34-4.3,9-9.31,10.14a11.73,11.73,0,0,1-12.25-4.81,11.59,11.59,0,0,1-1.37-11l.36-1a.4.4,0,0,1,.18-.07,16.72,16.72,0,0,1,3.88,3.48c.17,1.06-.09,2.12.17,3.19.75,3,3.14,5.4,5.91,5.66,3.72.36,6.53-1.22,7.9-4.43.2-.47.29-1,.8-1.29.8-.24,1.63-.34,2.44-.53a1.21,1.21,0,0,1,1.23.22Z"/><path class="cls-15" d="M36.32,64.88c-1,.19-2,.36-3,.57-.26,0-.46.08-.64-.14-.48-.43-.35-1-.37-1.57a7.18,7.18,0,0,0-12.28-5.05c.66.33,1.32.37,1.86.7,1.55,1.16,1.44,2-.43,3a5.74,5.74,0,0,1-2.69.3,1.14,1.14,0,0,1-1.08-.62A16.79,16.79,0,0,1,14,58.58c2.21-5,8.43-7.73,14-6.1C33.33,54.07,37.14,59.71,36.32,64.88Z"/><path class="cls-17" d="M54.53,63.44a12.49,12.49,0,0,1,9.38.42,2.19,2.19,0,0,1,1.63,2,2.24,2.24,0,0,1-1.66,2,12.87,12.87,0,0,1-10.74-.1c-.79-.37-1.59-1-1.42-2a2.52,2.52,0,0,1,2.33-2.07c.16.32-.09.5-.23.73s-.41.43-.16.72a.63.63,0,0,0,.67.11,3.15,3.15,0,0,0,1.91-1C55.77,63.59,54.93,64,54.53,63.44Z"/><path class="cls-16" d="M49.7,82.34a6.51,6.51,0,0,1,2.83-3A19.24,19.24,0,0,1,68,77.54c1.63.51,1.63.54,1.36,2.26a5.43,5.43,0,0,1-1.74,3.32c-1.32,1.19-2.22,1-2.82-.72-.13-.37-.23-.76-.37-1.22-1,.53-1.93.95-2.28-.66-.5.41-.72,1.18-1.45,1.11s-.76-.86-1.23-1.22c-.89,1.56-1.41,1.65-2.65.46-1,2.45-1,2.47-3.14.9.16,1.07.36,2.11.47,3.17s-.48,1.64-1.6,1.41a5.21,5.21,0,0,1-2.74-1.59c-.78-.8-1-1.58-.11-2.43.58.47.57,1.29,1.07,1.82a4.08,4.08,0,0,0,.82.84.76.76,0,0,0,1,0,.79.79,0,0,0,.16-1,2.29,2.29,0,0,0-2.49-1.52C50,82.48,49.85,82.51,49.7,82.34Z"/><path class="cls-18" d="M69.9,88.38C67.82,90,65.31,90.47,62.83,91a18.84,18.84,0,0,1-7.06-.23,6.41,6.41,0,0,1-2.86-.59c-.32-.17-.67-.27-.67-.72,5.06-4.76,10.91-4.77,17.07-2.82.65.21,1.28.45,1.92.68a2.45,2.45,0,0,1-1.34,1.09c-4.09-1.51-8.17-2-12.22.11a2.71,2.71,0,0,0-1.26,1.06,17.9,17.9,0,0,0,4.74.46,17.83,17.83,0,0,0,7.42-1.58C69,88.24,69.44,88,69.9,88.38Z"/><path class="cls-19" d="M49,69.67l0-1.25c1.53,3.12,4.45,3.87,7.5,4.35.65.1,1.12.17.87,1a1.1,1.1,0,0,1-1,.6A3.92,3.92,0,0,1,54.91,74c-.66,0-1.35.21-1.81-.48a7.46,7.46,0,0,0-2.39-1.24,1,1,0,0,1-1-.94l-.51-1.2C49.11,70,48.87,69.94,49,69.67Z"/><path class="cls-8" d="M52.24,89.44c1.07.71,2.38.8,3.53,1.31-2.51.54-4.5-.76-6.57-1.83-1.28-.67-2.36-1.52-2-3.09a26.27,26.27,0,0,1,.63-2.73c-.51,3.38,1.12,5.31,4.23,6.24Z"/><path class="cls-20" d="M59.77,76.07a14.81,14.81,0,0,0-10.7,5.79c-.49-.58-.24-1,.06-1.43a10.31,10.31,0,0,1,5.69-3.74A10.6,10.6,0,0,1,59.77,76.07Z"/><path class="cls-21" d="M54.53,63.44c.52,0,1,0,1.56,0a.78.78,0,0,1,.76.48c.11.43-.22.68-.53.84a7.15,7.15,0,0,1-2,.85c-.58.12-1,.13-1.32-.44s.26-.83.57-1.16a5.56,5.56,0,0,1,.44-.39Z"/><path class="cls-8" d="M56.44,74l1-.26c.15,1-.2,1.29-1.23,1.53s-2.23.54-3.33.84c.13-.8.85-.87,1.41-1.11.35-.15.79-.11,1-.54S56.12,74.34,56.44,74Z"/><path class="cls-22" d="M62.11,73.93a14.24,14.24,0,0,0,4.61-1.61,10.78,10.78,0,0,0,3.2-3c.4-.54.83-.74,1.42-.34a16.25,16.25,0,0,1,6.52,8.26,8.61,8.61,0,0,1,.16,2,1.76,1.76,0,0,1-1.27,2,2,2,0,0,1-2.41-.85,14.06,14.06,0,0,0-3.52-3.36,19.41,19.41,0,0,0-7.13-2.61A3.85,3.85,0,0,1,62.11,73.93Z"/><path class="cls-22" d="M49.76,71.35a3,3,0,0,1,1,.94,2.82,2.82,0,0,0,1,1c1.17.84,1.23,2,0,2.8a9.88,9.88,0,0,0-4.58,8c0,.37,0,.74-.47.88a1.22,1.22,0,0,1-1.21-.28,5.89,5.89,0,0,1-2-4,11.56,11.56,0,0,1,1.11-7.64C45.86,70.68,47.34,70.19,49.76,71.35Z"/><path class="cls-22" d="M62.68,95.08H60.05c-.81-.44-1.75-.09-2.57-.46-.36-.16-.75-.26-1.11-.43a1.37,1.37,0,0,1-.82-1.67,1.49,1.49,0,0,1,1.53-1.12,13.67,13.67,0,0,1,2,.1,17.34,17.34,0,0,0,7.72-.95,9.36,9.36,0,0,1,1.38-.37c.91-.16,1.81-.09,2.18.91s-.19,1.73-1.06,2.23A17.07,17.07,0,0,1,62.68,95.08Z"/><path class="cls-8" d="M53.1,73.53a5,5,0,0,0,1.91.23.32.32,0,0,1,0,.47C54.21,74.44,53.41,74.65,53.1,73.53Z"/><path class="cls-8" d="M55,74.23v-.47l1.44.25c-.26.51-.74.46-1.2.46Z"/><path class="cls-8" d="M49,69.67l.24.48c-.64,0-.94-.87-1.66-.72C48.24,68.43,48.54,69.58,49,69.67Z"/><path class="cls-16" d="M99.13,62.48c1-.67,1.62-1.78,2.67-2.41,2.47,5.34-.82,12.22-6.78,14.2A10.92,10.92,0,0,1,80.69,63.43c1,.25,2.1.45,3.13.76.82.26,1.21.13,1.11-.81a1,1,0,0,1,.24-.9c.54.39.42,1,.45,1.53a6.41,6.41,0,0,0,5.57,6.35,6.67,6.67,0,0,0,7.14-4.24,6.47,6.47,0,0,0,.35-2.23C98.7,63.39,98.62,62.84,99.13,62.48Z"/><path class="cls-23" d="M99.13,62.48c.26,4.2-1.69,7.25-5.23,8.15a7,7,0,0,1-8.77-7c0-.39,0-.79,0-1.19.2-.4.55-.22.82-.15a5.66,5.66,0,0,0,3.1-.34c.64,0,.76.63,1.06,1a3.42,3.42,0,0,0,3.58,1.33,3.15,3.15,0,0,0,2.43-2.65,3.25,3.25,0,0,0-1.55-3.37,3.34,3.34,0,0,0-4.3.76c-.35.39-.55,1-1.29.83a5.73,5.73,0,0,0-2.35-.33C88.16,57,92.06,56,95.05,57.35A7.26,7.26,0,0,1,99.13,62.48Z"/><path class="cls-24" d="M89,59.91c.41-.08.52-.45.72-.75a3.68,3.68,0,0,1,4.37-1.57,3.92,3.92,0,0,1,2.56,3.67,3.76,3.76,0,0,1-7.11,1.56c-.15-.28-.32-.56-.47-.83C90.13,61.07,90.13,60.8,89,59.91Z"/><path class="cls-25" d="M17.71,62.05A6.71,6.71,0,0,0,21.53,62c.57-.21.84.18,1.1.56a2.78,2.78,0,0,0,1,1.22c2.19,1.35,4.5.89,5.56-1.1a3.64,3.64,0,0,0-5.67-4.4,10,10,0,0,0-.86,1c-.22.27-.44.61-.88.37a10.86,10.86,0,0,0-2.71-.53,7.51,7.51,0,0,1,6.46-2.92A7.44,7.44,0,0,1,32,60.42a8.48,8.48,0,0,1,.7,4.89c-1,3.45-3.13,5.7-6.82,6.09A7.56,7.56,0,0,1,17.71,62.05Z"/><path class="cls-24" d="M22.42,62.73c-.29-.25-.39-.74-.89-.74,1.48-1,1.52-1.34.25-2.36.41-.09.49-.48.68-.77A4.1,4.1,0,0,1,27,57a4.24,4.24,0,0,1,3.12,3.53,4.33,4.33,0,0,1-2.2,4A3.9,3.9,0,0,1,23.36,64a.82.82,0,0,1,.25-.38c.27-.27.64-.52.3-1s-.62-.18-.94,0A1.18,1.18,0,0,1,22.42,62.73Z"/><path class="cls-15" d="M65.05,80.94a6.87,6.87,0,0,1,.17-1.78c.22-.6.45-1.17,1.22-1.06s1.34.39,1.46,1.19a6,6,0,0,1-.42,2.91c-.19.52-.55,1-1.25.88a1.42,1.42,0,0,1-1.17-1.21A4.14,4.14,0,0,1,65.05,80.94Z"/><path class="cls-26" d="M49.7,82.34a2.58,2.58,0,0,1,3.63,1.92,1.29,1.29,0,0,1-.7,1.28,1.1,1.1,0,0,1-1.41-.25c-.75-.84-1.64-1.66-1.52-3Z"/><path class="cls-26" d="M64.36,79.3c0,.8-.28,1.53-1.1,1.55s-.84-.79-.82-1.45v-.59c0-.57.17-1.1.78-1.14s1,.47,1.1,1A2.83,2.83,0,0,1,64.36,79.3Z"/><path class="cls-26" d="M54.6,79c.91.21,1.19.95,1.33,1.75a.87.87,0,0,1-.85,1.07c-.59.09-1.44-1-1.48-1.78C53.57,79.41,54.05,79.22,54.6,79Z"/><path class="cls-26" d="M58.84,79.6c0,.73-.36,1.3-1.05,1.25-.92,0-1-.93-1.07-1.62a1,1,0,0,1,1-1.16C58.84,78.06,58.52,79.08,58.84,79.6Z"/><path class="cls-26" d="M59.8,79.34c0-.82.12-1.65,1.1-1.44s.62,1.23.75,1.9a.78.78,0,0,1-.9.86C59.92,80.6,59.79,80,59.8,79.34Z"/><path class="cls-27" d="M69.9,88.38a26.05,26.05,0,0,1-5.53,1.78,24.48,24.48,0,0,1-9.08-.37A10.49,10.49,0,0,1,62,86.71a17.59,17.59,0,0,1,7.15.9c.36.12,1,.07.77.78Z"/><path class="cls-28" d="M72.54,72.63c.33,0,.43.19.42.46a.55.55,0,0,1-.45.6.36.36,0,0,1-.46-.39A.58.58,0,0,1,72.54,72.63Z"/><path class="cls-29" d="M69.83,73.34a.52.52,0,0,1-.45.59c-.28,0-.43-.13-.45-.4s.09-.63.48-.65S69.8,73.09,69.83,73.34Z"/><path class="cls-30" d="M72.82,76.3c-.35,0-.5-.21-.45-.48a.63.63,0,0,1,.53-.54.37.37,0,0,1,.45.4A.73.73,0,0,1,72.82,76.3Z"/><path class="cls-31" d="M71.69,70.63a.49.49,0,0,1-.57.46c-.22,0-.4-.15-.39-.37s.14-.55.5-.54A.45.45,0,0,1,71.69,70.63Z"/><path class="cls-32" d="M47.06,72.66a.52.52,0,0,1-.5.56.34.34,0,0,1-.39-.35.46.46,0,0,1,.36-.54C46.79,72.29,47,72.35,47.06,72.66Z"/><path class="cls-33" d="M47.65,75.14c-.26,0-.44-.17-.42-.45a.42.42,0,0,1,.47-.42.35.35,0,0,1,.35.39C48.06,74.92,48,75.12,47.65,75.14Z"/><path class="cls-32" d="M45.26,75.7c.26,0,.39.17.36.4a.49.49,0,0,1-.53.49.33.33,0,0,1-.33-.39A.55.55,0,0,1,45.26,75.7Z"/><path class="cls-34" d="M47.3,78c0,.27-.2.45-.48.42a.37.37,0,0,1-.34-.41.44.44,0,0,1,.49-.41A.33.33,0,0,1,47.3,78Z"/><path class="cls-35" d="M92.64,61a.69.69,0,0,1-.72.76.65.65,0,0,1-.73-.63.66.66,0,0,1,.65-.81C92.31,60.28,92.57,60.55,92.64,61Z"/><path class="cls-36" d="M93.46,59.35a.41.41,0,0,1-.57.27.35.35,0,0,1-.22-.47.41.41,0,0,1,.79.2Z"/><path class="cls-37" d="M22.42,62.73c.3-.57.69-1,1.41-.79a.92.92,0,0,1,.72,1c0,.74-.52,1-1.19,1.07A1.31,1.31,0,0,1,22.42,62.73Z"/><path class="cls-38" d="M25.66,58.87a.82.82,0,0,1,.85.9.76.76,0,0,1-.83.8.78.78,0,0,1-.86-.88A.82.82,0,0,1,25.66,58.87Z"/><path class="cls-39" d="M114,86.62V42.24a17.06,17.06,0,0,0-8.53-14.77L67,5.29A17,17,0,0,0,50,5.29L11.53,27.47A17.06,17.06,0,0,0,3,42.24V86.62a17.06,17.06,0,0,0,8.53,14.77L50,123.58a17.1,17.1,0,0,0,17.06,0l38.42-22.19A17.06,17.06,0,0,0,114,86.62Z"/></g></g></svg>