<svg xmlns="http://www.w3.org/2000/svg" viewBox="0 0 116.97 128.86"><defs><style>.cls-1{fill:#520004;}.cls-2{fill:#ba906f;}.cls-3{fill:#2d0002;}.cls-4{fill:#f7ecd7;}.cls-5{fill:#d1a97e;}.cls-6{fill:#e1ba91;}.cls-7{fill:#eddbaf;}.cls-8{fill:#fbf5e8;}.cls-9{fill:#e7e4d1;}.cls-10{fill:#f3e5cd;}.cls-11{fill:#fcfaf3;}.cls-12{fill:#aca9ab;}.cls-13{fill:#d1a87d;}.cls-14{fill:#e1bb92;}.cls-15{fill:#2d0103;}.cls-16{fill:#faf8f0;}.cls-17{fill:#e4c69c;}.cls-18{fill:#2e0103;}.cls-19{fill:#fdfbee;}.cls-20{fill:#b27d72;}.cls-21{fill:#f6ebd6;}.cls-22{fill:#ead7ac;}.cls-23{fill:#e3c49a;}.cls-24{fill:#faf7f0;}.cls-25{fill:#5b3c35;}.cls-26{fill:#f4e7d2;}.cls-27{fill:#b68375;}.cls-28{fill:#855845;}.cls-29{fill:#d1a87e;}.cls-30{fill:#8e694d;}.cls-31{fill:#624631;}.cls-32{fill:#644732;}.cls-33{fill:#906a4e;}.cls-34{fill:#d1a97f;}.cls-35{fill:#684a34;}.cls-36{fill:#cea78a;}.cls-37{fill:#eed7be;}.cls-38{fill:#ddbb90;}.cls-39{fill:#d1a482;}.cls-40{fill:#b17d72;}.cls-41{fill:#4e2c2a;}.cls-42{fill:#b27c71;}.cls-43{fill:#010101;}.cls-44{fill:#b17c71;}.cls-45{fill:#b37e73;}.cls-46{fill:#eddaae;}.cls-47{fill:#edd9ae;}.cls-48{fill:#eddaaf;}.cls-49{fill:#edd5cc;}.cls-50{fill:#fdfcfa;}.cls-51{fill:#fefefd;}.cls-52{fill:#fdfbf0;}.cls-53{fill:#aea9aa;}.cls-54{fill:#e2ddcb;}.cls-55{fill:#745651;}.cls-56{fill:#eddbb0;}.cls-57{fill:#b88677;}.cls-58{fill:#e7d1ad;}.cls-59{fill:#54302c;}.cls-60{fill:#593b33;}.cls-61{fill:#aeaaab;}.cls-62{fill:#5d1513;}.cls-63{fill:#7f1b19;}.cls-64{fill:#fdfaed;}.cls-65{fill:#fcfaed;}.cls-66{fill:#862f2a;}.cls-67{fill:#b78577;}.cls-68{fill:#ad7d64;}.cls-69{fill:#d56c6a;}.cls-70{fill:#ba916f;}.cls-71{fill:#8f694d;}.cls-72{fill:#664933;}.cls-73{fill:#5d1413;}.cls-74{fill:#e4a09f;}.cls-75{fill:#865845;}.cls-76{fill:#f1ded6;}.cls-77{fill:#e7e4d2;}.cls-78{fill:#b0adad;}.cls-79{fill:#aeabac;}.cls-80{fill:#ada8a8;}.cls-81{fill:#ada8a9;}.cls-82{fill:#aea7a7;}.cls-83{fill:#a11312;}.cls-84{fill:#e7e3d0;}.cls-85{fill:#e7e3d1;}.cls-86{fill:#e8e4d2;}.cls-87{fill:#dd1f0f;}.cls-88{fill:#a21413;}.cls-89{fill:#aea8a9;}.cls-90{fill:#dc2010;}.cls-91{fill:#e5e1ce;}.cls-92{fill:#afa4a4;}.cls-93{fill:#d63023;}.cls-94{fill:#edfd04;}.cls-95{fill:#4f2d2a;}.cls-96{fill:#b03c2e;}.cls-97{fill:#fcfd2a;}.cls-98{fill:#d51917;}.cls-99{fill:#c19380;}.cls-100{fill:#bf8e74;}.cls-101{fill:#bf8e73;}.cls-102{fill:#f9f3e6;}.cls-103{fill:#fe6a34;}.cls-104{fill:#f6280a;}.cls-105{fill:#fdfcf6;}.cls-106{fill:#4f2c2a;}.cls-107{fill:#f32a27;}.cls-108{fill:#170807;}.cls-109{fill:none;stroke:#1c0002;stroke-miterlimit:10;stroke-width:6px;}</style></defs><g id="Calque_2" data-name="Calque 2"><g id="Calque_8" data-name="Calque 8"><path class="cls-1" d="M114,60.71H114c-.55-.1-1.11-.19-1.65-.32h0a18.25,18.25,0,0,0-4.43.08h-.38A27.56,27.56,0,0,1,100.65,58a5.85,5.85,0,0,1-3.28-4.29c-.69-3.21-1.52-6.37-2.45-9.52-.7-2.34-1.67-4.55-2.58-6.8l-.06-.13a.43.43,0,0,0,0,0,1.55,1.55,0,0,1-.06-.31.71.71,0,0,0,0-.14c0-.1,0-.2,0-.3a4.92,4.92,0,0,0-.84-2.1l-.16-.27h0c-.16-.26-.33-.51-.51-.77,0,0,0,0,0,0a10,10,0,0,0-2-2.28h0a2.69,2.69,0,0,0-.27-.2h0l-.1-.08A27.12,27.12,0,0,0,78.6,24.3l-.07,0,0,0s0,0,0,0h0a5,5,0,0,1-.85-1.33h0c-.16-.32-.3-.65-.46-1a35,35,0,0,0-2.11-3.48l-.23-.33c-.07-.12-.15-.24-.23-.36-.49-1.26-1.09-2.39-2.53-2.79-.4-.11-.6-.52-.82-.85a2.47,2.47,0,0,0-1.59-1.16l-.37-.11h0a3.39,3.39,0,0,0-.72-.12s0,0,0,0H68.3a2.5,2.5,0,0,1-.54-.07l-.1,0-.23-.1h0a3.75,3.75,0,0,0-3.19-.19,1,1,0,0,1-.81,0,5.35,5.35,0,0,0-4.48.56,2.47,2.47,0,0,1-1,.42,5.75,5.75,0,0,0-4.32,2.19,1.68,1.68,0,0,1-.71.43,7.22,7.22,0,0,0-4.24,4l-.08.09L48.5,20a5.3,5.3,0,0,1-2.06,1.75l-.4.07h0l-.57.1s0,0,0,0A34.35,34.35,0,0,0,40,23.14a1.69,1.69,0,0,1-1.27.05c-.07-.07-.15-.13-.22-.21l-.12-.11a16.73,16.73,0,0,0-2.24-2.37L36,20.44h0a4.57,4.57,0,0,0-3.22-1.48h-.36a5.25,5.25,0,0,0-1.25.19h0l-.33.1-.16.05c-.19.08-.39.16-.57.25h0l-.15.05c-1.09.37-1.73,1.37-2.66,2l-.1.07h0a3,3,0,0,0-2.3,1.83c-.82,1.59-.88,3.34-1.24,5l0,.14a0,0,0,0,1,0,0h0a1.68,1.68,0,0,1-1.08.83A18.26,18.26,0,0,0,13,37.76a1.75,1.75,0,0,1-.61.71h0l-.21.14h0a0,0,0,0,1,0,0A4.31,4.31,0,0,0,10.75,41a8.35,8.35,0,0,0-.26,2.73,14.09,14.09,0,0,1-.87,5.61,27.2,27.2,0,0,0-1.54,7.34c-.34,4,1.22,7.52,3.11,10.89a27.73,27.73,0,0,0,4.25,6.2c2.1,2.13,4.2,4.26,6.49,6.18.21.17.44.46.72.3s.13-.58.06-.86c-.51-2.29,0-4.53.27-6.78.12-1,.61-1.12,1.39-.48s1.28,1.07,1.93,1.61c.29.24.59.65,1,.44s.35-.69.39-1.07c.08-1,0-2,0-3a3.32,3.32,0,0,1,.19-1.53.27.27,0,0,1,.07-.08l0,0a.51.51,0,0,1,.18-.09h.21a2.28,2.28,0,0,1,.45,0h0a1.37,1.37,0,0,1,.56.21l0,.13h0a1.19,1.19,0,0,0,.4.76,18.21,18.21,0,0,0,4.91,2.64h0a3.88,3.88,0,0,1,.36.15h0l.26.11a1,1,0,0,1,.33.47,0,0,0,0,1,0,0h0c0,.06,0,.11,0,.17.46,1.87.38,3.81.71,5.69a15.88,15.88,0,0,0,.38,1.82s0,0,0,0,0,0,0,.08a34.84,34.84,0,0,0,1,4.5c0,.17,0,.34,0,.5h0c0,.09,0,.17,0,.26a4.71,4.71,0,0,1-1.62,3.16h0a4.51,4.51,0,0,1-.55.39h0l-.13.07a3.28,3.28,0,0,1-1.79-.84c-.54-.35-1-.79-1.57-1.09-.79-.41-1.06-.25-1.14.64a11.66,11.66,0,0,0,.37,3.06,9.35,9.35,0,0,1,.36,2.23l0,.11h0a0,0,0,0,0,0,0,.28.28,0,0,1,0,.12l0,0v0a.49.49,0,0,1-.48.32c-.4,0-.5-.35-.6-.64A25.07,25.07,0,0,0,28,88.45c-.18-.28-.27-.63-.58-.79h0a.44.44,0,0,0-.16-.06.69.69,0,0,0-.17.17v0c-.4.49-.27,1.1-.32,1.68s.15,1.44-.28,2.09l-.11,0h0c-.52.07-.76.38-.87.94a14.85,14.85,0,0,0,.17,5.36,22.47,22.47,0,0,1,.39,4.17,9.29,9.29,0,0,0,1.28,4.45,20.33,20.33,0,0,0,6.11,7.27,17.5,17.5,0,0,0,8.49,2.9c4.61.58,8.05-1.66,11.14-4.69a46.1,46.1,0,0,1,4.37-3.9c.91-.69,1.26-.65,1.78.34a19.63,19.63,0,0,0,4,5,3.24,3.24,0,0,1,1,3.12,40.93,40.93,0,0,0-.9,8.33,1,1,0,0,1,0,.24l0,.23H54.42A17.29,17.29,0,0,1,50,123.58l-13.52-7.81h0a14.45,14.45,0,0,1-3-1.6c-.23-.16-.45-.33-.67-.5l0,0L11.53,101.39A17.06,17.06,0,0,1,3,86.62V42.25a17.06,17.06,0,0,1,8.53-14.78L50,5.29A16.61,16.61,0,0,1,54.42,3.5h8.14A16.61,16.61,0,0,1,67,5.29l38.42,22.18A17.06,17.06,0,0,1,114,42.25V60.69Z"/><path class="cls-2" d="M109.53,62.77c-.11-.21-.22-.42-.32-.65l0,0s0-.07,0-.11l-.05-.08-.07-.12a1,1,0,0,0-.65-.37l-.27-.07a.64.64,0,0,1-.18-.06,74.23,74.23,0,0,1-9.08-3,1.87,1.87,0,0,0-1.16-.2.6.6,0,0,0-.11.14h0c-.26.45.24.68.44,1,.51.79,1.43,1.29,1.65,2.3l-.17.06h0c-.89.32-1.8.41-2.69.73H96.7a1.06,1.06,0,0,1-1.32-.49,19.05,19.05,0,0,1-1.87-3.36,1.42,1.42,0,0,1-.12-.25l-.06-.14a5.5,5.5,0,0,0-.28-.6h0s0,0,0,0,0,0,0,0l0,0a.59.59,0,0,0-.45-.22h-.14a1.53,1.53,0,0,0-.68,1.33,7,7,0,0,0,.34,2.35c-1.42-4-2.42-8.06-1.65-12.54.51,1,.93,1.88,1.4,2.75A28.41,28.41,0,0,0,94.12,55c.54.7,1,.79,1.33.3h0l.07-.09h0a3.85,3.85,0,0,0,.19-.44c-.26-2.3-.81-4.56-1.24-6.83a27.39,27.39,0,0,0-1.64-6.6c-.13-.18-.26-.34-.37-.52v0c-.15-.22-.3-.44-.43-.67l0-.06c-.43-.71-.84-1.45-1.27-2.18a5.77,5.77,0,0,0,.85.06h.08c.15,0,0-.2,0-.31h0a.1.1,0,0,1,0-.05h0a.52.52,0,0,1,.21.05c.15.06.29,0,.39-.18a1.87,1.87,0,0,0,.15-.32,2.45,2.45,0,0,1,0-.27,3.17,3.17,0,0,1-.28-.34A1.21,1.21,0,0,0,91,35.86l0,0,0,0c-.07.1-.1.28-.19.28s-.08,0-.14-.09c-.53-.58-1.16-1.07-1.7-1.65l0,0a4.51,4.51,0,0,1-.64-.85h0l-.09-.17a1.94,1.94,0,0,1,.11-1.32,1.06,1.06,0,0,0,0-.19,1,1,0,0,0,0-.25c-.12-.8-.81-1-1.36-1.38-2-1.28-4.4-1.6-6.42-2.8a.64.64,0,0,0-.8,0h0s0,0-.06.06h0a1.76,1.76,0,0,0-.12.2A2.83,2.83,0,0,0,80,29.87a1.34,1.34,0,0,1,.28.18h0l.16.14s0,0,0,0c.44.41.73.95,1.18,1.36a1.16,1.16,0,0,1,.21,1.77,9.59,9.59,0,0,1-.73,1.11c-.11-.48,0-1-.17-1.38s-.26-.36-.38-.34h0a0,0,0,0,0,0,0,.68.68,0,0,0-.3.38c-.27,2.8.06,5.62-.47,8.4a8.7,8.7,0,0,1,.13.87s0,0,0,.08h0l0,.25v0c0,.4.05.81.05,1.21,0,.94-.08,1.88-.17,2.8a2.56,2.56,0,0,0,1.4,2.86,7.87,7.87,0,0,1,3.4,4,29,29,0,0,1,2,7q.48,3.38.79,6.78c.38,4.26.76,8.51.83,12.79.06,3.35-.05,6.71,0,10.07a31.9,31.9,0,0,1-2.79,13.38c-.66,1.55-1.6,3-2.32,4.47a10.33,10.33,0,0,1-8.45,6.07,5.45,5.45,0,0,0-2.38.54,0,0,0,0,0,0,0h0l0,0a0,0,0,0,1,0,0,2.17,2.17,0,0,0-.27,1.32,17.82,17.82,0,0,1,0,1.79,7.36,7.36,0,0,0,.08,1.56v0a2.56,2.56,0,0,0,.28.74h0l.07.11.4-.23,29.93-17.29.28-.16c-1.06-1.93-2-3.89-3-5.87A19.5,19.5,0,0,0,99,94a29,29,0,0,0-5.06-5.88A5.84,5.84,0,0,1,92,85.26a15.39,15.39,0,0,1-.6-2.93c-.23-2.1-.39-4.21-.64-6.31-.27-2.36-.5-4.73-.73-7.1a2.23,2.23,0,0,1,.22.94c.56,4.35.95,8.73,1.8,13a6.52,6.52,0,0,0,2.88,4.59A12.29,12.29,0,0,1,99,92c1.81,3.24,3.82,6.36,5.66,9.59a2,2,0,0,0,.12.19l.27-.16.37-.21a18.4,18.4,0,0,0,2.81-2l.25-.25c-.77-1-1.47-2-2.22-3a38.54,38.54,0,0,1,3.9,1.25,3.25,3.25,0,0,0,.23-.29,16.86,16.86,0,0,0,3.13-6.62l.06-.25h0a8.51,8.51,0,0,1-3.26-5.5l-.09-.07h0a0,0,0,0,0,0,0h0a.29.29,0,0,0-.16,0,1.32,1.32,0,0,0-.73.54h0l-.15.19a1.36,1.36,0,0,1-1.35.56,23,23,0,0,1-3.66-1h0a6.35,6.35,0,0,1-.77-.41h0a3.19,3.19,0,0,1-.19-1.17c0-.4,0-.79,0-1.18,0-2.9,0-2.94,2.85-2.54h0a1.51,1.51,0,0,1,.3,0h0c.38,0,.76.16,1.15.22.62.08,1-.18,1.09-.8a7.12,7.12,0,0,0-.19-3.4.46.46,0,0,0-.13-.08.35.35,0,0,0-.17,0,.32.32,0,0,0-.14,0h0a.53.53,0,0,0-.14.12,1.74,1.74,0,0,0-.18.22,1.64,1.64,0,0,1-1.77.68,43,43,0,0,1-5.73-1.13c-.53-.15-1-.38-1.11-.95-.4-2-.91-4.05-1.3-6.09,0,0,0,0,0,0l0-.14s0,0,0-.06c-.12-.61-.22-1.24-.3-1.86,0,0,0-.09,0-.14h0a1.24,1.24,0,0,1,.77-1.31,25.08,25.08,0,0,1,3.72-1.53h0l.47,0h0A10.62,10.62,0,0,1,108,65.51a10.12,10.12,0,0,0,2.06,1.4,5.29,5.29,0,0,1,2.45,2A3.55,3.55,0,0,0,114,70.23V66.05A7.2,7.2,0,0,1,109.53,62.77Z"/><path class="cls-3" d="M70.91,121.33l-.39.23-3.5,2a16.86,16.86,0,0,1-3.64,1.56l0,.23H63v-.12a39.39,39.39,0,0,1,.92-8.72,2.69,2.69,0,0,0-.89-2.78,16.29,16.29,0,0,1-4.23-5.43c-.23-.52-.41-.61-.94-.21-2.31,1.72-4.16,3.94-6.41,5.72s-4.72,3.28-7.86,3.22a20.49,20.49,0,0,1-7.19-1.28h0a14.45,14.45,0,0,1-3-1.6c-.23-.16-.45-.33-.67-.5l0,0a17.76,17.76,0,0,1-6.88-10.28c-.47-2.07-.26-4.28-.68-6.38a12.52,12.52,0,0,1,0-5.1c.08-.38.17-.85.64-.92s.23.46.48.59h0c.47.27.52.76.61,1.22.19.85.37,1.71.63,2.54a5.84,5.84,0,0,1,.12,3.51,2.71,2.71,0,0,0,0,.29h0a3.23,3.23,0,0,0,0,.44h0c0,.38,0,.76,0,1.14a3.48,3.48,0,0,0,0,.55c0,.17,0,.33,0,.49A8.35,8.35,0,0,0,29.59,106a12.41,12.41,0,0,0,4.3,3.84l.36.2.19.1c.31.16.61.31.93.44h0c.39.17.79.32,1.2.46h.07s0,0,0,0c5,1.07,9.38-.35,13.61-2.84a25.83,25.83,0,0,0,9.57-10.47c.1-.17.18-.36.28-.52.22-.36.39-.86.89-.82h0c.44.06.55.55.68.91,1.53,4.31,4.06,8,6.62,11.77a2,2,0,0,0,.26.39h0a0,0,0,0,0,0,0c.19.19.35.39.51.58h0a6.35,6.35,0,0,1,1.26,4.58c0,.07,0,.14,0,.21h0s0,.08,0,.13A58.13,58.13,0,0,0,70.91,121.33Z"/><path class="cls-4" d="M72.44,120.45l-.25.14-1.28.74-.39.23a48.22,48.22,0,0,1-.48-6.69h0a2.09,2.09,0,0,1,.34-.21,2.29,2.29,0,0,1,1.83,0h0l.12.12h0a0,0,0,0,0,0,0l0,1.42a13.31,13.31,0,0,0-.12,1.53h0a17.41,17.41,0,0,0,.17,2.5h0S72.43,120.4,72.44,120.45Z"/><path class="cls-5" d="M72.89,120.19l-.4.23,0,0-.25.14c0-.34,0-.68,0-1v0q0-1.07,0-2.13c0-.39-.09-.81.2-1.15a5.84,5.84,0,0,0-.12,1.53h0A6.52,6.52,0,0,0,72.89,120.19Z"/><path class="cls-6" d="M79.8,27.73a6.76,6.76,0,0,0,.48,2.17,2.49,2.49,0,0,1,.28,2.85c0,1.23-.06,2.45,0,3.68a25.2,25.2,0,0,1-.46,5.27.6.6,0,0,1,0,.54c-.93,3.51-2.63,6.57-5.78,8.5-3.7,2.26-7.45,1.47-11-.47a2.19,2.19,0,0,0-2.6,0,9,9,0,0,1-5.78,1.07,1.17,1.17,0,0,1-1.2-1,25.37,25.37,0,0,1-6,6.12C41.44,61,34.85,61.53,28,57.83a13.44,13.44,0,0,0-12.85-.16,4.22,4.22,0,0,0-1.47,1,2.8,2.8,0,0,1-3.72.79c-.79-1.29-.47-2.72-.34-4a15.75,15.75,0,0,1,2.54-7.34c.23-.29.31-.67.56-.94.65-.06.6.51.74.87a17.42,17.42,0,0,0,1.15,2.74c.31.52.55,1.17,1.34,1.17a2.88,2.88,0,0,0,.54-2,19.1,19.1,0,0,0-.77-6.46c.24-1.12-.53-2.09-.49-3.18.25-.63.63-.33.93-.09a5.36,5.36,0,0,1,1.64,2.41,8.56,8.56,0,0,0-2.46-4.76,1.23,1.23,0,0,1-.53-.76.58.58,0,0,1,.57-.57,7.46,7.46,0,0,1,2.86,3.28c.47.84.68,1.83,1.91,1.85a3.77,3.77,0,0,0,3.39-1.41,11,11,0,0,1,2.92-3,3.89,3.89,0,0,1,1.4-.65c.36-.06.77-.1,1,.29s-.13.6-.35.83c-.52.55-1.15,1-1.64,1.57a31.29,31.29,0,0,0-2,2.89,12.8,12.8,0,0,1,8.56-3.75c.24,0,.48,0,.72,0s.52.1.61-.21-.13-.45-.29-.63a2.77,2.77,0,0,0-1-.7c-.84-.4-.95-.9-.6-1.82C34.25,31.43,37,29,40,26.71a28.59,28.59,0,0,1,2.66-1.84,3.86,3.86,0,0,0,1.21-1.3,4.18,4.18,0,0,1,2.68-2.05l1.93-1.71a1.24,1.24,0,0,1,.41.87c0,.75,1,1.19.55,2.06a3.89,3.89,0,0,0-3.2,5c.06,1.85,3,4,4.67,3.41a2.27,2.27,0,0,0,1.35-1.7,4.64,4.64,0,0,0,.1-2.25.59.59,0,0,1,.2-.48c.54-.14,1,.18,1.5.29a2,2,0,0,0,2.66-1.63c.05-.19.06-.39.12-.58A.81.81,0,0,1,58,24.2c.58.22.44.71.22,1.1a21.44,21.44,0,0,1-2.68,3.81c-3.06,3.38-4.15,3.77-8.71,3.25a3.62,3.62,0,0,1-3.17-2.46c.06,2.6.74,3.5,3.18,4.39.91.33,1.95.42,2.66,1.22.11.49-.22.83-.39,1.23a3.41,3.41,0,0,0,.58,3.89A10.4,10.4,0,0,0,53,43.09a5.18,5.18,0,0,1-1.84-2.77c-.32-1.12-.08-1.7.81-2.15a8,8,0,0,1,1.84,1.09,13,13,0,0,0,11.38.84,9.39,9.39,0,0,0,5.19-4.71,21.51,21.51,0,0,0,2.18-8.13,4.25,4.25,0,0,0-.2-1.63c-.46-2.43-3-4.6-5.78-5a5.17,5.17,0,0,1-1.29-.2c-.39-.16-.72-.39-.66-.87S65,19,65.44,19a4.43,4.43,0,0,1,2.2.43,3.35,3.35,0,0,0,3,.36.76.76,0,0,1,1.11.53c.51,1.29,1.1,1.44,2.33.64a1.23,1.23,0,0,1,.48-.25c2,.54,3.07,2,4.07,3.63A4.7,4.7,0,0,1,79.8,27.73Z"/><path class="cls-7" d="M46.52,21.52a7.35,7.35,0,0,0-2.74,2.74c-.5.95-1.6,1.28-2.44,1.85a29.19,29.19,0,0,0-6.71,6.22c-.83,1.05-1.05,2.39-1.76,3.51-.31.48.32.55.59.68a2.91,2.91,0,0,1,1.74,1.69c.11.33.2.73-.45.66-4.06-.42-7.35,1.19-10.16,4a.85.85,0,0,1-.44.25A12.63,12.63,0,0,1,26,39.81,28.3,28.3,0,0,1,28.63,37a5.2,5.2,0,0,0-4.12,2.57A5.06,5.06,0,0,1,20.92,42a2.17,2.17,0,0,1-2.69-1.46c-.59-1.58-1.82-2.68-2.83-3.94a4.85,4.85,0,0,1,3.1-3c.25.58-.3.84-.51,1.24s-.27.5-.09.77.53.29.85.23c1.46-.28,2.27-1.58,1.65-2.66-.92-.64-.93-.73,0-1.38a36.89,36.89,0,0,1,7.15-4.06c3.11-1.32,6.11-2.87,9.14-4.37.35-.17.73-.31,1.1-.45a1.05,1.05,0,0,1,.85-.05c.45.34.85,0,1.23-.11A26.26,26.26,0,0,1,46.52,21.52Z"/><path class="cls-3" d="M28.09,68.58a39.21,39.21,0,0,1-.2,5.73c-.14.69-.38.69-.85.41a18.27,18.27,0,0,1-2.87-2.31c-.19-.18-.34-.51-.68-.38s-.17.42-.19.64c-.21,2.48-.92,5,0,7.43a.66.66,0,0,1-.13.78c-.32.23-.63,0-.88-.18a7.86,7.86,0,0,1-1.1-.9c-3.33-3.23-7-6.16-9.28-10.33a48.17,48.17,0,0,1-3.42-7.09,15.08,15.08,0,0,1-.33-8.47,34.81,34.81,0,0,1,1.82-6.53c.59-1.37.15-3,.18-4.51a6.41,6.41,0,0,1,1.31-4c.2-.26.31-.79.87-.56.28.38.1.77,0,1.13a12.38,12.38,0,0,0-.79,5.29,8,8,0,0,1-.86,4C9,52,9.12,55.47,9.57,59c.11.82,1,1.25,1.11,2.08,0,.25.11.49.17.73A21.44,21.44,0,0,0,16,71.4a8,8,0,0,0,1.18,1A8.66,8.66,0,0,0,19.8,74c0-.4-.25-.66-.35-1-.36-1-.7-2.07-1-3.13q-.79-3.06-1.36-6.16A5.22,5.22,0,0,1,17,62.18a1.16,1.16,0,0,1,.43-.84.54.54,0,0,1,.35-.08,1.43,1.43,0,0,1,.58.74,19.69,19.69,0,0,0,4.58,6.06,2.71,2.71,0,0,0,1,.69c.89,0,.9-.51.79-1.19-.18-1.13-.79-2.16-.69-3.34a.47.47,0,0,1,.37-.32c.8.32.86,1.19,1.29,1.79s.69,1,1.08,1.44S27.9,67.89,28.09,68.58Z"/><path class="cls-8" d="M10.41,61.31c-.31-1.16-1.22-2-1.36-3.33a17.13,17.13,0,0,1,1.48-10,4.52,4.52,0,0,0,.54-2.62A14.25,14.25,0,0,1,12.3,38.3c2.38-4.69,6.25-7.65,11-9.54a9.67,9.67,0,0,0,2.18-4,4.59,4.59,0,0,1,1.29-2.65c.87-.15,1.2.47,1.45,1.11a1.47,1.47,0,0,1-.5,1.72c-.28.25-.75.34-.74.85a1.83,1.83,0,0,0,.12.46c.76,1.16,1.21-.09,1.8-.23a4.27,4.27,0,0,1,.44-.3,32.81,32.81,0,0,1,7-2.67c.52-.12,1.07-.4,1.57.09-4.13,2.17-8.39,4-12.59,6.07a35.07,35.07,0,0,0-5.43,3.36l.8.39a3.4,3.4,0,0,1-2.15.72,10.66,10.66,0,0,0-3.13,2.89l-.49.47c-.45,1.14.4,2.08.47,3.14s.93,2,.57,3.1c-.42-.14-.52-.51-.66-.87-.19-.57-.51-1-1.18-1s-.9.55-1.1,1.11a3.9,3.9,0,0,0-.13,1.17,18.21,18.21,0,0,1-.33,4.36,15.65,15.65,0,0,0-2.47,11.29C11,60.38,11,60.6,10.41,61.31Z"/><path class="cls-9" d="M26.66,67.32A9.22,9.22,0,0,1,24.48,64a1.89,1.89,0,0,1-.54-1.57c-.08.62.32,1.19.29,1.81.3,1.16.63,2.31.88,3.47s-.25,1.54-1.34,1.31a1.55,1.55,0,0,0,0-2.14c-1.11-1.74-2.21-3.49-3.26-5.11.71,1.74,1.39,3.64,2.23,5.48.16.35.4.72,0,1.1a18.63,18.63,0,0,1-5.06-6.94,1.93,1.93,0,0,1,.34-2.5,2,2,0,0,1,2.55-.1A11,11,0,0,1,23,61a2.58,2.58,0,0,1,1.57-2.19,3.12,3.12,0,0,1,2.84.38,6.29,6.29,0,0,1,2.83,3.42,1.89,1.89,0,0,1,.08.4c.1,1.42.08,2.84,0,4.26,0,.64-.1,1.28-.86,1.52a1.34,1.34,0,0,1-1.22-.25A1.11,1.11,0,0,0,28.53,67c-1-1.9-2-3.79-2.79-5.74a23,23,0,0,0,1,4.85C26.83,66.49,27,66.92,26.66,67.32Z"/><path class="cls-10" d="M91.59,37.77c.12-.45.62-.42.9-.67,2.65,5.26,3.89,11,5.25,16.62a5.39,5.39,0,0,0,3,3.93,34.63,34.63,0,0,0,6.66,2.47c.42.27.91.47,1,1,0,.21.11.49-.29.43a66.07,66.07,0,0,1-10.18-3.3,2.14,2.14,0,0,0-.34-.09,1.67,1.67,0,0,1-2-1.15c-.35-.71.08-1.48-.17-2.2-.87-4.58-1.46-9.22-2.88-13.68A6.64,6.64,0,0,1,91.59,37.77Z"/><path class="cls-9" d="M35.53,72.78l-.14-.19a6,6,0,0,1-2.07-2.26A19.47,19.47,0,0,1,30.4,63a1.89,1.89,0,0,1,1-2c.88-.15,1.6.4,2.39.6a8.27,8.27,0,0,0,1.38.37A2.79,2.79,0,0,1,38,64.21a41.72,41.72,0,0,1,1,5.65c.09.55.21,1.09.25,1.65,0,.82.56,1.58.28,2.43-.63.38-.84-.23-1.1-.53a25.26,25.26,0,0,1-4.48-7.35c.53,1.62,1.22,3.89,2.11,6.09a1,1,0,0,1,0,.91C35.73,73.24,35.63,73,35.53,72.78Z"/><path class="cls-7" d="M74.52,20.81l-.17.18-.31.2a1.66,1.66,0,0,1-2.19-.14c-.59-.58-.34-1.35,0-2a3.89,3.89,0,0,0,.74-2.36A3.13,3.13,0,0,1,69.82,20a2,2,0,0,1-1.95-.92c-.45-.71.14-1.08.49-1.55s.5-1.09.42-2.45a3,3,0,0,1-1.37,3.33,1.53,1.53,0,0,1-1.78.21c-.6-.4-.46-1-.38-1.63.18-1.4.29-2.8-.81-3.93,0-.34.23-.44.49-.54,1-.19,1.94,0,2.9-.13h.5a2.28,2.28,0,0,0,1.41.21,19.38,19.38,0,0,1,4.6,3.76,3.83,3.83,0,0,1,.48,1.21C75.12,18.72,75.59,19.83,74.52,20.81Z"/><path class="cls-11" d="M67.83,12.43c-.85.83-1.9.23-2.84.4-.1-.08-.25-.15-.33-.08-1.41,1.15-3.13,1.32-4.84,1.58a4.77,4.77,0,0,0-2.53.9c-.72.61-1.76.66-2.5,1.29a.64.64,0,0,1-.13.29c-1,.56-1.28,1.76-2,2.58-1,1.06-1.83,2.05-3.43,1.7a.43.43,0,0,1-.51-.34l-.24-.94a6.23,6.23,0,0,1,3.66-4,5.6,5.6,0,0,0,2.29-1.6,3.08,3.08,0,0,1,2.49-1.19,4.12,4.12,0,0,0,2-.6c1.42-.71,2.92-1.32,4.53-.49.27.13.56.25.79.09C65.53,11.13,66.68,11.74,67.83,12.43Z"/><path class="cls-9" d="M27.36,87.08a19.4,19.4,0,0,1,3.58,6.53c.34,1,.45.34.72.07l.15.12a24.8,24.8,0,0,1,1,3.27,6.56,6.56,0,0,1,0-3.51c.57-.34.87.12,1.18.43a8.13,8.13,0,0,1,1.24,1.71,11,11,0,0,1,.21,2.5,1.88,1.88,0,0,1-1.36,2,2,2,0,0,1-2.29-1.1,5.11,5.11,0,0,1-.39-.81c-.23.67-.41,1.32-1.29,1a9.73,9.73,0,0,1-2.16-4.92c-.24-2-.61-4-.76-6C27.1,88,27,87.48,27.36,87.08Z"/><path class="cls-12" d="M37.68,85.32c-.37-1.5-1.1-2.93-1-4.55.65-.49,1.16,0,1.72.22,1.1.53,1.11.54,1.35-.55.08-.39.15-.83.63-.88s.6.31.79.62a3.41,3.41,0,0,1,.3.64,9.68,9.68,0,0,1,.06,3,3,3,0,0,0,.59,2.24c.63.83,1.09,1.76,1.67,2.62a9.69,9.69,0,0,0,3.74,3.42c.44.25,1,.39,1.22.91a4,4,0,0,1-2,2.75c-.88-.14-1.31-.86-1.81-1.47a22.15,22.15,0,0,1-4.35-8.46,2.44,2.44,0,0,0-1-1.7c-.68,0-.8.57-1,1-.13.32-.14.68-.43.92C37.56,86.12,38,85.51,37.68,85.32Z"/><path class="cls-12" d="M35,95.69c-.92-.51-1-1.82-2.13-2.18a1.42,1.42,0,0,1-1.17.39.25.25,0,0,1,0-.22,17.62,17.62,0,0,1-.94-5.48c0-1.36.42-1.55,1.59-.83a28.83,28.83,0,0,0,3.19,2,2.77,2.77,0,0,0,2.11-1.51c.16-.3.06-.86.69-.56.37,1.41,0,2.86.23,4.28a2.31,2.31,0,0,1-1,1.2c-.56.21-1.08-.39-1.65-.1a1,1,0,0,0-.45.36c-.37.76.1,1.59-.2,2.36A.59.59,0,0,1,35,95.69Z"/><path class="cls-13" d="M79.8,27.73c-.51-1.11-.63-2.39-1.4-3.39.07-.09.07-.24.22-.25a22.39,22.39,0,0,1,9.8,6.52c.13.58.92.95.54,1.69-.45.13-.66-.11-.76-.5-.64-1.37-2.08-1.6-3.24-2.17-1.51-.74-3.25-1-4.65-2A.34.34,0,0,0,79.8,27.73Z"/><path class="cls-14" d="M37.9,23.18a26.15,26.15,0,0,0-7.51,2.45c-.36.16-.73.3-1.09.44-.12-.83.75-.85,1.08-1.32.74-.46.22-.8-.07-1.22s-1.08-.51-.64-1.26a2.69,2.69,0,0,1,1.38-.12A1.43,1.43,0,0,0,33,21.3a2.24,2.24,0,0,1,.59-.87.74.74,0,0,1,.48-.1,2.09,2.09,0,0,0,2.18,0,6.23,6.23,0,0,1,2.38,2.63Z"/><path class="cls-15" d="M30.68,63.06a22.37,22.37,0,0,0,4.71,9.53,13.32,13.32,0,0,1-5.59-2.74c-.3-.23-.94-.52-.28-1.06A2.34,2.34,0,0,0,30,67c0-1.41,0-2.83,0-4.25.09-.2.2-.37.47-.3S30.59,62.88,30.68,63.06Z"/><path class="cls-3" d="M38.35,81.29c-.56-.16-1-.63-1.65-.52-.68-.87-.49-2-.66-3-.29-1.66-.35-3.36-.51-5l.47.29a16.75,16.75,0,0,1,3,2.36,11.31,11.31,0,0,1-.07,5.27C38.88,81,38.78,81.34,38.35,81.29Z"/><path class="cls-16" d="M27.36,87.08c.24,2.35.46,4.7.84,7a9.31,9.31,0,0,0,1.88,4.67c.06.08,0,.29-.08.44a2.11,2.11,0,0,1-.24.81c-.51.88-1.06.55-1.64,0a2.76,2.76,0,0,1-.72-1.33c.69-2.55-.81-4.78-1-7.2,0-1-.06-2,.05-3C26.49,88,26.41,87.13,27.36,87.08Z"/><path class="cls-17" d="M114,60.71H114v1.55a8.91,8.91,0,0,0-3.16.12,2.17,2.17,0,0,1-1.57-.23l0,0-.09-.06h0l-.31-.25c-.18-.3-.57.16-.73-.21a.85.85,0,0,0,0-.26c0-.38-.3-.61-.53-.87a.83.83,0,0,1-.22-.34c1.68-.08,3.36-.58,5,0,.51.22,1,.42,1.56.59Z"/><path class="cls-18" d="M27,22.22a6.45,6.45,0,0,0-1.23,4.35c.14,1-.13,1.47-1.06,1.69a10.66,10.66,0,0,0-1.33.5,12.1,12.1,0,0,1,1.58-6.15,2.08,2.08,0,0,1,2.22-1.15.4.4,0,0,1,.14.42A.63.63,0,0,1,27,22.22Z"/><path class="cls-19" d="M26.66,67.32c-.3-1.51-.84-3-1.08-4.49a8,8,0,0,1,.05-2.48c.75,1.55,1.5,3.11,2.26,4.65A20.34,20.34,0,0,0,29,67.23c.62,1,.19,1.26-.73,1.31l-.21,0A3.77,3.77,0,0,1,26.66,67.32Z"/><path class="cls-7" d="M33.59,20.55c-.61,1.88-1.14,2.3-2.37,1.9-.81-.46-1.84-.24-2.61-.84a.35.35,0,0,1,.18-.57A1.93,1.93,0,0,0,30,19.29c.11-.22.33-.22.53-.26C31.65,19.26,33,19.21,33.59,20.55Z"/><path class="cls-20" d="M78.62,24.09l-.22.25a9.77,9.77,0,0,0-3.88-3.53,9,9,0,0,0,.3-3.19A31.37,31.37,0,0,1,78.62,24.09Z"/><path class="cls-21" d="M114,60.71H114V61l-1.53-.54-.12,0h0c-.21-.08-.27-.14.1-.28l1.56.22v.37Z"/><path class="cls-22" d="M36.23,20.3c-.5.92-1.19,1-2.19.22a4.25,4.25,0,0,1-1.62-1.89A4.22,4.22,0,0,1,36.23,20.3Z"/><path class="cls-23" d="M92.47,36.83c-.68,0-.87-.74-1.43-.92-.37,0-.5-.26-.65-.51-.13-.86-1.07-1.44-.8-2.42.48-.27.77,0,1.08.34s.5.68.89.88A3.32,3.32,0,0,1,92.47,36.83Z"/><path class="cls-24" d="M30,19.29c.78,1.52-.56,1.69-1.4,2.18a.73.73,0,0,1-.46.52c-.34.11-.69.29-1,0l.05-.5A5.93,5.93,0,0,1,30,19.29Z"/><path class="cls-25" d="M38.12,87.22A2,2,0,0,0,38,88.36c0,.55,0,1-.77.61a.49.49,0,0,0-.73.34c-.23.7-.6.4-1,.11a5,5,0,0,0,2.18-4.1l.44.76A.71.71,0,0,1,38.12,87.22Z"/><path class="cls-26" d="M91.56,34.2c-.87,0-1.07-1.16-2-1.18-.52,0-.63-.35-.66-.77.06-.62-.88-.92-.53-1.64A8.22,8.22,0,0,1,91.56,34.2Z"/><path class="cls-27" d="M32.42,18.63A5.79,5.79,0,0,1,34,20.52l-.45,0c-.83-.95-2.18-.8-3.11-1.52A3.62,3.62,0,0,1,32.42,18.63Z"/><path class="cls-11" d="M69.74,12.65c-.51.21-1,.44-1.41-.21A2.16,2.16,0,0,1,69.74,12.65Z"/><path class="cls-28" d="M80,42.12c0-.14,0-.28,0-.42a16.93,16.93,0,0,1,.06,5.68c-.09.73.06,1.26.61,1.53,3.51,1.71,4.56,5,5.53,8.4A61.59,61.59,0,0,1,87.77,67a175.09,175.09,0,0,1,.83,26.3,28.29,28.29,0,0,1-4.2,13.46,27,27,0,0,1-2.3,4c-2.58,3-5.93,4-9.7,4.06l0,0c-.4-.38-.52-.79-.09-1.23.76-.78.42-1.23-.39-1.72A21.78,21.78,0,0,1,68,109.09a48.73,48.73,0,0,1-7-12.74c-.63,1.1-1.19,2-1.72,3a24.74,24.74,0,0,1-12.95,11.17,17.33,17.33,0,0,1-9.48,1,2.06,2.06,0,0,1-.42-.21c-.2-.6-1.25-.31-1.22-1.16.31-.43.76-.36,1.19-.33a16.79,16.79,0,0,0,12.3-4,25,25,0,0,0,6.14-7.12,17.23,17.23,0,0,1,2.74-3.63c-.87.39-1.69.88-2.53,1.31-.28.14-.64.3-.86-.06s0-.57.25-.73c1.75-1.44,3.18-3.25,5.39-4.11,3.57-1.39,7.12-2.85,10.62-4.39a40.2,40.2,0,0,0,11.77-7.91c.33-.32.63-1,1.1-.74s.18,1,0,1.41C88.66,72.2,86.49,59.07,81.75,52A37.87,37.87,0,0,1,83,56.2c.31,1.45.57,2.9.75,4.37s.38,2.93.45,4.41a13.8,13.8,0,0,1,.18,2.87c0,.27-.08.63-.41.65s-.37-.36-.44-.62c-.1-.47-.18-.95-.26-1.42a15.29,15.29,0,0,0-5-9.16c-.65-.58-1.32-1.23-2.33-.74a4.49,4.49,0,0,0-1.1,2,40.25,40.25,0,0,1-2.09,4.7c-.2.34-.28,1-1,.63-.29-1,.17-1.87.27-2.8.09-.75.21-1.5.32-2.24a6.55,6.55,0,0,0,.18-2.37,2,2,0,0,1,.91-1.83A11.64,11.64,0,0,0,78,48.32C78.62,46.25,79.43,44.22,80,42.12Z"/><path class="cls-29" d="M114,69.94V86.62a17.36,17.36,0,0,1-.37,3.54h0l-.06.25a9.11,9.11,0,0,0-1.13-.9c-1.74-1.16-2.06-3-2.18-4.85h0a.22.22,0,0,1,0-.08v0a4.43,4.43,0,0,0-2.38-3.72c-.61-.39-1.38-.62-1.79-1.28a1.19,1.19,0,0,1-.12-.22c.54-.47,1,0,1.53.12.68.16.86,0,.86-.66,0-1.1,0-2.19,0-3.29h0a.47.47,0,0,1-.1-.2h0a.72.72,0,0,1,.14-.57l0,0c.53-.8,1.2-1.48,1.8-2.22a1.19,1.19,0,0,0,.11-1.61,21.43,21.43,0,0,1-1.9-3.45,3.53,3.53,0,0,0-1.74-1.73c-1.27-.66-2.58-1.24-3.88-1.84-.3-.14-.74-.17-.87-.54a.61.61,0,0,1,0-.24c.37-.39.8-.26,1.22-.12,2.1.73,4.32,1.19,5.88,3a2.11,2.11,0,0,0,.71.43,6.56,6.56,0,0,1,3.29,2.6A2.65,2.65,0,0,0,114,69.94Z"/><path class="cls-30" d="M105.07,101.6l-.27.16-1.7,1-.28.16a60.71,60.71,0,0,1-3.83-8c-.63-1.78-2.07-3.18-3.35-4.6a27.69,27.69,0,0,0-2.78-2.63,5.47,5.47,0,0,1-1.5-3.44c-.38-2.18-.52-4.41-.77-6.62C90.3,75,90,72.39,89.7,69.79A2.3,2.3,0,0,1,90,67.87c.92,1.25.68,2.66.87,3.95.59,4.05.87,8.14,1.84,12.13a4.07,4.07,0,0,0,1.77,2.71,17.07,17.07,0,0,1,5.8,6.69c1.52,2.76,3.17,5.43,4.77,8.14A.41.41,0,0,0,105.07,101.6Z"/><path class="cls-30" d="M101.84,63c1.64.77,3.27,1.58,4.93,2.3a3.59,3.59,0,0,1,2,2A20.91,20.91,0,0,0,110.79,71a.81.81,0,0,1-.07,1.22c-.75.81-1.43,1.68-2.14,2.53-1,1.58-2.47,1.52-4.06,1a15.27,15.27,0,0,0-2.92-.59,2.81,2.81,0,0,1-2.68-2.42c-.41-1.66-.9-3.3-1.29-5a4.11,4.11,0,0,0-.55-1.69,1.27,1.27,0,0,1,1-1.69C99.38,64.06,100.44,63.11,101.84,63Z"/><path class="cls-13" d="M110.41,97a3.25,3.25,0,0,1-.23.29,15,15,0,0,1-1.68,1.79l-.25.25c-.39-.49-.76-1-1.15-1.47s-.77-.91-1.14-1.37c-.17-.2-.51-.34-.31-.69s.49-.31.83-.2C107.8,96.08,109.11,96.53,110.41,97Z"/><path class="cls-30" d="M83.43,40.71c.59-1.29,1.19-2.59,1.79-3.88.31-.69.58-1,1.37-.36a17.3,17.3,0,0,1,3,2.91,6.51,6.51,0,0,1,.86,4.08,12.49,12.49,0,0,1-.49,2.29c-1.1,0-2.2-.11-3.3-.12a2,2,0,0,1-2.09-1.54C84.14,43,83.81,41.83,83.43,40.71Z"/><path class="cls-30" d="M105.92,79.31a20.94,20.94,0,0,1,3.28,2.13,2.89,2.89,0,0,1,1,3.22.49.49,0,0,1,0-.12c-2.06,1.6-4.24.47-6.38.26-.26,0-.51-.22-.77,0a11.41,11.41,0,0,1-.13-5.1c.09-.71,1-1,1.76-.82A7.65,7.65,0,0,1,105.92,79.31Z"/><path class="cls-13" d="M95.38,54.85a6.37,6.37,0,0,1,.42,2.2c-.59.38-1,0-1.52-.28s-1.06-.69-1.64-.93a.1.1,0,0,0-.09,0,.33.33,0,0,0,0,.24c.1.36.3.73,0,1.08-1.17,1.72,0,3.36.21,5.1-2.3-2.36-3.78-11.23-2.42-14.8,1,1.88,2,3.7,2.94,5.51a15.78,15.78,0,0,0,1.34,2.09C94.89,55.45,95.39,55.72,95.38,54.85Z"/><path class="cls-30" d="M114,61.82v3.64a5.86,5.86,0,0,0-.73-.13,4.92,4.92,0,0,1-3.71-2.56c-.14-.23-.28-.47-.41-.71L109,61.9v0h0l.08,0a6.61,6.61,0,0,0,2.73,0A6.43,6.43,0,0,1,114,61.82Z"/><path class="cls-30" d="M92.25,56.06c-.23-.22-.32-.47-.09-.73s.41,0,.6.13a9.71,9.71,0,0,0,3,1.59c.24.9,1.26.62,1.74,1.15.79.93,1.6,1.84,2.37,2.78.17.21.75.38.23.81a7.66,7.66,0,0,0-2.88.45,1.72,1.72,0,0,1-2.12-.85,34.49,34.49,0,0,1-2.39-4.54C92.63,56.56,92.56,56.24,92.25,56.06Z"/><path class="cls-31" d="M97.08,66.14c.81-.23.58.52.65.8.53,2.11,1.11,4.21,1.71,6.31a1.91,1.91,0,0,0,1.82,1.53c1.48.25,3,.54,4.4.93a1.79,1.79,0,0,0,2.19-.58c.15-.19.3-.63.73-.34-.09.23-.19.46-.28.68-.91,2.29-2.76,1.3-4.27,1.14a37.6,37.6,0,0,1-4.31-.93c-.38-.09-.85-.17-.93-.64C98.28,72.06,97.37,69.16,97.08,66.14Z"/><path class="cls-31" d="M114,65.13v1.19a4.2,4.2,0,0,0-.59-.14c-2.48-.47-3.61-2.34-4.59-4.38l.23.08v0l.16.18,0,.06c.44.52.87,1,1.32,1.55a3,3,0,0,0,1.68,1C112.82,64.84,113.4,65,114,65.13Z"/><path class="cls-32" d="M83.43,40.71a7.94,7.94,0,0,1,1.39,3.21,1.66,1.66,0,0,0,1.87,1.37,7.42,7.42,0,0,1,3.22.46,10.33,10.33,0,0,1-5.12.2c-.28,0-.38-.23-.45-.48A16.45,16.45,0,0,1,83.43,40.71Z"/><path class="cls-32" d="M92.25,56.06c.29-.7.38,0,.42.09.84,1.73,1.77,3.4,2.73,5.06a1.5,1.5,0,0,0,1.76.79c1-.12,2-.76,3-.21-1.14.3-2.29.59-3.43.91a1.31,1.31,0,0,1-1.54-.57,31.94,31.94,0,0,1-2.63-4.93C92.45,56.82,92.35,56.44,92.25,56.06Z"/><path class="cls-33" d="M80.56,32.75c-.1-.95-.19-1.9-.28-2.85,2.58,1,2.81,3.05.57,5.27C80.56,34.38,81,33.5,80.56,32.75Z"/><path class="cls-32" d="M103.07,84.81c0-.38.24-.43.57-.37,1.25.22,2.5.42,3.75.61a2.6,2.6,0,0,0,2.15-.43c.13-.11.4-.7.68-.08-1.09,1.91-2.68,1.88-4.47,1.19C104.87,85.39,104,85.12,103.07,84.81Z"/><path class="cls-33" d="M89,32.25l.66.77c.26.82.94,1.46,1,2.36-.74.26-1-.48-1.42-.74s-.82-.82-1.32-1.13c-.42-.66,0-1.18.29-1.71Z"/><path class="cls-34" d="M91.59,37.77a11.49,11.49,0,0,1,.91,3.4c-1.1-1.07-1.56-2.53-2.41-3.84C90.74,37.22,91,38.06,91.59,37.77Z"/><path class="cls-35" d="M87.91,33.51c.86,0,1.2.81,1.82,1.17.33.19.5.61.92.7l.39.53c0,.34.39.61.11,1.13C90.06,35.82,88.72,34.92,87.91,33.51Z"/><path class="cls-36" d="M71.9,64a32.07,32.07,0,0,0,2.64-5.59,4.34,4.34,0,0,1,1.21-2.13c.49.53.25,1.11.08,1.67a35.52,35.52,0,0,1-1.66,4.56c-.6,1.65-1.36,3.23-2,4.85a21.23,21.23,0,0,1-6.7,8.28A52.91,52.91,0,0,0,57,84.28a29.93,29.93,0,0,0-2.68,3.93,40.4,40.4,0,0,1-6,8,16.39,16.39,0,0,1-10.13,5.85,14.12,14.12,0,0,1-7.43-.4c-.93-.34-1.25-.2-1.1.79a.63.63,0,0,1-.09.35c-.84.55-1.14-.29-1.63-.64s-.43-.8-.64-1.21a5.34,5.34,0,0,1,0-2.18c.38.43.76.87,1.16,1.3.57.61.84.26,1-.33a3.33,3.33,0,0,1,2.33.16c1.79.54,3.55.1,5.32,0a16,16,0,0,0,4.45-1.16c.47-.21.94-.43,1.38-.68,1.3-.69,2.4-1.68,3.67-2.42A16.53,16.53,0,0,0,48.67,93c0-.25-.16-.51.08-.73,1-1,1.45-2.46,2.31-3.6.26-.35.45-.75.73-1.09a6.15,6.15,0,0,0,.7-1.25c.36-.79.88-1.5,1.25-2.28.25-.49.63-.88.9-1.35.51-.9,1.2-1.67,1.77-2.52.74-.79,1.4-1.64,2.07-2.48a2.57,2.57,0,0,1,.57-.57,17.24,17.24,0,0,0,2-1.87,20.89,20.89,0,0,0,2.14-2c1.92-1.67,4.17-2.94,5.85-4.89a11.28,11.28,0,0,0,2.23-3.78A1.85,1.85,0,0,1,71.9,64Z"/><path class="cls-37" d="M27.38,100.94c.69.66,1.11,1.65,2.18,1.88.31,0,.39.24.48.47a8.49,8.49,0,0,0,3.06,5.09c.53.49,1.32.75,1.51,1.58-.24.33-.53.21-.83.12C30.31,108.48,27.25,104.11,27.38,100.94Z"/><path class="cls-38" d="M68,109.09c1.65,1,3.33,2,5,3.1.78.53.06,1.35-.2,1.48-.67.35-.35.78-.35,1.19H70A7.55,7.55,0,0,0,68,109.09Z"/><path class="cls-39" d="M33.78,110.08c.24-.09.55,0,.74-.24.47-.25.6.15.79.43a14.51,14.51,0,0,1,1.28.72c.39.26-.06.19-.14.28A7.55,7.55,0,0,1,33.78,110.08Z"/><path class="cls-40" d="M80,42.12A29.21,29.21,0,0,1,78.45,48a12.08,12.08,0,0,1-5.22,7.18c-.41.24-.35.66-.38,1.06-.07.82.22,1.67-.2,2.46-.49-.43-.41-1-.39-1.56,0-.9-.39-1.21-1.23-1.17a17.17,17.17,0,0,1-2.27-.05,12.1,12.1,0,0,1-2.66-.76c-.48-.15-.87-.63-1.46-.39a.57.57,0,0,1-.45-.11c-.79-1.58-1.36-1.77-3-1a1.63,1.63,0,0,0-1.4,1c-.31.16-.51-.1-.75-.19a13,13,0,0,0-2,0c-.45,0-.9.07-1.36.07a7.18,7.18,0,0,0-1.67,0c-.67-.17-1.36-.48-1.88.3-1,.49-1.16,1.47-1.43,2.39-1.11-.28-1.84.38-2.58,1l-2.46,1.65a23.25,23.25,0,0,1-4.54,2.61,1.85,1.85,0,0,1-.33.12,2.89,2.89,0,0,1-1,.22,1.74,1.74,0,0,0-2.09,1.35,2.63,2.63,0,0,0-2.48-1.92,28,28,0,0,1-3.73-1.13,3.84,3.84,0,0,1-2.48-1,15.68,15.68,0,0,0-4.64-2,11.32,11.32,0,0,0-5.2-.45c-.45.12-.92.19-1.36.34a8.58,8.58,0,0,0-2.44,1.31,7.16,7.16,0,0,0-.84.81c-1,1.12-2,2.15-3.63,1.86a1.23,1.23,0,0,1-.29-.22.36.36,0,0,1-.18-.49c.57-.75-.47-1.21-.33-1.88.1-.07.24-.21.28-.19,1.45.87,2.24-.11,3.25-1a12.23,12.23,0,0,1,7-2.47c3.5-.36,6.42,1.13,9.39,2.62a15.39,15.39,0,0,0,8.94,1.32c6-.71,10.23-4.24,13.86-8.72.4-.5.79-1,1.2-1.48,0,0,.07,0,.11,0C54,51,54,51,55.61,51a8.42,8.42,0,0,0,5.84-1.67c.52-.41.81-.12,1.23.16a11.78,11.78,0,0,0,8.73,2c3.31-.59,5.32-2.86,6.87-5.62C79,44.69,79.46,43.38,80,42.12Z"/><path class="cls-40" d="M48.69,20.75l.46.23c.7-.3.91.28,1.19.69A18.93,18.93,0,0,0,52.82,25c1.12,1.06,1.94,1,2.86-.26a3.62,3.62,0,0,0,.52-.94c.26-.76.66-1,1.53-.88a3.06,3.06,0,0,0,3.05-2.77,8.08,8.08,0,0,0-1.07-5c-.24-.4-.82-1.09.38-1,.68.26.88.92,1.24,1.44.06.1.11.21.16.31A11,11,0,0,1,62.42,19c.17.91.46,1,1.15.39,1.5-1.34,1.44-3.06,1.15-4.83-.06-.39-.28-.74-.34-1.14a.42.42,0,0,1,.11-.32c.68-.15.81.35.93.82a7.28,7.28,0,0,1,.1,3.44,1,1,0,0,0,.2,1.12c.41.34.82.09,1.22-.1a2.51,2.51,0,0,0,1.65-2.64,5.27,5.27,0,0,1,.07-1.43c.47,1.26.69,2.54-.33,3.63-.67.72-.31,1.14.26,1.53,1.37.95,3.45-.26,3.78-2.19,0-.35,0-.71.06-1.18.83,1.18.2,2.13-.21,3.1-.21.51-.93,1-.35,1.58a1.87,1.87,0,0,0,1.9.39l.57-.17c-.43.86-1.2.83-2,.68a1.11,1.11,0,0,1-1-1.29c0-.6-.33-.5-.71-.33a3,3,0,0,1-3-.22,5.36,5.36,0,0,0-2.37-.57c-.28-.05-.48,0-.58.24s.09.51.36.64a2.76,2.76,0,0,0,1.17.15c2.86.16,5.94,2.74,6.29,5.28a.34.34,0,0,1-.42-.13c-1-1.74-2.9-2.27-4.57-3.08a3.46,3.46,0,0,0-3.09.07,17.29,17.29,0,0,0-5.46,4A19.37,19.37,0,0,0,56.78,29a19.42,19.42,0,0,1-3.18,3.35c-1.28.78-2.52,1.65-4.28,1.42.67.63,1.18,1.22.86,2.11-.35.19-.57,0-.77-.24-1.35-.78-2.93-1-4.28-1.76a4.31,4.31,0,0,1-1.7-4.74c.2,0,.27.13.32.26.72,2.13,2.34,2.45,4.38,2.72,4.13.56,6.27-1.95,8.37-4.75.54-.73,1-1.51,1.5-2.29.13-.2.39-.53-.06-.66s-.74-.15-.84.37a2.19,2.19,0,0,0,0,.36c-.23,2-1.49,2.76-3.35,2.13-.41-.14-.8-.34-1.2-.52-1-1.4-2.46-2.42-3.12-4.07C49.53,21.91,48.32,21.62,48.69,20.75Z"/><path class="cls-41" d="M56.57,28.9a19.18,19.18,0,0,1,8.62-7,2.61,2.61,0,0,1,2.07,0c2,.89,4.24,1.48,5.36,3.67a3.19,3.19,0,0,1,.23,1.64c-.94-.27-1.13-1.35-1.92-1.78C68.67,23.37,65.8,23.89,64,27a1.38,1.38,0,0,0,.07,1.58c1.3,1.91,0,5.44-1.89,6.82-.33.25-.7.6-1.14.13a.83.83,0,0,1-.05-.35c.07-.4.28-.74.38-1.13a3.84,3.84,0,0,0-3.57-4.86C57.38,29.11,56.91,29.31,56.57,28.9Z"/><path class="cls-20" d="M52.07,46.59c-2.84,1.9-5.74,3.68-9.23,4.14a9.34,9.34,0,0,1-3.07-.27c-.67-.13-.64-.67-.68-1.21-.32-4.56,1.42-8.4,4.17-11.87.47-.6.81-1.36,1.69-1.7a23.68,23.68,0,0,0-3.82,8.83A2.81,2.81,0,0,0,44,48.14,17.38,17.38,0,0,0,52.07,46.59Z"/><path class="cls-42" d="M71.19,25.27c.79.45,1.11,1.29,1.66,1.94-.31,4-1.23,7.75-3.94,10.79a10.46,10.46,0,0,1-6.29,3.15,12.93,12.93,0,0,1-10.81-2.88,1.74,1.74,0,0,1-1.31-1.46c.07-.24.17-.46.45-.51a1.36,1.36,0,0,1,.68.47c2.92,2.94,6.49,3.69,10.44,3.06A7.78,7.78,0,0,0,65.93,38c2.83-2.4,4.84-5.28,5.22-9.1.08-.84-.08-1.67-.08-2.51C71.06,26,70.88,25.62,71.19,25.27Z"/><path class="cls-7" d="M73.37,40.48c1-2,2.35-2.64,3.81-1.7a1.59,1.59,0,0,1,.72,2.33A10.55,10.55,0,0,1,67,46a35.83,35.83,0,0,0,4.94-3.88c.67.42,1.09,0,1.52-.42A.77.77,0,0,0,73.37,40.48Z"/><path class="cls-7" d="M49.4,22.69C50.46,24,52,25,52.52,26.76l0,.52c.24,2.36-1.11,3.69-3.33,3.09-1.37-.38-2.78-1-3.15-2.66-.92-1.78.7-5,2.67-5.22C48.94,22.46,49.18,22.62,49.4,22.69Z"/><path class="cls-43" d="M24.72,52c-.9-.15-1-.88-.95-1.54a13.29,13.29,0,0,1,3.52-8.07,2.14,2.14,0,0,1,2.95-.22,1.5,1.5,0,0,1-.38,2.48C27.12,45.9,26,48.27,25.33,51A1.8,1.8,0,0,1,24.72,52Z"/><path class="cls-43" d="M15.61,42.43l.34.89a16.18,16.18,0,0,1,.73,8.13c-.08.49-.13,1-.79,1-.5-.25-.56-.74-.65-1.21-.22-1.22-.43-2.44-.69-3.65A10.36,10.36,0,0,0,13,44,2.18,2.18,0,0,1,13,42.8a1.39,1.39,0,0,1,1.15-1.19A1.25,1.25,0,0,1,15.61,42.43Z"/><path class="cls-7" d="M73,35a23,23,0,0,0,.85-6.91c0-.92-.19-1.81-.3-2.72,0-.32-.41-.7.12-.91a1.06,1.06,0,0,1,1.09.27,3.83,3.83,0,0,1,1.42,3.84A11.37,11.37,0,0,1,73,35Z"/><path class="cls-44" d="M24.72,52a17.55,17.55,0,0,1,1.42-4.17,6.34,6.34,0,0,1,3.22-3.21c1.09-.43,1.31-1.24.88-2.45.9.11.85.85.69,1.36a16,16,0,0,1-5.75,8.37A1.35,1.35,0,0,1,24.72,52Z"/><path class="cls-7" d="M50.6,36.86l1.21,1.41c-.82,1-.62,2.51.58,3.84.5.54,1.1,1,1.69,1.53-4.46-.57-6.87-4.75-4.67-8l.7.25A.74.74,0,0,1,50.6,36.86Z"/><path class="cls-45" d="M74.49,35.63c-2.39,6.57-11.39,10-17.17,8C64.56,44.37,69.86,40.91,74.49,35.63Z"/><path class="cls-46" d="M13,55.41c3.49-3.08,11.31-3.63,15.45-1A31.33,31.33,0,0,0,13,55.41Z"/><path class="cls-47" d="M34.11,57c.38,0,.76,0,1.14,0a16.4,16.4,0,0,0,8.55-1.64c.3-.13.68-.49,1-.06a.89.89,0,0,1-.24,1.19,6.83,6.83,0,0,1-5.32,1.8A12.94,12.94,0,0,1,34.11,57Z"/><path class="cls-44" d="M13.3,44c1.09.94,1.31,2.3,1.61,3.59.38,1.6.66,3.23,1,4.85-.85-.13-1.22-.8-1.57-1.46a27.67,27.67,0,0,1-1.53-3.84C12.63,46,12.42,44.93,13.3,44Z"/><path class="cls-40" d="M46.06,27.71A6.44,6.44,0,0,0,49,30c2,.73,3.29-.32,3.51-2.72a3.76,3.76,0,0,1-.4,3.28,1.92,1.92,0,0,1-2.21,1A6,6,0,0,1,46,28.87C45.79,28.52,45.59,28.09,46.06,27.71Z"/><path class="cls-48" d="M15.38,40.22c-.5-1-1.6-1.9-.47-3.14A7.78,7.78,0,0,1,18,43.51,11.84,11.84,0,0,0,16,40.41C15.79,40.27,15.68,40,15.38,40.22Z"/><path class="cls-49" d="M13.3,44a9.35,9.35,0,0,0-.51,3.14c-.08.34.08.73-.24,1,0-1.55,0-3.1,0-4.64a3.39,3.39,0,0,1,.26-1.27A1.53,1.53,0,0,1,14.24,41a1.42,1.42,0,0,1,1.37,1.39A1.46,1.46,0,0,0,13.72,42C12.83,42.46,13.2,43.27,13.3,44Z"/><path class="cls-50" d="M73.37,40.48c1-.08,1,.4.59,1.07a5.05,5.05,0,0,1-.89,1c-.59.54-1,.4-1.16-.38Z"/><path class="cls-51" d="M18.53,33.72c.68-.34,1.3-.89,2.15-.72.75.57.61,1.25.14,1.88a3.71,3.71,0,0,1-2,1.38,1,1,0,0,1-1.27-.33c-.34-.46-.08-.85.17-1.21A10,10,0,0,1,18.53,33.72Z"/><path class="cls-52" d="M10.59,61.8h.26a4.5,4.5,0,0,1,2.77,1.68,67.09,67.09,0,0,1,4.63,5.44c.25.31.27.73.55,1l1,3.06c-.53,1.15-1.09.23-1.6,0s-.59-.75-1.14-.36A18.74,18.74,0,0,1,10.59,61.8Z"/><path class="cls-9" d="M18.8,70c-1.79-2.1-3.46-4.32-5.42-6.24a7,7,0,0,0-2.53-1.9c1.68.25,2.56-1,3.59-1.94a4.13,4.13,0,0,1,2.85,2.18,43.25,43.25,0,0,0,1.31,6.86C18.68,69.25,18.73,69.6,18.8,70Z"/><path class="cls-53" d="M17.49,57.75,19,57.47a5.63,5.63,0,0,1,2.89,1.94c.6.59.91.63,1.2-.24a1.6,1.6,0,0,1,1.29-1.26c1.58.14,2.86,1.06,4.24,1.69,1,.45,1.87,1,2.81,1.53a2.17,2.17,0,0,0-.79,1.93l-.23-.51c-.27-.27-.17-.67-.36-1,.09.35.28.7-.12,1a6.58,6.58,0,0,0-3-3.25,2.45,2.45,0,0,0-2.69.05A2.23,2.23,0,0,0,23.51,62c-.81-.86-1.49-1.58-2.15-2.31a3.41,3.41,0,0,0-1.49-.94,1.56,1.56,0,0,0-2.09,1.54c0,.36,0,.72,0,1.08a.2.2,0,0,1-.19-.07l-.15-.16A4.91,4.91,0,0,1,17.49,57.75Z"/><path class="cls-19" d="M22.8,68.34c-.72-1.8-1.45-3.6-2.16-5.4-.27-.69-.48-1.39-.73-2.09l.28-.14c.68,1,1.39,2,2,3.09s1.43,2.38,2.19,3.54c.58.91.28,1.4-.66,1.67A1.74,1.74,0,0,1,22.8,68.34Z"/><path class="cls-54" d="M17,72.64c.45-.3-.28-.5,0-.81a5.23,5.23,0,0,1,1.38,1c.39.31.83.84,1.39.21l.68,1.49A7.62,7.62,0,0,1,17,72.64Z"/><path class="cls-53" d="M17.29,62.05l-2.85-2.18a1.51,1.51,0,0,1,.73-.7c1.23.24,1.59,1.45,2.39,2.16h0Z"/><path class="cls-55" d="M24.23,64.23a2.81,2.81,0,0,1-.3-1.92L24.48,64Z"/><path class="cls-56" d="M27.08,22l1-.2c.33.51,1.07.22,1.4.72s1,.8,1.4,1.25c.62.66.53,1.11-.46,1.15a12.6,12.6,0,0,1-3.78,1.18c0-.5-.15-.9.64-1.16,1.22-.41,1-1.74-.36-2.68Z"/><path class="cls-57" d="M26.67,26.06a8,8,0,0,1,3.78-1.18c-.06.72-1,.54-1.15,1.19l-.25.22c-.73-.1-1.45.34-2.18,0Z"/><path class="cls-58" d="M26.87,26.33c.72-.1,1.44-.81,2.18,0-.28.21-.54.44-.83.63C27.49,27.39,27,27.34,26.87,26.33Z"/><path class="cls-59" d="M30,62.54,30,61.22a2.14,2.14,0,0,1,.41,1.33l-.41.22Z"/><path class="cls-60" d="M38.35,81.29a10.89,10.89,0,0,0,.26-6,3.76,3.76,0,0,0,.7-1.25l-.4-2.41c.25-1,.13-2,.3-3,.28-1.73.7-3.43,1.12-5.14A1.49,1.49,0,0,1,41,62.39a.61.61,0,0,0,.05-.18,5.93,5.93,0,0,1,2.81,2.4,7.18,7.18,0,0,1-.68,2.27A36.26,36.26,0,0,0,42,72.81a51.58,51.58,0,0,0-.13,5.83,3,3,0,0,1-.64,2.2c-.07-.13-.14-.28-.22-.41s-.21-.79-.64-.7-.27.52-.31.83C39.86,82.2,39.86,82.2,38.35,81.29Z"/><path class="cls-18" d="M41,62.39a38.64,38.64,0,0,0-1.68,8.72c0,.24.21.76-.42.53l-1.23-7.46c-.19-1.25.3-1.83,1.59-1.61C39.87,62.66,40.4,62.19,41,62.39Z"/><path class="cls-19" d="M39.31,74.05c.2.66.56,1.41-.7,1.25A7.88,7.88,0,0,1,36,73.07a43.32,43.32,0,0,1-2.57-8.39A36.18,36.18,0,0,0,39.31,74.05Z"/><path class="cls-7" d="M60.15,14.3c-.55-.05-.64.11-.3.57A7.78,7.78,0,0,1,61.11,20a3.17,3.17,0,0,1-4,3.15c-.39-.08-.39.17-.47.33s-.16.54-.28.79c-1.06,2.24-2.48,2.47-4.15.7a17.36,17.36,0,0,1-2.18-3.13c-.23-.37-.39-.8-.92-.83.19-.17.2-.77.63-.39.77.7,1.33.17,1.65-.37.64-1.06,2-1.57,2.13-3,0-.41.7-.4,1.12-.5,1,.67,1.14,1.86,1.54,2.88.23.57.18,1.22.39,1.64a20.64,20.64,0,0,0-1-3.5,1.6,1.6,0,0,0-.91-1c-.22-.6-1.19-1.67.66-.87.43.19,1.48-.41,1.88-.93A2.94,2.94,0,0,1,59.64,14a15.3,15.3,0,0,0,4.71-1.27.53.53,0,0,1,.64.09.56.56,0,0,0-.5.26v.23c.35,1.31-.06,2.69.34,4,.11.35-.18.76-.42,1.08s-.69.83-1.27.74-.77-.61-.91-1.13c-.19-.76-.29-1.58-1-2l-.06-.23A1.42,1.42,0,0,0,60.15,14.3Z"/><path class="cls-61" d="M37.44,100.2a10,10,0,0,1-4.25.19,10,10,0,0,1-3.61-.66.75.75,0,0,1,.42-.5c.61-.11.61-.11,1.27-1.8.29.6.55,1.16.83,1.71a1.57,1.57,0,0,0,1.93.78,1.36,1.36,0,0,0,1-1.55c0-.89,0-1.79,0-2.68a2.87,2.87,0,0,0,0-.31c.09,0,.2,0,.22,0C35.92,97.05,36.77,98.58,37.44,100.2Z"/><path class="cls-19" d="M31.7,93.9c.26-.51.72-.42,1.17-.39A32.45,32.45,0,0,0,33,97.8,8.53,8.53,0,0,1,31.7,93.9Z"/><path class="cls-9" d="M37.44,100.2a11.94,11.94,0,0,1-2.39-4.82c.13-.86-.56-1.8.23-2.61.67.23.7.91,1,1.42.48,1,.91,1.93,1.23,2.64-.72-1.19-.83-2.94-1.76-4.34.67-.49,1.17.05,1.72.28a1.27,1.27,0,0,1,.79.26c0-.41-.19-.83.11-1.19-.6-1.51,0-3.09-.21-4.62V86.08c.1-.33-.06-.73.26-1a1.47,1.47,0,0,1,.4,1.09,23.26,23.26,0,0,0,1.45,6,21,21,0,0,1-1-7,2,2,0,0,1,.35-1.46,2.21,2.21,0,0,1,1.24,1.74,20.92,20.92,0,0,0,5.93,10.25,8.56,8.56,0,0,1-3.54,2.57,5.69,5.69,0,0,1-2.73-2C40.82,97,41.92,97.71,42,99A11.1,11.1,0,0,1,37.44,100.2Z"/><path class="cls-62" d="M48.74,92.51c0,.18.29.39-.07.53-2-1-3.93-2-5-4.11-.1-1.49-.31-3,.83-4.25a2.32,2.32,0,0,1,1.57.24,1.05,1.05,0,0,1,.49.64,53.18,53.18,0,0,0,2.16,6.26A.91.91,0,0,1,48.74,92.51Z"/><path class="cls-63" d="M44.61,84.85c-.92.72-.26,1.85-.69,2.72a5,5,0,0,0-.27,1.36c-.81-1.22-1.61-2.43-2.43-3.64a.93.93,0,0,1-.13-.79,11,11,0,0,0,.12-3.66c.51-2.27.22-4.57.29-6.86,0-.47-.12-1,.2-1.38.51.42.39,1,.41,1.55a46,46,0,0,0,.2,5.11,8,8,0,0,0,2.07,4.95A.62.62,0,0,1,44.61,84.85Z"/><path class="cls-64" d="M39.57,83.69a27.88,27.88,0,0,0,1.31,9.6c-1.34-1.06-2.45-4.87-2.5-8.21C38.44,84.32,38.74,83.78,39.57,83.69Z"/><path class="cls-65" d="M35.71,92.49c.25.06.59,0,.7.32.58,1.75,1.15,3.5,1.6,5.3a34.43,34.43,0,0,1-2.73-5.34Z"/><path class="cls-66" d="M38.33,91.84c0,.59.39,1.11.24,1.85l-1.14-.92C37.75,92.48,37.72,91.85,38.33,91.84Z"/><path class="cls-67" d="M29.51,22.48c-.4,0-.79,0-1.19-.05-.61-.05-.29-.4-.21-.67l.44-.29c.93.24,2,.16,2.67,1Z"/><path class="cls-68" d="M35.31,110.27l-.79-.43a11.43,11.43,0,0,1-4.25-4.58,3,3,0,0,1-.46-1.94c.66-.18,1.13.28,1.67.5a11.77,11.77,0,0,0,7.12.83,8.62,8.62,0,0,0,2.64-1.09,19.56,19.56,0,0,0,7-7.64c1-1.21,2.07-2.39,3.07-3.62,1.81-2.23,3-4.9,4.69-7.17.26-.35.39-.8.8-1,3.34-2.83,7.34-4.81,10.38-8a27.92,27.92,0,0,0,6.64-12.82,1.42,1.42,0,0,0,0-.71L75.47,58a3.94,3.94,0,0,0,.28-1.73c.71-.75,1.39-.26,2,.16A14.92,14.92,0,0,1,83,63.68,34.81,34.81,0,0,1,84,68.19a36.76,36.76,0,0,0-.36-5.64,55.73,55.73,0,0,0-.86-5.77A32.07,32.07,0,0,0,81,51.13c.57-.05.75.3,1,.61a29.78,29.78,0,0,1,4.57,13.31,24.89,24.89,0,0,1-1.2,11.65,13.67,13.67,0,0,1-2.45,4.09l.53-2.46a31.29,31.29,0,0,1-6.36,5.46c-3.8,2.7-8.15,4.32-12.42,6.08-1.83.76-3.68,1.51-5.53,2.23a6,6,0,0,0-1.53,1.14,27.05,27.05,0,0,0-3.18,3.07l4.05-2.08c-.72,1.25-1.74,2.22-2.51,3.39a40.35,40.35,0,0,1-4.7,6.44,20,20,0,0,1-12.81,6.2,4.86,4.86,0,0,1-1.78-.1C36.21,110,35.73,109.89,35.31,110.27Z"/><path class="cls-69" d="M68.58,55.57c1.08,0,2.15,0,3.22,0,.63,0,.86.24.84.85,0,.76,0,1.52,0,2.27,0,1.81-.62,3.52-.75,5.31a.76.76,0,0,1-.47.71c-.53-.59-.4-1.36-.48-2a13.14,13.14,0,0,0-2.15-6.22C68.62,56.19,68.42,55.92,68.58,55.57Z"/><path class="cls-70" d="M112.84,77.61a9.87,9.87,0,0,1,0,1.44,1.32,1.32,0,0,1-1.19,1.18,1.23,1.23,0,0,1-1.31-1,4.26,4.26,0,0,1-.3-1.87A3.1,3.1,0,0,0,112.84,77.61Z"/><path class="cls-71" d="M110,76.19c.41-.41.82-1.3,1.28-1a3.33,3.33,0,0,1,1.86,2C111.74,77.9,110.8,77.61,110,76.19Z"/><path class="cls-72" d="M110,76.19c1,.6,1.81,1.58,3.14,1-.09.15-.17.3-.26.44-1.35,1-1.35,1-2.82-.25C109.81,77,109.12,76.62,110,76.19Z"/><path class="cls-73" d="M54,84.11l-1.24,2.43c-.54.18-.89-.18-1.26-.45a14.06,14.06,0,0,0-2.64-1.75c-.53-.35-1.17-.49-1.68-.88a1,1,0,0,1-.15-.33c0-2.06,1-3.84,1.89-5.62A27.56,27.56,0,0,1,57.29,67.1a12.65,12.65,0,0,1,6.36-2.81c.39,0,.79-.17,1.15.12.3,1.61-.21,2.16-1.69,1.82a5.05,5.05,0,0,0-.94-.19c-1.35-.07-1.94.78-1.31,2a12.71,12.71,0,0,0,1.6,2.38,2,2,0,0,1,.29,2.32,7.34,7.34,0,0,1-1.62,2.62c-.77.43-1.44-.13-2.16-.19-2.14-.09-2.44.12-2.87,2a.86.86,0,0,1-.21.29c-.53.25-1-.09-1.49-.15-1.2-.15-1.82.39-1.74,1.61a15.19,15.19,0,0,0,.65,2.64C53.44,82.45,54.08,83.18,54,84.11Z"/><path class="cls-74" d="M68.58,55.57c2.19,2.65,2.79,5.81,2.85,9.13a10.74,10.74,0,0,1-3.93,5.64c-1.34,1.15-2.82,2.15-4.24,3.22-.37-.49-.14-1,0-1.48a46.2,46.2,0,0,0,2.29-15.83A1.53,1.53,0,0,1,66,54.82Z"/><path class="cls-75" d="M48.23,95.92c.28.21.12.43,0,.63a19.05,19.05,0,0,1-6.76,7.27c-3.51,2.08-7.06,1.73-10.61.05-.36-.17-.71-.36-1.06-.55-.08-.16-.16-.33-.25-.5-.07-.47-.16-.93-.22-1.41a1.93,1.93,0,0,1,.06-.51C36.76,103.23,43,101.66,48.23,95.92Z"/><path class="cls-75" d="M73.85,62.55c.38.42.23.9.11,1.35A26.51,26.51,0,0,1,62.74,80.21c-1.68,1.12-3.28,2.36-5,3.5-.28.19-.51.68-1,.4a52.55,52.55,0,0,1,9.47-9.61,19.57,19.57,0,0,0,5.89-8C72.71,65.19,73.28,63.87,73.85,62.55Z"/><path class="cls-76" d="M66,54.82a71.86,71.86,0,0,1-.45,9,64.18,64.18,0,0,1-2.06,8.9c-.08.26-.13.54-.19.81a7,7,0,0,1-2.13,1.92.16.16,0,0,1-.06-.14s0-.08.06-.08a.76.76,0,0,1,0-.11c.54-1.15,1.43-2.27,1.52-3.46s-1.27-2-1.89-3c-.46-.77-1-1.54-.42-2.4s1.62-.73,2.53-.48c1.54.41,1.54.43,1.78-1.34a1.52,1.52,0,0,1-.18-1.14,24.08,24.08,0,0,0,0-7.81,1.07,1.07,0,0,1,.19-.9C65.27,53.77,65.54,54.74,66,54.82Z"/><path class="cls-9" d="M47.27,83.36a2.84,2.84,0,0,1,1.68.72,11.52,11.52,0,0,1,2.5,2.28c.31.41.68.78.61,1.35a39.36,39.36,0,0,0-2.33,3.9c-.21.42-.39.9-1,.9a39.55,39.55,0,0,1-2.69-7.46.34.34,0,0,1,0-.48c1.26.37,1.29,1.62,1.85,2.46-.17-.59-.64-1.12-.77-1.78S46.71,84,47.27,83.36Z"/><path class="cls-9" d="M53,81.72a9.67,9.67,0,0,1-.71-2.63c-.26-1.7.77-2.57,2.42-2.08l1.12.35a2.77,2.77,0,0,1,.74,2.93c-.38,1-1.24,1.66-1.71,2.59C53.77,83.3,53.51,82.33,53,81.72Z"/><path class="cls-77" d="M55.89,77.16c-.09-1.88.79-2.55,3.09-2.36,1,.94,1.06,1.41.19,2.6l-.43.44C57.38,78.83,56.54,78.63,55.89,77.16Z"/><path class="cls-78" d="M42,99l-2.33-3.81a44.71,44.71,0,0,0,3.58,3.07A2.8,2.8,0,0,1,42,99Z"/><path class="cls-79" d="M55.89,77.16c.73,1.16,1.74,1.14,2.85.68a10,10,0,0,1-2.14,2.45l-.74-2.93A.18.18,0,0,1,55.89,77.16Z"/><path class="cls-80" d="M52.06,87.71A31.53,31.53,0,0,0,49,84.08c1.45.54,2.47,1.75,3.8,2.46Z"/><path class="cls-81" d="M59.17,77.4A2.41,2.41,0,0,0,59,74.8c.75,0,1.36.63,2.15.46a.33.33,0,0,1,0,.22A6.89,6.89,0,0,1,59.17,77.4Z"/><path class="cls-82" d="M53,81.72c.6.43,1.06,1.06,1.86,1.16L54,84.11A8.26,8.26,0,0,1,53,81.72Z"/><path class="cls-83" d="M64.7,54.62a23.2,23.2,0,0,1,0,9.85c-3.53.17-6.32,2-8.83,4.22a29.47,29.47,0,0,0-8.55,13.93,5.25,5.25,0,0,0-.08.59.62.62,0,0,1-.69.06c-.41-.4-.28-.88-.22-1.35a19.16,19.16,0,0,1,2.47-7.09A26.07,26.07,0,0,1,61.5,63.48c.63-.27.72-.52.3-1-1.4-1.7-2.94-3.16-5.2-3.6a1.83,1.83,0,0,1-1-.37c-.22-.64.14-1.19.28-1.78.23-.88,1-1,1.69-1.11s1-1.12,1.67-1.46l.43.5c.61.59.51,1.5,1,2.15.89,1,1.17,1,2-.06.55-.7.76-1.66,1.62-2.11Z"/><path class="cls-84" d="M43.69,64.41a9.44,9.44,0,0,1-2.63-2.2,35.27,35.27,0,0,0,4.51-2.58c1.5-.4,1.94-.21,2.38,1-.1,1.22-.06,2.44-.08,3.66a2.3,2.3,0,0,1-.26,1.26c-.16.14-.41.25-.47,0-.37-1.49-1.73-2-2.78-2.86.14.79.85,1.42.53,2.28C44.32,65.14,44,64.82,43.69,64.41Z"/><path class="cls-85" d="M56.09,56.77l-.41,1.67c0,.21-.1.3-.29.33A16.06,16.06,0,0,1,52.65,57c-.21.85.53,1.59.16,2.39-.61.22-.94-.28-1.37-.53-.42-.46-1-.83-.89-1.59A2.46,2.46,0,0,1,52,54.57,3.54,3.54,0,0,1,56.09,56.77Z"/><path class="cls-86" d="M64.26,54.62c-.51.83-1,1.69-1.54,2.49-.91,1.3-1.41,1.25-2.3-.12a3.15,3.15,0,0,1,.71-3.6c1.43-1,1.89-.88,3.05.35C64.48,54.07,64.18,54.33,64.26,54.62Z"/><path class="cls-87" d="M24.42,57.91a4.72,4.72,0,0,0-1.5,2.89A24,24,0,0,0,19,57.47,8.19,8.19,0,0,1,24.42,57.91Z"/><path class="cls-88" d="M50.55,57.28l1.07,1.37c-1.11.56-2.16,1.3-3.5,1.21A2,2,0,0,1,48,58c.33-.28.68-.53,1-.83C49.55,56.55,50.09,56.46,50.55,57.28Z"/><path class="cls-89" d="M56.09,56.77l-1.21-1.09A3.66,3.66,0,0,0,52,54.57c.55-.91,1.21-.8,1.92-.2.57-.2,1.15.68,1.72,0a2,2,0,0,1,1.41-.22,1.31,1.31,0,0,0,.72,1.68C57.26,56.22,56.28,55.77,56.09,56.77Z"/><path class="cls-90" d="M17.56,61.33c-1.08-.4-1.53-1.51-2.39-2.16a11.28,11.28,0,0,1,2.32-1.42C17.52,58.94,17.54,60.14,17.56,61.33Z"/><path class="cls-91" d="M57.79,55.84c-.38-.13-.95.21-1.14-.35a1,1,0,0,1,.42-1.33c.72.21,1.44-.5,2.17,0A2.35,2.35,0,0,1,57.79,55.84Z"/><path class="cls-92" d="M48,58a5,5,0,0,1,.23,1.91c0,.31.16.76-.45.66-.43-1-1.35-.84-2.17-.91Z"/><path class="cls-53" d="M61.13,53.39a7.45,7.45,0,0,0-.71,3.6,4.8,4.8,0,0,1-.75-2.35C59.6,53.57,60.27,53.37,61.13,53.39Z"/><path class="cls-93" d="M55.66,54.38c-.08.57-.17,1.1-.91.49a7.32,7.32,0,0,0-.81-.5A1.38,1.38,0,0,1,55.66,54.38Z"/><path class="cls-94" d="M56.57,28.9c3.17-.31,5.36,1.44,5.28,4.23a3.13,3.13,0,0,1-.7,2.09,11.86,11.86,0,0,1-1.08-2.57c.38-1.13.38-1.13-.89-1.12a1.28,1.28,0,0,1-.43-.19c-1.63-1.05-2.41-.81-3.15,1a3.34,3.34,0,0,1-.33.62,3,3,0,0,0-.75,1.68c0,.33,0,.73-.48.85a2.71,2.71,0,0,1-.58-3.38C54.7,31.22,55.46,29.89,56.57,28.9Z"/><path class="cls-95" d="M53.46,32.08c0,1.16-.13,2.33.74,3.29a23.91,23.91,0,0,1,2.69,1.76c-.25.63-.74.43-1.19.35A5,5,0,0,1,53,35.72c-1-1.11-1.21-1.07-1.84.3a1.53,1.53,0,0,1-.26.4c0,.17,0,.37-.27.44l-.49-1a2.77,2.77,0,0,0-1.55-2.33A6.92,6.92,0,0,0,53.46,32.08Z"/><path class="cls-7" d="M61.18,16c1.27.06,1,1.22,1.36,1.94.2.47.1,1.1.87,1,.57-.09,1.35-1.26,1.14-1.73-.57-1.28-.24-2.55-.06-3.83a5.2,5.2,0,0,1-.94,6.6c-.29.25-.57.47-1,.35s-.48-.49-.49-.87A10,10,0,0,0,61.18,16Z"/><path class="cls-7" d="M60.15,14.3c.91.08,1.53.36,1,1.44Z"/><path class="cls-96" d="M50.87,36.42a1.82,1.82,0,0,1,.23-1.27c.48-.86,1.13-.91,1.72-.12A5,5,0,0,0,56,37.23a1.1,1.1,0,0,0,.92-.08c0-.07.07-.17.13-.18a11.08,11.08,0,0,0,4.09-1.49c1.15-.11,1.66-1,2.15-1.84,1-1.71,1.62-3.5.26-5.35a.76.76,0,0,1-.17-.78,5.71,5.71,0,0,1,3.42-3.44,4,4,0,0,1,4.44,1.2C73.07,31.92,67.3,40,61,40.38,57.1,40.65,53.49,39.69,50.87,36.42Z"/><path class="cls-97" d="M61.09,35.48a4.58,4.58,0,0,1-4.23,1.67,4,4,0,0,1-2.66-1.78c0-1-.11-2,1-2.61.56.58.61,1.45,1.24,2s1,.91,1.78.68a1.77,1.77,0,0,0,1.19-1.52,5.2,5.2,0,0,1,.2-1.18c.16-.2.33-.34.6-.22a4.28,4.28,0,0,1,1,2.68Z"/><path class="cls-51" d="M48.69,24.93c-.2.67-.48,1.42-1.33,1.55-.46.06-.79-.34-.79-.85s1.13-1.8,1.6-1.7S48.7,24.44,48.69,24.93Z"/><path class="cls-98" d="M47.74,60.54c.34-.09.26-.47.45-.66a8.52,8.52,0,0,1,3.44-1.23l1.13.72a5.44,5.44,0,0,0,2.65-.65l.27-.28c3.14.13,5.12,2.08,6.82,4.45.23.32.19.54-.26.67-3.4,1-6.11,3.15-8.56,5.48a21.69,21.69,0,0,0-6.92,12.4,5.31,5.31,0,0,0-.21,1.77,2.26,2.26,0,0,1-.46,1.4c0,.15,0,.3,0,.44a3.06,3.06,0,0,1-1.44-.2c-1.79-1.29-2.36-3.17-2.65-5.24a68.33,68.33,0,0,1-.26-7,27.58,27.58,0,0,1,2-8.19l1.17.48a4.91,4.91,0,0,1,2.38.75c.4-1.2,0-2.43.16-3.65C47.45,61.49,47.28,60.94,47.74,60.54Z"/><path class="cls-99" d="M54.68,16.69c.54-.23.91-.24,1.1.49a25.47,25.47,0,0,1,1,5,18.37,18.37,0,0,0-2.08-5.48Z"/><path class="cls-100" d="M78.62,72.83c0,4.68-2.8,8.42-6.44,9.31-2.7.67-5.43,1.14-8.15,1.7A1,1,0,0,1,63,83.5c-.3-.38-.08-.8.15-1.11a29.27,29.27,0,0,1,2.14-2.71C68,76.76,70.4,73.54,72.9,70.4c.89-1.12,1.81-2.21,2.73-3.31.44-.54.85-.56,1.14.15C77.62,69.33,78.59,71.4,78.62,72.83Z"/><path class="cls-101" d="M37.15,108.63a6.9,6.9,0,0,1-2.12-.22c-.53-.2-1-.45-.92-1.07s.51-1.1,1-1.06c2.55.22,4.9-.84,7.38-1,.42,0,.92-.1,1.13.43s-.15.92-.52,1.22C41.34,108.33,39.26,108.55,37.15,108.63Z"/><path class="cls-102" d="M46.09,84.61c-.12-.56-.32-1.14.46-1.4h.68a.83.83,0,0,1,0,.15c-.21,1.48.58,2.76.82,4.15Z"/><path class="cls-64" d="M47.24,65.64c-.93.2-1.61-.41-2.38-.75l-1.12-2.83C45,63.21,47.27,63.28,47.24,65.64Z"/><path class="cls-19" d="M55.41,58.72c-.8,1.1-1.34,1.24-2.65.65L52,56.44A14.05,14.05,0,0,1,55.41,58.72Z"/><path class="cls-103" d="M59.72,32.79a2.93,2.93,0,0,1-.42,2.27,1.82,1.82,0,0,1-3,.07,3.67,3.67,0,0,1-1.14-2.37l.18-.48c1-.51,2-1.19,3.16-.39C58.61,32.61,59.24,32.61,59.72,32.79Z"/><path class="cls-104" d="M58.48,32c-.82-.48-1.59,0-2.37.14-.26,0-.47.33-.76.11.6-2.26,2.11-2.6,3.88-.88C59.2,31.86,59,32.18,58.48,32Z"/><path class="cls-105" d="M58.48,32l.75-.63.22-.08c.47-.27,1-.45,1.32.12s-.29.78-.59,1.1l-.46.25c-.44.12-.89.47-1.34.09S58.37,32.31,58.48,32Z"/><path class="cls-106" d="M67.23,32.93c-1.34,5.45-8.41,7.86-13.09,4.54a8.82,8.82,0,0,0,7.15-.25A20.45,20.45,0,0,0,67.23,32.93Z"/><path class="cls-107" d="M43,77c-.09-3.12-.32-6.19,1.21-9a3.3,3.3,0,0,1,.51-.8c.37-.37.74-1.06,1.35-.64s.39,1.13.16,1.54a34,34,0,0,0-3,8.86S43.16,76.92,43,77Z"/><path class="cls-108" d="M58,33.26c0,.35-.09.68-.49.68s-.64-.41-.65-.82.16-.63.55-.61S58,32.92,58,33.26Z"/><path class="cls-109" d="M114,86.62V42.24a17.06,17.06,0,0,0-8.53-14.77L67,5.29A17,17,0,0,0,50,5.29L11.53,27.47A17.06,17.06,0,0,0,3,42.24V86.62a17.06,17.06,0,0,0,8.53,14.77L50,123.58a17.1,17.1,0,0,0,17.06,0l38.42-22.19A17.06,17.06,0,0,0,114,86.62Z"/></g></g></svg>