<svg xmlns="http://www.w3.org/2000/svg" viewBox="0 0 116.97 128.86"><defs><style>.cls-1{fill:#1ccb31;}.cls-2{fill:#3f5609;}.cls-3{fill:#0fb61d;}.cls-4{fill:#668d09;}.cls-5{fill:#b2fe00;}.cls-6{fill:#798f47;}.cls-7{fill:#597c09;}.cls-8{fill:#2b390a;}.cls-9{fill:#96ac62;}.cls-10{fill:#96ac61;}.cls-11{fill:#c6b349;}.cls-12{fill:#c7b44a;}.cls-13{fill:#fbf5c8;}.cls-14{fill:#b1992f;}.cls-15{fill:#96ab61;}.cls-16{fill:#fcf6c9;}.cls-17{fill:#97ac62;}.cls-18{fill:#fbf5c7;}.cls-19{fill:#b19a30;}.cls-20{fill:#f8f2c3;}.cls-21{fill:#af982f;}.cls-22{fill:#b09b30;}.cls-23{fill:#b29d33;}.cls-24{fill:#e0d587;}.cls-25{fill:#baa843;}.cls-26{fill:#b4a136;}.cls-27{fill:#fbf5c9;}.cls-28{fill:#f3edb6;}.cls-29{fill:#b7a339;}.cls-30{fill:#af9a30;}.cls-31{fill:#f2f4c2;}.cls-32{fill:#f5f5c4;}.cls-33{fill:#f8f5c6;}.cls-34{fill:#c2b047;}.cls-35{fill:#ded383;}.cls-36{fill:#f8f5c5;}.cls-37{fill:#bfac43;}.cls-38{fill:#f9f5c6;}.cls-39{fill:#435c0d;}.cls-40{fill:#e1d588;}.cls-41{fill:#8ecd01;}.cls-42{fill:#211300;}.cls-43{fill:#395103;}.cls-44{fill:#b1fc00;}.cls-45{fill:#b0fb00;}.cls-46{fill:#241901;}.cls-47{fill:#acf501;}.cls-48{fill:#648c09;}.cls-49{fill:#be2128;}.cls-50{fill:#668f09;}.cls-51{fill:#a5181d;}.cls-52{fill:#bf2128;}.cls-53{fill:#96d503;}.cls-54{fill:#231401;}.cls-55{fill:#be2228;}.cls-56{fill:#93d103;}.cls-57{fill:#7a2128;}.cls-58{fill:#7a2228;}.cls-59{fill:#b49b33;}.cls-60{fill:#c5b248;}.cls-61{fill:#e1d688;}.cls-62{fill:#7f2d29;}.cls-63{fill:#fcf6c8;}.cls-64{fill:#b19930;}.cls-65{fill:#c3b047;}.cls-66{fill:#c3af46;}.cls-67{fill:#b19931;}.cls-68{fill:#c6b450;}.cls-69{fill:#b29a32;}.cls-70{fill:#c4b148;}.cls-71{fill:#b29931;}.cls-72{fill:#b69f39;}.cls-73{fill:#221401;}.cls-74{fill:#bc2428;}.cls-75{fill:#241501;}.cls-76{fill:#c6b248;}.cls-77{fill:#c5b147;}.cls-78{fill:#be2429;}.cls-79{fill:#bfab43;}.cls-80{fill:#beab48;}.cls-81{fill:#b9a43c;}.cls-82{fill:#bda844;}.cls-83{fill:#c2af46;}.cls-84{fill:#241301;}.cls-85{fill:#ed1300;}.cls-86{fill:#e81601;}.cls-87{fill:#e0d387;}.cls-88{fill:#fdf7cb;}.cls-89{fill:#fcf4c8;}.cls-90{fill:#fdf6ca;}.cls-91{fill:#faf3c6;}.cls-92{fill:#d7c975;}.cls-93{fill:#fcf5c8;}.cls-94{fill:#f7efbc;}.cls-95{fill:#e1d689;}.cls-96{fill:#fcf4c7;}.cls-97{fill:#ddd181;}.cls-98{fill:#f4edbd;}.cls-99{fill:#f9f3c6;}.cls-100{fill:#dcd186;}.cls-101{fill:#e0d586;}.cls-102{fill:none;stroke:#283309;stroke-miterlimit:10;stroke-width:6px;}</style></defs><g id="Calque_2" data-name="Calque 2"><g id="Calque_8" data-name="Calque 8"><path class="cls-1" d="M72,8.19l.88.51c-8.47-.42-15.76,2.62-21.83,9a27.22,27.22,0,0,0-2.93,3.9c-.87,1.3-1.21,1.45-2.66.79a29,29,0,0,0-10.94-2.67,26.73,26.73,0,0,0-11.4,2.08,31.23,31.23,0,0,0-16,15,35.45,35.45,0,0,0-4,16.26v.24a.13.13,0,0,0,0,.06,1.82,1.82,0,0,1-.16.53v-.56l-.07,0c-.59-1.62-.18-3.25.07-4.84V42.25a17.06,17.06,0,0,1,8.53-14.78L50,5.29a17,17,0,0,1,4.58-1.82h7.9A17,17,0,0,1,67,5.29l5,2.9Z"/><path class="cls-1" d="M114,58V83a35.4,35.4,0,0,1-11.79.83,1.51,1.51,0,0,1-.65-.46,1.74,1.74,0,0,1-.11-.18,1.49,1.49,0,0,1,.09-1.21,33,33,0,0,0,2.46-9.3c.13-1.06,1-1.61,1.71-2.21a21.92,21.92,0,0,0,5.83-7.31A23,23,0,0,0,114,54.67a18.88,18.88,0,0,0,0-3.19,23.22,23.22,0,0,0-4.78-11.89,19.35,19.35,0,0,0-3.09-3.3,3.71,3.71,0,0,1-1.19-1.45v0a1.66,1.66,0,0,1-.14-.52v0h0a1.1,1.1,0,0,1,0-.26,2.35,2.35,0,0,1,0-.26v0a2.05,2.05,0,0,0-.17-.8,2.27,2.27,0,0,1-.06-.25,17.4,17.4,0,0,0-1.6-6.61l.68.39,1.83,1.06A17.06,17.06,0,0,1,114,42.25v6.11A21.88,21.88,0,0,1,114,58Z"/><path class="cls-2" d="M3.51,80.94a2,2,0,0,1-.13,1.26,1.74,1.74,0,0,0-.23.25h0a1.35,1.35,0,0,0-.15.26,2.69,2.69,0,0,0-.18,1.06v-.21A2.81,2.81,0,0,1,3,82.45v-2c-.18-.35-.35-.7-.53-1l-.24-1q.21.34.45.69s0,0,0,.05a4.27,4.27,0,0,1,.3.44,3.59,3.59,0,0,1,.48,1.14h0l0,.14Z"/><path class="cls-2" d="M72.84,117.66c1.18.19,2.36.37,3.54.51l-.69.4-8.68,5a16.31,16.31,0,0,1-2.89,1.32H52.84A16.31,16.31,0,0,1,50,123.58l-20.9-12.07-.77-.45c.35,0,.7,0,1,0,4.6-.24,9.2-.48,13.8-.53a32.51,32.51,0,0,1,12.73,2.12A80.55,80.55,0,0,0,72.84,117.66Z"/><path class="cls-2" d="M114,82.42v4.2a17.06,17.06,0,0,1-8.53,14.77l-4.31,2.49-.43.25a11.27,11.27,0,0,0-3.88-6l-.13-.1-.14-.09a5.94,5.94,0,0,1-.93-.81l-.2-.21,0,0c-.53-1.23-.67-2.6-1.31-3.8A11.89,11.89,0,0,0,93,91.3a0,0,0,0,1,0,0,5.87,5.87,0,0,0-.41-.46c-.18-.19-.34-.57-.72-.34l0,0c-.13.31.11.6.05.91a2,2,0,0,1,0,.24h0c0,.44,0,.88,0,1.32,0,.06,0,.13,0,.2a5.09,5.09,0,0,1-.15,1.6,1,1,0,0,1-.2.2h0a1.23,1.23,0,0,1-1.19,0,24.55,24.55,0,0,1-4.26-1.81L86,93.15l0-.09c-.53-1-.38-2.24-.74-3.33-.2-.63-.38-1.29-.63-1.91-.13-.32-.26-.67-.59-.8h0l-.13,0h-.13l0,.11a6.33,6.33,0,0,0-.4,2.19c0,.7,0,1.46-.7,1.91h0l-.13,0a2,2,0,0,1-1.35-.55,10.33,10.33,0,0,1-3.81-5.59s0,0,0,0c-.09-.34-.17-.68-.24-1,0,0,0-.07,0-.11,0-.58,0-1.16,0-1.74A16.52,16.52,0,0,0,76.8,80c0-.21-.06-.43-.1-.64l-.06-.28c0-.16-.06-.32-.1-.48s-.09-.37-.14-.56l-.06-.19,0-.13,0-.15a1.17,1.17,0,0,0-.09-.32s0,0,0,0a.49.49,0,0,0-.41-.27.57.57,0,0,0-.11.11,1.71,1.71,0,0,0-.13.23,5,5,0,0,0-.17.89v0a1.38,1.38,0,0,1-.3.75,1.11,1.11,0,0,1-.35.28h-.1l-.14,0c-.53-.15-.78-.66-1.14-1-.6-.6-1.22-1.16-1.86-1.7h0l-.22-.18h0a.52.52,0,0,0-.11-.1c-.27-1-1.06-1.89-.68-3a.08.08,0,0,0,0,0h0c.61-.35,1.15,0,1.67.2,4.27,1.94,8.57,3.81,13,5.42a68.63,68.63,0,0,0,15.17,4,3.24,3.24,0,0,1,1.14.48,2.49,2.49,0,0,0,.59.23A37.65,37.65,0,0,0,114,82.42Z"/><path class="cls-3" d="M114,58a23,23,0,0,1-3.88,8.38,19.31,19.31,0,0,1-4.68,4.86,3,3,0,0,0-1.15,2.55,28.79,28.79,0,0,1-2.38,8.44c-.19.43-.36.8.13,1.13l-.48-.05a73.06,73.06,0,0,1-19.88-5.44C77.9,76.37,74.22,74.7,70.5,73.1l-.06,0c-.53.13-.87-.44-1.35-.47a.19.19,0,0,0-.15,0s0,0,0,0a63.77,63.77,0,0,1-6.51-3.13l-.24-.12a0,0,0,0,0,0,0,2.85,2.85,0,0,0-.87-.55.76.76,0,0,0-.21,0H61a7.43,7.43,0,0,1-.81-.37l-.7-.37-.6-.3A8.24,8.24,0,0,1,57.27,63,16.5,16.5,0,0,1,57.66,56a2.53,2.53,0,0,1,.12-.36l0-.09a2.23,2.23,0,0,1,2-1.08,1.63,1.63,0,0,1,.39.13,1.06,1.06,0,0,1,.26.17,4.57,4.57,0,0,1,1,1.32,13.6,13.6,0,0,1,1.07,2.4l.06.17a6.57,6.57,0,0,0,.66,1.26,1.7,1.7,0,0,0,.15.22c.44-.07.41-.51.63-.76l0-.07a10.44,10.44,0,0,0,.81-3.3,6.6,6.6,0,0,0,0-.77v0a5.14,5.14,0,0,0-.07-.78,2.63,2.63,0,0,0-.06-.39,4,4,0,0,1,.12-.91h0a2.82,2.82,0,0,1,.07-.31c0-.05,0-.09,0-.14a2.48,2.48,0,0,1,2.24-1,2.49,2.49,0,0,1,.32.2l.09.07c.81.65,1,1.71,1.45,2.59.14.27.14.61.42.8l0,0a.41.41,0,0,0,.29,0l.18-.08s.05,0,.06-.08a3.86,3.86,0,0,0,.81-1.63,5.93,5.93,0,0,0,.16-1.12c0-.15,0-.3,0-.45v-.1a.34.34,0,0,1,0-.1,2.28,2.28,0,0,1,0-.26,3.8,3.8,0,0,1,.18-.47l.06-.12a2.11,2.11,0,0,1,.18-.27c.93-.67,2-.46,3.06-.49a5.92,5.92,0,0,1,.48.35,3.44,3.44,0,0,1,.27.27h0a13.16,13.16,0,0,1,2,3.42,20.18,20.18,0,0,0,1,2.46.57.57,0,0,0,.08.13s0,0,0,0a.21.21,0,0,0,.15,0,.23.23,0,0,0,.11,0,.16.16,0,0,0,.1,0,10.91,10.91,0,0,0,.65-5.27,2.13,2.13,0,0,0,0-.25s0,0,0-.07a1.5,1.5,0,0,1,0-.22,1.6,1.6,0,0,1,0-.23c0-.05,0-.09,0-.14a.79.79,0,0,1,.08-.26.2.2,0,0,1,0-.08,1,1,0,0,1,.15-.21,4,4,0,0,1,3.23-.4,3.11,3.11,0,0,1,.52.34,2.05,2.05,0,0,1,.34.32,4,4,0,0,1,.73,1.06,20.38,20.38,0,0,1,1.11,2.59c.16.44.3.89.43,1.35s.22.89.31,1.34.13.68.18,1-.05.65.39.67h0a8.85,8.85,0,0,0,1.34-4.58c.07-.91,0-1.83.06-2.74a.09.09,0,0,0,0,0,2,2,0,0,0,0-.24,1.77,1.77,0,0,1,0-.56.47.47,0,0,1,0-.17.07.07,0,0,1,0-.06.24.24,0,0,1,0-.08l0,0a.92.92,0,0,1,.23-.29,3.43,3.43,0,0,1,2.36-.18,3.52,3.52,0,0,1,.45.3l.2.17h0a8,8,0,0,1,1.75,3.39c.09.28-.12.9.57.72l.06-.13a3.28,3.28,0,0,0,.2-.52,8.08,8.08,0,0,0,.1-3.53c0-.17,0-.34-.07-.51s0-.12,0-.18V49c0-.06,0-.12,0-.17s0-.09,0-.13a1.88,1.88,0,0,1,1.93-1l.12.1.09.07a4.24,4.24,0,0,1,.88,2.1.94.94,0,0,1,0,.16c0,.1,0,.21,0,.32s0,.33.07.48a.24.24,0,0,1,0,.08,1,1,0,0,0,.44.68l.07,0a3.81,3.81,0,0,0,.8-2.39A15.69,15.69,0,0,0,99,47v-.22s0-.09,0-.13,0-.22,0-.33a1.93,1.93,0,0,1,0-.24,1.37,1.37,0,0,1,0-.19c.42-.73.85-1.46,1.82-1.45h.08c1.12,1.18,1.16,2.76,1.48,4.22.09.41,0,.85.43,1.08h0l0,0h0a3.18,3.18,0,0,0,.16-.32,7.51,7.51,0,0,0,.75-3.41,33.63,33.63,0,0,0,0-3.62,5.45,5.45,0,0,0-.2-1,.7.7,0,0,0,0-.14,1.81,1.81,0,0,0-.05-.57l-.06-.27a3,3,0,0,1-.11-.52,4.44,4.44,0,0,1,.3-1.4l0,0c.1-.29.21-.57.32-.85a1.07,1.07,0,0,0,.07-.19,6.23,6.23,0,0,0,.28-1,2.21,2.21,0,0,0,0-.25,12.65,12.65,0,0,0,.13-1.5,11.12,11.12,0,0,0,0-1.29,1.43,1.43,0,0,1,.14-.51.68.68,0,0,1,.41-.34l0,.29c-.13,1.89,1.25,2.9,2.46,4.08A22.76,22.76,0,0,1,114,48.36,21.88,21.88,0,0,1,114,58Z"/><path class="cls-3" d="M87.31,17c-6,.38-10.81,3.42-14.94,8.1-3,3.36-5.68,6.94-8.37,10.53a5.71,5.71,0,0,1-3.91,2.48c-.63.08-1.28.19-1.75-.42,0,0,0-.07,0-.11l-.12-.34c-.64-1.94-.76-4-1.56-5.95a8.83,8.83,0,0,0-3.87-4.78,7.21,7.21,0,0,0-.74-.36h0l-.06,0a2.72,2.72,0,0,0-.46-.1h0a.8.8,0,0,0-.21-.05,0,0,0,0,1,0,0L51,26h0c-1.76-.15-3.06.85-4.17,2.29A12.88,12.88,0,0,0,45.42,31a4.7,4.7,0,0,1-1.71,2.21,2.53,2.53,0,0,1-.71.32h0a3.65,3.65,0,0,1-1.68.12c-1.06-.14-2.14,0-3.21,0a6.66,6.66,0,0,1-2-1.3,13.12,13.12,0,0,0-8.26-2.87,11.77,11.77,0,0,0-6,2A15.28,15.28,0,0,0,14.7,42.35a6,6,0,0,1-3.46,4.89,31.1,31.1,0,0,0-7,5.43c-.31.3-.56.74-1,.71l-.16,0-.07,0c-.59-1.62-.18-3.25.07-4.84l0-.2a35,35,0,0,1,7.56-17.63,29.67,29.67,0,0,1,18.47-11,28.32,28.32,0,0,1,17.12,2.55c.54.25.88.32,1.26-.3,4.79-7.79,11.69-12.4,20.8-13.47A32.78,32.78,0,0,1,72,8.19h0l.88.51L86.6,16.6Z"/><path class="cls-4" d="M103.61,26.41l-.68-.39-.5-.29h0l-1.55-.9-.19-.11-.33-.19-12.09-7-.72-.43h0a16.28,16.28,0,0,0-5,1.32A32.48,32.48,0,0,0,73.22,25a56,56,0,0,0-7.87,9.7,8.28,8.28,0,0,1-4.21,3.35,1.54,1.54,0,0,0-1,.66v0s0,0,0,0c.13.75.77.63,1.27.66,2.88.18,5-1.37,6.81-3.32,1.27-1.36,2.42-2.84,3.79-4.1.26-.23.49-.66.86-.56s.29.6.34.93a16.76,16.76,0,0,0,4.27,8.74,15.4,15.4,0,0,1,1.66,1.77.76.76,0,0,1,.12.19,1,1,0,0,1,.1.17,1.46,1.46,0,0,0,.21.16L79,43.07a20.14,20.14,0,0,0-3.54-1.57h0a11.38,11.38,0,0,0-1.3-.37,6.25,6.25,0,0,0-6.64,2.15l0,0,0,0-.08.09c-.27.35-.54.69-.84,1q-.21.26-.45.51a1.08,1.08,0,0,0,.28,1.49,1.25,1.25,0,0,0,1.45-.08,6.68,6.68,0,0,0,.85-.66c1.91-1.56,4.08-2.26,6.42-1.32a73.43,73.43,0,0,0,9.89,3l1.19.29.3.07a14.38,14.38,0,0,0,4.63-.17c5-.88,9.1-3.2,11.8-7.68a11.58,11.58,0,0,0,.72-1.4l0,0c.1-.29.21-.57.32-.85a1.07,1.07,0,0,0,.07-.19c.1-.31.2-.63.28-1a22,22,0,0,0,.46-2.17h0c0-.25.09-.51.13-.77s0-.43.07-.65l0-.29A17.86,17.86,0,0,0,103.61,26.41ZM80.18,43.74l-.34-.2A1.45,1.45,0,0,1,80.18,43.74Z"/><path class="cls-5" d="M2.23,78.38q.21.34.45.69a1,1,0,0,1-.21.31Z"/><path class="cls-5" d="M88.26,17.56c-4.71.24-8.77,2.62-12.6,5.88A53.45,53.45,0,0,0,65.75,35a7.86,7.86,0,0,1-5.51,3.79l0,0c-.59.54-1.25.24-1.87.1a24.85,24.85,0,0,1-4.79-1.78,34.55,34.55,0,0,0-10.68-2.71,2.89,2.89,0,0,0-1-.25h-.53a2.82,2.82,0,0,0-.41,0c-.48,0-1,.1-1.5.12a17,17,0,0,1,1.94,4.07c.07.32.16.65.2,1a6.78,6.78,0,0,1,.11,1.2c0,.1,0,.2,0,.3-.52.45-.75.57-1,.21a2.87,2.87,0,0,1-.23-.39h0c-.06-.11-.12-.25-.19-.4a12.84,12.84,0,0,0-11.72-8.91,13.07,13.07,0,0,0-9.22,3.5l-.21.18-.17.15a6,6,0,0,0-.43.45h0l-.14.18-.08.09c-.27.33-.53.68-.8,1-.1.13-.2.25-.29.38a2.85,2.85,0,0,0-.25.33,4.21,4.21,0,0,0-.39.64s0,0,0,0a2.75,2.75,0,0,0-.27.69h0a2.05,2.05,0,0,0-.1.56,9.92,9.92,0,0,0-.17,6,1.85,1.85,0,0,1,0,1.27l-.07.11-.07.07a.4.4,0,0,1-.12.1,1.35,1.35,0,0,1-.26.15,1.71,1.71,0,0,0-.23.13A16.69,16.69,0,0,0,8.5,50.14a7,7,0,0,1,6,.72,11.48,11.48,0,0,1,3.63,3.2c.3.4.74.87.34,1.38s-.87.16-1.3,0l-.13,0-.16,0h-.05c-6-2.57-10.61.22-13.59,5.25L3,61V53.35l-.07,0L3,53.26l.17-.18A37.23,37.23,0,0,1,12.38,46,3.19,3.19,0,0,0,14,43.49c.73-3.94,2.06-7.59,5.07-10.42s6.26-4.52,10.4-4.08a15.17,15.17,0,0,1,8.6,4.27,19.56,19.56,0,0,0,5.51,0h.14a3.64,3.64,0,0,1,.93.11,1.4,1.4,0,0,0,.54,0,.31.31,0,0,0,.13,0,3.66,3.66,0,0,1,1.19.08h0l.19,0c1.28.31,2.59.46,3.85.87a16.66,16.66,0,0,1,2.2.9l.1.05.2,0,.05,0,.15,0,.12,0c1.15.42,2.23,1,3.36,1.44l.25.11.1,0a2.61,2.61,0,0,1,1.07.32,1.28,1.28,0,0,1,.37.33A4.32,4.32,0,0,0,63.1,36c2-2.54,4-5.15,6-7.71A59.49,59.49,0,0,1,74,22.77,20,20,0,0,1,86.6,16.6l.71.41.22.12h0Z"/><path class="cls-6" d="M101.13,103.88l-.43.25L78.36,117l-.67.4a56.28,56.28,0,0,1-18.53-5.68,66.88,66.88,0,0,0-13.31-5.49,44.87,44.87,0,0,0-13.48-1c-5.26.24-10.57.52-15.73-1.13-.27-.09-.54-.18-.81-.29a18,18,0,0,1-7-4.4,20.19,20.19,0,0,1-4.9-8.86A32.78,32.78,0,0,1,3,86.37a18.56,18.56,0,0,1-.18-2.48v-.32A2.81,2.81,0,0,1,3,82.45a1.49,1.49,0,0,1,.14-.24c0-.48,0-1,0-1.44a.72.72,0,0,1,.3-.07.77.77,0,0,1,.39.16l.08.08.66.64,0,0a19.21,19.21,0,0,0,2.23,1.79,7.06,7.06,0,0,0,8.85-.17,17.76,17.76,0,0,0,1.64-1.37,2.37,2.37,0,0,1,1.26-.8l.15,0h.06c4.43-.09,7.81,2.19,11,4.85,2.79,2.3,5.18,5,8,7.27,4.15,3.23,9,4.86,14,6A164.62,164.62,0,0,0,70.23,102a50.44,50.44,0,0,1,9.16,2.09,38.36,38.36,0,0,0,8.43,1.45,11.19,11.19,0,0,0,5.78-1.18A4.52,4.52,0,0,0,96.31,100c0-.69-.23-1.47.24-2.07a1.68,1.68,0,0,1,.27-.26A10.11,10.11,0,0,1,101.13,103.88Z"/><path class="cls-7" d="M86.09,47.14a47.7,47.7,0,0,1-10.2-3,7.13,7.13,0,0,0-8,1.64c-.35.35-.78.83-1.32.48A.84.84,0,0,1,66.41,45c.38-.51.69-1.08,1-1.61l0,0a6.36,6.36,0,0,1,.68-.89c1.45-1.57,3.14-2.38,5.31-1.67.68.23,1.34.47,2,.73.48.18,1,.38,1.43.58a8.3,8.3,0,0,0,2.11,1,1.08,1.08,0,0,0,.31,0,1.18,1.18,0,0,0,.26,0c-.24-1-1.09-1.59-1.72-2.28a15.42,15.42,0,0,1-4.22-9.49c-.09-1-.49-.82-1-.39a25.32,25.32,0,0,0-3.35,3.36,15.68,15.68,0,0,1-3.76,3.6,5.88,5.88,0,0,1-5.29.88h-.05a20.17,20.17,0,0,1-5.82-1.8,31.31,31.31,0,0,0-11.52-3l-.35-.09h0a3.62,3.62,0,0,0-.57,0,.31.31,0,0,0-.11.09s0,0,0,0h0a.25.25,0,0,0-.11.12,1,1,0,0,0-.11.93,21,21,0,0,1,.36,2.34,10.06,10.06,0,0,1,0,3.33c-.11.67-.78.53-1.26.74a.76.76,0,0,0-.19.12,1.63,1.63,0,0,1-.44.28,1.82,1.82,0,0,1-1.24.07,3.4,3.4,0,0,1-.77-.32,5.48,5.48,0,0,1-2.2-2.73,1.57,1.57,0,0,0-.38-.57,1,1,0,0,0-1-.17.53.53,0,0,0-.16,0,5.4,5.4,0,0,1-2.93.07A16,16,0,0,1,24,34.64a4.17,4.17,0,0,0-.75-.54,1.32,1.32,0,0,0-1.28,0l-.21.13a7.48,7.48,0,0,1-2.65,1.28h0a2.94,2.94,0,0,1-.59.12h0a4.38,4.38,0,0,1-.52,0,1.71,1.71,0,0,0-.72.91,1.63,1.63,0,0,0-.32,1,1.15,1.15,0,0,0,.32.6h0l.05.06a1.21,1.21,0,0,1,.2,1.34,5.26,5.26,0,0,0-.22.82,6.3,6.3,0,0,0,.09,2.67h0a14.6,14.6,0,0,0,.93,2.54,8.42,8.42,0,0,0,4.26,4,3.19,3.19,0,0,1,.91.49h0a.85.85,0,0,1,.22.68.61.61,0,0,0,0,.19,1,1,0,0,0,0,.17s0,0,0,0a.68.68,0,0,0,.12.24l0,.05a.44.44,0,0,0,.15.12c1.51.2,2.76-.52,4-1.12a.6.6,0,0,0,.41-.66c-.09-.3-.38-.38-.65-.45a11.36,11.36,0,0,0-1.54-.09,7.73,7.73,0,0,1-6.75-4.74,6.91,6.91,0,0,1,1.36-7.83c1-1.16,1.36-1.2,2.74-.52l.13.09.21.15a18.47,18.47,0,0,0,1.84,1.17l.15.08,0,0a6.31,6.31,0,0,0,1.6.8l.3.11.19.08a10,10,0,0,0,1.43.49c1.35.41,2.78.4,4.13.75l.12,0A.92.92,0,0,1,34,40a.53.53,0,0,1,.26.23c1.3,2.14,3.39,3,5.69,3.55a18.19,18.19,0,0,0,5.21,0,30.07,30.07,0,0,1,9.5,1.42,19.79,19.79,0,0,0-9.76.29c-2.23.57-4.46,1.4-6.78,1.07A6.3,6.3,0,0,0,32,48.85a3.22,3.22,0,0,0-.63.7.45.45,0,0,0-.05.43h0a.26.26,0,0,0,.07.11,1.07,1.07,0,0,0,.79.21c2.91-.37,5.86-.43,8.67-1.4a33.31,33.31,0,0,1,8.89-2.1l1.1,0h.2a20.52,20.52,0,0,1,8.3,1.45l.4.16c.42.17.94.18,1.19.68a9.44,9.44,0,0,0-5.12,3.19,3.65,3.65,0,0,1-3.7,1.58,5.77,5.77,0,0,0-.72,0,9.29,9.29,0,0,0-7.6,3.56,27.62,27.62,0,0,1-6.25,5.47A11.53,11.53,0,0,1,30.4,65,5.81,5.81,0,0,1,25,61.41a5.17,5.17,0,0,1-.34-.66,5,5,0,0,1-.38-2,8.29,8.29,0,0,1,.11-1.24A7.55,7.55,0,0,1,26.73,53c.36-.36,1-.65.77-1.34v0l-.07-.16a2.07,2.07,0,0,0-1.51,0c-.91.16-1.81.33-2.71.45l-.54.06c-.32,0-.64.07-1,.08a.67.67,0,0,0,.35-.23l0-.11a.08.08,0,0,1,0,0,.76.76,0,0,0,0-.38.86.86,0,0,0-.73-.42,9.69,9.69,0,0,1-1-.23,9.54,9.54,0,0,1-4-2.92,3.33,3.33,0,0,1-.25-.28,1.87,1.87,0,0,0-.33-.3.69.69,0,0,0-.48-.1l-.21.06h0c-2.71.12-7,2.27-8.09,4,5.19-1.57,9.48,0,11.46,4.33L17,55q-.09.19-.15.36c-.28.82,0,1.4,1.05,2A1.83,1.83,0,0,1,19,58.64a20.69,20.69,0,0,1-2.94,15.63,7.83,7.83,0,0,1-8.88,3.22A7.54,7.54,0,0,1,3,74.61v5a4.27,4.27,0,0,0-.3-.44s0,0,0-.05q-.24-.34-.45-.69l.24,1c.18.34.35.69.53,1l.18.35.33.17.14.07a4.86,4.86,0,0,1,1,.57l0,0a5.6,5.6,0,0,0,.94.57c3.43,1.5,6.44.6,9.25-1.54a28.22,28.22,0,0,0,7.06-8.31A10.42,10.42,0,0,0,23.11,64a9.2,9.2,0,0,0,7.67,3.44,16.91,16.91,0,0,0,7.43-2.36c2.41-1.33,4.48-3.16,6.74-4.71,2.84-2,5.66-4,9.14-4.74a9.58,9.58,0,0,0,4.52-2.28,5.34,5.34,0,0,1,4-1.45,6.39,6.39,0,0,0,4.51-1.56c1.24-1,2.47-2,3.74-3a6.05,6.05,0,0,1,5.2-1c.93.21,1.84.47,2.78.68a26.83,26.83,0,0,0,6.12.81,2.33,2.33,0,0,0,1.18-.16,1,1,0,0,0,.34-.31A1.83,1.83,0,0,0,86.09,47.14ZM21.19,52c-.25,0-.51,0-.76,0A1.65,1.65,0,0,1,21.19,52Z"/><path class="cls-8" d="M78.36,117l-.67.4-1.31.75-.69.4a80.87,80.87,0,0,1-20.38-5.63,31.75,31.75,0,0,0-9.3-1.85c-3.13-.24-6.26,0-9.38.07-2.05,0-4.13.31-6.17.34H29.05l-.77-.45-12.45-7.19a18,18,0,0,1-7-4.4A17.08,17.08,0,0,1,3,86.62v-.25a18.56,18.56,0,0,1-.18-2.48v-.32A2.81,2.81,0,0,1,3,82.45v-.23h.14c0,.08,0,.16,0,.24h0a33.36,33.36,0,0,0,2,10.22c2.58,6.82,7.68,10.5,14.7,11.75a54.87,54.87,0,0,0,13.67.26,40.59,40.59,0,0,1,20.78,4.14c4.05,1.92,8,4.13,12.27,5.53A61.41,61.41,0,0,0,78.36,117Z"/><path class="cls-9" d="M96.82,97.68c0,1,0,2,0,3a4.57,4.57,0,0,1-2.38,3.88c-3,1.72-6.19,1.7-9.47,1.22a59.47,59.47,0,0,1-8.44-2A61.94,61.94,0,0,0,65.72,102a115.7,115.7,0,0,1-12.54-2,62.27,62.27,0,0,1-8.47-2.38,32.11,32.11,0,0,1-10.88-7.33c-2.83-2.74-5.6-5.52-9.16-7.34a12.14,12.14,0,0,0-5.23-1.43,1,1,0,0,1-.77-.27c0-.11-.1-.24-.05-.34a10.66,10.66,0,0,1,3.18-4,9.36,9.36,0,0,1,4,1.31A21.12,21.12,0,0,1,31,81.9c1,.95,1.88,2,2.93,3,1.23,1.37,2.24,2.93,3.55,4.24A16.68,16.68,0,0,0,39,90.51c1.28.71,2.33,1.77,3.68,2.36l.78.32a32.46,32.46,0,0,0,5.83,2.54c.63.1,1.16.55,1.82.57,1,.14,2,.59,3,.81l.56,0c2.1.51,4.25.82,6.35,1.34.54-.1,1,.23,1.54.23,1.5-.17,2.92.41,4.39.51a16.9,16.9,0,0,1,4.25.48c1.47,0,2.82.7,4.27.79,1.72.43,3.45.82,5.14,1.31a9.86,9.86,0,0,1,1.43.32,13.24,13.24,0,0,1,1.88.24,2.16,2.16,0,0,0,1.18-.2,5.14,5.14,0,0,0,2.12.45c1.06,0,2.13,0,3.19,0a9,9,0,0,0,4-1.87,3,3,0,0,0,.66-2.29c0-.6-.15-1.28.51-1.69Z"/><path class="cls-10" d="M77.4,83.86a9.93,9.93,0,0,0,5,7.18c.62.83.09,1.55-.21,2.29a.86.86,0,0,1-.26.24,5,5,0,0,0-1.24.46A.8.8,0,0,1,80.4,94a11,11,0,0,1-4.21-5.52c.07-1.3.57-2.53.6-3.83A.68.68,0,0,1,77.4,83.86Z"/><path class="cls-11" d="M75.26,76.91l.07-.47c.8.08.85.77,1,1.3a17.38,17.38,0,0,1-.25,10.05c-.22.71-.54,1.45,0,2.16a1,1,0,0,1-.5,1.22c-1.56-.21-2.23-1.35-2.77-2.64a10.36,10.36,0,0,1,.77-2.6A36.41,36.41,0,0,0,75.26,76.91Z"/><path class="cls-12" d="M91.48,91.06a1.6,1.6,0,0,1-.17-1,2.26,2.26,0,0,1,1.78,1.43c1.61,2.87,2.49,5.91,1.69,9.24-.53.5-.78-.06-1.11-.3-.32-.72-1.26-.89-1.5-1.68-.37-2.17,0-4.39-.4-6.56C91.7,91.79,91.77,91.38,91.48,91.06Z"/><path class="cls-13" d="M75.92,90.11c-1-.6-.67-1.46-.4-2.27A17.13,17.13,0,0,0,76.24,79a6.8,6.8,0,0,0-.91-2.54c.44-.62.59-.64.94,0a10.84,10.84,0,0,1,.9,3.39,19.12,19.12,0,0,1,.23,4,26.24,26.24,0,0,1-.89,4.82C76.68,89.31,76.67,89.86,75.92,90.11Z"/><path class="cls-14" d="M75.26,76.91c.5,4.12-.59,8-2.11,11.72-1.06,0-1.39-.79-1.62-1.65a51.79,51.79,0,0,0,2-5A17.66,17.66,0,0,0,74,80.12c.14-.39.18-.85.63-1.05C75.11,78.43,74.9,77.59,75.26,76.91Z"/><path class="cls-15" d="M86.09,92.92l5.45,2a1.24,1.24,0,0,1-.09,2c-2,0-4.07-.21-5.7-1.67C85.76,94.46,85.35,93.6,86.09,92.92Z"/><path class="cls-16" d="M94.62,100.85A17,17,0,0,0,93,92.27,5.21,5.21,0,0,0,91.31,90c.06-.85.48-.33.73-.16a7.44,7.44,0,0,1,2.38,2.92,12.22,12.22,0,0,1,1.21,4c0,1.49.32,3.07-1,4.29-.07,0-.1-.07-.09-.11S94.6,100.85,94.62,100.85Z"/><path class="cls-17" d="M74.62,79.07a10.13,10.13,0,0,1-.72,3.12.41.41,0,0,1-.33-.07,5.31,5.31,0,0,0-2.37-1.58c0-1.26,0-2.51-.08-3.77a.75.75,0,0,1,.31-.72A7.74,7.74,0,0,1,74.62,79.07Z"/><path class="cls-18" d="M71.43,76.05a25.12,25.12,0,0,1,.08,4.75,3.48,3.48,0,0,1-.71,3.85c-1.09-.26-1-1.12-.85-1.88a35.38,35.38,0,0,0,.33-4.12A11,11,0,0,0,68.92,73a.59.59,0,0,1,.18-.57c.76-.37,1,.29,1.4.69Z"/><path class="cls-19" d="M81.91,93.48,82.45,91c.57-1.25.45-2.62.67-3.93.06-.37-.13-.81.31-1.07a1.15,1.15,0,0,1,.55.86,21.2,21.2,0,0,1-.09,5.9c-.15.65-.13,1.35-.67,1.86C82.23,94.87,82.06,94.19,81.91,93.48Z"/><path class="cls-20" d="M83.68,86.69c-.08-.21-.17-.43-.25-.65.87.18,1.11.95,1.44,1.6a14.5,14.5,0,0,1,1.22,5.28L86,95.34c.13.52.33,1.06-.2,1.48a.57.57,0,0,1-.55-.2,2,2,0,0,1-.43-1.55C85,92.19,84.28,89.46,83.68,86.69Z"/><path class="cls-21" d="M91.3,96.78c.41-.56.15-1.21.24-1.82l-.06-3.9c.93,1.15.83,2.58,1,3.91a36,36,0,0,1,0,3.89A1.35,1.35,0,0,1,90.83,98,1.12,1.12,0,0,1,91.3,96.78Z"/><path class="cls-2" d="M21.81,77.17l-3.14,4c-.83.67-1.51,1.5-2.37,2.14C12.7,86.05,9.14,86,5.72,83.13,5,82.49,4.34,81.72,3.65,81c.76-.3,1.26.35,1.8.61,3.27,1.55,6.2.83,8.92-1.23a27.51,27.51,0,0,0,7.47-9,9.48,9.48,0,0,0,.68-7.72c-.07-.25-.29-.49-.11-.81.51.08.76.52,1.06.85,3.38,3.75,7.24,3.89,11.63,2.29,3.65-1.33,6.51-3.9,9.62-6.09s6.35-4.38,10.27-5a7.93,7.93,0,0,0,3.53-2.11A4.61,4.61,0,0,1,62,51.42c2.44.28,4.28-.84,6-2.35.93-.81,1.93-1.52,2.91-2.27a5.94,5.94,0,0,1,5.32-.93c3.39.83,6.78,1.68,10.32,1.47a19.18,19.18,0,0,0,10.83-2.52c3.78-2.24,5.87-5.68,7.06-9.78a4.6,4.6,0,0,1,.5-1.56A15.83,15.83,0,0,1,103.66,40a6.57,6.57,0,0,1-2.88,4.47l-1.61,1.47a3.16,3.16,0,0,1-2.89,2l-1.67.85a3.44,3.44,0,0,1-3.34,1l-2.61.11c-1.17.54-2.44,0-3.63.35a1.92,1.92,0,0,1-1.8-.2,13.62,13.62,0,0,0-3.49.24,7.6,7.6,0,0,1-3.49.66c-.55.16-1-.19-1.43-.37a16.61,16.61,0,0,0-3.21.42c-1.34.48-2.62,1.18-4.13,1a9.58,9.58,0,0,0-2.26.77,1.28,1.28,0,0,1-.44.51c-1.06.34-2,.9-3.11,1.19a2,2,0,0,1-1.61.26l-2,.86a4.17,4.17,0,0,1-1.77,1.24c-.54.14-1,.55-1.5.71a20,20,0,0,0-3.28,1.86c-.64.33-1.26.7-1.91,1a29.32,29.32,0,0,0-4.51,3.06c-1.47.89-2.9,1.85-4.3,2.84a.93.93,0,0,1-.33.12,34.16,34.16,0,0,1-4.57,2.48,10.31,10.31,0,0,1-4.38.91,7.67,7.67,0,0,1-3.05-.4,1.24,1.24,0,0,0-1.78.81,5.71,5.71,0,0,0-.58,1c-.93,1.56-1.88,3.12-2.9,4.62A3.89,3.89,0,0,1,21.81,77.17Z"/><path class="cls-10" d="M56.14,56.45a5,5,0,0,1,1.94-1,23.22,23.22,0,0,0,0,9.21,8.22,8.22,0,0,0,1.21,3,6.13,6.13,0,0,1,2,2.3c0,.88,0,1.78-1,2.17-.94-.07-1.43-.8-1.94-1.43a13.09,13.09,0,0,1-2.56-6.55c-.32-2,0-4-.23-6A1.61,1.61,0,0,1,56.14,56.45Z"/><path class="cls-2" d="M69.1,72.41v.44a1.62,1.62,0,0,1,.21.71A2.51,2.51,0,0,1,69,74.81a.82.82,0,0,1-.9,0c-1.8-.89-3.78-1.48-5.2-3-.31-.9-1-1.7-.62-2.76C64.58,70.08,66.84,71.24,69.1,72.41Z"/><path class="cls-16" d="M88.85,51a12.49,12.49,0,0,1-.87,6.7c-.23.53-.41,1.12-1,1.39-.58-1.14-.35-2.45-.79-3.64a6.29,6.29,0,0,1-.55-2.51c.16-.41.14-1.06.9-.71A3.71,3.71,0,0,1,87,53.4a1.28,1.28,0,0,0,0,.41,2.64,2.64,0,0,0-.25-1c0-.17,0-.34-.06-.51,0-.41-.08-.76.47-.9.14,0,.21.82.36,0S88.22,50.44,88.85,51Z"/><path class="cls-22" d="M86.75,53.56c-.1-.38-.4-.71-.27-1.14-.17-.47-.72-.71-.69-1.17.36.41-.09,1.08.26,1.59.47,2,1.19,4.06.92,6.22-.57-.34-.56-.34-.69-1.09a19.45,19.45,0,0,0-3-8,24.67,24.67,0,0,1,5.43-.15.26.26,0,0,1,0,.15c-.65.24-.72,1.25-1.64,1.2a1.3,1.3,0,0,0,0,1.18l0,.42C87.06,53.09,87.35,53.49,86.75,53.56Z"/><path class="cls-23" d="M100.78,44.46A34.38,34.38,0,0,0,103.66,40l.24,1.09c-.38.52.14,1.19-.28,1.69-.26.2-.24.42-.16.73.12.49.36,1.11-.53,1.2-.1,0-.11.07-.06.25a17.4,17.4,0,0,1,.17,4.94,4.08,4.08,0,0,0-.14.85c-.82.33-.57-.4-.63-.7A28.19,28.19,0,0,0,100.78,44.46Z"/><path class="cls-24" d="M64.78,52.85l.44-.18L65.28,54A3.25,3.25,0,0,0,64.91,56c.06,1.33-.57,2.53-.64,3.83-.18.47-.31,1-.9,1.11A39.47,39.47,0,0,1,62.2,57c-.12-.8.79-1.21.75-2a.27.27,0,0,1,.26-.21c.25,0,.31.2.37.38a7.2,7.2,0,0,1,.13,1.94,6.4,6.4,0,0,0-.31-2.53.83.83,0,0,1,.39-1C64.12,53.28,64.46,53.08,64.78,52.85Z"/><path class="cls-25" d="M91.27,49.73l3.34-1c0,.12,0,.24,0,.36-.45.66.06,1.7-.87,2.18-.06,0,.07.19.13.28a5.62,5.62,0,0,1,.46,3c-.73.8-.92.08-1-.43A12.35,12.35,0,0,0,91.27,49.73Z"/><path class="cls-26" d="M67.48,51.9a7.86,7.86,0,0,1,4.13-1c0,.23-.08.45-.13.68s0,0-.08.08c-1,1-1.87,2-1.52,3.54a.64.64,0,0,1-.31.61c-.79-.31-.71-1.15-1-1.74S67.83,52.64,67.48,51.9Z"/><path class="cls-27" d="M62.24,69.08l.88,2.62a3.76,3.76,0,0,1,.41,3.35A2.42,2.42,0,0,1,63,76.81c-.52.41-.87.16-1.13-.33a2.19,2.19,0,0,1-.18-1.38,12.64,12.64,0,0,0-.72-6c0-.22.05-.41.29-.5C61.83,68.34,62,68.77,62.24,69.08Z"/><path class="cls-22" d="M74.82,50.52l1.43-.06a2.08,2.08,0,0,1,1.12,1.43,12.39,12.39,0,0,1,1.3,4c0,.54.25,1.1-.32,1.51-.54-.37-.56-1-.77-1.56A31.38,31.38,0,0,0,74.82,50.52Z"/><path class="cls-28" d="M99.32,46.63A9.3,9.3,0,0,1,99,51.19c-.2.56-.39,1.13-1,1.36a26.12,26.12,0,0,1-.65-3.19.82.82,0,0,1,.25-.87C98.3,48,97.9,46.45,99.32,46.63Z"/><path class="cls-29" d="M99.32,46.63a7.92,7.92,0,0,0-1.13,1.57c-1,1.47.12,2.93-.26,4.35-.68,0-.5-.62-.58-1a29.39,29.39,0,0,0-1.07-3.69l2.89-2Z"/><path class="cls-30" d="M62.6,56.9a18,18,0,0,1,.77,4,7.41,7.41,0,0,1-1.2-2.48,18.39,18.39,0,0,0-2.11-3.78l1.39-.55C62.65,54.69,62.37,55.9,62.6,56.9Z"/><path class="cls-31" d="M94.31,54.54c-.48-1.31-.54-2.74-1.24-4,.53-.16.4.49.83.41,0-.67-.2-1.48.69-1.83A6.72,6.72,0,0,1,94.31,54.54Z"/><path class="cls-32" d="M79.8,51.2a8.08,8.08,0,0,1-1,6.2c-.67-.51-.31-1.27-.39-1.9s-.06-1.08-.09-1.62a13.07,13.07,0,0,0,.18-1.4C78.84,51.93,78.88,51.14,79.8,51.2Z"/><path class="cls-33" d="M103.44,42.78c.11-.58-.27-1.29.47-1.7.58,3.32.67,6.58-1,9.65a.87.87,0,0,1-.1-.74C103,47.59,103.32,45.19,103.44,42.78Z"/><path class="cls-34" d="M78.92,52.38l-.1,1.34c-.76,0-.29-.85-.51-.86-.44,0-.45.08-1-.72a.85.85,0,0,0-.39-.25l-.72-1.43a15.73,15.73,0,0,1,3.49-.23l0,.46A1.81,1.81,0,0,0,78.92,52.38Z"/><path class="cls-24" d="M77,51.89c.91-.37.65.64,1.06.89.32-.36-.18-.76,0-1.23.56.68.39,1.53.76,2.17a10.58,10.58,0,0,1-.19,2.45c0,.42-.12.86.22,1.23-.16.27-.33.2-.5,0C78.5,55.42,77.64,53.68,77,51.89Z"/><path class="cls-35" d="M69.57,55.85a7.82,7.82,0,0,0-.26-2.68c-.09-.39-.27-.94.49-.48.09.05.21.18.22,0,.08-.93,1-.74,1.46-1.07l0,.27a27.5,27.5,0,0,1-1.38,3.88C69.93,56,69.76,55.93,69.57,55.85Z"/><path class="cls-36" d="M64.27,59.78c-.36-.4-.07-.81,0-1.22.14-1.08.2-2.18.36-3.26.07-.47.1-1,.67-1.28A10.42,10.42,0,0,1,64.27,59.78Z"/><path class="cls-37" d="M87,52.37c-.45-.72-.27-1.54-.61-2.32.76,0,.53.7,1,.84-.06-.94.56-1,1.23-.9a1.76,1.76,0,0,1,.21,1c-.92-.14-1.15.42-1.13,1.16-.4,0-.26-.39-.6-.44C86.89,51.84,87.12,52.16,87,52.37Z"/><path class="cls-38" d="M70.08,55.77a7,7,0,0,1,1.38-3.88C71.4,53.33,71.31,54.76,70.08,55.77Z"/><path class="cls-39" d="M61.3,68.6l0,.45a.93.93,0,0,1,.06.47.38.38,0,0,1-.35.26,5,5,0,0,1-1.66-2.13A6.58,6.58,0,0,1,61.3,68.6Z"/><path class="cls-40" d="M78.92,52.38c-.39-.9-.46-1.64.85-1.69l0,.51C79.31,51.45,79.24,52,78.92,52.38Z"/><path class="cls-2" d="M52.9,35.58a47.39,47.39,0,0,0-6.28-1.81c0-.11-.14-.22-.13-.33.38-2.57.83-5.12,3.11-6.8a3.34,3.34,0,0,1,3.25-.54C55.09,27,56,29,56.88,31a24.26,24.26,0,0,1,1.68,6.56,3.11,3.11,0,0,1-1.62-.3,2.28,2.28,0,0,1-.18-1.39,9.75,9.75,0,0,0-1.17-5.52c-.2-.41-.4-.88-1-1s-.61.35-.86.6c-1,1.45-1.63,3-.78,4.72A.7.7,0,0,1,52.9,35.58Z"/><path class="cls-41" d="M45.47,33.71a52.66,52.66,0,0,0-6.76-.21.8.8,0,0,1-.65-.24c1.47,0,2.93,0,4.4,0a1.49,1.49,0,0,0,1.25-.54,7.62,7.62,0,0,0,1.48-2.42,8.68,8.68,0,0,1,2.23-3.46,4.5,4.5,0,0,1,4.72-1,6.37,6.37,0,0,0-4.91,3.81,9.56,9.56,0,0,1-2,3.46C45,33.37,45.62,33.42,45.47,33.71Z"/><path class="cls-7" d="M45.47,33.71l-.87-.36a14,14,0,0,0,2.28-4,6.09,6.09,0,0,1,5.26-3.52.76.76,0,0,1,.71.23,4.83,4.83,0,0,0-5.05,3.82c-.4,1.28-.79,2.56-1.18,3.85Z"/><path class="cls-42" d="M89.89,31.32a10.35,10.35,0,0,1,1.36,3.1c-.61.23-1-.23-1.33-.55a6.05,6.05,0,0,0-5.13-1.59,1.29,1.29,0,0,1-1.12-.23,5.75,5.75,0,0,1-1-3.6c.13-1.34.62-1.79,1.86-1.67a5.25,5.25,0,0,1,2.89,1.3A7.17,7.17,0,0,1,89.89,31.32Z"/><path class="cls-43" d="M83.67,32.05c3.09-1,5.46.29,7.58,2.37.13,2.37-1,3.07-3.17,2A10.72,10.72,0,0,1,83.67,32.05Z"/><path class="cls-44" d="M66.41,45a6.23,6.23,0,0,1,1.65-3.12,5.34,5.34,0,0,1,5.63-1.53c2.13.59,3.9,1.89,5.89,2.75l1.88,1.3A2.13,2.13,0,0,1,80.21,44a32.55,32.55,0,0,0-5.95-2.38,6.16,6.16,0,0,0-6.9,2.47C67.1,44.41,67,44.94,66.41,45Z"/><path class="cls-45" d="M89.89,31.32a10.18,10.18,0,0,0-4.61-3.95c-1.36-.53-2.09-.2-2.62,1.08-.33-1.66.39-2.64,1.9-2.59C86.5,25.92,89.8,29.3,89.89,31.32Z"/><path class="cls-43" d="M102.56,26.54a22.6,22.6,0,0,1,.4,6.25,1.71,1.71,0,0,1-.2.68c-.11.25-.24.57-.57.51s-.34-.39-.38-.66c-.14-.82.19-1.67-.23-2.46a7.44,7.44,0,0,1-.49-2.47C101.31,27.56,101.54,26.74,102.56,26.54Z"/><path class="cls-46" d="M102.56,26.54l-1.25,1.71a2.39,2.39,0,0,1-.13-.21,5,5,0,0,1-.5-3.32l.19.11,1.55.9h0C102.48,26,102.51,26.27,102.56,26.54Z"/><path class="cls-47" d="M101.58,30.86c0,.2,0,.39-.08.58a27.67,27.67,0,0,1-1.15-6.88v0l.33.19.19.11a1.71,1.71,0,0,0,0,.32,15.32,15.32,0,0,0,.35,2.78l.09.32Z"/><path class="cls-4" d="M18.88,69.42a16.12,16.12,0,0,1-3.39,6.34A8.57,8.57,0,0,1,3,75.45V60c.25-.41.52-.82.81-1.22a10.87,10.87,0,0,1,7.47-4.85A9.48,9.48,0,0,1,17,55a1.77,1.77,0,0,0,0,.4,1.82,1.82,0,0,0,1.57,1.77,1,1,0,0,1,.79.93A22.06,22.06,0,0,1,18.88,69.42Z"/><path class="cls-4" d="M18.93,34.67a12.76,12.76,0,0,1,15.93-1.92A11.51,11.51,0,0,1,40.63,40a.68.68,0,0,0-.07.46c.12.59.31,1.21-.36,1.6a2,2,0,0,1-2-.1A5.12,5.12,0,0,1,35.75,39,6.28,6.28,0,0,0,35,37.6c-1.3,1.64-3,.91-4.48.55A14.47,14.47,0,0,1,24,34.69a1.66,1.66,0,0,0-2.34-.27,15.64,15.64,0,0,1-1.64,1C19.2,35.78,18.83,35.55,18.93,34.67Z"/><path class="cls-48" d="M15.83,46.87a11.1,11.1,0,0,1-.26-7.22,3.36,3.36,0,0,1,.2-.43c.48-.38.58-1.42,1.48-1s.37,1.13.28,1.77c-.51,3.62.86,7.43,4.56,9.21l1.49.74c.43.23.73.5.37,1h0c-.26.3-.53.61-1,.53-2.88-.53-5.4-1.66-7-4.25A1,1,0,0,1,15.83,46.87Z"/><path class="cls-7" d="M18.93,34.67c.21.49.43.84,1,.38,1.83-1.4,3.43-1.47,5.3.26a11.71,11.71,0,0,0,6.48,2.78c2.34.32,2.34.38,3.28-2,.33.94.59,1.7.85,2.47a5.1,5.1,0,0,0,2.51,3.19c1.31.66,1.9.33,2.06-1.11a3.93,3.93,0,0,1,.19-.67,1.71,1.71,0,0,0,.29.89c.36.44.4.07.49-.19a4.15,4.15,0,0,0-.1-2.65c-.2-1.05-.35-2.1-.46-3.16-.06-.65.11-1.24,1-.87.08,2.06.66,4.07.49,6.15-.06.7,0,1.33-1.06,1.33-.58,0-.81.87-1.58.89a4.14,4.14,0,0,1-4-2.83c-.4-.89-.65-1.19-1.79-.89a8.29,8.29,0,0,1-5.43-.85,14.32,14.32,0,0,1-4.73-2.89c-.84-.89-1.7-.64-2.52,0a3,3,0,0,1-3.29.73Z"/><path class="cls-49" d="M54.48,28.71c.23-.25.41-.12.56.1a10.16,10.16,0,0,1,1.9,8.47,19.91,19.91,0,0,1-3.65-1.55A5.06,5.06,0,0,1,53.12,32a1.75,1.75,0,0,1,.8-1,.84.84,0,0,1,1.09.44,11.22,11.22,0,0,1,1.24,2.45,14.3,14.3,0,0,0-1.43-4C54.6,29.55,54.32,29.19,54.48,28.71Z"/><path class="cls-50" d="M41.86,34c-.61,0-.69.26-.57.82a23.29,23.29,0,0,1,.57,4.77c0,.42.12.91-.45,1.09a15.23,15.23,0,0,0-2.91-6.93c1.64.07,3-.19,4.36.22Z"/><path class="cls-7" d="M24,50.93c.06-.68-.48-.83-.93-1.06A14,14,0,0,1,20,48c-2.53-2.23-2.9-5.13-2.67-8.24,0-.45.44-1-.08-1.31s-.75.38-1.14.57l-.32.16a6.4,6.4,0,0,1,1.48-2.67,1.29,1.29,0,0,0,.36,1.5c.53.44.42,1.07.25,1.66A8.38,8.38,0,0,0,22.18,49a13.67,13.67,0,0,1,1.7.88C24.34,50.14,24.63,50.52,24,50.93Z"/><path class="cls-51" d="M54.34,31.08a2.67,2.67,0,0,0-1,2.28c-.06.79,0,1.58-.05,2.37l-.39-.15a3.86,3.86,0,0,0-.22-.68c-1.14-2-.42-3.64.88-5.2C54.32,29.87,54.63,30.31,54.34,31.08Z"/><path class="cls-7" d="M15.83,46.87c1.06.93,1.78,2.22,3.06,2.92A7.41,7.41,0,0,0,24,50.93v.46c-.57.52-1.18.85-1.91.26-.17-.15-.35-.41-.53-.42-2.5-.12-4-1.81-5.58-3.43-.27-.28-.43-.68-.89-.72Z"/><path class="cls-4" d="M61.66,49c.3.19.49.42,0,.48-2.87.33-4.82,2-6.49,4.23-.44.59-1.18.56-1.87.55-2.07,0-4.14-.15-6.06.9a10.15,10.15,0,0,0-3,2.36,25.29,25.29,0,0,1-8.68,6.92c-3.15,1.47-6.28,1.6-9.28-.44a2.88,2.88,0,0,1-1.55-2.32,7.39,7.39,0,0,1,3.16-9,13.64,13.64,0,0,1,6-2.17,44.69,44.69,0,0,0,9-2.22,27.75,27.75,0,0,1,10.79-1.54,21.56,21.56,0,0,1,6.12,1.38A6.39,6.39,0,0,1,61.66,49Z"/><path class="cls-43" d="M22,51.65A8.13,8.13,0,0,0,24,51.4a14.34,14.34,0,0,0,4.24-1.55,13.11,13.11,0,0,1-4.57-.74,7.85,7.85,0,0,1-5.11-6.36,7.44,7.44,0,0,1,3.35-7.5c1-.74,1.42.46,2.14.69a.81.81,0,0,1-.11.66,9.52,9.52,0,0,0-1.76,3.93,6.58,6.58,0,0,0,2.53,7.41,2.22,2.22,0,0,0,1.9.38c3.2-.25,5-2.27,6.2-5a9.88,9.88,0,0,0,.75-2.73c.05-.43.05-.89.51-1.13a12.28,12.28,0,0,0,3.58,3.05,10.73,10.73,0,0,0,6,.94,26,26,0,0,1,12,1.67c.28.1.75.13.61.56s-.55.21-.84.14a21.59,21.59,0,0,0-11.84.55,18.13,18.13,0,0,1-8.12.54.93.93,0,0,0-1,.32A16.89,16.89,0,0,1,31.35,50a4.52,4.52,0,0,1-3.83,1.67,21.08,21.08,0,0,1-8.13.37C20.34,51.72,21.25,52.11,22,51.65Z"/><path class="cls-52" d="M34,39.48a9.67,9.67,0,0,1-4.44,8.43,4.67,4.67,0,0,1-3,.87,6.41,6.41,0,0,1-3.95-5.88,1.2,1.2,0,0,1,.39-1,3.31,3.31,0,0,1,2.51.17c.7.74.1,1.76.53,2.52.26-1.68.7-3.36,1.05-5.06.11-.53.24-1.12.89-1.31A46,46,0,0,0,34,39.48Z"/><path class="cls-53" d="M27.52,51.64,31.35,50c3.27-.59,6.64-.53,9.81-1.68a27.56,27.56,0,0,1,5.91-1.7,24.1,24.1,0,0,1,13.17,1.49c0,.22,0,.37-.28.26a28.33,28.33,0,0,0-8.53-1.2,30.8,30.8,0,0,0-7.89,1.53,65.7,65.7,0,0,1-10.48,2.57c-3.45.58-6.41,2-7.93,5.53-.71,1.62-.39,3.28-.4,4.93C23,58.84,24,54.41,27,52.07Z"/><path class="cls-54" d="M28,38.26a26.25,26.25,0,0,0-1,3.9,33.9,33.9,0,0,1-.89,3.91,5.42,5.42,0,0,1-.6-3.65,1.12,1.12,0,0,0-.17-1.75c-.29-1.24-.36-2.43.76-3.34Z"/><path class="cls-55" d="M26.09,37.33a11.88,11.88,0,0,0-.56,3.29c-1.17.6-2.11,0-3-.6a12.57,12.57,0,0,1,1.21-3.67l.3-.41Z"/><path class="cls-56" d="M60,48.34l.28-.26c.5.28,1.1.38,1.42.94Z"/><path class="cls-57" d="M21.81,77.17l4-6.23c.64-.12.78.43,1,.79a16.89,16.89,0,0,1,1.8,3.7c.13.36.13.92.77.86a1,1,0,0,0,.58-.43,8.74,8.74,0,0,0,.75-2.92A8.18,8.18,0,0,0,31,70.29a1.09,1.09,0,0,1,.27-.93,20.3,20.3,0,0,0,4.63-1c.92.26.89,1.19,1.3,1.81.32.47.48,1.13,1.28.89a1.2,1.2,0,0,0,.4-.22,6.41,6.41,0,0,0,1.21-3.08c.31-.56,0-1.25.39-1.8l.22,0c1.86-.33,3.38.48,4.89,1.38.8,1,2,1.35,3.1,2s2.16,1.32,3.26,2c.4.24,1.13.49.86,1.1s-.91.26-1.38.1c-1.1-.36-2.22-.63-3.33-.92A13.19,13.19,0,0,0,44,71.25c-1.37.06-1.92.7-1.84,2.09a7.69,7.69,0,0,0,1.38,3.52A28.81,28.81,0,0,0,50.3,84.6,3.59,3.59,0,0,1,51.61,86a2.52,2.52,0,0,1-.3,1.61,4.06,4.06,0,0,0-.56,1.57c-.92,1.78-.74,3.75-1,5.65-.06.47,0,1-.51,1.27a17.54,17.54,0,0,1-6-2.66,1.47,1.47,0,0,1-.23-.49,14.5,14.5,0,0,0-.68-7.47c-.15-.43-.2-1-.75-1.13a.77.77,0,0,0-.45.36c-.8,1.37-1.33,2.9-2.49,4-.36.36-.65.85-1.28.67a22.73,22.73,0,0,1-3.58-4.31,1.53,1.53,0,0,1-.12-.79V83.8a6.68,6.68,0,0,0-.35-3.57c-.09-.21-.13-.48-.47-.37A5.61,5.61,0,0,0,32,81.29c-.26.46-.52.9-1.12.92A23,23,0,0,0,21.81,77.17Z"/><path class="cls-57" d="M60.93,98.88a39.3,39.3,0,0,1-6.42-1.39A2.36,2.36,0,0,1,54,96.7a44.51,44.51,0,0,1-1.8-8,2.56,2.56,0,0,1,0-1.64c.53-.57,1-.2,1.48.09,2.19,1.44,4.45,2.77,6.74,4,.44.25.92.49,1.05,1.07a23,23,0,0,0,0,4.62C61.48,97.6,61.62,98.35,60.93,98.88Z"/><path class="cls-57" d="M71.15,100.08,67,99.6a1.55,1.55,0,0,1-.58-.43,30.74,30.74,0,0,1-1.67-3.76,1.93,1.93,0,0,1-.15-1.59c.42-.51.93-.32,1.41-.16,1.58.52,3.11,1.15,4.7,1.64a1.73,1.73,0,0,1,1.08.87C72,97.53,72.38,98.94,71.15,100.08Z"/><path class="cls-57" d="M80.52,102.22c-1.67-.48-3.44-.59-5-1.36a1.4,1.4,0,0,1-.28-.54,12.32,12.32,0,0,0-.3-2.41,1.24,1.24,0,0,1,.33-1c.09-.06.19-.16.3-.16,1.91.06,3.83,0,5.6.89C81.49,99.24,81.84,100.85,80.52,102.22Z"/><path class="cls-58" d="M94.62,100.85a.59.59,0,0,0,0,.19c-1,1.33-2.6,1.59-4.1,1.94a2.35,2.35,0,0,1-.55-.74c-.32-.87-.55-1.78-.92-2.64a1.14,1.14,0,0,1,0-1.22c.58-.39,1.15-.13,1.69.07a11.56,11.56,0,0,1,3.12,1.66Z"/><path class="cls-59" d="M75.5,100.37v.49l-4.34-.78a15.68,15.68,0,0,0,.31-4c-.83-1.42-.44-3.08-.86-4.59A1.22,1.22,0,0,1,71,90.06c.73,0,.71.69,1,1.06.5,2.22,1.28,4.4.93,6.75.07-.48-.13-1,.4-1.36a.35.35,0,0,1,.33,0,1.86,1.86,0,0,1,.36,1.34A2.59,2.59,0,0,0,75.5,100.37Z"/><path class="cls-60" d="M66.75,99.16l.25.44-4.61-.47c-1.36-1.54-1-3.45-1.14-5.26.18-.37.43-.31.64-.05a5.82,5.82,0,0,1,.4.85,6.19,6.19,0,0,1-.55-1.86c0-.31,0-.57.35-.66a.55.55,0,0,1,.6.29A6,6,0,0,1,63.37,94,12,12,0,0,0,66.75,99.16Z"/><path class="cls-61" d="M40.87,84.33c0-.18,0-.38.25-.46.66.29.83.94,1.06,1.51a15.19,15.19,0,0,1,1,7.09.89.89,0,0,0,.06.46l0,.48-.59-.22c-.57-.55-1.45-1-.89-2,0,0,0,0,0,0a1.39,1.39,0,0,1-1.11-2c.12-.33.16-.19-.13-.13-.66.13-.55-.48-.65-.87C39.92,86.86,40.61,85.66,40.87,84.33Z"/><path class="cls-62" d="M87,103c-.73.06-1.55.36-1.88-.68a5.06,5.06,0,0,1-.77-4.5,3.05,3.05,0,0,1,2.7-.09.79.79,0,0,1,.46.64,26.08,26.08,0,0,1,0,3.75A1.45,1.45,0,0,1,87,103Z"/><path class="cls-63" d="M84.36,97.94a32.08,32.08,0,0,1,.77,4.36c0,.77-.43.77-1,.43a2.06,2.06,0,0,1-.93-2c.07-.57-.21-1.08-.18-1.63a13.94,13.94,0,0,0-1.41-4,4,4,0,0,1-.47-1.22c0-.38.1-.65.56-.39a.33.33,0,0,0,.17,0l1,1.16c.9.26,1,1.1,1.27,1.79C84.33,96.92,84.71,97.39,84.36,97.94Z"/><path class="cls-61" d="M54.29,96.78a.8.8,0,0,1,.22.71l-.45,0c-2-.53-1.64-2.49-2.32-3.69a6,6,0,0,0,.23.67c.12.27.48.6.15.84s-.77-.07-1-.37A12.42,12.42,0,0,1,50,93.27c-.26-1.52.3-3,.45-4.42l.45-1.43c.62.35.55,1,.66,1.57A36.41,36.41,0,0,0,54.29,96.78Z"/><path class="cls-64" d="M40.87,84.33a12.43,12.43,0,0,1-.71,4.09c-.26.91-.14,2-1.4,2.35a4.71,4.71,0,0,1-1.43-1.38A16.69,16.69,0,0,0,40.87,84.33Z"/><path class="cls-65" d="M38.76,90.77l1.4-2.35c.08.17-.06.69.39.33.23-.17,0-.65.51-.85a3.47,3.47,0,0,0,.34,3.18c.36-.22.34-.68.67-1a3.06,3.06,0,0,0,.55,3.08A18.41,18.41,0,0,1,38.76,90.77Z"/><path class="cls-66" d="M83.42,98.92a24.68,24.68,0,0,0,.75,3.81,5.28,5.28,0,0,1-2.2-.24,1.15,1.15,0,0,1-.45-.8,26.31,26.31,0,0,1,0-4c.46-.57.77-.21.91.23s.26.89.43,1.3a.48.48,0,0,1,0-.12c-.12-.46-.65-1.13,0-1.32S83.13,98.56,83.42,98.92Z"/><path class="cls-67" d="M81.75,97.48c-.07,1.67.41,3.33.22,5l-1.45-.27a12.51,12.51,0,0,0,.39-4.48c-.75-.67-.55-1.61-.7-2.45,0-.47-.16-1,.36-1.36h.16A3.56,3.56,0,0,1,81.75,97.48Z"/><path class="cls-68" d="M87,103a11.47,11.47,0,0,0,0-5,.48.48,0,0,1-.1-.69c.51-.15.66.26.87.57.51,1.1-.27,2.24.13,3.22.1-.26-.11-.64-.11-1,0-.23-.09-.55.19-.63s.49.21.61.46a1,1,0,0,1,0,.81.66.66,0,0,0,0,.24.45.45,0,0,1,.15-.35c.52-.09.67.31.81.65a2.25,2.25,0,0,0,.85,1c.24.19.15.48.21.73C89.38,102.86,88.2,103.32,87,103Z"/><path class="cls-69" d="M50.44,88.85c.23,1.52-.5,3,0,4.56.18.68.54,1.31.66,2a1.39,1.39,0,0,1-.22,1.34l-1.66-.68A20.87,20.87,0,0,1,50.44,88.85Z"/><path class="cls-70" d="M50.92,96.75a10.51,10.51,0,0,1-.44-3.34l1.36,1.76.15-.06-.81-2.54c1.1,1.57,1.3,3.63,2.88,4.9Z"/><path class="cls-71" d="M61.49,93.62c-.22,1.92.66,3.66.9,5.51l-1.46-.25c.1-2.29-.13-4.58.18-6.86-.49-1.24-.35-1.71.62-2.18a1.07,1.07,0,0,1,.39,1A19.77,19.77,0,0,1,61.49,93.62Z"/><path class="cls-72" d="M30.88,82.21a10.8,10.8,0,0,0,1.63-2.81.57.57,0,0,1,.34.37,1.16,1.16,0,0,1,0,.58c-.42,1.55.35,2.77,1.06,4l-.21.71A26.82,26.82,0,0,1,30.88,82.21Z"/><path class="cls-73" d="M80.57,93.93c-.09.42.19.85,0,1.27-.55.3-1,0-1.41-.28a23.48,23.48,0,0,1-3.29-2.68c-.32-.28-.61-.64-.37-1.13l.46-1c.2-.47.39-1,.59-1.43,1,1.71,2,3.44,3.78,4.53C80.58,93.38,80.54,93.67,80.57,93.93Z"/><path class="cls-40" d="M81.75,97.48l-1-3.54c.17-.5.33-1,1-.5-.65.18-.13.48,0,.66a13.58,13.58,0,0,1,1.72,4.82l-.61-1.08c-.27.88.46,1.5.23,2.34Z"/><path class="cls-52" d="M75.46,91.11a16.34,16.34,0,0,0,5.07,4.09,7.06,7.06,0,0,1,.38,2.54L75.31,97c-.67-.26-.7-.92-.87-1.47a12.45,12.45,0,0,0-3.25-5.46c-.56.82,0,1.61.12,2.39A21.22,21.22,0,0,1,71.46,96c-2.28-.59-4.4-1.71-6.72-2.18-.65,0-.7-.54-.86-1A23.16,23.16,0,0,1,63,90.32c-.22-.88-.6-1.06-1.32-.49A6.19,6.19,0,0,0,61.11,92a56,56,0,0,1-7.47-4.33c-.39-.26-.81-.48-1.22-.72s-.48-.79-1-.92c-4.12-3-7.57-6.57-9.5-11.35-1.09-2.7,0-4,2.6-4a25,25,0,0,1,8.23,1.71,6.22,6.22,0,0,0-1.73-1.27c-.58-.34-1.13-.74-1.72-1.07-1.15-.64-2.31-1.24-3.45-1.88-.21-.11-.62-.11-.44-.55.63-.33,1.18,0,1.68.27a67.63,67.63,0,0,1,11.13,6.85c1.38,1.2,3,2.11,4.36,3.35A36.83,36.83,0,0,1,66,81c.64.57,1.35,1.07,1.94,1.71,1,.75,1.76,1.74,2.73,2.52A3.81,3.81,0,0,1,71.72,87l1.43,1.63A18.65,18.65,0,0,0,75.46,91.11Z"/><path class="cls-74" d="M93.9,100.11a20.45,20.45,0,0,0-4.8-1.63c-.78-.13-1.32-.45-1.08-1.38A2.64,2.64,0,0,1,91,98l1.45.82A4.33,4.33,0,0,1,93.9,100.11Z"/><path class="cls-73" d="M71.72,87a3.83,3.83,0,0,1-1.32-1.56.68.68,0,0,1,.3-.9,13,13,0,0,0,.81-3.74c.09-.29.19-.59.3-.93a7.47,7.47,0,0,1,2.09,2.32A13,13,0,0,1,71.72,87Z"/><path class="cls-75" d="M91,98c-1-.19-2-.82-3.06-.77-.38.28-.71-.2-1.08-.08s-.91,0-1.12-.5c.18-.43-.18-1,.24-1.35l5.28,1.44C91.21,97.2,91.13,97.62,91,98Z"/><path class="cls-76" d="M70.7,84.54l-.3.9a16.38,16.38,0,0,1-2.76-2.5,2.31,2.31,0,0,1,.16-1.71,20.4,20.4,0,0,0,1.25-7.62c0-.26,0-.51,0-.76a7.11,7.11,0,0,1,1.65,4.33,18.4,18.4,0,0,1-.31,5.54A2.2,2.2,0,0,0,70.7,84.54Z"/><path class="cls-77" d="M83.83,96.52l-.92-1.88a16.27,16.27,0,0,0,.74-5.46c0-.83,0-1.66,0-2.49a13.1,13.1,0,0,1,1.63,6,21.21,21.21,0,0,0,.21,3.9C84.94,97.18,84.39,96.78,83.83,96.52Z"/><path class="cls-78" d="M83.83,96.52c.58-.25,1.12.15,1.69.06l.26.11L87,97c.08,0,.1.09.09.14s0,.08-.07.08c0,.23,0,.46,0,.69H84.36C84.19,97.47,84,97,83.83,96.52Z"/><path class="cls-42" d="M58,75a74.29,74.29,0,0,0-12.56-7.39,21.44,21.44,0,0,0-4.74-1.7A14.3,14.3,0,0,1,45,63.09c.58-.15.86.27,1.15.63a16.15,16.15,0,0,1,1.2,1.88c.19.32.28.8.84.58a3.06,3.06,0,0,0,1.08-2.53l.12-1.89c0-.42-.27-.8-.17-1.22a1,1,0,0,1,.26-.47,3.47,3.47,0,0,1,2-1c.6-.06.81.42,1,.82a10.61,10.61,0,0,1,1,2c.12.36.09.9.71.9.81-1.48.6-3,.39-4.6,0-.35-.11-.74.2-1a2.46,2.46,0,0,1,1.39-.69A24.05,24.05,0,0,0,56,61.88c.17,3.86,1,7.47,4.18,10.12.53.46.21.92,0,1.36A3.74,3.74,0,0,1,58.73,75,1.5,1.5,0,0,1,58,75Z"/><path class="cls-79" d="M31.27,69.36l0,.94a4,4,0,0,1-1.95.68c-.55.15-.32.25-.24.49a2.85,2.85,0,0,1,.12.58c0,.31.05.68-.29.83s-.56-.19-.75-.43-.31-1-1-.66A1.5,1.5,0,0,1,26.31,70c.73-1.52.72-1.48,2.29-1.06A26.53,26.53,0,0,0,31.27,69.36Z"/><path class="cls-80" d="M54.75,57.14l.19.93c-.56.61-.45,1.4-.59,2.12-.05.23-.13.5-.39.54a.36.36,0,0,1-.38-.25,3.18,3.18,0,0,1,.72,2.92c-.48.79-.6.22-.75-.21A12.83,12.83,0,0,0,51.44,59,7.22,7.22,0,0,1,54.75,57.14Z"/><path class="cls-81" d="M48.25,66.71c-.72.45-.89-.2-1.1-.61a10.42,10.42,0,0,0-2.17-3,14.5,14.5,0,0,1,4.48-3l0,.41c-.53.63-1.06,1.24-.63,2.16a.67.67,0,0,1-.25.74.32.32,0,0,1-.4-.12.8.8,0,0,1-.13-.32,1.09,1.09,0,0,0,.07.3c.25.81,0,1.07-.84.55a13.19,13.19,0,0,1,.93,2.42A1.06,1.06,0,0,1,48.25,66.71Z"/><path class="cls-82" d="M38.71,71.51c-.91.45-1.28-.25-1.63-.84s-.79-1.52-1.18-2.28L40.48,66a2.24,2.24,0,0,1,0,1.86c-.33-.3-.61-.47-.73.18s-.09,1.32-.65,1.79a.4.4,0,0,1-.34,0c-.15-.07-.14-.26-.26-.36.26.49-1.13,0-.44.83A5.8,5.8,0,0,1,38.71,71.51Z"/><path class="cls-83" d="M62.6,56.9l-1.15-2.82a17.55,17.55,0,0,1,3.33-1.23,2.6,2.6,0,0,0-1,2.89,5.57,5.57,0,0,1,0,2c-.35-.87,0-1.86-.58-2.72C63.42,55.79,62.37,56.12,62.6,56.9Z"/><path class="cls-67" d="M26.31,70a5.61,5.61,0,0,0,1,1.73c.56.06.74.52.95.94a24.26,24.26,0,0,1,1.47,4.11c-.83.49-1-.15-1.23-.71a17.36,17.36,0,0,0-2.64-5.11A1.75,1.75,0,0,1,26.31,70Z"/><path class="cls-19" d="M58.55,74.73c.69-.82,1.55-1.54,1.64-2.73A3.14,3.14,0,0,0,61,69.78l.23-.25c.91,2,.26,4-.58,5.82-.16.37-.54.72-1,.54S58.49,75.52,58.55,74.73Z"/><path class="cls-9" d="M63.14,75.07a14.61,14.61,0,0,0,0-3.37,29.31,29.31,0,0,0,5.69,3,3,3,0,0,1-.41,3,.92.92,0,0,1-.9.11C65.89,77.19,64.16,76.67,63.14,75.07Z"/><path class="cls-14" d="M68.12,77.7a6.84,6.84,0,0,0,.69-3c.1-.37,0-.79.24-1.12A11.13,11.13,0,0,1,69,79.05a18.45,18.45,0,0,1-1.34,3.89,11,11,0,0,1-1.87-1.66A19.4,19.4,0,0,1,68.12,77.7Z"/><path class="cls-37" d="M86.05,52.84c-.32-.71-.65-1.42-1-2.13-.1-.24-.32-.53.12-.67a.51.51,0,0,1,.65.36,7.19,7.19,0,0,1,.63,2C85.9,52.11,86.19,52.69,86.05,52.84Z"/><path class="cls-37" d="M86.75,53.56c.24-.2.21-.5.27-.77a2.36,2.36,0,0,1,.18,1.79A1.12,1.12,0,0,1,86.75,53.56Z"/><path class="cls-24" d="M103.44,42.78c.59,2.1,0,4.14-.32,6.2a6.22,6.22,0,0,1-.32,1,48.46,48.46,0,0,0-.49-6.69l.32,0,.47,1.37c.28-.91-.36-1.59,0-2.34Z"/><path class="cls-42" d="M68.12,77.7a5.59,5.59,0,0,1-2.35,3.58l-3.44-3c-.36-.69.12-1.11.49-1.56l.32-1.7A28.55,28.55,0,0,0,68.12,77.7Z"/><path class="cls-11" d="M62.82,76.77l-.49,1.56L58,75l.55-.3c1.17,1.31,1.39,1.27,2-.29a12.05,12.05,0,0,0,.69-4.91l.06-.48a10.46,10.46,0,0,1,1,6C62.21,75.6,61.67,76.5,62.82,76.77Z"/><path class="cls-84" d="M54.34,31.08l-.78-1.38a2.65,2.65,0,0,1,.92-1,11.28,11.28,0,0,1,2.27,7C55.79,34.25,55.34,32.52,54.34,31.08Z"/><path class="cls-85" d="M23,42a7.71,7.71,0,0,0,3.53,6.75,4.09,4.09,0,0,1-3.91-2,6.92,6.92,0,0,1-.85-6.33l.15.06C22.37,41,23,41.32,23,42Z"/><path class="cls-86" d="M23.7,36.35c-.16,1-.33,1.94-.47,2.91-.06.42-.43.42-.68.59a.6.6,0,0,1-.71.61l0,0A7.22,7.22,0,0,1,23.7,36.35Z"/><path class="cls-87" d="M21.84,40.46c.24-.21.37-.54.71-.61l3,.77c.57.15,1.1.35,1,1.08s-.59.65-1.06.72A10.27,10.27,0,0,1,23,42C22.45,41.65,21.76,41.35,21.84,40.46Z"/><path class="cls-88" d="M51.45,86.05c1.4-.83.65.61,1,.92a74.42,74.42,0,0,0,1.87,9.81,7.5,7.5,0,0,1-1.78-3.07,18.32,18.32,0,0,1-1.62-6.29Z"/><path class="cls-61" d="M29.71,76.76c-.58-.12-.65-.6-.79-1.05a18.07,18.07,0,0,0-1.63-4c0-.34-.11-.72.31-1,.63.52.65,1.45,1.32,2.13a18.71,18.71,0,0,0-.73-3c.71,1.12,1.6.37,2.4.41l.71,0a6.74,6.74,0,0,1-.15,2.86c-.66-.38-.37-1.14-.75-1.69-.16,1.6.21,3.22-.23,4.79C30.12,76.52,29.91,76.64,29.71,76.76Z"/><path class="cls-89" d="M43.25,92.93c-.41-1.76-.4-3.59-.86-5.36-.34-1.27-1-2.41-1.27-3.7,1-.77,1.18.19,1.39.71A14,14,0,0,1,43.25,92.93Z"/><path class="cls-90" d="M30.17,76.26c-.35-.31-.25-.73-.24-1.11a20.14,20.14,0,0,0-.22-3.29c-.1-.64.13-1.28.87-1.29s.5.73.54,1.18,0,.94,0,1.41A5.56,5.56,0,0,1,30.17,76.26Z"/><path class="cls-91" d="M39,69.77c.09-.65.16-1.31.25-2a1,1,0,0,1,.92-.91c.61,0,.14.65.32.95A4.84,4.84,0,0,1,39,71.25C38.13,70.78,38.54,70.28,39,69.77Z"/><path class="cls-40" d="M39,69.77c.2.49-.4,1,0,1.48l-.3.26c-1.12-.3-1.14-1.39-1.55-2.2-.12-.23.11-.5.35-.52.49,0,.26.61.63.73.5-.44-.41-1.3.47-1.69C39,68.46,38.51,69.21,39,69.77Z"/><path class="cls-92" d="M34,84.37c-.35,0-.47-.34-.7-.53-1.4-1.16-.8-2.63-.7-4,.88.12.9.87,1,1.5.21.84.23,1.71.36,2.56Z"/><path class="cls-93" d="M34,83.88c-.61-1.31-.62-2.82-1.41-4.06,0-.14,0-.28-.05-.42.62-.71.84-.1,1,.35A6.8,6.8,0,0,1,34,83.88Z"/><path class="cls-94" d="M61.69,89.83c.23-.5.15-1.37.85-1.37s.57.85.75,1.33a41.88,41.88,0,0,0,1.45,4.07c.46,1.85,1.41,3.51,2,5.3a4.47,4.47,0,0,1-2.53-2.3c-.71-1.48-1.33-3-2-4.49-.18,1.25.43,2.28.88,3.58a7.65,7.65,0,0,1-1.57-2.33C61.55,92.36,61.62,91.09,61.69,89.83Z"/><path class="cls-90" d="M71.19,90.09c1,.21,1.53,1,2.08,1.81a15,15,0,0,1,2,5.12l0,.93a5.44,5.44,0,0,1,0,2.2A1.48,1.48,0,0,1,74,98.73a11.78,11.78,0,0,0-.43-2.19h0C73,96,73,95.21,72.85,94.49a12.69,12.69,0,0,0-1.12-3.22Z"/><path class="cls-95" d="M73.61,96.54a2.49,2.49,0,0,1,.49,1.53,3.23,3.23,0,0,0,1.23,2.12V98a5.66,5.66,0,0,1,.17,2.42c-1.12-.11-1.81-.56-1.69-1.85A9.57,9.57,0,0,0,73.61,96.54Z"/><path class="cls-96" d="M87,97.25A1.64,1.64,0,0,1,87,97c.38-.15.65.15,1,.24l1.13,1.21a10.07,10.07,0,0,1,1.26,3.77c-.66.17-1.11,0-1.18-.75a4.08,4.08,0,0,0-.3-.87L87.5,98Z"/><path class="cls-95" d="M71.73,91.27a9.29,9.29,0,0,1,1.88,5.28c-.48.68-.09,1.46-.22,2.18,0,.31.17.84-.4.8-.42,0-.33-.48-.32-.77A24.65,24.65,0,0,0,71.73,91.27Z"/><path class="cls-97" d="M87.5,98a4.76,4.76,0,0,1,1.38,2.68c-.38.37,0,.93-.35,1.36-.26-.77.14-1.61-.48-2.41-.08.86.32,1.68-.3,2.43A18.71,18.71,0,0,0,87.5,98Z"/><path class="cls-98" d="M54.3,63.4a16.39,16.39,0,0,0-1.55-4.25c.79.38.67,1.13,1.33,1.42a5.07,5.07,0,0,1,.06-2.06c.09-.63.37-.59.8-.44C55.27,59.91,55.5,61.74,54.3,63.4Z"/><path class="cls-99" d="M48.25,66.71,48,66.47a8,8,0,0,1,.6-3.14c.06-.39-.08-.8,0-1.16.13-.53.33-1.15,1.06-.5C49.89,63.54,49.8,65.33,48.25,66.71Z"/><path class="cls-100" d="M49.71,61.67c-1.26,0-.77,1-.9,1.68-.06.11-.14.11-.22,0a3.76,3.76,0,0,0-.19-1c-.6-1.2.05-1.63,1.08-1.86Z"/><path class="cls-101" d="M48.59,63.37l.22,0A5.52,5.52,0,0,1,48,66.47c-.32-.68-.61-1.36-.95-2-.26-.52-.79-1.18-.12-1.55s.49.72,1,.9c.16-.67-.54-1.21-.45-2C48.26,62.16,48.09,63,48.59,63.37Z"/><path class="cls-102" d="M114,86.62V42.24a17.06,17.06,0,0,0-8.53-14.77L67,5.29A17,17,0,0,0,50,5.29L11.53,27.47A17.06,17.06,0,0,0,3,42.24V86.62a17.06,17.06,0,0,0,8.53,14.77L50,123.58a17.1,17.1,0,0,0,17.06,0l38.42-22.19A17.06,17.06,0,0,0,114,86.62Z"/></g></g></svg>