<svg xmlns="http://www.w3.org/2000/svg" viewBox="0 0 116.97 128.86"><defs><style>.cls-1{fill:#00a672;}.cls-2{fill:#09463f;}.cls-3{fill:#052927;}.cls-4{fill:#016b45;}.cls-5{fill:#01a672;}.cls-6{fill:#052926;}.cls-7{fill:#02cba3;}.cls-8{fill:#03cba3;}.cls-9{fill:#01c195;}.cls-10{fill:#01c296;}.cls-11{fill:#01c297;}.cls-12{fill:#058057;}.cls-13{fill:#036843;}.cls-14{fill:#033026;}.cls-15{fill:#08453d;}.cls-16{fill:#058257;}.cls-17{fill:#008667;}.cls-18{fill:#016843;}.cls-19{fill:#69fba9;}.cls-20{fill:#07895f;}.cls-21{fill:#01a66a;}.cls-22{fill:#026844;}.cls-23{fill:#044d34;}.cls-24{fill:#06835a;}.cls-25{fill:#ae240c;}.cls-26{fill:#af220d;}.cls-27{fill:#c9518f;}.cls-28{fill:#078f67;}.cls-29{fill:#058258;}.cls-30{fill:#044e35;}.cls-31{fill:#14de8f;}.cls-32{fill:#67fda8;}.cls-33{fill:#016a45;}.cls-34{fill:#68fca9;}.cls-35{fill:#026a44;}.cls-36{fill:#052826;}.cls-37{fill:#09453e;}.cls-38{fill:#03c295;}.cls-39{fill:#028566;}.cls-40{fill:#044e34;}.cls-41{fill:#6afbaa;}.cls-42{fill:#044d35;}.cls-43{fill:#049166;}.cls-44{fill:#f872b9;}.cls-45{fill:#c2528d;}.cls-46{fill:#bce0e9;}.cls-47{fill:#ae211b;}.cls-48{fill:#f873bc;}.cls-49{fill:#c95491;}.cls-50{fill:#bde3e7;}.cls-51{fill:#f9faf9;}.cls-52{fill:#e578b6;}.cls-53{fill:#00a66a;}.cls-54{fill:#03a66a;}.cls-55{fill:#02c296;}.cls-56{fill:#02c295;}.cls-57{fill:#046844;}.cls-58{fill:#66fcaa;}.cls-59{fill:#65fcaa;}.cls-60{fill:#63f9ad;}.cls-61{fill:#5afaae;}.cls-62{fill:#58f7b0;}.cls-63{fill:#058158;}.cls-64{fill:#058056;}.cls-65{fill:#67fea7;}.cls-66{fill:#741503;}.cls-67{fill:#028667;}.cls-68{fill:#028767;}.cls-69{fill:#b0260b;}.cls-70{fill:#b0260c;}.cls-71{fill:#018667;}.cls-72{fill:#751503;}.cls-73{fill:#fa72bb;}.cls-74{fill:#751303;}.cls-75{fill:#038464;}.cls-76{fill:#028565;}.cls-77{fill:#038564;}.cls-78{fill:#038465;}.cls-79{fill:#711606;}.cls-80{fill:#028464;}.cls-81{fill:#67fca8;}.cls-82{fill:#f03a15;}.cls-83{fill:#ad270e;}.cls-84{fill:#b1230c;}.cls-85{fill:#af240c;}.cls-86{fill:#038665;}.cls-87{fill:#f03b15;}.cls-88{fill:#b0250e;}.cls-89{fill:#038463;}.cls-90{fill:#fafbfb;}.cls-91{fill:#f672b7;}.cls-92{fill:#f972b9;}.cls-93{fill:#d13818;}.cls-94{fill:#f773ba;}.cls-95{fill:#d23a18;}.cls-96{fill:#d1391a;}.cls-97{fill:#f674ba;}.cls-98{fill:#f9fafa;}.cls-99{fill:#fafafa;}.cls-100{fill:#f9f9fa;}.cls-101{fill:#f8f9fa;}.cls-102{fill:#f8f9fb;}.cls-103{fill:#b9dee9;}.cls-104{fill:#c65390;}.cls-105{fill:#f972bb;}.cls-106{fill:#ea7ab8;}.cls-107{fill:#c8528f;}.cls-108{fill:#b7dce6;}.cls-109{fill:#c95290;}.cls-110{fill:#c4518d;}.cls-111{fill:#b9e1e9;}.cls-112{fill:#b6dfe7;}.cls-113{fill:#b3dee4;}.cls-114{fill:#b8dfe9;}.cls-115{fill:#b1dce2;}.cls-116{fill:#b7e0e8;}.cls-117{fill:#038863;}.cls-118{fill:#038563;}.cls-119{fill:#038662;}.cls-120{fill:#048462;}.cls-121{fill:#46ba80;}.cls-122{fill:#37c583;}.cls-123{fill:#ad230c;}.cls-124{fill:#751403;}.cls-125{fill:#06895f;}.cls-126{fill:#04855a;}.cls-127{fill:#fbfbfc;}.cls-128{fill:#fafafc;}.cls-129{fill:#b4d3e0;}.cls-130{fill:#f9f8fa;}.cls-131{fill:#c5508c;}.cls-132{fill:#b9dee8;}.cls-133{fill:#f774bc;}.cls-134{fill:#962115;}.cls-135{fill:#030202;}.cls-136{fill:#1e1e1e;}.cls-137{fill:#c95390;}.cls-138{fill:#fbfbfb;}.cls-139{fill:#b4dde7;}.cls-140{fill:#f9f9fb;}.cls-141{fill:#c7518e;}.cls-142{fill:#bce0ea;}.cls-143{fill:#b75882;}.cls-144{fill:#050304;}.cls-145{fill:#c3518d;}.cls-146{fill:#f875bc;}.cls-147{fill:#030404;}.cls-148{fill:#b5e1e8;}.cls-149{fill:#9e1b11;}.cls-150{fill:#b7dfe8;}.cls-151{fill:#9f2516;}.cls-152{fill:#64fba9;}.cls-153{fill:#f9fcfb;}.cls-154{fill:#fde311;}.cls-155{fill:#e0a802;}.cls-156{fill:#f9cb2f;}.cls-157{fill:#f9ca30;}.cls-158{fill:#f63b15;}.cls-159{fill:#ef3c18;}.cls-160{fill:#f13b1a;}.cls-161{fill:#b9e3eb;}.cls-162{fill:#f9fcfc;}.cls-163{fill:#fafafb;}.cls-164{fill:#b5dde9;}.cls-165{fill:#fbb4de;}.cls-166{fill:#b9dee5;}.cls-167{fill:#c9518e;}.cls-168{fill:#c7538e;}.cls-169{fill:#d25a98;}.cls-170{fill:#a62818;}.cls-171{fill:#c85191;}.cls-172{fill:#fa74bd;}.cls-173{fill:#9b2e33;}.cls-174{fill:#fcfdf9;}.cls-175{fill:#faf4b0;}.cls-176{fill:#4e0708;}.cls-177{fill:#9b2d32;}.cls-178{fill:#f8f2a6;}.cls-179{fill:#a9281b;}.cls-180{fill:#ac1d0e;}.cls-181{fill:none;stroke:#052927;stroke-miterlimit:10;stroke-width:6px;}</style></defs><g id="Calque_2" data-name="Calque 2"><g id="Calque_8" data-name="Calque 8"><path class="cls-1" d="M114,65.26V71a8.19,8.19,0,0,1-3,1.89c-.94.35-1.79.92-2.8,1.3.71,0,1.36,0,2-.07s1.4-.31,2.11-.42a12.54,12.54,0,0,0,1.68-.52v8.2l-.21.1a35.19,35.19,0,0,1-8.87,2.72,11,11,0,0,1-2.68.37,1.67,1.67,0,0,1-1.11-.28l0-.05v0a1.59,1.59,0,0,1,.27-1.3A42.6,42.6,0,0,0,104,75.69c.25-.81.15-1.67.34-2.49a1.86,1.86,0,0,1,.47-1h0A1,1,0,0,1,105,72h0a.13.13,0,0,1,.06,0,31,31,0,0,0,5.66-2.5,5.19,5.19,0,0,0,1.85-1.72,3.21,3.21,0,0,0,.19-.31l.09-.16A20.46,20.46,0,0,0,114,65.26Z"/><path class="cls-1" d="M114,43.14V49.3c-.26-.38-.51-.74-.78-1.11q.42.66.78,1.35v5a54.68,54.68,0,0,0-3.31-6.29l-.06-.1,0-.07c-.42-.71-.88-1.38-1.34-2.06l-.09-.13,0-.05c-2.29-3.35-4.76-6.57-7-9.93s-4.43-6.74-5.49-10.7A13.49,13.49,0,0,1,96,22l.34.19,5.77,3.34h0l.45.26h0a24.2,24.2,0,0,0,2.35,5c.14.21.22.51.5.6h0l.12,0c.6.79,1,1.7,1.56,2.52a.28.28,0,0,0,0,.09.13.13,0,0,0,0,.06,1.44,1.44,0,0,0,.43.9C109.67,37.68,111.71,40.5,114,43.14Z"/><path class="cls-2" d="M93.63,108.21l-.27.16-5,2.89-.29.16h0q-1.41-5.2-2.68-10.45s0,0,0,0a2.33,2.33,0,0,0-.07-.25c-.45-1.76-1.2-3.44-1.7-5.19,0,0,0-.07,0-.11v0a.9.9,0,0,1,.48-.58c1-.6,2.06-1.21,3.12-1.76A1.06,1.06,0,0,1,88,92.9l.07,0h0a9,9,0,0,1,1.35,3.31c1,3.05,1.88,6.1,3,9.09C92.81,106.31,93.2,107.28,93.63,108.21Z"/><path class="cls-3" d="M113.94,87.72a1.81,1.81,0,0,1,0,.4,16.6,16.6,0,0,1-1.19,4.95,4,4,0,0,1-.21.47,1.49,1.49,0,0,0-.74,0,22.3,22.3,0,0,1-4.47.21,2.33,2.33,0,0,1-1.05-.17.59.59,0,0,1-.19-.13,1,1,0,0,1-.17-.18c-.15-.87-.7-1-1.53-1.09a10.82,10.82,0,0,0-7.55,2.37,3.52,3.52,0,0,0-1.53,3.87c.42,1.93.67,3.9,1.14,5.83a18,18,0,0,0,.62,2l-.28.16-3.12,1.8-.27.16a93.71,93.71,0,0,1-4.14-11.8c-.39-1.2-.8-2.39-1.2-3.59V92.9c0-.34.34-.47.53-.69l0,0c.79-.56,1.56-1.14,2.32-1.74l0,0,.91-.72a2.81,2.81,0,0,1,1.39-.81h.06l.13,0h0a23.91,23.91,0,0,0,4.1.86h0l.13,0h0l.17,0a18,18,0,0,0,6.9,0A84.41,84.41,0,0,0,113.94,87.72Z"/><path class="cls-4" d="M106.78,100.53l-.3.22c-.34.22-.68.44-1,.64l-3.12,1.8-3.61,2.09-1.69,1-.28.16c-.06-.15-.11-.3-.16-.45a59.47,59.47,0,0,1-1.85-8.73c-.21-1.22.74-2,1.56-2.76a11.66,11.66,0,0,1,9-2.64c1,.08.68.82.77,1.37a3.13,3.13,0,0,1,.21.34,2.75,2.75,0,0,1,.27,1.22c0,1.59.27,3.17.23,4.76A8.44,8.44,0,0,0,106.78,100.53Z"/><path class="cls-1" d="M50.25,123.73a2,2,0,0,1-.29-.15l-.06,0-4.26-2.46-.41-.24a23.88,23.88,0,0,0-2.11-6.34c-1.34-2.74-2.58-5.54-4.08-8.07.39,3.41,1.67,6.74,2.28,10.21a13.06,13.06,0,0,1,.2,2.06l-.37-.22L38.6,117h0l-.4-.24a23.28,23.28,0,0,0-.66-3.53c-.07-.27-.13-.54-.2-.82a4.34,4.34,0,0,0-.14-.48,3.05,3.05,0,0,0-.2-.46c-.66-2.16-1.4-4.3-1.86-6.51a3.8,3.8,0,0,1-.16-1.34A39.75,39.75,0,0,0,34.88,99a.8.8,0,0,1,.09-.48l.13-.11,0,0c.34-.19.67,0,1,.21a49.28,49.28,0,0,0,9.86,4.5h0a1,1,0,0,0,.44.14c.28,0,.54.1.61.46v0s0,.06,0,.09a10,10,0,0,0,.18,5.65c.88,3.13,2,6.17,2.64,9.36A34.91,34.91,0,0,1,50.25,123.73Z"/><path class="cls-3" d="M37.33,112.43a5,5,0,0,1-.12.53c-.26.94-.54,1.86-.84,2.78l-.28-.17-6.32-3.65-.31-.18s0-.07,0-.1c.58-3.43.71-6.93,1.54-10.32a22.81,22.81,0,0,1,1.39-4.26,1.22,1.22,0,0,1,.12-.19,1.62,1.62,0,0,1,.1-.18,12.51,12.51,0,0,1,.72-1.07l0,0a6.64,6.64,0,0,1,.41-.56h0l.18-.23a1.77,1.77,0,0,1,.5-.34.47.47,0,0,1,.17,0,.83.83,0,0,1,.35,0,.8.8,0,0,1,.49.46,2.89,2.89,0,0,1,0,.29,5.62,5.62,0,0,1-.38,3.23.42.42,0,0,1,0,.1c0,.12,0,.25,0,.37a33.48,33.48,0,0,1,.08,3.75c0,.22,0,.45,0,.67h0s0,0,0,0a1,1,0,0,0,.09.44A42.55,42.55,0,0,0,37,110.41c.09.31.16.62.24.94A2.48,2.48,0,0,1,37.33,112.43Z"/><path class="cls-2" d="M68.08,109.92c0,4.34,0,8.7,0,13l-.36.21-.7.4a17.25,17.25,0,0,1-4,1.67H60.88a1.78,1.78,0,0,1-.51-1,144.49,144.49,0,0,0-4.52-15.13,26.74,26.74,0,0,1-.82-2.91c-.21-1,.19-1.47,1.2-1.29a46.93,46.93,0,0,0,8.46.45c2.06,0,2.86.7,3.23,2.73A10.43,10.43,0,0,1,68.08,109.92Z"/><path class="cls-5" d="M88.36,111.26l-.29.16L85,113.23l-.26.15A50.48,50.48,0,0,1,82,107.63a13.6,13.6,0,0,0-1-2.09c.09,1.82-.13,3.47.4,5.11.43,1.31.85,2.62,1.32,3.91l-.32.19-3.66,2.11-.24.14a15.75,15.75,0,0,1-1-2.64,43.43,43.43,0,0,1-1-5.88c-.17-1.32-.4-2.63-.61-4a.14.14,0,0,1,0-.06.52.52,0,0,1,.38-.38h.05l.2,0c2.9-.52,5.47-1.9,8.11-3.11a1.58,1.58,0,0,1,.71-.24.62.62,0,0,1,.38.14C86.61,104.3,87.33,107.82,88.36,111.26Z"/><path class="cls-6" d="M73.41,119.89l-.3.18-5,2.9-.36.21c0-4.58,0-9.16,0-13.73a4.68,4.68,0,0,0-.8-3,1.59,1.59,0,0,0-1.39-.71,72.12,72.12,0,0,1-7.78-.2,13.27,13.27,0,0,1-1.53-.28c-.93-.2-1.07-.08-.84.83.71,2.73,1.73,5.36,2.55,8,1.12,3.68,2.5,7.29,3,11.15h-4.7a2.15,2.15,0,0,1-.35-1.67,44.94,44.94,0,0,0-.61-9.12c-.45-2.37-1.16-4.67-1.73-7a11.16,11.16,0,0,1-.35-1.72,28.5,28.5,0,0,0,0-.41,4.83,4.83,0,0,1,0-2.64.55.55,0,0,1,.14-.13l0,0c.36-.23.71,0,1,.2a10,10,0,0,0,1.31.66h0a1.82,1.82,0,0,0,.4.11h0a8.79,8.79,0,0,0,7.84,0l.1,0a1.17,1.17,0,0,0,.27,0A5.63,5.63,0,0,0,66.57,102c.41-.35.75-.79,1.15-1.17.22-.2.43-.45.74-.4h0a.42.42,0,0,1,.15,0,1.07,1.07,0,0,1,.48.7c.29,1.46.69,2.91.84,4.4,0,0,0,.08,0,.12s0,0,0,0c.64,3.36.94,6.8,1.89,10.11A24.77,24.77,0,0,0,73.41,119.89Z"/><path class="cls-3" d="M106.17,27.68h-.09l-.07-.13Z"/><path class="cls-7" d="M56.18,125.25H55a2.24,2.24,0,0,1-.5-1,1.29,1.29,0,0,0-1.21-1,1.16,1.16,0,0,0-1.16.86c-.07.15-.13.31-.2.46l-.3-.13a11.3,11.3,0,0,1-1.39-.7,2,2,0,0,1-.29-.15l-.06,0a26.23,26.23,0,0,0-.59-5.73c-.55-2.23-1.21-4.44-2-6.61a18.09,18.09,0,0,1-.93-6.68c0-.42,0-.81.59-.79l0,0c.46-.32.82-.06,1.18.2l.06,0,0,.05,0,.06.1.11a2.56,2.56,0,0,0,2.2.87h0a2.28,2.28,0,0,0,.44,0l.15,0,.11,0a3.83,3.83,0,0,1,1.72.37,1.27,1.27,0,0,1,.34.38c1,4.23,2.42,8.35,2.68,12.73C56.25,120.71,56.21,123,56.18,125.25Z"/><path class="cls-7" d="M114,81v5.64c0,.37,0,.73,0,1.1a1.81,1.81,0,0,1,0,.4c-.5.15-1,.27-1.52.38a58.35,58.35,0,0,1-7.51,1.61,24.74,24.74,0,0,1-7.24,0h0a1.15,1.15,0,0,1-.09-.26.68.68,0,0,1,.38-.72l.2-.12,0,0,.09,0h0l.15,0c.38-.1.78-.13,1.16-.25a1.7,1.7,0,0,0,1.09-2.57,1.41,1.41,0,0,1,.12-1.72h0l.09-.11h0a.24.24,0,0,1,.23,0l0,0a24.46,24.46,0,0,0,7-1.07A27.56,27.56,0,0,0,114,81Z"/><path class="cls-8" d="M107.09,29.34a.42.42,0,0,1,0,.1s0,.06,0,.06c-1.25.05-1.49.9-1.58,1.87,0,0,0,.07,0,.1s0,.32-.06.36-.24-.11-.32-.23A20.39,20.39,0,0,1,103.09,28c-.32-.83-.7-1.64-1-2.48l.45.26h0l2.92,1.68c.26.15.52.31.77.48l-.14-.27-.07-.13.16.12,0,0a2.69,2.69,0,0,1,.33.35,1.37,1.37,0,0,1,.15.21A3.22,3.22,0,0,1,107.09,29.34Z"/><path class="cls-8" d="M78.65,116.86l-.24.14-5,2.89-.3.18a31.9,31.9,0,0,1-2.62-9c-.28-1.76-.53-3.53-.79-5.29a1.71,1.71,0,0,1,.26-.21,4.44,4.44,0,0,1,1.69-.43c.3-.06.6-.12.89-.2h0a3.5,3.5,0,0,0,.46-.14l.11,0a.75.75,0,0,1,.26,0h.32a3.92,3.92,0,0,0,1-.21c.37-.1.76-.26,1.11,0l.06,0c.33,0,.36.29.4.57.39,2.79.67,5.61,1.22,8.36A14.63,14.63,0,0,0,78.65,116.86Z"/><path class="cls-2" d="M106.53,28.06c-.14-.09-.31-.17-.33-.35A2.69,2.69,0,0,1,106.53,28.06Z"/><path class="cls-9" d="M114,48.77v1.51l-.25-.54c-.62-1.3-1.51-2.42-2.23-3.65-.14-.25-.52-.45-.2-.94C112.22,46.38,113.12,47.56,114,48.77Z"/><path class="cls-9" d="M114,70.49v3c-.64.2-1.29.36-1.94.55a17.4,17.4,0,0,1-4.14.46c-.23,0-.55.25-.63-.15s.3-.25.49-.34C109.88,72.92,112.34,72.39,114,70.49Z"/><path class="cls-4" d="M113.72,39.32c-.16-.23-.33-.45-.48-.68l-.2-.26-.18-.26c-1.35-1.59-2.49-3.32-3.68-5l-.09-.13,0-.07c-.46-.78-1-1.5-1.49-2.3A8.61,8.61,0,0,1,107,29.5l-.06-.18L106.22,28l-.14-.27-.07-.13.16.12s0,0,0,0v0a2.69,2.69,0,0,1,.33.35,1.37,1.37,0,0,1,.15.21,17.08,17.08,0,0,1,6.92,10.39Q113.68,39,113.72,39.32Z"/><path class="cls-10" d="M85,113.23l-.26.15-2.06,1.18-.32.19c-.61-1.66-1.11-3.36-1.58-5-.41-1.48-.07-3.16-.07-4.92a6.36,6.36,0,0,1,1.5,2.48A48.46,48.46,0,0,0,85,113.23Z"/><path class="cls-11" d="M45.64,121.09l-.41-.24-3.71-2.14-.37-.22a24.38,24.38,0,0,0-1-5.15,35.16,35.16,0,0,1-1.38-6.58c0-.42-.29-.8-.09-1.42.46.74.9,1.35,1.24,2,1.2,2.39,2.41,4.78,3.54,7.21a21.59,21.59,0,0,1,1.86,4.79C45.47,119.92,45.57,120.51,45.64,121.09Z"/><path class="cls-2" d="M38.59,117l-.4-.24-1.82-1-.28-.17c.29-.87.53-1.76.76-2.65.09-.33.26-.64.34-1a1.34,1.34,0,0,0,.06-.6A22.25,22.25,0,0,1,38.59,117Z"/><path class="cls-8" d="M114,42.25v1.38c-.72-.83-1.44-1.67-2.12-2.54q-2.43-3.09-4.78-6.24c-.13-.17-.81-.49-.09-.84h.1a.59.59,0,0,1,.37,0c.77.31,1.23.08,1.42-.74a.69.69,0,0,1,.17-.4.29.29,0,0,1,.3-.07c1.18,1.73,2.37,3.46,3.7,5.09a.91.91,0,0,1,.19.73,1.31,1.31,0,0,1-.06.27,3.18,3.18,0,0,0,.79,3C114,42.05,114,42.15,114,42.25Z"/><path class="cls-12" d="M55,125.25H53.94a15.27,15.27,0,0,1-2-.69l-.3-.13.18-.43a1.46,1.46,0,0,1,1.59-1.13,1.6,1.6,0,0,1,1.45,1.33A2.51,2.51,0,0,1,55,125.25Z"/><path class="cls-3" d="M109.38,45.69a.8.8,0,0,1-.15.28c-.25.27-.58,0-.79-.19a35.6,35.6,0,0,0-3.94-2.12c-1.67-.88-3.45-1.49-5.19-2.21-1.3-.55-2.61-1.11-3.86-1.76l-.37-.19,0,0a6.59,6.59,0,0,1-.73-.67h0a2.56,2.56,0,0,0-.56-.42l-.16-.07a45.31,45.31,0,0,0-6.32-5,3.88,3.88,0,0,1-1.07-1,3.42,3.42,0,0,1-.34-.29,2.64,2.64,0,0,1-.5-.65c-.61-1.13-.07-2.41.29-3.67a1.59,1.59,0,0,0,.07-.2,8.3,8.3,0,0,0,.1-1.73,1.72,1.72,0,0,1,.08-.72h0a.4.4,0,0,1,.23-.23c.37-.16.67.16.92.41a36.65,36.65,0,0,0,5.78,4.46c1.5,1,2.12.77,2.39-1a15.36,15.36,0,0,0-.25-6,2.5,2.5,0,0,1-.14-1.15l.08-.1s0,0,0,0l0-.07a.6.6,0,0,1,.09.15h0c0-.18.09-.32.3-.18a2.42,2.42,0,0,0,.59.32A2.41,2.41,0,0,0,96,22l.34.19a26.6,26.6,0,0,0,4.49,11.19c2.43,3.81,5.19,7.39,7.79,11.09C108.86,44.87,109.11,45.28,109.38,45.69Z"/><path class="cls-2" d="M95.06,21.48a.44.44,0,0,1-.16-.06,1.34,1.34,0,0,1-.49-.32l.51.3,0-.07A.6.6,0,0,1,95.06,21.48Z"/><polygon class="cls-2" points="95.07 21.48 95.07 21.49 95.06 21.48 95.07 21.48"/><path class="cls-4" d="M114,54.64v8a12.65,12.65,0,0,1-7.38,3.32,1.85,1.85,0,0,1-1.87-.51,0,0,0,0,1,0,0l0,0s0,0,0,0c0-.22-.09-.44-.12-.67h0a6.54,6.54,0,0,1,0-1.25,28.41,28.41,0,0,0-1-7.89,1.91,1.91,0,0,1,0-1.06,1.18,1.18,0,0,1,.11-.19.18.18,0,0,1,0-.07,1.08,1.08,0,0,1,.76-.34A5.3,5.3,0,0,0,108,52.06a1.89,1.89,0,0,1,.72-.49l.2,0H109a4.16,4.16,0,0,1,2.93,1A10.42,10.42,0,0,1,114,54.64Z"/><path class="cls-2" d="M108.76,51.77c-.77.47-1.25,1.26-2,1.74a10.2,10.2,0,0,1-3,.79c-.51-.12-.59-.56-.71-1a35.08,35.08,0,0,0-5-10.11c-.76-1.09-1.7-2-2.54-3.06-.22-.26-.58-.47-.4-.91,2.6,1.15,5.25,2.2,7.86,3.32a27.88,27.88,0,0,1,5.53,2.86c.22.17.47.66.9.25l1.37,2.14A6.79,6.79,0,0,1,108.76,51.77Z"/><path class="cls-6" d="M114,62.22V66c-.27.5-.57,1-.89,1.46l-.48.3a16.59,16.59,0,0,1-7.47,2.83c-.42,0-.86.1-1.15-.25a.39.39,0,0,1-.08-.1l0-.07a7.94,7.94,0,0,1,.07-2.07v0c0-.2.1-.4.14-.61a.19.19,0,0,0,0-.08c.06-.25.11-.51.16-.77,0,0,0-.06,0-.1.08-.32.17-.64.25-1a.22.22,0,0,1,.13-.09h0s0,0,0,0a.2.2,0,0,1,.11,0c1.68.55,3.25,0,4.81-.51A13.45,13.45,0,0,0,114,62.22Z"/><path class="cls-13" d="M101.12,84.19l-.15,0a3.28,3.28,0,0,1-3-.17c-.27-.46,0-.82.25-1.15a29.41,29.41,0,0,0,4.68-9.85c.11-.39.2-.83.64-1,.56.21,1.15-.37,1.69.08-.9.48-.69,1.42-.75,2.15a13.81,13.81,0,0,1-.66,3A43.84,43.84,0,0,1,101.12,84.19Z"/><path class="cls-14" d="M114.15,54.9a2.33,2.33,0,0,0-.17-.26v.58a4.4,4.4,0,0,0-.3-.45c-1.23-1.67-2.66-3-4.92-3,0-.07.07-.15.11-.22.59-1.15,1.17-2.29,1.74-3.45l.14-.27A37.42,37.42,0,0,1,114,53.76v.73Z"/><path class="cls-15" d="M105.26,72.11a1.31,1.31,0,0,0-.87.27c-.37.2-.66.1-.76-.35a1.35,1.35,0,0,1,.42-1.92c.82.48,1.67.09,2.43-.07a16.33,16.33,0,0,0,5.68-2.42,1.35,1.35,0,0,1,.93-.2,4,4,0,0,1-1.82,2A21.79,21.79,0,0,1,105.26,72.11Z"/><path class="cls-16" d="M109.34,32.81c0,.08-.15.15-.16.23-.24,1.65-.76,1.88-2.19,1a6.48,6.48,0,0,1-1.58-2.54c-.46-1.55,0-2.13,1.53-2.15A30.84,30.84,0,0,1,109.34,32.81Z"/><path class="cls-17" d="M104.83,65.42l-.15,0a.43.43,0,0,1-.2-.32s0,.1,0,.14a33.29,33.29,0,0,1-3.2,10,60,60,0,0,1-9.51,14.34A18.53,18.53,0,0,1,89,92c-.15.12-.32.21-.36.43L88,93a43.5,43.5,0,0,0-4.28,2.37,2.53,2.53,0,0,1-1.18.83,61,61,0,0,1-6,2.26c-1,.34-1.08.34-.77,1.44a25.46,25.46,0,0,1,.66,3.33c0,.38.17.78-.13,1.12l-.4.19c-.86.06-1.65.61-2.55.39-.08-.3.13-.48.28-.68a4,4,0,0,0,0-4.62.7.7,0,0,0-.77-.25c-.77.14-1.51.38-2.28.51-.5.09-.62.42-.43.86a11,11,0,0,1,.63,2.24,1.9,1.9,0,0,0,1.43,1.56c.33.1.73.08,1,.42a12.07,12.07,0,0,1-3.51.78,34.71,34.71,0,0,0-1.21-5.32c-.34-.45,0-.89.09-1.29a17.79,17.79,0,0,0,1.15-6.34,1.69,1.69,0,0,1,.17-.85c.26-.41.72-.39,1.12-.48A47.2,47.2,0,0,0,87,85.1,34.32,34.32,0,0,0,99.74,71.21a26.34,26.34,0,0,0,2.81-12.93A29.41,29.41,0,0,0,95,40.15c-.53-.62-1.31-1.1-1.33-2,.65.16.94.75,1.38,1.16a46.44,46.44,0,0,1,4.09,5.17,34.19,34.19,0,0,1,4.13,9,5.81,5.81,0,0,0,.38.89c.25,1.29.47,2.59.76,3.87A32,32,0,0,1,104.83,65.42Z"/><path class="cls-18" d="M76.32,104.32a40.89,40.89,0,0,0-1-5.13c-.13-.42-.18-.76.37-.89a44.85,44.85,0,0,0,7.71-2.85,2.38,2.38,0,0,1,.38-.11,38.11,38.11,0,0,1,2,5.49c-2,.88-4,1.72-6,2.65A14.64,14.64,0,0,1,76.32,104.32Z"/><path class="cls-2" d="M112.71,93.07a4,4,0,0,1-.21.47,16.82,16.82,0,0,1-5.72,7l-.3.22c-.06-.57-.08-1.15-.09-1.74,0-1.87-.22-3.73-.34-5.6a1.49,1.49,0,0,1,0-.21,15.43,15.43,0,0,0,4.55.13,14.27,14.27,0,0,0,1.82-.27A.79.79,0,0,1,112.71,93.07Z"/><path class="cls-19" d="M88.62,92.47c-.21-.36.17-.43.32-.57a53.86,53.86,0,0,0,14.79-24.23c.3-1,.5-2.13.88-3.2,0,.33,0,.65.07,1l-.63,4.67a8.33,8.33,0,0,0-.42,1.92,44.34,44.34,0,0,1-2.78,7.26A53,53,0,0,1,98,83.82,2,2,0,0,1,97.4,85a32,32,0,0,1-3.11,3.27,3.07,3.07,0,0,1-1.17.82Z"/><path class="cls-20" d="M93.12,89.06l1-.92a26.53,26.53,0,0,0,4,.78.39.39,0,0,1,.2.22,1.23,1.23,0,0,0-.63.93A11.23,11.23,0,0,1,93.12,89.06Z"/><path class="cls-20" d="M97.62,90.07a51.6,51.6,0,0,0,7.25,0A16.43,16.43,0,0,1,97.62,90.07Z"/><path class="cls-21" d="M102.33,103.19l-3.61,2.09a19,19,0,0,1-.51-5.51A8.91,8.91,0,0,1,99,97.25,28.48,28.48,0,0,0,102.33,103.19Z"/><path class="cls-17" d="M48.16,104.15a2.42,2.42,0,0,0-1.17-.41c-.31-.37-.86,0-1.18-.36.76-1.11.46-2.44.75-3.65.1-.41-.39-.53-.74-.62a51.44,51.44,0,0,1-9.22-3.3,2.25,2.25,0,0,1-1.34-1l-.38-.21a8.5,8.5,0,0,1-4.08-2.2,4,4,0,0,0-1.05-1.26A47.87,47.87,0,0,1,22,81.36a48.18,48.18,0,0,1-5.93-13,31.1,31.1,0,0,1-.8-3.3,9.27,9.27,0,0,0-.41-1.19A12.42,12.42,0,0,1,15,59.71a35.2,35.2,0,0,1,5.26-15.07,38.47,38.47,0,0,1,3.2-4.31c.32-.37.61-.89,1.26-.72.27.61-.21,1-.52,1.35a31.35,31.35,0,0,0-5.34,9.58A26.83,26.83,0,0,0,21.22,73.1c3.7,6.53,9.24,11,15.88,14.34a48.42,48.42,0,0,0,11,3.84c1.27.27,1.28.26,1.46-1a1.75,1.75,0,0,1,.22-.84c.21-.28.38-.16.52.08a10,10,0,0,1,.16,3c0,1.2,0,2.4,0,3.6a1.53,1.53,0,0,0,.22,1.36c.3.73.8,1.41.49,2.26-.41.49-.94.29-1.44.23-1-.12-1.12,0-1.2,1-.06.7,0,1.41,0,2.12a1.81,1.81,0,0,1-.21,1Z"/><path class="cls-22" d="M35.26,94.77a50,50,0,0,0,6.47,2.77,32.76,32.76,0,0,0,4.54,1.33c.68.12.84.56.68,1.14a7.85,7.85,0,0,0-.35,2.68c0,.6-.31.7-.79.69a45.65,45.65,0,0,1-10.08-4.66,3.14,3.14,0,0,0-.63-.23C35.15,97.25,35.2,96,35.26,94.77Z"/><path class="cls-22" d="M35.25,103.75a22.21,22.21,0,0,1-.17-4.89A28.54,28.54,0,0,1,35.25,103.75Z"/><path class="cls-7" d="M32.68,97.07c-1.57,3.83-2,7.9-2.5,12-.12,1-.24,1.94-.41,2.9l-.31-.18-.51-.29-4.15-2.4-2.07-1.19-.27-.16a27.44,27.44,0,0,0,1.2-4.7c.28-1.67.7-3.31,1-5A34.74,34.74,0,0,1,26,93.16,2,2,0,0,1,26.72,92a.17.17,0,0,1,.1,0,.15.15,0,0,1,.09,0,.7.7,0,0,1,.58.32c.49.61,1.11,1.1,1.56,1.74l.05.07.06.09a.82.82,0,0,1,.07.28v.09a.91.91,0,0,1,0,.23c0,.27-.08.55-.08.83A1.43,1.43,0,0,0,29.79,97c.58.32,1,.06,1.5-.3a1.69,1.69,0,0,1,.35-.22h0a.65.65,0,0,1,.45-.06h0a1,1,0,0,1,.45.24l0,0A.31.31,0,0,1,32.68,97.07Z"/><path class="cls-23" d="M29,94.36a1.16,1.16,0,0,1,0-.18,2.35,2.35,0,0,1,1.74-2.08.31.31,0,0,1,.24.16c1.15,1,2.63,1.47,3.9,2.3-.33,0-.51.26-.76.4-.53.37-.94.88-1.51,1.22a1.41,1.41,0,0,1-1.64,0C30.24,95.68,29.36,95.32,29,94.36Z"/><path class="cls-24" d="M29,94.36,31.18,96A.9.9,0,0,0,32.46,96c.49-.39.93-1,1.66-1l-1.44,2.11c-.31-.48-.67-.74-1.15-.21a1.42,1.42,0,0,1-1.8.5,1.79,1.79,0,0,1-.95-1.87A4,4,0,0,1,29,94.36Z"/><path class="cls-25" d="M70.06,91.89a19.74,19.74,0,0,1-1.58,8.51,13.93,13.93,0,0,1-3.25,3,2.62,2.62,0,0,1-1.26.39c-.1-.48.3-.67.56-.93a4.81,4.81,0,0,0,1.15-1.27,10.44,10.44,0,0,0,2.9-7c.1-1.16,0-2.34,0-3.51a8.63,8.63,0,0,1,.06-1.9.83.83,0,0,1,.67-.48.73.73,0,0,1,.49.17A2.57,2.57,0,0,1,70.06,91.89Z"/><path class="cls-26" d="M50.14,96.31c-.17-2.33,0-4.66-.06-7A.42.42,0,0,1,50,88.9a.57.57,0,0,1,.82-.18,1.15,1.15,0,0,1,.62.86,6.59,6.59,0,0,0-.15,3.18A13.53,13.53,0,0,0,53,100c.35.6.89,1,1.22,1.63A6.13,6.13,0,0,0,55.51,103c.23.21.65.35.45.81-1-.05-1.74-.87-2.67-1.18-.57-.14-.83-.67-1.25-1a2.93,2.93,0,0,1-1-1.92c0-.77-.56-1.38-.57-2.14C50.18,97.17,50.46,96.65,50.14,96.31Z"/><path class="cls-27" d="M56,103.76c-.57-.72-1.56-1-1.92-2,.38-.38.77-.15,1.17,0a11.41,11.41,0,0,0,2.53.91l.31,0a7.3,7.3,0,0,0,3.88,0,8,8,0,0,0,2.64-.88c.38-.18.81-.49,1.22,0-.31.92-1.3,1.2-1.82,1.92A8.19,8.19,0,0,1,56,103.76Z"/><path class="cls-28" d="M52.27,101.43a3.52,3.52,0,0,1,1,1.15,23.34,23.34,0,0,0,.13,3.13,16.83,16.83,0,0,0-2.11-.57l-.07-.12a6,6,0,0,0,.74-3.24C52,101.61,52.1,101.49,52.27,101.43Z"/><path class="cls-29" d="M54.82,117.12a2.38,2.38,0,0,1-.94,2.24,2.25,2.25,0,0,1-3.37-1.55,22.64,22.64,0,0,1-.39-2.6,8.87,8.87,0,0,0-.28-2.21,2,2,0,0,1,1.09-2.19,2,2,0,0,1,2.49,1A16.67,16.67,0,0,1,54.82,117.12Z"/><path class="cls-28" d="M51.31,105.14a2.45,2.45,0,0,1-3.15-1l.06-.07a6.65,6.65,0,0,1,3,1Z"/><path class="cls-16" d="M114,82.7v2.72a1.59,1.59,0,0,1-.29.29,11.24,11.24,0,0,1-4.69,2c-1.47,0-2.36-.52-2.57-1.29a1.88,1.88,0,0,1,1.21-2.36A21.18,21.18,0,0,1,112,82.34,2.14,2.14,0,0,1,114,82.7Z"/><path class="cls-20" d="M97.24,84.8l.76-1a12.37,12.37,0,0,0,3,.41,1.91,1.91,0,0,0,.21,2.18c.53.75-.35,2.18-1.41,2.48a12.84,12.84,0,0,1-1.53.25l-.06-.08a8.11,8.11,0,0,1,1.27-2.35c.59-1.11.51-1.32-.75-1.56C98.21,85.06,97.64,85.24,97.24,84.8Z"/><path class="cls-29" d="M72,111.51c0-.3,0-.66,0-1A2.16,2.16,0,0,1,74,108.42a2.06,2.06,0,0,1,2.29,2,21.94,21.94,0,0,0,.61,4.7,1.91,1.91,0,0,1-1.38,2.34,2.19,2.19,0,0,1-2.68-1.49A11.94,11.94,0,0,1,72,111.51Z"/><path class="cls-30" d="M73.2,104.94c-1.94-.08-2.42-.52-2.78-2.5a7.56,7.56,0,0,0-.63-1.84c-.25-.52-.18-.92.53-1A16,16,0,0,0,72.88,99c.77-.24,1.05.07,1.23.74s.48,1.15.59,1.75a3.15,3.15,0,0,1-1.33,3.39Z"/><path class="cls-29" d="M114,42.25v.21a4.71,4.71,0,0,1-1.29-2.3c-.13-.66.25-1.2.35-1.78a1.23,1.23,0,0,0,0-.47l.55.75q.08.33.12.66A15.32,15.32,0,0,1,114,42C114,42.05,114,42.15,114,42.25Z"/><path class="cls-4" d="M30.05,16.78a20.22,20.22,0,0,1-.21,2.16A29.76,29.76,0,0,1,22.5,34.21,47.51,47.51,0,0,1,10,44.65a21.57,21.57,0,0,1-4.3,2.08A4.07,4.07,0,0,1,4,46.88H4a4.41,4.41,0,0,1-1-.24V45a2.83,2.83,0,0,0,.4-.17c3.16-1.62,6.27-3.3,8.57-5.94C9,40.14,6.05,41.71,3,43v-.78a16.85,16.85,0,0,1,.61-4.5,2.26,2.26,0,0,1,.11-.37c.49-.25,1-.51,1.46-.78A37.82,37.82,0,0,0,17.11,26a20.36,20.36,0,0,0,1.67-2.69l.43-.25,2.55-1.47.39-.22c-.7,3.81-2.38,7.29-3.89,10.75a20.66,20.66,0,0,0,6.58-12.3l.4-.24L29.74,17Z"/><path class="cls-5" d="M10.54,64.53v0c-.13.71-.3,1.44-.48,2.15-.06.24-.12.49-.19.73,0,0,0,0,0,0-1.21,4.62-2.8,9.12-4.2,13.67,0,0,0,0,0,0s-.05.23-.08.35c-.7,3-1.54,5.9-2.14,8.88-.07-.26-.12-.52-.17-.78h0a17.15,17.15,0,0,1-.26-3V73.79A58.47,58.47,0,0,0,6.13,68c1.59-3.53,2.41-7.19,1.44-11.09a6,6,0,0,0-3.18-4.1L3,52.12V49.65q1.17.41,2.31.9c.28.12.64.46.87.17s-.15-.65-.36-.9A5.27,5.27,0,0,0,3,48V46.52a7.89,7.89,0,0,1,1,.36H4a11,11,0,0,1,5.61,5.89l.09.17h0a14,14,0,0,1,1.23,5.29s0,.06,0,.09,0,.13,0,.19A23.24,23.24,0,0,1,10.54,64.53Z"/><path class="cls-5" d="M18.24,87.85A29.5,29.5,0,0,0,16.89,99.6a43.76,43.76,0,0,1,0,4.86l-.27-.15-1.15-.67-.38-.22c0-2.52-.12-5-.07-7.55a21.77,21.77,0,0,1,2.48-9.35l.05-.07.08-.1a.41.41,0,0,1,.48-.19h.05A1.72,1.72,0,0,1,18.24,87.85Z"/><path class="cls-5" d="M26.91,91.92a.3.3,0,0,1,0,.11,18.34,18.34,0,0,0-1.81,5.76c-.16,1.37-.64,2.68-.83,4.07a26.86,26.86,0,0,1-1.47,5.92l0,.08-.27-.16L19.51,106l-.27-.16c.29-.79.52-1.62.76-2.43a69.82,69.82,0,0,0,2.27-9.66c.3-2.09.48-4.19-.83-6.12-.78-1.15-1.11-2.57-2-3.66a.36.36,0,0,1,0-.1.08.08,0,0,1,0,0c-.21-.92.53-1.47.94-2.15l.05,0,.08,0c.28-.06.44.17.58.37a7.64,7.64,0,0,1,1.09,1.71,5.52,5.52,0,0,0,.18.53h0c.08.22.16.44.26.65a12,12,0,0,0,1.66,2.71c.94,1.2,1.67,2.55,2.55,3.79l.06.08s0,0,0,0A.58.58,0,0,1,26.91,91.92Z"/><path class="cls-31" d="M54.05,3.74l6.82,0a2.15,2.15,0,0,1,1,1.12A38.74,38.74,0,0,1,65.7,16.89c.22,1.35.41,2.7.5,4.06,0,.61.22,1.24-.21,1.79a1.6,1.6,0,0,1-1.22.23,45.41,45.41,0,0,0-9.54.31c-1.49.13-1.81-.11-2.08-1.61A25.19,25.19,0,0,1,52.89,17c0-2.48,0-4.95.21-7.42a4.67,4.67,0,0,1,.24-1.29,70.06,70.06,0,0,0-2.23,11.58c-.09.91,0,1.82,0,2.73,0,1.21-.22,1.53-1.38,1.78a53.66,53.66,0,0,0-10.4,3.91A8.48,8.48,0,0,1,37,29.4c-.34,0-.51-.26-.67-.5A8.2,8.2,0,0,1,35,24a12.91,12.91,0,0,1,.36-2.6c.68-2.68,2.71-4.25,4.78-5.71A93.33,93.33,0,0,0,52.54,5.25C53.05,4.75,53.4,4.1,54.05,3.74Z"/><path class="cls-2" d="M19.21,23c-.19.39-.4.77-.61,1.15-2.42,4.29-6,7.53-9.83,10.49a32.5,32.5,0,0,1-5.16,3.07,2.26,2.26,0,0,1,.11-.37,17,17,0,0,1,7.81-9.9l7.25-4.19Z"/><path class="cls-2" d="M35.63,16.5a.92.92,0,0,1,0,.16v.09a3.28,3.28,0,0,1-1,1.66,1.12,1.12,0,0,0-.18.2h0a3.67,3.67,0,0,0-.51.61A7.55,7.55,0,0,0,32.53,23a13.23,13.23,0,0,0,.18,4.65,7.27,7.27,0,0,0,1.14,2.46c.58.8.73,1,.43,1.51h0A4.8,4.8,0,0,1,34,32l-.21.26a20.68,20.68,0,0,1-3.67,2.84,37.57,37.57,0,0,0-4.31,3.76c-.32.31-.57.71-1.08.74h0a14.73,14.73,0,0,0-3.38,4,32.46,32.46,0,0,0-5,10.94,31.79,31.79,0,0,0-1,5,1.21,1.21,0,0,1-.35.19c-.56.17-1.07-.21-1.6-.35l-.13-.09-.18-.09a8.45,8.45,0,0,0-1.32-.42,2.53,2.53,0,0,1-.78-.3,1.06,1.06,0,0,1-.31-.29A19,19,0,0,0,9.44,53l.18-.2a13.38,13.38,0,0,1,1.66-1.22A52.06,52.06,0,0,0,24.16,36.9,53.64,53.64,0,0,0,29,26.68a29.07,29.07,0,0,0,1.69-10.26l.28-.16,4.21-2.43.34-.2A17.06,17.06,0,0,1,35.63,16.5Z"/><path class="cls-3" d="M31,18.06a27.63,27.63,0,0,1-1.71,8.73A46.69,46.69,0,0,1,23.85,38a57.6,57.6,0,0,1-5.59,7.44,47.58,47.58,0,0,1-7.45,6.81,3.08,3.08,0,0,1-1.1.65,1.12,1.12,0,0,1-.27,0A14.23,14.23,0,0,0,6.09,48.5,9.06,9.06,0,0,0,3,46.81v-.5a12.32,12.32,0,0,0,1.71.34A4.44,4.44,0,0,0,7,45.81a43.63,43.63,0,0,0,7.54-4.59,50.16,50.16,0,0,0,9-8.76,29,29,0,0,0,5.35-10.38A25.75,25.75,0,0,0,29.74,17l.31-.19.63-.36.28-.16C31,16.86,31,17.46,31,18.06Z"/><path class="cls-4" d="M95.68,27.74a4.87,4.87,0,0,1-.71,2.5.89.89,0,0,1-1.45.32,40,40,0,0,1-6.87-5.28c-.12-.12-.22-.33-.5-.28-.23.9.14,1.86-.25,2.74a1,1,0,0,1-.19-.23,2.38,2.38,0,0,1-.17-1.32,15,15,0,0,0-.17-2.93,6.36,6.36,0,0,0-.27-1,5.49,5.49,0,0,0-.21-.51A11.7,11.7,0,0,0,83.66,19a2.35,2.35,0,0,1-.39-1.08c0-.06,0-.13,0-.19s0-.22,0-.32a20.7,20.7,0,0,1,0-2.73l.32.18,10.81,6.24h0l.51.3,0-.07a.6.6,0,0,1,.09.15h0A22.28,22.28,0,0,1,95.68,27.74Z"/><path class="cls-8" d="M7.7,64.61c-.92,3.58-2.95,6.57-4.7,9.71V68.57A6.28,6.28,0,0,0,4,67.1a3.27,3.27,0,0,0,.3-2.71,1.39,1.39,0,0,1-.06-.19,1.51,1.51,0,0,1,0-.67,11.84,11.84,0,0,0,.28-3.41,1.47,1.47,0,0,1,.12-.59.41.41,0,0,1,.11-.19h0A1.06,1.06,0,0,1,5.46,59a1.07,1.07,0,0,0,.94-1.27,4.65,4.65,0,0,0-2.21-3.61A1.11,1.11,0,0,0,3,54V51.72a19.53,19.53,0,0,1,3.07,1.87,5.06,5.06,0,0,1,1.75,3A16.3,16.3,0,0,1,7.7,64.61Z"/><path class="cls-32" d="M85.37,23.26a8.12,8.12,0,0,1-.62,3.27,1.88,1.88,0,0,1-.69,1H83.9c-.39,0-.39-.39-.44-.68a6.77,6.77,0,0,1,0-1.56c.35-4-1.48-6.93-4.8-9a49.68,49.68,0,0,0-7.1-3.86,15.19,15.19,0,0,1-6.93-5.15,34.74,34.74,0,0,1,1.86,9,35.27,35.27,0,0,1,.41,5.34c0,.35,0,.78-.27,1h0a.57.57,0,0,1-.28.14h-.06a.41.41,0,0,1-.21-.1s0,0,0-.05C65.53,16,64.36,9.55,60.87,3.73h2.52a16.81,16.81,0,0,1,2.49,1h0c.22.11.45.22.67.35a21.12,21.12,0,0,0,7.89,6.09c.66.28,1.27.66,1.94.93l.15.08a27.74,27.74,0,0,1,3,1.79l.18.12.12.1c.4.34.8.68,1.22,1a3.37,3.37,0,0,0,.37.29l.27.21a8.12,8.12,0,0,1,1.52,1.74,2.85,2.85,0,0,1,.26.59,18.13,18.13,0,0,1,1.65,3.51A8.23,8.23,0,0,1,85.37,23.26Z"/><path class="cls-2" d="M77,11.08a1.5,1.5,0,0,1-.49,1.07,1.28,1.28,0,0,1-.23.14A23.24,23.24,0,0,1,65.9,4.7c.22.11.45.22.67.35a4.92,4.92,0,0,1,.45.24l9.73,5.62Z"/><path class="cls-33" d="M4.38,63.7c0,.23-.08.46-.13.69A12.48,12.48,0,0,1,3,67.77V57.94l1-.18H4c.6.23.64.75.67,1.28a1.51,1.51,0,0,1,0,.3h0a1.35,1.35,0,0,0,0,.53.37.37,0,0,0,0,.11C4.75,61.23,5.06,62.52,4.38,63.7Z"/><path class="cls-34" d="M54.05,3.75c-1,1.79-2.57,3-4,4.35A101.9,101.9,0,0,1,39,17a8.83,8.83,0,0,0-2.19,12,.9.9,0,0,1,.08.28l0,.08c-.23.55-.61.47-1,.13a4.52,4.52,0,0,1-.9-1.37,13.53,13.53,0,0,1-1.32-7.35,5.61,5.61,0,0,1,.3-1.54,3.07,3.07,0,0,1,.64-1.06l.94-1.37a1.46,1.46,0,0,1,.17-.3,7.57,7.57,0,0,1,2.41-2c.44-.32,1-.56,1.41-.87l0,0,.2-.12c1-.58,2-1,3-1.67a7.25,7.25,0,0,0,.67-.46c.81-.57,1.59-1.18,2.41-1.75l.09-.06.1-.08c.63-.5,1.24-1,1.89-1.49h0l0,0c1.34-1.07,2.58-2.24,3.81-3.42L52,4.3h0l.35-.13c.4-.16.8-.3,1.21-.42Z"/><path class="cls-21" d="M83.58,14.85c0,.46,0,.93,0,1.4s0,1.16,0,1.74l-.24-.27-1.68-1.85a2.55,2.55,0,0,1-.5-.71,5.65,5.65,0,0,1-.49-2l.37.22h0l2.29,1.33Z"/><path class="cls-3" d="M39.7,13.51a.65.65,0,0,1-.12.36,45.5,45.5,0,0,0-4,2.79l-.16.14c-.36-.49-.14-1.06-.17-1.58s-.07-.93-.12-1.39l.34-.2,3.32-1.92.28-.15c.16.42.3.85.44,1.29A2,2,0,0,1,39.7,13.51Z"/><path class="cls-35" d="M43.54,11.53a23.55,23.55,0,0,1-4,2.34,2.25,2.25,0,0,0-.08-.24c-.2-.65-.42-1.29-.67-1.92l.28-.15,2.26-1.31.26-.15a3.05,3.05,0,0,1,.13.32c.28.72.5,1.34,1.46.94a.15.15,0,0,1,.14,0A.38.38,0,0,1,43.54,11.53Z"/><path class="cls-21" d="M46,9.76l-2.45,1.77c-.06,0-.14,0-.19,0a1.77,1.77,0,0,1-.66.3c-.64.16-.89-.39-1.18-1.22,0-.12-.09-.25-.14-.37l.26-.15L45,8.15,45.27,8A3.1,3.1,0,0,1,46,9.49Z"/><path class="cls-35" d="M48,8.2a13.45,13.45,0,0,1-2,1.56.67.67,0,0,1-.22-.13c-.33-.28-.25-.8-.5-1.15L45,8.15,45.27,8l2-1.15.25-.15A5.22,5.22,0,0,1,47.91,8,1,1,0,0,1,48,8.2Z"/><path class="cls-36" d="M79.86,14.16a.69.69,0,0,1-.26.14l-3.28-2a1.43,1.43,0,0,0,.08-.22,8.12,8.12,0,0,0,.35-1.16l.29.17,2.33,1.34.33.19c0,.25.07.5.11.75S80.08,13.94,79.86,14.16Z"/><path class="cls-35" d="M81.58,15.87l-2-1.57c0-.12,0-.24,0-.36,0-.51-.12-1-.19-1.52l.33.19.89.51.37.22h0c.06.41.13.82.22,1.23a8.89,8.89,0,0,0,.26.88C81.49,15.59,81.54,15.73,81.58,15.87Z"/><path class="cls-6" d="M4,57.83c-.06.26-.24.35-.49.39L3,58.3V56.17a2,2,0,0,1,1,1.58A.22.22,0,0,1,4,57.83Z"/><path class="cls-37" d="M52.34,4.16A23.94,23.94,0,0,1,48,8.2a2,2,0,0,0-.1-.21,10.42,10.42,0,0,0-.61-1.14l.25-.15L50,5.29a16.4,16.4,0,0,1,2-1h0Z"/><path class="cls-38" d="M6.57,51.19c-.29.34-.57.05-.86-.09A22.74,22.74,0,0,0,3,50V47.66a5.91,5.91,0,0,1,3.53,2.46A.82.82,0,0,1,6.57,51.19Z"/><path class="cls-31" d="M24.69,39.64a38.43,38.43,0,0,1,7.15-6.08,17.7,17.7,0,0,0,1.67-1.33c4-3.2,8.72-4.87,13.59-6.15a49.2,49.2,0,0,1,14.5-1.6,48.4,48.4,0,0,1,22.83,6.25,23.32,23.32,0,0,1,2,1.52c1.88,1.7,4.19,2.84,6,4.63l1.25,1.22a42.93,42.93,0,0,1,5.64,7.67,27.64,27.64,0,0,1,3.36,10.8c.86,9.88-3,17.85-10,24.49a40.88,40.88,0,0,1-15,8.87,41.9,41.9,0,0,1-7.63,2,8.72,8.72,0,0,0-.38-3,.74.74,0,0,1-.27-.5c.13-1.79-.64-3.51-.42-5.3a1.65,1.65,0,0,1,.19-.84A1.11,1.11,0,0,0,69,80.84a2.22,2.22,0,0,1-.38-.71,13.58,13.58,0,0,1,0-3.82c.08-.32.34-.44.6-.58a.84.84,0,0,0,.52-.93c0-.64-.59-1-.73-1.62-.18-.74.28-1.37.35-2.06,0-.3,0-.61,0-.91s.47-.75.3-1.23-.27-.87-.31-1.33A24.86,24.86,0,0,0,69,63a1.52,1.52,0,0,0-.25-.68c-.16-.38-.11-.83-.4-1.17a7.17,7.17,0,0,0-1.18-2.66c-1.54-2.6-3.73-4.36-6.8-4.42-3.84-.06-6.52,1.73-8.05,5.46a7,7,0,0,0-.53,1.4,1.25,1.25,0,0,1-.11.39c-.12.29-.39.48-.48.79a3.29,3.29,0,0,0-.24.92c-.15.3-.12.67-.3,1-.43.71-.16,1.49-.22,2.24a4.76,4.76,0,0,1,0,1.41,1.67,1.67,0,0,1-.06.44c-.64.84.06,1.45.38,2.13a1.37,1.37,0,0,1,.07.45,8.79,8.79,0,0,1,0,2.61,3,3,0,0,1-.42.82.93.93,0,0,0,.27,1.57,1.14,1.14,0,0,1,.52.52,13.78,13.78,0,0,1,0,3.9,3.8,3.8,0,0,1-.38,1.07c-.35.55.1,1.11,0,1.67a9.15,9.15,0,0,1-.32,4.09c-.24.62.07,1.36-.34,2l-.07.43a3.53,3.53,0,0,0-.25,1.8c0,.85-.37.76-.88.65a56.44,56.44,0,0,1-6.77-1.85A43.47,43.47,0,0,1,31,84.21C23.76,78.9,18.68,72.1,17.34,63c-1.12-7.65,1-14.54,5.47-20.77A17.63,17.63,0,0,0,24.69,39.64Z"/><path class="cls-39" d="M86.46,32.25a5.41,5.41,0,0,1-1.77-1,45,45,0,0,0-15.2-5.59,51.88,51.88,0,0,0-15.24-.53,49,49,0,0,0-17.53,5.28,26.67,26.67,0,0,1-3.21,1.81c.83-.75.6-1.4-.08-2.16a5.16,5.16,0,0,1-1.16-2.84c-.36-2.8-.35-5.57,1.24-8.07.25-.39.46-.88,1-1a12.86,12.86,0,0,0,1.32,10.9c.28.46.55.73,1,.21A53.69,53.69,0,0,1,46.22,25a26.85,26.85,0,0,1,3.57-1,1,1,0,0,0,.93-1.18c-.11-5.19,1.07-10.18,2.42-15.14.07-.27.06-.67.56-.8-.11,1.47-.26,2.89-.32,4.32a49,49,0,0,0,.24,11.09c.1.56.32.8.89.73a49.12,49.12,0,0,1,11.17-.39,1.37,1.37,0,0,0,.29,0l.17.06a11.08,11.08,0,0,1,4.84.7,42,42,0,0,1,10,4.17c1,.62,2,1.07,3,0a10.14,10.14,0,0,0,1.18-5c0-.35,0-.7.07-1.06,1,2,.7,4.14.75,6.25a4.79,4.79,0,0,1-.17.75C85.22,29.89,85.08,31.21,86.46,32.25Z"/><path class="cls-40" d="M97.24,84.8a8.16,8.16,0,0,1,2.31.21c.72.2,1,.58.53,1.26a15.1,15.1,0,0,1-1.9,2.79,7.93,7.93,0,0,1-3.35-.4c-.28-.09-.69-.08-.74-.53Z"/><path class="cls-4" d="M13.35,59.17c.68,0,1.26.51,2,.4a21.73,21.73,0,0,0-.14,4.56c.48,3.11,1.27,6.17,1.76,9.28-.38,1,.15,1.92.13,2.88,0,.38.17.84-.21,1.1s-.8,0-1.17-.22a27.69,27.69,0,0,0-4.65-2c-1.31-.41-1.46-.69-1.52-2A26.2,26.2,0,0,1,12,60.59C12.32,60,12.5,59.26,13.35,59.17Z"/><path class="cls-41" d="M16.7,73.44c-.7-2.42-1-4.92-1.51-7.38a9.56,9.56,0,0,1,0-1.93c.62.45.43,1.19.57,1.78A50.63,50.63,0,0,0,23.58,83.2a48.27,48.27,0,0,0,7.14,8.48c.14.14.53.23.26.58l-.23-.11c-.94-.12-1.47-.89-2.19-1.34-.33-.21-.58-.52-.91-.72a25.9,25.9,0,0,1-5.43-5.68c-.12-.18-.34-.32-.27-.59l-1.47-2.14c-.54-.07-.72-.52-.94-.91a37.31,37.31,0,0,1-2.72-5.92A2.33,2.33,0,0,1,16.7,73.44Z"/><path class="cls-42" d="M51.25,105.06c-1.15.09-2-.58-3-1a21.64,21.64,0,0,1,0-3.6c0-.84.41-1.23,1.33-1a2,2,0,0,0,1.51.13l1.22,1.77a3,3,0,0,0,0,1.34A2.79,2.79,0,0,1,51.25,105.06Z"/><path class="cls-29" d="M29.24,108.48a23.17,23.17,0,0,0-.29,3l-4.15-2.4a4.86,4.86,0,0,0,.33-1.53A2.13,2.13,0,0,1,27,105.35a2.07,2.07,0,0,1,2.14,2C29.18,107.66,29.19,108,29.24,108.48Z"/><path class="cls-43" d="M27.84,89.92l2.91,2.23a8.11,8.11,0,0,0-1.75,2A24.24,24.24,0,0,1,26.86,92l-.2-.37A3.84,3.84,0,0,1,27.84,89.92Z"/><path class="cls-44" d="M65.79,101.84a1.52,1.52,0,0,0-1.09.3,6.78,6.78,0,0,1-2.63.85l-.07-.11a3.72,3.72,0,0,0,.7-2.46,3.53,3.53,0,0,0,.22-.72c.08-.26.15-.6.57-.42a1.62,1.62,0,0,1,.26.8c.21,1,.56,1.16,1.55.77a2.07,2.07,0,0,0,1-2.57,8.42,8.42,0,0,1-.48-1.47c0-.54.33-.76.85-.84a1.92,1.92,0,0,0,1.54-1.27,1.76,1.76,0,0,1,.07-.4c.37-1-.22-1.77-.76-2.52-.17-.53,0-.78.56-.63.24.07.42.16.56-.12a.18.18,0,0,1,.23,0c.07,3,.2,6.09-1.5,8.84A7.65,7.65,0,0,1,65.79,101.84Z"/><path class="cls-45" d="M68.87,91.05l-.17,0c-.27-.61-.68-.66-1.2-.29a3.47,3.47,0,0,1-.64.44,1.92,1.92,0,0,1-1.78-.66,11.9,11.9,0,0,1,.1-3.21c.21-.36.48-.22.73,0a1.87,1.87,0,0,1,.67.67,2.72,2.72,0,0,0,2.26,1.36Z"/><path class="cls-46" d="M68.84,89.28c-.87.55-1.45,0-2-.56a6.64,6.64,0,0,0-1.45-1.54,9.81,9.81,0,0,1-1.94-.84c-.93-.71-.95-.92-.12-1.33a4.46,4.46,0,0,1,2.93,1.76,3.65,3.65,0,0,0,3,1.73c.06.15.07.28-.09.37Z"/><path class="cls-47" d="M69.23,88.87l0-.29A7.23,7.23,0,0,0,68.43,86a8,8,0,0,1,.19-3,.53.53,0,0,1,.6-.26,59.76,59.76,0,0,1,.46,6.13Z"/><path class="cls-48" d="M57.78,102.92c-1.06.07-1.89-.58-2.82-.91a2.26,2.26,0,0,0-.92-.22,11,11,0,0,1-3-9c0-.25.09-.25.27-.16.36.43.25,1,.28,1.44s.3.51.34.82c0,.77.69.85,1.21,1s.85.14,1.11.54c.05.53-.33.89-.52,1.32a2.07,2.07,0,0,0,.76,3c.4.42.91.21,1.37.24s.7-.45,1.14-.24A21.57,21.57,0,0,1,57.78,102.92Z"/><path class="cls-49" d="M51.29,92.61l-.21.21a5.11,5.11,0,0,1,.21-3.36,3.72,3.72,0,0,0,2.09-1.61c.27-.38.58-.84,1.19-.53a1.13,1.13,0,0,1,.26,1.09,5.83,5.83,0,0,0,.07,2c-.36.72-1.08.65-1.71.78-.58-.12-.95-1.07-1.56-.63s-.14,1.14-.19,1.73a1.05,1.05,0,0,1,0,.19Z"/><path class="cls-50" d="M54.42,87.32c-.63.26-.94.84-1.33,1.34a1.6,1.6,0,0,1-1.8.8l-.57-.57a.17.17,0,0,1,0-.26c1.41-.08,2.16-1.15,3-2A4.69,4.69,0,0,1,56.59,85c.33,0,.61.14.6.49,0,.51-.47.65-.84.83C55.64,86.53,55.16,87.18,54.42,87.32Z"/><path class="cls-26" d="M50.74,88.72a.88.88,0,0,0,0,.17c-.19,0-.39-.14-.57,0q.21-3.11.44-6.21a.78.78,0,0,1,.89.44,1.28,1.28,0,0,1,.1.47,8.32,8.32,0,0,1,0,2.44A6.16,6.16,0,0,0,50.74,88.72Z"/><path class="cls-51" d="M57.78,102.92a2.34,2.34,0,0,1-.85-2.1c-.43-.57.16-1,.16-1.55a3.16,3.16,0,0,1,.28-.72c.33-.46.56-1.07,1.33-.9.1.09.22.2.19.32a13.61,13.61,0,0,0,.16,4,1.17,1.17,0,0,1-.29,1,1,1,0,0,1-.83,0A.47.47,0,0,0,57.78,102.92Z"/><path class="cls-52" d="M57.93,103l.82,0c.61-.43.29-1.21.65-1.73a1,1,0,0,1,1.08-.08,1.2,1.2,0,0,1,.13.83c0,.53.24.77.77.7a.75.75,0,0,1,.66.26l0,0A6.45,6.45,0,0,1,57.93,103Z"/><path class="cls-53" d="M25.24,19.56c-.06.43-.14.86-.23,1.29a21.75,21.75,0,0,1-7,12c-.15.13-.28.37-.7.25a31,31,0,0,0,2.11-4.34,33,33,0,0,0,2.37-7.15l.39-.22,2.69-1.55Z"/><path class="cls-54" d="M12.71,38.31a16,16,0,0,1-5,4.49,45.38,45.38,0,0,1-4.6,2.49L3,45.34v-2.6c.55-.27,1.1-.55,1.66-.79,2.48-1.08,4.92-2.29,7.38-3.43A5,5,0,0,1,12.71,38.31Z"/><path class="cls-2" d="M15.5,93.71a61,61,0,0,0-.07,8.76c0,.39,0,.78,0,1.17l-.38-.22-3.52-2a17,17,0,0,1-8.1-11v0c-.07-.26-.12-.52-.17-.78h0c.28-1.27.6-2.53.91-3.79.38-1.57.8-3.13,1.2-4.7l.29,0a16.12,16.12,0,0,1,6.56,1.67c1.57.85,3.07,1.82,4.56,2.82a2.5,2.5,0,0,1,.81.74,1.63,1.63,0,0,1,.11.23A25.43,25.43,0,0,0,15.5,93.71Z"/><path class="cls-3" d="M17.7,86.57c-1-.64-2-1.27-3-1.94a15.46,15.46,0,0,0-8.89-3.12c-.38,0-.45-.12-.44-.42.61-2.56,1.61-5,2.36-7.5a81.91,81.91,0,0,0,2.79-10.8,43.52,43.52,0,0,0,.13-4.57c.89.34,1.94.23,2.7,1-1.46,1.81-2,4-2.7,6.17a27.87,27.87,0,0,0-.81,8.39.86.86,0,0,0,.67.93,26.76,26.76,0,0,1,6,2.6c.05,0,.13,0,.25,0-.1-.9-.22-1.79-.29-2.69,0-.37-.14-.78.18-1.12a32.55,32.55,0,0,0,3.78,8.24c-.14.82-.9,1.32-1.08,2.12a3.84,3.84,0,0,1-1.33,2.37Z"/><path class="cls-55" d="M21.5,99.09c-.54,2.2-1.17,4.37-1.85,6.53a2.46,2.46,0,0,1-.14.38l-.27-.16-2.39-1.38-.27-.15c.08-2.8-.08-5.6-.09-8.4a28.86,28.86,0,0,1,1.45-8.1,6.49,6.49,0,0,0,.13-1.64h0a10.27,10.27,0,0,1,1.3-2.33l0,0c.38,0,.53.21.72.52.94,1.56,1.53,3.3,2.52,4.83a2,2,0,0,1,.12.85A30.07,30.07,0,0,1,21.5,99.09Z"/><path class="cls-56" d="M6.19,72.43a5.49,5.49,0,0,1-.78,2.4A55,55,0,0,0,3,81V78A63.12,63.12,0,0,1,6.19,72.43Z"/><path class="cls-57" d="M27.84,89.92a3,3,0,0,1-1.18,1.73c-1.59-2.39-3.44-4.6-4.66-7.22-.09-.19-.28-.39-.05-.61A43,43,0,0,0,27.84,89.92Z"/><path class="cls-58" d="M40.79,17.37a.75.75,0,0,1,.7.83c0,.43-1.24,1.49-1.7,1.43a.87.87,0,0,1-.79-.95C39,18.14,40,17.34,40.79,17.37Z"/><path class="cls-59" d="M56.38,7.23c-.24.54-.23,1.41-1,1.44-.6,0-.56-.66-.56-1.15s.24-1.14.88-1.21S56.35,6.72,56.38,7.23Z"/><path class="cls-60" d="M43.52,17.37c-.36,0-.62-.14-.59-.49a.72.72,0,0,1,.71-.67c.32,0,.6.14.56.5A.73.73,0,0,1,43.52,17.37Z"/><path class="cls-61" d="M43.21,20.17a.94.94,0,0,1-.66.65c-.26.06-.43-.16-.41-.41a.65.65,0,0,1,.62-.64C43,19.74,43.18,19.88,43.21,20.17Z"/><path class="cls-62" d="M57,11.4c-.06.23-.15.46-.43.43a.35.35,0,0,1-.3-.43.42.42,0,0,1,.44-.43C56.91,11,57,11.19,57,11.4Z"/><path class="cls-63" d="M6.73,57.94c0,.85-.57,1.48-1.4,1.37s-.5.35-.56.67a.37.37,0,0,1,0-.11,1.14,1.14,0,0,1-.15-.34A6.36,6.36,0,0,0,4,57.83a.16.16,0,0,0,0-.07,3.4,3.4,0,0,0-1-1.17v-3a2.08,2.08,0,0,1,2.22.9A4.89,4.89,0,0,1,6.73,57.94Z"/><path class="cls-64" d="M4.28,67.22A11.86,11.86,0,0,1,3,69.09V67c.43-.91.84-1.83,1.19-2.77.07-.16.13-.33.19-.5A4,4,0,0,1,4.28,67.22Z"/><path class="cls-31" d="M83.9,27.56c-.14.22-.28.43-.41.66-.39.65-.78.71-1.49.29a44.92,44.92,0,0,0-14.54-5.63c-.44-.08-.92.1-1.32-.19.52-.1.41-.52.4-.85a68.25,68.25,0,0,0-.67-7.56A33.64,33.64,0,0,0,64,6.45,9.77,9.77,0,0,1,66,8.4a16,16,0,0,0,6,3.93,33.65,33.65,0,0,1,9.48,5.87,7.64,7.64,0,0,1,2.28,5.4A21,21,0,0,0,83.9,27.56Z"/><path class="cls-65" d="M60.09,27.16a25.44,25.44,0,0,1,9.12,1.31,9.4,9.4,0,0,1,2.16,1.11c.37.25.57.52.13.92a13.68,13.68,0,0,0-3.64,6c-.82,2.33-4.68,4.87-7.15,4.89-2.16,0-4.28,0-6.23-1.2a7.72,7.72,0,0,1-2.82-2.77c-1.2-2-2.26-4.17-4.11-5.77-.79-.69-.08-1.19.37-1.58A10.12,10.12,0,0,1,52.26,28c1.13-.28,2.3-.43,3.45-.63A27.87,27.87,0,0,1,60.09,27.16Z"/><path class="cls-66" d="M79,66.69a3.18,3.18,0,0,1-.79-1.87c-.66-2.6-.43-5.24-.4-7.86a47.28,47.28,0,0,1,1.29-9.24.32.32,0,0,1,.26-.25,21.15,21.15,0,0,1,4.75-5.82,7.32,7.32,0,0,1,2.32-1.39c.26-.09,0-.17,0-.25a8.76,8.76,0,0,1,8.33,3.53,2,2,0,0,0,1.06.79,20.51,20.51,0,0,1,.44,4.06c-.12,1.61-.15,3.22-.38,4.83-.06.37-.14.81-.51.85s-.39-.48-.52-.77c0-1.34.1-2.68,0-4,0-.25,0-.51-.08-.77a5.31,5.31,0,0,0-5.69-4.82,7.64,7.64,0,0,1-1.07,0c-2.54-.21-4.34,1.11-5.89,2.87-2.3,2.63-3.18,5.83-3.55,9.21a18,18,0,0,0,.46,7.58,2.18,2.18,0,0,0,2.36,1.75,9.85,9.85,0,0,0,2-.13,11.89,11.89,0,0,0,7.11-3.45c.38-.35.65-1,1.34-.74.18.41-.06.7-.3.95a15.3,15.3,0,0,1-11,5.21A5,5,0,0,1,79,66.69Z"/><path class="cls-67" d="M40.75,67a7,7,0,0,1-7.63,3.76c-5.35-1.11-8.58-4.69-10.68-9.42a23,23,0,0,1-2-10.15,4.42,4.42,0,0,1,.4-1.78,27.59,27.59,0,0,0,.36,5.72,13.4,13.4,0,0,0,3.59,6.69c.16.17.32.36.58.16.67-.1,1,.47,1.31.84a15.48,15.48,0,0,0,6,3.77A11.44,11.44,0,0,0,40,67C40.27,66.92,40.51,66.81,40.75,67Z"/><path class="cls-68" d="M95,61.62c1.1-.38,1.58-1.38,2.1-2.26a15.67,15.67,0,0,0,2.07-7.92c0-.51,0-1,0-1.67.51,1.31.59,2.32.17,4.92a23.55,23.55,0,0,1-3.2,9.22c-2.31,3.57-5.29,6.21-9.67,6.92A7.13,7.13,0,0,1,79.2,67a3.56,3.56,0,0,1,2.52.15c1.67.54,3.18,0,4.67-.37a15.05,15.05,0,0,0,8-5C94.55,61.61,94.7,61.28,95,61.62Z"/><path class="cls-69" d="M40.75,67a11.75,11.75,0,0,1-9.35-.52A16,16,0,0,1,25.33,62c-3.68-4.11-4.26-9.05-3.67-14.24a4.76,4.76,0,0,1,1.85-3.24.83.83,0,0,1,.43-.17c.88-.3.82.33.69.78-.57,1.94-.34,3.92-.39,5.88a7.92,7.92,0,0,0,.57,2.66.72.72,0,0,1,.37.54,14.93,14.93,0,0,0,3.32,6.53,2.29,2.29,0,0,1,.3.5c.29,1,1.21,1.42,1.92,2a16.24,16.24,0,0,0,6.11,2.93,7.46,7.46,0,0,0,3.29,0c.71-.14.82.15.63.74A.12.12,0,0,1,40.75,67Z"/><path class="cls-70" d="M95,61.62A15.9,15.9,0,0,1,89.54,66a26.66,26.66,0,0,1-4.41,1.51c-1.69.48-3.24-.12-4.86-.11-.41,0-.63-.48-1.07-.36a.31.31,0,0,1-.16-.35c0-.15,0-.39.25-.33,3.53.94,6.41-.69,9.28-2.33a12.15,12.15,0,0,0,2.92-2.53c.22-.24.47-.45.44-.82-.22-.49.15-.79.37-1.12A15,15,0,0,0,94.79,54c0-.26,0-.62.46-.6l.09.66a2.66,2.66,0,0,0,.46-1.73,24.56,24.56,0,0,0,0-6.41c-.06-.28-.2-.54-.29-.82s-.12-.65.35-.72C97.49,45,98,46.44,98.23,48a20.28,20.28,0,0,1,0,5.77,15.64,15.64,0,0,1-3,7.35C95.17,61.29,95.11,61.46,95,61.62Z"/><path class="cls-17" d="M72.76,50.44a34.37,34.37,0,0,1,.09-7.1,28,28,0,0,1,1.73-8,3.05,3.05,0,0,1,2.78-2,2.2,2.2,0,0,1,2.28,1.5,3,3,0,0,1-.49,3C76.48,41.85,74,45.83,72.76,50.44Z"/><path class="cls-71" d="M47.22,50.45C46,45.91,43.52,42.06,41,38.24a4.17,4.17,0,0,1-.85-2.53,2.27,2.27,0,0,1,1.46-2.12,2.46,2.46,0,0,1,2.49.3c1.48,1,1.73,2.68,2.11,4.24a38.33,38.33,0,0,1,1,10.35C47.2,49.13,47.22,49.79,47.22,50.45Z"/><path class="cls-72" d="M24.73,53.74l-.08.55-.17,0c-.18-1.08-.45-2.15-.53-3.24-.09-1.41,0-2.84,0-4.26a7.4,7.4,0,0,1,.45-1.87c.09-.43,0-.61-.43-.6A5.87,5.87,0,0,0,25.51,43a8.63,8.63,0,0,1,7.78-3,.16.16,0,0,1-.22.11c0,.05,0,.07.12.09a6.6,6.6,0,0,1,3.13,1.86,22.81,22.81,0,0,1,3.47,4.18c.14.21.15.63.59.5a10,10,0,0,1,.78,3.37c0,.46.43,1-.16,1.35-.66,0-.76-.54-.93-1a14.25,14.25,0,0,0-2.66-4.27,8,8,0,0,0-4.76-2.64A7.43,7.43,0,0,0,26,45.85a4.08,4.08,0,0,0-.87,2.23c-.12.63-.21,1.27-.28,1.92A14.07,14.07,0,0,0,25,52.67,1.08,1.08,0,0,1,24.73,53.74Z"/><path class="cls-32" d="M52.28,42.61c0,.39,0,.58,0,.78,0,1.11-.46,1.76-1.27,1.92A1.91,1.91,0,0,1,49,43.89a19.93,19.93,0,0,1-.53-3.15,34.4,34.4,0,0,0-2.34-7,3.4,3.4,0,0,1-.26-.82.86.86,0,0,1,.37-.94c.36-.21.53.16.74.32a13.52,13.52,0,0,1,4.36,6.07A9.75,9.75,0,0,1,52.28,42.61Z"/><path class="cls-65" d="M67.91,42a18.22,18.22,0,0,1,2.71-9.51A19.58,19.58,0,0,1,72,30.83c.32-.38.58-.23.74.12A2.39,2.39,0,0,1,73,32.56,75.85,75.85,0,0,0,71.2,42.82c-.12,1.08-1,1.94-1.83,1.84a2.11,2.11,0,0,1-1.46-2.16Z"/><path class="cls-65" d="M67.2,55.9C62.41,52,57.83,52,53,55.63a6.75,6.75,0,0,1,1.11-2.46c1.51-2.66,4.18-4.64,7.57-3.75A6.91,6.91,0,0,1,65,51.93,15.38,15.38,0,0,1,67.2,55.9Z"/><path class="cls-73" d="M51.53,61c-.16-.56.3-.93.45-1.39a10.09,10.09,0,0,1,4.56-4.06c4.21-2,8.63.19,10.7,3.07A6.35,6.35,0,0,1,68.39,61a.29.29,0,0,1-.16.21c-1.1-.47-1.83.37-2.69.77-.79-.63-1.39-1.34-1-2.46a.67.67,0,0,0-.09-.55c-.22-.44-.18-1.07-.88-1.12a2.17,2.17,0,0,0-2.05.41c-.22.14-.34.44-.67.41a2.7,2.7,0,0,0-1.73-.08.93.93,0,0,1-.41-.06,2.41,2.41,0,0,0-2.44-.65c-.69.11-.74.69-.86,1.21a1.78,1.78,0,0,0,0,.86c.14,1-.11,1.43-1.09,1.88A6.07,6.07,0,0,0,51.53,61Z"/><path class="cls-74" d="M43.46,71.49a2.84,2.84,0,0,1-2.14,2.45,13,13,0,0,1-6.06.79.42.42,0,0,1-.38-.25,20.89,20.89,0,0,1-3.71-1.21,22.46,22.46,0,0,1-7-5.92c-.51-.62-1-1.26-1.49-1.91a7.48,7.48,0,0,1-1.52-2.67,8.14,8.14,0,0,1-1.06-2.59l.21-.12,1.26,2.27A27.59,27.59,0,0,0,26.32,68c.75.64,1.56,1.2,2.33,1.79a.79.79,0,0,0,.43.5,16.42,16.42,0,0,0,6.41,2.44,6.64,6.64,0,0,0,4.22-.62c1-.47,2.22-.56,3.25-1.11C43.43,70.71,43.48,71.15,43.46,71.49Z"/><path class="cls-74" d="M43.38,78.65a1.89,1.89,0,0,1-.27.9c-.58,1.35-1.87,1.81-3.08,2.22a8.71,8.71,0,0,1-4,.51,29.78,29.78,0,0,1-3.21-.52,16.65,16.65,0,0,1-7-4.8c-.63-.73-1.36-1.36-2-2.11a13.69,13.69,0,0,1-2.25-3.71,4.53,4.53,0,0,1-.79-2.2,3.3,3.3,0,0,1,1,1.58A23.38,23.38,0,0,0,28,77.23,6.22,6.22,0,0,0,29,78c2.95,2.13,6.14,3.11,9.76,2,.24-.07.5-.13.74-.21,0,0,.3.09.1-.12a.83.83,0,0,1-.14-.13,17.84,17.84,0,0,0,3.15-1.18C43.13,77.91,43.37,78,43.38,78.65Z"/><path class="cls-65" d="M61.12,48.06c-1.33-.07-2.63-.13-3.93-.22a1.74,1.74,0,0,1-1.47-1.12c-.3-.63.16-1,.51-1.34a4.93,4.93,0,0,1,4.67-1.29c1,.23,2.14.35,2.85,1.33A1.52,1.52,0,0,1,63,47.9,5.55,5.55,0,0,1,61.12,48.06Z"/><path class="cls-75" d="M78.1,81.64c3.42,2,6.85,1.79,10.29.44,3.25-1.28,5.59-3.74,7.86-6.26.17-.19.28-.45.69-.56a24.82,24.82,0,0,1-3.12,4A17.57,17.57,0,0,1,87.65,84C84.5,85.33,80,84.87,78.1,81.64Z"/><path class="cls-76" d="M96.43,67.64a11.29,11.29,0,0,1-1.7,2.44,20.7,20.7,0,0,1-7,6,8.31,8.31,0,0,1-9.23-.93,3.26,3.26,0,0,1-.75-1A11.92,11.92,0,0,0,90,73.29a13.05,13.05,0,0,0,2.9-2.09c.37-.34.9-.56,1-1.16l-.67.49a3.2,3.2,0,0,0,.41-.54,1.1,1.1,0,0,1,.45-.48l.28-.16a2.71,2.71,0,0,0-.17.39A4.32,4.32,0,0,0,95.89,68h0Z"/><path class="cls-75" d="M28.56,80.33c3.18,2.82,9.6,3.86,13.19,1.3-.63,1.49-3,2.83-4.85,3-3.26.32-5.92-1-8.3-3a29.3,29.3,0,0,1-5.24-5.76c-.07-.1-.19-.19-.05-.41a42,42,0,0,0,3.18,3.22A4.42,4.42,0,0,1,28.56,80.33Z"/><path class="cls-76" d="M28.2,72.13c3.77,3.36,10,4.44,14.18,1.72A5.91,5.91,0,0,1,40.2,76,8.37,8.37,0,0,1,32,76c-3.23-1.57-5.48-4.23-7.68-7-.16-.2-.56-.44-.18-.8.12,0,0,0,.08,0A48.67,48.67,0,0,1,28.2,72.13Z"/><path class="cls-77" d="M44.24,48.9A21.31,21.31,0,0,0,42,44.23,14.55,14.55,0,0,0,36,39.15,8.56,8.56,0,0,0,30,38.89a1.05,1.05,0,0,1-.89.06c2.3-1.49,4.66-2.2,7.23-1.28a11.26,11.26,0,0,1,6.76,7c.54,1.37.95,2.78,1.41,4.17Z"/><path class="cls-78" d="M91,39.11a9.35,9.35,0,0,0-7.84.39,15.08,15.08,0,0,0-6.82,7.85,9.56,9.56,0,0,1-.71,1.48,23.69,23.69,0,0,1,1.58-5,11.5,11.5,0,0,1,5.86-6C85.91,36.61,88.53,37.43,91,39.11Z"/><path class="cls-79" d="M40.74,51.38c.69-.24.25-.85.42-1.26.46.47.27,1.09.38,1.64.16.78.2,1.58.34,2.37a55,55,0,0,1,.26,7.26,17.18,17.18,0,0,1-.64,4.1,10.16,10.16,0,0,1-.75,1.42c-.1-.18.14-.66-.33-.52a8.8,8.8,0,0,1-6.09-.75,17.53,17.53,0,0,1-5.28-3.43c-.25-.22-.61-.42-.43-.87.6-.13.85.36,1.19.67a11.45,11.45,0,0,0,6.37,3,10.5,10.5,0,0,0,2.24.14,2.28,2.28,0,0,0,2.41-1.85,8,8,0,0,0,.36-3.18,22.75,22.75,0,0,0-.53-7.31C40.57,52.3,40.35,51.82,40.74,51.38Z"/><path class="cls-80" d="M48.89,87.84c-.86-7.09-.38-14-.26-21C49.68,68.81,49.91,85.9,48.89,87.84Z"/><path class="cls-80" d="M70.9,87.89A93.18,93.18,0,0,1,71.06,67,118.05,118.05,0,0,1,70.9,87.89Z"/><path class="cls-81" d="M79.69,43.73a40.67,40.67,0,0,0-2.1,8.76,54.36,54.36,0,0,0-.51,7,8.55,8.55,0,0,1,0,.88c0,.17-.06.34-.26.35s-.25-.16-.3-.32a11,11,0,0,1-.33-2.9,24.16,24.16,0,0,1,1.76-11A9.11,9.11,0,0,1,79.69,43.73Z"/><path class="cls-34" d="M40.45,43.81a13,13,0,0,1,2.18,4.24,26.58,26.58,0,0,1,.85,12c0,.25,0,.63-.31.62s-.26-.39-.27-.63a73.76,73.76,0,0,0-.63-8.15,33.16,33.16,0,0,0-1.91-7.53c0-.14-.09-.29-.14-.44Z"/><path class="cls-82" d="M86.51,40l.77.11c-3.48,1.44-5.48,4.19-7.42,7-.11.15-.11.5-.46.36.17-2.82,2-4.62,4-6.24A4.92,4.92,0,0,1,86.51,40Z"/><path class="cls-83" d="M39.5,79.49c.16,0,.4,0,.45.12s-.11.27-.25.33a9.64,9.64,0,0,1-2,.71,11.6,11.6,0,0,1-8.29-2.06c-.18-.12-.6-.23-.36-.64,1.28.36,2.46,1,3.79,1.27a20.88,20.88,0,0,0,4.24.31C37.88,79.55,38.69,79.51,39.5,79.49Z"/><path class="cls-84" d="M39.71,72.06c.38.37,0,.38-.22.48a8.13,8.13,0,0,1-5.33.23,17.19,17.19,0,0,1-5.23-2.25c-.52-.34-.57-.42-.28-.78,1.11.46,2.23.9,3.32,1.39a4.48,4.48,0,0,0,.93.22c.37.25.83.13,1.21.33A36.18,36.18,0,0,0,39.71,72.06Z"/><path class="cls-85" d="M91.64,69.93c-3.1,2.21-6.41,3.7-10.35,2.93a1.82,1.82,0,0,1-1.45-.77l-.32-.2-.32-.16h5.74a14.26,14.26,0,0,0,6.53-2.22,1.65,1.65,0,0,1,.44-.16A.57.57,0,0,1,91.64,69.93Z"/><path class="cls-86" d="M75.15,58.19c.18,1.63.44,3.23.74,4.84a32.65,32.65,0,0,0,1,4.36c.07.23.26.5,0,.7s-.53-.08-.75-.25A4.11,4.11,0,0,1,74.8,64.6,23.81,23.81,0,0,1,75.15,58.19Z"/><path class="cls-87" d="M40.38,46.75l-.1.77A31.28,31.28,0,0,0,37,43.13a11.08,11.08,0,0,0-4.41-3l.73-.11c2.28,0,3.71,1.48,5.12,3A7.44,7.44,0,0,1,40.38,46.75Z"/><path class="cls-88" d="M90.91,77.93c.15.1.27.23.08.38-2.56,1.94-7.53,3.4-10.72,1.65-.21-.11-.43-.17-.42-.46.39-.3.78-.09,1.17,0a45.27,45.27,0,0,0,4.66,0c.51-.2,1.08-.13,1.59-.33C88.59,79.06,89.69,78.32,90.91,77.93Z"/><path class="cls-89" d="M44.72,58.38a.39.39,0,0,1,.3.44c0,2.3,0,4.6,0,6.9A3.32,3.32,0,0,1,43.64,68a.38.38,0,0,1-.52.08c-.19-.13-.18-.32-.11-.52a27,27,0,0,0,1-4.53C44.3,61.49,44.5,60,44.72,58.38Z"/><path class="cls-90" d="M51.53,61a2.12,2.12,0,0,1,2.71.7c.4.1.56.44.75.74s.29.47.42.71a5.12,5.12,0,0,1,.45,1.37c0,.54-.15,1.07-.84.64a12.16,12.16,0,0,1-3.3-2.62c-.3-.37-.53-.75-.26-1.23Z"/><path class="cls-91" d="M50.94,80.37l0-4.35a.46.46,0,0,1,.3-.13h.09c2.3.28,2.94,1.33,2.24,3.63A5.55,5.55,0,0,1,50.94,80.37Z"/><path class="cls-92" d="M68.93,76v4.32a4.56,4.56,0,0,1-2.67-.87,9.53,9.53,0,0,1,0-2.2A1.11,1.11,0,0,1,67.37,76c.42,0,.83-.13,1.24-.16A.55.55,0,0,1,68.93,76Z"/><path class="cls-93" d="M22.67,65.44a14.05,14.05,0,0,1,2.43,2.62c2.12,2.23,4.33,4.31,7.27,5.42a14.68,14.68,0,0,0,2.6.78.1.1,0,0,1,.08,0c0,.14-.09.14-.17.18-2.29.08-4.13-1-5.94-2.22a1.3,1.3,0,0,0-.34-.15,16,16,0,0,1-4.26-4C24,67.15,23,66.52,22.67,65.44Z"/><path class="cls-94" d="M69.18,62.7a14.11,14.11,0,0,1,.45,5.09,6.08,6.08,0,0,1-2.2-.2,2.66,2.66,0,0,1,.19-2.91,10.54,10.54,0,0,0,.79-1.44C68.58,62.94,68.69,62.54,69.18,62.7Z"/><path class="cls-95" d="M83.91,82.29c.93-.49,2-.36,3-.71a19.47,19.47,0,0,0,8.27-6.07c.31-.37.53-.9,1.13-.91a15.24,15.24,0,0,1-3.88,4.5,14.56,14.56,0,0,1-5.6,3A8,8,0,0,1,83.91,82.29Z"/><path class="cls-93" d="M94.2,69.74c-.25,0-.35.05-.3.3a14.9,14.9,0,0,1-4.32,3.2c-1,.21-1.87.86-2.91,1a8.38,8.38,0,0,1-1.41.19.63.63,0,0,1-.19,0c-.17-.06-.19-.15,0-.19,4.87-1,8.16-4.26,11.19-7.88.38-.46.8-.88,1.2-1.32-.23,1.1-1.16,1.77-1.63,2.72A19.24,19.24,0,0,1,94.2,69.74Z"/><path class="cls-96" d="M23.81,74.85c.43-.09.55.29.76.5a24.43,24.43,0,0,0,6.1,5.18,13.56,13.56,0,0,0,4.67,1.52c.25,0,.52,0,.7.23a9.92,9.92,0,0,1-6.68-1.86A1.8,1.8,0,0,0,29,80.3a5,5,0,0,1-2.35-1.92A14.26,14.26,0,0,1,23.81,74.85Z"/><path class="cls-97" d="M50.49,63.88a1.78,1.78,0,0,1,.27-1c.05-.05.12-.1.16-.08,1.12.53,2.13,3.37,1.59,4.45a.76.76,0,0,1-.19.21,5,5,0,0,1-2.1.35l-.08-1.59c.29-.43.14-.92.18-1.38S50.26,64.18,50.49,63.88Z"/><path class="cls-98" d="M67.53,67.52a2.54,2.54,0,0,1,2.1.27A2.77,2.77,0,0,1,70,69a1,1,0,0,1-1.07.65c-1.25-.11-2.5-.29-3.76-.33a.5.5,0,0,1-.57-.4c.25-1.13,1.23-1.28,2.11-1.56A1.09,1.09,0,0,1,67.53,67.52Z"/><path class="cls-99" d="M50.22,67.85c.6-.55,1.34-.41,2-.44a1.62,1.62,0,0,1,.9,0,3.58,3.58,0,0,1,1.51.58c.36.29.78.59.55,1.18a34,34,0,0,1-4.5.46c-.72,0-.86-.38-.63-1.45Z"/><path class="cls-100" d="M50.94,80.37a4.79,4.79,0,0,1,2.5-.86.94.94,0,0,1,.93-.25,2.42,2.42,0,0,1,1.32.54c.25.23.57.51.09.84a4,4,0,0,0-2.76.85,3.73,3.73,0,0,1-1.49.64c-.87.11-1.12-.14-1.05-1.06A1,1,0,0,1,50.94,80.37Z"/><path class="cls-100" d="M69.26,73.31c.4.44,1,.79.8,1.53a1.1,1.1,0,0,1-1.28.48,19.71,19.71,0,0,0-3.83-.6c-.16,0-.26-.17-.3-.34.08-.74.72-.88,1.23-1.15.37,0,.71-.25,1.09-.28C67.78,72.77,68.61,72.45,69.26,73.31Z"/><path class="cls-101" d="M66.35,79.52a4.91,4.91,0,0,1,2.57.81.56.56,0,0,1,.36.37c.09.42.52.88.1,1.25a1.44,1.44,0,0,1-1.57,0,20.57,20.57,0,0,0-2.35-1.17c-.21-.06-.38-.23-.63-.21-.86.09-.81-.3-.44-.85a1.28,1.28,0,0,1,.72-.37C65.53,79.36,66,79.12,66.35,79.52Z"/><path class="cls-102" d="M50.07,74a.8.8,0,0,1,.5-.62c.63-.84,1.47-.67,2.31-.47a5.45,5.45,0,0,1,1,.29c.59.3,1.39.41,1.32,1.35-.39.38-.87.13-1.31.18-1,.11-1.9.44-2.86.55S49.71,75,50.07,74Z"/><path class="cls-103" d="M68.58,61.17c.42.27.25.71.31,1.09a2.82,2.82,0,0,1-1.83,2.3,2.75,2.75,0,0,0-1,.72c-.28.26-.58.5-.87.76s-.62.49-1,.24a1,1,0,0,1-.4-1,1.22,1.22,0,0,1,.47-1c.42.67.72.11,1-.11a8.3,8.3,0,0,0,3.09-2.88.78.78,0,0,0,0-.14A.15.15,0,0,1,68.58,61.17Z"/><path class="cls-104" d="M66.92,73.24l-.91.21a4.52,4.52,0,0,1,.46-3.79,4.81,4.81,0,0,1,3.12.44v1c-.2.2-.34,0-.5-.06a1.11,1.11,0,0,0-1.49.91C67.45,72.41,67.48,73,66.92,73.24Z"/><path class="cls-105" d="M52.88,73.2a3.46,3.46,0,0,0-2.31.2l-.06-2.89C52.59,70.23,53.6,71.37,52.88,73.2Z"/><path class="cls-106" d="M66.92,73.24a4.69,4.69,0,0,0,.38-1.47,1.3,1.3,0,0,1,2.28-.68c.18.78-.41,1.45-.32,2.22A3.82,3.82,0,0,0,66.92,73.24Z"/><path class="cls-107" d="M53.07,67.58a1,1,0,0,1-.81-.17C53,66,52,64.93,51.41,63.8c-.15-.31-.18-.79-.65-.88-.17-.4.17-.68.23-1a7.43,7.43,0,0,0,2.95,2.61c.21.08.26.35.21.6a4.35,4.35,0,0,0-.65,1.78A.79.79,0,0,1,53.07,67.58Z"/><path class="cls-108" d="M54.05,65c0-.41-.44-.49-.71-.57A3.34,3.34,0,0,1,51,61.89a1,1,0,0,1,.47-.59c.18,1.22,1.23,1.76,2,2.46a21.17,21.17,0,0,0,2,1.38l.11-.67c.63.17.62.67.58,1.16a.76.76,0,0,1-.56.72c-.5.13-.78-.22-1.06-.53A1.66,1.66,0,0,1,54.05,65Z"/><path class="cls-109" d="M52.88,73.2a4.24,4.24,0,0,1-.16-.85c0-1.21-.49-1.82-1.76-1.66-.14,0-.3-.12-.45-.18l0-.37a3.82,3.82,0,0,1,3-.46,4.81,4.81,0,0,1,.37,3.75Z"/><path class="cls-110" d="M65.91,65.05c0-.37.34-.48.58-.56a3.57,3.57,0,0,0,2.4-2.23c.15.11.37.18.29.44-.87.84-1.09,2.07-1.77,3-.27.38.06,1.17.12,1.78l-.72.08A6.14,6.14,0,0,1,65.91,65.05Z"/><path class="cls-111" d="M53.44,69.76c-1-.07-1.93.63-3,.38-.58-.57-1.1-1.15-.39-2,.07,1.27.06,1.22,1.36,1.06s2.52-.2,3.78-.3c.45,0,.58.33.53.73a.63.63,0,0,1-.7.52A2.24,2.24,0,0,1,53.44,69.76Z"/><path class="cls-112" d="M64.57,79.9c0,.19-.39.5-.09.49a6.28,6.28,0,0,1,3.27,1.24,1.53,1.53,0,0,0,1.48.14c.38-.19-.07-.7,0-1.07.7.71.32,1.38-.06,2.06l-.39.28c-.75.48-1.22-.1-1.7-.49a4.64,4.64,0,0,0-2-1.22,3.09,3.09,0,0,1-1-.46.55.55,0,0,1-.23-.68C64,79.89,64.22,79.71,64.57,79.9Z"/><path class="cls-113" d="M50.07,74c-.08,1,.1,1.21,1,1a19.24,19.24,0,0,1,4.13-.6.49.49,0,0,1,.49.58c0,.36-.32.45-.62.5s-.7,0-1,0c-1-.07-2,.49-3,.54H50.9C49.75,75.84,49.4,75,50.07,74Z"/><path class="cls-114" d="M69.59,70.1c-1.08.38-2-.44-3.08-.32a2.52,2.52,0,0,1-1.65.4.68.68,0,0,1-.77-.58c0-.44.11-.83.69-.79a19.73,19.73,0,0,0,3.34.36c.65.06,1.33.41,1.92-.19C70.22,69.49,69.78,69.74,69.59,70.1Z"/><path class="cls-115" d="M64.77,74.27c1.79,0,3.45,1.06,5.29.57.07.82-.26,1.26-1.13,1.17l-.17,0c-1,0-1.88-.51-2.86-.5a11.14,11.14,0,0,1-1.16,0,.62.62,0,0,1-.53-.61C64.22,74.49,64.31,74.19,64.77,74.27Z"/><path class="cls-116" d="M50.48,81.07c.16.83.57,1,1.44.67s1.4-.78,2.13-1.13a2.08,2.08,0,0,1,1.75-.1c-.12.74-.81.59-1.27.81a9,9,0,0,0-2,1.36c-.37.31-.74.68-1.3.4l-.65-.39C50.53,82.15,50,81.65,50.48,81.07Z"/><path class="cls-117" d="M82.8,33.38c.64.1,1.08.36,1.1,1s-.44.79-.92.77-1.14-.27-1.15-.94S82.38,33.49,82.8,33.38Z"/><path class="cls-118" d="M38.13,34.21a1.33,1.33,0,0,1-1.27.91.74.74,0,0,1-.81-.87c.05-.66.55-.83,1.11-.83A1,1,0,0,1,38.13,34.21Z"/><path class="cls-119" d="M78.14,31.43c.53,0,1,.13,1.08.73s-.52.65-1,.67-1.06-.1-1.08-.72S77.63,31.41,78.14,31.43Z"/><path class="cls-120" d="M41.68,32.83c-.5,0-1-.06-1-.57s.53-.83,1.11-.83,1,.07.93.7S42.11,32.79,41.68,32.83Z"/><path class="cls-121" d="M24.34,68.16c1.16.82,1.95,2,3.06,2.91.41.32,1,.51,1.2,1l-.4,0a17.86,17.86,0,0,1-4.07-3.93Z"/><path class="cls-122" d="M26.66,78.38,29,80.3l-.45,0a7.87,7.87,0,0,1-2.07-1.6C26.55,78.62,26.6,78.5,26.66,78.38Z"/><path class="cls-123" d="M68.59,61.17l-.23-.05a11.7,11.7,0,0,0-1.2-2.3,11,11,0,0,0-5.08-3.44A8.12,8.12,0,0,0,54.67,57a9.34,9.34,0,0,0-2,2c-.18.24-.28.63-.7.59a8.57,8.57,0,0,1,5.77-5.54,8.67,8.67,0,0,1,6.5.87,7.2,7.2,0,0,1,3.12,3.48A4.76,4.76,0,0,1,68.59,61.17Z"/><path class="cls-124" d="M99,62.33a8.26,8.26,0,0,1-1.51,2.72A26.63,26.63,0,0,1,93.36,70a18.36,18.36,0,0,1-5.43,3.64c-.88.34-1.8.52-2.67.86a5,5,0,0,1-2.87.27,8.83,8.83,0,0,1-4.77-1.34,3.1,3.1,0,0,1-1.17-1.72c-.08-.24-.15-.52.11-.71s.43,0,.64.08a4.72,4.72,0,0,0,2,.68l.36.13a1.33,1.33,0,0,1,.51.2c2.29,1.13,4.62.78,6.89,0a19.43,19.43,0,0,0,4.48-2.26,2,2,0,0,0,.47-.49,27.62,27.62,0,0,0,6.69-7.4c.31-.62.62-1.23.92-1.85A2.53,2.53,0,0,1,99,62.33Z"/><path class="cls-124" d="M98.22,71.34a10.46,10.46,0,0,1-1.93,3.26c-1,.89-1.69,2-2.64,3A17.8,17.8,0,0,1,86.48,82c-.82.26-1.73,0-2.57.3A9.75,9.75,0,0,1,78.24,81a3.19,3.19,0,0,1-1.76-2.27.74.74,0,0,1,.16-.73c.28-.24.43.12.64.22a10,10,0,0,0,2.13.88c.21.12.47.1.65.3a6.39,6.39,0,0,0,4.07.94,14.66,14.66,0,0,0,6.33-2,.91.91,0,0,0,.45-.49,22.61,22.61,0,0,0,6.94-7l.91-1.64A2.42,2.42,0,0,1,98.22,71.34Z"/><path class="cls-125" d="M81.37,31.73c0,.3-.19.49-.49.47a.56.56,0,0,1-.57-.54c0-.27.2-.39.44-.4A.54.54,0,0,1,81.37,31.73Z"/><path class="cls-126" d="M39.56,31.7c0,.3-.19.5-.48.5a.41.41,0,0,1-.46-.48.47.47,0,0,1,.94,0Z"/><path class="cls-127" d="M65.94,96.71a13.9,13.9,0,0,1,.73,1.69,2.12,2.12,0,0,1-1.26,2.69c-.94,0-1.28-.66-1.39-1.36a20.18,20.18,0,0,0-1-5,.35.35,0,0,1,.24-.47c.89-.1,1.3.62,1.85,1.09C65.42,95.75,65.9,96.1,65.94,96.71Z"/><path class="cls-128" d="M65.23,90.48l1.7.58c.41,0,.5.43.77.62.71.78,1.41,1.57.81,2.74-.71.45-1.19,0-1.64-.45-.3-.33-.46-.78-.94-.9a1,1,0,0,1-.34-.43,1.14,1.14,0,0,1-.09-.26,1.53,1.53,0,0,0-1-1.28c-.18-.07-.36-.16-.32-.42C64.45,90.28,64.79,90.12,65.23,90.48Z"/><path class="cls-129" d="M63.39,94.37c-.17,0-.29.11-.15.33a8,8,0,0,1,.94,4,2.54,2.54,0,0,0,1.23,2.37c-.94.64-1.78.33-2-.75a9.46,9.46,0,0,1-.06-1.07c-.45-.41-.12-1-.4-1.49-.21-1.07-.67-2.07-.95-3.13.08-.72.54-.8,1.13-.67C63.31,94.06,63.46,94.15,63.39,94.37Z"/><path class="cls-130" d="M62,102.94l-.82,0a1.29,1.29,0,0,1-.33-1.43,8.85,8.85,0,0,0,.23-2.23,2.77,2.77,0,0,0-.54-1.72c.16-.69.59-.42.94-.23a2.74,2.74,0,0,1,1,1.14,2.34,2.34,0,0,1,.38,1.9A2.09,2.09,0,0,1,62,102.94Z"/><path class="cls-131" d="M65.82,92.69,66,93a1.22,1.22,0,0,1,.53.78c.25.8.68,1.27,1.58.92a.39.39,0,0,1,.37.08,2,2,0,0,1-1.9,1.52c-.42,0-.43.31-.65.45l-1-1.14C65.25,94.61,65,93.51,65.82,92.69Z"/><path class="cls-132" d="M68.49,94.74c-1.44.74-1.68.64-2.23-.95-.1-.28-.17-.56-.25-.83.42-.48.5,0,.64.23.44.69.91,1.32,1.86,1.23Z"/><path class="cls-133" d="M67.7,91.68a1.48,1.48,0,0,1-.77-.62c.12-.4,1.34-1.21,1.6-1s.12.65.17,1v.86a3.67,3.67,0,0,0-.73-.58C67.58,91.15,67.65,91.45,67.7,91.68Z"/><path class="cls-134" d="M62.86,100.4c.07-.67-.44-1.15-.56-1.75a1.38,1.38,0,0,1,1-.87c0,.5.08,1,.11,1.49C62.85,99.49,63.48,100.23,62.86,100.4Z"/><path class="cls-135" d="M65.82,92.69c-.14.75-.26,1.49-.41,2.24-.06.25,0,.6-.42.64a6.27,6.27,0,0,0-1.6-1.2l-.17-.21c-1-.35-1-.43-.71-1.46a12.4,12.4,0,0,0,1-4.62,5,5,0,0,0-.22-1.52c-.15-.37,0-.57.42-.43a4.3,4.3,0,0,1,1.75,1.05,12.44,12.44,0,0,0,0,2.66c0,.27.08.5-.22.64s-.79-.07-1,.37a2.63,2.63,0,0,1,1.51,1.62Z"/><path class="cls-136" d="M63.67,86.13a1.2,1.2,0,0,0-.23.13,6.71,6.71,0,0,1-.07,4.87,13.34,13.34,0,0,1-.71,2c-.3.65.28.74.56,1-.4.08-1.18-.45-1,.6-.1.14-.26-.12-.25,0,.07,1.18-.85,1.66-1.59,2.26a.7.7,0,0,1-.57.08,2.64,2.64,0,0,1-1.76-2.5c-.08.24-.18.43-.44.44a11.16,11.16,0,0,1-.91-.91,1.58,1.58,0,0,0,0-1.39,11.74,11.74,0,0,1-.82-5.34,3.13,3.13,0,0,1,.3-1.21,5.51,5.51,0,0,0,.58-.34c.51-.36.29-.54-.18-.64a.83.83,0,0,1-.83-.2.27.27,0,0,1,.08-.27,18.07,18.07,0,0,0,2.45-1.12,4.73,4.73,0,0,1,5.17,1.28.3.3,0,0,1,0,.3c-.25,0-.51.1-.49.32C63,85.88,63.43,85.89,63.67,86.13Z"/><path class="cls-90" d="M63.4,85.17a.19.19,0,0,0,.05-.16.51.51,0,0,1,.24-.22,5.77,5.77,0,0,1,2.58.09c.72.32,1.57.32,2.18.91a1.79,1.79,0,0,1,.22.38c.59.71,1.2,1.41.6,2.41a2,2,0,0,1-2.5-.85A6.79,6.79,0,0,0,63.4,85.17Z"/><path class="cls-137" d="M68.67,86.17l-.2-.17a1.92,1.92,0,0,1-.3-1.19c0-.31.16-.79-.43-.78-.42,0-.85,0-.84.67,0,.3,0,.71-.54.5A19.48,19.48,0,0,0,63.72,85c-.12-.39.23-.43.42-.45.8-.08.89-.59.87-1.23A10.41,10.41,0,0,1,65,82c0-.36,0-.72.41-.93a4,4,0,0,1,1.91,1.2,1.86,1.86,0,0,0,1.49.74A29.82,29.82,0,0,0,68.67,86.17Z"/><path class="cls-138" d="M54.43,101.06A2.23,2.23,0,0,1,53.35,98a15.55,15.55,0,0,1,.82-1.43c-.09-.57.45-.8.66-1.21.56-.47,1-1.21,1.9-1a.51.51,0,0,1,.11.62,16.94,16.94,0,0,0-.91,4.55C55.74,100.54,55.38,100.94,54.43,101.06Z"/><path class="cls-139" d="M54.43,101.06c1.23-.5,1.16-1.65,1.32-2.67.2-1.3.17-2.65.94-3.8,0,0-.08-.16-.12-.24s0-.22.2-.2c.57,0,1.3-.22.8.81.19.67-.25,1.21-.39,1.81s-.2.93-.3,1.4a10.07,10.07,0,0,1,0,1.1c-.07.81,0,1.68-1,2.12C55.43,101.33,54.83,101.62,54.43,101.06Z"/><path class="cls-140" d="M53.06,91.06l1.68-.59c.39-.3.68-.19.9.21-.16.59-1.06.63-1,1.37a1.45,1.45,0,0,1-.31.5,11.45,11.45,0,0,0-1.37,1.5,1.07,1.07,0,0,1-1.6.32,6.48,6.48,0,0,1,0-1.76h0A2.21,2.21,0,0,1,53.06,91.06Z"/><path class="cls-141" d="M55,95.58l-.78,1c-.62-.25-1.35-.18-1.91-.61-.3-.24-.84-.4-.46-1a1.73,1.73,0,0,0,1.62-1.27c.15-.4.2-1,.89-1A17.43,17.43,0,0,1,55,95.58Z"/><path class="cls-142" d="M54.13,92.66c-.22.56-.45,1.13-.68,1.69-.33.81-.83,1.14-1.65.59-.08-.25-.54-.2-.47-.57a1.48,1.48,0,0,0,1.6-.76A2.71,2.71,0,0,1,54.2,92.4C54.29,92.51,54.26,92.6,54.13,92.66Z"/><path class="cls-143" d="M55.94,101.39a2.94,2.94,0,0,0,.64-2.11.71.71,0,0,1,.78,0c-.14.52-.28,1-.43,1.54A1,1,0,0,1,55.94,101.39Z"/><path class="cls-144" d="M54.13,92.66l.07-.26.21-.37a2.36,2.36,0,0,1,1.2-1.17c-.13-.5-.51-.42-.87-.4s-.28-.48-.29-.77a7.84,7.84,0,0,0,0-2.37,3.46,3.46,0,0,1,1.75-1.16c.6.24,0,.51,0,.76a11.93,11.93,0,0,0,1,6c.32.63.27,1-.38,1.21l-.2.2A5.43,5.43,0,0,0,55,95.58c-.73-.37-.48-1.11-.65-1.69A9.84,9.84,0,0,1,54.13,92.66Z"/><path class="cls-48" d="M53.06,91.06,51.3,92.61a3,3,0,0,1-.18-1.43c.08-.41-.09-1.17.41-1.08S53,90.11,53.06,91.06Z"/><path class="cls-90" d="M55.71,85a1.2,1.2,0,0,1,.86.23,6.53,6.53,0,0,0-3.44,2.52,2.33,2.33,0,0,1-2.39,1c-.49-1-.37-1.56.55-2.54.47-.9,1.42-1,2.22-1.27A2.61,2.61,0,0,1,55.71,85Z"/><path class="cls-145" d="M55.71,85a19.23,19.23,0,0,0-2.27.26h-.09c-.31-1-1.29-1.29-2.05-1.8l-.06-.34a2.83,2.83,0,0,0,1.5-1,4.26,4.26,0,0,1,1.69-1c.74.55.54,1.36.5,2.07a1.54,1.54,0,0,0,.81,1.66A.1.1,0,0,1,55.71,85Z"/><path class="cls-146" d="M51.3,83.42l.19,0c1.16,0,2,.43,1.95,1.75a11.52,11.52,0,0,0-2.15,1C51.29,85.26,51.3,84.34,51.3,83.42Z"/><path class="cls-147" d="M56.64,98.13A7.2,7.2,0,0,1,57.57,95c.35-.13.32-.52.58-.91-.17,1.38.72,2,1.49,2.69a.47.47,0,0,0,.7,0c.71-.72,1.68-1.28,1.5-2.61l.39.64a7.69,7.69,0,0,1,1,3c-.09.54-.57.66-1,.87a7,7,0,0,0-.77-.94c-.22-.2-.48-.55-.87-.22.08.56.53,1.11.08,1.7-.94.55-1.26.47-1.7-.4a3.68,3.68,0,0,1,0-.74c0-.38-.17-.51-.53-.39l-.92,1C57.07,98.82,56.83,98.52,56.64,98.13Z"/><path class="cls-148" d="M58.49,97.66c.19-.26.44-.42.74-.27s.14.45.1.69-.06.39-.09.58c-.17.51.23.9.28,1.37s.3.79,0,1.19c0,.35,0,.71,0,1.07,0,.56-.26.75-.79.67.09-1.7-.73-3.37-.09-5.08C58.68,97.83,58.55,97.73,58.49,97.66Z"/><path class="cls-149" d="M56.64,98.13l.93.56-.21.59c-.26.37-.52.32-.78,0A2.63,2.63,0,0,1,56.64,98.13Z"/><path class="cls-150" d="M60.69,99.12c.21-.55-.38-1.08,0-1.63,1.28,1,.79,2.28.68,3.49a4.77,4.77,0,0,0-.12,2c-1-.11-1.1-.3-.82-1.74A2.33,2.33,0,0,1,60.69,99.12Z"/><path class="cls-151" d="M60.69,99.12a3.56,3.56,0,0,1-.29,2.11c-.29.07-.59.21-.88,0a4,4,0,0,1-.28-2.57C59.46,99.66,60.15,99.17,60.69,99.12Z"/><path class="cls-152" d="M74.36,14.32c0,.42-.17.68-.62.69-.68,0-1.73-.62-1.68-1.07a.7.7,0,0,1,.73-.63C73.5,13.25,74.33,13.8,74.36,14.32Z"/><path class="cls-153" d="M59.87,29.89a5.49,5.49,0,0,1-2.6-.36.79.79,0,0,1-.55-.72.77.77,0,0,1,.49-.86,7.8,7.8,0,0,1,5.49,0,.85.85,0,0,1,.63.78,1,1,0,0,1-.71.84A7,7,0,0,1,59.87,29.89Z"/><path class="cls-154" d="M78.44,55.68A15.54,15.54,0,0,1,82.2,46.1a7.54,7.54,0,0,1,7-2.74,2.93,2.93,0,0,1,2.15,1.1,1.41,1.41,0,0,1,.33,1.26A6.26,6.26,0,0,0,90.42,49c-.84,4.9-3.26,8.65-8.11,10.44a6.16,6.16,0,0,0-3,1.93c-.91.13-.94-.6-.95-1.13A34.53,34.53,0,0,1,78.44,55.68Z"/><path class="cls-155" d="M91.56,45.66c-.2-1.36-1.26-1.84-2.34-2.3,2.8,0,6.18,1.72,6,5.67a22.12,22.12,0,0,1-1.1,5.79c-1.52,4.51-4.67,7.55-8.7,9.82-.53.3-1.17.33-1.73.61a5.54,5.54,0,0,1-2.49.24,2.55,2.55,0,0,1-2.42-1.92,19.8,19.8,0,0,1-.38-7.89c0,1.38,0,2.77.06,4.15,0,.51-.16,1.42.91,1.32a.46.46,0,0,1,.18.21c.37,1.89,2,2.44,3.66,1.27a14,14,0,0,0,3.22-3.25c2-2.73,4-5.56,6.25-8.11a4.58,4.58,0,0,0,.79-4c-.15-1-1-1.2-1.78-1.41A.37.37,0,0,1,91.56,45.66Z"/><path class="cls-156" d="M83.73,65.25c1.29-.79,2.67-1.4,3.9-2.31a17.32,17.32,0,0,0,6.79-10c.32-1.31.45-2.65.84-3.94a26,26,0,0,1,0,4.32,15.65,15.65,0,0,1-2.44,6.06c-.29.43-.58.85-.88,1.27a13.32,13.32,0,0,1-7.34,4.47A2.48,2.48,0,0,1,83.73,65.25Z"/><path class="cls-157" d="M36.06,65.24a11.74,11.74,0,0,1-6.88-3.37l-.56-.53a15.9,15.9,0,0,1-3.89-7.6,18.09,18.09,0,0,1-.14-4c.72,0,.72.57.77,1a21.32,21.32,0,0,0,1.09,4.15,14.49,14.49,0,0,0,4.65,6.59,17,17,0,0,0,4.41,3C35.8,64.65,36.11,64.83,36.06,65.24Z"/><path class="cls-158" d="M22,49.8a11.84,11.84,0,0,1,0-1.32c.05-.46.23-.94.76-1s.65.51.7.89a12.67,12.67,0,0,1,.08,1.95,13.43,13.43,0,0,0,.27,3.29c.1.44.09.82-.35,1s-.6-.28-.76-.58A8.11,8.11,0,0,1,22,49.8Z"/><path class="cls-159" d="M24.42,56.77a1.19,1.19,0,0,1,.67,1.08c0,.27,0,.6-.38.52-.59-.12-.55-.73-.72-1.15C23.89,57,24.14,56.82,24.42,56.77Z"/><path class="cls-158" d="M98,49c-.43,1.57.13,3.26-.71,4.76-.2.36-.23.94-.78.8s-.4-.6-.34-1c.19-1.53-.09-3.1.25-4.63.13-.58-.1-1.56.81-1.48S97.82,48.44,98,49Z"/><path class="cls-160" d="M95.87,57.27c-.15.36-.15.89-.65,1-.24.07-.37-.25-.33-.48.08-.42.09-.94.65-1.06C95.89,56.7,95.83,57,95.87,57.27Z"/><path class="cls-154" d="M40.74,51.38a35.94,35.94,0,0,1,.89,6.19c0,.87-.06,1.74-.09,2.61-.24.47,0,1.26-.89,1.29a.58.58,0,0,1-.26-.13,4.33,4.33,0,0,0-2.48-1.8c-4.42-1.41-6.78-4.71-8.13-8.92a7.27,7.27,0,0,1-.31-2A3.33,3.33,0,0,0,28.32,46a1.17,1.17,0,0,1-.15-.27,2.37,2.37,0,0,1,1.71-2.18,6,6,0,0,1,2.85-.21,7.5,7.5,0,0,1,4.79,2.55A15.08,15.08,0,0,1,40.74,51.38Z"/><path class="cls-155" d="M32.73,43.34a16.36,16.36,0,0,0-2.41.22,2.84,2.84,0,0,0-1.92,2.16,1,1,0,0,1-.32.22,2.49,2.49,0,0,0-1.82,3.22,4.43,4.43,0,0,0,1,2.2c2.47,2.69,4.41,5.78,6.69,8.62a20,20,0,0,0,2.18,2.23,3.84,3.84,0,0,0,1.51.85,1.83,1.83,0,0,0,2.62-1.24.71.71,0,0,1,.33-.46c.63-.14.63-.79,1-1.18A8.11,8.11,0,0,1,41,63.8a2.42,2.42,0,0,1-2.08,1.66,6.53,6.53,0,0,1-2.88-.22c-.81-.7-1.87-1-2.75-1.59a20,20,0,0,1-6-6,18.31,18.31,0,0,1-2.25-6.58c-.08-.47,0-1-.52-1.28.06-3.65,1.15-5.46,5.17-6.38A5.86,5.86,0,0,1,32.73,43.34Z"/><path class="cls-161" d="M60.88,58.55l.41-.45a.81.81,0,0,1,.4.91,34.21,34.21,0,0,0-.06,4.05c.14-2,1.39-3.61,2-5.45,1,0,1,.69,1,1.4.13.79-.47,1.27-.79,1.87a4.16,4.16,0,0,0-.57,1.29c-.2.65-.36,1.31-.52,2-.11.42-.24.87-.72,1a1.05,1.05,0,0,1-1.07-.69,6.08,6.08,0,0,1-.75-3.45,6.78,6.78,0,0,1,.3-2.09A.59.59,0,0,1,60.88,58.55Z"/><path class="cls-162" d="M56.16,57.63a1.89,1.89,0,0,1,2.59.76c.55.65.29,1.43.28,2.13,0,1.14-.14,2.29-.21,3.44-.62.35-.76-.22-.87-.55a31.25,31.25,0,0,0-1.78-4.21A1.37,1.37,0,0,1,56.16,57.63Z"/><path class="cls-163" d="M68.34,61.27c.31.44,0,.7-.27,1a14.06,14.06,0,0,1-2.77,2.22,2.64,2.64,0,0,0-1,1l.07-1.25c-.22-.26-.09-.53,0-.79s.29-.56.43-.85.34-.66.77-.73C66.77,60.52,67.32,60.4,68.34,61.27Z"/><path class="cls-127" d="M63.64,57.61c.36.76-.24,1.29-.47,1.9a30.94,30.94,0,0,0-1.55,3.76,9.55,9.55,0,0,1-.27-3.94,4.17,4.17,0,0,0-.06-1.23A2,2,0,0,1,63.64,57.61Z"/><path class="cls-164" d="M56.16,57.63c0,1.57,1.05,2.74,1.57,4.1.29.76.25,1.68.92,2.29a.28.28,0,0,1,.19.23.85.85,0,0,1-.92.9c-.52,0-.62-.5-.7-.91a20.74,20.74,0,0,0-.53-2.06,6.14,6.14,0,0,0-.58-1.28c-.3-.64-1-1.1-.91-1.94S55.31,57.7,56.16,57.63Z"/><path class="cls-165" d="M60,56.84H58.7a.48.48,0,0,1-.51-.36.42.42,0,0,1,.3-.53,4.07,4.07,0,0,1,3,0,.43.43,0,0,1,.28.47.45.45,0,0,1-.47.4c-.45,0-.91,0-1.36,0Z"/><path class="cls-166" d="M58.65,64c-.28-1.88.18-3.75.1-5.63l.28,0c.38.1.34.48.49.73s.14.6.23.9a3.35,3.35,0,0,1,0,1,5.26,5.26,0,0,1-.34,2.29c-.13.34-.22.77-.72.81Z"/><path class="cls-167" d="M55.2,59l1.14,1.82c-.38.7-.6,1.54-1.54,1.75l-.56-.84c.64-.44,1.13-.92.81-1.82A.9.9,0,0,1,55.2,59Z"/><path class="cls-168" d="M65.57,61.9l-.54.84a3.63,3.63,0,0,1-1.4-2l1-1.74c.11,0,.35-.07.3,0C64.39,60.19,65,61.05,65.57,61.9Z"/><path class="cls-169" d="M59.26,59.22c-.07-.27-.15-.53-.23-.8.64-.23,1.27-.45,1.85.13l-.18.27C60.29,59.2,59.73,59.06,59.26,59.22Z"/><path d="M58.74,64.1a7,7,0,0,0,.79-3.24.73.73,0,0,1,.7-.08,1.24,1.24,0,0,1,.22.18,6.73,6.73,0,0,0,.83,3.43c.15.28.38.62.71.59s.33-.49.38-.79a11,11,0,0,1,.68-2.32c.89.07,1.39.55,1.61,1.56-.1.28-.2.56-.29.84-.25.17-.2.46-.27.7-.12.43-.27,1,.19,1.22s.62-.33.85-.6a2.56,2.56,0,0,1,.77-.54,3.52,3.52,0,0,1,.9,2.55c-.71.34-1.56.46-2,1.21-.28.23-.63.5-.47.86s.6.18,1,.13.83,0,1.25,0c-.17,1.23-.34,2.45-.5,3.67-.4.29-.92.41-1.24.82-.28.17-.53.41-.37.76s.45.15.69.13a1.6,1.6,0,0,1,.84,0c.39,1,0,3.81-.66,4.47a1.09,1.09,0,0,0-.7.23c-.33,0-.57.22-.55.54s.38.3.61.37a1.93,1.93,0,0,1,.8.29c0,.9-.11,1.8-.06,2.7s-.09,1.24-1,1.06a.73.73,0,0,0-.65.1l-.26.05a5.4,5.4,0,0,0-3.77-1.4,3.67,3.67,0,0,0-2.6,1c-.48.48-.93-.11-1.34.16-1,.23-1.3-.12-1.2-1.13a7.13,7.13,0,0,0-.11-2.6c.39-.36,1-.11,1.37-.58,0-.94-.95-.62-1.38-1A6.5,6.5,0,0,1,54,75.2a1.76,1.76,0,0,1,.94,0c.21,0,.49.11.59-.15s-.06-.48-.29-.63c-.33-.49-.91-.63-1.37-.95-.14-1.22-.29-2.44-.43-3.67a2.65,2.65,0,0,1,1.25,0c.3.08.66.28.87-.07s-.1-.58-.33-.8c-.46-.86-1.4-1-2.16-1.35.23-.89,0-2,1-2.56a2.68,2.68,0,0,1,.94.83c.16.18.27.51.59.37s.36-.44.35-.74a2,2,0,0,0-.31-1c0-.47-.47-.82-.42-1.32.36-.66.67-1.38,1.61-1.31a7.38,7.38,0,0,1,.72,2.2c.07.32-.12.86.33.91S58.61,64.56,58.74,64.1Z"/><path class="cls-170" d="M56.81,61.84c-.74.18-.9,1.08-1.61,1.31-.27-.11-.31-.38-.4-.62.63-.48.8-1.37,1.54-1.75C56.51,61.12,56.83,61.4,56.81,61.84Z"/><path class="cls-109" d="M54,75.2a34.9,34.9,0,0,1,.42,4.32h-1c-.13-.25,0-.5,0-.75a12.13,12.13,0,0,0-.19-1.92c-.21-.91-1.08-.19-1.55-.53a2.63,2.63,0,0,0-.61-.29A4.28,4.28,0,0,1,54,75.2Z"/><path class="cls-171" d="M65.27,79.67a14.6,14.6,0,0,0,.44-2.94c.11-.5.15-1,.22-1.53a4.21,4.21,0,0,1,2.83.79,1.8,1.8,0,0,1-1.37.4c-.76-.1-.84.31-.86.92a4.87,4.87,0,0,1-.18,2.21Z"/><path class="cls-132" d="M65.73,92.47l-1.51-1.62A1.48,1.48,0,0,1,65.73,92.47Z"/><path class="cls-172" d="M66.36,85.2a2,2,0,0,0,.24-.13c-.35-1.18.35-1.34,1.28-1.46.5-.07.65,0,.63.45,0,.65,0,1.29,0,1.94Z"/><path class="cls-142" d="M55.61,90.86A3,3,0,0,1,54.41,92C54.42,91.24,54.78,90.82,55.61,90.86Z"/><path class="cls-173" d="M79.47,61.34l-.06-.19a2.28,2.28,0,0,1,1.8-1.61,11.79,11.79,0,0,0,7.33-5.87,12.76,12.76,0,0,0,1.65-5.36,3,3,0,0,1,1.37-2.65c0,.05,0,.1,0,.15.4.31.33.76.33,1.17a13.14,13.14,0,0,1-2.75,7.78,19.36,19.36,0,0,1-6.56,6.13,8.66,8.66,0,0,1-1.89.78C80.22,61.79,79.76,61.83,79.47,61.34Z"/><path class="cls-174" d="M87.65,45.52c.64.41.49,1,.28,1.54a8.57,8.57,0,0,1-4.66,4.76c-.23.1-.36.42-.67.31-.41-.5-.2-1,0-1.54a9.88,9.88,0,0,1,3.54-5.07A1.51,1.51,0,0,1,87.65,45.52Z"/><path class="cls-175" d="M80.5,56c-.37,0-.34-.34-.33-.58s0-.53.41-.53.43.22.42.5A.55.55,0,0,1,80.5,56Z"/><path class="cls-176" d="M79.47,61.34a3.11,3.11,0,0,0,2.66-.58,19.71,19.71,0,0,0,8-8.37,11.92,11.92,0,0,0,1.38-6.58,1.76,1.76,0,0,1,2.34,1.52A4.56,4.56,0,0,1,93,51.38c-2.69,2.93-4.72,6.36-7.29,9.37a14.33,14.33,0,0,1-2.28,2.12,3.72,3.72,0,0,1-2.79.59A1.68,1.68,0,0,1,79.47,61.34Z"/><path class="cls-176" d="M40.58,61.36c-.07,2.17-1.45,2.53-3.35,1.89A7.58,7.58,0,0,1,34.37,61c-1.74-1.85-3-4.05-4.57-6.05-.87-1.13-1.84-2.18-2.75-3.28a4.89,4.89,0,0,1-1.11-3.82c.18-1.55.87-2.13,2.46-2.08l.08.15c.44.69.21,1.46.3,2.2a14.14,14.14,0,0,0,3.67,7.81,18,18,0,0,0,5.32,4.51c.89.45,1.84.61,2.73,1Z"/><path class="cls-177" d="M40.5,61.36a2.52,2.52,0,0,1-2.06-.29,18.72,18.72,0,0,1-9.7-11.34,8.64,8.64,0,0,1-.26-3.86,2.6,2.6,0,0,1,1.27,2.45,12.84,12.84,0,0,0,5.67,9.77,18.1,18.1,0,0,0,3.38,1.47C39.63,59.92,40.42,60.3,40.5,61.36Z"/><path class="cls-174" d="M32.11,45.69A1.16,1.16,0,0,1,34,45.58a9.38,9.38,0,0,1,3.3,5c.35,1.28.24,1.43-.83,1.23a9.67,9.67,0,0,1-4.3-4.3A2.15,2.15,0,0,1,32.11,45.69Z"/><path class="cls-178" d="M39.9,55.54c0,.32-.1.49-.37.5s-.56-.31-.64-.58a.45.45,0,0,1,.44-.52C39.67,55,39.79,55.3,39.9,55.54Z"/><path class="cls-179" d="M64.66,63.43c-.47-.59-.82-1.31-1.61-1.56a2.28,2.28,0,0,1,.58-1.12,5.38,5.38,0,0,1,1.4,2Z"/><path class="cls-180" d="M60.7,58.82,60.45,61l-.2-.14a.9.9,0,0,1-.72.06c0-.29,0-.58-.05-.86s-.14-.53-.22-.79C59.58,58.5,60.21,58.94,60.7,58.82Z"/><path class="cls-181" d="M114,86.62V42.24a17.06,17.06,0,0,0-8.53-14.77L67,5.29A17,17,0,0,0,50,5.29L11.53,27.47A17.06,17.06,0,0,0,3,42.24V86.62a17.06,17.06,0,0,0,8.53,14.77L50,123.58a17.1,17.1,0,0,0,17.06,0l38.42-22.19A17.06,17.06,0,0,0,114,86.62Z"/></g></g></svg>