<svg xmlns="http://www.w3.org/2000/svg" viewBox="0 0 116.97 128.86"><defs><style>.cls-1{fill:#69915b;}.cls-2{fill:#a3c097;}.cls-3{fill:#473b38;}.cls-4{fill:#2d2422;}.cls-5{fill:#3b312f;}.cls-6{fill:#4e4340;}.cls-7{fill:#605a56;}.cls-8{fill:#241e1c;}.cls-9{fill:#231e1c;}.cls-10{fill:#020101;}.cls-11{fill:#191313;}.cls-12{fill:#403a39;}.cls-13{fill:#413b39;}.cls-14{fill:#4e4845;}.cls-15{fill:#e5d8d8;}.cls-16{fill:#e5d7d7;}.cls-17{fill:#403a38;}.cls-18{fill:#fdfd4c;}.cls-19{fill:#fbfbfa;}.cls-20{fill:#f6f5f3;}.cls-21{fill:#d4d440;}.cls-22{fill:#fbfafa;}.cls-23{fill:#fbfbfb;}.cls-24{fill:none;stroke:#000;stroke-miterlimit:10;stroke-width:6px;}</style></defs><g id="Calque_2" data-name="Calque 2"><g id="Calque_8" data-name="Calque 8"><path class="cls-1" d="M19.14,88.6a.08.08,0,0,1,0,.05c0,.12-.07.23-.1.34-1.11,3.43-2.48,6.78-3.29,10.31q-.46,2-.87,4l-.53-.32-2.8-1.61A17.06,17.06,0,0,1,3,86.61V42.24a17.06,17.06,0,0,1,8.53-14.77l4-2.3.65-.37c-.54,1.49-1.09,3-1.5,4.51a9.09,9.09,0,0,0-.39,2.31,1.28,1.28,0,0,1,0,.75,1.6,1.6,0,0,0-.14,1.3,7.13,7.13,0,0,1,0,1.6,4,4,0,0,0,0,3.28A3.87,3.87,0,0,1,14,39.73a2.09,2.09,0,0,0,.19,1.3,1.21,1.21,0,0,1,.1.56c0,.15,0,.29,0,.44,0,.35.07.71.12,1v0c.06.36.13.72.22,1.08,0,0,0,0,0,.07.2.79.43,1.58.67,2.36h0l0,.1a1.29,1.29,0,0,1,.08.55s0,.08,0,.11h0a1.65,1.65,0,0,0,.19.58h0a2.76,2.76,0,0,1,.26.65.76.76,0,0,1,0,.21c.05.18.11.38.17.56h0a23,23,0,0,1,1.39,4.48,16,16,0,0,1-1.42,7.86,34.1,34.1,0,0,0-2.65,10.86A20.15,20.15,0,0,0,17.8,86.25C18.34,87,19.2,87.53,19.14,88.6Z"/><path class="cls-1" d="M90.47,18.81h0a2.12,2.12,0,0,1-.36.1L90,19h0a31.15,31.15,0,0,0-4.76,3.88,37,37,0,0,1-2.86,2.6,11.3,11.3,0,0,1-9.83,2c-3-.75-5.84-1.8-8.86-2.33A34.53,34.53,0,0,0,46.9,26.38a24.23,24.23,0,0,1-5.74,1.36,11.57,11.57,0,0,1-9.26-3.61,34.25,34.25,0,0,0-5.32-4.6h0l0,0-.26-.15-.31-.2.43-.25L50,5.28A17.07,17.07,0,0,1,58.21,3h.55A17,17,0,0,1,67,5.28L90,18.55l.09,0C90.31,18.6,90.43,18.7,90.47,18.81Z"/><path class="cls-2" d="M114,42.24V86.61a17.06,17.06,0,0,1-8.53,14.78l-6.67,3.85-.47.27c-.33-.94-.64-1.9-.92-2.87A74.26,74.26,0,0,1,95.2,91.39a3.37,3.37,0,0,1,1-2.85A21.89,21.89,0,0,0,102,77.75a23.54,23.54,0,0,0-.2-9.35,51.56,51.56,0,0,0-2.55-8.05,8.59,8.59,0,0,1-.71-2.43.28.28,0,0,0,0-.09h0a5.9,5.9,0,0,0-.07-1.39c0-.08,0-.16,0-.24l0-.31c-.24-2.94.8-5.61,1.72-8.3a30.88,30.88,0,0,0,1.76-9.32,31.5,31.5,0,0,0-1.52-11.88A24.15,24.15,0,0,0,99.46,24l.71.41,5.27,3A17.06,17.06,0,0,1,114,42.24Z"/><path class="cls-3" d="M99.74,50.78A15.57,15.57,0,0,0,99,58a1.53,1.53,0,0,1-.46-.17h0c-.61-.4-.41-1.24-.69-1.79-1,3-1,4,.26,7.8a30.75,30.75,0,0,1,1.68,10.89,15.24,15.24,0,0,1-5.08,11,13.3,13.3,0,0,1-1.61,1,1.79,1.79,0,0,0-.31.25h0a18.22,18.22,0,0,1-3,1,7.13,7.13,0,0,0-4,3.69c-.39.75-.74,1.52-1.16,2.25-.21.36-.38.85-.92.73h0a.42.42,0,0,1-.15,0l-.08-.12h0s0,0,0,0a10.64,10.64,0,0,1-.48-1.67,22.25,22.25,0,0,0-2.75-9.62,2.34,2.34,0,0,1-.43-1,1.56,1.56,0,0,1,0-.48A1.43,1.43,0,0,0,80,81a.14.14,0,0,0,0-.06c-.48-1.27.15-2.17,1.08-2.93A9.14,9.14,0,0,1,84,76.62c4.83-1.64,6.67-6,4.46-10.61a16.27,16.27,0,0,0-1.8-3.14,1.66,1.66,0,0,1-.38-.76h0v0L73.93,68.84l-5.84,4.55c.36.22.72.43,1.09.63h0a19.89,19.89,0,0,0,2.42,1.16.25.25,0,0,1,.13.09h0a.12.12,0,0,1,0,0,.7.7,0,0,1,.06.09.75.75,0,0,1,.07.12,24.76,24.76,0,0,1-.63,17.73,2.29,2.29,0,0,1-.62,1l-.08,0,0,0h0a.51.51,0,0,1-.43-.07A2.25,2.25,0,0,0,70,94a2.34,2.34,0,0,0-1-.91l-.08,0a4.06,4.06,0,0,0-1-.27l-.17,0c-.61-.11-1.17-.28-1.77-.43a3.73,3.73,0,0,0-.46-.09,2.82,2.82,0,0,0-.57-.09,2.09,2.09,0,0,0-.36,0h0a5.23,5.23,0,0,0-1.66.18s0,0,0,0a2.3,2.3,0,0,0-.35.1.79.79,0,0,1-.31-.2,0,0,0,0,0,0,0,1,1,0,0,1-.09-.21,2.4,2.4,0,0,1,.17-1.29A56.3,56.3,0,0,0,63.71,82c.24-3.49-1.61-4.38-4.11-6.47s-2.54-2.33-4.75-.06a6.82,6.82,0,0,0-2.46,5.16c-.3,3.68-1.15,6.88.23,10.36a2,2,0,0,1,.22,1.41h0a1.54,1.54,0,0,1-.08.19s0,0,0,0a.56.56,0,0,1-.28.2l-.31-.08a2.54,2.54,0,0,0-.48-.09H51.6a5,5,0,0,0-1.76.2h0c-.79.22-1.55.57-2.34.84h0l-.64.2a.52.52,0,0,0-.37.39s0,.1-.05.15a1.11,1.11,0,0,1-.15.33.88.88,0,0,1-1,.35l-.1,0s0,0,0,0a14.11,14.11,0,0,1-2.39-6c-.93-3.93-2.46-7.54-1.43-11.47.15-.59.32-10.42.32-10.42L30.13,61l-3.58,3a12.9,12.9,0,0,0-1.61,4.2,7.93,7.93,0,0,0,5.17,9.14c1.24.47,1.4,1.08.47,2-1.72,1.8-3.49,3.57-5.3,5.29-.84.81-1.44.78-2.31,0-1.51-1.45-3-2.94-4.44-4.44A3.26,3.26,0,0,1,17.78,79a.06.06,0,0,0,0,0,8,8,0,0,1-.24-3v-.2a1.09,1.09,0,0,1,0-.18,28.54,28.54,0,0,1,.88-6.25c.09-.35.19-.69.29-1v0l.33-1c.16-.51.35-1,.54-1.52l.15-.43a0,0,0,0,1,0,0l0-.13a12.37,12.37,0,0,0,.55-3.38,2.09,2.09,0,0,0,0-.25,35.73,35.73,0,0,0-.18-4l0-.34c0-.11,0-.22-.05-.33h0s0-.05,0-.07a13.6,13.6,0,0,0-1.36-4.24l-.05-.11h0l0-.07c-.05-.11-.11-.21-.17-.32a24.27,24.27,0,0,0-2.23-3.34h0c-.17-.23-.36-.46-.54-.69h0l-.52-.63c0-.16-.05-.32-.08-.48a2.13,2.13,0,0,0-.1-1.49,8.73,8.73,0,0,1-.28-1.12s0,0,0-.07c-.07-.36-.13-.72-.22-1.08v0a5.08,5.08,0,0,0-.58-1.53c0-.14-1.4-8.74,1.63-16.38l.65-.37,2-1.18,2-1.15,3.15-1.82L24.5,20l.84-.49.47-.27a6.31,6.31,0,0,1,.44.58h0a9.54,9.54,0,0,1,.63,1.08.89.89,0,0,1,.09.16l.35.63c.17.3.33.6.49.9.27.54.53,1.08.79,1.63.51,1.07,1,2.15,1.48,3.22a2,2,0,0,0,.1.21c.15.34.31.67.47,1A26.4,26.4,0,0,0,32,31.16q.24.42.51.81a.05.05,0,0,1,0,0l.29.42.07.08a2.37,2.37,0,0,0,.32.39,2.7,2.7,0,0,0,.68.59,3.6,3.6,0,0,0,2.57.54,4.17,4.17,0,0,0,.6-.1l.11,0,.14,0a8.56,8.56,0,0,0,.87-.23h0l.34-.11a22.19,22.19,0,0,0,2.62-1.08l1.28-.62a35.81,35.81,0,0,1,3.63-1.53l.14-.05.84-.3a48.71,48.71,0,0,1,8.05-2c.76-.12,1.52-.21,2.27-.27.32,0,.63,0,.94,0s.87,0,1.31,0h.92A35.18,35.18,0,0,1,72.8,30.5l.26.11.59.25A17.92,17.92,0,0,1,75.86,32c.6.35,1.17.73,1.75,1.11l.58.37c.39.24.78.47,1.19.7l.64.34a5,5,0,0,0,.71.28,2,2,0,0,0,1.18.1,1.89,1.89,0,0,0,.34-.09,4.93,4.93,0,0,0,1.53-1.23c.15-.17.31-.33.45-.5a7.54,7.54,0,0,0,.53-.73,12.66,12.66,0,0,0,.63-1.14l0,0c.06-.12.11-.24.16-.37s.22-.48.32-.74c.34-.83.65-1.67.93-2.53.1-.28.19-.56.28-.85.16-.51.3-1,.44-1.53a18.05,18.05,0,0,1,1-3c0-.11.09-.21.14-.31a10.71,10.71,0,0,1,2-2.89l.48.28L99.46,24l.71.41c3,6.79,2.89,13.92,1.19,21.24C101,47.41,100.25,49.06,99.74,50.78Z"/><path class="cls-4" d="M95.86,92.55a71.47,71.47,0,0,0,2.91,12.69l-.47.27L67,123.57a17,17,0,0,1-17.06,0L28.34,111.09l-.65-.37c-.09-.33-.17-.66-.26-1-1-4-2.09-7.93-2.91-11.94A13.34,13.34,0,0,0,20.7,91.1c-.63-.64-1.45-1.18-1.68-2.11a1.7,1.7,0,0,1-.07-.51A21.63,21.63,0,0,1,13,75.84,28.72,28.72,0,0,1,14.71,64c.34-1,.66-2,1.09-2.94a13.57,13.57,0,0,0,0-11.34,8.91,8.91,0,0,1-.27-.92,2.92,2.92,0,0,1,.37-.16.3.3,0,0,1,.28,0h0a2,2,0,0,1,.34.38,19.19,19.19,0,0,1,1.89,3c.06.11.12.21.17.32l0,.07h0l.05.11a17.21,17.21,0,0,1,1.36,4.24s0,0,0,.07h0c0,.11,0,.22.05.33a13.94,13.94,0,0,1,.17,1.48,20.9,20.9,0,0,1,0,2.85,2.09,2.09,0,0,1,0,.25,16.11,16.11,0,0,1-.55,3.38l0,.13a0,0,0,0,0,0,0c-.09.31-.2.63-.32.94s-.25.68-.37,1l-.33,1v0c-.1.35-.2.69-.29,1a25.89,25.89,0,0,0-.88,6.25,1.09,1.09,0,0,0,0,.18V76a18.16,18.16,0,0,0,.24,3,.06.06,0,0,1,0,0A13.21,13.21,0,0,0,22,86.82c.61.56,1.41.78,2,1.31a1.47,1.47,0,0,1,.06.14v.06h0v0c-.55,1.3-.54,1.42.9,1.29,3.82-.36,6.24,2.27,7,5.45.43,1.83.72,3.7,1.24,5.51a1.77,1.77,0,0,1,.06,1.07,1.69,1.69,0,0,1-.19.28L33,102c-.41.32-.85-.06-1.18-.37-1.63-1.55-3.24-3.14-4.23-4.11,3.45,3.74,7,8.54,10.81,13.09A25.15,25.15,0,0,0,47,116.8a25.4,25.4,0,0,0,12.81,2.91c4.45-.3,8.84-.75,12.7-3.29a31.47,31.47,0,0,0,6.21-5.88c3.91-4.45,7.52-9.14,11-13.94a5.62,5.62,0,0,1,.44-.53c-.47.43-1,.83-1.46,1.24-2,1.64-3.7,3.48-5.51,5.26-.43.42-.83.9-1.52.87a.35.35,0,0,1-.11,0h0l0,0-.12-.08,0,0h0a1,1,0,0,1,.24-1,33.55,33.55,0,0,0,4.74-9.19c1.32-3.46,3.62-5.42,7.6-5.63-.41-.28-.82-.36-1.1-.55a.76.76,0,0,1-.28-.35A13.67,13.67,0,0,0,99.17,76.3a23.2,23.2,0,0,0-.79-9.79c-.38-1.31-.67-2.66-1.17-3.93-1.07-2.72-.32-5.3.5-7.88,0-.13.18-.24.36-.46a8.46,8.46,0,0,1,.4,1.95c0,.08,0,.16,0,.24A3.71,3.71,0,0,0,99,58c1.26,3.77,2.88,7.43,3.54,11.4,1.17,7-.37,13.31-5.26,18.57A4.93,4.93,0,0,0,95.86,92.55Z"/><path class="cls-2" d="M28.34,111.09l-.65-.37-12.83-7.4-.53-.32a77.56,77.56,0,0,1,4.12-13.86,1.15,1.15,0,0,1,.5-.66l.17.17a49,49,0,0,1,4.82,5.56,3.35,3.35,0,0,1,.52,1.2C25.7,100.65,27,105.88,28.34,111.09Z"/><path class="cls-5" d="M90.17,19.51a9.86,9.86,0,0,0-1.45,2.37c0,.1-.09.2-.14.31-.51,1.22-.85,2.51-1.24,3.79-.07.24-.15.48-.23.72s-.18.57-.28.85c-.28.86-.59,1.7-.93,2.53-.1.25-.21.5-.32.74s-.1.25-.16.37l0,0a12.66,12.66,0,0,1-.63,1.14,7.54,7.54,0,0,1-.53.73,12.25,12.25,0,0,1-.9,1,2.76,2.76,0,0,1-1.08.72,1.89,1.89,0,0,1-.34.09,2.72,2.72,0,0,1-1.18-.1,5,5,0,0,1-.71-.28l-.23-.1a17.16,17.16,0,0,1-1.6-.94l-.58-.37c-.58-.38-1.15-.76-1.75-1.11l-.29-.16c-.83-.45-1.66-.88-2.51-1.26l-.26-.11a31.8,31.8,0,0,0-11.35-2.81l-.91,0h-.92c-.44,0-.87,0-1.31,0s-.62,0-.94,0a37.85,37.85,0,0,0-10.32,2.22l-.84.3-.14.05c-1.26.48-2.5,1-3.73,1.6l-1.18.55a22.19,22.19,0,0,1-2.62,1.08l-.34.11h0c-.29.09-.58.17-.87.23l-.25.06c-.2,0-.4.08-.6.1a3.54,3.54,0,0,1-3.25-1.13,4.16,4.16,0,0,1-.32-.39l-.36-.5a.05.05,0,0,0,0,0q-.27-.39-.51-.81a26.4,26.4,0,0,1-1.34-2.52c-.16-.33-.32-.66-.47-1a2,2,0,0,1-.1-.21l-.35-.75c-.38-.82-.75-1.65-1.13-2.47-.26-.55-.52-1.09-.79-1.63s-.54-1-.84-1.53a.89.89,0,0,0-.09-.16l-.41-.67a2.32,2.32,0,0,1-.22-.41h0a.5.5,0,0,1,0-.46.73.73,0,0,1,.37-.26,25.16,25.16,0,0,1,5.66,4.68c3,2.84,6.41,4.14,10.49,3.22,1.77-.4,3.5-1,5.23-1.48a35.56,35.56,0,0,1,21.29.43,24.06,24.06,0,0,0,5.27,1.31,11.2,11.2,0,0,0,9-3.46,41.82,41.82,0,0,1,5.38-4.66A3.39,3.39,0,0,1,90,18.55l.09,0c.23.08.35.18.39.29v0C90.55,19.06,90.32,19.32,90.17,19.51Z"/><path class="cls-3" d="M24.05,88.27A2.61,2.61,0,0,1,22,87.49,13.5,13.5,0,0,1,17.23,78,27.34,27.34,0,0,1,19,66c1.58-4.22.94-8.37-.25-12.44a12.82,12.82,0,0,0-3.22-4.74,2.13,2.13,0,0,1-.41-1.45,1.72,1.72,0,0,1,1.53,1C17.4,49.61,18.24,50.79,19,52c1.23,1.87,1.16,4.14,1.64,6.24.94,4.11-.87,7.74-1.82,11.52A26.55,26.55,0,0,0,18,77.28a3.88,3.88,0,0,0,1.22,2.9c1.47,1.37,2.88,2.81,4.28,4.27.51.53.83.54,1.36,0q2.73-2.82,5.55-5.56c.64-.62.46-.83-.29-1.09a8.1,8.1,0,0,1-5.77-7.69c-.17-2.62.92-5,2.22-7.15.77-1.3.77-1.55-.42-2.59a2.54,2.54,0,0,1,.54-4c.59-.25,1-.2,1.24.47,0,.36-.29.54-.53.75-1,.86-.95,1.18-.08,2.16.57.65,1.37,1.13,1.59,2.06a2.13,2.13,0,0,1-.54,1.3A14.19,14.19,0,0,0,26,68c-.8,4,.93,7.2,4.79,8.42a5.58,5.58,0,0,1,4.34,6c0,.2.1.39.1.59a3.17,3.17,0,0,1-.62,1.54,14.12,14.12,0,0,0-1.82,6.13,1.58,1.58,0,0,1-.42,1.21c-.59.2-.91-.21-1.19-.59a6.57,6.57,0,0,0-5.35-2.54C25.2,88.73,24.51,88.93,24.05,88.27Z"/><path class="cls-3" d="M91.23,19.27c-2,1.5-2.57,3.79-3.23,6a56.1,56.1,0,0,1-2.17,6.15,10.21,10.21,0,0,1-2.16,3,2.78,2.78,0,0,1-3.43.66A17.28,17.28,0,0,1,78.11,34a33.66,33.66,0,0,0-16.32-5.82c-4.47-.43-8.77.5-13,1.68a68.37,68.37,0,0,0-8.83,3.6,11,11,0,0,1-4.18,1.07A3.6,3.6,0,0,1,32.66,33a35.65,35.65,0,0,1-3.56-6.57C27.94,24,27,21.56,25.34,19.49l.47-.27.15-.08.43-.25.25.19a.52.52,0,0,0-.07.44h0a1.71,1.71,0,0,0,.32.53,46.52,46.52,0,0,1,3.66,7.34A34,34,0,0,0,33.05,32a3.43,3.43,0,0,0,4,1.51c2.44-.53,4.54-1.86,6.8-2.79,5.89-2.4,12-3.87,18.37-3.38A36.24,36.24,0,0,1,72.81,30a46.18,46.18,0,0,1,6.72,3.79c1.82,1.1,2.58,1,4-.54,1.87-2.12,2.55-4.82,3.38-7.42.75-2.41,1.39-4.87,3.1-6.84h0l.09-.11s0-.15,0-.24a.29.29,0,0,1,0-.09c.23.08.35.18.39.29v0l.28.16Z"/><path class="cls-3" d="M13.88,41.55c1.27,1,1,2.63,1.51,4,.2.52.28,1-.32,1.37A20.61,20.61,0,0,1,13.88,41.55Z"/><path class="cls-6" d="M59.76,29.43a26.36,26.36,0,0,1,14.63,4.21c1.65,1,3.59,1.58,4.9,3.21a2.82,2.82,0,0,1,0,4.07c-2.45,2.8-5.62,4.66-8.57,6.83s-6,4.38-9.13,6.29a8.86,8.86,0,0,1-8.55.52c-3-1.29-5.67-3.06-8.56-4.48A45.22,45.22,0,0,0,35,46.35a2.63,2.63,0,0,1-1.58-3.42,12.7,12.7,0,0,1,4.9-6.24,63.15,63.15,0,0,1,7.19-4.44c3-1.65,6.35-2,9.63-2.56A23.43,23.43,0,0,1,59.76,29.43Z"/><path d="M24.05,88.27a22,22,0,0,1,3.14.09,6.92,6.92,0,0,1,5.05,3.56c.65.16.82.73.95,1.26.36,1.38.75,2.76,1,4.17.2,4.51,2.56,7.38,6.89,8.4.55.13,1.11.2,1.66.28,2.81.43,5.63.6,8.29-.65,1.17-.55,2.47-1,2.84-2.57.42-1.77.09-2.29-1.73-2.43a24.24,24.24,0,0,1-7.09-1.84A2.17,2.17,0,0,1,44,96.22c.11-.7.46-1.28,1.33-1.19l.73-.52a9.72,9.72,0,0,1,6.34-1.87.69.69,0,0,0,.2,0c1-1.1,2.39-.76,3.61-.94a30.93,30.93,0,0,1,4.91-.06,1.47,1.47,0,0,1,1.16.53.23.23,0,0,0,.18,0c2-.39,3.91.24,5.82.71a2.85,2.85,0,0,1,2,1.23l.26.2c1.37.38,1.56,1.41.53,2.86-3.1,2.07-6.62,2.81-10.25,3.23-.59.06-1.29,0-1.52.71a1.86,1.86,0,0,0,.58,2,6.81,6.81,0,0,0,3.85,1.57,24.71,24.71,0,0,0,10.06-.49,12.36,12.36,0,0,0,8.92-8.07,3.76,3.76,0,0,1,.55-1.14.91.91,0,0,1,.6-.37c.57-1.15,1.14-2.3,1.72-3.45a7.49,7.49,0,0,1,5.24-4.07c.59-.14,1.16-.33,1.74-.49.68.11,1.35.19,2,.32.23,0,.5.15.49.45s-.26.38-.5.43l-2.37.45a6.05,6.05,0,0,0-4.68,3.59,90.2,90.2,0,0,1-4.21,9,19.94,19.94,0,0,1-1.91,2.48c0,.57-.41.8-.78,1.11a12.2,12.2,0,0,1-5.73,2.86,2.22,2.22,0,0,0-.32.14,13.78,13.78,0,0,1-4.42.57c-4,.39-8,.54-11.9-.74a3.52,3.52,0,0,0-2.77.19,24.19,24.19,0,0,1-6.13,2.11c-1.37.25-2.81-.24-4.16.3a11.19,11.19,0,0,1-1.83,0,9.78,9.78,0,0,1-4.34-1c-2.72-.93-4.38-3-5.77-5.37A2.93,2.93,0,0,1,33,101.8c-.61-2.08-1-4.21-1.48-6.34a6.37,6.37,0,0,0-3.89-5c-1.28-.51-2.64-.14-4-.24-.45,0-.94,0-1-.59s.24-.89.76-1.06c.11,0,.24-.05.35-.09A1.92,1.92,0,0,0,24.05,88.27Z"/><path class="cls-7" d="M70.72,96.89a1.77,1.77,0,0,0-.21-2.6A16.19,16.19,0,0,1,71.58,91a23.47,23.47,0,0,0,.15-14.17c-.15-.47-.33-.92,0-1.38a.65.65,0,0,1,.45-.29,15.68,15.68,0,0,1,6.38,4.11c.77.75,1.62,1.46,1.65,2.68a20.14,20.14,0,0,1,3.38,10.68,6.36,6.36,0,0,1,0,2.46l-.44,1a15.94,15.94,0,0,1-5.29,6.09c-3.65,2.29-7.55,2.45-11.6,1.45a7.82,7.82,0,0,1-2.47-.91c-1.14-.75-1.09-1.79.11-2.43a11.09,11.09,0,0,1,2.51-.85A7.38,7.38,0,0,0,70.72,96.89Z"/><path class="cls-7" d="M33.75,97.45c-.59-1.82-.81-3.74-1.51-5.53a15.35,15.35,0,0,1,2.68-9,2.4,2.4,0,0,1,.84-1.78,31.36,31.36,0,0,1,6.53-5.63,1.71,1.71,0,0,1,1.12-.36.61.61,0,0,1,.45.29c-.14,1.68-.79,3.26-1,4.94a24.42,24.42,0,0,0,1.93,13.07A3.55,3.55,0,0,1,45.33,95c-1.23,1.16-1.23,2,0,3.16a17.59,17.59,0,0,0,3.64,2c.66.32,1.41.56,1.47,1.42s-.54,1.32-1.17,1.69c-4.7,2.75-10.46,2.43-14.13-2.83A22.78,22.78,0,0,1,33.75,97.45Z"/><path class="cls-6" d="M62.28,92.14a55.93,55.93,0,0,0-9.68.47c-.5-1.78-1.25-3.47-1.59-5.3a29.21,29.21,0,0,1-.26-7.58c.15-2.14,1.6-3.65,2.89-5.19a11.28,11.28,0,0,1,2.48-2.29,1.89,1.89,0,0,1,2.25-.1A13.82,13.82,0,0,1,63.68,78a9.77,9.77,0,0,1,.47,5.48A41.11,41.11,0,0,1,62.28,92.14Z"/><path class="cls-8" d="M86,40.09a17.8,17.8,0,0,1,1.2-4.54c1.23-4.08,2.22-8.22,3.15-12.38.22-1,.42-2.08,1.58-2.38a3.13,3.13,0,0,1,3.12,1.08c2.44,2.42,3.43,5.49,4.11,8.7,1,4.82,1.41,9.62-.31,14.38a12,12,0,0,1-3.66,5.56c-1,.45-1.5-.3-1.86-1a5.6,5.6,0,0,1,.33-5.63,3.65,3.65,0,0,0,.49-3.19,3.76,3.76,0,0,0-6.27-1.63C87.35,39.54,87,40.36,86,40.09Z"/><path class="cls-6" d="M59.82,64.85a4,4,0,0,1,2-3.47,1.2,1.2,0,0,1,1.15,0,2.47,2.47,0,0,0,3-1c.63-.77,1.26-1.56,1.85-2.37a25.56,25.56,0,0,1,6.56-6c.63-.43,1.31-1,2.2-.62a12.12,12.12,0,0,1,8.13,3.41,3.19,3.19,0,0,1,1.1,2.46c.16.68-.32,1-.75,1.38a53.1,53.1,0,0,1-7.86,5.35,82.82,82.82,0,0,1-9,4.41,3.94,3.94,0,0,1-3.26,0A31.3,31.3,0,0,1,60.51,66C60.11,65.75,59.72,65.44,59.82,64.85Z"/><path d="M59.82,64.85A25.44,25.44,0,0,0,66,68.33a1.66,1.66,0,0,0,1.29,0,71.39,71.39,0,0,0,17.9-10.35,6.55,6.55,0,0,0,.58-.6,1.92,1.92,0,0,1,2.53,0,1.44,1.44,0,0,1,.25,2.35c-.64.7-1.36,1.33-2,2a3.24,3.24,0,0,1-1,1.31,20.15,20.15,0,0,1-2.94,2.18c-.12.11-.26.18-.38.28s-.73.34-.61.76.53.23.83.28a.92.92,0,0,1,.62.3,1.64,1.64,0,0,1,0,1.72c-1.71,3.13-5.25,3.74-7.23,1.71a1.1,1.1,0,0,0-1.5-.21c-.67.37-1.37.66-2.06,1a7.58,7.58,0,0,1-5.12,1.48,13.75,13.75,0,0,1-6.79-4.25c-.8-.93-1.89-1.62-2.32-2.85-.18-.54-.77-1.17-.06-1.59s1,.31,1.35.81Z"/><path class="cls-6" d="M30.09,58c0-3.31,2.17-5.09,5.44-4.67a9.83,9.83,0,0,1,5,2.24c.66-.16.93.37,1.26.74,2.72,3,5.29,6,8.18,8.86.35.34.88.63.72,1.28-.06,1.71-.36,2.05-2,2.2a1.47,1.47,0,0,1-1.49-.08,72,72,0,0,1-15.92-8.93C30.74,59.24,30,58.92,30.09,58Z"/><path d="M30.09,58a67.43,67.43,0,0,0,16.28,9.66c.77.34,1.55.66,2.32,1,.11.16.21.32.31.49.63,1.56.61,1.62-1.08,3.18-1.93.55-3.45-.47-5-1.3-1-.57-2-.92-3-1.55-.57-.28-1.15-.54-1.85-.89.13.66.87.85.84,1.44-.19.79-.83,1-1.5,1.22-2.74.65-5.83-1.63-5.59-4.42.16-2-1-2.79-2.18-3.75a4,4,0,0,1-1-1.43c-.47-.43-.95-.86-1.4-1.3-1.72-1.71-1.54-2.64.7-3.56l.71,0c.78-.15.88.55,1.21,1Z"/><path class="cls-8" d="M50.66,66.46a63.24,63.24,0,0,1-6.19-6.38c-1.34-1.48-2.64-3-4-4.5L40,54.37A2.66,2.66,0,0,1,41,51.28a3.24,3.24,0,0,1,3.62-.3,8.67,8.67,0,0,1,3,2.77c2.07,2.71,4.06,5.49,5.93,8.35a2.94,2.94,0,0,1-.78,4.25,1,1,0,0,1-1.31.14Z"/><path class="cls-8" d="M76.54,51.46c-4.2,2-7.26,5.3-10,9-1.46,2-2.53,2.13-4.73,1l-.29-.47c-.68-.38-1.27-.8-.71-1.7V59c-.69-1.69.51-2.76,1.44-3.77A23.49,23.49,0,0,1,67.67,51a17.82,17.82,0,0,1,5.21-2.43,8,8,0,0,1,2.75-.23c1.54.21,2.15,1.4,1.4,2.63Z"/><path class="cls-9" d="M85.28,62.62c.41-.32.82-.64,1.22-1,.84,1.41,1.78,2.74,2.48,4.23,2.25,4.79.19,9.62-4.85,11.26a10.72,10.72,0,0,0-2.45,1c-1.08.7-1.73,1.54-1.31,2.9a.9.9,0,0,1-.16.91,21.19,21.19,0,0,0-8-6.5,16.94,16.94,0,0,1-4.46-2.33c-.37-.23-.79-.47-.64-1,1.94.3,3.43-.93,5.12-1.48,1.29.28,1.87,1.45,2.77,2.23a7.81,7.81,0,0,0,7.7,1.71,6.55,6.55,0,0,0,4.47-6.35,8.44,8.44,0,0,0-1.37-4.29A2.4,2.4,0,0,1,85.28,62.62Z"/><path class="cls-5" d="M86,40.09c1.08-.69,1.69-1.93,3-2.38A4.47,4.47,0,0,1,93.92,39a4.19,4.19,0,0,1,.32,5,5.16,5.16,0,0,0-.66,4.93c.29.76.68,1.48,1.61,1.63-1.36,1.23-2.58,1.45-4.11.17a15,15,0,0,1-5.32-9.45A1.31,1.31,0,0,1,86,40.09Z"/><path class="cls-3" d="M28.48,47.81a10.19,10.19,0,0,1-2.89,3.5C23.16,53,20.85,52.65,19,50.39a17.9,17.9,0,0,1-3.91-9.7c-.16-1.47.16-3,.13-4.34a32.62,32.62,0,0,1,.63-6.28,19.35,19.35,0,0,1,2.36-6.45l2-1.15,3.15-1.82L24.5,20a3.68,3.68,0,0,1,1.88,2.63q.77,3.16,1.47,6.35c.59,2.67,1.44,5.28,2.25,7.89a11.63,11.63,0,0,1,.69,4.46C31.12,43.81,29.68,45.77,28.48,47.81Z"/><path class="cls-3" d="M51.39,66.49c2.21-.79,2.8-2.48,1.5-4.41-2.21-3.3-4.52-6.52-7-9.64a3.17,3.17,0,0,0-3.56-1.37c-1.63.46-2.18,1.76-2.34,3.3-.94-1-.43-2.69,1-3.66,1.65-1.12,3.2-.51,5.4,1.26a23.78,23.78,0,0,1,3.92,4.73c1.17,1.59,2.25,3.24,3.34,4.89,1.42,2.13,1.11,3.86-.92,5.3C52.14,67.33,51.63,67.34,51.39,66.49Z"/><path class="cls-3" d="M67.1,72.07a42.38,42.38,0,0,0,4,2.58c.37.24.71.52,1.07.78h-.47a3.41,3.41,0,0,1-2.54-.92c-2.23-1.58-5-2.35-7-4.08-1.78-1.47-3.66-3-4.61-5.24a2.58,2.58,0,0,1-.3-.9c0-.63.11-1.27.85-1.39s1,.34,1.18,1c.05.24.07.48.1.71l-1.15-.67C58.17,66.26,62.35,70.09,67.1,72.07Z"/><path class="cls-3" d="M77,51c0-1.73-.39-2.16-2.08-2.17-2.9,0-5.31,1.38-7.71,2.75a17.08,17.08,0,0,0-5.36,4.76A5.53,5.53,0,0,0,60.81,59c-.74-.42-.78-1-.46-1.73a8.54,8.54,0,0,1,3.28-3.75c2.29-1.55,4.58-3.1,6.94-4.53a9.47,9.47,0,0,1,4.88-1.08,2.68,2.68,0,0,1,2.15,1.18C78.26,49.93,78.08,50.47,77,51Z"/><path class="cls-10" d="M83.65,87.33a4.46,4.46,0,0,1,.13-4.52A2.62,2.62,0,0,1,87,82.24c-.71.78-1.81,1.07-2.32,2A15.09,15.09,0,0,0,83.65,87.33Z"/><path class="cls-3" d="M47.78,72.08A2.78,2.78,0,0,0,49,69.15c1.12,1.07,1,1.53,0,2.66A15.23,15.23,0,0,1,46,74.74a3.34,3.34,0,0,1-2.1.7l-.47,0c-.17-.49.16-.77.48-1A18,18,0,0,1,47.78,72.08Z"/><path class="cls-3" d="M70.25,94.09a24.27,24.27,0,0,0-6.86-1.73c-.31,0-.62-.14-.93-.21.89-.9,2-.61,3-.43a31,31,0,0,1,3.14.72C69.42,92.67,70.16,93.07,70.25,94.09Z"/><path class="cls-3" d="M52.4,92.64l-6.34,1.87a1,1,0,0,1,.53-1A21.63,21.63,0,0,1,51,92.13,2,2,0,0,1,52.4,92.64Z"/><path class="cls-3" d="M60.81,59.21a4.58,4.58,0,0,0,.72,1.7c-.6.21-1.1.19-1.32-.53S60.13,59.35,60.81,59.21Z"/><path class="cls-3" d="M29.83,57.79l-1.21-1c.11-.45.35-.51.67-.2A1.83,1.83,0,0,1,29.83,57.79Z"/><path class="cls-6" d="M83.6,95.07c0-.82,0-1.64,0-2.46.41.61.15,1.31.24,2Z"/><path class="cls-11" d="M33,101.8a16.91,16.91,0,0,0,2.69,4.07,11.19,11.19,0,0,0,3.36,2.44c1,.91,2.17,1.44,3.2,2.26a8.33,8.33,0,0,0,2.13,1.49c.7.37,1,1.28,2,1.23a23.63,23.63,0,0,1,4,1.22,24.86,24.86,0,0,0,8.09,1.21,23.66,23.66,0,0,0,10.61-2.46,3.27,3.27,0,0,1,1.14-.38,1.66,1.66,0,0,1,.91.09c.51.18.79-.07,1.11-.45a11.14,11.14,0,0,1,1.36-1.83,32.59,32.59,0,0,0,4.78-4.39,26.53,26.53,0,0,1,3.23-3c1.44-1.41,2.84-2.86,4.33-4.21,2-1.83,4.11-3.58,6.17-5.37.31.28.07.47,0,.63-3.85,5-7.54,10.23-11.68,15-2.48,2.89-4.93,5.85-8.27,7.87a20.35,20.35,0,0,1-8.81,2.69c-1.51.13-3,.26-4.56.31-4.71.14-8.95-1.4-13-3.48a24.61,24.61,0,0,1-7.64-5.62c-1.78-2.07-3.43-4.25-5.17-6.36q-3.53-4.27-7.09-8.53a.53.53,0,0,1-.15-.63,21.91,21.91,0,0,1,3.76,3.07c1,.8,1.77,1.76,2.67,2.62C32.38,101.53,32.52,102,33,101.8Z"/><path class="cls-12" d="M81.66,103.26C79.29,106.06,77,109,73.88,111a.63.63,0,0,1-.23-.46c.21-1.26.74-2.43.95-3.69a17.15,17.15,0,0,0,6.77-3.61Z"/><path class="cls-8" d="M47.78,72.08c-1,1.27-2.44,1.82-3.65,2.74-.26.19-.57.3-.74.6a31.77,31.77,0,0,0-8.47,7.5,7.13,7.13,0,0,1-.47-2.09c-.34-1.63-1-2.93-2.78-3.43A11.48,11.48,0,0,1,29,76.3a7.85,7.85,0,0,1-3-10.2,44.84,44.84,0,0,1,2.59-4.45l1.22,1a2.52,2.52,0,0,1-.5,1.27c-2.2,3.29-1.81,7.26,1.12,9.52,3.19,2.47,6.58,1.86,9.67-.59.9-.77,1.48-1.95,2.78-2.23a12.65,12.65,0,0,1,2.41,1.07A6.3,6.3,0,0,0,47.78,72.08Z"/><path class="cls-13" d="M70.55,113.16a24.52,24.52,0,0,1-12,3.1A29.09,29.09,0,0,1,47.25,114c-.4-.16-.84-.25-1.26-.38a.53.53,0,0,1,0-.33,4.23,4.23,0,0,0,.68-1.66c.3-1.17.11-1.47-1.06-1.91a.72.72,0,0,1-.52-.45c1.4-.49,2.87,0,4.3-.35a27.78,27.78,0,0,0,6.23-2.26,2.83,2.83,0,0,1,2.41-.13c3.93,1.41,8,1.3,12.06.89a1.25,1.25,0,0,1,.43.82,32.34,32.34,0,0,0,.27,4.39A.68.68,0,0,1,70.55,113.16Z"/><path class="cls-14" d="M33.75,97.45c1.18,1.36,1.86,3.06,3.18,4.36,2.94,2.9,6.3,3.26,10,2.06a7,7,0,0,0,2.37-1.17c.36-.3.87-.55.76-1.12s-.6-.62-1-.74a11,11,0,0,1-3.48-2.13c-.14-.1-.17-.34-.26-.52A29.31,29.31,0,0,0,53.55,100c.86.09,1,.48,1,1.24.2,2.55-1.29,3.81-3.37,4.69-2.82,1.19-5.74,1-8.67.6l-1-.15c-3.86-.54-6.45-2.53-7.3-6.47C34.1,99.1,33.93,98.27,33.75,97.45Z"/><path class="cls-14" d="M70.72,96.89A4.24,4.24,0,0,1,68,99.44c-1.3.42-2.6.81-3.9,1.24-.37.12-.8.28-.79.79s.39.58.71.73c5,2.24,11.11,2.06,15.5-2A54.86,54.86,0,0,0,83.16,96c-1.7,4.66-4.84,7.69-9.77,8.76a27.22,27.22,0,0,1-10.9.16,5.88,5.88,0,0,1-3-1.44,3.2,3.2,0,0,1-.84-2.89c.06-.71.71-.59,1.14-.64a38,38,0,0,0,5.57-1A20.36,20.36,0,0,0,70.72,96.89Z"/><path class="cls-15" d="M70.55,113.16a12,12,0,0,1-.47-5.74,23.69,23.69,0,0,0,4.52-.57c.45,0,.58.17.43.57a15.9,15.9,0,0,1-1.1,3.15,1.69,1.69,0,0,0-1.6,1.48,1.71,1.71,0,0,1-1.12,1.42C70.9,113.55,70.77,113.26,70.55,113.16Z"/><path class="cls-16" d="M45.08,109.27a2,2,0,0,1,.35,0c.61.22,1.55-.52,1.85.44a3.54,3.54,0,0,1-1.21,3.68,1.44,1.44,0,0,1-1-1.21,1.71,1.71,0,0,0-1.89-1.58c-.49-.47-.84-.94,0-1.38Z"/><path class="cls-17" d="M43.17,109.27c-.55.52,0,.88.19,1.31a1.28,1.28,0,0,1,.84,1.83A30.45,30.45,0,0,1,39.34,109c-.19-.15-.5-.32-.29-.67A12.7,12.7,0,0,0,43.17,109.27Z"/><path class="cls-18" d="M74.57,73a11.15,11.15,0,0,1-2.35-2.45c.94-.51,1.9-1,2.83-1.54.57-.34.68.14.92.42a3.53,3.53,0,0,0,4.4,1.14,3.78,3.78,0,0,0,2.48-4,3.44,3.44,0,0,1-.32-2l2.75-2a1.5,1.5,0,0,1,.75.89,2.73,2.73,0,0,1-.12,2.32c-1.81,4.36-5.29,6.57-9.73,7.55A2.6,2.6,0,0,1,74.57,73Z"/><path class="cls-19" d="M82.53,64.66c.86.55.69,1.26.32,2a1.71,1.71,0,0,1-1.22.35,1,1,0,0,1-1-.75c-.15-.48.25-.6.54-.78Z"/><path class="cls-18" d="M29.08,63.51a1.58,1.58,0,0,1,.75-.89c.22.17.43.37.66.52,1.29.78,2.25,1.5,1.77,3.42a3.56,3.56,0,0,0,2.38,4,3.58,3.58,0,0,0,4.09-.69c.17-.67.68-.78,1.26-.79a17,17,0,0,1,2.91,1.49A11.42,11.42,0,0,1,40.54,73a2.89,2.89,0,0,1-2.2.22c-4.08-1.07-7.31-3.2-9-7.21A3,3,0,0,1,29.08,63.51Z"/><path class="cls-20" d="M40,69.1a1.51,1.51,0,0,1-1.26.79,1.56,1.56,0,0,1-1.08-.66A1,1,0,0,1,37.59,68c.31-.37.62.07.89.21C39,68.47,39.49,68.8,40,69.1Z"/><path class="cls-21" d="M74.57,73C80.45,72.51,85,69,86,63.51c2.18,3,2.19,6.91,0,9.38a7.59,7.59,0,0,1-9.45,1.62A7,7,0,0,1,74.57,73Z"/><path class="cls-8" d="M29.2,39.43a1.86,1.86,0,0,1-.93-.53,4.07,4.07,0,0,0-6.71,2.38,5.49,5.49,0,0,0,1,3.76,3.83,3.83,0,0,1-.09,4.13,1.7,1.7,0,0,1-2.31.85,12.5,12.5,0,0,1-3.76-7.13,29,29,0,0,1,2.28-18.21,8.18,8.18,0,0,1,1.51-2.21l3.15-1.82a2.29,2.29,0,0,1,1.93,1.8c.93,3.49,1.59,7.06,2.62,10.53q.87,2.94,1.72,5.9a.61.61,0,0,1,.07.17C29.77,39.37,29.56,39.47,29.2,39.43Z"/><path class="cls-5" d="M20.16,50a3,3,0,0,0,2-4.63c-.94-1.59-1.62-3.19-.92-5.11a4.69,4.69,0,0,1,7.36-1.82c.24.22.39,1,1,.42a5.09,5.09,0,0,1,.14,4.2,18.09,18.09,0,0,1-4.43,7.21C23.54,52,21.49,51.85,20.16,50Z"/><path class="cls-22" d="M71.21,113.47a8.56,8.56,0,0,0,.76-2c.32-1.3.65-1.44,2-.87l-.05.43c-.44.66-.86,1.34-1.34,2A1.11,1.11,0,0,1,71.21,113.47Z"/><path class="cls-23" d="M44.2,112.41l-.84-1.83c1.3-.58,1.64-.44,2,.85a8,8,0,0,0,.75,2,.71.71,0,0,0-.08.18C45.16,113.56,44.72,112.93,44.2,112.41Z"/><path class="cls-21" d="M29.08,63.51c1.08,5.53,5.59,9,11.46,9.53-2.85,2.64-6.33,3.2-9.41,1.49C27.15,72.31,26.23,67.38,29.08,63.51Z"/><path class="cls-24" d="M114,86.62V42.24a17.06,17.06,0,0,0-8.53-14.77L67,5.29A17,17,0,0,0,50,5.29L11.53,27.47A17.06,17.06,0,0,0,3,42.24V86.62a17.06,17.06,0,0,0,8.53,14.77L50,123.58a17.1,17.1,0,0,0,17.06,0l38.42-22.19A17.06,17.06,0,0,0,114,86.62Z"/></g></g></svg>