<svg xmlns="http://www.w3.org/2000/svg" viewBox="0 0 102.46 60.43"><defs><style>.cls-1{fill:#cacad8;}.cls-1,.cls-2{stroke:#cacad8;stroke-linecap:round;stroke-linejoin:round;stroke-width:3px;}.cls-2{fill:#fff;}</style></defs><g id="Calque_2" data-name="Calque 2"><g id="Calque_9" data-name="Calque 9"><path class="cls-1" d="M101,41.49v6.38c0,1.82-.62,3.07-1.93,3.32A86,86,0,0,0,78.3,58.61c-2.92,1.39-7.65-2-7.65-5.79V45.41A76.55,76.55,0,0,0,6.85,57.09c-3,2.15-5.35,1.48-5.35-1.84V48.87C30.14,22,72.31,19.49,101,41.49Z"/><path class="cls-2" d="M99,44.81A86.26,86.26,0,0,0,78.3,52.23c-2.92,1.39-7.65-2-7.65-5.79V39A76.57,76.57,0,0,0,6.85,50.71c-3,2.15-5.35,1.49-5.35-1.84V34.11A14.25,14.25,0,0,1,6.85,23.92a76.58,76.58,0,0,1,63.8-11.68V4.84c0-3.88,4.73-4.63,7.65-.92A223.26,223.26,0,0,1,99,35C101.6,39.71,101.6,44.33,99,44.81Z"/></g></g></svg>