<svg xmlns="http://www.w3.org/2000/svg" viewBox="0 0 555.08 182.15"><defs><style>.cls-1{fill:#12af6b;}.cls-2{fill:#0f956a;}.cls-3{fill:#fff;}</style></defs><g id="Calque_2" data-name="Calque 2"><g id="Calque_1-2" data-name="Calque 1"><polygon class="cls-1" points="38.22 0.02 0 66.21 38.22 132.4 114.66 132.4 152.86 66.2 114.64 0.04 38.22 0.02"/><polygon class="cls-1" points="105.25 49.78 67.03 115.97 105.25 182.15 181.69 182.15 219.89 115.96 181.66 49.79 105.25 49.78"/><polygon class="cls-1" points="172.3 0.02 134.08 66.2 172.3 132.39 248.74 132.39 286.94 66.19 248.72 0.03 172.3 0.02"/><polygon class="cls-1" points="239.33 49.77 201.11 115.96 239.33 182.15 315.77 182.15 353.97 115.95 315.75 49.78 239.33 49.77"/><polygon class="cls-1" points="306.37 0.01 268.15 66.19 306.37 132.38 382.81 132.38 421.01 66.18 382.79 0.02 306.37 0.01"/><polygon class="cls-1" points="373.4 49.77 335.18 115.95 373.4 182.14 449.84 182.14 488.04 115.94 449.82 49.78 373.4 49.77"/><polygon class="cls-1" points="440.45 0 402.23 66.19 440.45 132.37 516.89 132.37 555.09 66.18 516.86 0.01 440.45 0"/><polygon class="cls-2" points="526.54 89.42 507.4 89.41 516.99 97.69 516.99 105.98 507.4 122.58 488.24 89.41 469.1 89.41 459.53 72.84 459.53 64.55 516.98 72.82 497.82 39.65 459.52 39.65 440.36 72.82 469.09 114.29 469.09 122.58 440.35 172.36 430.78 155.76 430.78 147.47 449.93 122.58 402.23 122.57 392.5 114.28 440.35 105.98 430.78 89.41 392.48 89.41 373.33 122.58 392.48 147.47 392.48 155.76 382.89 172.36 354.16 122.59 354.16 114.3 363.74 105.99 344.59 72.83 325.44 105.99 335.01 114.31 335.01 122.6 306.27 172.36 296.71 155.77 296.71 147.48 315.85 122.59 268.15 122.59 258.4 114.3 306.28 106 296.7 89.42 258.39 89.42 239.25 122.59 258.38 147.48 258.38 155.77 248.81 172.36 220.08 122.6 220.08 114.31 229.67 106 210.51 72.84 191.37 106 200.92 114.31 194.62 122.6 181.78 122.6 162.62 89.43 124.32 89.43 114.74 106.02 162.6 114.32 152.86 122.61 105.17 122.61 124.32 155.77 162.62 155.77 191.35 130.91 191.35 139.2 172.2 172.37 114.73 172.37 86.01 122.61 86.01 114.32 114.73 72.84 66.84 72.84 57.28 64.55 105.16 56.25 95.59 39.67 95.59 31.38 133.89 72.84 172.2 72.84 181.78 89.43 200.93 56.24 191.37 39.66 181.78 39.66 172.19 31.37 200.94 23.07 210.51 39.66 220.09 23.07 248.82 31.37 239.25 39.66 229.67 39.66 220.1 56.24 239.25 89.41 248.81 72.83 287.13 72.83 315.84 23.07 335.01 14.79 335.01 23.08 306.28 72.83 315.87 89.41 344.58 39.65 373.33 89.41 382.89 72.83 354.17 23.07 354.17 14.78 373.33 23.06 382.91 39.67 402.05 72.83 421.21 72.82 449.93 23.05 507.4 23.05 536.13 64.53 536.13 72.82 526.54 89.42"/><polygon class="cls-2" points="38.13 72.83 57.28 97.72 57.28 106.01 47.7 122.61 18.96 72.84 18.96 64.55 47.7 23.08 66.84 14.79 66.84 23.08 38.13 72.83"/><polygon class="cls-3" points="526.54 81.13 507.4 81.12 516.99 97.69 507.4 114.29 488.24 81.12 469.1 81.12 459.53 64.55 516.98 64.53 497.82 31.36 459.52 31.36 440.36 64.53 469.09 114.29 440.35 164.06 430.78 147.47 449.93 114.29 392.5 114.28 402.06 97.68 440.35 97.69 430.78 81.12 392.48 81.12 373.33 114.29 392.48 147.47 382.89 164.06 354.16 114.3 363.74 97.7 344.59 64.54 325.44 97.7 335.01 114.31 306.27 164.07 296.71 147.48 315.85 114.3 258.4 114.3 267.97 97.7 306.28 97.71 296.7 81.13 258.39 81.13 239.25 114.3 258.38 147.48 248.81 164.07 220.08 114.31 229.67 97.71 210.51 64.55 191.37 97.71 200.92 114.31 181.78 114.31 162.62 81.14 124.32 81.14 114.74 97.73 153.04 97.72 162.6 114.32 105.17 114.32 124.32 147.48 162.62 147.48 172.19 130.91 191.35 130.91 172.2 164.08 114.73 164.08 86.01 114.32 114.73 64.55 57.28 64.55 66.86 47.95 105.16 47.96 95.59 31.38 105.16 14.8 133.89 64.55 172.2 64.55 181.78 81.14 200.93 47.95 191.37 31.37 172.19 31.37 181.78 14.78 200.94 14.78 210.51 31.37 220.09 14.78 239.25 14.78 248.82 31.37 229.67 31.37 220.1 47.95 239.25 81.12 248.81 64.54 287.13 64.54 315.84 14.78 335.01 14.79 306.28 64.54 315.87 81.12 344.58 31.36 373.33 81.12 382.89 64.54 354.17 14.78 373.33 14.77 382.91 31.38 402.05 64.54 421.21 64.53 449.93 14.76 507.4 14.76 536.13 64.53 526.54 81.13"/><polygon class="cls-3" points="38.13 64.54 57.28 97.72 47.7 114.32 18.96 64.55 47.7 14.79 66.84 14.79 38.13 64.54"/><polygon class="cls-1" points="483.58 167.92 475.37 163.18 467.16 167.92 467.16 177.4 475.37 182.14 483.58 177.4 483.58 167.92"/><polygon class="cls-1" points="503.93 142.8 503.93 157.17 491.49 149.99 503.93 142.8"/><polygon class="cls-1" points="491.49 174.96 491.49 156.09 503.93 163.27 503.93 182.14 491.49 174.96"/><path class="cls-1" d="M528.89,142.8l-17,9.83v19.68l17,9.82,17-9.83V152.63Zm6.84,23.62-6.84,4-6.85-4v-7.9l6.85-4,6.84,4Z"/></g></g></svg>